%TF.GenerationSoftware,KiCad,Pcbnew,(5.1.9)-1*%
%TF.CreationDate,2021-10-26T22:47:50+01:00*%
%TF.ProjectId,Top hat 16mm Blade,546f7020-6861-4742-9031-366d6d20426c,rev?*%
%TF.SameCoordinates,Original*%
%TF.FileFunction,Paste,Top*%
%TF.FilePolarity,Positive*%
%FSLAX46Y46*%
G04 Gerber Fmt 4.6, Leading zero omitted, Abs format (unit mm)*
G04 Created by KiCad (PCBNEW (5.1.9)-1) date 2021-10-26 22:47:50*
%MOMM*%
%LPD*%
G01*
G04 APERTURE LIST*
G04 APERTURE END LIST*
%TO.C,J9*%
G36*
G01*
X169000000Y-148500000D02*
X169000000Y-145500000D01*
G75*
G02*
X169500000Y-145000000I500000J0D01*
G01*
X170500000Y-145000000D01*
G75*
G02*
X171000000Y-145500000I0J-500000D01*
G01*
X171000000Y-148500000D01*
G75*
G02*
X170500000Y-149000000I-500000J0D01*
G01*
X169500000Y-149000000D01*
G75*
G02*
X169000000Y-148500000I0J500000D01*
G01*
G37*
%TD*%
%TO.C,J7*%
G36*
G01*
X171750000Y-163250000D02*
X171750000Y-161750000D01*
G75*
G02*
X172000000Y-161500000I250000J0D01*
G01*
X172500000Y-161500000D01*
G75*
G02*
X172750000Y-161750000I0J-250000D01*
G01*
X172750000Y-163250000D01*
G75*
G02*
X172500000Y-163500000I-250000J0D01*
G01*
X172000000Y-163500000D01*
G75*
G02*
X171750000Y-163250000I0J250000D01*
G01*
G37*
%TD*%
%TO.C,J6*%
G36*
G01*
X170333330Y-163250000D02*
X170333330Y-161750000D01*
G75*
G02*
X170583330Y-161500000I250000J0D01*
G01*
X171083330Y-161500000D01*
G75*
G02*
X171333330Y-161750000I0J-250000D01*
G01*
X171333330Y-163250000D01*
G75*
G02*
X171083330Y-163500000I-250000J0D01*
G01*
X170583330Y-163500000D01*
G75*
G02*
X170333330Y-163250000I0J250000D01*
G01*
G37*
%TD*%
%TO.C,J5*%
G36*
G01*
X168916664Y-163250000D02*
X168916664Y-161750000D01*
G75*
G02*
X169166664Y-161500000I250000J0D01*
G01*
X169666664Y-161500000D01*
G75*
G02*
X169916664Y-161750000I0J-250000D01*
G01*
X169916664Y-163250000D01*
G75*
G02*
X169666664Y-163500000I-250000J0D01*
G01*
X169166664Y-163500000D01*
G75*
G02*
X168916664Y-163250000I0J250000D01*
G01*
G37*
%TD*%
%TO.C,J4*%
G36*
G01*
X167499998Y-163250000D02*
X167499998Y-161750000D01*
G75*
G02*
X167749998Y-161500000I250000J0D01*
G01*
X168249998Y-161500000D01*
G75*
G02*
X168499998Y-161750000I0J-250000D01*
G01*
X168499998Y-163250000D01*
G75*
G02*
X168249998Y-163500000I-250000J0D01*
G01*
X167749998Y-163500000D01*
G75*
G02*
X167499998Y-163250000I0J250000D01*
G01*
G37*
%TD*%
%TO.C,J3*%
G36*
G01*
X166083332Y-163250000D02*
X166083332Y-161750000D01*
G75*
G02*
X166333332Y-161500000I250000J0D01*
G01*
X166833332Y-161500000D01*
G75*
G02*
X167083332Y-161750000I0J-250000D01*
G01*
X167083332Y-163250000D01*
G75*
G02*
X166833332Y-163500000I-250000J0D01*
G01*
X166333332Y-163500000D01*
G75*
G02*
X166083332Y-163250000I0J250000D01*
G01*
G37*
%TD*%
%TO.C,J2*%
G36*
G01*
X164666666Y-163250000D02*
X164666666Y-161750000D01*
G75*
G02*
X164916666Y-161500000I250000J0D01*
G01*
X165416666Y-161500000D01*
G75*
G02*
X165666666Y-161750000I0J-250000D01*
G01*
X165666666Y-163250000D01*
G75*
G02*
X165416666Y-163500000I-250000J0D01*
G01*
X164916666Y-163500000D01*
G75*
G02*
X164666666Y-163250000I0J250000D01*
G01*
G37*
%TD*%
M02*
