%TF.GenerationSoftware,KiCad,Pcbnew,(5.1.9)-1*%
%TF.CreationDate,2021-10-26T22:47:50+01:00*%
%TF.ProjectId,Top hat 16mm Blade,546f7020-6861-4742-9031-366d6d20426c,rev?*%
%TF.SameCoordinates,Original*%
%TF.FileFunction,Soldermask,Bot*%
%TF.FilePolarity,Negative*%
%FSLAX46Y46*%
G04 Gerber Fmt 4.6, Leading zero omitted, Abs format (unit mm)*
G04 Created by KiCad (PCBNEW (5.1.9)-1) date 2021-10-26 22:47:50*
%MOMM*%
%LPD*%
G01*
G04 APERTURE LIST*
%ADD10O,1.700000X1.700000*%
%ADD11R,1.700000X1.700000*%
%ADD12O,1.730000X1.030000*%
%ADD13C,2.200000*%
G04 APERTURE END LIST*
%TO.C,J8*%
G36*
G01*
X164500000Y-148500000D02*
X164500000Y-145500000D01*
G75*
G02*
X165000000Y-145000000I500000J0D01*
G01*
X166000000Y-145000000D01*
G75*
G02*
X166500000Y-145500000I0J-500000D01*
G01*
X166500000Y-148500000D01*
G75*
G02*
X166000000Y-149000000I-500000J0D01*
G01*
X165000000Y-149000000D01*
G75*
G02*
X164500000Y-148500000I0J500000D01*
G01*
G37*
%TD*%
D10*
%TO.C,J14*%
X176500000Y-151370000D03*
X176500000Y-153910000D03*
D11*
X176500000Y-156450000D03*
%TD*%
D10*
%TO.C,J13*%
X173500000Y-151370000D03*
X173500000Y-153910000D03*
D11*
X173500000Y-156450000D03*
%TD*%
D12*
%TO.C,J12*%
X169545000Y-152440000D03*
X169545000Y-153940000D03*
G36*
G01*
X170160001Y-155955000D02*
X168929999Y-155955000D01*
G75*
G02*
X168680000Y-155705001I0J249999D01*
G01*
X168680000Y-155174999D01*
G75*
G02*
X168929999Y-154925000I249999J0D01*
G01*
X170160001Y-154925000D01*
G75*
G02*
X170410000Y-155174999I0J-249999D01*
G01*
X170410000Y-155705001D01*
G75*
G02*
X170160001Y-155955000I-249999J0D01*
G01*
G37*
%TD*%
%TO.C,J11*%
X165522500Y-152440000D03*
X165522500Y-153940000D03*
G36*
G01*
X166137501Y-155955000D02*
X164907499Y-155955000D01*
G75*
G02*
X164657500Y-155705001I0J249999D01*
G01*
X164657500Y-155174999D01*
G75*
G02*
X164907499Y-154925000I249999J0D01*
G01*
X166137501Y-154925000D01*
G75*
G02*
X166387500Y-155174999I0J-249999D01*
G01*
X166387500Y-155705001D01*
G75*
G02*
X166137501Y-155955000I-249999J0D01*
G01*
G37*
%TD*%
%TO.C,J10*%
X161500000Y-152440000D03*
X161500000Y-153940000D03*
G36*
G01*
X162115001Y-155955000D02*
X160884999Y-155955000D01*
G75*
G02*
X160635000Y-155705001I0J249999D01*
G01*
X160635000Y-155174999D01*
G75*
G02*
X160884999Y-154925000I249999J0D01*
G01*
X162115001Y-154925000D01*
G75*
G02*
X162365000Y-155174999I0J-249999D01*
G01*
X162365000Y-155705001D01*
G75*
G02*
X162115001Y-155955000I-249999J0D01*
G01*
G37*
%TD*%
%TO.C,J1*%
G36*
G01*
X163250000Y-163250000D02*
X163250000Y-161750000D01*
G75*
G02*
X163500000Y-161500000I250000J0D01*
G01*
X164000000Y-161500000D01*
G75*
G02*
X164250000Y-161750000I0J-250000D01*
G01*
X164250000Y-163250000D01*
G75*
G02*
X164000000Y-163500000I-250000J0D01*
G01*
X163500000Y-163500000D01*
G75*
G02*
X163250000Y-163250000I0J250000D01*
G01*
G37*
%TD*%
D13*
%TO.C,H4*%
X176000000Y-162000000D03*
%TD*%
%TO.C,H3*%
X176000000Y-146000000D03*
%TD*%
%TO.C,H2*%
X160000000Y-162000000D03*
%TD*%
%TO.C,H1*%
X160000000Y-146000000D03*
%TD*%
M02*
