%TF.GenerationSoftware,KiCad,Pcbnew,(5.1.9)-1*%
%TF.CreationDate,2022-05-31T00:34:38+01:00*%
%TF.ProjectId,board,626f6172-642e-46b6-9963-61645f706362,rev?*%
%TF.SameCoordinates,Original*%
%TF.FileFunction,Copper,L1,Top*%
%TF.FilePolarity,Positive*%
%FSLAX46Y46*%
G04 Gerber Fmt 4.6, Leading zero omitted, Abs format (unit mm)*
G04 Created by KiCad (PCBNEW (5.1.9)-1) date 2022-05-31 00:34:38*
%MOMM*%
%LPD*%
G01*
G04 APERTURE LIST*
%TA.AperFunction,ComponentPad*%
%ADD10O,1.700000X1.700000*%
%TD*%
%TA.AperFunction,ComponentPad*%
%ADD11R,1.700000X1.700000*%
%TD*%
%TA.AperFunction,ViaPad*%
%ADD12C,0.800000*%
%TD*%
%TA.AperFunction,Conductor*%
%ADD13C,0.600000*%
%TD*%
%TA.AperFunction,Conductor*%
%ADD14C,0.254000*%
%TD*%
%TA.AperFunction,Conductor*%
%ADD15C,0.100000*%
%TD*%
G04 APERTURE END LIST*
%TO.P,J10,1*%
%TO.N,+BATT*%
%TA.AperFunction,ComponentPad*%
G36*
G01*
X103594000Y-130598000D02*
X103594000Y-129498000D01*
G75*
G02*
X103844000Y-129248000I250000J0D01*
G01*
X104944000Y-129248000D01*
G75*
G02*
X105194000Y-129498000I0J-250000D01*
G01*
X105194000Y-130598000D01*
G75*
G02*
X104944000Y-130848000I-250000J0D01*
G01*
X103844000Y-130848000D01*
G75*
G02*
X103594000Y-130598000I0J250000D01*
G01*
G37*
%TD.AperFunction*%
%TD*%
%TO.P,J6,1*%
%TO.N,GND*%
%TA.AperFunction,ComponentPad*%
G36*
G01*
X103594000Y-133138000D02*
X103594000Y-132038000D01*
G75*
G02*
X103844000Y-131788000I250000J0D01*
G01*
X104944000Y-131788000D01*
G75*
G02*
X105194000Y-132038000I0J-250000D01*
G01*
X105194000Y-133138000D01*
G75*
G02*
X104944000Y-133388000I-250000J0D01*
G01*
X103844000Y-133388000D01*
G75*
G02*
X103594000Y-133138000I0J250000D01*
G01*
G37*
%TD.AperFunction*%
%TD*%
%TO.P,J13,1*%
%TO.N,Net-(J1-Pad6)*%
%TA.AperFunction,ComponentPad*%
G36*
G01*
X108242000Y-124418000D02*
X108242000Y-125518000D01*
G75*
G02*
X107992000Y-125768000I-250000J0D01*
G01*
X106892000Y-125768000D01*
G75*
G02*
X106642000Y-125518000I0J250000D01*
G01*
X106642000Y-124418000D01*
G75*
G02*
X106892000Y-124168000I250000J0D01*
G01*
X107992000Y-124168000D01*
G75*
G02*
X108242000Y-124418000I0J-250000D01*
G01*
G37*
%TD.AperFunction*%
%TD*%
%TO.P,J12,1*%
%TO.N,Net-(J11-Pad3)*%
%TA.AperFunction,ComponentPad*%
G36*
G01*
X116802000Y-125518000D02*
X116802000Y-124418000D01*
G75*
G02*
X117052000Y-124168000I250000J0D01*
G01*
X118152000Y-124168000D01*
G75*
G02*
X118402000Y-124418000I0J-250000D01*
G01*
X118402000Y-125518000D01*
G75*
G02*
X118152000Y-125768000I-250000J0D01*
G01*
X117052000Y-125768000D01*
G75*
G02*
X116802000Y-125518000I0J250000D01*
G01*
G37*
%TD.AperFunction*%
%TD*%
D10*
%TO.P,J11,3*%
%TO.N,Net-(J11-Pad3)*%
X117602000Y-127508000D03*
%TO.P,J11,2*%
%TO.N,+BATT*%
X117602000Y-130048000D03*
D11*
%TO.P,J11,1*%
%TO.N,GND*%
X117602000Y-132588000D03*
%TD*%
%TO.P,J10,1*%
%TO.N,+BATT*%
%TA.AperFunction,ComponentPad*%
G36*
G01*
X119850000Y-130598000D02*
X119850000Y-129498000D01*
G75*
G02*
X120100000Y-129248000I250000J0D01*
G01*
X121200000Y-129248000D01*
G75*
G02*
X121450000Y-129498000I0J-250000D01*
G01*
X121450000Y-130598000D01*
G75*
G02*
X121200000Y-130848000I-250000J0D01*
G01*
X120100000Y-130848000D01*
G75*
G02*
X119850000Y-130598000I0J250000D01*
G01*
G37*
%TD.AperFunction*%
%TD*%
%TO.P,J9,1*%
%TO.N,Net-(J1-Pad3)*%
%TA.AperFunction,ComponentPad*%
G36*
G01*
X114262000Y-125518000D02*
X114262000Y-124418000D01*
G75*
G02*
X114512000Y-124168000I250000J0D01*
G01*
X115612000Y-124168000D01*
G75*
G02*
X115862000Y-124418000I0J-250000D01*
G01*
X115862000Y-125518000D01*
G75*
G02*
X115612000Y-125768000I-250000J0D01*
G01*
X114512000Y-125768000D01*
G75*
G02*
X114262000Y-125518000I0J250000D01*
G01*
G37*
%TD.AperFunction*%
%TD*%
%TO.P,J8,1*%
%TO.N,Net-(J1-Pad4)*%
%TA.AperFunction,ComponentPad*%
G36*
G01*
X111722000Y-125518000D02*
X111722000Y-124418000D01*
G75*
G02*
X111972000Y-124168000I250000J0D01*
G01*
X113072000Y-124168000D01*
G75*
G02*
X113322000Y-124418000I0J-250000D01*
G01*
X113322000Y-125518000D01*
G75*
G02*
X113072000Y-125768000I-250000J0D01*
G01*
X111972000Y-125768000D01*
G75*
G02*
X111722000Y-125518000I0J250000D01*
G01*
G37*
%TD.AperFunction*%
%TD*%
%TO.P,J7,1*%
%TO.N,Net-(J1-Pad5)*%
%TA.AperFunction,ComponentPad*%
G36*
G01*
X109182000Y-125518000D02*
X109182000Y-124418000D01*
G75*
G02*
X109432000Y-124168000I250000J0D01*
G01*
X110532000Y-124168000D01*
G75*
G02*
X110782000Y-124418000I0J-250000D01*
G01*
X110782000Y-125518000D01*
G75*
G02*
X110532000Y-125768000I-250000J0D01*
G01*
X109432000Y-125768000D01*
G75*
G02*
X109182000Y-125518000I0J250000D01*
G01*
G37*
%TD.AperFunction*%
%TD*%
%TO.P,J6,1*%
%TO.N,GND*%
%TA.AperFunction,ComponentPad*%
G36*
G01*
X119850000Y-133138000D02*
X119850000Y-132038000D01*
G75*
G02*
X120100000Y-131788000I250000J0D01*
G01*
X121200000Y-131788000D01*
G75*
G02*
X121450000Y-132038000I0J-250000D01*
G01*
X121450000Y-133138000D01*
G75*
G02*
X121200000Y-133388000I-250000J0D01*
G01*
X120100000Y-133388000D01*
G75*
G02*
X119850000Y-133138000I0J250000D01*
G01*
G37*
%TD.AperFunction*%
%TD*%
%TO.P,J1,MP*%
%TO.N,N/C*%
%TA.AperFunction,SMDPad,CuDef*%
G36*
G01*
X109276000Y-101811000D02*
X109276000Y-103061000D01*
G75*
G02*
X109051000Y-103286000I-225000J0D01*
G01*
X108601000Y-103286000D01*
G75*
G02*
X108376000Y-103061000I0J225000D01*
G01*
X108376000Y-101811000D01*
G75*
G02*
X108601000Y-101586000I225000J0D01*
G01*
X109051000Y-101586000D01*
G75*
G02*
X109276000Y-101811000I0J-225000D01*
G01*
G37*
%TD.AperFunction*%
%TA.AperFunction,SMDPad,CuDef*%
G36*
G01*
X117176000Y-101811000D02*
X117176000Y-103061000D01*
G75*
G02*
X116951000Y-103286000I-225000J0D01*
G01*
X116501000Y-103286000D01*
G75*
G02*
X116276000Y-103061000I0J225000D01*
G01*
X116276000Y-101811000D01*
G75*
G02*
X116501000Y-101586000I225000J0D01*
G01*
X116951000Y-101586000D01*
G75*
G02*
X117176000Y-101811000I0J-225000D01*
G01*
G37*
%TD.AperFunction*%
%TO.P,J1,6*%
%TO.N,Net-(J1-Pad6)*%
%TA.AperFunction,SMDPad,CuDef*%
G36*
G01*
X110576000Y-105086000D02*
X110576000Y-106036000D01*
G75*
G02*
X110426000Y-106186000I-150000J0D01*
G01*
X110126000Y-106186000D01*
G75*
G02*
X109976000Y-106036000I0J150000D01*
G01*
X109976000Y-105086000D01*
G75*
G02*
X110126000Y-104936000I150000J0D01*
G01*
X110426000Y-104936000D01*
G75*
G02*
X110576000Y-105086000I0J-150000D01*
G01*
G37*
%TD.AperFunction*%
%TO.P,J1,5*%
%TO.N,Net-(J1-Pad5)*%
%TA.AperFunction,SMDPad,CuDef*%
G36*
G01*
X111576000Y-105086000D02*
X111576000Y-106036000D01*
G75*
G02*
X111426000Y-106186000I-150000J0D01*
G01*
X111126000Y-106186000D01*
G75*
G02*
X110976000Y-106036000I0J150000D01*
G01*
X110976000Y-105086000D01*
G75*
G02*
X111126000Y-104936000I150000J0D01*
G01*
X111426000Y-104936000D01*
G75*
G02*
X111576000Y-105086000I0J-150000D01*
G01*
G37*
%TD.AperFunction*%
%TO.P,J1,4*%
%TO.N,Net-(J1-Pad4)*%
%TA.AperFunction,SMDPad,CuDef*%
G36*
G01*
X112576000Y-105086000D02*
X112576000Y-106036000D01*
G75*
G02*
X112426000Y-106186000I-150000J0D01*
G01*
X112126000Y-106186000D01*
G75*
G02*
X111976000Y-106036000I0J150000D01*
G01*
X111976000Y-105086000D01*
G75*
G02*
X112126000Y-104936000I150000J0D01*
G01*
X112426000Y-104936000D01*
G75*
G02*
X112576000Y-105086000I0J-150000D01*
G01*
G37*
%TD.AperFunction*%
%TO.P,J1,3*%
%TO.N,Net-(J1-Pad3)*%
%TA.AperFunction,SMDPad,CuDef*%
G36*
G01*
X113576000Y-105086000D02*
X113576000Y-106036000D01*
G75*
G02*
X113426000Y-106186000I-150000J0D01*
G01*
X113126000Y-106186000D01*
G75*
G02*
X112976000Y-106036000I0J150000D01*
G01*
X112976000Y-105086000D01*
G75*
G02*
X113126000Y-104936000I150000J0D01*
G01*
X113426000Y-104936000D01*
G75*
G02*
X113576000Y-105086000I0J-150000D01*
G01*
G37*
%TD.AperFunction*%
%TO.P,J1,2*%
%TO.N,+BATT*%
%TA.AperFunction,SMDPad,CuDef*%
G36*
G01*
X114576000Y-105086000D02*
X114576000Y-106036000D01*
G75*
G02*
X114426000Y-106186000I-150000J0D01*
G01*
X114126000Y-106186000D01*
G75*
G02*
X113976000Y-106036000I0J150000D01*
G01*
X113976000Y-105086000D01*
G75*
G02*
X114126000Y-104936000I150000J0D01*
G01*
X114426000Y-104936000D01*
G75*
G02*
X114576000Y-105086000I0J-150000D01*
G01*
G37*
%TD.AperFunction*%
%TO.P,J1,1*%
%TO.N,GND*%
%TA.AperFunction,SMDPad,CuDef*%
G36*
G01*
X115576000Y-105086000D02*
X115576000Y-106036000D01*
G75*
G02*
X115426000Y-106186000I-150000J0D01*
G01*
X115126000Y-106186000D01*
G75*
G02*
X114976000Y-106036000I0J150000D01*
G01*
X114976000Y-105086000D01*
G75*
G02*
X115126000Y-104936000I150000J0D01*
G01*
X115426000Y-104936000D01*
G75*
G02*
X115576000Y-105086000I0J-150000D01*
G01*
G37*
%TD.AperFunction*%
%TD*%
D10*
%TO.P,J5,3*%
%TO.N,Net-(J1-Pad3)*%
X115062000Y-127508000D03*
%TO.P,J5,2*%
%TO.N,+BATT*%
X115062000Y-130048000D03*
D11*
%TO.P,J5,1*%
%TO.N,GND*%
X115062000Y-132588000D03*
%TD*%
D10*
%TO.P,J4,3*%
%TO.N,Net-(J1-Pad4)*%
X112522000Y-127508000D03*
%TO.P,J4,2*%
%TO.N,+BATT*%
X112522000Y-130048000D03*
D11*
%TO.P,J4,1*%
%TO.N,GND*%
X112522000Y-132588000D03*
%TD*%
D10*
%TO.P,J3,3*%
%TO.N,Net-(J1-Pad5)*%
X109982000Y-127508000D03*
%TO.P,J3,2*%
%TO.N,+BATT*%
X109982000Y-130048000D03*
D11*
%TO.P,J3,1*%
%TO.N,GND*%
X109982000Y-132588000D03*
%TD*%
D10*
%TO.P,J2,3*%
%TO.N,Net-(J1-Pad6)*%
X107442000Y-127508000D03*
%TO.P,J2,2*%
%TO.N,+BATT*%
X107442000Y-130048000D03*
D11*
%TO.P,J2,1*%
%TO.N,GND*%
X107442000Y-132588000D03*
%TD*%
D12*
%TO.N,GND*%
X116586000Y-105918000D03*
%TD*%
D13*
%TO.N,Net-(J1-Pad3)*%
X113276000Y-123182000D02*
X115062000Y-124968000D01*
X113276000Y-105561000D02*
X113276000Y-123182000D01*
X115062000Y-124968000D02*
X115062000Y-127508000D01*
%TO.N,GND*%
X116229000Y-105561000D02*
X116586000Y-105918000D01*
X115276000Y-105561000D02*
X116229000Y-105561000D01*
%TO.N,Net-(J1-Pad6)*%
X110276000Y-122134000D02*
X107442000Y-124968000D01*
X110276000Y-105561000D02*
X110276000Y-122134000D01*
X107442000Y-124968000D02*
X107442000Y-127508000D01*
%TO.N,Net-(J1-Pad5)*%
X110361322Y-124968000D02*
X109982000Y-124968000D01*
X111276000Y-124053322D02*
X110361322Y-124968000D01*
X111276000Y-105561000D02*
X111276000Y-124053322D01*
X109982000Y-124968000D02*
X109982000Y-127508000D01*
%TO.N,Net-(J1-Pad4)*%
X112276000Y-124722000D02*
X112522000Y-124968000D01*
X112276000Y-105561000D02*
X112276000Y-124722000D01*
X112522000Y-124968000D02*
X112522000Y-127508000D01*
%TO.N,Net-(J11-Pad3)*%
X117602000Y-124968000D02*
X117602000Y-127508000D01*
%TD*%
D14*
%TO.N,+BATT*%
X108121503Y-101093382D02*
X107990716Y-101200716D01*
X107883382Y-101331503D01*
X107803625Y-101480717D01*
X107754512Y-101642623D01*
X107737928Y-101811000D01*
X107737928Y-103061000D01*
X107754512Y-103229377D01*
X107803625Y-103391283D01*
X107883382Y-103540497D01*
X107990716Y-103671284D01*
X108121503Y-103778618D01*
X108270717Y-103858375D01*
X108432623Y-103907488D01*
X108601000Y-103924072D01*
X109051000Y-103924072D01*
X109219377Y-103907488D01*
X109381283Y-103858375D01*
X109530497Y-103778618D01*
X109661284Y-103671284D01*
X109768618Y-103540497D01*
X109848375Y-103391283D01*
X109897488Y-103229377D01*
X109914072Y-103061000D01*
X109914072Y-101811000D01*
X109897488Y-101642623D01*
X109848375Y-101480717D01*
X109768618Y-101331503D01*
X109661284Y-101200716D01*
X109530497Y-101093382D01*
X109423143Y-101036000D01*
X116128857Y-101036000D01*
X116021503Y-101093382D01*
X115890716Y-101200716D01*
X115783382Y-101331503D01*
X115703625Y-101480717D01*
X115654512Y-101642623D01*
X115637928Y-101811000D01*
X115637928Y-103061000D01*
X115654512Y-103229377D01*
X115703625Y-103391283D01*
X115783382Y-103540497D01*
X115890716Y-103671284D01*
X116021503Y-103778618D01*
X116170717Y-103858375D01*
X116332623Y-103907488D01*
X116501000Y-103924072D01*
X116951000Y-103924072D01*
X117119377Y-103907488D01*
X117281283Y-103858375D01*
X117430497Y-103778618D01*
X117561284Y-103671284D01*
X117668618Y-103540497D01*
X117748375Y-103391283D01*
X117797488Y-103229377D01*
X117814072Y-103061000D01*
X117814072Y-101811000D01*
X117797488Y-101642623D01*
X117748375Y-101480717D01*
X117668618Y-101331503D01*
X117561284Y-101200716D01*
X117430497Y-101093382D01*
X117323143Y-101036000D01*
X120812969Y-101036000D01*
X120622458Y-101321120D01*
X120454582Y-101726408D01*
X120369000Y-102156660D01*
X120369000Y-102595340D01*
X120454582Y-103025592D01*
X120622458Y-103430880D01*
X120866176Y-103795630D01*
X121176370Y-104105824D01*
X121541120Y-104349542D01*
X121946408Y-104517418D01*
X122376660Y-104603000D01*
X122815340Y-104603000D01*
X123245592Y-104517418D01*
X123650880Y-104349542D01*
X123937184Y-104158240D01*
X123948103Y-120601056D01*
X123650880Y-120402458D01*
X123245592Y-120234582D01*
X122815340Y-120149000D01*
X122376660Y-120149000D01*
X121946408Y-120234582D01*
X121541120Y-120402458D01*
X121176370Y-120646176D01*
X120866176Y-120956370D01*
X120622458Y-121321120D01*
X120454582Y-121726408D01*
X120369000Y-122156660D01*
X120369000Y-122595340D01*
X120454582Y-123025592D01*
X120622458Y-123430880D01*
X120866176Y-123795630D01*
X121176370Y-124105824D01*
X121541120Y-124349542D01*
X121946408Y-124517418D01*
X122376660Y-124603000D01*
X122815340Y-124603000D01*
X123245592Y-124517418D01*
X123650880Y-124349542D01*
X123950459Y-124149370D01*
X123955979Y-132460936D01*
X123927375Y-132752660D01*
X123851965Y-133002429D01*
X123729477Y-133232794D01*
X123564579Y-133434979D01*
X123363546Y-133601288D01*
X123134046Y-133725378D01*
X122884805Y-133802531D01*
X122594911Y-133833000D01*
X121746275Y-133833000D01*
X121827962Y-133765962D01*
X121938405Y-133631386D01*
X122020472Y-133477850D01*
X122071008Y-133311254D01*
X122088072Y-133138000D01*
X122088072Y-132038000D01*
X122071008Y-131864746D01*
X122020472Y-131698150D01*
X121938405Y-131544614D01*
X121827962Y-131410038D01*
X121693386Y-131299595D01*
X121539850Y-131217528D01*
X121373254Y-131166992D01*
X121200000Y-131149928D01*
X120100000Y-131149928D01*
X119926746Y-131166992D01*
X119760150Y-131217528D01*
X119606614Y-131299595D01*
X119472038Y-131410038D01*
X119361595Y-131544614D01*
X119279528Y-131698150D01*
X119228992Y-131864746D01*
X119211928Y-132038000D01*
X119211928Y-133138000D01*
X119228992Y-133311254D01*
X119279528Y-133477850D01*
X119361595Y-133631386D01*
X119472038Y-133765962D01*
X119553725Y-133833000D01*
X118949295Y-133833000D01*
X118982537Y-133792494D01*
X119041502Y-133682180D01*
X119077812Y-133562482D01*
X119090072Y-133438000D01*
X119090072Y-131738000D01*
X119077812Y-131613518D01*
X119041502Y-131493820D01*
X118982537Y-131383506D01*
X118903185Y-131286815D01*
X118806494Y-131207463D01*
X118696180Y-131148498D01*
X118576482Y-131112188D01*
X118452000Y-131099928D01*
X116752000Y-131099928D01*
X116627518Y-131112188D01*
X116507820Y-131148498D01*
X116397506Y-131207463D01*
X116332000Y-131261222D01*
X116266494Y-131207463D01*
X116156180Y-131148498D01*
X116036482Y-131112188D01*
X115912000Y-131099928D01*
X114212000Y-131099928D01*
X114087518Y-131112188D01*
X113967820Y-131148498D01*
X113857506Y-131207463D01*
X113792000Y-131261222D01*
X113726494Y-131207463D01*
X113616180Y-131148498D01*
X113496482Y-131112188D01*
X113372000Y-131099928D01*
X111672000Y-131099928D01*
X111547518Y-131112188D01*
X111427820Y-131148498D01*
X111317506Y-131207463D01*
X111252000Y-131261222D01*
X111186494Y-131207463D01*
X111076180Y-131148498D01*
X110956482Y-131112188D01*
X110832000Y-131099928D01*
X109132000Y-131099928D01*
X109007518Y-131112188D01*
X108887820Y-131148498D01*
X108777506Y-131207463D01*
X108712000Y-131261222D01*
X108646494Y-131207463D01*
X108536180Y-131148498D01*
X108416482Y-131112188D01*
X108292000Y-131099928D01*
X106592000Y-131099928D01*
X106467518Y-131112188D01*
X106347820Y-131148498D01*
X106237506Y-131207463D01*
X106140815Y-131286815D01*
X106061463Y-131383506D01*
X106002498Y-131493820D01*
X105966188Y-131613518D01*
X105953928Y-131738000D01*
X105953928Y-133438000D01*
X105966188Y-133562482D01*
X106002498Y-133682180D01*
X106061463Y-133792494D01*
X106094705Y-133833000D01*
X105490275Y-133833000D01*
X105571962Y-133765962D01*
X105682405Y-133631386D01*
X105764472Y-133477850D01*
X105815008Y-133311254D01*
X105832072Y-133138000D01*
X105832072Y-132038000D01*
X105815008Y-131864746D01*
X105764472Y-131698150D01*
X105682405Y-131544614D01*
X105571962Y-131410038D01*
X105437386Y-131299595D01*
X105283850Y-131217528D01*
X105117254Y-131166992D01*
X104944000Y-131149928D01*
X103844000Y-131149928D01*
X103670746Y-131166992D01*
X103504150Y-131217528D01*
X103350614Y-131299595D01*
X103216038Y-131410038D01*
X103105595Y-131544614D01*
X103023528Y-131698150D01*
X102972992Y-131864746D01*
X102955928Y-132038000D01*
X102955928Y-133138000D01*
X102972992Y-133311254D01*
X103023528Y-133477850D01*
X103105595Y-133631386D01*
X103216038Y-133765962D01*
X103297725Y-133833000D01*
X102628279Y-133833000D01*
X102336340Y-133804375D01*
X102086571Y-133728965D01*
X101856206Y-133606477D01*
X101654021Y-133441579D01*
X101487712Y-133240546D01*
X101363622Y-133011046D01*
X101286469Y-132761805D01*
X101256000Y-132471911D01*
X101256000Y-127361740D01*
X105957000Y-127361740D01*
X105957000Y-127654260D01*
X106014068Y-127941158D01*
X106126010Y-128211411D01*
X106288525Y-128454632D01*
X106495368Y-128661475D01*
X106738589Y-128823990D01*
X107008842Y-128935932D01*
X107295740Y-128993000D01*
X107588260Y-128993000D01*
X107875158Y-128935932D01*
X108145411Y-128823990D01*
X108388632Y-128661475D01*
X108595475Y-128454632D01*
X108712000Y-128280240D01*
X108828525Y-128454632D01*
X109035368Y-128661475D01*
X109278589Y-128823990D01*
X109548842Y-128935932D01*
X109835740Y-128993000D01*
X110128260Y-128993000D01*
X110415158Y-128935932D01*
X110685411Y-128823990D01*
X110928632Y-128661475D01*
X111135475Y-128454632D01*
X111252000Y-128280240D01*
X111368525Y-128454632D01*
X111575368Y-128661475D01*
X111818589Y-128823990D01*
X112088842Y-128935932D01*
X112375740Y-128993000D01*
X112668260Y-128993000D01*
X112955158Y-128935932D01*
X113225411Y-128823990D01*
X113468632Y-128661475D01*
X113675475Y-128454632D01*
X113792000Y-128280240D01*
X113908525Y-128454632D01*
X114115368Y-128661475D01*
X114358589Y-128823990D01*
X114628842Y-128935932D01*
X114915740Y-128993000D01*
X115208260Y-128993000D01*
X115495158Y-128935932D01*
X115765411Y-128823990D01*
X116008632Y-128661475D01*
X116215475Y-128454632D01*
X116332000Y-128280240D01*
X116448525Y-128454632D01*
X116655368Y-128661475D01*
X116898589Y-128823990D01*
X117168842Y-128935932D01*
X117455740Y-128993000D01*
X117748260Y-128993000D01*
X118035158Y-128935932D01*
X118305411Y-128823990D01*
X118548632Y-128661475D01*
X118755475Y-128454632D01*
X118917990Y-128211411D01*
X119029932Y-127941158D01*
X119087000Y-127654260D01*
X119087000Y-127361740D01*
X119029932Y-127074842D01*
X118917990Y-126804589D01*
X118755475Y-126561368D01*
X118548632Y-126354525D01*
X118537000Y-126346753D01*
X118537000Y-126314339D01*
X118645386Y-126256405D01*
X118779962Y-126145962D01*
X118890405Y-126011386D01*
X118972472Y-125857850D01*
X119023008Y-125691254D01*
X119040072Y-125518000D01*
X119040072Y-124418000D01*
X119023008Y-124244746D01*
X118972472Y-124078150D01*
X118890405Y-123924614D01*
X118779962Y-123790038D01*
X118645386Y-123679595D01*
X118491850Y-123597528D01*
X118325254Y-123546992D01*
X118152000Y-123529928D01*
X117052000Y-123529928D01*
X116878746Y-123546992D01*
X116712150Y-123597528D01*
X116558614Y-123679595D01*
X116424038Y-123790038D01*
X116332000Y-123902187D01*
X116239962Y-123790038D01*
X116105386Y-123679595D01*
X115951850Y-123597528D01*
X115785254Y-123546992D01*
X115612000Y-123529928D01*
X114946218Y-123529928D01*
X114211000Y-122794711D01*
X114211000Y-106067190D01*
X114214072Y-106036000D01*
X114214072Y-105561000D01*
X114336476Y-105561000D01*
X114337928Y-105575742D01*
X114337928Y-106036000D01*
X114353071Y-106189745D01*
X114397916Y-106337582D01*
X114470742Y-106473829D01*
X114568749Y-106593251D01*
X114688171Y-106691258D01*
X114824418Y-106764084D01*
X114972255Y-106808929D01*
X115126000Y-106824072D01*
X115426000Y-106824072D01*
X115579745Y-106808929D01*
X115727582Y-106764084D01*
X115863829Y-106691258D01*
X115881250Y-106676961D01*
X115926226Y-106721937D01*
X116095744Y-106835205D01*
X116284102Y-106913226D01*
X116484061Y-106953000D01*
X116687939Y-106953000D01*
X116887898Y-106913226D01*
X117076256Y-106835205D01*
X117186908Y-106761270D01*
X117180237Y-106767988D01*
X117137487Y-106809851D01*
X117131613Y-106816952D01*
X117006289Y-106970614D01*
X116973174Y-107020456D01*
X116939390Y-107069796D01*
X116935007Y-107077902D01*
X116841916Y-107252980D01*
X116819125Y-107308275D01*
X116795554Y-107363270D01*
X116792829Y-107372073D01*
X116735518Y-107561900D01*
X116723900Y-107620580D01*
X116711463Y-107679087D01*
X116710500Y-107688252D01*
X116691150Y-107885594D01*
X116691150Y-107885599D01*
X116688000Y-107917582D01*
X116688001Y-118142419D01*
X116691249Y-118175397D01*
X116691249Y-118188591D01*
X116692212Y-118197756D01*
X116714315Y-118394808D01*
X116726747Y-118453295D01*
X116738370Y-118511997D01*
X116741096Y-118520800D01*
X116801052Y-118709808D01*
X116824612Y-118764778D01*
X116847414Y-118820099D01*
X116851797Y-118828205D01*
X116947324Y-119001966D01*
X116981130Y-119051338D01*
X117014221Y-119101144D01*
X117020095Y-119108245D01*
X117147552Y-119260142D01*
X117190263Y-119301968D01*
X117232441Y-119344442D01*
X117239583Y-119350266D01*
X117394116Y-119474515D01*
X117444170Y-119507269D01*
X117493765Y-119540722D01*
X117501901Y-119545048D01*
X117677625Y-119636914D01*
X117733078Y-119659318D01*
X117788233Y-119682503D01*
X117797055Y-119685166D01*
X117987276Y-119741151D01*
X118046010Y-119752355D01*
X118104633Y-119764389D01*
X118113805Y-119765288D01*
X118311277Y-119783259D01*
X118371094Y-119782841D01*
X118430911Y-119783259D01*
X118440083Y-119782359D01*
X118637284Y-119761632D01*
X118695834Y-119749613D01*
X118754639Y-119738396D01*
X118763461Y-119735732D01*
X118952882Y-119677097D01*
X119008009Y-119653924D01*
X119063492Y-119631507D01*
X119071629Y-119627181D01*
X119246052Y-119532870D01*
X119295636Y-119499425D01*
X119345699Y-119466665D01*
X119352840Y-119460841D01*
X119505624Y-119334446D01*
X119547744Y-119292031D01*
X119590513Y-119250149D01*
X119596387Y-119243048D01*
X119721711Y-119089386D01*
X119754803Y-119039577D01*
X119788610Y-118990205D01*
X119792993Y-118982098D01*
X119886084Y-118807020D01*
X119908875Y-118751725D01*
X119932446Y-118696730D01*
X119935171Y-118687926D01*
X119992482Y-118498100D01*
X120004098Y-118439434D01*
X120016537Y-118380913D01*
X120017500Y-118371748D01*
X120036850Y-118174407D01*
X120036850Y-118174402D01*
X120040000Y-118142419D01*
X120040000Y-107917582D01*
X120498000Y-107917582D01*
X120498001Y-118142419D01*
X120501249Y-118175397D01*
X120501249Y-118188591D01*
X120502212Y-118197756D01*
X120524315Y-118394808D01*
X120536747Y-118453295D01*
X120548370Y-118511997D01*
X120551096Y-118520800D01*
X120611052Y-118709808D01*
X120634612Y-118764778D01*
X120657414Y-118820099D01*
X120661797Y-118828205D01*
X120757324Y-119001966D01*
X120791130Y-119051338D01*
X120824221Y-119101144D01*
X120830095Y-119108245D01*
X120957552Y-119260142D01*
X121000263Y-119301968D01*
X121042441Y-119344442D01*
X121049583Y-119350266D01*
X121204116Y-119474515D01*
X121254170Y-119507269D01*
X121303765Y-119540722D01*
X121311901Y-119545048D01*
X121487625Y-119636914D01*
X121543078Y-119659318D01*
X121598233Y-119682503D01*
X121607055Y-119685166D01*
X121797276Y-119741151D01*
X121856010Y-119752355D01*
X121914633Y-119764389D01*
X121923805Y-119765288D01*
X122121277Y-119783259D01*
X122181094Y-119782841D01*
X122240911Y-119783259D01*
X122250083Y-119782359D01*
X122447284Y-119761632D01*
X122505834Y-119749613D01*
X122564639Y-119738396D01*
X122573461Y-119735732D01*
X122762882Y-119677097D01*
X122818009Y-119653924D01*
X122873492Y-119631507D01*
X122881629Y-119627181D01*
X123056052Y-119532870D01*
X123105636Y-119499425D01*
X123155699Y-119466665D01*
X123162840Y-119460841D01*
X123315624Y-119334446D01*
X123357744Y-119292031D01*
X123400513Y-119250149D01*
X123406387Y-119243048D01*
X123531711Y-119089386D01*
X123564803Y-119039577D01*
X123598610Y-118990205D01*
X123602993Y-118982098D01*
X123696084Y-118807020D01*
X123718875Y-118751725D01*
X123742446Y-118696730D01*
X123745171Y-118687926D01*
X123802482Y-118498100D01*
X123814098Y-118439434D01*
X123826537Y-118380913D01*
X123827500Y-118371748D01*
X123846850Y-118174407D01*
X123846850Y-118174402D01*
X123850000Y-118142419D01*
X123850000Y-107917581D01*
X123846751Y-107884593D01*
X123846751Y-107871409D01*
X123845788Y-107862244D01*
X123823685Y-107665192D01*
X123811251Y-107606699D01*
X123799630Y-107548003D01*
X123796904Y-107539200D01*
X123736948Y-107350193D01*
X123713400Y-107295249D01*
X123690586Y-107239900D01*
X123686203Y-107231794D01*
X123590676Y-107058034D01*
X123556892Y-107008695D01*
X123523779Y-106958855D01*
X123517905Y-106951755D01*
X123390448Y-106799857D01*
X123347718Y-106758013D01*
X123305559Y-106715558D01*
X123298417Y-106709734D01*
X123143883Y-106585485D01*
X123093847Y-106552742D01*
X123044235Y-106519278D01*
X123036098Y-106514952D01*
X122860375Y-106423086D01*
X122804936Y-106400688D01*
X122749768Y-106377497D01*
X122740946Y-106374834D01*
X122550724Y-106318849D01*
X122492016Y-106307650D01*
X122433367Y-106295611D01*
X122424195Y-106294712D01*
X122226723Y-106276741D01*
X122166906Y-106277159D01*
X122107088Y-106276741D01*
X122097917Y-106277641D01*
X121900715Y-106298368D01*
X121842151Y-106310390D01*
X121783362Y-106321604D01*
X121774540Y-106324268D01*
X121585118Y-106382903D01*
X121530005Y-106406071D01*
X121474507Y-106428493D01*
X121466371Y-106432820D01*
X121291947Y-106527130D01*
X121242331Y-106560597D01*
X121192301Y-106593335D01*
X121185160Y-106599159D01*
X121032376Y-106725553D01*
X120990237Y-106767988D01*
X120947487Y-106809851D01*
X120941613Y-106816952D01*
X120816289Y-106970614D01*
X120783174Y-107020456D01*
X120749390Y-107069796D01*
X120745007Y-107077902D01*
X120651916Y-107252980D01*
X120629125Y-107308275D01*
X120605554Y-107363270D01*
X120602829Y-107372073D01*
X120545518Y-107561900D01*
X120533900Y-107620580D01*
X120521463Y-107679087D01*
X120520500Y-107688252D01*
X120501150Y-107885594D01*
X120501150Y-107885599D01*
X120498000Y-107917582D01*
X120040000Y-107917582D01*
X120040000Y-107917581D01*
X120036751Y-107884593D01*
X120036751Y-107871409D01*
X120035788Y-107862244D01*
X120013685Y-107665192D01*
X120001251Y-107606699D01*
X119989630Y-107548003D01*
X119986904Y-107539200D01*
X119926948Y-107350193D01*
X119903400Y-107295249D01*
X119880586Y-107239900D01*
X119876203Y-107231794D01*
X119780676Y-107058034D01*
X119746892Y-107008695D01*
X119713779Y-106958855D01*
X119707905Y-106951755D01*
X119580448Y-106799857D01*
X119537718Y-106758013D01*
X119495559Y-106715558D01*
X119488417Y-106709734D01*
X119333883Y-106585485D01*
X119283847Y-106552742D01*
X119234235Y-106519278D01*
X119226098Y-106514952D01*
X119050375Y-106423086D01*
X118994936Y-106400688D01*
X118939768Y-106377497D01*
X118930946Y-106374834D01*
X118740724Y-106318849D01*
X118682016Y-106307650D01*
X118623367Y-106295611D01*
X118614195Y-106294712D01*
X118416723Y-106276741D01*
X118356906Y-106277159D01*
X118297088Y-106276741D01*
X118287917Y-106277641D01*
X118090715Y-106298368D01*
X118032151Y-106310390D01*
X117973362Y-106321604D01*
X117964540Y-106324268D01*
X117775118Y-106382903D01*
X117720005Y-106406071D01*
X117664507Y-106428493D01*
X117656371Y-106432820D01*
X117481947Y-106527130D01*
X117432331Y-106560597D01*
X117382301Y-106593335D01*
X117375160Y-106599159D01*
X117336903Y-106630808D01*
X117389937Y-106577774D01*
X117503205Y-106408256D01*
X117581226Y-106219898D01*
X117621000Y-106019939D01*
X117621000Y-105816061D01*
X117581226Y-105616102D01*
X117503205Y-105427744D01*
X117389937Y-105258226D01*
X117245774Y-105114063D01*
X117076256Y-105000795D01*
X116930858Y-104940569D01*
X116922630Y-104932341D01*
X116893344Y-104896656D01*
X116750972Y-104779814D01*
X116588540Y-104692993D01*
X116412292Y-104639529D01*
X116274932Y-104626000D01*
X116229000Y-104621476D01*
X116183068Y-104626000D01*
X116063063Y-104626000D01*
X115983251Y-104528749D01*
X115863829Y-104430742D01*
X115727582Y-104357916D01*
X115579745Y-104313071D01*
X115426000Y-104297928D01*
X115126000Y-104297928D01*
X114972255Y-104313071D01*
X114824418Y-104357916D01*
X114688171Y-104430742D01*
X114568749Y-104528749D01*
X114470742Y-104648171D01*
X114397916Y-104784418D01*
X114353071Y-104932255D01*
X114337928Y-105086000D01*
X114337928Y-105546258D01*
X114336476Y-105561000D01*
X114214072Y-105561000D01*
X114214072Y-105086000D01*
X114198929Y-104932255D01*
X114154084Y-104784418D01*
X114081258Y-104648171D01*
X113983251Y-104528749D01*
X113863829Y-104430742D01*
X113727582Y-104357916D01*
X113579745Y-104313071D01*
X113426000Y-104297928D01*
X113126000Y-104297928D01*
X112972255Y-104313071D01*
X112824418Y-104357916D01*
X112776000Y-104383796D01*
X112727582Y-104357916D01*
X112579745Y-104313071D01*
X112426000Y-104297928D01*
X112126000Y-104297928D01*
X111972255Y-104313071D01*
X111824418Y-104357916D01*
X111776000Y-104383796D01*
X111727582Y-104357916D01*
X111579745Y-104313071D01*
X111426000Y-104297928D01*
X111126000Y-104297928D01*
X110972255Y-104313071D01*
X110824418Y-104357916D01*
X110776000Y-104383796D01*
X110727582Y-104357916D01*
X110579745Y-104313071D01*
X110426000Y-104297928D01*
X110126000Y-104297928D01*
X109972255Y-104313071D01*
X109824418Y-104357916D01*
X109688171Y-104430742D01*
X109568749Y-104528749D01*
X109470742Y-104648171D01*
X109397916Y-104784418D01*
X109353071Y-104932255D01*
X109337928Y-105086000D01*
X109337928Y-106036000D01*
X109341000Y-106067190D01*
X109341001Y-121746709D01*
X107557783Y-123529928D01*
X106892000Y-123529928D01*
X106718746Y-123546992D01*
X106552150Y-123597528D01*
X106398614Y-123679595D01*
X106264038Y-123790038D01*
X106153595Y-123924614D01*
X106071528Y-124078150D01*
X106020992Y-124244746D01*
X106003928Y-124418000D01*
X106003928Y-125518000D01*
X106020992Y-125691254D01*
X106071528Y-125857850D01*
X106153595Y-126011386D01*
X106264038Y-126145962D01*
X106398614Y-126256405D01*
X106507001Y-126314339D01*
X106507001Y-126346752D01*
X106495368Y-126354525D01*
X106288525Y-126561368D01*
X106126010Y-126804589D01*
X106014068Y-127074842D01*
X105957000Y-127361740D01*
X101256000Y-127361740D01*
X101256000Y-124159031D01*
X101541120Y-124349542D01*
X101946408Y-124517418D01*
X102376660Y-124603000D01*
X102815340Y-124603000D01*
X103245592Y-124517418D01*
X103650880Y-124349542D01*
X104015630Y-124105824D01*
X104325824Y-123795630D01*
X104569542Y-123430880D01*
X104737418Y-123025592D01*
X104823000Y-122595340D01*
X104823000Y-122156660D01*
X104737418Y-121726408D01*
X104569542Y-121321120D01*
X104325824Y-120956370D01*
X104015630Y-120646176D01*
X103650880Y-120402458D01*
X103245592Y-120234582D01*
X102815340Y-120149000D01*
X102376660Y-120149000D01*
X101946408Y-120234582D01*
X101541120Y-120402458D01*
X101256000Y-120592969D01*
X101256000Y-107917582D01*
X101702000Y-107917582D01*
X101702001Y-118142419D01*
X101705249Y-118175397D01*
X101705249Y-118188591D01*
X101706212Y-118197756D01*
X101728315Y-118394808D01*
X101740747Y-118453295D01*
X101752370Y-118511997D01*
X101755096Y-118520800D01*
X101815052Y-118709808D01*
X101838612Y-118764778D01*
X101861414Y-118820099D01*
X101865797Y-118828205D01*
X101961324Y-119001966D01*
X101995130Y-119051338D01*
X102028221Y-119101144D01*
X102034095Y-119108245D01*
X102161552Y-119260142D01*
X102204263Y-119301968D01*
X102246441Y-119344442D01*
X102253583Y-119350266D01*
X102408116Y-119474515D01*
X102458170Y-119507269D01*
X102507765Y-119540722D01*
X102515901Y-119545048D01*
X102691625Y-119636914D01*
X102747078Y-119659318D01*
X102802233Y-119682503D01*
X102811055Y-119685166D01*
X103001276Y-119741151D01*
X103060010Y-119752355D01*
X103118633Y-119764389D01*
X103127805Y-119765288D01*
X103325277Y-119783259D01*
X103385094Y-119782841D01*
X103444911Y-119783259D01*
X103454083Y-119782359D01*
X103651284Y-119761632D01*
X103709834Y-119749613D01*
X103768639Y-119738396D01*
X103777461Y-119735732D01*
X103966882Y-119677097D01*
X104022009Y-119653924D01*
X104077492Y-119631507D01*
X104085629Y-119627181D01*
X104260052Y-119532870D01*
X104309636Y-119499425D01*
X104359699Y-119466665D01*
X104366840Y-119460841D01*
X104519624Y-119334446D01*
X104561744Y-119292031D01*
X104604513Y-119250149D01*
X104610387Y-119243048D01*
X104735711Y-119089386D01*
X104768803Y-119039577D01*
X104802610Y-118990205D01*
X104806993Y-118982098D01*
X104900084Y-118807020D01*
X104922875Y-118751725D01*
X104946446Y-118696730D01*
X104949171Y-118687926D01*
X105006482Y-118498100D01*
X105018098Y-118439434D01*
X105030537Y-118380913D01*
X105031500Y-118371748D01*
X105050850Y-118174407D01*
X105050850Y-118174402D01*
X105054000Y-118142419D01*
X105054000Y-107917582D01*
X105512000Y-107917582D01*
X105512001Y-118142419D01*
X105515249Y-118175397D01*
X105515249Y-118188591D01*
X105516212Y-118197756D01*
X105538315Y-118394808D01*
X105550747Y-118453295D01*
X105562370Y-118511997D01*
X105565096Y-118520800D01*
X105625052Y-118709808D01*
X105648612Y-118764778D01*
X105671414Y-118820099D01*
X105675797Y-118828205D01*
X105771324Y-119001966D01*
X105805130Y-119051338D01*
X105838221Y-119101144D01*
X105844095Y-119108245D01*
X105971552Y-119260142D01*
X106014263Y-119301968D01*
X106056441Y-119344442D01*
X106063583Y-119350266D01*
X106218116Y-119474515D01*
X106268170Y-119507269D01*
X106317765Y-119540722D01*
X106325901Y-119545048D01*
X106501625Y-119636914D01*
X106557078Y-119659318D01*
X106612233Y-119682503D01*
X106621055Y-119685166D01*
X106811276Y-119741151D01*
X106870010Y-119752355D01*
X106928633Y-119764389D01*
X106937805Y-119765288D01*
X107135277Y-119783259D01*
X107195094Y-119782841D01*
X107254911Y-119783259D01*
X107264083Y-119782359D01*
X107461284Y-119761632D01*
X107519834Y-119749613D01*
X107578639Y-119738396D01*
X107587461Y-119735732D01*
X107776882Y-119677097D01*
X107832009Y-119653924D01*
X107887492Y-119631507D01*
X107895629Y-119627181D01*
X108070052Y-119532870D01*
X108119636Y-119499425D01*
X108169699Y-119466665D01*
X108176840Y-119460841D01*
X108329624Y-119334446D01*
X108371744Y-119292031D01*
X108414513Y-119250149D01*
X108420387Y-119243048D01*
X108545711Y-119089386D01*
X108578803Y-119039577D01*
X108612610Y-118990205D01*
X108616993Y-118982098D01*
X108710084Y-118807020D01*
X108732875Y-118751725D01*
X108756446Y-118696730D01*
X108759171Y-118687926D01*
X108816482Y-118498100D01*
X108828098Y-118439434D01*
X108840537Y-118380913D01*
X108841500Y-118371748D01*
X108860850Y-118174407D01*
X108860850Y-118174402D01*
X108864000Y-118142419D01*
X108864000Y-107917581D01*
X108860751Y-107884593D01*
X108860751Y-107871409D01*
X108859788Y-107862244D01*
X108837685Y-107665192D01*
X108825251Y-107606699D01*
X108813630Y-107548003D01*
X108810904Y-107539200D01*
X108750948Y-107350193D01*
X108727400Y-107295249D01*
X108704586Y-107239900D01*
X108700203Y-107231794D01*
X108604676Y-107058034D01*
X108570892Y-107008695D01*
X108537779Y-106958855D01*
X108531905Y-106951755D01*
X108404448Y-106799857D01*
X108361718Y-106758013D01*
X108319559Y-106715558D01*
X108312417Y-106709734D01*
X108157883Y-106585485D01*
X108107847Y-106552742D01*
X108058235Y-106519278D01*
X108050098Y-106514952D01*
X107874375Y-106423086D01*
X107818936Y-106400688D01*
X107763768Y-106377497D01*
X107754946Y-106374834D01*
X107564724Y-106318849D01*
X107506016Y-106307650D01*
X107447367Y-106295611D01*
X107438195Y-106294712D01*
X107240723Y-106276741D01*
X107180906Y-106277159D01*
X107121088Y-106276741D01*
X107111917Y-106277641D01*
X106914715Y-106298368D01*
X106856151Y-106310390D01*
X106797362Y-106321604D01*
X106788540Y-106324268D01*
X106599118Y-106382903D01*
X106544005Y-106406071D01*
X106488507Y-106428493D01*
X106480371Y-106432820D01*
X106305947Y-106527130D01*
X106256331Y-106560597D01*
X106206301Y-106593335D01*
X106199160Y-106599159D01*
X106046376Y-106725553D01*
X106004237Y-106767988D01*
X105961487Y-106809851D01*
X105955613Y-106816952D01*
X105830289Y-106970614D01*
X105797174Y-107020456D01*
X105763390Y-107069796D01*
X105759007Y-107077902D01*
X105665916Y-107252980D01*
X105643125Y-107308275D01*
X105619554Y-107363270D01*
X105616829Y-107372073D01*
X105559518Y-107561900D01*
X105547900Y-107620580D01*
X105535463Y-107679087D01*
X105534500Y-107688252D01*
X105515150Y-107885594D01*
X105515150Y-107885599D01*
X105512000Y-107917582D01*
X105054000Y-107917582D01*
X105054000Y-107917581D01*
X105050751Y-107884593D01*
X105050751Y-107871409D01*
X105049788Y-107862244D01*
X105027685Y-107665192D01*
X105015251Y-107606699D01*
X105003630Y-107548003D01*
X105000904Y-107539200D01*
X104940948Y-107350193D01*
X104917400Y-107295249D01*
X104894586Y-107239900D01*
X104890203Y-107231794D01*
X104794676Y-107058034D01*
X104760892Y-107008695D01*
X104727779Y-106958855D01*
X104721905Y-106951755D01*
X104594448Y-106799857D01*
X104551718Y-106758013D01*
X104509559Y-106715558D01*
X104502417Y-106709734D01*
X104347883Y-106585485D01*
X104297847Y-106552742D01*
X104248235Y-106519278D01*
X104240098Y-106514952D01*
X104064375Y-106423086D01*
X104008936Y-106400688D01*
X103953768Y-106377497D01*
X103944946Y-106374834D01*
X103754724Y-106318849D01*
X103696016Y-106307650D01*
X103637367Y-106295611D01*
X103628195Y-106294712D01*
X103430723Y-106276741D01*
X103370906Y-106277159D01*
X103311088Y-106276741D01*
X103301917Y-106277641D01*
X103104715Y-106298368D01*
X103046151Y-106310390D01*
X102987362Y-106321604D01*
X102978540Y-106324268D01*
X102789118Y-106382903D01*
X102734005Y-106406071D01*
X102678507Y-106428493D01*
X102670371Y-106432820D01*
X102495947Y-106527130D01*
X102446331Y-106560597D01*
X102396301Y-106593335D01*
X102389160Y-106599159D01*
X102236376Y-106725553D01*
X102194237Y-106767988D01*
X102151487Y-106809851D01*
X102145613Y-106816952D01*
X102020289Y-106970614D01*
X101987174Y-107020456D01*
X101953390Y-107069796D01*
X101949007Y-107077902D01*
X101855916Y-107252980D01*
X101833125Y-107308275D01*
X101809554Y-107363270D01*
X101806829Y-107372073D01*
X101749518Y-107561900D01*
X101737900Y-107620580D01*
X101725463Y-107679087D01*
X101724500Y-107688252D01*
X101705150Y-107885594D01*
X101705150Y-107885599D01*
X101702000Y-107917582D01*
X101256000Y-107917582D01*
X101256000Y-104159031D01*
X101541120Y-104349542D01*
X101946408Y-104517418D01*
X102376660Y-104603000D01*
X102815340Y-104603000D01*
X103245592Y-104517418D01*
X103650880Y-104349542D01*
X104015630Y-104105824D01*
X104325824Y-103795630D01*
X104569542Y-103430880D01*
X104737418Y-103025592D01*
X104823000Y-102595340D01*
X104823000Y-102156660D01*
X104737418Y-101726408D01*
X104569542Y-101321120D01*
X104379031Y-101036000D01*
X108228857Y-101036000D01*
X108121503Y-101093382D01*
%TA.AperFunction,Conductor*%
D15*
G36*
X108121503Y-101093382D02*
G01*
X107990716Y-101200716D01*
X107883382Y-101331503D01*
X107803625Y-101480717D01*
X107754512Y-101642623D01*
X107737928Y-101811000D01*
X107737928Y-103061000D01*
X107754512Y-103229377D01*
X107803625Y-103391283D01*
X107883382Y-103540497D01*
X107990716Y-103671284D01*
X108121503Y-103778618D01*
X108270717Y-103858375D01*
X108432623Y-103907488D01*
X108601000Y-103924072D01*
X109051000Y-103924072D01*
X109219377Y-103907488D01*
X109381283Y-103858375D01*
X109530497Y-103778618D01*
X109661284Y-103671284D01*
X109768618Y-103540497D01*
X109848375Y-103391283D01*
X109897488Y-103229377D01*
X109914072Y-103061000D01*
X109914072Y-101811000D01*
X109897488Y-101642623D01*
X109848375Y-101480717D01*
X109768618Y-101331503D01*
X109661284Y-101200716D01*
X109530497Y-101093382D01*
X109423143Y-101036000D01*
X116128857Y-101036000D01*
X116021503Y-101093382D01*
X115890716Y-101200716D01*
X115783382Y-101331503D01*
X115703625Y-101480717D01*
X115654512Y-101642623D01*
X115637928Y-101811000D01*
X115637928Y-103061000D01*
X115654512Y-103229377D01*
X115703625Y-103391283D01*
X115783382Y-103540497D01*
X115890716Y-103671284D01*
X116021503Y-103778618D01*
X116170717Y-103858375D01*
X116332623Y-103907488D01*
X116501000Y-103924072D01*
X116951000Y-103924072D01*
X117119377Y-103907488D01*
X117281283Y-103858375D01*
X117430497Y-103778618D01*
X117561284Y-103671284D01*
X117668618Y-103540497D01*
X117748375Y-103391283D01*
X117797488Y-103229377D01*
X117814072Y-103061000D01*
X117814072Y-101811000D01*
X117797488Y-101642623D01*
X117748375Y-101480717D01*
X117668618Y-101331503D01*
X117561284Y-101200716D01*
X117430497Y-101093382D01*
X117323143Y-101036000D01*
X120812969Y-101036000D01*
X120622458Y-101321120D01*
X120454582Y-101726408D01*
X120369000Y-102156660D01*
X120369000Y-102595340D01*
X120454582Y-103025592D01*
X120622458Y-103430880D01*
X120866176Y-103795630D01*
X121176370Y-104105824D01*
X121541120Y-104349542D01*
X121946408Y-104517418D01*
X122376660Y-104603000D01*
X122815340Y-104603000D01*
X123245592Y-104517418D01*
X123650880Y-104349542D01*
X123937184Y-104158240D01*
X123948103Y-120601056D01*
X123650880Y-120402458D01*
X123245592Y-120234582D01*
X122815340Y-120149000D01*
X122376660Y-120149000D01*
X121946408Y-120234582D01*
X121541120Y-120402458D01*
X121176370Y-120646176D01*
X120866176Y-120956370D01*
X120622458Y-121321120D01*
X120454582Y-121726408D01*
X120369000Y-122156660D01*
X120369000Y-122595340D01*
X120454582Y-123025592D01*
X120622458Y-123430880D01*
X120866176Y-123795630D01*
X121176370Y-124105824D01*
X121541120Y-124349542D01*
X121946408Y-124517418D01*
X122376660Y-124603000D01*
X122815340Y-124603000D01*
X123245592Y-124517418D01*
X123650880Y-124349542D01*
X123950459Y-124149370D01*
X123955979Y-132460936D01*
X123927375Y-132752660D01*
X123851965Y-133002429D01*
X123729477Y-133232794D01*
X123564579Y-133434979D01*
X123363546Y-133601288D01*
X123134046Y-133725378D01*
X122884805Y-133802531D01*
X122594911Y-133833000D01*
X121746275Y-133833000D01*
X121827962Y-133765962D01*
X121938405Y-133631386D01*
X122020472Y-133477850D01*
X122071008Y-133311254D01*
X122088072Y-133138000D01*
X122088072Y-132038000D01*
X122071008Y-131864746D01*
X122020472Y-131698150D01*
X121938405Y-131544614D01*
X121827962Y-131410038D01*
X121693386Y-131299595D01*
X121539850Y-131217528D01*
X121373254Y-131166992D01*
X121200000Y-131149928D01*
X120100000Y-131149928D01*
X119926746Y-131166992D01*
X119760150Y-131217528D01*
X119606614Y-131299595D01*
X119472038Y-131410038D01*
X119361595Y-131544614D01*
X119279528Y-131698150D01*
X119228992Y-131864746D01*
X119211928Y-132038000D01*
X119211928Y-133138000D01*
X119228992Y-133311254D01*
X119279528Y-133477850D01*
X119361595Y-133631386D01*
X119472038Y-133765962D01*
X119553725Y-133833000D01*
X118949295Y-133833000D01*
X118982537Y-133792494D01*
X119041502Y-133682180D01*
X119077812Y-133562482D01*
X119090072Y-133438000D01*
X119090072Y-131738000D01*
X119077812Y-131613518D01*
X119041502Y-131493820D01*
X118982537Y-131383506D01*
X118903185Y-131286815D01*
X118806494Y-131207463D01*
X118696180Y-131148498D01*
X118576482Y-131112188D01*
X118452000Y-131099928D01*
X116752000Y-131099928D01*
X116627518Y-131112188D01*
X116507820Y-131148498D01*
X116397506Y-131207463D01*
X116332000Y-131261222D01*
X116266494Y-131207463D01*
X116156180Y-131148498D01*
X116036482Y-131112188D01*
X115912000Y-131099928D01*
X114212000Y-131099928D01*
X114087518Y-131112188D01*
X113967820Y-131148498D01*
X113857506Y-131207463D01*
X113792000Y-131261222D01*
X113726494Y-131207463D01*
X113616180Y-131148498D01*
X113496482Y-131112188D01*
X113372000Y-131099928D01*
X111672000Y-131099928D01*
X111547518Y-131112188D01*
X111427820Y-131148498D01*
X111317506Y-131207463D01*
X111252000Y-131261222D01*
X111186494Y-131207463D01*
X111076180Y-131148498D01*
X110956482Y-131112188D01*
X110832000Y-131099928D01*
X109132000Y-131099928D01*
X109007518Y-131112188D01*
X108887820Y-131148498D01*
X108777506Y-131207463D01*
X108712000Y-131261222D01*
X108646494Y-131207463D01*
X108536180Y-131148498D01*
X108416482Y-131112188D01*
X108292000Y-131099928D01*
X106592000Y-131099928D01*
X106467518Y-131112188D01*
X106347820Y-131148498D01*
X106237506Y-131207463D01*
X106140815Y-131286815D01*
X106061463Y-131383506D01*
X106002498Y-131493820D01*
X105966188Y-131613518D01*
X105953928Y-131738000D01*
X105953928Y-133438000D01*
X105966188Y-133562482D01*
X106002498Y-133682180D01*
X106061463Y-133792494D01*
X106094705Y-133833000D01*
X105490275Y-133833000D01*
X105571962Y-133765962D01*
X105682405Y-133631386D01*
X105764472Y-133477850D01*
X105815008Y-133311254D01*
X105832072Y-133138000D01*
X105832072Y-132038000D01*
X105815008Y-131864746D01*
X105764472Y-131698150D01*
X105682405Y-131544614D01*
X105571962Y-131410038D01*
X105437386Y-131299595D01*
X105283850Y-131217528D01*
X105117254Y-131166992D01*
X104944000Y-131149928D01*
X103844000Y-131149928D01*
X103670746Y-131166992D01*
X103504150Y-131217528D01*
X103350614Y-131299595D01*
X103216038Y-131410038D01*
X103105595Y-131544614D01*
X103023528Y-131698150D01*
X102972992Y-131864746D01*
X102955928Y-132038000D01*
X102955928Y-133138000D01*
X102972992Y-133311254D01*
X103023528Y-133477850D01*
X103105595Y-133631386D01*
X103216038Y-133765962D01*
X103297725Y-133833000D01*
X102628279Y-133833000D01*
X102336340Y-133804375D01*
X102086571Y-133728965D01*
X101856206Y-133606477D01*
X101654021Y-133441579D01*
X101487712Y-133240546D01*
X101363622Y-133011046D01*
X101286469Y-132761805D01*
X101256000Y-132471911D01*
X101256000Y-127361740D01*
X105957000Y-127361740D01*
X105957000Y-127654260D01*
X106014068Y-127941158D01*
X106126010Y-128211411D01*
X106288525Y-128454632D01*
X106495368Y-128661475D01*
X106738589Y-128823990D01*
X107008842Y-128935932D01*
X107295740Y-128993000D01*
X107588260Y-128993000D01*
X107875158Y-128935932D01*
X108145411Y-128823990D01*
X108388632Y-128661475D01*
X108595475Y-128454632D01*
X108712000Y-128280240D01*
X108828525Y-128454632D01*
X109035368Y-128661475D01*
X109278589Y-128823990D01*
X109548842Y-128935932D01*
X109835740Y-128993000D01*
X110128260Y-128993000D01*
X110415158Y-128935932D01*
X110685411Y-128823990D01*
X110928632Y-128661475D01*
X111135475Y-128454632D01*
X111252000Y-128280240D01*
X111368525Y-128454632D01*
X111575368Y-128661475D01*
X111818589Y-128823990D01*
X112088842Y-128935932D01*
X112375740Y-128993000D01*
X112668260Y-128993000D01*
X112955158Y-128935932D01*
X113225411Y-128823990D01*
X113468632Y-128661475D01*
X113675475Y-128454632D01*
X113792000Y-128280240D01*
X113908525Y-128454632D01*
X114115368Y-128661475D01*
X114358589Y-128823990D01*
X114628842Y-128935932D01*
X114915740Y-128993000D01*
X115208260Y-128993000D01*
X115495158Y-128935932D01*
X115765411Y-128823990D01*
X116008632Y-128661475D01*
X116215475Y-128454632D01*
X116332000Y-128280240D01*
X116448525Y-128454632D01*
X116655368Y-128661475D01*
X116898589Y-128823990D01*
X117168842Y-128935932D01*
X117455740Y-128993000D01*
X117748260Y-128993000D01*
X118035158Y-128935932D01*
X118305411Y-128823990D01*
X118548632Y-128661475D01*
X118755475Y-128454632D01*
X118917990Y-128211411D01*
X119029932Y-127941158D01*
X119087000Y-127654260D01*
X119087000Y-127361740D01*
X119029932Y-127074842D01*
X118917990Y-126804589D01*
X118755475Y-126561368D01*
X118548632Y-126354525D01*
X118537000Y-126346753D01*
X118537000Y-126314339D01*
X118645386Y-126256405D01*
X118779962Y-126145962D01*
X118890405Y-126011386D01*
X118972472Y-125857850D01*
X119023008Y-125691254D01*
X119040072Y-125518000D01*
X119040072Y-124418000D01*
X119023008Y-124244746D01*
X118972472Y-124078150D01*
X118890405Y-123924614D01*
X118779962Y-123790038D01*
X118645386Y-123679595D01*
X118491850Y-123597528D01*
X118325254Y-123546992D01*
X118152000Y-123529928D01*
X117052000Y-123529928D01*
X116878746Y-123546992D01*
X116712150Y-123597528D01*
X116558614Y-123679595D01*
X116424038Y-123790038D01*
X116332000Y-123902187D01*
X116239962Y-123790038D01*
X116105386Y-123679595D01*
X115951850Y-123597528D01*
X115785254Y-123546992D01*
X115612000Y-123529928D01*
X114946218Y-123529928D01*
X114211000Y-122794711D01*
X114211000Y-106067190D01*
X114214072Y-106036000D01*
X114214072Y-105561000D01*
X114336476Y-105561000D01*
X114337928Y-105575742D01*
X114337928Y-106036000D01*
X114353071Y-106189745D01*
X114397916Y-106337582D01*
X114470742Y-106473829D01*
X114568749Y-106593251D01*
X114688171Y-106691258D01*
X114824418Y-106764084D01*
X114972255Y-106808929D01*
X115126000Y-106824072D01*
X115426000Y-106824072D01*
X115579745Y-106808929D01*
X115727582Y-106764084D01*
X115863829Y-106691258D01*
X115881250Y-106676961D01*
X115926226Y-106721937D01*
X116095744Y-106835205D01*
X116284102Y-106913226D01*
X116484061Y-106953000D01*
X116687939Y-106953000D01*
X116887898Y-106913226D01*
X117076256Y-106835205D01*
X117186908Y-106761270D01*
X117180237Y-106767988D01*
X117137487Y-106809851D01*
X117131613Y-106816952D01*
X117006289Y-106970614D01*
X116973174Y-107020456D01*
X116939390Y-107069796D01*
X116935007Y-107077902D01*
X116841916Y-107252980D01*
X116819125Y-107308275D01*
X116795554Y-107363270D01*
X116792829Y-107372073D01*
X116735518Y-107561900D01*
X116723900Y-107620580D01*
X116711463Y-107679087D01*
X116710500Y-107688252D01*
X116691150Y-107885594D01*
X116691150Y-107885599D01*
X116688000Y-107917582D01*
X116688001Y-118142419D01*
X116691249Y-118175397D01*
X116691249Y-118188591D01*
X116692212Y-118197756D01*
X116714315Y-118394808D01*
X116726747Y-118453295D01*
X116738370Y-118511997D01*
X116741096Y-118520800D01*
X116801052Y-118709808D01*
X116824612Y-118764778D01*
X116847414Y-118820099D01*
X116851797Y-118828205D01*
X116947324Y-119001966D01*
X116981130Y-119051338D01*
X117014221Y-119101144D01*
X117020095Y-119108245D01*
X117147552Y-119260142D01*
X117190263Y-119301968D01*
X117232441Y-119344442D01*
X117239583Y-119350266D01*
X117394116Y-119474515D01*
X117444170Y-119507269D01*
X117493765Y-119540722D01*
X117501901Y-119545048D01*
X117677625Y-119636914D01*
X117733078Y-119659318D01*
X117788233Y-119682503D01*
X117797055Y-119685166D01*
X117987276Y-119741151D01*
X118046010Y-119752355D01*
X118104633Y-119764389D01*
X118113805Y-119765288D01*
X118311277Y-119783259D01*
X118371094Y-119782841D01*
X118430911Y-119783259D01*
X118440083Y-119782359D01*
X118637284Y-119761632D01*
X118695834Y-119749613D01*
X118754639Y-119738396D01*
X118763461Y-119735732D01*
X118952882Y-119677097D01*
X119008009Y-119653924D01*
X119063492Y-119631507D01*
X119071629Y-119627181D01*
X119246052Y-119532870D01*
X119295636Y-119499425D01*
X119345699Y-119466665D01*
X119352840Y-119460841D01*
X119505624Y-119334446D01*
X119547744Y-119292031D01*
X119590513Y-119250149D01*
X119596387Y-119243048D01*
X119721711Y-119089386D01*
X119754803Y-119039577D01*
X119788610Y-118990205D01*
X119792993Y-118982098D01*
X119886084Y-118807020D01*
X119908875Y-118751725D01*
X119932446Y-118696730D01*
X119935171Y-118687926D01*
X119992482Y-118498100D01*
X120004098Y-118439434D01*
X120016537Y-118380913D01*
X120017500Y-118371748D01*
X120036850Y-118174407D01*
X120036850Y-118174402D01*
X120040000Y-118142419D01*
X120040000Y-107917582D01*
X120498000Y-107917582D01*
X120498001Y-118142419D01*
X120501249Y-118175397D01*
X120501249Y-118188591D01*
X120502212Y-118197756D01*
X120524315Y-118394808D01*
X120536747Y-118453295D01*
X120548370Y-118511997D01*
X120551096Y-118520800D01*
X120611052Y-118709808D01*
X120634612Y-118764778D01*
X120657414Y-118820099D01*
X120661797Y-118828205D01*
X120757324Y-119001966D01*
X120791130Y-119051338D01*
X120824221Y-119101144D01*
X120830095Y-119108245D01*
X120957552Y-119260142D01*
X121000263Y-119301968D01*
X121042441Y-119344442D01*
X121049583Y-119350266D01*
X121204116Y-119474515D01*
X121254170Y-119507269D01*
X121303765Y-119540722D01*
X121311901Y-119545048D01*
X121487625Y-119636914D01*
X121543078Y-119659318D01*
X121598233Y-119682503D01*
X121607055Y-119685166D01*
X121797276Y-119741151D01*
X121856010Y-119752355D01*
X121914633Y-119764389D01*
X121923805Y-119765288D01*
X122121277Y-119783259D01*
X122181094Y-119782841D01*
X122240911Y-119783259D01*
X122250083Y-119782359D01*
X122447284Y-119761632D01*
X122505834Y-119749613D01*
X122564639Y-119738396D01*
X122573461Y-119735732D01*
X122762882Y-119677097D01*
X122818009Y-119653924D01*
X122873492Y-119631507D01*
X122881629Y-119627181D01*
X123056052Y-119532870D01*
X123105636Y-119499425D01*
X123155699Y-119466665D01*
X123162840Y-119460841D01*
X123315624Y-119334446D01*
X123357744Y-119292031D01*
X123400513Y-119250149D01*
X123406387Y-119243048D01*
X123531711Y-119089386D01*
X123564803Y-119039577D01*
X123598610Y-118990205D01*
X123602993Y-118982098D01*
X123696084Y-118807020D01*
X123718875Y-118751725D01*
X123742446Y-118696730D01*
X123745171Y-118687926D01*
X123802482Y-118498100D01*
X123814098Y-118439434D01*
X123826537Y-118380913D01*
X123827500Y-118371748D01*
X123846850Y-118174407D01*
X123846850Y-118174402D01*
X123850000Y-118142419D01*
X123850000Y-107917581D01*
X123846751Y-107884593D01*
X123846751Y-107871409D01*
X123845788Y-107862244D01*
X123823685Y-107665192D01*
X123811251Y-107606699D01*
X123799630Y-107548003D01*
X123796904Y-107539200D01*
X123736948Y-107350193D01*
X123713400Y-107295249D01*
X123690586Y-107239900D01*
X123686203Y-107231794D01*
X123590676Y-107058034D01*
X123556892Y-107008695D01*
X123523779Y-106958855D01*
X123517905Y-106951755D01*
X123390448Y-106799857D01*
X123347718Y-106758013D01*
X123305559Y-106715558D01*
X123298417Y-106709734D01*
X123143883Y-106585485D01*
X123093847Y-106552742D01*
X123044235Y-106519278D01*
X123036098Y-106514952D01*
X122860375Y-106423086D01*
X122804936Y-106400688D01*
X122749768Y-106377497D01*
X122740946Y-106374834D01*
X122550724Y-106318849D01*
X122492016Y-106307650D01*
X122433367Y-106295611D01*
X122424195Y-106294712D01*
X122226723Y-106276741D01*
X122166906Y-106277159D01*
X122107088Y-106276741D01*
X122097917Y-106277641D01*
X121900715Y-106298368D01*
X121842151Y-106310390D01*
X121783362Y-106321604D01*
X121774540Y-106324268D01*
X121585118Y-106382903D01*
X121530005Y-106406071D01*
X121474507Y-106428493D01*
X121466371Y-106432820D01*
X121291947Y-106527130D01*
X121242331Y-106560597D01*
X121192301Y-106593335D01*
X121185160Y-106599159D01*
X121032376Y-106725553D01*
X120990237Y-106767988D01*
X120947487Y-106809851D01*
X120941613Y-106816952D01*
X120816289Y-106970614D01*
X120783174Y-107020456D01*
X120749390Y-107069796D01*
X120745007Y-107077902D01*
X120651916Y-107252980D01*
X120629125Y-107308275D01*
X120605554Y-107363270D01*
X120602829Y-107372073D01*
X120545518Y-107561900D01*
X120533900Y-107620580D01*
X120521463Y-107679087D01*
X120520500Y-107688252D01*
X120501150Y-107885594D01*
X120501150Y-107885599D01*
X120498000Y-107917582D01*
X120040000Y-107917582D01*
X120040000Y-107917581D01*
X120036751Y-107884593D01*
X120036751Y-107871409D01*
X120035788Y-107862244D01*
X120013685Y-107665192D01*
X120001251Y-107606699D01*
X119989630Y-107548003D01*
X119986904Y-107539200D01*
X119926948Y-107350193D01*
X119903400Y-107295249D01*
X119880586Y-107239900D01*
X119876203Y-107231794D01*
X119780676Y-107058034D01*
X119746892Y-107008695D01*
X119713779Y-106958855D01*
X119707905Y-106951755D01*
X119580448Y-106799857D01*
X119537718Y-106758013D01*
X119495559Y-106715558D01*
X119488417Y-106709734D01*
X119333883Y-106585485D01*
X119283847Y-106552742D01*
X119234235Y-106519278D01*
X119226098Y-106514952D01*
X119050375Y-106423086D01*
X118994936Y-106400688D01*
X118939768Y-106377497D01*
X118930946Y-106374834D01*
X118740724Y-106318849D01*
X118682016Y-106307650D01*
X118623367Y-106295611D01*
X118614195Y-106294712D01*
X118416723Y-106276741D01*
X118356906Y-106277159D01*
X118297088Y-106276741D01*
X118287917Y-106277641D01*
X118090715Y-106298368D01*
X118032151Y-106310390D01*
X117973362Y-106321604D01*
X117964540Y-106324268D01*
X117775118Y-106382903D01*
X117720005Y-106406071D01*
X117664507Y-106428493D01*
X117656371Y-106432820D01*
X117481947Y-106527130D01*
X117432331Y-106560597D01*
X117382301Y-106593335D01*
X117375160Y-106599159D01*
X117336903Y-106630808D01*
X117389937Y-106577774D01*
X117503205Y-106408256D01*
X117581226Y-106219898D01*
X117621000Y-106019939D01*
X117621000Y-105816061D01*
X117581226Y-105616102D01*
X117503205Y-105427744D01*
X117389937Y-105258226D01*
X117245774Y-105114063D01*
X117076256Y-105000795D01*
X116930858Y-104940569D01*
X116922630Y-104932341D01*
X116893344Y-104896656D01*
X116750972Y-104779814D01*
X116588540Y-104692993D01*
X116412292Y-104639529D01*
X116274932Y-104626000D01*
X116229000Y-104621476D01*
X116183068Y-104626000D01*
X116063063Y-104626000D01*
X115983251Y-104528749D01*
X115863829Y-104430742D01*
X115727582Y-104357916D01*
X115579745Y-104313071D01*
X115426000Y-104297928D01*
X115126000Y-104297928D01*
X114972255Y-104313071D01*
X114824418Y-104357916D01*
X114688171Y-104430742D01*
X114568749Y-104528749D01*
X114470742Y-104648171D01*
X114397916Y-104784418D01*
X114353071Y-104932255D01*
X114337928Y-105086000D01*
X114337928Y-105546258D01*
X114336476Y-105561000D01*
X114214072Y-105561000D01*
X114214072Y-105086000D01*
X114198929Y-104932255D01*
X114154084Y-104784418D01*
X114081258Y-104648171D01*
X113983251Y-104528749D01*
X113863829Y-104430742D01*
X113727582Y-104357916D01*
X113579745Y-104313071D01*
X113426000Y-104297928D01*
X113126000Y-104297928D01*
X112972255Y-104313071D01*
X112824418Y-104357916D01*
X112776000Y-104383796D01*
X112727582Y-104357916D01*
X112579745Y-104313071D01*
X112426000Y-104297928D01*
X112126000Y-104297928D01*
X111972255Y-104313071D01*
X111824418Y-104357916D01*
X111776000Y-104383796D01*
X111727582Y-104357916D01*
X111579745Y-104313071D01*
X111426000Y-104297928D01*
X111126000Y-104297928D01*
X110972255Y-104313071D01*
X110824418Y-104357916D01*
X110776000Y-104383796D01*
X110727582Y-104357916D01*
X110579745Y-104313071D01*
X110426000Y-104297928D01*
X110126000Y-104297928D01*
X109972255Y-104313071D01*
X109824418Y-104357916D01*
X109688171Y-104430742D01*
X109568749Y-104528749D01*
X109470742Y-104648171D01*
X109397916Y-104784418D01*
X109353071Y-104932255D01*
X109337928Y-105086000D01*
X109337928Y-106036000D01*
X109341000Y-106067190D01*
X109341001Y-121746709D01*
X107557783Y-123529928D01*
X106892000Y-123529928D01*
X106718746Y-123546992D01*
X106552150Y-123597528D01*
X106398614Y-123679595D01*
X106264038Y-123790038D01*
X106153595Y-123924614D01*
X106071528Y-124078150D01*
X106020992Y-124244746D01*
X106003928Y-124418000D01*
X106003928Y-125518000D01*
X106020992Y-125691254D01*
X106071528Y-125857850D01*
X106153595Y-126011386D01*
X106264038Y-126145962D01*
X106398614Y-126256405D01*
X106507001Y-126314339D01*
X106507001Y-126346752D01*
X106495368Y-126354525D01*
X106288525Y-126561368D01*
X106126010Y-126804589D01*
X106014068Y-127074842D01*
X105957000Y-127361740D01*
X101256000Y-127361740D01*
X101256000Y-124159031D01*
X101541120Y-124349542D01*
X101946408Y-124517418D01*
X102376660Y-124603000D01*
X102815340Y-124603000D01*
X103245592Y-124517418D01*
X103650880Y-124349542D01*
X104015630Y-124105824D01*
X104325824Y-123795630D01*
X104569542Y-123430880D01*
X104737418Y-123025592D01*
X104823000Y-122595340D01*
X104823000Y-122156660D01*
X104737418Y-121726408D01*
X104569542Y-121321120D01*
X104325824Y-120956370D01*
X104015630Y-120646176D01*
X103650880Y-120402458D01*
X103245592Y-120234582D01*
X102815340Y-120149000D01*
X102376660Y-120149000D01*
X101946408Y-120234582D01*
X101541120Y-120402458D01*
X101256000Y-120592969D01*
X101256000Y-107917582D01*
X101702000Y-107917582D01*
X101702001Y-118142419D01*
X101705249Y-118175397D01*
X101705249Y-118188591D01*
X101706212Y-118197756D01*
X101728315Y-118394808D01*
X101740747Y-118453295D01*
X101752370Y-118511997D01*
X101755096Y-118520800D01*
X101815052Y-118709808D01*
X101838612Y-118764778D01*
X101861414Y-118820099D01*
X101865797Y-118828205D01*
X101961324Y-119001966D01*
X101995130Y-119051338D01*
X102028221Y-119101144D01*
X102034095Y-119108245D01*
X102161552Y-119260142D01*
X102204263Y-119301968D01*
X102246441Y-119344442D01*
X102253583Y-119350266D01*
X102408116Y-119474515D01*
X102458170Y-119507269D01*
X102507765Y-119540722D01*
X102515901Y-119545048D01*
X102691625Y-119636914D01*
X102747078Y-119659318D01*
X102802233Y-119682503D01*
X102811055Y-119685166D01*
X103001276Y-119741151D01*
X103060010Y-119752355D01*
X103118633Y-119764389D01*
X103127805Y-119765288D01*
X103325277Y-119783259D01*
X103385094Y-119782841D01*
X103444911Y-119783259D01*
X103454083Y-119782359D01*
X103651284Y-119761632D01*
X103709834Y-119749613D01*
X103768639Y-119738396D01*
X103777461Y-119735732D01*
X103966882Y-119677097D01*
X104022009Y-119653924D01*
X104077492Y-119631507D01*
X104085629Y-119627181D01*
X104260052Y-119532870D01*
X104309636Y-119499425D01*
X104359699Y-119466665D01*
X104366840Y-119460841D01*
X104519624Y-119334446D01*
X104561744Y-119292031D01*
X104604513Y-119250149D01*
X104610387Y-119243048D01*
X104735711Y-119089386D01*
X104768803Y-119039577D01*
X104802610Y-118990205D01*
X104806993Y-118982098D01*
X104900084Y-118807020D01*
X104922875Y-118751725D01*
X104946446Y-118696730D01*
X104949171Y-118687926D01*
X105006482Y-118498100D01*
X105018098Y-118439434D01*
X105030537Y-118380913D01*
X105031500Y-118371748D01*
X105050850Y-118174407D01*
X105050850Y-118174402D01*
X105054000Y-118142419D01*
X105054000Y-107917582D01*
X105512000Y-107917582D01*
X105512001Y-118142419D01*
X105515249Y-118175397D01*
X105515249Y-118188591D01*
X105516212Y-118197756D01*
X105538315Y-118394808D01*
X105550747Y-118453295D01*
X105562370Y-118511997D01*
X105565096Y-118520800D01*
X105625052Y-118709808D01*
X105648612Y-118764778D01*
X105671414Y-118820099D01*
X105675797Y-118828205D01*
X105771324Y-119001966D01*
X105805130Y-119051338D01*
X105838221Y-119101144D01*
X105844095Y-119108245D01*
X105971552Y-119260142D01*
X106014263Y-119301968D01*
X106056441Y-119344442D01*
X106063583Y-119350266D01*
X106218116Y-119474515D01*
X106268170Y-119507269D01*
X106317765Y-119540722D01*
X106325901Y-119545048D01*
X106501625Y-119636914D01*
X106557078Y-119659318D01*
X106612233Y-119682503D01*
X106621055Y-119685166D01*
X106811276Y-119741151D01*
X106870010Y-119752355D01*
X106928633Y-119764389D01*
X106937805Y-119765288D01*
X107135277Y-119783259D01*
X107195094Y-119782841D01*
X107254911Y-119783259D01*
X107264083Y-119782359D01*
X107461284Y-119761632D01*
X107519834Y-119749613D01*
X107578639Y-119738396D01*
X107587461Y-119735732D01*
X107776882Y-119677097D01*
X107832009Y-119653924D01*
X107887492Y-119631507D01*
X107895629Y-119627181D01*
X108070052Y-119532870D01*
X108119636Y-119499425D01*
X108169699Y-119466665D01*
X108176840Y-119460841D01*
X108329624Y-119334446D01*
X108371744Y-119292031D01*
X108414513Y-119250149D01*
X108420387Y-119243048D01*
X108545711Y-119089386D01*
X108578803Y-119039577D01*
X108612610Y-118990205D01*
X108616993Y-118982098D01*
X108710084Y-118807020D01*
X108732875Y-118751725D01*
X108756446Y-118696730D01*
X108759171Y-118687926D01*
X108816482Y-118498100D01*
X108828098Y-118439434D01*
X108840537Y-118380913D01*
X108841500Y-118371748D01*
X108860850Y-118174407D01*
X108860850Y-118174402D01*
X108864000Y-118142419D01*
X108864000Y-107917581D01*
X108860751Y-107884593D01*
X108860751Y-107871409D01*
X108859788Y-107862244D01*
X108837685Y-107665192D01*
X108825251Y-107606699D01*
X108813630Y-107548003D01*
X108810904Y-107539200D01*
X108750948Y-107350193D01*
X108727400Y-107295249D01*
X108704586Y-107239900D01*
X108700203Y-107231794D01*
X108604676Y-107058034D01*
X108570892Y-107008695D01*
X108537779Y-106958855D01*
X108531905Y-106951755D01*
X108404448Y-106799857D01*
X108361718Y-106758013D01*
X108319559Y-106715558D01*
X108312417Y-106709734D01*
X108157883Y-106585485D01*
X108107847Y-106552742D01*
X108058235Y-106519278D01*
X108050098Y-106514952D01*
X107874375Y-106423086D01*
X107818936Y-106400688D01*
X107763768Y-106377497D01*
X107754946Y-106374834D01*
X107564724Y-106318849D01*
X107506016Y-106307650D01*
X107447367Y-106295611D01*
X107438195Y-106294712D01*
X107240723Y-106276741D01*
X107180906Y-106277159D01*
X107121088Y-106276741D01*
X107111917Y-106277641D01*
X106914715Y-106298368D01*
X106856151Y-106310390D01*
X106797362Y-106321604D01*
X106788540Y-106324268D01*
X106599118Y-106382903D01*
X106544005Y-106406071D01*
X106488507Y-106428493D01*
X106480371Y-106432820D01*
X106305947Y-106527130D01*
X106256331Y-106560597D01*
X106206301Y-106593335D01*
X106199160Y-106599159D01*
X106046376Y-106725553D01*
X106004237Y-106767988D01*
X105961487Y-106809851D01*
X105955613Y-106816952D01*
X105830289Y-106970614D01*
X105797174Y-107020456D01*
X105763390Y-107069796D01*
X105759007Y-107077902D01*
X105665916Y-107252980D01*
X105643125Y-107308275D01*
X105619554Y-107363270D01*
X105616829Y-107372073D01*
X105559518Y-107561900D01*
X105547900Y-107620580D01*
X105535463Y-107679087D01*
X105534500Y-107688252D01*
X105515150Y-107885594D01*
X105515150Y-107885599D01*
X105512000Y-107917582D01*
X105054000Y-107917582D01*
X105054000Y-107917581D01*
X105050751Y-107884593D01*
X105050751Y-107871409D01*
X105049788Y-107862244D01*
X105027685Y-107665192D01*
X105015251Y-107606699D01*
X105003630Y-107548003D01*
X105000904Y-107539200D01*
X104940948Y-107350193D01*
X104917400Y-107295249D01*
X104894586Y-107239900D01*
X104890203Y-107231794D01*
X104794676Y-107058034D01*
X104760892Y-107008695D01*
X104727779Y-106958855D01*
X104721905Y-106951755D01*
X104594448Y-106799857D01*
X104551718Y-106758013D01*
X104509559Y-106715558D01*
X104502417Y-106709734D01*
X104347883Y-106585485D01*
X104297847Y-106552742D01*
X104248235Y-106519278D01*
X104240098Y-106514952D01*
X104064375Y-106423086D01*
X104008936Y-106400688D01*
X103953768Y-106377497D01*
X103944946Y-106374834D01*
X103754724Y-106318849D01*
X103696016Y-106307650D01*
X103637367Y-106295611D01*
X103628195Y-106294712D01*
X103430723Y-106276741D01*
X103370906Y-106277159D01*
X103311088Y-106276741D01*
X103301917Y-106277641D01*
X103104715Y-106298368D01*
X103046151Y-106310390D01*
X102987362Y-106321604D01*
X102978540Y-106324268D01*
X102789118Y-106382903D01*
X102734005Y-106406071D01*
X102678507Y-106428493D01*
X102670371Y-106432820D01*
X102495947Y-106527130D01*
X102446331Y-106560597D01*
X102396301Y-106593335D01*
X102389160Y-106599159D01*
X102236376Y-106725553D01*
X102194237Y-106767988D01*
X102151487Y-106809851D01*
X102145613Y-106816952D01*
X102020289Y-106970614D01*
X101987174Y-107020456D01*
X101953390Y-107069796D01*
X101949007Y-107077902D01*
X101855916Y-107252980D01*
X101833125Y-107308275D01*
X101809554Y-107363270D01*
X101806829Y-107372073D01*
X101749518Y-107561900D01*
X101737900Y-107620580D01*
X101725463Y-107679087D01*
X101724500Y-107688252D01*
X101705150Y-107885594D01*
X101705150Y-107885599D01*
X101702000Y-107917582D01*
X101256000Y-107917582D01*
X101256000Y-104159031D01*
X101541120Y-104349542D01*
X101946408Y-104517418D01*
X102376660Y-104603000D01*
X102815340Y-104603000D01*
X103245592Y-104517418D01*
X103650880Y-104349542D01*
X104015630Y-104105824D01*
X104325824Y-103795630D01*
X104569542Y-103430880D01*
X104737418Y-103025592D01*
X104823000Y-102595340D01*
X104823000Y-102156660D01*
X104737418Y-101726408D01*
X104569542Y-101321120D01*
X104379031Y-101036000D01*
X108228857Y-101036000D01*
X108121503Y-101093382D01*
G37*
%TD.AperFunction*%
%TD*%
M02*
