M48
; DRILL file {KiCad (5.1.9)-1} date 11/23/21 19:45:23
; FORMAT={-:-/ absolute / inch / decimal}
; #@! TF.CreationDate,2021-11-23T19:45:23+00:00
; #@! TF.GenerationSoftware,Kicad,Pcbnew,(5.1.9)-1
FMAT,2
INCH
T1C0.0374
T2C0.0394
T3C0.0748
%
G90
G05
T1
X3.4Y-3.6
X3.4Y-3.6984
X3.4Y-3.7969
X3.4Y-3.8953
X3.4Y-3.9937
X3.4Y-4.0921
X3.4Y-4.1906
X4.2Y-3.6
X4.2Y-3.6984
X4.2Y-3.7969
X4.2Y-3.8953
X4.2Y-3.9937
X4.2Y-4.0921
X4.2Y-4.1906
X4.2Y-4.55
X4.2Y-4.6484
X4.2Y-4.7469
X4.2Y-4.8453
X4.2Y-4.9437
X4.2Y-5.0421
X4.2Y-5.1406
X4.7Y-3.6
X4.7Y-3.6984
X4.7Y-3.7969
X4.7Y-3.8953
X4.7Y-3.9937
X4.7Y-4.0921
X4.7Y-4.1906
X4.7Y-4.55
X4.7Y-4.6484
X4.7Y-4.7469
X4.7Y-4.8453
X4.7Y-4.9437
X4.7Y-5.0421
X4.7Y-5.1406
X5.2Y-3.6
X5.2Y-3.6984
X5.2Y-3.7969
X5.2Y-3.8953
X5.2Y-3.9937
X5.2Y-4.0921
X5.2Y-4.1906
X5.2Y-4.55
X5.2Y-4.6484
X5.2Y-4.7469
X5.2Y-4.8453
X5.2Y-4.9437
X5.2Y-5.0421
X5.2Y-5.1406
X5.7Y-3.6
X5.7Y-3.6984
X5.7Y-3.7969
X5.7Y-3.8953
X5.7Y-3.9937
X5.7Y-4.0921
X5.7Y-4.1906
X5.7Y-4.55
X5.7Y-4.6484
X5.7Y-4.7469
X5.7Y-4.8453
X5.7Y-4.9437
X5.7Y-5.0421
X5.7Y-5.1406
X6.2Y-3.6
X6.2Y-3.6984
X6.2Y-3.7969
X6.2Y-3.8953
X6.2Y-3.9937
X6.2Y-4.0921
X6.2Y-4.1906
X6.2Y-4.55
X6.2Y-4.6484
X6.2Y-4.7469
X6.2Y-4.8453
X6.2Y-4.9437
X6.2Y-5.0421
X6.2Y-5.1406
X6.7Y-3.6
X6.7Y-3.6984
X6.7Y-3.7969
X6.7Y-3.8953
X6.7Y-3.9937
X6.7Y-4.0921
X6.7Y-4.1906
X6.7Y-4.55
X6.7Y-4.6484
X6.7Y-4.7469
X6.7Y-4.8453
X6.7Y-4.9437
X6.7Y-5.0421
X6.7Y-5.1406
T2
X3.4031Y-4.635
X3.4031Y-5.0681
T3
X3.6Y-4.7531
X3.6Y-4.95
T0
M30
