%TF.GenerationSoftware,KiCad,Pcbnew,(5.1.9)-1*%
%TF.CreationDate,2021-11-23T19:46:46+00:00*%
%TF.ProjectId,6S parallel board,36532070-6172-4616-9c6c-656c20626f61,rev?*%
%TF.SameCoordinates,Original*%
%TF.FileFunction,Copper,L2,Bot*%
%TF.FilePolarity,Positive*%
%FSLAX46Y46*%
G04 Gerber Fmt 4.6, Leading zero omitted, Abs format (unit mm)*
G04 Created by KiCad (PCBNEW (5.1.9)-1) date 2021-11-23 19:46:46*
%MOMM*%
%LPD*%
G01*
G04 APERTURE LIST*
%TA.AperFunction,ComponentPad*%
%ADD10O,1.950000X1.700000*%
%TD*%
%TA.AperFunction,ComponentPad*%
%ADD11C,1.400000*%
%TD*%
%TA.AperFunction,ComponentPad*%
%ADD12R,3.500000X3.500000*%
%TD*%
%TA.AperFunction,ComponentPad*%
%ADD13C,3.500000*%
%TD*%
%TA.AperFunction,Conductor*%
%ADD14C,2.200000*%
%TD*%
%TA.AperFunction,Conductor*%
%ADD15C,0.254000*%
%TD*%
%TA.AperFunction,Conductor*%
%ADD16C,0.100000*%
%TD*%
G04 APERTURE END LIST*
D10*
%TO.P,J14,7*%
%TO.N,GND*%
X170180000Y-130570000D03*
%TO.P,J14,6*%
%TO.N,/B6*%
X170180000Y-128070000D03*
%TO.P,J14,5*%
%TO.N,/B5*%
X170180000Y-125570000D03*
%TO.P,J14,4*%
%TO.N,/B4*%
X170180000Y-123070000D03*
%TO.P,J14,3*%
%TO.N,/B3*%
X170180000Y-120570000D03*
%TO.P,J14,2*%
%TO.N,/B2*%
X170180000Y-118070000D03*
%TO.P,J14,1*%
%TO.N,VCC*%
%TA.AperFunction,ComponentPad*%
G36*
G01*
X169455000Y-114720000D02*
X170905000Y-114720000D01*
G75*
G02*
X171155000Y-114970000I0J-250000D01*
G01*
X171155000Y-116170000D01*
G75*
G02*
X170905000Y-116420000I-250000J0D01*
G01*
X169455000Y-116420000D01*
G75*
G02*
X169205000Y-116170000I0J250000D01*
G01*
X169205000Y-114970000D01*
G75*
G02*
X169455000Y-114720000I250000J0D01*
G01*
G37*
%TD.AperFunction*%
%TD*%
%TO.P,J13,7*%
%TO.N,GND*%
X157480000Y-130570000D03*
%TO.P,J13,6*%
%TO.N,/B6*%
X157480000Y-128070000D03*
%TO.P,J13,5*%
%TO.N,/B5*%
X157480000Y-125570000D03*
%TO.P,J13,4*%
%TO.N,/B4*%
X157480000Y-123070000D03*
%TO.P,J13,3*%
%TO.N,/B3*%
X157480000Y-120570000D03*
%TO.P,J13,2*%
%TO.N,/B2*%
X157480000Y-118070000D03*
%TO.P,J13,1*%
%TO.N,VCC*%
%TA.AperFunction,ComponentPad*%
G36*
G01*
X156755000Y-114720000D02*
X158205000Y-114720000D01*
G75*
G02*
X158455000Y-114970000I0J-250000D01*
G01*
X158455000Y-116170000D01*
G75*
G02*
X158205000Y-116420000I-250000J0D01*
G01*
X156755000Y-116420000D01*
G75*
G02*
X156505000Y-116170000I0J250000D01*
G01*
X156505000Y-114970000D01*
G75*
G02*
X156755000Y-114720000I250000J0D01*
G01*
G37*
%TD.AperFunction*%
%TD*%
%TO.P,J12,7*%
%TO.N,GND*%
X144780000Y-130570000D03*
%TO.P,J12,6*%
%TO.N,/B6*%
X144780000Y-128070000D03*
%TO.P,J12,5*%
%TO.N,/B5*%
X144780000Y-125570000D03*
%TO.P,J12,4*%
%TO.N,/B4*%
X144780000Y-123070000D03*
%TO.P,J12,3*%
%TO.N,/B3*%
X144780000Y-120570000D03*
%TO.P,J12,2*%
%TO.N,/B2*%
X144780000Y-118070000D03*
%TO.P,J12,1*%
%TO.N,VCC*%
%TA.AperFunction,ComponentPad*%
G36*
G01*
X144055000Y-114720000D02*
X145505000Y-114720000D01*
G75*
G02*
X145755000Y-114970000I0J-250000D01*
G01*
X145755000Y-116170000D01*
G75*
G02*
X145505000Y-116420000I-250000J0D01*
G01*
X144055000Y-116420000D01*
G75*
G02*
X143805000Y-116170000I0J250000D01*
G01*
X143805000Y-114970000D01*
G75*
G02*
X144055000Y-114720000I250000J0D01*
G01*
G37*
%TD.AperFunction*%
%TD*%
%TO.P,J11,7*%
%TO.N,GND*%
X132080000Y-130570000D03*
%TO.P,J11,6*%
%TO.N,/B6*%
X132080000Y-128070000D03*
%TO.P,J11,5*%
%TO.N,/B5*%
X132080000Y-125570000D03*
%TO.P,J11,4*%
%TO.N,/B4*%
X132080000Y-123070000D03*
%TO.P,J11,3*%
%TO.N,/B3*%
X132080000Y-120570000D03*
%TO.P,J11,2*%
%TO.N,/B2*%
X132080000Y-118070000D03*
%TO.P,J11,1*%
%TO.N,VCC*%
%TA.AperFunction,ComponentPad*%
G36*
G01*
X131355000Y-114720000D02*
X132805000Y-114720000D01*
G75*
G02*
X133055000Y-114970000I0J-250000D01*
G01*
X133055000Y-116170000D01*
G75*
G02*
X132805000Y-116420000I-250000J0D01*
G01*
X131355000Y-116420000D01*
G75*
G02*
X131105000Y-116170000I0J250000D01*
G01*
X131105000Y-114970000D01*
G75*
G02*
X131355000Y-114720000I250000J0D01*
G01*
G37*
%TD.AperFunction*%
%TD*%
%TO.P,J10,7*%
%TO.N,GND*%
X119380000Y-130570000D03*
%TO.P,J10,6*%
%TO.N,/B6*%
X119380000Y-128070000D03*
%TO.P,J10,5*%
%TO.N,/B5*%
X119380000Y-125570000D03*
%TO.P,J10,4*%
%TO.N,/B4*%
X119380000Y-123070000D03*
%TO.P,J10,3*%
%TO.N,/B3*%
X119380000Y-120570000D03*
%TO.P,J10,2*%
%TO.N,/B2*%
X119380000Y-118070000D03*
%TO.P,J10,1*%
%TO.N,VCC*%
%TA.AperFunction,ComponentPad*%
G36*
G01*
X118655000Y-114720000D02*
X120105000Y-114720000D01*
G75*
G02*
X120355000Y-114970000I0J-250000D01*
G01*
X120355000Y-116170000D01*
G75*
G02*
X120105000Y-116420000I-250000J0D01*
G01*
X118655000Y-116420000D01*
G75*
G02*
X118405000Y-116170000I0J250000D01*
G01*
X118405000Y-114970000D01*
G75*
G02*
X118655000Y-114720000I250000J0D01*
G01*
G37*
%TD.AperFunction*%
%TD*%
%TO.P,J9,7*%
%TO.N,GND*%
X106680000Y-130570000D03*
%TO.P,J9,6*%
%TO.N,/B6*%
X106680000Y-128070000D03*
%TO.P,J9,5*%
%TO.N,/B5*%
X106680000Y-125570000D03*
%TO.P,J9,4*%
%TO.N,/B4*%
X106680000Y-123070000D03*
%TO.P,J9,3*%
%TO.N,/B3*%
X106680000Y-120570000D03*
%TO.P,J9,2*%
%TO.N,/B2*%
X106680000Y-118070000D03*
%TO.P,J9,1*%
%TO.N,VCC*%
%TA.AperFunction,ComponentPad*%
G36*
G01*
X105955000Y-114720000D02*
X107405000Y-114720000D01*
G75*
G02*
X107655000Y-114970000I0J-250000D01*
G01*
X107655000Y-116170000D01*
G75*
G02*
X107405000Y-116420000I-250000J0D01*
G01*
X105955000Y-116420000D01*
G75*
G02*
X105705000Y-116170000I0J250000D01*
G01*
X105705000Y-114970000D01*
G75*
G02*
X105955000Y-114720000I250000J0D01*
G01*
G37*
%TD.AperFunction*%
%TD*%
%TO.P,J8,7*%
%TO.N,GND*%
X170180000Y-106440000D03*
%TO.P,J8,6*%
%TO.N,/B6*%
X170180000Y-103940000D03*
%TO.P,J8,5*%
%TO.N,/B5*%
X170180000Y-101440000D03*
%TO.P,J8,4*%
%TO.N,/B4*%
X170180000Y-98940000D03*
%TO.P,J8,3*%
%TO.N,/B3*%
X170180000Y-96440000D03*
%TO.P,J8,2*%
%TO.N,/B2*%
X170180000Y-93940000D03*
%TO.P,J8,1*%
%TO.N,VCC*%
%TA.AperFunction,ComponentPad*%
G36*
G01*
X169455000Y-90590000D02*
X170905000Y-90590000D01*
G75*
G02*
X171155000Y-90840000I0J-250000D01*
G01*
X171155000Y-92040000D01*
G75*
G02*
X170905000Y-92290000I-250000J0D01*
G01*
X169455000Y-92290000D01*
G75*
G02*
X169205000Y-92040000I0J250000D01*
G01*
X169205000Y-90840000D01*
G75*
G02*
X169455000Y-90590000I250000J0D01*
G01*
G37*
%TD.AperFunction*%
%TD*%
%TO.P,J7,7*%
%TO.N,GND*%
X157480000Y-106440000D03*
%TO.P,J7,6*%
%TO.N,/B6*%
X157480000Y-103940000D03*
%TO.P,J7,5*%
%TO.N,/B5*%
X157480000Y-101440000D03*
%TO.P,J7,4*%
%TO.N,/B4*%
X157480000Y-98940000D03*
%TO.P,J7,3*%
%TO.N,/B3*%
X157480000Y-96440000D03*
%TO.P,J7,2*%
%TO.N,/B2*%
X157480000Y-93940000D03*
%TO.P,J7,1*%
%TO.N,VCC*%
%TA.AperFunction,ComponentPad*%
G36*
G01*
X156755000Y-90590000D02*
X158205000Y-90590000D01*
G75*
G02*
X158455000Y-90840000I0J-250000D01*
G01*
X158455000Y-92040000D01*
G75*
G02*
X158205000Y-92290000I-250000J0D01*
G01*
X156755000Y-92290000D01*
G75*
G02*
X156505000Y-92040000I0J250000D01*
G01*
X156505000Y-90840000D01*
G75*
G02*
X156755000Y-90590000I250000J0D01*
G01*
G37*
%TD.AperFunction*%
%TD*%
%TO.P,J6,7*%
%TO.N,GND*%
X144780000Y-106440000D03*
%TO.P,J6,6*%
%TO.N,/B6*%
X144780000Y-103940000D03*
%TO.P,J6,5*%
%TO.N,/B5*%
X144780000Y-101440000D03*
%TO.P,J6,4*%
%TO.N,/B4*%
X144780000Y-98940000D03*
%TO.P,J6,3*%
%TO.N,/B3*%
X144780000Y-96440000D03*
%TO.P,J6,2*%
%TO.N,/B2*%
X144780000Y-93940000D03*
%TO.P,J6,1*%
%TO.N,VCC*%
%TA.AperFunction,ComponentPad*%
G36*
G01*
X144055000Y-90590000D02*
X145505000Y-90590000D01*
G75*
G02*
X145755000Y-90840000I0J-250000D01*
G01*
X145755000Y-92040000D01*
G75*
G02*
X145505000Y-92290000I-250000J0D01*
G01*
X144055000Y-92290000D01*
G75*
G02*
X143805000Y-92040000I0J250000D01*
G01*
X143805000Y-90840000D01*
G75*
G02*
X144055000Y-90590000I250000J0D01*
G01*
G37*
%TD.AperFunction*%
%TD*%
%TO.P,J5,7*%
%TO.N,GND*%
X132080000Y-106440000D03*
%TO.P,J5,6*%
%TO.N,/B6*%
X132080000Y-103940000D03*
%TO.P,J5,5*%
%TO.N,/B5*%
X132080000Y-101440000D03*
%TO.P,J5,4*%
%TO.N,/B4*%
X132080000Y-98940000D03*
%TO.P,J5,3*%
%TO.N,/B3*%
X132080000Y-96440000D03*
%TO.P,J5,2*%
%TO.N,/B2*%
X132080000Y-93940000D03*
%TO.P,J5,1*%
%TO.N,VCC*%
%TA.AperFunction,ComponentPad*%
G36*
G01*
X131355000Y-90590000D02*
X132805000Y-90590000D01*
G75*
G02*
X133055000Y-90840000I0J-250000D01*
G01*
X133055000Y-92040000D01*
G75*
G02*
X132805000Y-92290000I-250000J0D01*
G01*
X131355000Y-92290000D01*
G75*
G02*
X131105000Y-92040000I0J250000D01*
G01*
X131105000Y-90840000D01*
G75*
G02*
X131355000Y-90590000I250000J0D01*
G01*
G37*
%TD.AperFunction*%
%TD*%
%TO.P,J4,7*%
%TO.N,GND*%
X119380000Y-106440000D03*
%TO.P,J4,6*%
%TO.N,/B6*%
X119380000Y-103940000D03*
%TO.P,J4,5*%
%TO.N,/B5*%
X119380000Y-101440000D03*
%TO.P,J4,4*%
%TO.N,/B4*%
X119380000Y-98940000D03*
%TO.P,J4,3*%
%TO.N,/B3*%
X119380000Y-96440000D03*
%TO.P,J4,2*%
%TO.N,/B2*%
X119380000Y-93940000D03*
%TO.P,J4,1*%
%TO.N,VCC*%
%TA.AperFunction,ComponentPad*%
G36*
G01*
X118655000Y-90590000D02*
X120105000Y-90590000D01*
G75*
G02*
X120355000Y-90840000I0J-250000D01*
G01*
X120355000Y-92040000D01*
G75*
G02*
X120105000Y-92290000I-250000J0D01*
G01*
X118655000Y-92290000D01*
G75*
G02*
X118405000Y-92040000I0J250000D01*
G01*
X118405000Y-90840000D01*
G75*
G02*
X118655000Y-90590000I250000J0D01*
G01*
G37*
%TD.AperFunction*%
%TD*%
%TO.P,J3,7*%
%TO.N,GND*%
X106680000Y-106440000D03*
%TO.P,J3,6*%
%TO.N,/B6*%
X106680000Y-103940000D03*
%TO.P,J3,5*%
%TO.N,/B5*%
X106680000Y-101440000D03*
%TO.P,J3,4*%
%TO.N,/B4*%
X106680000Y-98940000D03*
%TO.P,J3,3*%
%TO.N,/B3*%
X106680000Y-96440000D03*
%TO.P,J3,2*%
%TO.N,/B2*%
X106680000Y-93940000D03*
%TO.P,J3,1*%
%TO.N,VCC*%
%TA.AperFunction,ComponentPad*%
G36*
G01*
X105955000Y-90590000D02*
X107405000Y-90590000D01*
G75*
G02*
X107655000Y-90840000I0J-250000D01*
G01*
X107655000Y-92040000D01*
G75*
G02*
X107405000Y-92290000I-250000J0D01*
G01*
X105955000Y-92290000D01*
G75*
G02*
X105705000Y-92040000I0J250000D01*
G01*
X105705000Y-90840000D01*
G75*
G02*
X105955000Y-90590000I250000J0D01*
G01*
G37*
%TD.AperFunction*%
%TD*%
%TO.P,J2,7*%
%TO.N,GND*%
X86360000Y-106440000D03*
%TO.P,J2,6*%
%TO.N,/B6*%
X86360000Y-103940000D03*
%TO.P,J2,5*%
%TO.N,/B5*%
X86360000Y-101440000D03*
%TO.P,J2,4*%
%TO.N,/B4*%
X86360000Y-98940000D03*
%TO.P,J2,3*%
%TO.N,/B3*%
X86360000Y-96440000D03*
%TO.P,J2,2*%
%TO.N,/B2*%
X86360000Y-93940000D03*
%TO.P,J2,1*%
%TO.N,VCC*%
%TA.AperFunction,ComponentPad*%
G36*
G01*
X85635000Y-90590000D02*
X87085000Y-90590000D01*
G75*
G02*
X87335000Y-90840000I0J-250000D01*
G01*
X87335000Y-92040000D01*
G75*
G02*
X87085000Y-92290000I-250000J0D01*
G01*
X85635000Y-92290000D01*
G75*
G02*
X85385000Y-92040000I0J250000D01*
G01*
X85385000Y-90840000D01*
G75*
G02*
X85635000Y-90590000I250000J0D01*
G01*
G37*
%TD.AperFunction*%
%TD*%
D11*
%TO.P,J1,*%
%TO.N,*%
X86440000Y-128730000D03*
X86440000Y-117730000D03*
D12*
%TO.P,J1,1*%
%TO.N,GND*%
X91440000Y-125730000D03*
D13*
%TO.P,J1,2*%
%TO.N,VCC*%
X91440000Y-120730000D03*
%TD*%
D14*
%TO.N,/B4*%
X88813825Y-98940000D02*
X86360000Y-98940000D01*
X99290020Y-109416195D02*
X88813825Y-98940000D01*
X99290020Y-118485320D02*
X99290020Y-109416195D01*
X103874700Y-123070000D02*
X99290020Y-118485320D01*
X106680000Y-123070000D02*
X103874700Y-123070000D01*
X106680000Y-123070000D02*
X170180000Y-123070000D01*
X170180000Y-98940000D02*
X106680000Y-98940000D01*
%TO.N,/B3*%
X89707951Y-96440000D02*
X86360000Y-96440000D01*
X101690029Y-108422078D02*
X89707951Y-96440000D01*
X101690029Y-117491203D02*
X101690029Y-108422078D01*
X104768826Y-120570000D02*
X101690029Y-117491203D01*
X106680000Y-120570000D02*
X104768826Y-120570000D01*
X170180000Y-120570000D02*
X106680000Y-120570000D01*
X106680000Y-96440000D02*
X170180000Y-96440000D01*
%TO.N,/B2*%
X90602077Y-93940000D02*
X86360000Y-93940000D01*
X104090039Y-107427962D02*
X90602077Y-93940000D01*
X104090039Y-116497087D02*
X104090039Y-107427962D01*
X105662952Y-118070000D02*
X104090039Y-116497087D01*
X106680000Y-118070000D02*
X105662952Y-118070000D01*
X145445573Y-118070000D02*
X170180000Y-118070000D01*
X106680000Y-118070000D02*
X145445573Y-118070000D01*
X170180000Y-93940000D02*
X106680000Y-93940000D01*
%TO.N,/B6*%
X94490001Y-111404428D02*
X87025573Y-103940000D01*
X87025573Y-103940000D02*
X86360000Y-103940000D01*
X94490001Y-120473553D02*
X94490001Y-111404428D01*
X102086448Y-128070000D02*
X94490001Y-120473553D01*
X106680000Y-128070000D02*
X102086448Y-128070000D01*
X106680000Y-128070000D02*
X170180000Y-128070000D01*
X170180000Y-103940000D02*
X106680000Y-103940000D01*
%TO.N,/B5*%
X96890011Y-119479437D02*
X102980574Y-125570000D01*
X96890011Y-110410312D02*
X96890011Y-119479437D01*
X102980574Y-125570000D02*
X106680000Y-125570000D01*
X87919699Y-101440000D02*
X96890011Y-110410312D01*
X86360000Y-101440000D02*
X87919699Y-101440000D01*
X106680000Y-125570000D02*
X170180000Y-125570000D01*
X106680000Y-101440000D02*
X170180000Y-101440000D01*
%TD*%
D15*
%TO.N,GND*%
X175845001Y-135205000D02*
X76885000Y-135205000D01*
X76885000Y-128598514D01*
X85105000Y-128598514D01*
X85105000Y-128861486D01*
X85156304Y-129119405D01*
X85256939Y-129362359D01*
X85403038Y-129581013D01*
X85588987Y-129766962D01*
X85807641Y-129913061D01*
X86050595Y-130013696D01*
X86308514Y-130065000D01*
X86571486Y-130065000D01*
X86829405Y-130013696D01*
X87072359Y-129913061D01*
X87291013Y-129766962D01*
X87476962Y-129581013D01*
X87623061Y-129362359D01*
X87723696Y-129119405D01*
X87775000Y-128861486D01*
X87775000Y-128598514D01*
X87723696Y-128340595D01*
X87623061Y-128097641D01*
X87476962Y-127878987D01*
X87291013Y-127693038D01*
X87072359Y-127546939D01*
X86829405Y-127446304D01*
X86571486Y-127395000D01*
X86308514Y-127395000D01*
X86050595Y-127446304D01*
X85807641Y-127546939D01*
X85588987Y-127693038D01*
X85403038Y-127878987D01*
X85256939Y-128097641D01*
X85156304Y-128340595D01*
X85105000Y-128598514D01*
X76885000Y-128598514D01*
X76885000Y-117598514D01*
X85105000Y-117598514D01*
X85105000Y-117861486D01*
X85156304Y-118119405D01*
X85256939Y-118362359D01*
X85403038Y-118581013D01*
X85588987Y-118766962D01*
X85807641Y-118913061D01*
X86050595Y-119013696D01*
X86308514Y-119065000D01*
X86571486Y-119065000D01*
X86829405Y-119013696D01*
X87072359Y-118913061D01*
X87291013Y-118766962D01*
X87476962Y-118581013D01*
X87623061Y-118362359D01*
X87723696Y-118119405D01*
X87775000Y-117861486D01*
X87775000Y-117598514D01*
X87723696Y-117340595D01*
X87623061Y-117097641D01*
X87476962Y-116878987D01*
X87291013Y-116693038D01*
X87072359Y-116546939D01*
X86829405Y-116446304D01*
X86571486Y-116395000D01*
X86308514Y-116395000D01*
X86050595Y-116446304D01*
X85807641Y-116546939D01*
X85588987Y-116693038D01*
X85403038Y-116878987D01*
X85256939Y-117097641D01*
X85156304Y-117340595D01*
X85105000Y-117598514D01*
X76885000Y-117598514D01*
X76885000Y-93940000D01*
X84616606Y-93940000D01*
X84650105Y-94280119D01*
X84749314Y-94607168D01*
X84910421Y-94908578D01*
X85127234Y-95172766D01*
X85148234Y-95190000D01*
X85127234Y-95207234D01*
X84910421Y-95471422D01*
X84749314Y-95772832D01*
X84650105Y-96099881D01*
X84616606Y-96440000D01*
X84650105Y-96780119D01*
X84749314Y-97107168D01*
X84910421Y-97408578D01*
X85127234Y-97672766D01*
X85148234Y-97690000D01*
X85127234Y-97707234D01*
X84910421Y-97971422D01*
X84749314Y-98272832D01*
X84650105Y-98599881D01*
X84616606Y-98940000D01*
X84650105Y-99280119D01*
X84749314Y-99607168D01*
X84910421Y-99908578D01*
X85127234Y-100172766D01*
X85148234Y-100190000D01*
X85127234Y-100207234D01*
X84910421Y-100471422D01*
X84749314Y-100772832D01*
X84650105Y-101099881D01*
X84616606Y-101440000D01*
X84650105Y-101780119D01*
X84749314Y-102107168D01*
X84910421Y-102408578D01*
X85127234Y-102672766D01*
X85148234Y-102690000D01*
X85127234Y-102707234D01*
X84910421Y-102971422D01*
X84749314Y-103272832D01*
X84650105Y-103599881D01*
X84616606Y-103940000D01*
X84650105Y-104280119D01*
X84749314Y-104607168D01*
X84910421Y-104908578D01*
X85127234Y-105172766D01*
X85391422Y-105389579D01*
X85692832Y-105550686D01*
X86019881Y-105649895D01*
X86274775Y-105675000D01*
X86306913Y-105675000D01*
X92755002Y-112123090D01*
X92755001Y-118740241D01*
X92569721Y-118616440D01*
X92135679Y-118436654D01*
X91674902Y-118345000D01*
X91205098Y-118345000D01*
X90744321Y-118436654D01*
X90310279Y-118616440D01*
X89919651Y-118877450D01*
X89587450Y-119209651D01*
X89326440Y-119600279D01*
X89146654Y-120034321D01*
X89055000Y-120495098D01*
X89055000Y-120964902D01*
X89146654Y-121425679D01*
X89326440Y-121859721D01*
X89587450Y-122250349D01*
X89919651Y-122582550D01*
X90310279Y-122843560D01*
X90744321Y-123023346D01*
X91205098Y-123115000D01*
X91674902Y-123115000D01*
X92135679Y-123023346D01*
X92569721Y-122843560D01*
X92960349Y-122582550D01*
X93292550Y-122250349D01*
X93501068Y-121938280D01*
X100799354Y-129236567D01*
X100853682Y-129302766D01*
X101117870Y-129519579D01*
X101419280Y-129680686D01*
X101746329Y-129779895D01*
X102001223Y-129805000D01*
X102001224Y-129805000D01*
X102086447Y-129813394D01*
X102171670Y-129805000D01*
X170265225Y-129805000D01*
X170520119Y-129779895D01*
X170847168Y-129680686D01*
X171148578Y-129519579D01*
X171412766Y-129302766D01*
X171629579Y-129038578D01*
X171790686Y-128737168D01*
X171889895Y-128410119D01*
X171923394Y-128070000D01*
X171889895Y-127729881D01*
X171790686Y-127402832D01*
X171629579Y-127101422D01*
X171412766Y-126837234D01*
X171391766Y-126820000D01*
X171412766Y-126802766D01*
X171629579Y-126538578D01*
X171790686Y-126237168D01*
X171889895Y-125910119D01*
X171923394Y-125570000D01*
X171889895Y-125229881D01*
X171790686Y-124902832D01*
X171629579Y-124601422D01*
X171412766Y-124337234D01*
X171391766Y-124320000D01*
X171412766Y-124302766D01*
X171629579Y-124038578D01*
X171790686Y-123737168D01*
X171889895Y-123410119D01*
X171923394Y-123070000D01*
X171889895Y-122729881D01*
X171790686Y-122402832D01*
X171629579Y-122101422D01*
X171412766Y-121837234D01*
X171391766Y-121820000D01*
X171412766Y-121802766D01*
X171629579Y-121538578D01*
X171790686Y-121237168D01*
X171889895Y-120910119D01*
X171923394Y-120570000D01*
X171889895Y-120229881D01*
X171790686Y-119902832D01*
X171629579Y-119601422D01*
X171412766Y-119337234D01*
X171391766Y-119320000D01*
X171412766Y-119302766D01*
X171629579Y-119038578D01*
X171790686Y-118737168D01*
X171889895Y-118410119D01*
X171923394Y-118070000D01*
X171889895Y-117729881D01*
X171790686Y-117402832D01*
X171629579Y-117101422D01*
X171441881Y-116872710D01*
X171532962Y-116797962D01*
X171643405Y-116663386D01*
X171725472Y-116509850D01*
X171776008Y-116343254D01*
X171793072Y-116170000D01*
X171793072Y-114970000D01*
X171776008Y-114796746D01*
X171725472Y-114630150D01*
X171643405Y-114476614D01*
X171532962Y-114342038D01*
X171398386Y-114231595D01*
X171244850Y-114149528D01*
X171078254Y-114098992D01*
X170905000Y-114081928D01*
X169455000Y-114081928D01*
X169281746Y-114098992D01*
X169115150Y-114149528D01*
X168961614Y-114231595D01*
X168827038Y-114342038D01*
X168716595Y-114476614D01*
X168634528Y-114630150D01*
X168583992Y-114796746D01*
X168566928Y-114970000D01*
X168566928Y-116170000D01*
X168583179Y-116335000D01*
X159076821Y-116335000D01*
X159093072Y-116170000D01*
X159093072Y-114970000D01*
X159076008Y-114796746D01*
X159025472Y-114630150D01*
X158943405Y-114476614D01*
X158832962Y-114342038D01*
X158698386Y-114231595D01*
X158544850Y-114149528D01*
X158378254Y-114098992D01*
X158205000Y-114081928D01*
X156755000Y-114081928D01*
X156581746Y-114098992D01*
X156415150Y-114149528D01*
X156261614Y-114231595D01*
X156127038Y-114342038D01*
X156016595Y-114476614D01*
X155934528Y-114630150D01*
X155883992Y-114796746D01*
X155866928Y-114970000D01*
X155866928Y-116170000D01*
X155883179Y-116335000D01*
X146376821Y-116335000D01*
X146393072Y-116170000D01*
X146393072Y-114970000D01*
X146376008Y-114796746D01*
X146325472Y-114630150D01*
X146243405Y-114476614D01*
X146132962Y-114342038D01*
X145998386Y-114231595D01*
X145844850Y-114149528D01*
X145678254Y-114098992D01*
X145505000Y-114081928D01*
X144055000Y-114081928D01*
X143881746Y-114098992D01*
X143715150Y-114149528D01*
X143561614Y-114231595D01*
X143427038Y-114342038D01*
X143316595Y-114476614D01*
X143234528Y-114630150D01*
X143183992Y-114796746D01*
X143166928Y-114970000D01*
X143166928Y-116170000D01*
X143183179Y-116335000D01*
X133676821Y-116335000D01*
X133693072Y-116170000D01*
X133693072Y-114970000D01*
X133676008Y-114796746D01*
X133625472Y-114630150D01*
X133543405Y-114476614D01*
X133432962Y-114342038D01*
X133298386Y-114231595D01*
X133144850Y-114149528D01*
X132978254Y-114098992D01*
X132805000Y-114081928D01*
X131355000Y-114081928D01*
X131181746Y-114098992D01*
X131015150Y-114149528D01*
X130861614Y-114231595D01*
X130727038Y-114342038D01*
X130616595Y-114476614D01*
X130534528Y-114630150D01*
X130483992Y-114796746D01*
X130466928Y-114970000D01*
X130466928Y-116170000D01*
X130483179Y-116335000D01*
X120976821Y-116335000D01*
X120993072Y-116170000D01*
X120993072Y-114970000D01*
X120976008Y-114796746D01*
X120925472Y-114630150D01*
X120843405Y-114476614D01*
X120732962Y-114342038D01*
X120598386Y-114231595D01*
X120444850Y-114149528D01*
X120278254Y-114098992D01*
X120105000Y-114081928D01*
X118655000Y-114081928D01*
X118481746Y-114098992D01*
X118315150Y-114149528D01*
X118161614Y-114231595D01*
X118027038Y-114342038D01*
X117916595Y-114476614D01*
X117834528Y-114630150D01*
X117783992Y-114796746D01*
X117766928Y-114970000D01*
X117766928Y-116170000D01*
X117783179Y-116335000D01*
X108276821Y-116335000D01*
X108293072Y-116170000D01*
X108293072Y-114970000D01*
X108276008Y-114796746D01*
X108225472Y-114630150D01*
X108143405Y-114476614D01*
X108032962Y-114342038D01*
X107898386Y-114231595D01*
X107744850Y-114149528D01*
X107578254Y-114098992D01*
X107405000Y-114081928D01*
X105955000Y-114081928D01*
X105825039Y-114094728D01*
X105825039Y-107513187D01*
X105833433Y-107427962D01*
X105799934Y-107087843D01*
X105700725Y-106760794D01*
X105656836Y-106678684D01*
X105539618Y-106459384D01*
X105322805Y-106195196D01*
X105256600Y-106140863D01*
X93055737Y-93940000D01*
X104936606Y-93940000D01*
X104970105Y-94280119D01*
X105069314Y-94607168D01*
X105230421Y-94908578D01*
X105447234Y-95172766D01*
X105468234Y-95190000D01*
X105447234Y-95207234D01*
X105230421Y-95471422D01*
X105069314Y-95772832D01*
X104970105Y-96099881D01*
X104936606Y-96440000D01*
X104970105Y-96780119D01*
X105069314Y-97107168D01*
X105230421Y-97408578D01*
X105447234Y-97672766D01*
X105468234Y-97690000D01*
X105447234Y-97707234D01*
X105230421Y-97971422D01*
X105069314Y-98272832D01*
X104970105Y-98599881D01*
X104936606Y-98940000D01*
X104970105Y-99280119D01*
X105069314Y-99607168D01*
X105230421Y-99908578D01*
X105447234Y-100172766D01*
X105468234Y-100190000D01*
X105447234Y-100207234D01*
X105230421Y-100471422D01*
X105069314Y-100772832D01*
X104970105Y-101099881D01*
X104936606Y-101440000D01*
X104970105Y-101780119D01*
X105069314Y-102107168D01*
X105230421Y-102408578D01*
X105447234Y-102672766D01*
X105468234Y-102690000D01*
X105447234Y-102707234D01*
X105230421Y-102971422D01*
X105069314Y-103272832D01*
X104970105Y-103599881D01*
X104936606Y-103940000D01*
X104970105Y-104280119D01*
X105069314Y-104607168D01*
X105230421Y-104908578D01*
X105447234Y-105172766D01*
X105711422Y-105389579D01*
X106012832Y-105550686D01*
X106339881Y-105649895D01*
X106594775Y-105675000D01*
X170265225Y-105675000D01*
X170520119Y-105649895D01*
X170847168Y-105550686D01*
X171148578Y-105389579D01*
X171412766Y-105172766D01*
X171629579Y-104908578D01*
X171790686Y-104607168D01*
X171889895Y-104280119D01*
X171923394Y-103940000D01*
X171889895Y-103599881D01*
X171790686Y-103272832D01*
X171629579Y-102971422D01*
X171412766Y-102707234D01*
X171391766Y-102690000D01*
X171412766Y-102672766D01*
X171629579Y-102408578D01*
X171790686Y-102107168D01*
X171889895Y-101780119D01*
X171923394Y-101440000D01*
X171889895Y-101099881D01*
X171790686Y-100772832D01*
X171629579Y-100471422D01*
X171412766Y-100207234D01*
X171391766Y-100190000D01*
X171412766Y-100172766D01*
X171629579Y-99908578D01*
X171790686Y-99607168D01*
X171889895Y-99280119D01*
X171923394Y-98940000D01*
X171889895Y-98599881D01*
X171790686Y-98272832D01*
X171629579Y-97971422D01*
X171412766Y-97707234D01*
X171391766Y-97690000D01*
X171412766Y-97672766D01*
X171629579Y-97408578D01*
X171790686Y-97107168D01*
X171889895Y-96780119D01*
X171923394Y-96440000D01*
X171889895Y-96099881D01*
X171790686Y-95772832D01*
X171629579Y-95471422D01*
X171412766Y-95207234D01*
X171391766Y-95190000D01*
X171412766Y-95172766D01*
X171629579Y-94908578D01*
X171790686Y-94607168D01*
X171889895Y-94280119D01*
X171923394Y-93940000D01*
X171889895Y-93599881D01*
X171790686Y-93272832D01*
X171629579Y-92971422D01*
X171441881Y-92742710D01*
X171532962Y-92667962D01*
X171643405Y-92533386D01*
X171725472Y-92379850D01*
X171776008Y-92213254D01*
X171793072Y-92040000D01*
X171793072Y-90840000D01*
X171776008Y-90666746D01*
X171725472Y-90500150D01*
X171643405Y-90346614D01*
X171532962Y-90212038D01*
X171398386Y-90101595D01*
X171244850Y-90019528D01*
X171078254Y-89968992D01*
X170905000Y-89951928D01*
X169455000Y-89951928D01*
X169281746Y-89968992D01*
X169115150Y-90019528D01*
X168961614Y-90101595D01*
X168827038Y-90212038D01*
X168716595Y-90346614D01*
X168634528Y-90500150D01*
X168583992Y-90666746D01*
X168566928Y-90840000D01*
X168566928Y-92040000D01*
X168583179Y-92205000D01*
X159076821Y-92205000D01*
X159093072Y-92040000D01*
X159093072Y-90840000D01*
X159076008Y-90666746D01*
X159025472Y-90500150D01*
X158943405Y-90346614D01*
X158832962Y-90212038D01*
X158698386Y-90101595D01*
X158544850Y-90019528D01*
X158378254Y-89968992D01*
X158205000Y-89951928D01*
X156755000Y-89951928D01*
X156581746Y-89968992D01*
X156415150Y-90019528D01*
X156261614Y-90101595D01*
X156127038Y-90212038D01*
X156016595Y-90346614D01*
X155934528Y-90500150D01*
X155883992Y-90666746D01*
X155866928Y-90840000D01*
X155866928Y-92040000D01*
X155883179Y-92205000D01*
X146376821Y-92205000D01*
X146393072Y-92040000D01*
X146393072Y-90840000D01*
X146376008Y-90666746D01*
X146325472Y-90500150D01*
X146243405Y-90346614D01*
X146132962Y-90212038D01*
X145998386Y-90101595D01*
X145844850Y-90019528D01*
X145678254Y-89968992D01*
X145505000Y-89951928D01*
X144055000Y-89951928D01*
X143881746Y-89968992D01*
X143715150Y-90019528D01*
X143561614Y-90101595D01*
X143427038Y-90212038D01*
X143316595Y-90346614D01*
X143234528Y-90500150D01*
X143183992Y-90666746D01*
X143166928Y-90840000D01*
X143166928Y-92040000D01*
X143183179Y-92205000D01*
X133676821Y-92205000D01*
X133693072Y-92040000D01*
X133693072Y-90840000D01*
X133676008Y-90666746D01*
X133625472Y-90500150D01*
X133543405Y-90346614D01*
X133432962Y-90212038D01*
X133298386Y-90101595D01*
X133144850Y-90019528D01*
X132978254Y-89968992D01*
X132805000Y-89951928D01*
X131355000Y-89951928D01*
X131181746Y-89968992D01*
X131015150Y-90019528D01*
X130861614Y-90101595D01*
X130727038Y-90212038D01*
X130616595Y-90346614D01*
X130534528Y-90500150D01*
X130483992Y-90666746D01*
X130466928Y-90840000D01*
X130466928Y-92040000D01*
X130483179Y-92205000D01*
X120976821Y-92205000D01*
X120993072Y-92040000D01*
X120993072Y-90840000D01*
X120976008Y-90666746D01*
X120925472Y-90500150D01*
X120843405Y-90346614D01*
X120732962Y-90212038D01*
X120598386Y-90101595D01*
X120444850Y-90019528D01*
X120278254Y-89968992D01*
X120105000Y-89951928D01*
X118655000Y-89951928D01*
X118481746Y-89968992D01*
X118315150Y-90019528D01*
X118161614Y-90101595D01*
X118027038Y-90212038D01*
X117916595Y-90346614D01*
X117834528Y-90500150D01*
X117783992Y-90666746D01*
X117766928Y-90840000D01*
X117766928Y-92040000D01*
X117783179Y-92205000D01*
X108276821Y-92205000D01*
X108293072Y-92040000D01*
X108293072Y-90840000D01*
X108276008Y-90666746D01*
X108225472Y-90500150D01*
X108143405Y-90346614D01*
X108032962Y-90212038D01*
X107898386Y-90101595D01*
X107744850Y-90019528D01*
X107578254Y-89968992D01*
X107405000Y-89951928D01*
X105955000Y-89951928D01*
X105781746Y-89968992D01*
X105615150Y-90019528D01*
X105461614Y-90101595D01*
X105327038Y-90212038D01*
X105216595Y-90346614D01*
X105134528Y-90500150D01*
X105083992Y-90666746D01*
X105066928Y-90840000D01*
X105066928Y-92040000D01*
X105083992Y-92213254D01*
X105134528Y-92379850D01*
X105216595Y-92533386D01*
X105327038Y-92667962D01*
X105418119Y-92742710D01*
X105230421Y-92971422D01*
X105069314Y-93272832D01*
X104970105Y-93599881D01*
X104936606Y-93940000D01*
X93055737Y-93940000D01*
X91889176Y-92773439D01*
X91834843Y-92707234D01*
X91570655Y-92490421D01*
X91269245Y-92329314D01*
X90942196Y-92230105D01*
X90687302Y-92205000D01*
X90602077Y-92196606D01*
X90516852Y-92205000D01*
X87956821Y-92205000D01*
X87973072Y-92040000D01*
X87973072Y-90840000D01*
X87956008Y-90666746D01*
X87905472Y-90500150D01*
X87823405Y-90346614D01*
X87712962Y-90212038D01*
X87578386Y-90101595D01*
X87424850Y-90019528D01*
X87258254Y-89968992D01*
X87085000Y-89951928D01*
X85635000Y-89951928D01*
X85461746Y-89968992D01*
X85295150Y-90019528D01*
X85141614Y-90101595D01*
X85007038Y-90212038D01*
X84896595Y-90346614D01*
X84814528Y-90500150D01*
X84763992Y-90666746D01*
X84746928Y-90840000D01*
X84746928Y-92040000D01*
X84763992Y-92213254D01*
X84814528Y-92379850D01*
X84896595Y-92533386D01*
X85007038Y-92667962D01*
X85098119Y-92742710D01*
X84910421Y-92971422D01*
X84749314Y-93272832D01*
X84650105Y-93599881D01*
X84616606Y-93940000D01*
X76885000Y-93940000D01*
X76885000Y-87045000D01*
X175845000Y-87045000D01*
X175845001Y-135205000D01*
%TA.AperFunction,Conductor*%
D16*
G36*
X175845001Y-135205000D02*
G01*
X76885000Y-135205000D01*
X76885000Y-128598514D01*
X85105000Y-128598514D01*
X85105000Y-128861486D01*
X85156304Y-129119405D01*
X85256939Y-129362359D01*
X85403038Y-129581013D01*
X85588987Y-129766962D01*
X85807641Y-129913061D01*
X86050595Y-130013696D01*
X86308514Y-130065000D01*
X86571486Y-130065000D01*
X86829405Y-130013696D01*
X87072359Y-129913061D01*
X87291013Y-129766962D01*
X87476962Y-129581013D01*
X87623061Y-129362359D01*
X87723696Y-129119405D01*
X87775000Y-128861486D01*
X87775000Y-128598514D01*
X87723696Y-128340595D01*
X87623061Y-128097641D01*
X87476962Y-127878987D01*
X87291013Y-127693038D01*
X87072359Y-127546939D01*
X86829405Y-127446304D01*
X86571486Y-127395000D01*
X86308514Y-127395000D01*
X86050595Y-127446304D01*
X85807641Y-127546939D01*
X85588987Y-127693038D01*
X85403038Y-127878987D01*
X85256939Y-128097641D01*
X85156304Y-128340595D01*
X85105000Y-128598514D01*
X76885000Y-128598514D01*
X76885000Y-117598514D01*
X85105000Y-117598514D01*
X85105000Y-117861486D01*
X85156304Y-118119405D01*
X85256939Y-118362359D01*
X85403038Y-118581013D01*
X85588987Y-118766962D01*
X85807641Y-118913061D01*
X86050595Y-119013696D01*
X86308514Y-119065000D01*
X86571486Y-119065000D01*
X86829405Y-119013696D01*
X87072359Y-118913061D01*
X87291013Y-118766962D01*
X87476962Y-118581013D01*
X87623061Y-118362359D01*
X87723696Y-118119405D01*
X87775000Y-117861486D01*
X87775000Y-117598514D01*
X87723696Y-117340595D01*
X87623061Y-117097641D01*
X87476962Y-116878987D01*
X87291013Y-116693038D01*
X87072359Y-116546939D01*
X86829405Y-116446304D01*
X86571486Y-116395000D01*
X86308514Y-116395000D01*
X86050595Y-116446304D01*
X85807641Y-116546939D01*
X85588987Y-116693038D01*
X85403038Y-116878987D01*
X85256939Y-117097641D01*
X85156304Y-117340595D01*
X85105000Y-117598514D01*
X76885000Y-117598514D01*
X76885000Y-93940000D01*
X84616606Y-93940000D01*
X84650105Y-94280119D01*
X84749314Y-94607168D01*
X84910421Y-94908578D01*
X85127234Y-95172766D01*
X85148234Y-95190000D01*
X85127234Y-95207234D01*
X84910421Y-95471422D01*
X84749314Y-95772832D01*
X84650105Y-96099881D01*
X84616606Y-96440000D01*
X84650105Y-96780119D01*
X84749314Y-97107168D01*
X84910421Y-97408578D01*
X85127234Y-97672766D01*
X85148234Y-97690000D01*
X85127234Y-97707234D01*
X84910421Y-97971422D01*
X84749314Y-98272832D01*
X84650105Y-98599881D01*
X84616606Y-98940000D01*
X84650105Y-99280119D01*
X84749314Y-99607168D01*
X84910421Y-99908578D01*
X85127234Y-100172766D01*
X85148234Y-100190000D01*
X85127234Y-100207234D01*
X84910421Y-100471422D01*
X84749314Y-100772832D01*
X84650105Y-101099881D01*
X84616606Y-101440000D01*
X84650105Y-101780119D01*
X84749314Y-102107168D01*
X84910421Y-102408578D01*
X85127234Y-102672766D01*
X85148234Y-102690000D01*
X85127234Y-102707234D01*
X84910421Y-102971422D01*
X84749314Y-103272832D01*
X84650105Y-103599881D01*
X84616606Y-103940000D01*
X84650105Y-104280119D01*
X84749314Y-104607168D01*
X84910421Y-104908578D01*
X85127234Y-105172766D01*
X85391422Y-105389579D01*
X85692832Y-105550686D01*
X86019881Y-105649895D01*
X86274775Y-105675000D01*
X86306913Y-105675000D01*
X92755002Y-112123090D01*
X92755001Y-118740241D01*
X92569721Y-118616440D01*
X92135679Y-118436654D01*
X91674902Y-118345000D01*
X91205098Y-118345000D01*
X90744321Y-118436654D01*
X90310279Y-118616440D01*
X89919651Y-118877450D01*
X89587450Y-119209651D01*
X89326440Y-119600279D01*
X89146654Y-120034321D01*
X89055000Y-120495098D01*
X89055000Y-120964902D01*
X89146654Y-121425679D01*
X89326440Y-121859721D01*
X89587450Y-122250349D01*
X89919651Y-122582550D01*
X90310279Y-122843560D01*
X90744321Y-123023346D01*
X91205098Y-123115000D01*
X91674902Y-123115000D01*
X92135679Y-123023346D01*
X92569721Y-122843560D01*
X92960349Y-122582550D01*
X93292550Y-122250349D01*
X93501068Y-121938280D01*
X100799354Y-129236567D01*
X100853682Y-129302766D01*
X101117870Y-129519579D01*
X101419280Y-129680686D01*
X101746329Y-129779895D01*
X102001223Y-129805000D01*
X102001224Y-129805000D01*
X102086447Y-129813394D01*
X102171670Y-129805000D01*
X170265225Y-129805000D01*
X170520119Y-129779895D01*
X170847168Y-129680686D01*
X171148578Y-129519579D01*
X171412766Y-129302766D01*
X171629579Y-129038578D01*
X171790686Y-128737168D01*
X171889895Y-128410119D01*
X171923394Y-128070000D01*
X171889895Y-127729881D01*
X171790686Y-127402832D01*
X171629579Y-127101422D01*
X171412766Y-126837234D01*
X171391766Y-126820000D01*
X171412766Y-126802766D01*
X171629579Y-126538578D01*
X171790686Y-126237168D01*
X171889895Y-125910119D01*
X171923394Y-125570000D01*
X171889895Y-125229881D01*
X171790686Y-124902832D01*
X171629579Y-124601422D01*
X171412766Y-124337234D01*
X171391766Y-124320000D01*
X171412766Y-124302766D01*
X171629579Y-124038578D01*
X171790686Y-123737168D01*
X171889895Y-123410119D01*
X171923394Y-123070000D01*
X171889895Y-122729881D01*
X171790686Y-122402832D01*
X171629579Y-122101422D01*
X171412766Y-121837234D01*
X171391766Y-121820000D01*
X171412766Y-121802766D01*
X171629579Y-121538578D01*
X171790686Y-121237168D01*
X171889895Y-120910119D01*
X171923394Y-120570000D01*
X171889895Y-120229881D01*
X171790686Y-119902832D01*
X171629579Y-119601422D01*
X171412766Y-119337234D01*
X171391766Y-119320000D01*
X171412766Y-119302766D01*
X171629579Y-119038578D01*
X171790686Y-118737168D01*
X171889895Y-118410119D01*
X171923394Y-118070000D01*
X171889895Y-117729881D01*
X171790686Y-117402832D01*
X171629579Y-117101422D01*
X171441881Y-116872710D01*
X171532962Y-116797962D01*
X171643405Y-116663386D01*
X171725472Y-116509850D01*
X171776008Y-116343254D01*
X171793072Y-116170000D01*
X171793072Y-114970000D01*
X171776008Y-114796746D01*
X171725472Y-114630150D01*
X171643405Y-114476614D01*
X171532962Y-114342038D01*
X171398386Y-114231595D01*
X171244850Y-114149528D01*
X171078254Y-114098992D01*
X170905000Y-114081928D01*
X169455000Y-114081928D01*
X169281746Y-114098992D01*
X169115150Y-114149528D01*
X168961614Y-114231595D01*
X168827038Y-114342038D01*
X168716595Y-114476614D01*
X168634528Y-114630150D01*
X168583992Y-114796746D01*
X168566928Y-114970000D01*
X168566928Y-116170000D01*
X168583179Y-116335000D01*
X159076821Y-116335000D01*
X159093072Y-116170000D01*
X159093072Y-114970000D01*
X159076008Y-114796746D01*
X159025472Y-114630150D01*
X158943405Y-114476614D01*
X158832962Y-114342038D01*
X158698386Y-114231595D01*
X158544850Y-114149528D01*
X158378254Y-114098992D01*
X158205000Y-114081928D01*
X156755000Y-114081928D01*
X156581746Y-114098992D01*
X156415150Y-114149528D01*
X156261614Y-114231595D01*
X156127038Y-114342038D01*
X156016595Y-114476614D01*
X155934528Y-114630150D01*
X155883992Y-114796746D01*
X155866928Y-114970000D01*
X155866928Y-116170000D01*
X155883179Y-116335000D01*
X146376821Y-116335000D01*
X146393072Y-116170000D01*
X146393072Y-114970000D01*
X146376008Y-114796746D01*
X146325472Y-114630150D01*
X146243405Y-114476614D01*
X146132962Y-114342038D01*
X145998386Y-114231595D01*
X145844850Y-114149528D01*
X145678254Y-114098992D01*
X145505000Y-114081928D01*
X144055000Y-114081928D01*
X143881746Y-114098992D01*
X143715150Y-114149528D01*
X143561614Y-114231595D01*
X143427038Y-114342038D01*
X143316595Y-114476614D01*
X143234528Y-114630150D01*
X143183992Y-114796746D01*
X143166928Y-114970000D01*
X143166928Y-116170000D01*
X143183179Y-116335000D01*
X133676821Y-116335000D01*
X133693072Y-116170000D01*
X133693072Y-114970000D01*
X133676008Y-114796746D01*
X133625472Y-114630150D01*
X133543405Y-114476614D01*
X133432962Y-114342038D01*
X133298386Y-114231595D01*
X133144850Y-114149528D01*
X132978254Y-114098992D01*
X132805000Y-114081928D01*
X131355000Y-114081928D01*
X131181746Y-114098992D01*
X131015150Y-114149528D01*
X130861614Y-114231595D01*
X130727038Y-114342038D01*
X130616595Y-114476614D01*
X130534528Y-114630150D01*
X130483992Y-114796746D01*
X130466928Y-114970000D01*
X130466928Y-116170000D01*
X130483179Y-116335000D01*
X120976821Y-116335000D01*
X120993072Y-116170000D01*
X120993072Y-114970000D01*
X120976008Y-114796746D01*
X120925472Y-114630150D01*
X120843405Y-114476614D01*
X120732962Y-114342038D01*
X120598386Y-114231595D01*
X120444850Y-114149528D01*
X120278254Y-114098992D01*
X120105000Y-114081928D01*
X118655000Y-114081928D01*
X118481746Y-114098992D01*
X118315150Y-114149528D01*
X118161614Y-114231595D01*
X118027038Y-114342038D01*
X117916595Y-114476614D01*
X117834528Y-114630150D01*
X117783992Y-114796746D01*
X117766928Y-114970000D01*
X117766928Y-116170000D01*
X117783179Y-116335000D01*
X108276821Y-116335000D01*
X108293072Y-116170000D01*
X108293072Y-114970000D01*
X108276008Y-114796746D01*
X108225472Y-114630150D01*
X108143405Y-114476614D01*
X108032962Y-114342038D01*
X107898386Y-114231595D01*
X107744850Y-114149528D01*
X107578254Y-114098992D01*
X107405000Y-114081928D01*
X105955000Y-114081928D01*
X105825039Y-114094728D01*
X105825039Y-107513187D01*
X105833433Y-107427962D01*
X105799934Y-107087843D01*
X105700725Y-106760794D01*
X105656836Y-106678684D01*
X105539618Y-106459384D01*
X105322805Y-106195196D01*
X105256600Y-106140863D01*
X93055737Y-93940000D01*
X104936606Y-93940000D01*
X104970105Y-94280119D01*
X105069314Y-94607168D01*
X105230421Y-94908578D01*
X105447234Y-95172766D01*
X105468234Y-95190000D01*
X105447234Y-95207234D01*
X105230421Y-95471422D01*
X105069314Y-95772832D01*
X104970105Y-96099881D01*
X104936606Y-96440000D01*
X104970105Y-96780119D01*
X105069314Y-97107168D01*
X105230421Y-97408578D01*
X105447234Y-97672766D01*
X105468234Y-97690000D01*
X105447234Y-97707234D01*
X105230421Y-97971422D01*
X105069314Y-98272832D01*
X104970105Y-98599881D01*
X104936606Y-98940000D01*
X104970105Y-99280119D01*
X105069314Y-99607168D01*
X105230421Y-99908578D01*
X105447234Y-100172766D01*
X105468234Y-100190000D01*
X105447234Y-100207234D01*
X105230421Y-100471422D01*
X105069314Y-100772832D01*
X104970105Y-101099881D01*
X104936606Y-101440000D01*
X104970105Y-101780119D01*
X105069314Y-102107168D01*
X105230421Y-102408578D01*
X105447234Y-102672766D01*
X105468234Y-102690000D01*
X105447234Y-102707234D01*
X105230421Y-102971422D01*
X105069314Y-103272832D01*
X104970105Y-103599881D01*
X104936606Y-103940000D01*
X104970105Y-104280119D01*
X105069314Y-104607168D01*
X105230421Y-104908578D01*
X105447234Y-105172766D01*
X105711422Y-105389579D01*
X106012832Y-105550686D01*
X106339881Y-105649895D01*
X106594775Y-105675000D01*
X170265225Y-105675000D01*
X170520119Y-105649895D01*
X170847168Y-105550686D01*
X171148578Y-105389579D01*
X171412766Y-105172766D01*
X171629579Y-104908578D01*
X171790686Y-104607168D01*
X171889895Y-104280119D01*
X171923394Y-103940000D01*
X171889895Y-103599881D01*
X171790686Y-103272832D01*
X171629579Y-102971422D01*
X171412766Y-102707234D01*
X171391766Y-102690000D01*
X171412766Y-102672766D01*
X171629579Y-102408578D01*
X171790686Y-102107168D01*
X171889895Y-101780119D01*
X171923394Y-101440000D01*
X171889895Y-101099881D01*
X171790686Y-100772832D01*
X171629579Y-100471422D01*
X171412766Y-100207234D01*
X171391766Y-100190000D01*
X171412766Y-100172766D01*
X171629579Y-99908578D01*
X171790686Y-99607168D01*
X171889895Y-99280119D01*
X171923394Y-98940000D01*
X171889895Y-98599881D01*
X171790686Y-98272832D01*
X171629579Y-97971422D01*
X171412766Y-97707234D01*
X171391766Y-97690000D01*
X171412766Y-97672766D01*
X171629579Y-97408578D01*
X171790686Y-97107168D01*
X171889895Y-96780119D01*
X171923394Y-96440000D01*
X171889895Y-96099881D01*
X171790686Y-95772832D01*
X171629579Y-95471422D01*
X171412766Y-95207234D01*
X171391766Y-95190000D01*
X171412766Y-95172766D01*
X171629579Y-94908578D01*
X171790686Y-94607168D01*
X171889895Y-94280119D01*
X171923394Y-93940000D01*
X171889895Y-93599881D01*
X171790686Y-93272832D01*
X171629579Y-92971422D01*
X171441881Y-92742710D01*
X171532962Y-92667962D01*
X171643405Y-92533386D01*
X171725472Y-92379850D01*
X171776008Y-92213254D01*
X171793072Y-92040000D01*
X171793072Y-90840000D01*
X171776008Y-90666746D01*
X171725472Y-90500150D01*
X171643405Y-90346614D01*
X171532962Y-90212038D01*
X171398386Y-90101595D01*
X171244850Y-90019528D01*
X171078254Y-89968992D01*
X170905000Y-89951928D01*
X169455000Y-89951928D01*
X169281746Y-89968992D01*
X169115150Y-90019528D01*
X168961614Y-90101595D01*
X168827038Y-90212038D01*
X168716595Y-90346614D01*
X168634528Y-90500150D01*
X168583992Y-90666746D01*
X168566928Y-90840000D01*
X168566928Y-92040000D01*
X168583179Y-92205000D01*
X159076821Y-92205000D01*
X159093072Y-92040000D01*
X159093072Y-90840000D01*
X159076008Y-90666746D01*
X159025472Y-90500150D01*
X158943405Y-90346614D01*
X158832962Y-90212038D01*
X158698386Y-90101595D01*
X158544850Y-90019528D01*
X158378254Y-89968992D01*
X158205000Y-89951928D01*
X156755000Y-89951928D01*
X156581746Y-89968992D01*
X156415150Y-90019528D01*
X156261614Y-90101595D01*
X156127038Y-90212038D01*
X156016595Y-90346614D01*
X155934528Y-90500150D01*
X155883992Y-90666746D01*
X155866928Y-90840000D01*
X155866928Y-92040000D01*
X155883179Y-92205000D01*
X146376821Y-92205000D01*
X146393072Y-92040000D01*
X146393072Y-90840000D01*
X146376008Y-90666746D01*
X146325472Y-90500150D01*
X146243405Y-90346614D01*
X146132962Y-90212038D01*
X145998386Y-90101595D01*
X145844850Y-90019528D01*
X145678254Y-89968992D01*
X145505000Y-89951928D01*
X144055000Y-89951928D01*
X143881746Y-89968992D01*
X143715150Y-90019528D01*
X143561614Y-90101595D01*
X143427038Y-90212038D01*
X143316595Y-90346614D01*
X143234528Y-90500150D01*
X143183992Y-90666746D01*
X143166928Y-90840000D01*
X143166928Y-92040000D01*
X143183179Y-92205000D01*
X133676821Y-92205000D01*
X133693072Y-92040000D01*
X133693072Y-90840000D01*
X133676008Y-90666746D01*
X133625472Y-90500150D01*
X133543405Y-90346614D01*
X133432962Y-90212038D01*
X133298386Y-90101595D01*
X133144850Y-90019528D01*
X132978254Y-89968992D01*
X132805000Y-89951928D01*
X131355000Y-89951928D01*
X131181746Y-89968992D01*
X131015150Y-90019528D01*
X130861614Y-90101595D01*
X130727038Y-90212038D01*
X130616595Y-90346614D01*
X130534528Y-90500150D01*
X130483992Y-90666746D01*
X130466928Y-90840000D01*
X130466928Y-92040000D01*
X130483179Y-92205000D01*
X120976821Y-92205000D01*
X120993072Y-92040000D01*
X120993072Y-90840000D01*
X120976008Y-90666746D01*
X120925472Y-90500150D01*
X120843405Y-90346614D01*
X120732962Y-90212038D01*
X120598386Y-90101595D01*
X120444850Y-90019528D01*
X120278254Y-89968992D01*
X120105000Y-89951928D01*
X118655000Y-89951928D01*
X118481746Y-89968992D01*
X118315150Y-90019528D01*
X118161614Y-90101595D01*
X118027038Y-90212038D01*
X117916595Y-90346614D01*
X117834528Y-90500150D01*
X117783992Y-90666746D01*
X117766928Y-90840000D01*
X117766928Y-92040000D01*
X117783179Y-92205000D01*
X108276821Y-92205000D01*
X108293072Y-92040000D01*
X108293072Y-90840000D01*
X108276008Y-90666746D01*
X108225472Y-90500150D01*
X108143405Y-90346614D01*
X108032962Y-90212038D01*
X107898386Y-90101595D01*
X107744850Y-90019528D01*
X107578254Y-89968992D01*
X107405000Y-89951928D01*
X105955000Y-89951928D01*
X105781746Y-89968992D01*
X105615150Y-90019528D01*
X105461614Y-90101595D01*
X105327038Y-90212038D01*
X105216595Y-90346614D01*
X105134528Y-90500150D01*
X105083992Y-90666746D01*
X105066928Y-90840000D01*
X105066928Y-92040000D01*
X105083992Y-92213254D01*
X105134528Y-92379850D01*
X105216595Y-92533386D01*
X105327038Y-92667962D01*
X105418119Y-92742710D01*
X105230421Y-92971422D01*
X105069314Y-93272832D01*
X104970105Y-93599881D01*
X104936606Y-93940000D01*
X93055737Y-93940000D01*
X91889176Y-92773439D01*
X91834843Y-92707234D01*
X91570655Y-92490421D01*
X91269245Y-92329314D01*
X90942196Y-92230105D01*
X90687302Y-92205000D01*
X90602077Y-92196606D01*
X90516852Y-92205000D01*
X87956821Y-92205000D01*
X87973072Y-92040000D01*
X87973072Y-90840000D01*
X87956008Y-90666746D01*
X87905472Y-90500150D01*
X87823405Y-90346614D01*
X87712962Y-90212038D01*
X87578386Y-90101595D01*
X87424850Y-90019528D01*
X87258254Y-89968992D01*
X87085000Y-89951928D01*
X85635000Y-89951928D01*
X85461746Y-89968992D01*
X85295150Y-90019528D01*
X85141614Y-90101595D01*
X85007038Y-90212038D01*
X84896595Y-90346614D01*
X84814528Y-90500150D01*
X84763992Y-90666746D01*
X84746928Y-90840000D01*
X84746928Y-92040000D01*
X84763992Y-92213254D01*
X84814528Y-92379850D01*
X84896595Y-92533386D01*
X85007038Y-92667962D01*
X85098119Y-92742710D01*
X84910421Y-92971422D01*
X84749314Y-93272832D01*
X84650105Y-93599881D01*
X84616606Y-93940000D01*
X76885000Y-93940000D01*
X76885000Y-87045000D01*
X175845000Y-87045000D01*
X175845001Y-135205000D01*
G37*
%TD.AperFunction*%
%TD*%
M02*
