%TF.GenerationSoftware,KiCad,Pcbnew,(5.1.9)-1*%
%TF.CreationDate,2021-11-23T19:46:46+00:00*%
%TF.ProjectId,6S parallel board,36532070-6172-4616-9c6c-656c20626f61,rev?*%
%TF.SameCoordinates,Original*%
%TF.FileFunction,Soldermask,Bot*%
%TF.FilePolarity,Negative*%
%FSLAX46Y46*%
G04 Gerber Fmt 4.6, Leading zero omitted, Abs format (unit mm)*
G04 Created by KiCad (PCBNEW (5.1.9)-1) date 2021-11-23 19:46:46*
%MOMM*%
%LPD*%
G01*
G04 APERTURE LIST*
%ADD10O,1.950000X1.700000*%
%ADD11C,1.400000*%
%ADD12R,3.500000X3.500000*%
%ADD13C,3.500000*%
G04 APERTURE END LIST*
D10*
%TO.C,J14*%
X170180000Y-130570000D03*
X170180000Y-128070000D03*
X170180000Y-125570000D03*
X170180000Y-123070000D03*
X170180000Y-120570000D03*
X170180000Y-118070000D03*
G36*
G01*
X169455000Y-114720000D02*
X170905000Y-114720000D01*
G75*
G02*
X171155000Y-114970000I0J-250000D01*
G01*
X171155000Y-116170000D01*
G75*
G02*
X170905000Y-116420000I-250000J0D01*
G01*
X169455000Y-116420000D01*
G75*
G02*
X169205000Y-116170000I0J250000D01*
G01*
X169205000Y-114970000D01*
G75*
G02*
X169455000Y-114720000I250000J0D01*
G01*
G37*
%TD*%
%TO.C,J13*%
X157480000Y-130570000D03*
X157480000Y-128070000D03*
X157480000Y-125570000D03*
X157480000Y-123070000D03*
X157480000Y-120570000D03*
X157480000Y-118070000D03*
G36*
G01*
X156755000Y-114720000D02*
X158205000Y-114720000D01*
G75*
G02*
X158455000Y-114970000I0J-250000D01*
G01*
X158455000Y-116170000D01*
G75*
G02*
X158205000Y-116420000I-250000J0D01*
G01*
X156755000Y-116420000D01*
G75*
G02*
X156505000Y-116170000I0J250000D01*
G01*
X156505000Y-114970000D01*
G75*
G02*
X156755000Y-114720000I250000J0D01*
G01*
G37*
%TD*%
%TO.C,J12*%
X144780000Y-130570000D03*
X144780000Y-128070000D03*
X144780000Y-125570000D03*
X144780000Y-123070000D03*
X144780000Y-120570000D03*
X144780000Y-118070000D03*
G36*
G01*
X144055000Y-114720000D02*
X145505000Y-114720000D01*
G75*
G02*
X145755000Y-114970000I0J-250000D01*
G01*
X145755000Y-116170000D01*
G75*
G02*
X145505000Y-116420000I-250000J0D01*
G01*
X144055000Y-116420000D01*
G75*
G02*
X143805000Y-116170000I0J250000D01*
G01*
X143805000Y-114970000D01*
G75*
G02*
X144055000Y-114720000I250000J0D01*
G01*
G37*
%TD*%
%TO.C,J11*%
X132080000Y-130570000D03*
X132080000Y-128070000D03*
X132080000Y-125570000D03*
X132080000Y-123070000D03*
X132080000Y-120570000D03*
X132080000Y-118070000D03*
G36*
G01*
X131355000Y-114720000D02*
X132805000Y-114720000D01*
G75*
G02*
X133055000Y-114970000I0J-250000D01*
G01*
X133055000Y-116170000D01*
G75*
G02*
X132805000Y-116420000I-250000J0D01*
G01*
X131355000Y-116420000D01*
G75*
G02*
X131105000Y-116170000I0J250000D01*
G01*
X131105000Y-114970000D01*
G75*
G02*
X131355000Y-114720000I250000J0D01*
G01*
G37*
%TD*%
%TO.C,J10*%
X119380000Y-130570000D03*
X119380000Y-128070000D03*
X119380000Y-125570000D03*
X119380000Y-123070000D03*
X119380000Y-120570000D03*
X119380000Y-118070000D03*
G36*
G01*
X118655000Y-114720000D02*
X120105000Y-114720000D01*
G75*
G02*
X120355000Y-114970000I0J-250000D01*
G01*
X120355000Y-116170000D01*
G75*
G02*
X120105000Y-116420000I-250000J0D01*
G01*
X118655000Y-116420000D01*
G75*
G02*
X118405000Y-116170000I0J250000D01*
G01*
X118405000Y-114970000D01*
G75*
G02*
X118655000Y-114720000I250000J0D01*
G01*
G37*
%TD*%
%TO.C,J9*%
X106680000Y-130570000D03*
X106680000Y-128070000D03*
X106680000Y-125570000D03*
X106680000Y-123070000D03*
X106680000Y-120570000D03*
X106680000Y-118070000D03*
G36*
G01*
X105955000Y-114720000D02*
X107405000Y-114720000D01*
G75*
G02*
X107655000Y-114970000I0J-250000D01*
G01*
X107655000Y-116170000D01*
G75*
G02*
X107405000Y-116420000I-250000J0D01*
G01*
X105955000Y-116420000D01*
G75*
G02*
X105705000Y-116170000I0J250000D01*
G01*
X105705000Y-114970000D01*
G75*
G02*
X105955000Y-114720000I250000J0D01*
G01*
G37*
%TD*%
%TO.C,J8*%
X170180000Y-106440000D03*
X170180000Y-103940000D03*
X170180000Y-101440000D03*
X170180000Y-98940000D03*
X170180000Y-96440000D03*
X170180000Y-93940000D03*
G36*
G01*
X169455000Y-90590000D02*
X170905000Y-90590000D01*
G75*
G02*
X171155000Y-90840000I0J-250000D01*
G01*
X171155000Y-92040000D01*
G75*
G02*
X170905000Y-92290000I-250000J0D01*
G01*
X169455000Y-92290000D01*
G75*
G02*
X169205000Y-92040000I0J250000D01*
G01*
X169205000Y-90840000D01*
G75*
G02*
X169455000Y-90590000I250000J0D01*
G01*
G37*
%TD*%
%TO.C,J7*%
X157480000Y-106440000D03*
X157480000Y-103940000D03*
X157480000Y-101440000D03*
X157480000Y-98940000D03*
X157480000Y-96440000D03*
X157480000Y-93940000D03*
G36*
G01*
X156755000Y-90590000D02*
X158205000Y-90590000D01*
G75*
G02*
X158455000Y-90840000I0J-250000D01*
G01*
X158455000Y-92040000D01*
G75*
G02*
X158205000Y-92290000I-250000J0D01*
G01*
X156755000Y-92290000D01*
G75*
G02*
X156505000Y-92040000I0J250000D01*
G01*
X156505000Y-90840000D01*
G75*
G02*
X156755000Y-90590000I250000J0D01*
G01*
G37*
%TD*%
%TO.C,J6*%
X144780000Y-106440000D03*
X144780000Y-103940000D03*
X144780000Y-101440000D03*
X144780000Y-98940000D03*
X144780000Y-96440000D03*
X144780000Y-93940000D03*
G36*
G01*
X144055000Y-90590000D02*
X145505000Y-90590000D01*
G75*
G02*
X145755000Y-90840000I0J-250000D01*
G01*
X145755000Y-92040000D01*
G75*
G02*
X145505000Y-92290000I-250000J0D01*
G01*
X144055000Y-92290000D01*
G75*
G02*
X143805000Y-92040000I0J250000D01*
G01*
X143805000Y-90840000D01*
G75*
G02*
X144055000Y-90590000I250000J0D01*
G01*
G37*
%TD*%
%TO.C,J5*%
X132080000Y-106440000D03*
X132080000Y-103940000D03*
X132080000Y-101440000D03*
X132080000Y-98940000D03*
X132080000Y-96440000D03*
X132080000Y-93940000D03*
G36*
G01*
X131355000Y-90590000D02*
X132805000Y-90590000D01*
G75*
G02*
X133055000Y-90840000I0J-250000D01*
G01*
X133055000Y-92040000D01*
G75*
G02*
X132805000Y-92290000I-250000J0D01*
G01*
X131355000Y-92290000D01*
G75*
G02*
X131105000Y-92040000I0J250000D01*
G01*
X131105000Y-90840000D01*
G75*
G02*
X131355000Y-90590000I250000J0D01*
G01*
G37*
%TD*%
%TO.C,J4*%
X119380000Y-106440000D03*
X119380000Y-103940000D03*
X119380000Y-101440000D03*
X119380000Y-98940000D03*
X119380000Y-96440000D03*
X119380000Y-93940000D03*
G36*
G01*
X118655000Y-90590000D02*
X120105000Y-90590000D01*
G75*
G02*
X120355000Y-90840000I0J-250000D01*
G01*
X120355000Y-92040000D01*
G75*
G02*
X120105000Y-92290000I-250000J0D01*
G01*
X118655000Y-92290000D01*
G75*
G02*
X118405000Y-92040000I0J250000D01*
G01*
X118405000Y-90840000D01*
G75*
G02*
X118655000Y-90590000I250000J0D01*
G01*
G37*
%TD*%
%TO.C,J3*%
X106680000Y-106440000D03*
X106680000Y-103940000D03*
X106680000Y-101440000D03*
X106680000Y-98940000D03*
X106680000Y-96440000D03*
X106680000Y-93940000D03*
G36*
G01*
X105955000Y-90590000D02*
X107405000Y-90590000D01*
G75*
G02*
X107655000Y-90840000I0J-250000D01*
G01*
X107655000Y-92040000D01*
G75*
G02*
X107405000Y-92290000I-250000J0D01*
G01*
X105955000Y-92290000D01*
G75*
G02*
X105705000Y-92040000I0J250000D01*
G01*
X105705000Y-90840000D01*
G75*
G02*
X105955000Y-90590000I250000J0D01*
G01*
G37*
%TD*%
%TO.C,J2*%
X86360000Y-106440000D03*
X86360000Y-103940000D03*
X86360000Y-101440000D03*
X86360000Y-98940000D03*
X86360000Y-96440000D03*
X86360000Y-93940000D03*
G36*
G01*
X85635000Y-90590000D02*
X87085000Y-90590000D01*
G75*
G02*
X87335000Y-90840000I0J-250000D01*
G01*
X87335000Y-92040000D01*
G75*
G02*
X87085000Y-92290000I-250000J0D01*
G01*
X85635000Y-92290000D01*
G75*
G02*
X85385000Y-92040000I0J250000D01*
G01*
X85385000Y-90840000D01*
G75*
G02*
X85635000Y-90590000I250000J0D01*
G01*
G37*
%TD*%
D11*
%TO.C,J1*%
X86440000Y-128730000D03*
X86440000Y-117730000D03*
D12*
X91440000Y-125730000D03*
D13*
X91440000Y-120730000D03*
%TD*%
M02*
