%TF.GenerationSoftware,KiCad,Pcbnew,(5.1.9)-1*%
%TF.CreationDate,2021-11-23T19:46:46+00:00*%
%TF.ProjectId,6S parallel board,36532070-6172-4616-9c6c-656c20626f61,rev?*%
%TF.SameCoordinates,Original*%
%TF.FileFunction,Copper,L1,Top*%
%TF.FilePolarity,Positive*%
%FSLAX46Y46*%
G04 Gerber Fmt 4.6, Leading zero omitted, Abs format (unit mm)*
G04 Created by KiCad (PCBNEW (5.1.9)-1) date 2021-11-23 19:46:46*
%MOMM*%
%LPD*%
G01*
G04 APERTURE LIST*
%TA.AperFunction,ComponentPad*%
%ADD10O,1.950000X1.700000*%
%TD*%
%TA.AperFunction,ComponentPad*%
%ADD11C,1.400000*%
%TD*%
%TA.AperFunction,ComponentPad*%
%ADD12R,3.500000X3.500000*%
%TD*%
%TA.AperFunction,ComponentPad*%
%ADD13C,3.500000*%
%TD*%
%TA.AperFunction,Conductor*%
%ADD14C,2.200000*%
%TD*%
%TA.AperFunction,Conductor*%
%ADD15C,0.254000*%
%TD*%
%TA.AperFunction,Conductor*%
%ADD16C,0.100000*%
%TD*%
G04 APERTURE END LIST*
D10*
%TO.P,J14,7*%
%TO.N,GND*%
X170180000Y-130570000D03*
%TO.P,J14,6*%
%TO.N,/B6*%
X170180000Y-128070000D03*
%TO.P,J14,5*%
%TO.N,/B5*%
X170180000Y-125570000D03*
%TO.P,J14,4*%
%TO.N,/B4*%
X170180000Y-123070000D03*
%TO.P,J14,3*%
%TO.N,/B3*%
X170180000Y-120570000D03*
%TO.P,J14,2*%
%TO.N,/B2*%
X170180000Y-118070000D03*
%TO.P,J14,1*%
%TO.N,VCC*%
%TA.AperFunction,ComponentPad*%
G36*
G01*
X169455000Y-114720000D02*
X170905000Y-114720000D01*
G75*
G02*
X171155000Y-114970000I0J-250000D01*
G01*
X171155000Y-116170000D01*
G75*
G02*
X170905000Y-116420000I-250000J0D01*
G01*
X169455000Y-116420000D01*
G75*
G02*
X169205000Y-116170000I0J250000D01*
G01*
X169205000Y-114970000D01*
G75*
G02*
X169455000Y-114720000I250000J0D01*
G01*
G37*
%TD.AperFunction*%
%TD*%
%TO.P,J13,7*%
%TO.N,GND*%
X157480000Y-130570000D03*
%TO.P,J13,6*%
%TO.N,/B6*%
X157480000Y-128070000D03*
%TO.P,J13,5*%
%TO.N,/B5*%
X157480000Y-125570000D03*
%TO.P,J13,4*%
%TO.N,/B4*%
X157480000Y-123070000D03*
%TO.P,J13,3*%
%TO.N,/B3*%
X157480000Y-120570000D03*
%TO.P,J13,2*%
%TO.N,/B2*%
X157480000Y-118070000D03*
%TO.P,J13,1*%
%TO.N,VCC*%
%TA.AperFunction,ComponentPad*%
G36*
G01*
X156755000Y-114720000D02*
X158205000Y-114720000D01*
G75*
G02*
X158455000Y-114970000I0J-250000D01*
G01*
X158455000Y-116170000D01*
G75*
G02*
X158205000Y-116420000I-250000J0D01*
G01*
X156755000Y-116420000D01*
G75*
G02*
X156505000Y-116170000I0J250000D01*
G01*
X156505000Y-114970000D01*
G75*
G02*
X156755000Y-114720000I250000J0D01*
G01*
G37*
%TD.AperFunction*%
%TD*%
%TO.P,J12,7*%
%TO.N,GND*%
X144780000Y-130570000D03*
%TO.P,J12,6*%
%TO.N,/B6*%
X144780000Y-128070000D03*
%TO.P,J12,5*%
%TO.N,/B5*%
X144780000Y-125570000D03*
%TO.P,J12,4*%
%TO.N,/B4*%
X144780000Y-123070000D03*
%TO.P,J12,3*%
%TO.N,/B3*%
X144780000Y-120570000D03*
%TO.P,J12,2*%
%TO.N,/B2*%
X144780000Y-118070000D03*
%TO.P,J12,1*%
%TO.N,VCC*%
%TA.AperFunction,ComponentPad*%
G36*
G01*
X144055000Y-114720000D02*
X145505000Y-114720000D01*
G75*
G02*
X145755000Y-114970000I0J-250000D01*
G01*
X145755000Y-116170000D01*
G75*
G02*
X145505000Y-116420000I-250000J0D01*
G01*
X144055000Y-116420000D01*
G75*
G02*
X143805000Y-116170000I0J250000D01*
G01*
X143805000Y-114970000D01*
G75*
G02*
X144055000Y-114720000I250000J0D01*
G01*
G37*
%TD.AperFunction*%
%TD*%
%TO.P,J11,7*%
%TO.N,GND*%
X132080000Y-130570000D03*
%TO.P,J11,6*%
%TO.N,/B6*%
X132080000Y-128070000D03*
%TO.P,J11,5*%
%TO.N,/B5*%
X132080000Y-125570000D03*
%TO.P,J11,4*%
%TO.N,/B4*%
X132080000Y-123070000D03*
%TO.P,J11,3*%
%TO.N,/B3*%
X132080000Y-120570000D03*
%TO.P,J11,2*%
%TO.N,/B2*%
X132080000Y-118070000D03*
%TO.P,J11,1*%
%TO.N,VCC*%
%TA.AperFunction,ComponentPad*%
G36*
G01*
X131355000Y-114720000D02*
X132805000Y-114720000D01*
G75*
G02*
X133055000Y-114970000I0J-250000D01*
G01*
X133055000Y-116170000D01*
G75*
G02*
X132805000Y-116420000I-250000J0D01*
G01*
X131355000Y-116420000D01*
G75*
G02*
X131105000Y-116170000I0J250000D01*
G01*
X131105000Y-114970000D01*
G75*
G02*
X131355000Y-114720000I250000J0D01*
G01*
G37*
%TD.AperFunction*%
%TD*%
%TO.P,J10,7*%
%TO.N,GND*%
X119380000Y-130570000D03*
%TO.P,J10,6*%
%TO.N,/B6*%
X119380000Y-128070000D03*
%TO.P,J10,5*%
%TO.N,/B5*%
X119380000Y-125570000D03*
%TO.P,J10,4*%
%TO.N,/B4*%
X119380000Y-123070000D03*
%TO.P,J10,3*%
%TO.N,/B3*%
X119380000Y-120570000D03*
%TO.P,J10,2*%
%TO.N,/B2*%
X119380000Y-118070000D03*
%TO.P,J10,1*%
%TO.N,VCC*%
%TA.AperFunction,ComponentPad*%
G36*
G01*
X118655000Y-114720000D02*
X120105000Y-114720000D01*
G75*
G02*
X120355000Y-114970000I0J-250000D01*
G01*
X120355000Y-116170000D01*
G75*
G02*
X120105000Y-116420000I-250000J0D01*
G01*
X118655000Y-116420000D01*
G75*
G02*
X118405000Y-116170000I0J250000D01*
G01*
X118405000Y-114970000D01*
G75*
G02*
X118655000Y-114720000I250000J0D01*
G01*
G37*
%TD.AperFunction*%
%TD*%
%TO.P,J9,7*%
%TO.N,GND*%
X106680000Y-130570000D03*
%TO.P,J9,6*%
%TO.N,/B6*%
X106680000Y-128070000D03*
%TO.P,J9,5*%
%TO.N,/B5*%
X106680000Y-125570000D03*
%TO.P,J9,4*%
%TO.N,/B4*%
X106680000Y-123070000D03*
%TO.P,J9,3*%
%TO.N,/B3*%
X106680000Y-120570000D03*
%TO.P,J9,2*%
%TO.N,/B2*%
X106680000Y-118070000D03*
%TO.P,J9,1*%
%TO.N,VCC*%
%TA.AperFunction,ComponentPad*%
G36*
G01*
X105955000Y-114720000D02*
X107405000Y-114720000D01*
G75*
G02*
X107655000Y-114970000I0J-250000D01*
G01*
X107655000Y-116170000D01*
G75*
G02*
X107405000Y-116420000I-250000J0D01*
G01*
X105955000Y-116420000D01*
G75*
G02*
X105705000Y-116170000I0J250000D01*
G01*
X105705000Y-114970000D01*
G75*
G02*
X105955000Y-114720000I250000J0D01*
G01*
G37*
%TD.AperFunction*%
%TD*%
%TO.P,J8,7*%
%TO.N,GND*%
X170180000Y-106440000D03*
%TO.P,J8,6*%
%TO.N,/B6*%
X170180000Y-103940000D03*
%TO.P,J8,5*%
%TO.N,/B5*%
X170180000Y-101440000D03*
%TO.P,J8,4*%
%TO.N,/B4*%
X170180000Y-98940000D03*
%TO.P,J8,3*%
%TO.N,/B3*%
X170180000Y-96440000D03*
%TO.P,J8,2*%
%TO.N,/B2*%
X170180000Y-93940000D03*
%TO.P,J8,1*%
%TO.N,VCC*%
%TA.AperFunction,ComponentPad*%
G36*
G01*
X169455000Y-90590000D02*
X170905000Y-90590000D01*
G75*
G02*
X171155000Y-90840000I0J-250000D01*
G01*
X171155000Y-92040000D01*
G75*
G02*
X170905000Y-92290000I-250000J0D01*
G01*
X169455000Y-92290000D01*
G75*
G02*
X169205000Y-92040000I0J250000D01*
G01*
X169205000Y-90840000D01*
G75*
G02*
X169455000Y-90590000I250000J0D01*
G01*
G37*
%TD.AperFunction*%
%TD*%
%TO.P,J7,7*%
%TO.N,GND*%
X157480000Y-106440000D03*
%TO.P,J7,6*%
%TO.N,/B6*%
X157480000Y-103940000D03*
%TO.P,J7,5*%
%TO.N,/B5*%
X157480000Y-101440000D03*
%TO.P,J7,4*%
%TO.N,/B4*%
X157480000Y-98940000D03*
%TO.P,J7,3*%
%TO.N,/B3*%
X157480000Y-96440000D03*
%TO.P,J7,2*%
%TO.N,/B2*%
X157480000Y-93940000D03*
%TO.P,J7,1*%
%TO.N,VCC*%
%TA.AperFunction,ComponentPad*%
G36*
G01*
X156755000Y-90590000D02*
X158205000Y-90590000D01*
G75*
G02*
X158455000Y-90840000I0J-250000D01*
G01*
X158455000Y-92040000D01*
G75*
G02*
X158205000Y-92290000I-250000J0D01*
G01*
X156755000Y-92290000D01*
G75*
G02*
X156505000Y-92040000I0J250000D01*
G01*
X156505000Y-90840000D01*
G75*
G02*
X156755000Y-90590000I250000J0D01*
G01*
G37*
%TD.AperFunction*%
%TD*%
%TO.P,J6,7*%
%TO.N,GND*%
X144780000Y-106440000D03*
%TO.P,J6,6*%
%TO.N,/B6*%
X144780000Y-103940000D03*
%TO.P,J6,5*%
%TO.N,/B5*%
X144780000Y-101440000D03*
%TO.P,J6,4*%
%TO.N,/B4*%
X144780000Y-98940000D03*
%TO.P,J6,3*%
%TO.N,/B3*%
X144780000Y-96440000D03*
%TO.P,J6,2*%
%TO.N,/B2*%
X144780000Y-93940000D03*
%TO.P,J6,1*%
%TO.N,VCC*%
%TA.AperFunction,ComponentPad*%
G36*
G01*
X144055000Y-90590000D02*
X145505000Y-90590000D01*
G75*
G02*
X145755000Y-90840000I0J-250000D01*
G01*
X145755000Y-92040000D01*
G75*
G02*
X145505000Y-92290000I-250000J0D01*
G01*
X144055000Y-92290000D01*
G75*
G02*
X143805000Y-92040000I0J250000D01*
G01*
X143805000Y-90840000D01*
G75*
G02*
X144055000Y-90590000I250000J0D01*
G01*
G37*
%TD.AperFunction*%
%TD*%
%TO.P,J5,7*%
%TO.N,GND*%
X132080000Y-106440000D03*
%TO.P,J5,6*%
%TO.N,/B6*%
X132080000Y-103940000D03*
%TO.P,J5,5*%
%TO.N,/B5*%
X132080000Y-101440000D03*
%TO.P,J5,4*%
%TO.N,/B4*%
X132080000Y-98940000D03*
%TO.P,J5,3*%
%TO.N,/B3*%
X132080000Y-96440000D03*
%TO.P,J5,2*%
%TO.N,/B2*%
X132080000Y-93940000D03*
%TO.P,J5,1*%
%TO.N,VCC*%
%TA.AperFunction,ComponentPad*%
G36*
G01*
X131355000Y-90590000D02*
X132805000Y-90590000D01*
G75*
G02*
X133055000Y-90840000I0J-250000D01*
G01*
X133055000Y-92040000D01*
G75*
G02*
X132805000Y-92290000I-250000J0D01*
G01*
X131355000Y-92290000D01*
G75*
G02*
X131105000Y-92040000I0J250000D01*
G01*
X131105000Y-90840000D01*
G75*
G02*
X131355000Y-90590000I250000J0D01*
G01*
G37*
%TD.AperFunction*%
%TD*%
%TO.P,J4,7*%
%TO.N,GND*%
X119380000Y-106440000D03*
%TO.P,J4,6*%
%TO.N,/B6*%
X119380000Y-103940000D03*
%TO.P,J4,5*%
%TO.N,/B5*%
X119380000Y-101440000D03*
%TO.P,J4,4*%
%TO.N,/B4*%
X119380000Y-98940000D03*
%TO.P,J4,3*%
%TO.N,/B3*%
X119380000Y-96440000D03*
%TO.P,J4,2*%
%TO.N,/B2*%
X119380000Y-93940000D03*
%TO.P,J4,1*%
%TO.N,VCC*%
%TA.AperFunction,ComponentPad*%
G36*
G01*
X118655000Y-90590000D02*
X120105000Y-90590000D01*
G75*
G02*
X120355000Y-90840000I0J-250000D01*
G01*
X120355000Y-92040000D01*
G75*
G02*
X120105000Y-92290000I-250000J0D01*
G01*
X118655000Y-92290000D01*
G75*
G02*
X118405000Y-92040000I0J250000D01*
G01*
X118405000Y-90840000D01*
G75*
G02*
X118655000Y-90590000I250000J0D01*
G01*
G37*
%TD.AperFunction*%
%TD*%
%TO.P,J3,7*%
%TO.N,GND*%
X106680000Y-106440000D03*
%TO.P,J3,6*%
%TO.N,/B6*%
X106680000Y-103940000D03*
%TO.P,J3,5*%
%TO.N,/B5*%
X106680000Y-101440000D03*
%TO.P,J3,4*%
%TO.N,/B4*%
X106680000Y-98940000D03*
%TO.P,J3,3*%
%TO.N,/B3*%
X106680000Y-96440000D03*
%TO.P,J3,2*%
%TO.N,/B2*%
X106680000Y-93940000D03*
%TO.P,J3,1*%
%TO.N,VCC*%
%TA.AperFunction,ComponentPad*%
G36*
G01*
X105955000Y-90590000D02*
X107405000Y-90590000D01*
G75*
G02*
X107655000Y-90840000I0J-250000D01*
G01*
X107655000Y-92040000D01*
G75*
G02*
X107405000Y-92290000I-250000J0D01*
G01*
X105955000Y-92290000D01*
G75*
G02*
X105705000Y-92040000I0J250000D01*
G01*
X105705000Y-90840000D01*
G75*
G02*
X105955000Y-90590000I250000J0D01*
G01*
G37*
%TD.AperFunction*%
%TD*%
%TO.P,J2,7*%
%TO.N,GND*%
X86360000Y-106440000D03*
%TO.P,J2,6*%
%TO.N,/B6*%
X86360000Y-103940000D03*
%TO.P,J2,5*%
%TO.N,/B5*%
X86360000Y-101440000D03*
%TO.P,J2,4*%
%TO.N,/B4*%
X86360000Y-98940000D03*
%TO.P,J2,3*%
%TO.N,/B3*%
X86360000Y-96440000D03*
%TO.P,J2,2*%
%TO.N,/B2*%
X86360000Y-93940000D03*
%TO.P,J2,1*%
%TO.N,VCC*%
%TA.AperFunction,ComponentPad*%
G36*
G01*
X85635000Y-90590000D02*
X87085000Y-90590000D01*
G75*
G02*
X87335000Y-90840000I0J-250000D01*
G01*
X87335000Y-92040000D01*
G75*
G02*
X87085000Y-92290000I-250000J0D01*
G01*
X85635000Y-92290000D01*
G75*
G02*
X85385000Y-92040000I0J250000D01*
G01*
X85385000Y-90840000D01*
G75*
G02*
X85635000Y-90590000I250000J0D01*
G01*
G37*
%TD.AperFunction*%
%TD*%
D11*
%TO.P,J1,*%
%TO.N,*%
X86440000Y-128730000D03*
X86440000Y-117730000D03*
D12*
%TO.P,J1,1*%
%TO.N,GND*%
X91440000Y-125730000D03*
D13*
%TO.P,J1,2*%
%TO.N,VCC*%
X91440000Y-120730000D03*
%TD*%
D14*
%TO.N,/B4*%
X86360000Y-98940000D02*
X170180000Y-98940000D01*
X106680000Y-123070000D02*
X170180000Y-123070000D01*
%TO.N,/B3*%
X86360000Y-96440000D02*
X170180000Y-96440000D01*
X170180000Y-120570000D02*
X106680000Y-120570000D01*
%TO.N,/B2*%
X86360000Y-93940000D02*
X170180000Y-93940000D01*
X106680000Y-118070000D02*
X170180000Y-118070000D01*
%TO.N,/B6*%
X86360000Y-103940000D02*
X170180000Y-103940000D01*
X106680000Y-128070000D02*
X170180000Y-128070000D01*
%TO.N,/B5*%
X86360000Y-101440000D02*
X170180000Y-101440000D01*
X170180000Y-125570000D02*
X106680000Y-125570000D01*
%TD*%
D15*
%TO.N,VCC*%
X175845001Y-135205000D02*
X76885000Y-135205000D01*
X76885000Y-128598514D01*
X85105000Y-128598514D01*
X85105000Y-128861486D01*
X85156304Y-129119405D01*
X85256939Y-129362359D01*
X85403038Y-129581013D01*
X85588987Y-129766962D01*
X85807641Y-129913061D01*
X86050595Y-130013696D01*
X86308514Y-130065000D01*
X86571486Y-130065000D01*
X86829405Y-130013696D01*
X87072359Y-129913061D01*
X87291013Y-129766962D01*
X87476962Y-129581013D01*
X87623061Y-129362359D01*
X87723696Y-129119405D01*
X87775000Y-128861486D01*
X87775000Y-128598514D01*
X87723696Y-128340595D01*
X87623061Y-128097641D01*
X87476962Y-127878987D01*
X87291013Y-127693038D01*
X87072359Y-127546939D01*
X86829405Y-127446304D01*
X86571486Y-127395000D01*
X86308514Y-127395000D01*
X86050595Y-127446304D01*
X85807641Y-127546939D01*
X85588987Y-127693038D01*
X85403038Y-127878987D01*
X85256939Y-128097641D01*
X85156304Y-128340595D01*
X85105000Y-128598514D01*
X76885000Y-128598514D01*
X76885000Y-123980000D01*
X89051928Y-123980000D01*
X89051928Y-127480000D01*
X89064188Y-127604482D01*
X89100498Y-127724180D01*
X89159463Y-127834494D01*
X89238815Y-127931185D01*
X89335506Y-128010537D01*
X89445820Y-128069502D01*
X89565518Y-128105812D01*
X89690000Y-128118072D01*
X93190000Y-128118072D01*
X93314482Y-128105812D01*
X93434180Y-128069502D01*
X93544494Y-128010537D01*
X93641185Y-127931185D01*
X93720537Y-127834494D01*
X93779502Y-127724180D01*
X93815812Y-127604482D01*
X93828072Y-127480000D01*
X93828072Y-123980000D01*
X93815812Y-123855518D01*
X93779502Y-123735820D01*
X93720537Y-123625506D01*
X93641185Y-123528815D01*
X93544494Y-123449463D01*
X93434180Y-123390498D01*
X93314482Y-123354188D01*
X93190000Y-123341928D01*
X89690000Y-123341928D01*
X89565518Y-123354188D01*
X89445820Y-123390498D01*
X89335506Y-123449463D01*
X89238815Y-123528815D01*
X89159463Y-123625506D01*
X89100498Y-123735820D01*
X89064188Y-123855518D01*
X89051928Y-123980000D01*
X76885000Y-123980000D01*
X76885000Y-117598514D01*
X85105000Y-117598514D01*
X85105000Y-117861486D01*
X85156304Y-118119405D01*
X85256939Y-118362359D01*
X85403038Y-118581013D01*
X85588987Y-118766962D01*
X85807641Y-118913061D01*
X86050595Y-119013696D01*
X86308514Y-119065000D01*
X86571486Y-119065000D01*
X86829405Y-119013696D01*
X87072359Y-118913061D01*
X87291013Y-118766962D01*
X87476962Y-118581013D01*
X87623061Y-118362359D01*
X87723696Y-118119405D01*
X87733523Y-118070000D01*
X104936606Y-118070000D01*
X104970105Y-118410119D01*
X105069314Y-118737168D01*
X105230421Y-119038578D01*
X105447234Y-119302766D01*
X105468234Y-119320000D01*
X105447234Y-119337234D01*
X105230421Y-119601422D01*
X105069314Y-119902832D01*
X104970105Y-120229881D01*
X104936606Y-120570000D01*
X104970105Y-120910119D01*
X105069314Y-121237168D01*
X105230421Y-121538578D01*
X105447234Y-121802766D01*
X105468234Y-121820000D01*
X105447234Y-121837234D01*
X105230421Y-122101422D01*
X105069314Y-122402832D01*
X104970105Y-122729881D01*
X104936606Y-123070000D01*
X104970105Y-123410119D01*
X105069314Y-123737168D01*
X105230421Y-124038578D01*
X105447234Y-124302766D01*
X105468234Y-124320000D01*
X105447234Y-124337234D01*
X105230421Y-124601422D01*
X105069314Y-124902832D01*
X104970105Y-125229881D01*
X104936606Y-125570000D01*
X104970105Y-125910119D01*
X105069314Y-126237168D01*
X105230421Y-126538578D01*
X105447234Y-126802766D01*
X105468234Y-126820000D01*
X105447234Y-126837234D01*
X105230421Y-127101422D01*
X105069314Y-127402832D01*
X104970105Y-127729881D01*
X104936606Y-128070000D01*
X104970105Y-128410119D01*
X105069314Y-128737168D01*
X105230421Y-129038578D01*
X105447234Y-129302766D01*
X105602772Y-129430413D01*
X105499866Y-129514866D01*
X105314294Y-129740986D01*
X105176401Y-129998966D01*
X105091487Y-130278889D01*
X105062815Y-130570000D01*
X105091487Y-130861111D01*
X105176401Y-131141034D01*
X105314294Y-131399014D01*
X105499866Y-131625134D01*
X105725986Y-131810706D01*
X105983966Y-131948599D01*
X106263889Y-132033513D01*
X106482050Y-132055000D01*
X106877950Y-132055000D01*
X107096111Y-132033513D01*
X107376034Y-131948599D01*
X107634014Y-131810706D01*
X107860134Y-131625134D01*
X108045706Y-131399014D01*
X108183599Y-131141034D01*
X108268513Y-130861111D01*
X108297185Y-130570000D01*
X108268513Y-130278889D01*
X108183599Y-129998966D01*
X108079922Y-129805000D01*
X117980078Y-129805000D01*
X117876401Y-129998966D01*
X117791487Y-130278889D01*
X117762815Y-130570000D01*
X117791487Y-130861111D01*
X117876401Y-131141034D01*
X118014294Y-131399014D01*
X118199866Y-131625134D01*
X118425986Y-131810706D01*
X118683966Y-131948599D01*
X118963889Y-132033513D01*
X119182050Y-132055000D01*
X119577950Y-132055000D01*
X119796111Y-132033513D01*
X120076034Y-131948599D01*
X120334014Y-131810706D01*
X120560134Y-131625134D01*
X120745706Y-131399014D01*
X120883599Y-131141034D01*
X120968513Y-130861111D01*
X120997185Y-130570000D01*
X120968513Y-130278889D01*
X120883599Y-129998966D01*
X120779922Y-129805000D01*
X130680078Y-129805000D01*
X130576401Y-129998966D01*
X130491487Y-130278889D01*
X130462815Y-130570000D01*
X130491487Y-130861111D01*
X130576401Y-131141034D01*
X130714294Y-131399014D01*
X130899866Y-131625134D01*
X131125986Y-131810706D01*
X131383966Y-131948599D01*
X131663889Y-132033513D01*
X131882050Y-132055000D01*
X132277950Y-132055000D01*
X132496111Y-132033513D01*
X132776034Y-131948599D01*
X133034014Y-131810706D01*
X133260134Y-131625134D01*
X133445706Y-131399014D01*
X133583599Y-131141034D01*
X133668513Y-130861111D01*
X133697185Y-130570000D01*
X133668513Y-130278889D01*
X133583599Y-129998966D01*
X133479922Y-129805000D01*
X143380078Y-129805000D01*
X143276401Y-129998966D01*
X143191487Y-130278889D01*
X143162815Y-130570000D01*
X143191487Y-130861111D01*
X143276401Y-131141034D01*
X143414294Y-131399014D01*
X143599866Y-131625134D01*
X143825986Y-131810706D01*
X144083966Y-131948599D01*
X144363889Y-132033513D01*
X144582050Y-132055000D01*
X144977950Y-132055000D01*
X145196111Y-132033513D01*
X145476034Y-131948599D01*
X145734014Y-131810706D01*
X145960134Y-131625134D01*
X146145706Y-131399014D01*
X146283599Y-131141034D01*
X146368513Y-130861111D01*
X146397185Y-130570000D01*
X146368513Y-130278889D01*
X146283599Y-129998966D01*
X146179922Y-129805000D01*
X156080078Y-129805000D01*
X155976401Y-129998966D01*
X155891487Y-130278889D01*
X155862815Y-130570000D01*
X155891487Y-130861111D01*
X155976401Y-131141034D01*
X156114294Y-131399014D01*
X156299866Y-131625134D01*
X156525986Y-131810706D01*
X156783966Y-131948599D01*
X157063889Y-132033513D01*
X157282050Y-132055000D01*
X157677950Y-132055000D01*
X157896111Y-132033513D01*
X158176034Y-131948599D01*
X158434014Y-131810706D01*
X158660134Y-131625134D01*
X158845706Y-131399014D01*
X158983599Y-131141034D01*
X159068513Y-130861111D01*
X159097185Y-130570000D01*
X159068513Y-130278889D01*
X158983599Y-129998966D01*
X158879922Y-129805000D01*
X168780078Y-129805000D01*
X168676401Y-129998966D01*
X168591487Y-130278889D01*
X168562815Y-130570000D01*
X168591487Y-130861111D01*
X168676401Y-131141034D01*
X168814294Y-131399014D01*
X168999866Y-131625134D01*
X169225986Y-131810706D01*
X169483966Y-131948599D01*
X169763889Y-132033513D01*
X169982050Y-132055000D01*
X170377950Y-132055000D01*
X170596111Y-132033513D01*
X170876034Y-131948599D01*
X171134014Y-131810706D01*
X171360134Y-131625134D01*
X171545706Y-131399014D01*
X171683599Y-131141034D01*
X171768513Y-130861111D01*
X171797185Y-130570000D01*
X171768513Y-130278889D01*
X171683599Y-129998966D01*
X171545706Y-129740986D01*
X171360134Y-129514866D01*
X171257228Y-129430413D01*
X171412766Y-129302766D01*
X171629579Y-129038578D01*
X171790686Y-128737168D01*
X171889895Y-128410119D01*
X171923394Y-128070000D01*
X171889895Y-127729881D01*
X171790686Y-127402832D01*
X171629579Y-127101422D01*
X171412766Y-126837234D01*
X171391766Y-126820000D01*
X171412766Y-126802766D01*
X171629579Y-126538578D01*
X171790686Y-126237168D01*
X171889895Y-125910119D01*
X171923394Y-125570000D01*
X171889895Y-125229881D01*
X171790686Y-124902832D01*
X171629579Y-124601422D01*
X171412766Y-124337234D01*
X171391766Y-124320000D01*
X171412766Y-124302766D01*
X171629579Y-124038578D01*
X171790686Y-123737168D01*
X171889895Y-123410119D01*
X171923394Y-123070000D01*
X171889895Y-122729881D01*
X171790686Y-122402832D01*
X171629579Y-122101422D01*
X171412766Y-121837234D01*
X171391766Y-121820000D01*
X171412766Y-121802766D01*
X171629579Y-121538578D01*
X171790686Y-121237168D01*
X171889895Y-120910119D01*
X171923394Y-120570000D01*
X171889895Y-120229881D01*
X171790686Y-119902832D01*
X171629579Y-119601422D01*
X171412766Y-119337234D01*
X171391766Y-119320000D01*
X171412766Y-119302766D01*
X171629579Y-119038578D01*
X171790686Y-118737168D01*
X171889895Y-118410119D01*
X171923394Y-118070000D01*
X171889895Y-117729881D01*
X171790686Y-117402832D01*
X171629579Y-117101422D01*
X171412766Y-116837234D01*
X171148578Y-116620421D01*
X170847168Y-116459314D01*
X170520119Y-116360105D01*
X170265225Y-116335000D01*
X106594775Y-116335000D01*
X106339881Y-116360105D01*
X106012832Y-116459314D01*
X105711422Y-116620421D01*
X105447234Y-116837234D01*
X105230421Y-117101422D01*
X105069314Y-117402832D01*
X104970105Y-117729881D01*
X104936606Y-118070000D01*
X87733523Y-118070000D01*
X87775000Y-117861486D01*
X87775000Y-117598514D01*
X87723696Y-117340595D01*
X87623061Y-117097641D01*
X87476962Y-116878987D01*
X87291013Y-116693038D01*
X87072359Y-116546939D01*
X86829405Y-116446304D01*
X86571486Y-116395000D01*
X86308514Y-116395000D01*
X86050595Y-116446304D01*
X85807641Y-116546939D01*
X85588987Y-116693038D01*
X85403038Y-116878987D01*
X85256939Y-117097641D01*
X85156304Y-117340595D01*
X85105000Y-117598514D01*
X76885000Y-117598514D01*
X76885000Y-93940000D01*
X84616606Y-93940000D01*
X84650105Y-94280119D01*
X84749314Y-94607168D01*
X84910421Y-94908578D01*
X85127234Y-95172766D01*
X85148234Y-95190000D01*
X85127234Y-95207234D01*
X84910421Y-95471422D01*
X84749314Y-95772832D01*
X84650105Y-96099881D01*
X84616606Y-96440000D01*
X84650105Y-96780119D01*
X84749314Y-97107168D01*
X84910421Y-97408578D01*
X85127234Y-97672766D01*
X85148234Y-97690000D01*
X85127234Y-97707234D01*
X84910421Y-97971422D01*
X84749314Y-98272832D01*
X84650105Y-98599881D01*
X84616606Y-98940000D01*
X84650105Y-99280119D01*
X84749314Y-99607168D01*
X84910421Y-99908578D01*
X85127234Y-100172766D01*
X85148234Y-100190000D01*
X85127234Y-100207234D01*
X84910421Y-100471422D01*
X84749314Y-100772832D01*
X84650105Y-101099881D01*
X84616606Y-101440000D01*
X84650105Y-101780119D01*
X84749314Y-102107168D01*
X84910421Y-102408578D01*
X85127234Y-102672766D01*
X85148234Y-102690000D01*
X85127234Y-102707234D01*
X84910421Y-102971422D01*
X84749314Y-103272832D01*
X84650105Y-103599881D01*
X84616606Y-103940000D01*
X84650105Y-104280119D01*
X84749314Y-104607168D01*
X84910421Y-104908578D01*
X85127234Y-105172766D01*
X85282772Y-105300413D01*
X85179866Y-105384866D01*
X84994294Y-105610986D01*
X84856401Y-105868966D01*
X84771487Y-106148889D01*
X84742815Y-106440000D01*
X84771487Y-106731111D01*
X84856401Y-107011034D01*
X84994294Y-107269014D01*
X85179866Y-107495134D01*
X85405986Y-107680706D01*
X85663966Y-107818599D01*
X85943889Y-107903513D01*
X86162050Y-107925000D01*
X86557950Y-107925000D01*
X86776111Y-107903513D01*
X87056034Y-107818599D01*
X87314014Y-107680706D01*
X87540134Y-107495134D01*
X87725706Y-107269014D01*
X87863599Y-107011034D01*
X87948513Y-106731111D01*
X87977185Y-106440000D01*
X87948513Y-106148889D01*
X87863599Y-105868966D01*
X87759922Y-105675000D01*
X105280078Y-105675000D01*
X105176401Y-105868966D01*
X105091487Y-106148889D01*
X105062815Y-106440000D01*
X105091487Y-106731111D01*
X105176401Y-107011034D01*
X105314294Y-107269014D01*
X105499866Y-107495134D01*
X105725986Y-107680706D01*
X105983966Y-107818599D01*
X106263889Y-107903513D01*
X106482050Y-107925000D01*
X106877950Y-107925000D01*
X107096111Y-107903513D01*
X107376034Y-107818599D01*
X107634014Y-107680706D01*
X107860134Y-107495134D01*
X108045706Y-107269014D01*
X108183599Y-107011034D01*
X108268513Y-106731111D01*
X108297185Y-106440000D01*
X108268513Y-106148889D01*
X108183599Y-105868966D01*
X108079922Y-105675000D01*
X117980078Y-105675000D01*
X117876401Y-105868966D01*
X117791487Y-106148889D01*
X117762815Y-106440000D01*
X117791487Y-106731111D01*
X117876401Y-107011034D01*
X118014294Y-107269014D01*
X118199866Y-107495134D01*
X118425986Y-107680706D01*
X118683966Y-107818599D01*
X118963889Y-107903513D01*
X119182050Y-107925000D01*
X119577950Y-107925000D01*
X119796111Y-107903513D01*
X120076034Y-107818599D01*
X120334014Y-107680706D01*
X120560134Y-107495134D01*
X120745706Y-107269014D01*
X120883599Y-107011034D01*
X120968513Y-106731111D01*
X120997185Y-106440000D01*
X120968513Y-106148889D01*
X120883599Y-105868966D01*
X120779922Y-105675000D01*
X130680078Y-105675000D01*
X130576401Y-105868966D01*
X130491487Y-106148889D01*
X130462815Y-106440000D01*
X130491487Y-106731111D01*
X130576401Y-107011034D01*
X130714294Y-107269014D01*
X130899866Y-107495134D01*
X131125986Y-107680706D01*
X131383966Y-107818599D01*
X131663889Y-107903513D01*
X131882050Y-107925000D01*
X132277950Y-107925000D01*
X132496111Y-107903513D01*
X132776034Y-107818599D01*
X133034014Y-107680706D01*
X133260134Y-107495134D01*
X133445706Y-107269014D01*
X133583599Y-107011034D01*
X133668513Y-106731111D01*
X133697185Y-106440000D01*
X133668513Y-106148889D01*
X133583599Y-105868966D01*
X133479922Y-105675000D01*
X143380078Y-105675000D01*
X143276401Y-105868966D01*
X143191487Y-106148889D01*
X143162815Y-106440000D01*
X143191487Y-106731111D01*
X143276401Y-107011034D01*
X143414294Y-107269014D01*
X143599866Y-107495134D01*
X143825986Y-107680706D01*
X144083966Y-107818599D01*
X144363889Y-107903513D01*
X144582050Y-107925000D01*
X144977950Y-107925000D01*
X145196111Y-107903513D01*
X145476034Y-107818599D01*
X145734014Y-107680706D01*
X145960134Y-107495134D01*
X146145706Y-107269014D01*
X146283599Y-107011034D01*
X146368513Y-106731111D01*
X146397185Y-106440000D01*
X146368513Y-106148889D01*
X146283599Y-105868966D01*
X146179922Y-105675000D01*
X156080078Y-105675000D01*
X155976401Y-105868966D01*
X155891487Y-106148889D01*
X155862815Y-106440000D01*
X155891487Y-106731111D01*
X155976401Y-107011034D01*
X156114294Y-107269014D01*
X156299866Y-107495134D01*
X156525986Y-107680706D01*
X156783966Y-107818599D01*
X157063889Y-107903513D01*
X157282050Y-107925000D01*
X157677950Y-107925000D01*
X157896111Y-107903513D01*
X158176034Y-107818599D01*
X158434014Y-107680706D01*
X158660134Y-107495134D01*
X158845706Y-107269014D01*
X158983599Y-107011034D01*
X159068513Y-106731111D01*
X159097185Y-106440000D01*
X159068513Y-106148889D01*
X158983599Y-105868966D01*
X158879922Y-105675000D01*
X168780078Y-105675000D01*
X168676401Y-105868966D01*
X168591487Y-106148889D01*
X168562815Y-106440000D01*
X168591487Y-106731111D01*
X168676401Y-107011034D01*
X168814294Y-107269014D01*
X168999866Y-107495134D01*
X169225986Y-107680706D01*
X169483966Y-107818599D01*
X169763889Y-107903513D01*
X169982050Y-107925000D01*
X170377950Y-107925000D01*
X170596111Y-107903513D01*
X170876034Y-107818599D01*
X171134014Y-107680706D01*
X171360134Y-107495134D01*
X171545706Y-107269014D01*
X171683599Y-107011034D01*
X171768513Y-106731111D01*
X171797185Y-106440000D01*
X171768513Y-106148889D01*
X171683599Y-105868966D01*
X171545706Y-105610986D01*
X171360134Y-105384866D01*
X171257228Y-105300413D01*
X171412766Y-105172766D01*
X171629579Y-104908578D01*
X171790686Y-104607168D01*
X171889895Y-104280119D01*
X171923394Y-103940000D01*
X171889895Y-103599881D01*
X171790686Y-103272832D01*
X171629579Y-102971422D01*
X171412766Y-102707234D01*
X171391766Y-102690000D01*
X171412766Y-102672766D01*
X171629579Y-102408578D01*
X171790686Y-102107168D01*
X171889895Y-101780119D01*
X171923394Y-101440000D01*
X171889895Y-101099881D01*
X171790686Y-100772832D01*
X171629579Y-100471422D01*
X171412766Y-100207234D01*
X171391766Y-100190000D01*
X171412766Y-100172766D01*
X171629579Y-99908578D01*
X171790686Y-99607168D01*
X171889895Y-99280119D01*
X171923394Y-98940000D01*
X171889895Y-98599881D01*
X171790686Y-98272832D01*
X171629579Y-97971422D01*
X171412766Y-97707234D01*
X171391766Y-97690000D01*
X171412766Y-97672766D01*
X171629579Y-97408578D01*
X171790686Y-97107168D01*
X171889895Y-96780119D01*
X171923394Y-96440000D01*
X171889895Y-96099881D01*
X171790686Y-95772832D01*
X171629579Y-95471422D01*
X171412766Y-95207234D01*
X171391766Y-95190000D01*
X171412766Y-95172766D01*
X171629579Y-94908578D01*
X171790686Y-94607168D01*
X171889895Y-94280119D01*
X171923394Y-93940000D01*
X171889895Y-93599881D01*
X171790686Y-93272832D01*
X171629579Y-92971422D01*
X171412766Y-92707234D01*
X171148578Y-92490421D01*
X170847168Y-92329314D01*
X170520119Y-92230105D01*
X170265225Y-92205000D01*
X86274775Y-92205000D01*
X86019881Y-92230105D01*
X85692832Y-92329314D01*
X85391422Y-92490421D01*
X85127234Y-92707234D01*
X84910421Y-92971422D01*
X84749314Y-93272832D01*
X84650105Y-93599881D01*
X84616606Y-93940000D01*
X76885000Y-93940000D01*
X76885000Y-87045000D01*
X175845000Y-87045000D01*
X175845001Y-135205000D01*
%TA.AperFunction,Conductor*%
D16*
G36*
X175845001Y-135205000D02*
G01*
X76885000Y-135205000D01*
X76885000Y-128598514D01*
X85105000Y-128598514D01*
X85105000Y-128861486D01*
X85156304Y-129119405D01*
X85256939Y-129362359D01*
X85403038Y-129581013D01*
X85588987Y-129766962D01*
X85807641Y-129913061D01*
X86050595Y-130013696D01*
X86308514Y-130065000D01*
X86571486Y-130065000D01*
X86829405Y-130013696D01*
X87072359Y-129913061D01*
X87291013Y-129766962D01*
X87476962Y-129581013D01*
X87623061Y-129362359D01*
X87723696Y-129119405D01*
X87775000Y-128861486D01*
X87775000Y-128598514D01*
X87723696Y-128340595D01*
X87623061Y-128097641D01*
X87476962Y-127878987D01*
X87291013Y-127693038D01*
X87072359Y-127546939D01*
X86829405Y-127446304D01*
X86571486Y-127395000D01*
X86308514Y-127395000D01*
X86050595Y-127446304D01*
X85807641Y-127546939D01*
X85588987Y-127693038D01*
X85403038Y-127878987D01*
X85256939Y-128097641D01*
X85156304Y-128340595D01*
X85105000Y-128598514D01*
X76885000Y-128598514D01*
X76885000Y-123980000D01*
X89051928Y-123980000D01*
X89051928Y-127480000D01*
X89064188Y-127604482D01*
X89100498Y-127724180D01*
X89159463Y-127834494D01*
X89238815Y-127931185D01*
X89335506Y-128010537D01*
X89445820Y-128069502D01*
X89565518Y-128105812D01*
X89690000Y-128118072D01*
X93190000Y-128118072D01*
X93314482Y-128105812D01*
X93434180Y-128069502D01*
X93544494Y-128010537D01*
X93641185Y-127931185D01*
X93720537Y-127834494D01*
X93779502Y-127724180D01*
X93815812Y-127604482D01*
X93828072Y-127480000D01*
X93828072Y-123980000D01*
X93815812Y-123855518D01*
X93779502Y-123735820D01*
X93720537Y-123625506D01*
X93641185Y-123528815D01*
X93544494Y-123449463D01*
X93434180Y-123390498D01*
X93314482Y-123354188D01*
X93190000Y-123341928D01*
X89690000Y-123341928D01*
X89565518Y-123354188D01*
X89445820Y-123390498D01*
X89335506Y-123449463D01*
X89238815Y-123528815D01*
X89159463Y-123625506D01*
X89100498Y-123735820D01*
X89064188Y-123855518D01*
X89051928Y-123980000D01*
X76885000Y-123980000D01*
X76885000Y-117598514D01*
X85105000Y-117598514D01*
X85105000Y-117861486D01*
X85156304Y-118119405D01*
X85256939Y-118362359D01*
X85403038Y-118581013D01*
X85588987Y-118766962D01*
X85807641Y-118913061D01*
X86050595Y-119013696D01*
X86308514Y-119065000D01*
X86571486Y-119065000D01*
X86829405Y-119013696D01*
X87072359Y-118913061D01*
X87291013Y-118766962D01*
X87476962Y-118581013D01*
X87623061Y-118362359D01*
X87723696Y-118119405D01*
X87733523Y-118070000D01*
X104936606Y-118070000D01*
X104970105Y-118410119D01*
X105069314Y-118737168D01*
X105230421Y-119038578D01*
X105447234Y-119302766D01*
X105468234Y-119320000D01*
X105447234Y-119337234D01*
X105230421Y-119601422D01*
X105069314Y-119902832D01*
X104970105Y-120229881D01*
X104936606Y-120570000D01*
X104970105Y-120910119D01*
X105069314Y-121237168D01*
X105230421Y-121538578D01*
X105447234Y-121802766D01*
X105468234Y-121820000D01*
X105447234Y-121837234D01*
X105230421Y-122101422D01*
X105069314Y-122402832D01*
X104970105Y-122729881D01*
X104936606Y-123070000D01*
X104970105Y-123410119D01*
X105069314Y-123737168D01*
X105230421Y-124038578D01*
X105447234Y-124302766D01*
X105468234Y-124320000D01*
X105447234Y-124337234D01*
X105230421Y-124601422D01*
X105069314Y-124902832D01*
X104970105Y-125229881D01*
X104936606Y-125570000D01*
X104970105Y-125910119D01*
X105069314Y-126237168D01*
X105230421Y-126538578D01*
X105447234Y-126802766D01*
X105468234Y-126820000D01*
X105447234Y-126837234D01*
X105230421Y-127101422D01*
X105069314Y-127402832D01*
X104970105Y-127729881D01*
X104936606Y-128070000D01*
X104970105Y-128410119D01*
X105069314Y-128737168D01*
X105230421Y-129038578D01*
X105447234Y-129302766D01*
X105602772Y-129430413D01*
X105499866Y-129514866D01*
X105314294Y-129740986D01*
X105176401Y-129998966D01*
X105091487Y-130278889D01*
X105062815Y-130570000D01*
X105091487Y-130861111D01*
X105176401Y-131141034D01*
X105314294Y-131399014D01*
X105499866Y-131625134D01*
X105725986Y-131810706D01*
X105983966Y-131948599D01*
X106263889Y-132033513D01*
X106482050Y-132055000D01*
X106877950Y-132055000D01*
X107096111Y-132033513D01*
X107376034Y-131948599D01*
X107634014Y-131810706D01*
X107860134Y-131625134D01*
X108045706Y-131399014D01*
X108183599Y-131141034D01*
X108268513Y-130861111D01*
X108297185Y-130570000D01*
X108268513Y-130278889D01*
X108183599Y-129998966D01*
X108079922Y-129805000D01*
X117980078Y-129805000D01*
X117876401Y-129998966D01*
X117791487Y-130278889D01*
X117762815Y-130570000D01*
X117791487Y-130861111D01*
X117876401Y-131141034D01*
X118014294Y-131399014D01*
X118199866Y-131625134D01*
X118425986Y-131810706D01*
X118683966Y-131948599D01*
X118963889Y-132033513D01*
X119182050Y-132055000D01*
X119577950Y-132055000D01*
X119796111Y-132033513D01*
X120076034Y-131948599D01*
X120334014Y-131810706D01*
X120560134Y-131625134D01*
X120745706Y-131399014D01*
X120883599Y-131141034D01*
X120968513Y-130861111D01*
X120997185Y-130570000D01*
X120968513Y-130278889D01*
X120883599Y-129998966D01*
X120779922Y-129805000D01*
X130680078Y-129805000D01*
X130576401Y-129998966D01*
X130491487Y-130278889D01*
X130462815Y-130570000D01*
X130491487Y-130861111D01*
X130576401Y-131141034D01*
X130714294Y-131399014D01*
X130899866Y-131625134D01*
X131125986Y-131810706D01*
X131383966Y-131948599D01*
X131663889Y-132033513D01*
X131882050Y-132055000D01*
X132277950Y-132055000D01*
X132496111Y-132033513D01*
X132776034Y-131948599D01*
X133034014Y-131810706D01*
X133260134Y-131625134D01*
X133445706Y-131399014D01*
X133583599Y-131141034D01*
X133668513Y-130861111D01*
X133697185Y-130570000D01*
X133668513Y-130278889D01*
X133583599Y-129998966D01*
X133479922Y-129805000D01*
X143380078Y-129805000D01*
X143276401Y-129998966D01*
X143191487Y-130278889D01*
X143162815Y-130570000D01*
X143191487Y-130861111D01*
X143276401Y-131141034D01*
X143414294Y-131399014D01*
X143599866Y-131625134D01*
X143825986Y-131810706D01*
X144083966Y-131948599D01*
X144363889Y-132033513D01*
X144582050Y-132055000D01*
X144977950Y-132055000D01*
X145196111Y-132033513D01*
X145476034Y-131948599D01*
X145734014Y-131810706D01*
X145960134Y-131625134D01*
X146145706Y-131399014D01*
X146283599Y-131141034D01*
X146368513Y-130861111D01*
X146397185Y-130570000D01*
X146368513Y-130278889D01*
X146283599Y-129998966D01*
X146179922Y-129805000D01*
X156080078Y-129805000D01*
X155976401Y-129998966D01*
X155891487Y-130278889D01*
X155862815Y-130570000D01*
X155891487Y-130861111D01*
X155976401Y-131141034D01*
X156114294Y-131399014D01*
X156299866Y-131625134D01*
X156525986Y-131810706D01*
X156783966Y-131948599D01*
X157063889Y-132033513D01*
X157282050Y-132055000D01*
X157677950Y-132055000D01*
X157896111Y-132033513D01*
X158176034Y-131948599D01*
X158434014Y-131810706D01*
X158660134Y-131625134D01*
X158845706Y-131399014D01*
X158983599Y-131141034D01*
X159068513Y-130861111D01*
X159097185Y-130570000D01*
X159068513Y-130278889D01*
X158983599Y-129998966D01*
X158879922Y-129805000D01*
X168780078Y-129805000D01*
X168676401Y-129998966D01*
X168591487Y-130278889D01*
X168562815Y-130570000D01*
X168591487Y-130861111D01*
X168676401Y-131141034D01*
X168814294Y-131399014D01*
X168999866Y-131625134D01*
X169225986Y-131810706D01*
X169483966Y-131948599D01*
X169763889Y-132033513D01*
X169982050Y-132055000D01*
X170377950Y-132055000D01*
X170596111Y-132033513D01*
X170876034Y-131948599D01*
X171134014Y-131810706D01*
X171360134Y-131625134D01*
X171545706Y-131399014D01*
X171683599Y-131141034D01*
X171768513Y-130861111D01*
X171797185Y-130570000D01*
X171768513Y-130278889D01*
X171683599Y-129998966D01*
X171545706Y-129740986D01*
X171360134Y-129514866D01*
X171257228Y-129430413D01*
X171412766Y-129302766D01*
X171629579Y-129038578D01*
X171790686Y-128737168D01*
X171889895Y-128410119D01*
X171923394Y-128070000D01*
X171889895Y-127729881D01*
X171790686Y-127402832D01*
X171629579Y-127101422D01*
X171412766Y-126837234D01*
X171391766Y-126820000D01*
X171412766Y-126802766D01*
X171629579Y-126538578D01*
X171790686Y-126237168D01*
X171889895Y-125910119D01*
X171923394Y-125570000D01*
X171889895Y-125229881D01*
X171790686Y-124902832D01*
X171629579Y-124601422D01*
X171412766Y-124337234D01*
X171391766Y-124320000D01*
X171412766Y-124302766D01*
X171629579Y-124038578D01*
X171790686Y-123737168D01*
X171889895Y-123410119D01*
X171923394Y-123070000D01*
X171889895Y-122729881D01*
X171790686Y-122402832D01*
X171629579Y-122101422D01*
X171412766Y-121837234D01*
X171391766Y-121820000D01*
X171412766Y-121802766D01*
X171629579Y-121538578D01*
X171790686Y-121237168D01*
X171889895Y-120910119D01*
X171923394Y-120570000D01*
X171889895Y-120229881D01*
X171790686Y-119902832D01*
X171629579Y-119601422D01*
X171412766Y-119337234D01*
X171391766Y-119320000D01*
X171412766Y-119302766D01*
X171629579Y-119038578D01*
X171790686Y-118737168D01*
X171889895Y-118410119D01*
X171923394Y-118070000D01*
X171889895Y-117729881D01*
X171790686Y-117402832D01*
X171629579Y-117101422D01*
X171412766Y-116837234D01*
X171148578Y-116620421D01*
X170847168Y-116459314D01*
X170520119Y-116360105D01*
X170265225Y-116335000D01*
X106594775Y-116335000D01*
X106339881Y-116360105D01*
X106012832Y-116459314D01*
X105711422Y-116620421D01*
X105447234Y-116837234D01*
X105230421Y-117101422D01*
X105069314Y-117402832D01*
X104970105Y-117729881D01*
X104936606Y-118070000D01*
X87733523Y-118070000D01*
X87775000Y-117861486D01*
X87775000Y-117598514D01*
X87723696Y-117340595D01*
X87623061Y-117097641D01*
X87476962Y-116878987D01*
X87291013Y-116693038D01*
X87072359Y-116546939D01*
X86829405Y-116446304D01*
X86571486Y-116395000D01*
X86308514Y-116395000D01*
X86050595Y-116446304D01*
X85807641Y-116546939D01*
X85588987Y-116693038D01*
X85403038Y-116878987D01*
X85256939Y-117097641D01*
X85156304Y-117340595D01*
X85105000Y-117598514D01*
X76885000Y-117598514D01*
X76885000Y-93940000D01*
X84616606Y-93940000D01*
X84650105Y-94280119D01*
X84749314Y-94607168D01*
X84910421Y-94908578D01*
X85127234Y-95172766D01*
X85148234Y-95190000D01*
X85127234Y-95207234D01*
X84910421Y-95471422D01*
X84749314Y-95772832D01*
X84650105Y-96099881D01*
X84616606Y-96440000D01*
X84650105Y-96780119D01*
X84749314Y-97107168D01*
X84910421Y-97408578D01*
X85127234Y-97672766D01*
X85148234Y-97690000D01*
X85127234Y-97707234D01*
X84910421Y-97971422D01*
X84749314Y-98272832D01*
X84650105Y-98599881D01*
X84616606Y-98940000D01*
X84650105Y-99280119D01*
X84749314Y-99607168D01*
X84910421Y-99908578D01*
X85127234Y-100172766D01*
X85148234Y-100190000D01*
X85127234Y-100207234D01*
X84910421Y-100471422D01*
X84749314Y-100772832D01*
X84650105Y-101099881D01*
X84616606Y-101440000D01*
X84650105Y-101780119D01*
X84749314Y-102107168D01*
X84910421Y-102408578D01*
X85127234Y-102672766D01*
X85148234Y-102690000D01*
X85127234Y-102707234D01*
X84910421Y-102971422D01*
X84749314Y-103272832D01*
X84650105Y-103599881D01*
X84616606Y-103940000D01*
X84650105Y-104280119D01*
X84749314Y-104607168D01*
X84910421Y-104908578D01*
X85127234Y-105172766D01*
X85282772Y-105300413D01*
X85179866Y-105384866D01*
X84994294Y-105610986D01*
X84856401Y-105868966D01*
X84771487Y-106148889D01*
X84742815Y-106440000D01*
X84771487Y-106731111D01*
X84856401Y-107011034D01*
X84994294Y-107269014D01*
X85179866Y-107495134D01*
X85405986Y-107680706D01*
X85663966Y-107818599D01*
X85943889Y-107903513D01*
X86162050Y-107925000D01*
X86557950Y-107925000D01*
X86776111Y-107903513D01*
X87056034Y-107818599D01*
X87314014Y-107680706D01*
X87540134Y-107495134D01*
X87725706Y-107269014D01*
X87863599Y-107011034D01*
X87948513Y-106731111D01*
X87977185Y-106440000D01*
X87948513Y-106148889D01*
X87863599Y-105868966D01*
X87759922Y-105675000D01*
X105280078Y-105675000D01*
X105176401Y-105868966D01*
X105091487Y-106148889D01*
X105062815Y-106440000D01*
X105091487Y-106731111D01*
X105176401Y-107011034D01*
X105314294Y-107269014D01*
X105499866Y-107495134D01*
X105725986Y-107680706D01*
X105983966Y-107818599D01*
X106263889Y-107903513D01*
X106482050Y-107925000D01*
X106877950Y-107925000D01*
X107096111Y-107903513D01*
X107376034Y-107818599D01*
X107634014Y-107680706D01*
X107860134Y-107495134D01*
X108045706Y-107269014D01*
X108183599Y-107011034D01*
X108268513Y-106731111D01*
X108297185Y-106440000D01*
X108268513Y-106148889D01*
X108183599Y-105868966D01*
X108079922Y-105675000D01*
X117980078Y-105675000D01*
X117876401Y-105868966D01*
X117791487Y-106148889D01*
X117762815Y-106440000D01*
X117791487Y-106731111D01*
X117876401Y-107011034D01*
X118014294Y-107269014D01*
X118199866Y-107495134D01*
X118425986Y-107680706D01*
X118683966Y-107818599D01*
X118963889Y-107903513D01*
X119182050Y-107925000D01*
X119577950Y-107925000D01*
X119796111Y-107903513D01*
X120076034Y-107818599D01*
X120334014Y-107680706D01*
X120560134Y-107495134D01*
X120745706Y-107269014D01*
X120883599Y-107011034D01*
X120968513Y-106731111D01*
X120997185Y-106440000D01*
X120968513Y-106148889D01*
X120883599Y-105868966D01*
X120779922Y-105675000D01*
X130680078Y-105675000D01*
X130576401Y-105868966D01*
X130491487Y-106148889D01*
X130462815Y-106440000D01*
X130491487Y-106731111D01*
X130576401Y-107011034D01*
X130714294Y-107269014D01*
X130899866Y-107495134D01*
X131125986Y-107680706D01*
X131383966Y-107818599D01*
X131663889Y-107903513D01*
X131882050Y-107925000D01*
X132277950Y-107925000D01*
X132496111Y-107903513D01*
X132776034Y-107818599D01*
X133034014Y-107680706D01*
X133260134Y-107495134D01*
X133445706Y-107269014D01*
X133583599Y-107011034D01*
X133668513Y-106731111D01*
X133697185Y-106440000D01*
X133668513Y-106148889D01*
X133583599Y-105868966D01*
X133479922Y-105675000D01*
X143380078Y-105675000D01*
X143276401Y-105868966D01*
X143191487Y-106148889D01*
X143162815Y-106440000D01*
X143191487Y-106731111D01*
X143276401Y-107011034D01*
X143414294Y-107269014D01*
X143599866Y-107495134D01*
X143825986Y-107680706D01*
X144083966Y-107818599D01*
X144363889Y-107903513D01*
X144582050Y-107925000D01*
X144977950Y-107925000D01*
X145196111Y-107903513D01*
X145476034Y-107818599D01*
X145734014Y-107680706D01*
X145960134Y-107495134D01*
X146145706Y-107269014D01*
X146283599Y-107011034D01*
X146368513Y-106731111D01*
X146397185Y-106440000D01*
X146368513Y-106148889D01*
X146283599Y-105868966D01*
X146179922Y-105675000D01*
X156080078Y-105675000D01*
X155976401Y-105868966D01*
X155891487Y-106148889D01*
X155862815Y-106440000D01*
X155891487Y-106731111D01*
X155976401Y-107011034D01*
X156114294Y-107269014D01*
X156299866Y-107495134D01*
X156525986Y-107680706D01*
X156783966Y-107818599D01*
X157063889Y-107903513D01*
X157282050Y-107925000D01*
X157677950Y-107925000D01*
X157896111Y-107903513D01*
X158176034Y-107818599D01*
X158434014Y-107680706D01*
X158660134Y-107495134D01*
X158845706Y-107269014D01*
X158983599Y-107011034D01*
X159068513Y-106731111D01*
X159097185Y-106440000D01*
X159068513Y-106148889D01*
X158983599Y-105868966D01*
X158879922Y-105675000D01*
X168780078Y-105675000D01*
X168676401Y-105868966D01*
X168591487Y-106148889D01*
X168562815Y-106440000D01*
X168591487Y-106731111D01*
X168676401Y-107011034D01*
X168814294Y-107269014D01*
X168999866Y-107495134D01*
X169225986Y-107680706D01*
X169483966Y-107818599D01*
X169763889Y-107903513D01*
X169982050Y-107925000D01*
X170377950Y-107925000D01*
X170596111Y-107903513D01*
X170876034Y-107818599D01*
X171134014Y-107680706D01*
X171360134Y-107495134D01*
X171545706Y-107269014D01*
X171683599Y-107011034D01*
X171768513Y-106731111D01*
X171797185Y-106440000D01*
X171768513Y-106148889D01*
X171683599Y-105868966D01*
X171545706Y-105610986D01*
X171360134Y-105384866D01*
X171257228Y-105300413D01*
X171412766Y-105172766D01*
X171629579Y-104908578D01*
X171790686Y-104607168D01*
X171889895Y-104280119D01*
X171923394Y-103940000D01*
X171889895Y-103599881D01*
X171790686Y-103272832D01*
X171629579Y-102971422D01*
X171412766Y-102707234D01*
X171391766Y-102690000D01*
X171412766Y-102672766D01*
X171629579Y-102408578D01*
X171790686Y-102107168D01*
X171889895Y-101780119D01*
X171923394Y-101440000D01*
X171889895Y-101099881D01*
X171790686Y-100772832D01*
X171629579Y-100471422D01*
X171412766Y-100207234D01*
X171391766Y-100190000D01*
X171412766Y-100172766D01*
X171629579Y-99908578D01*
X171790686Y-99607168D01*
X171889895Y-99280119D01*
X171923394Y-98940000D01*
X171889895Y-98599881D01*
X171790686Y-98272832D01*
X171629579Y-97971422D01*
X171412766Y-97707234D01*
X171391766Y-97690000D01*
X171412766Y-97672766D01*
X171629579Y-97408578D01*
X171790686Y-97107168D01*
X171889895Y-96780119D01*
X171923394Y-96440000D01*
X171889895Y-96099881D01*
X171790686Y-95772832D01*
X171629579Y-95471422D01*
X171412766Y-95207234D01*
X171391766Y-95190000D01*
X171412766Y-95172766D01*
X171629579Y-94908578D01*
X171790686Y-94607168D01*
X171889895Y-94280119D01*
X171923394Y-93940000D01*
X171889895Y-93599881D01*
X171790686Y-93272832D01*
X171629579Y-92971422D01*
X171412766Y-92707234D01*
X171148578Y-92490421D01*
X170847168Y-92329314D01*
X170520119Y-92230105D01*
X170265225Y-92205000D01*
X86274775Y-92205000D01*
X86019881Y-92230105D01*
X85692832Y-92329314D01*
X85391422Y-92490421D01*
X85127234Y-92707234D01*
X84910421Y-92971422D01*
X84749314Y-93272832D01*
X84650105Y-93599881D01*
X84616606Y-93940000D01*
X76885000Y-93940000D01*
X76885000Y-87045000D01*
X175845000Y-87045000D01*
X175845001Y-135205000D01*
G37*
%TD.AperFunction*%
%TD*%
M02*
