%TF.GenerationSoftware,KiCad,Pcbnew,(5.1.9)-1*%
%TF.CreationDate,2021-07-19T11:43:35+01:00*%
%TF.ProjectId,3S-parallel-board,33532d70-6172-4616-9c6c-656c2d626f61,rev?*%
%TF.SameCoordinates,Original*%
%TF.FileFunction,Legend,Top*%
%TF.FilePolarity,Positive*%
%FSLAX46Y46*%
G04 Gerber Fmt 4.6, Leading zero omitted, Abs format (unit mm)*
G04 Created by KiCad (PCBNEW (5.1.9)-1) date 2021-07-19 11:43:35*
%MOMM*%
%LPD*%
G01*
G04 APERTURE LIST*
%ADD10C,0.300000*%
%ADD11C,0.120000*%
%ADD12C,0.150000*%
G04 APERTURE END LIST*
D10*
X111904761Y-111934761D02*
X113142857Y-111934761D01*
X112476190Y-112696666D01*
X112761904Y-112696666D01*
X112952380Y-112791904D01*
X113047619Y-112887142D01*
X113142857Y-113077619D01*
X113142857Y-113553809D01*
X113047619Y-113744285D01*
X112952380Y-113839523D01*
X112761904Y-113934761D01*
X112190476Y-113934761D01*
X112000000Y-113839523D01*
X111904761Y-113744285D01*
X113904761Y-113839523D02*
X114190476Y-113934761D01*
X114666666Y-113934761D01*
X114857142Y-113839523D01*
X114952380Y-113744285D01*
X115047619Y-113553809D01*
X115047619Y-113363333D01*
X114952380Y-113172857D01*
X114857142Y-113077619D01*
X114666666Y-112982380D01*
X114285714Y-112887142D01*
X114095238Y-112791904D01*
X114000000Y-112696666D01*
X113904761Y-112506190D01*
X113904761Y-112315714D01*
X114000000Y-112125238D01*
X114095238Y-112030000D01*
X114285714Y-111934761D01*
X114761904Y-111934761D01*
X115047619Y-112030000D01*
X117428571Y-113934761D02*
X117428571Y-111934761D01*
X118190476Y-111934761D01*
X118380952Y-112030000D01*
X118476190Y-112125238D01*
X118571428Y-112315714D01*
X118571428Y-112601428D01*
X118476190Y-112791904D01*
X118380952Y-112887142D01*
X118190476Y-112982380D01*
X117428571Y-112982380D01*
X119333333Y-113363333D02*
X120285714Y-113363333D01*
X119142857Y-113934761D02*
X119809523Y-111934761D01*
X120476190Y-113934761D01*
X122285714Y-113934761D02*
X121619047Y-112982380D01*
X121142857Y-113934761D02*
X121142857Y-111934761D01*
X121904761Y-111934761D01*
X122095238Y-112030000D01*
X122190476Y-112125238D01*
X122285714Y-112315714D01*
X122285714Y-112601428D01*
X122190476Y-112791904D01*
X122095238Y-112887142D01*
X121904761Y-112982380D01*
X121142857Y-112982380D01*
X123047619Y-113363333D02*
X124000000Y-113363333D01*
X122857142Y-113934761D02*
X123523809Y-111934761D01*
X124190476Y-113934761D01*
X125809523Y-113934761D02*
X124857142Y-113934761D01*
X124857142Y-111934761D01*
X127428571Y-113934761D02*
X126476190Y-113934761D01*
X126476190Y-111934761D01*
X128095238Y-112887142D02*
X128761904Y-112887142D01*
X129047619Y-113934761D02*
X128095238Y-113934761D01*
X128095238Y-111934761D01*
X129047619Y-111934761D01*
X130857142Y-113934761D02*
X129904761Y-113934761D01*
X129904761Y-111934761D01*
X133714285Y-112887142D02*
X134000000Y-112982380D01*
X134095238Y-113077619D01*
X134190476Y-113268095D01*
X134190476Y-113553809D01*
X134095238Y-113744285D01*
X134000000Y-113839523D01*
X133809523Y-113934761D01*
X133047619Y-113934761D01*
X133047619Y-111934761D01*
X133714285Y-111934761D01*
X133904761Y-112030000D01*
X134000000Y-112125238D01*
X134095238Y-112315714D01*
X134095238Y-112506190D01*
X134000000Y-112696666D01*
X133904761Y-112791904D01*
X133714285Y-112887142D01*
X133047619Y-112887142D01*
X135428571Y-111934761D02*
X135809523Y-111934761D01*
X136000000Y-112030000D01*
X136190476Y-112220476D01*
X136285714Y-112601428D01*
X136285714Y-113268095D01*
X136190476Y-113649047D01*
X136000000Y-113839523D01*
X135809523Y-113934761D01*
X135428571Y-113934761D01*
X135238095Y-113839523D01*
X135047619Y-113649047D01*
X134952380Y-113268095D01*
X134952380Y-112601428D01*
X135047619Y-112220476D01*
X135238095Y-112030000D01*
X135428571Y-111934761D01*
X137047619Y-113363333D02*
X138000000Y-113363333D01*
X136857142Y-113934761D02*
X137523809Y-111934761D01*
X138190476Y-113934761D01*
X140000000Y-113934761D02*
X139333333Y-112982380D01*
X138857142Y-113934761D02*
X138857142Y-111934761D01*
X139619047Y-111934761D01*
X139809523Y-112030000D01*
X139904761Y-112125238D01*
X140000000Y-112315714D01*
X140000000Y-112601428D01*
X139904761Y-112791904D01*
X139809523Y-112887142D01*
X139619047Y-112982380D01*
X138857142Y-112982380D01*
X140857142Y-113934761D02*
X140857142Y-111934761D01*
X141333333Y-111934761D01*
X141619047Y-112030000D01*
X141809523Y-112220476D01*
X141904761Y-112410952D01*
X142000000Y-112791904D01*
X142000000Y-113077619D01*
X141904761Y-113458571D01*
X141809523Y-113649047D01*
X141619047Y-113839523D01*
X141333333Y-113934761D01*
X140857142Y-113934761D01*
D11*
%TO.C,J9*%
X85330000Y-117580000D02*
G75*
G02*
X87550000Y-117580000I1110000J0D01*
G01*
X87536635Y-129051729D02*
G75*
G02*
X85330000Y-128880000I-1096635J171729D01*
G01*
X83280000Y-128290000D02*
X83280000Y-127760000D01*
X87550000Y-128990000D02*
X87550000Y-117470000D01*
X83280000Y-128290000D02*
X85330000Y-128290000D01*
X85330000Y-128990000D02*
X85330000Y-128290000D01*
X85330000Y-118170000D02*
X85330000Y-117470000D01*
X83280000Y-118170000D02*
X85330000Y-118170000D01*
X83280000Y-118700000D02*
X83280000Y-118170000D01*
X77280000Y-118700000D02*
X83280000Y-118700000D01*
X77280000Y-127760000D02*
X77280000Y-118730000D01*
X77280000Y-127760000D02*
X83280000Y-127760000D01*
%TO.C,J10*%
X77050000Y-102810000D02*
X77050000Y-96500000D01*
X77050000Y-96500000D02*
X88770000Y-96500000D01*
X88770000Y-96500000D02*
X88770000Y-97920000D01*
X88770000Y-97920000D02*
X84270000Y-97920000D01*
X84270000Y-97920000D02*
X84270000Y-102810000D01*
X77050000Y-102810000D02*
X77050000Y-109120000D01*
X77050000Y-109120000D02*
X88770000Y-109120000D01*
X88770000Y-109120000D02*
X88770000Y-107700000D01*
X88770000Y-107700000D02*
X84270000Y-107700000D01*
X84270000Y-107700000D02*
X84270000Y-102810000D01*
X83160000Y-98810000D02*
X77660000Y-98810000D01*
X77660000Y-98810000D02*
X77660000Y-99310000D01*
X77660000Y-99310000D02*
X83160000Y-99310000D01*
X83160000Y-99310000D02*
X83160000Y-98810000D01*
X83160000Y-101310000D02*
X77660000Y-101310000D01*
X77660000Y-101310000D02*
X77660000Y-101810000D01*
X77660000Y-101810000D02*
X83160000Y-101810000D01*
X83160000Y-101810000D02*
X83160000Y-101310000D01*
X83160000Y-103810000D02*
X77660000Y-103810000D01*
X77660000Y-103810000D02*
X77660000Y-104310000D01*
X77660000Y-104310000D02*
X83160000Y-104310000D01*
X83160000Y-104310000D02*
X83160000Y-103810000D01*
X83160000Y-106310000D02*
X77660000Y-106310000D01*
X77660000Y-106310000D02*
X77660000Y-106810000D01*
X77660000Y-106810000D02*
X83160000Y-106810000D01*
X83160000Y-106810000D02*
X83160000Y-106310000D01*
X87860000Y-99060000D02*
X88460000Y-98760000D01*
X88460000Y-98760000D02*
X88460000Y-99360000D01*
X88460000Y-99360000D02*
X87860000Y-99060000D01*
%TO.C,J8*%
X153590000Y-116820000D02*
X147620000Y-116820000D01*
X147620000Y-116820000D02*
X147620000Y-129440000D01*
X147620000Y-129440000D02*
X153590000Y-129440000D01*
X153590000Y-129440000D02*
X153590000Y-116820000D01*
X153580000Y-120130000D02*
X152830000Y-120130000D01*
X152830000Y-120130000D02*
X152830000Y-126130000D01*
X152830000Y-126130000D02*
X153580000Y-126130000D01*
X153580000Y-126130000D02*
X153580000Y-120130000D01*
X153580000Y-116830000D02*
X152830000Y-116830000D01*
X152830000Y-116830000D02*
X152830000Y-118630000D01*
X152830000Y-118630000D02*
X153580000Y-118630000D01*
X153580000Y-118630000D02*
X153580000Y-116830000D01*
X153580000Y-127630000D02*
X152830000Y-127630000D01*
X152830000Y-127630000D02*
X152830000Y-129430000D01*
X152830000Y-129430000D02*
X153580000Y-129430000D01*
X153580000Y-129430000D02*
X153580000Y-127630000D01*
X151330000Y-116830000D02*
X151330000Y-117580000D01*
X151330000Y-117580000D02*
X148380000Y-117580000D01*
X148380000Y-117580000D02*
X148380000Y-123130000D01*
X151330000Y-129430000D02*
X151330000Y-128680000D01*
X151330000Y-128680000D02*
X148380000Y-128680000D01*
X148380000Y-128680000D02*
X148380000Y-123130000D01*
X153880000Y-117780000D02*
X153880000Y-116530000D01*
X153880000Y-116530000D02*
X152630000Y-116530000D01*
%TO.C,J7*%
X138350000Y-116820000D02*
X132380000Y-116820000D01*
X132380000Y-116820000D02*
X132380000Y-129440000D01*
X132380000Y-129440000D02*
X138350000Y-129440000D01*
X138350000Y-129440000D02*
X138350000Y-116820000D01*
X138340000Y-120130000D02*
X137590000Y-120130000D01*
X137590000Y-120130000D02*
X137590000Y-126130000D01*
X137590000Y-126130000D02*
X138340000Y-126130000D01*
X138340000Y-126130000D02*
X138340000Y-120130000D01*
X138340000Y-116830000D02*
X137590000Y-116830000D01*
X137590000Y-116830000D02*
X137590000Y-118630000D01*
X137590000Y-118630000D02*
X138340000Y-118630000D01*
X138340000Y-118630000D02*
X138340000Y-116830000D01*
X138340000Y-127630000D02*
X137590000Y-127630000D01*
X137590000Y-127630000D02*
X137590000Y-129430000D01*
X137590000Y-129430000D02*
X138340000Y-129430000D01*
X138340000Y-129430000D02*
X138340000Y-127630000D01*
X136090000Y-116830000D02*
X136090000Y-117580000D01*
X136090000Y-117580000D02*
X133140000Y-117580000D01*
X133140000Y-117580000D02*
X133140000Y-123130000D01*
X136090000Y-129430000D02*
X136090000Y-128680000D01*
X136090000Y-128680000D02*
X133140000Y-128680000D01*
X133140000Y-128680000D02*
X133140000Y-123130000D01*
X138640000Y-117780000D02*
X138640000Y-116530000D01*
X138640000Y-116530000D02*
X137390000Y-116530000D01*
%TO.C,J6*%
X123110000Y-116820000D02*
X117140000Y-116820000D01*
X117140000Y-116820000D02*
X117140000Y-129440000D01*
X117140000Y-129440000D02*
X123110000Y-129440000D01*
X123110000Y-129440000D02*
X123110000Y-116820000D01*
X123100000Y-120130000D02*
X122350000Y-120130000D01*
X122350000Y-120130000D02*
X122350000Y-126130000D01*
X122350000Y-126130000D02*
X123100000Y-126130000D01*
X123100000Y-126130000D02*
X123100000Y-120130000D01*
X123100000Y-116830000D02*
X122350000Y-116830000D01*
X122350000Y-116830000D02*
X122350000Y-118630000D01*
X122350000Y-118630000D02*
X123100000Y-118630000D01*
X123100000Y-118630000D02*
X123100000Y-116830000D01*
X123100000Y-127630000D02*
X122350000Y-127630000D01*
X122350000Y-127630000D02*
X122350000Y-129430000D01*
X122350000Y-129430000D02*
X123100000Y-129430000D01*
X123100000Y-129430000D02*
X123100000Y-127630000D01*
X120850000Y-116830000D02*
X120850000Y-117580000D01*
X120850000Y-117580000D02*
X117900000Y-117580000D01*
X117900000Y-117580000D02*
X117900000Y-123130000D01*
X120850000Y-129430000D02*
X120850000Y-128680000D01*
X120850000Y-128680000D02*
X117900000Y-128680000D01*
X117900000Y-128680000D02*
X117900000Y-123130000D01*
X123400000Y-117780000D02*
X123400000Y-116530000D01*
X123400000Y-116530000D02*
X122150000Y-116530000D01*
%TO.C,J5*%
X107870000Y-116820000D02*
X101900000Y-116820000D01*
X101900000Y-116820000D02*
X101900000Y-129440000D01*
X101900000Y-129440000D02*
X107870000Y-129440000D01*
X107870000Y-129440000D02*
X107870000Y-116820000D01*
X107860000Y-120130000D02*
X107110000Y-120130000D01*
X107110000Y-120130000D02*
X107110000Y-126130000D01*
X107110000Y-126130000D02*
X107860000Y-126130000D01*
X107860000Y-126130000D02*
X107860000Y-120130000D01*
X107860000Y-116830000D02*
X107110000Y-116830000D01*
X107110000Y-116830000D02*
X107110000Y-118630000D01*
X107110000Y-118630000D02*
X107860000Y-118630000D01*
X107860000Y-118630000D02*
X107860000Y-116830000D01*
X107860000Y-127630000D02*
X107110000Y-127630000D01*
X107110000Y-127630000D02*
X107110000Y-129430000D01*
X107110000Y-129430000D02*
X107860000Y-129430000D01*
X107860000Y-129430000D02*
X107860000Y-127630000D01*
X105610000Y-116830000D02*
X105610000Y-117580000D01*
X105610000Y-117580000D02*
X102660000Y-117580000D01*
X102660000Y-117580000D02*
X102660000Y-123130000D01*
X105610000Y-129430000D02*
X105610000Y-128680000D01*
X105610000Y-128680000D02*
X102660000Y-128680000D01*
X102660000Y-128680000D02*
X102660000Y-123130000D01*
X108160000Y-117780000D02*
X108160000Y-116530000D01*
X108160000Y-116530000D02*
X106910000Y-116530000D01*
%TO.C,J4*%
X153590000Y-96500000D02*
X147620000Y-96500000D01*
X147620000Y-96500000D02*
X147620000Y-109120000D01*
X147620000Y-109120000D02*
X153590000Y-109120000D01*
X153590000Y-109120000D02*
X153590000Y-96500000D01*
X153580000Y-99810000D02*
X152830000Y-99810000D01*
X152830000Y-99810000D02*
X152830000Y-105810000D01*
X152830000Y-105810000D02*
X153580000Y-105810000D01*
X153580000Y-105810000D02*
X153580000Y-99810000D01*
X153580000Y-96510000D02*
X152830000Y-96510000D01*
X152830000Y-96510000D02*
X152830000Y-98310000D01*
X152830000Y-98310000D02*
X153580000Y-98310000D01*
X153580000Y-98310000D02*
X153580000Y-96510000D01*
X153580000Y-107310000D02*
X152830000Y-107310000D01*
X152830000Y-107310000D02*
X152830000Y-109110000D01*
X152830000Y-109110000D02*
X153580000Y-109110000D01*
X153580000Y-109110000D02*
X153580000Y-107310000D01*
X151330000Y-96510000D02*
X151330000Y-97260000D01*
X151330000Y-97260000D02*
X148380000Y-97260000D01*
X148380000Y-97260000D02*
X148380000Y-102810000D01*
X151330000Y-109110000D02*
X151330000Y-108360000D01*
X151330000Y-108360000D02*
X148380000Y-108360000D01*
X148380000Y-108360000D02*
X148380000Y-102810000D01*
X153880000Y-97460000D02*
X153880000Y-96210000D01*
X153880000Y-96210000D02*
X152630000Y-96210000D01*
%TO.C,J3*%
X138350000Y-96500000D02*
X132380000Y-96500000D01*
X132380000Y-96500000D02*
X132380000Y-109120000D01*
X132380000Y-109120000D02*
X138350000Y-109120000D01*
X138350000Y-109120000D02*
X138350000Y-96500000D01*
X138340000Y-99810000D02*
X137590000Y-99810000D01*
X137590000Y-99810000D02*
X137590000Y-105810000D01*
X137590000Y-105810000D02*
X138340000Y-105810000D01*
X138340000Y-105810000D02*
X138340000Y-99810000D01*
X138340000Y-96510000D02*
X137590000Y-96510000D01*
X137590000Y-96510000D02*
X137590000Y-98310000D01*
X137590000Y-98310000D02*
X138340000Y-98310000D01*
X138340000Y-98310000D02*
X138340000Y-96510000D01*
X138340000Y-107310000D02*
X137590000Y-107310000D01*
X137590000Y-107310000D02*
X137590000Y-109110000D01*
X137590000Y-109110000D02*
X138340000Y-109110000D01*
X138340000Y-109110000D02*
X138340000Y-107310000D01*
X136090000Y-96510000D02*
X136090000Y-97260000D01*
X136090000Y-97260000D02*
X133140000Y-97260000D01*
X133140000Y-97260000D02*
X133140000Y-102810000D01*
X136090000Y-109110000D02*
X136090000Y-108360000D01*
X136090000Y-108360000D02*
X133140000Y-108360000D01*
X133140000Y-108360000D02*
X133140000Y-102810000D01*
X138640000Y-97460000D02*
X138640000Y-96210000D01*
X138640000Y-96210000D02*
X137390000Y-96210000D01*
%TO.C,J2*%
X123110000Y-96460000D02*
X117140000Y-96460000D01*
X117140000Y-96460000D02*
X117140000Y-109080000D01*
X117140000Y-109080000D02*
X123110000Y-109080000D01*
X123110000Y-109080000D02*
X123110000Y-96460000D01*
X123100000Y-99770000D02*
X122350000Y-99770000D01*
X122350000Y-99770000D02*
X122350000Y-105770000D01*
X122350000Y-105770000D02*
X123100000Y-105770000D01*
X123100000Y-105770000D02*
X123100000Y-99770000D01*
X123100000Y-96470000D02*
X122350000Y-96470000D01*
X122350000Y-96470000D02*
X122350000Y-98270000D01*
X122350000Y-98270000D02*
X123100000Y-98270000D01*
X123100000Y-98270000D02*
X123100000Y-96470000D01*
X123100000Y-107270000D02*
X122350000Y-107270000D01*
X122350000Y-107270000D02*
X122350000Y-109070000D01*
X122350000Y-109070000D02*
X123100000Y-109070000D01*
X123100000Y-109070000D02*
X123100000Y-107270000D01*
X120850000Y-96470000D02*
X120850000Y-97220000D01*
X120850000Y-97220000D02*
X117900000Y-97220000D01*
X117900000Y-97220000D02*
X117900000Y-102770000D01*
X120850000Y-109070000D02*
X120850000Y-108320000D01*
X120850000Y-108320000D02*
X117900000Y-108320000D01*
X117900000Y-108320000D02*
X117900000Y-102770000D01*
X123400000Y-97420000D02*
X123400000Y-96170000D01*
X123400000Y-96170000D02*
X122150000Y-96170000D01*
%TO.C,J1*%
X107870000Y-96500000D02*
X101900000Y-96500000D01*
X101900000Y-96500000D02*
X101900000Y-109120000D01*
X101900000Y-109120000D02*
X107870000Y-109120000D01*
X107870000Y-109120000D02*
X107870000Y-96500000D01*
X107860000Y-99810000D02*
X107110000Y-99810000D01*
X107110000Y-99810000D02*
X107110000Y-105810000D01*
X107110000Y-105810000D02*
X107860000Y-105810000D01*
X107860000Y-105810000D02*
X107860000Y-99810000D01*
X107860000Y-96510000D02*
X107110000Y-96510000D01*
X107110000Y-96510000D02*
X107110000Y-98310000D01*
X107110000Y-98310000D02*
X107860000Y-98310000D01*
X107860000Y-98310000D02*
X107860000Y-96510000D01*
X107860000Y-107310000D02*
X107110000Y-107310000D01*
X107110000Y-107310000D02*
X107110000Y-109110000D01*
X107110000Y-109110000D02*
X107860000Y-109110000D01*
X107860000Y-109110000D02*
X107860000Y-107310000D01*
X105610000Y-96510000D02*
X105610000Y-97260000D01*
X105610000Y-97260000D02*
X102660000Y-97260000D01*
X102660000Y-97260000D02*
X102660000Y-102810000D01*
X105610000Y-109110000D02*
X105610000Y-108360000D01*
X105610000Y-108360000D02*
X102660000Y-108360000D01*
X102660000Y-108360000D02*
X102660000Y-102810000D01*
X108160000Y-97460000D02*
X108160000Y-96210000D01*
X108160000Y-96210000D02*
X106910000Y-96210000D01*
%TO.C,J9*%
D12*
X91547142Y-129301428D02*
X91547142Y-128158571D01*
X91547142Y-118301428D02*
X91547142Y-117158571D01*
X92118571Y-117730000D02*
X90975714Y-117730000D01*
%TO.C,J10*%
X89312380Y-103619523D02*
X90026666Y-103619523D01*
X90169523Y-103667142D01*
X90264761Y-103762380D01*
X90312380Y-103905238D01*
X90312380Y-104000476D01*
X90312380Y-102619523D02*
X90312380Y-103190952D01*
X90312380Y-102905238D02*
X89312380Y-102905238D01*
X89455238Y-103000476D01*
X89550476Y-103095714D01*
X89598095Y-103190952D01*
X89312380Y-102000476D02*
X89312380Y-101905238D01*
X89360000Y-101810000D01*
X89407619Y-101762380D01*
X89502857Y-101714761D01*
X89693333Y-101667142D01*
X89931428Y-101667142D01*
X90121904Y-101714761D01*
X90217142Y-101762380D01*
X90264761Y-101810000D01*
X90312380Y-101905238D01*
X90312380Y-102000476D01*
X90264761Y-102095714D01*
X90217142Y-102143333D01*
X90121904Y-102190952D01*
X89931428Y-102238571D01*
X89693333Y-102238571D01*
X89502857Y-102190952D01*
X89407619Y-102143333D01*
X89360000Y-102095714D01*
X89312380Y-102000476D01*
%TO.C,J8*%
X154132380Y-123463333D02*
X154846666Y-123463333D01*
X154989523Y-123510952D01*
X155084761Y-123606190D01*
X155132380Y-123749047D01*
X155132380Y-123844285D01*
X154560952Y-122844285D02*
X154513333Y-122939523D01*
X154465714Y-122987142D01*
X154370476Y-123034761D01*
X154322857Y-123034761D01*
X154227619Y-122987142D01*
X154180000Y-122939523D01*
X154132380Y-122844285D01*
X154132380Y-122653809D01*
X154180000Y-122558571D01*
X154227619Y-122510952D01*
X154322857Y-122463333D01*
X154370476Y-122463333D01*
X154465714Y-122510952D01*
X154513333Y-122558571D01*
X154560952Y-122653809D01*
X154560952Y-122844285D01*
X154608571Y-122939523D01*
X154656190Y-122987142D01*
X154751428Y-123034761D01*
X154941904Y-123034761D01*
X155037142Y-122987142D01*
X155084761Y-122939523D01*
X155132380Y-122844285D01*
X155132380Y-122653809D01*
X155084761Y-122558571D01*
X155037142Y-122510952D01*
X154941904Y-122463333D01*
X154751428Y-122463333D01*
X154656190Y-122510952D01*
X154608571Y-122558571D01*
X154560952Y-122653809D01*
%TO.C,J7*%
X138892380Y-123463333D02*
X139606666Y-123463333D01*
X139749523Y-123510952D01*
X139844761Y-123606190D01*
X139892380Y-123749047D01*
X139892380Y-123844285D01*
X138892380Y-123082380D02*
X138892380Y-122415714D01*
X139892380Y-122844285D01*
%TO.C,J6*%
X123652380Y-123463333D02*
X124366666Y-123463333D01*
X124509523Y-123510952D01*
X124604761Y-123606190D01*
X124652380Y-123749047D01*
X124652380Y-123844285D01*
X123652380Y-122558571D02*
X123652380Y-122749047D01*
X123700000Y-122844285D01*
X123747619Y-122891904D01*
X123890476Y-122987142D01*
X124080952Y-123034761D01*
X124461904Y-123034761D01*
X124557142Y-122987142D01*
X124604761Y-122939523D01*
X124652380Y-122844285D01*
X124652380Y-122653809D01*
X124604761Y-122558571D01*
X124557142Y-122510952D01*
X124461904Y-122463333D01*
X124223809Y-122463333D01*
X124128571Y-122510952D01*
X124080952Y-122558571D01*
X124033333Y-122653809D01*
X124033333Y-122844285D01*
X124080952Y-122939523D01*
X124128571Y-122987142D01*
X124223809Y-123034761D01*
%TO.C,J5*%
X108412380Y-123463333D02*
X109126666Y-123463333D01*
X109269523Y-123510952D01*
X109364761Y-123606190D01*
X109412380Y-123749047D01*
X109412380Y-123844285D01*
X108412380Y-122510952D02*
X108412380Y-122987142D01*
X108888571Y-123034761D01*
X108840952Y-122987142D01*
X108793333Y-122891904D01*
X108793333Y-122653809D01*
X108840952Y-122558571D01*
X108888571Y-122510952D01*
X108983809Y-122463333D01*
X109221904Y-122463333D01*
X109317142Y-122510952D01*
X109364761Y-122558571D01*
X109412380Y-122653809D01*
X109412380Y-122891904D01*
X109364761Y-122987142D01*
X109317142Y-123034761D01*
%TO.C,J4*%
X154132380Y-103143333D02*
X154846666Y-103143333D01*
X154989523Y-103190952D01*
X155084761Y-103286190D01*
X155132380Y-103429047D01*
X155132380Y-103524285D01*
X154465714Y-102238571D02*
X155132380Y-102238571D01*
X154084761Y-102476666D02*
X154799047Y-102714761D01*
X154799047Y-102095714D01*
%TO.C,J3*%
X138892380Y-103143333D02*
X139606666Y-103143333D01*
X139749523Y-103190952D01*
X139844761Y-103286190D01*
X139892380Y-103429047D01*
X139892380Y-103524285D01*
X138892380Y-102762380D02*
X138892380Y-102143333D01*
X139273333Y-102476666D01*
X139273333Y-102333809D01*
X139320952Y-102238571D01*
X139368571Y-102190952D01*
X139463809Y-102143333D01*
X139701904Y-102143333D01*
X139797142Y-102190952D01*
X139844761Y-102238571D01*
X139892380Y-102333809D01*
X139892380Y-102619523D01*
X139844761Y-102714761D01*
X139797142Y-102762380D01*
%TO.C,J2*%
X123652380Y-103103333D02*
X124366666Y-103103333D01*
X124509523Y-103150952D01*
X124604761Y-103246190D01*
X124652380Y-103389047D01*
X124652380Y-103484285D01*
X123747619Y-102674761D02*
X123700000Y-102627142D01*
X123652380Y-102531904D01*
X123652380Y-102293809D01*
X123700000Y-102198571D01*
X123747619Y-102150952D01*
X123842857Y-102103333D01*
X123938095Y-102103333D01*
X124080952Y-102150952D01*
X124652380Y-102722380D01*
X124652380Y-102103333D01*
%TO.C,J1*%
X108412380Y-103143333D02*
X109126666Y-103143333D01*
X109269523Y-103190952D01*
X109364761Y-103286190D01*
X109412380Y-103429047D01*
X109412380Y-103524285D01*
X109412380Y-102143333D02*
X109412380Y-102714761D01*
X109412380Y-102429047D02*
X108412380Y-102429047D01*
X108555238Y-102524285D01*
X108650476Y-102619523D01*
X108698095Y-102714761D01*
%TD*%
M02*
