%TF.GenerationSoftware,KiCad,Pcbnew,(5.1.9)-1*%
%TF.CreationDate,2021-07-19T11:43:35+01:00*%
%TF.ProjectId,3S-parallel-board,33532d70-6172-4616-9c6c-656c2d626f61,rev?*%
%TF.SameCoordinates,Original*%
%TF.FileFunction,Copper,L1,Top*%
%TF.FilePolarity,Positive*%
%FSLAX46Y46*%
G04 Gerber Fmt 4.6, Leading zero omitted, Abs format (unit mm)*
G04 Created by KiCad (PCBNEW (5.1.9)-1) date 2021-07-19 11:43:35*
%MOMM*%
%LPD*%
G01*
G04 APERTURE LIST*
%TA.AperFunction,ComponentPad*%
%ADD10C,3.500000*%
%TD*%
%TA.AperFunction,ComponentPad*%
%ADD11R,3.500000X3.500000*%
%TD*%
%TA.AperFunction,ComponentPad*%
%ADD12C,1.400000*%
%TD*%
%TA.AperFunction,ComponentPad*%
%ADD13O,1.950000X1.700000*%
%TD*%
%TA.AperFunction,Conductor*%
%ADD14C,2.300000*%
%TD*%
%TA.AperFunction,Conductor*%
%ADD15C,0.254000*%
%TD*%
%TA.AperFunction,Conductor*%
%ADD16C,0.100000*%
%TD*%
G04 APERTURE END LIST*
D10*
%TO.P,J9,2*%
%TO.N,VCC*%
X91440000Y-120730000D03*
D11*
%TO.P,J9,1*%
%TO.N,GND*%
X91440000Y-125730000D03*
D12*
%TO.P,J9,*%
%TO.N,*%
X86440000Y-117730000D03*
X86440000Y-128730000D03*
%TD*%
D13*
%TO.P,J10,4*%
%TO.N,GND*%
X86360000Y-106560000D03*
%TO.P,J10,3*%
%TO.N,Net-(J1-Pad3)*%
X86360000Y-104060000D03*
%TO.P,J10,2*%
%TO.N,Net-(J1-Pad2)*%
X86360000Y-101560000D03*
%TO.P,J10,1*%
%TO.N,VCC*%
%TA.AperFunction,ComponentPad*%
G36*
G01*
X85635000Y-98210000D02*
X87085000Y-98210000D01*
G75*
G02*
X87335000Y-98460000I0J-250000D01*
G01*
X87335000Y-99660000D01*
G75*
G02*
X87085000Y-99910000I-250000J0D01*
G01*
X85635000Y-99910000D01*
G75*
G02*
X85385000Y-99660000I0J250000D01*
G01*
X85385000Y-98460000D01*
G75*
G02*
X85635000Y-98210000I250000J0D01*
G01*
G37*
%TD.AperFunction*%
%TD*%
%TO.P,J8,4*%
%TO.N,GND*%
X151130000Y-126880000D03*
%TO.P,J8,3*%
%TO.N,Net-(J1-Pad3)*%
X151130000Y-124380000D03*
%TO.P,J8,2*%
%TO.N,Net-(J1-Pad2)*%
X151130000Y-121880000D03*
%TO.P,J8,1*%
%TO.N,VCC*%
%TA.AperFunction,ComponentPad*%
G36*
G01*
X150405000Y-118530000D02*
X151855000Y-118530000D01*
G75*
G02*
X152105000Y-118780000I0J-250000D01*
G01*
X152105000Y-119980000D01*
G75*
G02*
X151855000Y-120230000I-250000J0D01*
G01*
X150405000Y-120230000D01*
G75*
G02*
X150155000Y-119980000I0J250000D01*
G01*
X150155000Y-118780000D01*
G75*
G02*
X150405000Y-118530000I250000J0D01*
G01*
G37*
%TD.AperFunction*%
%TD*%
%TO.P,J7,4*%
%TO.N,GND*%
X135890000Y-126880000D03*
%TO.P,J7,3*%
%TO.N,Net-(J1-Pad3)*%
X135890000Y-124380000D03*
%TO.P,J7,2*%
%TO.N,Net-(J1-Pad2)*%
X135890000Y-121880000D03*
%TO.P,J7,1*%
%TO.N,VCC*%
%TA.AperFunction,ComponentPad*%
G36*
G01*
X135165000Y-118530000D02*
X136615000Y-118530000D01*
G75*
G02*
X136865000Y-118780000I0J-250000D01*
G01*
X136865000Y-119980000D01*
G75*
G02*
X136615000Y-120230000I-250000J0D01*
G01*
X135165000Y-120230000D01*
G75*
G02*
X134915000Y-119980000I0J250000D01*
G01*
X134915000Y-118780000D01*
G75*
G02*
X135165000Y-118530000I250000J0D01*
G01*
G37*
%TD.AperFunction*%
%TD*%
%TO.P,J6,4*%
%TO.N,GND*%
X120650000Y-126880000D03*
%TO.P,J6,3*%
%TO.N,Net-(J1-Pad3)*%
X120650000Y-124380000D03*
%TO.P,J6,2*%
%TO.N,Net-(J1-Pad2)*%
X120650000Y-121880000D03*
%TO.P,J6,1*%
%TO.N,VCC*%
%TA.AperFunction,ComponentPad*%
G36*
G01*
X119925000Y-118530000D02*
X121375000Y-118530000D01*
G75*
G02*
X121625000Y-118780000I0J-250000D01*
G01*
X121625000Y-119980000D01*
G75*
G02*
X121375000Y-120230000I-250000J0D01*
G01*
X119925000Y-120230000D01*
G75*
G02*
X119675000Y-119980000I0J250000D01*
G01*
X119675000Y-118780000D01*
G75*
G02*
X119925000Y-118530000I250000J0D01*
G01*
G37*
%TD.AperFunction*%
%TD*%
%TO.P,J5,4*%
%TO.N,GND*%
X105410000Y-126880000D03*
%TO.P,J5,3*%
%TO.N,Net-(J1-Pad3)*%
X105410000Y-124380000D03*
%TO.P,J5,2*%
%TO.N,Net-(J1-Pad2)*%
X105410000Y-121880000D03*
%TO.P,J5,1*%
%TO.N,VCC*%
%TA.AperFunction,ComponentPad*%
G36*
G01*
X104685000Y-118530000D02*
X106135000Y-118530000D01*
G75*
G02*
X106385000Y-118780000I0J-250000D01*
G01*
X106385000Y-119980000D01*
G75*
G02*
X106135000Y-120230000I-250000J0D01*
G01*
X104685000Y-120230000D01*
G75*
G02*
X104435000Y-119980000I0J250000D01*
G01*
X104435000Y-118780000D01*
G75*
G02*
X104685000Y-118530000I250000J0D01*
G01*
G37*
%TD.AperFunction*%
%TD*%
%TO.P,J4,4*%
%TO.N,GND*%
X151130000Y-106560000D03*
%TO.P,J4,3*%
%TO.N,Net-(J1-Pad3)*%
X151130000Y-104060000D03*
%TO.P,J4,2*%
%TO.N,Net-(J1-Pad2)*%
X151130000Y-101560000D03*
%TO.P,J4,1*%
%TO.N,VCC*%
%TA.AperFunction,ComponentPad*%
G36*
G01*
X150405000Y-98210000D02*
X151855000Y-98210000D01*
G75*
G02*
X152105000Y-98460000I0J-250000D01*
G01*
X152105000Y-99660000D01*
G75*
G02*
X151855000Y-99910000I-250000J0D01*
G01*
X150405000Y-99910000D01*
G75*
G02*
X150155000Y-99660000I0J250000D01*
G01*
X150155000Y-98460000D01*
G75*
G02*
X150405000Y-98210000I250000J0D01*
G01*
G37*
%TD.AperFunction*%
%TD*%
%TO.P,J3,4*%
%TO.N,GND*%
X135890000Y-106560000D03*
%TO.P,J3,3*%
%TO.N,Net-(J1-Pad3)*%
X135890000Y-104060000D03*
%TO.P,J3,2*%
%TO.N,Net-(J1-Pad2)*%
X135890000Y-101560000D03*
%TO.P,J3,1*%
%TO.N,VCC*%
%TA.AperFunction,ComponentPad*%
G36*
G01*
X135165000Y-98210000D02*
X136615000Y-98210000D01*
G75*
G02*
X136865000Y-98460000I0J-250000D01*
G01*
X136865000Y-99660000D01*
G75*
G02*
X136615000Y-99910000I-250000J0D01*
G01*
X135165000Y-99910000D01*
G75*
G02*
X134915000Y-99660000I0J250000D01*
G01*
X134915000Y-98460000D01*
G75*
G02*
X135165000Y-98210000I250000J0D01*
G01*
G37*
%TD.AperFunction*%
%TD*%
%TO.P,J2,4*%
%TO.N,GND*%
X120650000Y-106520000D03*
%TO.P,J2,3*%
%TO.N,Net-(J1-Pad3)*%
X120650000Y-104020000D03*
%TO.P,J2,2*%
%TO.N,Net-(J1-Pad2)*%
X120650000Y-101520000D03*
%TO.P,J2,1*%
%TO.N,VCC*%
%TA.AperFunction,ComponentPad*%
G36*
G01*
X119925000Y-98170000D02*
X121375000Y-98170000D01*
G75*
G02*
X121625000Y-98420000I0J-250000D01*
G01*
X121625000Y-99620000D01*
G75*
G02*
X121375000Y-99870000I-250000J0D01*
G01*
X119925000Y-99870000D01*
G75*
G02*
X119675000Y-99620000I0J250000D01*
G01*
X119675000Y-98420000D01*
G75*
G02*
X119925000Y-98170000I250000J0D01*
G01*
G37*
%TD.AperFunction*%
%TD*%
%TO.P,J1,4*%
%TO.N,GND*%
X105410000Y-106560000D03*
%TO.P,J1,3*%
%TO.N,Net-(J1-Pad3)*%
X105410000Y-104060000D03*
%TO.P,J1,2*%
%TO.N,Net-(J1-Pad2)*%
X105410000Y-101560000D03*
%TO.P,J1,1*%
%TO.N,VCC*%
%TA.AperFunction,ComponentPad*%
G36*
G01*
X104685000Y-98210000D02*
X106135000Y-98210000D01*
G75*
G02*
X106385000Y-98460000I0J-250000D01*
G01*
X106385000Y-99660000D01*
G75*
G02*
X106135000Y-99910000I-250000J0D01*
G01*
X104685000Y-99910000D01*
G75*
G02*
X104435000Y-99660000I0J250000D01*
G01*
X104435000Y-98460000D01*
G75*
G02*
X104685000Y-98210000I250000J0D01*
G01*
G37*
%TD.AperFunction*%
%TD*%
D14*
%TO.N,Net-(J1-Pad2)*%
X86360000Y-101560000D02*
X151130000Y-101560000D01*
X152217758Y-121880000D02*
X151130000Y-121880000D01*
X153455010Y-120642748D02*
X152217758Y-121880000D01*
X153455010Y-103148727D02*
X153455010Y-120642748D01*
X151866283Y-101560000D02*
X153455010Y-103148727D01*
X151130000Y-101560000D02*
X151866283Y-101560000D01*
X151130000Y-121880000D02*
X105410000Y-121880000D01*
%TO.N,Net-(J1-Pad3)*%
X150830735Y-104060000D02*
X150955000Y-104184265D01*
X86360000Y-104060000D02*
X150830735Y-104060000D01*
X151130000Y-124380000D02*
X105410000Y-124380000D01*
%TD*%
D15*
%TO.N,VCC*%
X159360001Y-131420000D02*
X76860000Y-131420000D01*
X76860000Y-128598514D01*
X85105000Y-128598514D01*
X85105000Y-128861486D01*
X85156304Y-129119405D01*
X85256939Y-129362359D01*
X85403038Y-129581013D01*
X85588987Y-129766962D01*
X85807641Y-129913061D01*
X86050595Y-130013696D01*
X86308514Y-130065000D01*
X86571486Y-130065000D01*
X86829405Y-130013696D01*
X87072359Y-129913061D01*
X87291013Y-129766962D01*
X87476962Y-129581013D01*
X87623061Y-129362359D01*
X87723696Y-129119405D01*
X87775000Y-128861486D01*
X87775000Y-128598514D01*
X87723696Y-128340595D01*
X87623061Y-128097641D01*
X87476962Y-127878987D01*
X87291013Y-127693038D01*
X87072359Y-127546939D01*
X86829405Y-127446304D01*
X86571486Y-127395000D01*
X86308514Y-127395000D01*
X86050595Y-127446304D01*
X85807641Y-127546939D01*
X85588987Y-127693038D01*
X85403038Y-127878987D01*
X85256939Y-128097641D01*
X85156304Y-128340595D01*
X85105000Y-128598514D01*
X76860000Y-128598514D01*
X76860000Y-123980000D01*
X89051928Y-123980000D01*
X89051928Y-127480000D01*
X89064188Y-127604482D01*
X89100498Y-127724180D01*
X89159463Y-127834494D01*
X89238815Y-127931185D01*
X89335506Y-128010537D01*
X89445820Y-128069502D01*
X89565518Y-128105812D01*
X89690000Y-128118072D01*
X93190000Y-128118072D01*
X93314482Y-128105812D01*
X93434180Y-128069502D01*
X93544494Y-128010537D01*
X93641185Y-127931185D01*
X93720537Y-127834494D01*
X93779502Y-127724180D01*
X93815812Y-127604482D01*
X93828072Y-127480000D01*
X93828072Y-123980000D01*
X93815812Y-123855518D01*
X93779502Y-123735820D01*
X93720537Y-123625506D01*
X93641185Y-123528815D01*
X93544494Y-123449463D01*
X93434180Y-123390498D01*
X93314482Y-123354188D01*
X93190000Y-123341928D01*
X89690000Y-123341928D01*
X89565518Y-123354188D01*
X89445820Y-123390498D01*
X89335506Y-123449463D01*
X89238815Y-123528815D01*
X89159463Y-123625506D01*
X89100498Y-123735820D01*
X89064188Y-123855518D01*
X89051928Y-123980000D01*
X76860000Y-123980000D01*
X76860000Y-117598514D01*
X85105000Y-117598514D01*
X85105000Y-117861486D01*
X85156304Y-118119405D01*
X85256939Y-118362359D01*
X85403038Y-118581013D01*
X85588987Y-118766962D01*
X85807641Y-118913061D01*
X86050595Y-119013696D01*
X86308514Y-119065000D01*
X86571486Y-119065000D01*
X86829405Y-119013696D01*
X87072359Y-118913061D01*
X87291013Y-118766962D01*
X87476962Y-118581013D01*
X87623061Y-118362359D01*
X87723696Y-118119405D01*
X87775000Y-117861486D01*
X87775000Y-117598514D01*
X87723696Y-117340595D01*
X87623061Y-117097641D01*
X87476962Y-116878987D01*
X87291013Y-116693038D01*
X87072359Y-116546939D01*
X86829405Y-116446304D01*
X86571486Y-116395000D01*
X86308514Y-116395000D01*
X86050595Y-116446304D01*
X85807641Y-116546939D01*
X85588987Y-116693038D01*
X85403038Y-116878987D01*
X85256939Y-117097641D01*
X85156304Y-117340595D01*
X85105000Y-117598514D01*
X76860000Y-117598514D01*
X76860000Y-101560000D01*
X84566364Y-101560000D01*
X84600828Y-101909921D01*
X84702896Y-102246395D01*
X84868646Y-102556491D01*
X85076696Y-102810000D01*
X84868646Y-103063509D01*
X84702896Y-103373605D01*
X84600828Y-103710079D01*
X84566364Y-104060000D01*
X84600828Y-104409921D01*
X84702896Y-104746395D01*
X84868646Y-105056491D01*
X85091708Y-105328292D01*
X85243365Y-105452754D01*
X85179866Y-105504866D01*
X84994294Y-105730986D01*
X84856401Y-105988966D01*
X84771487Y-106268889D01*
X84742815Y-106560000D01*
X84771487Y-106851111D01*
X84856401Y-107131034D01*
X84994294Y-107389014D01*
X85179866Y-107615134D01*
X85405986Y-107800706D01*
X85663966Y-107938599D01*
X85943889Y-108023513D01*
X86162050Y-108045000D01*
X86557950Y-108045000D01*
X86776111Y-108023513D01*
X87056034Y-107938599D01*
X87314014Y-107800706D01*
X87540134Y-107615134D01*
X87725706Y-107389014D01*
X87863599Y-107131034D01*
X87948513Y-106851111D01*
X87977185Y-106560000D01*
X87948513Y-106268889D01*
X87863599Y-105988966D01*
X87786648Y-105845000D01*
X103983352Y-105845000D01*
X103906401Y-105988966D01*
X103821487Y-106268889D01*
X103792815Y-106560000D01*
X103821487Y-106851111D01*
X103906401Y-107131034D01*
X104044294Y-107389014D01*
X104229866Y-107615134D01*
X104455986Y-107800706D01*
X104713966Y-107938599D01*
X104993889Y-108023513D01*
X105212050Y-108045000D01*
X105607950Y-108045000D01*
X105826111Y-108023513D01*
X106106034Y-107938599D01*
X106364014Y-107800706D01*
X106590134Y-107615134D01*
X106775706Y-107389014D01*
X106913599Y-107131034D01*
X106998513Y-106851111D01*
X107027185Y-106560000D01*
X106998513Y-106268889D01*
X106913599Y-105988966D01*
X106836648Y-105845000D01*
X119201972Y-105845000D01*
X119146401Y-105948966D01*
X119061487Y-106228889D01*
X119032815Y-106520000D01*
X119061487Y-106811111D01*
X119146401Y-107091034D01*
X119284294Y-107349014D01*
X119469866Y-107575134D01*
X119695986Y-107760706D01*
X119953966Y-107898599D01*
X120233889Y-107983513D01*
X120452050Y-108005000D01*
X120847950Y-108005000D01*
X121066111Y-107983513D01*
X121346034Y-107898599D01*
X121604014Y-107760706D01*
X121830134Y-107575134D01*
X122015706Y-107349014D01*
X122153599Y-107091034D01*
X122238513Y-106811111D01*
X122267185Y-106520000D01*
X122238513Y-106228889D01*
X122153599Y-105948966D01*
X122098028Y-105845000D01*
X134463352Y-105845000D01*
X134386401Y-105988966D01*
X134301487Y-106268889D01*
X134272815Y-106560000D01*
X134301487Y-106851111D01*
X134386401Y-107131034D01*
X134524294Y-107389014D01*
X134709866Y-107615134D01*
X134935986Y-107800706D01*
X135193966Y-107938599D01*
X135473889Y-108023513D01*
X135692050Y-108045000D01*
X136087950Y-108045000D01*
X136306111Y-108023513D01*
X136586034Y-107938599D01*
X136844014Y-107800706D01*
X137070134Y-107615134D01*
X137255706Y-107389014D01*
X137393599Y-107131034D01*
X137478513Y-106851111D01*
X137507185Y-106560000D01*
X137478513Y-106268889D01*
X137393599Y-105988966D01*
X137316648Y-105845000D01*
X149703352Y-105845000D01*
X149626401Y-105988966D01*
X149541487Y-106268889D01*
X149512815Y-106560000D01*
X149541487Y-106851111D01*
X149626401Y-107131034D01*
X149764294Y-107389014D01*
X149949866Y-107615134D01*
X150175986Y-107800706D01*
X150433966Y-107938599D01*
X150713889Y-108023513D01*
X150932050Y-108045000D01*
X151327950Y-108045000D01*
X151546111Y-108023513D01*
X151670010Y-107985928D01*
X151670011Y-119903376D01*
X151478387Y-120095000D01*
X105322317Y-120095000D01*
X105060079Y-120120828D01*
X104723605Y-120222896D01*
X104413509Y-120388646D01*
X104141708Y-120611708D01*
X103918646Y-120883509D01*
X103752896Y-121193605D01*
X103650828Y-121530079D01*
X103616364Y-121880000D01*
X103650828Y-122229921D01*
X103752896Y-122566395D01*
X103918646Y-122876491D01*
X104126696Y-123130000D01*
X103918646Y-123383509D01*
X103752896Y-123693605D01*
X103650828Y-124030079D01*
X103616364Y-124380000D01*
X103650828Y-124729921D01*
X103752896Y-125066395D01*
X103918646Y-125376491D01*
X104141708Y-125648292D01*
X104293365Y-125772754D01*
X104229866Y-125824866D01*
X104044294Y-126050986D01*
X103906401Y-126308966D01*
X103821487Y-126588889D01*
X103792815Y-126880000D01*
X103821487Y-127171111D01*
X103906401Y-127451034D01*
X104044294Y-127709014D01*
X104229866Y-127935134D01*
X104455986Y-128120706D01*
X104713966Y-128258599D01*
X104993889Y-128343513D01*
X105212050Y-128365000D01*
X105607950Y-128365000D01*
X105826111Y-128343513D01*
X106106034Y-128258599D01*
X106364014Y-128120706D01*
X106590134Y-127935134D01*
X106775706Y-127709014D01*
X106913599Y-127451034D01*
X106998513Y-127171111D01*
X107027185Y-126880000D01*
X106998513Y-126588889D01*
X106913599Y-126308966D01*
X106836648Y-126165000D01*
X119223352Y-126165000D01*
X119146401Y-126308966D01*
X119061487Y-126588889D01*
X119032815Y-126880000D01*
X119061487Y-127171111D01*
X119146401Y-127451034D01*
X119284294Y-127709014D01*
X119469866Y-127935134D01*
X119695986Y-128120706D01*
X119953966Y-128258599D01*
X120233889Y-128343513D01*
X120452050Y-128365000D01*
X120847950Y-128365000D01*
X121066111Y-128343513D01*
X121346034Y-128258599D01*
X121604014Y-128120706D01*
X121830134Y-127935134D01*
X122015706Y-127709014D01*
X122153599Y-127451034D01*
X122238513Y-127171111D01*
X122267185Y-126880000D01*
X122238513Y-126588889D01*
X122153599Y-126308966D01*
X122076648Y-126165000D01*
X134463352Y-126165000D01*
X134386401Y-126308966D01*
X134301487Y-126588889D01*
X134272815Y-126880000D01*
X134301487Y-127171111D01*
X134386401Y-127451034D01*
X134524294Y-127709014D01*
X134709866Y-127935134D01*
X134935986Y-128120706D01*
X135193966Y-128258599D01*
X135473889Y-128343513D01*
X135692050Y-128365000D01*
X136087950Y-128365000D01*
X136306111Y-128343513D01*
X136586034Y-128258599D01*
X136844014Y-128120706D01*
X137070134Y-127935134D01*
X137255706Y-127709014D01*
X137393599Y-127451034D01*
X137478513Y-127171111D01*
X137507185Y-126880000D01*
X137478513Y-126588889D01*
X137393599Y-126308966D01*
X137316648Y-126165000D01*
X149703352Y-126165000D01*
X149626401Y-126308966D01*
X149541487Y-126588889D01*
X149512815Y-126880000D01*
X149541487Y-127171111D01*
X149626401Y-127451034D01*
X149764294Y-127709014D01*
X149949866Y-127935134D01*
X150175986Y-128120706D01*
X150433966Y-128258599D01*
X150713889Y-128343513D01*
X150932050Y-128365000D01*
X151327950Y-128365000D01*
X151546111Y-128343513D01*
X151826034Y-128258599D01*
X152084014Y-128120706D01*
X152310134Y-127935134D01*
X152495706Y-127709014D01*
X152633599Y-127451034D01*
X152718513Y-127171111D01*
X152747185Y-126880000D01*
X152718513Y-126588889D01*
X152633599Y-126308966D01*
X152495706Y-126050986D01*
X152310134Y-125824866D01*
X152246635Y-125772754D01*
X152398292Y-125648292D01*
X152621354Y-125376491D01*
X152787104Y-125066395D01*
X152889172Y-124729921D01*
X152923636Y-124380000D01*
X152889172Y-124030079D01*
X152787104Y-123693605D01*
X152731454Y-123589492D01*
X152904153Y-123537104D01*
X153214249Y-123371354D01*
X153486050Y-123148292D01*
X153541949Y-123080180D01*
X154655199Y-121966931D01*
X154723302Y-121911040D01*
X154779192Y-121842938D01*
X154779197Y-121842933D01*
X154946364Y-121639239D01*
X155112114Y-121329143D01*
X155214182Y-120992669D01*
X155248646Y-120642748D01*
X155240010Y-120555065D01*
X155240010Y-103236399D01*
X155248645Y-103148726D01*
X155240010Y-103061053D01*
X155240010Y-103061044D01*
X155214182Y-102798806D01*
X155112114Y-102462332D01*
X154946364Y-102152236D01*
X154723302Y-101880435D01*
X154655195Y-101824541D01*
X153190474Y-100359821D01*
X153134575Y-100291708D01*
X152862774Y-100068646D01*
X152552678Y-99902896D01*
X152216204Y-99800828D01*
X151953966Y-99775000D01*
X151953958Y-99775000D01*
X151866283Y-99766365D01*
X151778608Y-99775000D01*
X86272317Y-99775000D01*
X86010079Y-99800828D01*
X85673605Y-99902896D01*
X85363509Y-100068646D01*
X85091708Y-100291708D01*
X84868646Y-100563509D01*
X84702896Y-100873605D01*
X84600828Y-101210079D01*
X84566364Y-101560000D01*
X76860000Y-101560000D01*
X76860000Y-94640000D01*
X159360000Y-94640000D01*
X159360001Y-131420000D01*
%TA.AperFunction,Conductor*%
D16*
G36*
X159360001Y-131420000D02*
G01*
X76860000Y-131420000D01*
X76860000Y-128598514D01*
X85105000Y-128598514D01*
X85105000Y-128861486D01*
X85156304Y-129119405D01*
X85256939Y-129362359D01*
X85403038Y-129581013D01*
X85588987Y-129766962D01*
X85807641Y-129913061D01*
X86050595Y-130013696D01*
X86308514Y-130065000D01*
X86571486Y-130065000D01*
X86829405Y-130013696D01*
X87072359Y-129913061D01*
X87291013Y-129766962D01*
X87476962Y-129581013D01*
X87623061Y-129362359D01*
X87723696Y-129119405D01*
X87775000Y-128861486D01*
X87775000Y-128598514D01*
X87723696Y-128340595D01*
X87623061Y-128097641D01*
X87476962Y-127878987D01*
X87291013Y-127693038D01*
X87072359Y-127546939D01*
X86829405Y-127446304D01*
X86571486Y-127395000D01*
X86308514Y-127395000D01*
X86050595Y-127446304D01*
X85807641Y-127546939D01*
X85588987Y-127693038D01*
X85403038Y-127878987D01*
X85256939Y-128097641D01*
X85156304Y-128340595D01*
X85105000Y-128598514D01*
X76860000Y-128598514D01*
X76860000Y-123980000D01*
X89051928Y-123980000D01*
X89051928Y-127480000D01*
X89064188Y-127604482D01*
X89100498Y-127724180D01*
X89159463Y-127834494D01*
X89238815Y-127931185D01*
X89335506Y-128010537D01*
X89445820Y-128069502D01*
X89565518Y-128105812D01*
X89690000Y-128118072D01*
X93190000Y-128118072D01*
X93314482Y-128105812D01*
X93434180Y-128069502D01*
X93544494Y-128010537D01*
X93641185Y-127931185D01*
X93720537Y-127834494D01*
X93779502Y-127724180D01*
X93815812Y-127604482D01*
X93828072Y-127480000D01*
X93828072Y-123980000D01*
X93815812Y-123855518D01*
X93779502Y-123735820D01*
X93720537Y-123625506D01*
X93641185Y-123528815D01*
X93544494Y-123449463D01*
X93434180Y-123390498D01*
X93314482Y-123354188D01*
X93190000Y-123341928D01*
X89690000Y-123341928D01*
X89565518Y-123354188D01*
X89445820Y-123390498D01*
X89335506Y-123449463D01*
X89238815Y-123528815D01*
X89159463Y-123625506D01*
X89100498Y-123735820D01*
X89064188Y-123855518D01*
X89051928Y-123980000D01*
X76860000Y-123980000D01*
X76860000Y-117598514D01*
X85105000Y-117598514D01*
X85105000Y-117861486D01*
X85156304Y-118119405D01*
X85256939Y-118362359D01*
X85403038Y-118581013D01*
X85588987Y-118766962D01*
X85807641Y-118913061D01*
X86050595Y-119013696D01*
X86308514Y-119065000D01*
X86571486Y-119065000D01*
X86829405Y-119013696D01*
X87072359Y-118913061D01*
X87291013Y-118766962D01*
X87476962Y-118581013D01*
X87623061Y-118362359D01*
X87723696Y-118119405D01*
X87775000Y-117861486D01*
X87775000Y-117598514D01*
X87723696Y-117340595D01*
X87623061Y-117097641D01*
X87476962Y-116878987D01*
X87291013Y-116693038D01*
X87072359Y-116546939D01*
X86829405Y-116446304D01*
X86571486Y-116395000D01*
X86308514Y-116395000D01*
X86050595Y-116446304D01*
X85807641Y-116546939D01*
X85588987Y-116693038D01*
X85403038Y-116878987D01*
X85256939Y-117097641D01*
X85156304Y-117340595D01*
X85105000Y-117598514D01*
X76860000Y-117598514D01*
X76860000Y-101560000D01*
X84566364Y-101560000D01*
X84600828Y-101909921D01*
X84702896Y-102246395D01*
X84868646Y-102556491D01*
X85076696Y-102810000D01*
X84868646Y-103063509D01*
X84702896Y-103373605D01*
X84600828Y-103710079D01*
X84566364Y-104060000D01*
X84600828Y-104409921D01*
X84702896Y-104746395D01*
X84868646Y-105056491D01*
X85091708Y-105328292D01*
X85243365Y-105452754D01*
X85179866Y-105504866D01*
X84994294Y-105730986D01*
X84856401Y-105988966D01*
X84771487Y-106268889D01*
X84742815Y-106560000D01*
X84771487Y-106851111D01*
X84856401Y-107131034D01*
X84994294Y-107389014D01*
X85179866Y-107615134D01*
X85405986Y-107800706D01*
X85663966Y-107938599D01*
X85943889Y-108023513D01*
X86162050Y-108045000D01*
X86557950Y-108045000D01*
X86776111Y-108023513D01*
X87056034Y-107938599D01*
X87314014Y-107800706D01*
X87540134Y-107615134D01*
X87725706Y-107389014D01*
X87863599Y-107131034D01*
X87948513Y-106851111D01*
X87977185Y-106560000D01*
X87948513Y-106268889D01*
X87863599Y-105988966D01*
X87786648Y-105845000D01*
X103983352Y-105845000D01*
X103906401Y-105988966D01*
X103821487Y-106268889D01*
X103792815Y-106560000D01*
X103821487Y-106851111D01*
X103906401Y-107131034D01*
X104044294Y-107389014D01*
X104229866Y-107615134D01*
X104455986Y-107800706D01*
X104713966Y-107938599D01*
X104993889Y-108023513D01*
X105212050Y-108045000D01*
X105607950Y-108045000D01*
X105826111Y-108023513D01*
X106106034Y-107938599D01*
X106364014Y-107800706D01*
X106590134Y-107615134D01*
X106775706Y-107389014D01*
X106913599Y-107131034D01*
X106998513Y-106851111D01*
X107027185Y-106560000D01*
X106998513Y-106268889D01*
X106913599Y-105988966D01*
X106836648Y-105845000D01*
X119201972Y-105845000D01*
X119146401Y-105948966D01*
X119061487Y-106228889D01*
X119032815Y-106520000D01*
X119061487Y-106811111D01*
X119146401Y-107091034D01*
X119284294Y-107349014D01*
X119469866Y-107575134D01*
X119695986Y-107760706D01*
X119953966Y-107898599D01*
X120233889Y-107983513D01*
X120452050Y-108005000D01*
X120847950Y-108005000D01*
X121066111Y-107983513D01*
X121346034Y-107898599D01*
X121604014Y-107760706D01*
X121830134Y-107575134D01*
X122015706Y-107349014D01*
X122153599Y-107091034D01*
X122238513Y-106811111D01*
X122267185Y-106520000D01*
X122238513Y-106228889D01*
X122153599Y-105948966D01*
X122098028Y-105845000D01*
X134463352Y-105845000D01*
X134386401Y-105988966D01*
X134301487Y-106268889D01*
X134272815Y-106560000D01*
X134301487Y-106851111D01*
X134386401Y-107131034D01*
X134524294Y-107389014D01*
X134709866Y-107615134D01*
X134935986Y-107800706D01*
X135193966Y-107938599D01*
X135473889Y-108023513D01*
X135692050Y-108045000D01*
X136087950Y-108045000D01*
X136306111Y-108023513D01*
X136586034Y-107938599D01*
X136844014Y-107800706D01*
X137070134Y-107615134D01*
X137255706Y-107389014D01*
X137393599Y-107131034D01*
X137478513Y-106851111D01*
X137507185Y-106560000D01*
X137478513Y-106268889D01*
X137393599Y-105988966D01*
X137316648Y-105845000D01*
X149703352Y-105845000D01*
X149626401Y-105988966D01*
X149541487Y-106268889D01*
X149512815Y-106560000D01*
X149541487Y-106851111D01*
X149626401Y-107131034D01*
X149764294Y-107389014D01*
X149949866Y-107615134D01*
X150175986Y-107800706D01*
X150433966Y-107938599D01*
X150713889Y-108023513D01*
X150932050Y-108045000D01*
X151327950Y-108045000D01*
X151546111Y-108023513D01*
X151670010Y-107985928D01*
X151670011Y-119903376D01*
X151478387Y-120095000D01*
X105322317Y-120095000D01*
X105060079Y-120120828D01*
X104723605Y-120222896D01*
X104413509Y-120388646D01*
X104141708Y-120611708D01*
X103918646Y-120883509D01*
X103752896Y-121193605D01*
X103650828Y-121530079D01*
X103616364Y-121880000D01*
X103650828Y-122229921D01*
X103752896Y-122566395D01*
X103918646Y-122876491D01*
X104126696Y-123130000D01*
X103918646Y-123383509D01*
X103752896Y-123693605D01*
X103650828Y-124030079D01*
X103616364Y-124380000D01*
X103650828Y-124729921D01*
X103752896Y-125066395D01*
X103918646Y-125376491D01*
X104141708Y-125648292D01*
X104293365Y-125772754D01*
X104229866Y-125824866D01*
X104044294Y-126050986D01*
X103906401Y-126308966D01*
X103821487Y-126588889D01*
X103792815Y-126880000D01*
X103821487Y-127171111D01*
X103906401Y-127451034D01*
X104044294Y-127709014D01*
X104229866Y-127935134D01*
X104455986Y-128120706D01*
X104713966Y-128258599D01*
X104993889Y-128343513D01*
X105212050Y-128365000D01*
X105607950Y-128365000D01*
X105826111Y-128343513D01*
X106106034Y-128258599D01*
X106364014Y-128120706D01*
X106590134Y-127935134D01*
X106775706Y-127709014D01*
X106913599Y-127451034D01*
X106998513Y-127171111D01*
X107027185Y-126880000D01*
X106998513Y-126588889D01*
X106913599Y-126308966D01*
X106836648Y-126165000D01*
X119223352Y-126165000D01*
X119146401Y-126308966D01*
X119061487Y-126588889D01*
X119032815Y-126880000D01*
X119061487Y-127171111D01*
X119146401Y-127451034D01*
X119284294Y-127709014D01*
X119469866Y-127935134D01*
X119695986Y-128120706D01*
X119953966Y-128258599D01*
X120233889Y-128343513D01*
X120452050Y-128365000D01*
X120847950Y-128365000D01*
X121066111Y-128343513D01*
X121346034Y-128258599D01*
X121604014Y-128120706D01*
X121830134Y-127935134D01*
X122015706Y-127709014D01*
X122153599Y-127451034D01*
X122238513Y-127171111D01*
X122267185Y-126880000D01*
X122238513Y-126588889D01*
X122153599Y-126308966D01*
X122076648Y-126165000D01*
X134463352Y-126165000D01*
X134386401Y-126308966D01*
X134301487Y-126588889D01*
X134272815Y-126880000D01*
X134301487Y-127171111D01*
X134386401Y-127451034D01*
X134524294Y-127709014D01*
X134709866Y-127935134D01*
X134935986Y-128120706D01*
X135193966Y-128258599D01*
X135473889Y-128343513D01*
X135692050Y-128365000D01*
X136087950Y-128365000D01*
X136306111Y-128343513D01*
X136586034Y-128258599D01*
X136844014Y-128120706D01*
X137070134Y-127935134D01*
X137255706Y-127709014D01*
X137393599Y-127451034D01*
X137478513Y-127171111D01*
X137507185Y-126880000D01*
X137478513Y-126588889D01*
X137393599Y-126308966D01*
X137316648Y-126165000D01*
X149703352Y-126165000D01*
X149626401Y-126308966D01*
X149541487Y-126588889D01*
X149512815Y-126880000D01*
X149541487Y-127171111D01*
X149626401Y-127451034D01*
X149764294Y-127709014D01*
X149949866Y-127935134D01*
X150175986Y-128120706D01*
X150433966Y-128258599D01*
X150713889Y-128343513D01*
X150932050Y-128365000D01*
X151327950Y-128365000D01*
X151546111Y-128343513D01*
X151826034Y-128258599D01*
X152084014Y-128120706D01*
X152310134Y-127935134D01*
X152495706Y-127709014D01*
X152633599Y-127451034D01*
X152718513Y-127171111D01*
X152747185Y-126880000D01*
X152718513Y-126588889D01*
X152633599Y-126308966D01*
X152495706Y-126050986D01*
X152310134Y-125824866D01*
X152246635Y-125772754D01*
X152398292Y-125648292D01*
X152621354Y-125376491D01*
X152787104Y-125066395D01*
X152889172Y-124729921D01*
X152923636Y-124380000D01*
X152889172Y-124030079D01*
X152787104Y-123693605D01*
X152731454Y-123589492D01*
X152904153Y-123537104D01*
X153214249Y-123371354D01*
X153486050Y-123148292D01*
X153541949Y-123080180D01*
X154655199Y-121966931D01*
X154723302Y-121911040D01*
X154779192Y-121842938D01*
X154779197Y-121842933D01*
X154946364Y-121639239D01*
X155112114Y-121329143D01*
X155214182Y-120992669D01*
X155248646Y-120642748D01*
X155240010Y-120555065D01*
X155240010Y-103236399D01*
X155248645Y-103148726D01*
X155240010Y-103061053D01*
X155240010Y-103061044D01*
X155214182Y-102798806D01*
X155112114Y-102462332D01*
X154946364Y-102152236D01*
X154723302Y-101880435D01*
X154655195Y-101824541D01*
X153190474Y-100359821D01*
X153134575Y-100291708D01*
X152862774Y-100068646D01*
X152552678Y-99902896D01*
X152216204Y-99800828D01*
X151953966Y-99775000D01*
X151953958Y-99775000D01*
X151866283Y-99766365D01*
X151778608Y-99775000D01*
X86272317Y-99775000D01*
X86010079Y-99800828D01*
X85673605Y-99902896D01*
X85363509Y-100068646D01*
X85091708Y-100291708D01*
X84868646Y-100563509D01*
X84702896Y-100873605D01*
X84600828Y-101210079D01*
X84566364Y-101560000D01*
X76860000Y-101560000D01*
X76860000Y-94640000D01*
X159360000Y-94640000D01*
X159360001Y-131420000D01*
G37*
%TD.AperFunction*%
%TD*%
M02*
