M48
; DRILL file {KiCad (5.1.9)-1} date 05/31/22 00:32:47
; FORMAT={-:-/ absolute / inch / decimal}
; #@! TF.CreationDate,2022-05-31T00:32:47+01:00
; #@! TF.GenerationSoftware,Kicad,Pcbnew,(5.1.9)-1
FMAT,2
INCH
T1C0.0157
T2C0.0236
T3C0.0287
T4C0.0394
T5C0.0866
%
G90
G05
T1
X4.59Y-4.17
T2
X4.09Y-4.96
X4.24Y-4.96
X4.39Y-4.96
X4.55Y-4.96
X4.55Y-5.06
X4.75Y-5.16
X4.85Y-5.16
T3
X4.09Y-5.0719
X4.09Y-5.1309
X4.09Y-5.19
X4.24Y-5.0719
X4.24Y-5.1309
X4.24Y-5.19
X4.39Y-5.0719
X4.39Y-5.1309
X4.39Y-5.19
T4
X4.65Y-4.96
X4.65Y-5.06
X4.75Y-4.96
X4.75Y-5.06
X4.85Y-4.96
X4.85Y-5.06
T5
X4.0392Y-4.0306
X4.0392Y-4.818
X4.8266Y-4.0306
X4.8266Y-4.818
T0
M30
