%TF.GenerationSoftware,KiCad,Pcbnew,(5.1.9)-1*%
%TF.CreationDate,2022-05-31T00:32:49+01:00*%
%TF.ProjectId,board,626f6172-642e-46b6-9963-61645f706362,rev?*%
%TF.SameCoordinates,Original*%
%TF.FileFunction,Legend,Top*%
%TF.FilePolarity,Positive*%
%FSLAX46Y46*%
G04 Gerber Fmt 4.6, Leading zero omitted, Abs format (unit mm)*
G04 Created by KiCad (PCBNEW (5.1.9)-1) date 2022-05-31 00:32:49*
%MOMM*%
%LPD*%
G01*
G04 APERTURE LIST*
%ADD10C,0.120000*%
G04 APERTURE END LIST*
D10*
%TO.C,J4*%
X110096000Y-133436000D02*
X113816000Y-133436000D01*
X113816000Y-133436000D02*
X113816000Y-127216000D01*
X113816000Y-127216000D02*
X110096000Y-127216000D01*
X110096000Y-127216000D02*
X110096000Y-133436000D01*
X110096000Y-132126000D02*
X109896000Y-132126000D01*
X109896000Y-132126000D02*
X109896000Y-132426000D01*
X109896000Y-132426000D02*
X110096000Y-132426000D01*
X109996000Y-132126000D02*
X109996000Y-132426000D01*
X110496000Y-133036000D02*
X113416000Y-133036000D01*
X113416000Y-133036000D02*
X113416000Y-127616000D01*
X113416000Y-127616000D02*
X110496000Y-127616000D01*
X110496000Y-127616000D02*
X110496000Y-133036000D01*
X111006000Y-133436000D02*
X111006000Y-133036000D01*
X112006000Y-133436000D02*
X112006000Y-133036000D01*
X111006000Y-127216000D02*
X111006000Y-127616000D01*
X112006000Y-127216000D02*
X112006000Y-127616000D01*
X113416000Y-131176000D02*
X113016000Y-131176000D01*
X113016000Y-131176000D02*
X113016000Y-130976000D01*
X113016000Y-130976000D02*
X113416000Y-130976000D01*
X113416000Y-131076000D02*
X113016000Y-131076000D01*
X113416000Y-129676000D02*
X113016000Y-129676000D01*
X113016000Y-129676000D02*
X113016000Y-129476000D01*
X113016000Y-129476000D02*
X113416000Y-129476000D01*
X113416000Y-129576000D02*
X113016000Y-129576000D01*
X109896000Y-132836000D02*
X109896000Y-133636000D01*
X109896000Y-133636000D02*
X110696000Y-133636000D01*
%TO.C,J3*%
X106286000Y-133436000D02*
X110006000Y-133436000D01*
X110006000Y-133436000D02*
X110006000Y-127216000D01*
X110006000Y-127216000D02*
X106286000Y-127216000D01*
X106286000Y-127216000D02*
X106286000Y-133436000D01*
X106286000Y-132126000D02*
X106086000Y-132126000D01*
X106086000Y-132126000D02*
X106086000Y-132426000D01*
X106086000Y-132426000D02*
X106286000Y-132426000D01*
X106186000Y-132126000D02*
X106186000Y-132426000D01*
X106686000Y-133036000D02*
X109606000Y-133036000D01*
X109606000Y-133036000D02*
X109606000Y-127616000D01*
X109606000Y-127616000D02*
X106686000Y-127616000D01*
X106686000Y-127616000D02*
X106686000Y-133036000D01*
X107196000Y-133436000D02*
X107196000Y-133036000D01*
X108196000Y-133436000D02*
X108196000Y-133036000D01*
X107196000Y-127216000D02*
X107196000Y-127616000D01*
X108196000Y-127216000D02*
X108196000Y-127616000D01*
X109606000Y-131176000D02*
X109206000Y-131176000D01*
X109206000Y-131176000D02*
X109206000Y-130976000D01*
X109206000Y-130976000D02*
X109606000Y-130976000D01*
X109606000Y-131076000D02*
X109206000Y-131076000D01*
X109606000Y-129676000D02*
X109206000Y-129676000D01*
X109206000Y-129676000D02*
X109206000Y-129476000D01*
X109206000Y-129476000D02*
X109606000Y-129476000D01*
X109606000Y-129576000D02*
X109206000Y-129576000D01*
X106086000Y-132836000D02*
X106086000Y-133636000D01*
X106086000Y-133636000D02*
X106886000Y-133636000D01*
%TO.C,J2*%
X102476000Y-133436000D02*
X106196000Y-133436000D01*
X106196000Y-133436000D02*
X106196000Y-127216000D01*
X106196000Y-127216000D02*
X102476000Y-127216000D01*
X102476000Y-127216000D02*
X102476000Y-133436000D01*
X102476000Y-132126000D02*
X102276000Y-132126000D01*
X102276000Y-132126000D02*
X102276000Y-132426000D01*
X102276000Y-132426000D02*
X102476000Y-132426000D01*
X102376000Y-132126000D02*
X102376000Y-132426000D01*
X102876000Y-133036000D02*
X105796000Y-133036000D01*
X105796000Y-133036000D02*
X105796000Y-127616000D01*
X105796000Y-127616000D02*
X102876000Y-127616000D01*
X102876000Y-127616000D02*
X102876000Y-133036000D01*
X103386000Y-133436000D02*
X103386000Y-133036000D01*
X104386000Y-133436000D02*
X104386000Y-133036000D01*
X103386000Y-127216000D02*
X103386000Y-127616000D01*
X104386000Y-127216000D02*
X104386000Y-127616000D01*
X105796000Y-131176000D02*
X105396000Y-131176000D01*
X105396000Y-131176000D02*
X105396000Y-130976000D01*
X105396000Y-130976000D02*
X105796000Y-130976000D01*
X105796000Y-131076000D02*
X105396000Y-131076000D01*
X105796000Y-129676000D02*
X105396000Y-129676000D01*
X105396000Y-129676000D02*
X105396000Y-129476000D01*
X105396000Y-129476000D02*
X105796000Y-129476000D01*
X105796000Y-129576000D02*
X105396000Y-129576000D01*
X102276000Y-132836000D02*
X102276000Y-133636000D01*
X102276000Y-133636000D02*
X103076000Y-133636000D01*
%TO.C,J11*%
X124520000Y-127194000D02*
X124520000Y-128524000D01*
X123190000Y-127194000D02*
X124520000Y-127194000D01*
X121920000Y-127194000D02*
X121920000Y-129854000D01*
X121920000Y-129854000D02*
X116780000Y-129854000D01*
X121920000Y-127194000D02*
X116780000Y-127194000D01*
X116780000Y-127194000D02*
X116780000Y-129854000D01*
%TO.C,J1*%
X108266000Y-100776000D02*
X108266000Y-101326000D01*
X117286000Y-100776000D02*
X108266000Y-100776000D01*
X117286000Y-101326000D02*
X117286000Y-100776000D01*
X108266000Y-105296000D02*
X109716000Y-105296000D01*
X108266000Y-103546000D02*
X108266000Y-105296000D01*
X115836000Y-105296000D02*
X115836000Y-106186000D01*
X117286000Y-105296000D02*
X115836000Y-105296000D01*
X117286000Y-103546000D02*
X117286000Y-105296000D01*
%TO.C,J5*%
X124520000Y-124654000D02*
X124520000Y-125984000D01*
X123190000Y-124654000D02*
X124520000Y-124654000D01*
X121920000Y-124654000D02*
X121920000Y-127314000D01*
X121920000Y-127314000D02*
X116780000Y-127314000D01*
X121920000Y-124654000D02*
X116780000Y-124654000D01*
X116780000Y-124654000D02*
X116780000Y-127314000D01*
%TD*%
M02*
