M48
; DRILL file {KiCad (5.1.9)-1} date 10/16/21 11:47:40
; FORMAT={-:-/ absolute / inch / decimal}
; #@! TF.CreationDate,2021-10-16T11:47:40+01:00
; #@! TF.GenerationSoftware,Kicad,Pcbnew,(5.1.9)-1
FMAT,2
INCH
T1C0.0295
T2C0.0394
T3C0.0748
%
G90
G05
T1
X4.1Y-3.9713
X4.1Y-4.05
X4.1Y-4.4213
X4.1Y-4.5
X4.1Y-4.8713
X4.1Y-4.95
X4.49Y-3.9713
X4.49Y-4.05
X4.49Y-4.8713
X4.49Y-4.95
X4.4954Y-4.4213
X4.4954Y-4.5
X4.88Y-3.9713
X4.88Y-4.05
X4.88Y-4.8713
X4.88Y-4.95
X4.884Y-4.4213
X4.884Y-4.5
X5.27Y-3.9713
X5.27Y-4.05
X5.27Y-4.8713
X5.27Y-4.95
X5.2727Y-4.4213
X5.2727Y-4.5
X5.66Y-3.9713
X5.66Y-4.05
X5.66Y-4.8713
X5.66Y-4.95
X5.6613Y-4.4213
X5.6613Y-4.5
X6.05Y-3.9713
X6.05Y-4.05
X6.05Y-4.4213
X6.05Y-4.5
X6.05Y-4.8713
X6.05Y-4.95
T2
X3.4Y-3.95
X3.4Y-4.0484
X3.4031Y-4.685
X3.4031Y-5.1181
T3
X3.6Y-4.8031
X3.6Y-5.0
T0
M30
