%TF.GenerationSoftware,KiCad,Pcbnew,(5.1.9)-1*%
%TF.CreationDate,2021-10-16T11:47:39+01:00*%
%TF.ProjectId,1S-parallel-board,31532d70-6172-4616-9c6c-656c2d626f61,rev?*%
%TF.SameCoordinates,Original*%
%TF.FileFunction,Copper,L2,Bot*%
%TF.FilePolarity,Positive*%
%FSLAX46Y46*%
G04 Gerber Fmt 4.6, Leading zero omitted, Abs format (unit mm)*
G04 Created by KiCad (PCBNEW (5.1.9)-1) date 2021-10-16 11:47:39*
%MOMM*%
%LPD*%
G01*
G04 APERTURE LIST*
%TA.AperFunction,ComponentPad*%
%ADD10O,2.000000X1.700000*%
%TD*%
%TA.AperFunction,ComponentPad*%
%ADD11O,1.750000X1.200000*%
%TD*%
%TA.AperFunction,ComponentPad*%
%ADD12C,3.500000*%
%TD*%
%TA.AperFunction,ComponentPad*%
%ADD13R,3.500000X3.500000*%
%TD*%
%TA.AperFunction,ComponentPad*%
%ADD14C,1.400000*%
%TD*%
%TA.AperFunction,Conductor*%
%ADD15C,0.254000*%
%TD*%
%TA.AperFunction,Conductor*%
%ADD16C,0.100000*%
%TD*%
G04 APERTURE END LIST*
D10*
%TO.P,J20,2*%
%TO.N,VCC*%
X86360000Y-102830000D03*
%TO.P,J20,1*%
%TO.N,GND*%
%TA.AperFunction,ComponentPad*%
G36*
G01*
X85610000Y-99480000D02*
X87110000Y-99480000D01*
G75*
G02*
X87360000Y-99730000I0J-250000D01*
G01*
X87360000Y-100930000D01*
G75*
G02*
X87110000Y-101180000I-250000J0D01*
G01*
X85610000Y-101180000D01*
G75*
G02*
X85360000Y-100930000I0J250000D01*
G01*
X85360000Y-99730000D01*
G75*
G02*
X85610000Y-99480000I250000J0D01*
G01*
G37*
%TD.AperFunction*%
%TD*%
D11*
%TO.P,J18,2*%
%TO.N,VCC*%
X133858000Y-123730000D03*
%TO.P,J18,1*%
%TO.N,GND*%
%TA.AperFunction,ComponentPad*%
G36*
G01*
X134483001Y-126330000D02*
X133232999Y-126330000D01*
G75*
G02*
X132983000Y-126080001I0J249999D01*
G01*
X132983000Y-125379999D01*
G75*
G02*
X133232999Y-125130000I249999J0D01*
G01*
X134483001Y-125130000D01*
G75*
G02*
X134733000Y-125379999I0J-249999D01*
G01*
X134733000Y-126080001D01*
G75*
G02*
X134483001Y-126330000I-249999J0D01*
G01*
G37*
%TD.AperFunction*%
%TD*%
%TO.P,J17,2*%
%TO.N,VCC*%
X153670000Y-123730000D03*
%TO.P,J17,1*%
%TO.N,GND*%
%TA.AperFunction,ComponentPad*%
G36*
G01*
X154295001Y-126330000D02*
X153044999Y-126330000D01*
G75*
G02*
X152795000Y-126080001I0J249999D01*
G01*
X152795000Y-125379999D01*
G75*
G02*
X153044999Y-125130000I249999J0D01*
G01*
X154295001Y-125130000D01*
G75*
G02*
X154545000Y-125379999I0J-249999D01*
G01*
X154545000Y-126080001D01*
G75*
G02*
X154295001Y-126330000I-249999J0D01*
G01*
G37*
%TD.AperFunction*%
%TD*%
%TO.P,J16,2*%
%TO.N,VCC*%
X143764000Y-123730000D03*
%TO.P,J16,1*%
%TO.N,GND*%
%TA.AperFunction,ComponentPad*%
G36*
G01*
X144389001Y-126330000D02*
X143138999Y-126330000D01*
G75*
G02*
X142889000Y-126080001I0J249999D01*
G01*
X142889000Y-125379999D01*
G75*
G02*
X143138999Y-125130000I249999J0D01*
G01*
X144389001Y-125130000D01*
G75*
G02*
X144639000Y-125379999I0J-249999D01*
G01*
X144639000Y-126080001D01*
G75*
G02*
X144389001Y-126330000I-249999J0D01*
G01*
G37*
%TD.AperFunction*%
%TD*%
%TO.P,J15,2*%
%TO.N,VCC*%
X123952000Y-123730000D03*
%TO.P,J15,1*%
%TO.N,GND*%
%TA.AperFunction,ComponentPad*%
G36*
G01*
X124577001Y-126330000D02*
X123326999Y-126330000D01*
G75*
G02*
X123077000Y-126080001I0J249999D01*
G01*
X123077000Y-125379999D01*
G75*
G02*
X123326999Y-125130000I249999J0D01*
G01*
X124577001Y-125130000D01*
G75*
G02*
X124827000Y-125379999I0J-249999D01*
G01*
X124827000Y-126080001D01*
G75*
G02*
X124577001Y-126330000I-249999J0D01*
G01*
G37*
%TD.AperFunction*%
%TD*%
%TO.P,J14,2*%
%TO.N,VCC*%
X114046000Y-123730000D03*
%TO.P,J14,1*%
%TO.N,GND*%
%TA.AperFunction,ComponentPad*%
G36*
G01*
X114671001Y-126330000D02*
X113420999Y-126330000D01*
G75*
G02*
X113171000Y-126080001I0J249999D01*
G01*
X113171000Y-125379999D01*
G75*
G02*
X113420999Y-125130000I249999J0D01*
G01*
X114671001Y-125130000D01*
G75*
G02*
X114921000Y-125379999I0J-249999D01*
G01*
X114921000Y-126080001D01*
G75*
G02*
X114671001Y-126330000I-249999J0D01*
G01*
G37*
%TD.AperFunction*%
%TD*%
%TO.P,J13,2*%
%TO.N,VCC*%
X104140000Y-123730000D03*
%TO.P,J13,1*%
%TO.N,GND*%
%TA.AperFunction,ComponentPad*%
G36*
G01*
X104765001Y-126330000D02*
X103514999Y-126330000D01*
G75*
G02*
X103265000Y-126080001I0J249999D01*
G01*
X103265000Y-125379999D01*
G75*
G02*
X103514999Y-125130000I249999J0D01*
G01*
X104765001Y-125130000D01*
G75*
G02*
X105015000Y-125379999I0J-249999D01*
G01*
X105015000Y-126080001D01*
G75*
G02*
X104765001Y-126330000I-249999J0D01*
G01*
G37*
%TD.AperFunction*%
%TD*%
%TO.P,J12,2*%
%TO.N,VCC*%
X153670000Y-112300000D03*
%TO.P,J12,1*%
%TO.N,GND*%
%TA.AperFunction,ComponentPad*%
G36*
G01*
X154295001Y-114900000D02*
X153044999Y-114900000D01*
G75*
G02*
X152795000Y-114650001I0J249999D01*
G01*
X152795000Y-113949999D01*
G75*
G02*
X153044999Y-113700000I249999J0D01*
G01*
X154295001Y-113700000D01*
G75*
G02*
X154545000Y-113949999I0J-249999D01*
G01*
X154545000Y-114650001D01*
G75*
G02*
X154295001Y-114900000I-249999J0D01*
G01*
G37*
%TD.AperFunction*%
%TD*%
%TO.P,J11,2*%
%TO.N,VCC*%
X143798000Y-112300000D03*
%TO.P,J11,1*%
%TO.N,GND*%
%TA.AperFunction,ComponentPad*%
G36*
G01*
X144423001Y-114900000D02*
X143172999Y-114900000D01*
G75*
G02*
X142923000Y-114650001I0J249999D01*
G01*
X142923000Y-113949999D01*
G75*
G02*
X143172999Y-113700000I249999J0D01*
G01*
X144423001Y-113700000D01*
G75*
G02*
X144673000Y-113949999I0J-249999D01*
G01*
X144673000Y-114650001D01*
G75*
G02*
X144423001Y-114900000I-249999J0D01*
G01*
G37*
%TD.AperFunction*%
%TD*%
%TO.P,J10,2*%
%TO.N,VCC*%
X133926000Y-112300000D03*
%TO.P,J10,1*%
%TO.N,GND*%
%TA.AperFunction,ComponentPad*%
G36*
G01*
X134551001Y-114900000D02*
X133300999Y-114900000D01*
G75*
G02*
X133051000Y-114650001I0J249999D01*
G01*
X133051000Y-113949999D01*
G75*
G02*
X133300999Y-113700000I249999J0D01*
G01*
X134551001Y-113700000D01*
G75*
G02*
X134801000Y-113949999I0J-249999D01*
G01*
X134801000Y-114650001D01*
G75*
G02*
X134551001Y-114900000I-249999J0D01*
G01*
G37*
%TD.AperFunction*%
%TD*%
%TO.P,J9,2*%
%TO.N,VCC*%
X124054000Y-112300000D03*
%TO.P,J9,1*%
%TO.N,GND*%
%TA.AperFunction,ComponentPad*%
G36*
G01*
X124679001Y-114900000D02*
X123428999Y-114900000D01*
G75*
G02*
X123179000Y-114650001I0J249999D01*
G01*
X123179000Y-113949999D01*
G75*
G02*
X123428999Y-113700000I249999J0D01*
G01*
X124679001Y-113700000D01*
G75*
G02*
X124929000Y-113949999I0J-249999D01*
G01*
X124929000Y-114650001D01*
G75*
G02*
X124679001Y-114900000I-249999J0D01*
G01*
G37*
%TD.AperFunction*%
%TD*%
%TO.P,J8,2*%
%TO.N,VCC*%
X114182000Y-112300000D03*
%TO.P,J8,1*%
%TO.N,GND*%
%TA.AperFunction,ComponentPad*%
G36*
G01*
X114807001Y-114900000D02*
X113556999Y-114900000D01*
G75*
G02*
X113307000Y-114650001I0J249999D01*
G01*
X113307000Y-113949999D01*
G75*
G02*
X113556999Y-113700000I249999J0D01*
G01*
X114807001Y-113700000D01*
G75*
G02*
X115057000Y-113949999I0J-249999D01*
G01*
X115057000Y-114650001D01*
G75*
G02*
X114807001Y-114900000I-249999J0D01*
G01*
G37*
%TD.AperFunction*%
%TD*%
%TO.P,J7,2*%
%TO.N,VCC*%
X104140000Y-112300000D03*
%TO.P,J7,1*%
%TO.N,GND*%
%TA.AperFunction,ComponentPad*%
G36*
G01*
X104765001Y-114900000D02*
X103514999Y-114900000D01*
G75*
G02*
X103265000Y-114650001I0J249999D01*
G01*
X103265000Y-113949999D01*
G75*
G02*
X103514999Y-113700000I249999J0D01*
G01*
X104765001Y-113700000D01*
G75*
G02*
X105015000Y-113949999I0J-249999D01*
G01*
X105015000Y-114650001D01*
G75*
G02*
X104765001Y-114900000I-249999J0D01*
G01*
G37*
%TD.AperFunction*%
%TD*%
%TO.P,J6,2*%
%TO.N,VCC*%
X153670000Y-100870000D03*
%TO.P,J6,1*%
%TO.N,GND*%
%TA.AperFunction,ComponentPad*%
G36*
G01*
X154295001Y-103470000D02*
X153044999Y-103470000D01*
G75*
G02*
X152795000Y-103220001I0J249999D01*
G01*
X152795000Y-102519999D01*
G75*
G02*
X153044999Y-102270000I249999J0D01*
G01*
X154295001Y-102270000D01*
G75*
G02*
X154545000Y-102519999I0J-249999D01*
G01*
X154545000Y-103220001D01*
G75*
G02*
X154295001Y-103470000I-249999J0D01*
G01*
G37*
%TD.AperFunction*%
%TD*%
%TO.P,J5,2*%
%TO.N,VCC*%
X143764000Y-100870000D03*
%TO.P,J5,1*%
%TO.N,GND*%
%TA.AperFunction,ComponentPad*%
G36*
G01*
X144389001Y-103470000D02*
X143138999Y-103470000D01*
G75*
G02*
X142889000Y-103220001I0J249999D01*
G01*
X142889000Y-102519999D01*
G75*
G02*
X143138999Y-102270000I249999J0D01*
G01*
X144389001Y-102270000D01*
G75*
G02*
X144639000Y-102519999I0J-249999D01*
G01*
X144639000Y-103220001D01*
G75*
G02*
X144389001Y-103470000I-249999J0D01*
G01*
G37*
%TD.AperFunction*%
%TD*%
%TO.P,J4,2*%
%TO.N,VCC*%
X133858000Y-100870000D03*
%TO.P,J4,1*%
%TO.N,GND*%
%TA.AperFunction,ComponentPad*%
G36*
G01*
X134483001Y-103470000D02*
X133232999Y-103470000D01*
G75*
G02*
X132983000Y-103220001I0J249999D01*
G01*
X132983000Y-102519999D01*
G75*
G02*
X133232999Y-102270000I249999J0D01*
G01*
X134483001Y-102270000D01*
G75*
G02*
X134733000Y-102519999I0J-249999D01*
G01*
X134733000Y-103220001D01*
G75*
G02*
X134483001Y-103470000I-249999J0D01*
G01*
G37*
%TD.AperFunction*%
%TD*%
%TO.P,J3,2*%
%TO.N,VCC*%
X123952000Y-100870000D03*
%TO.P,J3,1*%
%TO.N,GND*%
%TA.AperFunction,ComponentPad*%
G36*
G01*
X124577001Y-103470000D02*
X123326999Y-103470000D01*
G75*
G02*
X123077000Y-103220001I0J249999D01*
G01*
X123077000Y-102519999D01*
G75*
G02*
X123326999Y-102270000I249999J0D01*
G01*
X124577001Y-102270000D01*
G75*
G02*
X124827000Y-102519999I0J-249999D01*
G01*
X124827000Y-103220001D01*
G75*
G02*
X124577001Y-103470000I-249999J0D01*
G01*
G37*
%TD.AperFunction*%
%TD*%
%TO.P,J2,2*%
%TO.N,VCC*%
X114046000Y-100870000D03*
%TO.P,J2,1*%
%TO.N,GND*%
%TA.AperFunction,ComponentPad*%
G36*
G01*
X114671001Y-103470000D02*
X113420999Y-103470000D01*
G75*
G02*
X113171000Y-103220001I0J249999D01*
G01*
X113171000Y-102519999D01*
G75*
G02*
X113420999Y-102270000I249999J0D01*
G01*
X114671001Y-102270000D01*
G75*
G02*
X114921000Y-102519999I0J-249999D01*
G01*
X114921000Y-103220001D01*
G75*
G02*
X114671001Y-103470000I-249999J0D01*
G01*
G37*
%TD.AperFunction*%
%TD*%
%TO.P,J1,2*%
%TO.N,VCC*%
X104140000Y-100870000D03*
%TO.P,J1,1*%
%TO.N,GND*%
%TA.AperFunction,ComponentPad*%
G36*
G01*
X104765001Y-103470000D02*
X103514999Y-103470000D01*
G75*
G02*
X103265000Y-103220001I0J249999D01*
G01*
X103265000Y-102519999D01*
G75*
G02*
X103514999Y-102270000I249999J0D01*
G01*
X104765001Y-102270000D01*
G75*
G02*
X105015000Y-102519999I0J-249999D01*
G01*
X105015000Y-103220001D01*
G75*
G02*
X104765001Y-103470000I-249999J0D01*
G01*
G37*
%TD.AperFunction*%
%TD*%
D12*
%TO.P,J19,2*%
%TO.N,VCC*%
X91440000Y-122000000D03*
D13*
%TO.P,J19,1*%
%TO.N,GND*%
X91440000Y-127000000D03*
D14*
%TO.P,J19,*%
%TO.N,*%
X86440000Y-119000000D03*
X86440000Y-130000000D03*
%TD*%
D15*
%TO.N,GND*%
X158065001Y-131395000D02*
X76885000Y-131395000D01*
X76885000Y-129868514D01*
X85105000Y-129868514D01*
X85105000Y-130131486D01*
X85156304Y-130389405D01*
X85256939Y-130632359D01*
X85403038Y-130851013D01*
X85588987Y-131036962D01*
X85807641Y-131183061D01*
X86050595Y-131283696D01*
X86308514Y-131335000D01*
X86571486Y-131335000D01*
X86829405Y-131283696D01*
X87072359Y-131183061D01*
X87291013Y-131036962D01*
X87476962Y-130851013D01*
X87623061Y-130632359D01*
X87723696Y-130389405D01*
X87775000Y-130131486D01*
X87775000Y-129868514D01*
X87723696Y-129610595D01*
X87623061Y-129367641D01*
X87476962Y-129148987D01*
X87291013Y-128963038D01*
X87072359Y-128816939D01*
X86829405Y-128716304D01*
X86571486Y-128665000D01*
X86308514Y-128665000D01*
X86050595Y-128716304D01*
X85807641Y-128816939D01*
X85588987Y-128963038D01*
X85403038Y-129148987D01*
X85256939Y-129367641D01*
X85156304Y-129610595D01*
X85105000Y-129868514D01*
X76885000Y-129868514D01*
X76885000Y-121765098D01*
X89055000Y-121765098D01*
X89055000Y-122234902D01*
X89146654Y-122695679D01*
X89326440Y-123129721D01*
X89587450Y-123520349D01*
X89919651Y-123852550D01*
X90310279Y-124113560D01*
X90744321Y-124293346D01*
X91205098Y-124385000D01*
X91674902Y-124385000D01*
X92135679Y-124293346D01*
X92569721Y-124113560D01*
X92960349Y-123852550D01*
X93082899Y-123730000D01*
X102624025Y-123730000D01*
X102647870Y-123972102D01*
X102718489Y-124204901D01*
X102833167Y-124419449D01*
X102987498Y-124607502D01*
X103175551Y-124761833D01*
X103390099Y-124876511D01*
X103622898Y-124947130D01*
X103804335Y-124965000D01*
X104475665Y-124965000D01*
X104657102Y-124947130D01*
X104889901Y-124876511D01*
X105104449Y-124761833D01*
X105292502Y-124607502D01*
X105446833Y-124419449D01*
X105561511Y-124204901D01*
X105632130Y-123972102D01*
X105655975Y-123730000D01*
X112530025Y-123730000D01*
X112553870Y-123972102D01*
X112624489Y-124204901D01*
X112739167Y-124419449D01*
X112893498Y-124607502D01*
X113081551Y-124761833D01*
X113296099Y-124876511D01*
X113528898Y-124947130D01*
X113710335Y-124965000D01*
X114381665Y-124965000D01*
X114563102Y-124947130D01*
X114795901Y-124876511D01*
X115010449Y-124761833D01*
X115198502Y-124607502D01*
X115352833Y-124419449D01*
X115467511Y-124204901D01*
X115538130Y-123972102D01*
X115561975Y-123730000D01*
X122436025Y-123730000D01*
X122459870Y-123972102D01*
X122530489Y-124204901D01*
X122645167Y-124419449D01*
X122799498Y-124607502D01*
X122987551Y-124761833D01*
X123202099Y-124876511D01*
X123434898Y-124947130D01*
X123616335Y-124965000D01*
X124287665Y-124965000D01*
X124469102Y-124947130D01*
X124701901Y-124876511D01*
X124916449Y-124761833D01*
X125104502Y-124607502D01*
X125258833Y-124419449D01*
X125373511Y-124204901D01*
X125444130Y-123972102D01*
X125467975Y-123730000D01*
X132342025Y-123730000D01*
X132365870Y-123972102D01*
X132436489Y-124204901D01*
X132551167Y-124419449D01*
X132705498Y-124607502D01*
X132893551Y-124761833D01*
X133108099Y-124876511D01*
X133340898Y-124947130D01*
X133522335Y-124965000D01*
X134193665Y-124965000D01*
X134375102Y-124947130D01*
X134607901Y-124876511D01*
X134822449Y-124761833D01*
X135010502Y-124607502D01*
X135164833Y-124419449D01*
X135279511Y-124204901D01*
X135350130Y-123972102D01*
X135373975Y-123730000D01*
X142248025Y-123730000D01*
X142271870Y-123972102D01*
X142342489Y-124204901D01*
X142457167Y-124419449D01*
X142611498Y-124607502D01*
X142799551Y-124761833D01*
X143014099Y-124876511D01*
X143246898Y-124947130D01*
X143428335Y-124965000D01*
X144099665Y-124965000D01*
X144281102Y-124947130D01*
X144513901Y-124876511D01*
X144728449Y-124761833D01*
X144916502Y-124607502D01*
X145070833Y-124419449D01*
X145185511Y-124204901D01*
X145256130Y-123972102D01*
X145279975Y-123730000D01*
X152154025Y-123730000D01*
X152177870Y-123972102D01*
X152248489Y-124204901D01*
X152363167Y-124419449D01*
X152517498Y-124607502D01*
X152705551Y-124761833D01*
X152920099Y-124876511D01*
X153152898Y-124947130D01*
X153334335Y-124965000D01*
X154005665Y-124965000D01*
X154187102Y-124947130D01*
X154419901Y-124876511D01*
X154634449Y-124761833D01*
X154822502Y-124607502D01*
X154976833Y-124419449D01*
X155091511Y-124204901D01*
X155162130Y-123972102D01*
X155185975Y-123730000D01*
X155162130Y-123487898D01*
X155091511Y-123255099D01*
X154976833Y-123040551D01*
X154822502Y-122852498D01*
X154634449Y-122698167D01*
X154419901Y-122583489D01*
X154187102Y-122512870D01*
X154005665Y-122495000D01*
X153334335Y-122495000D01*
X153152898Y-122512870D01*
X152920099Y-122583489D01*
X152705551Y-122698167D01*
X152517498Y-122852498D01*
X152363167Y-123040551D01*
X152248489Y-123255099D01*
X152177870Y-123487898D01*
X152154025Y-123730000D01*
X145279975Y-123730000D01*
X145256130Y-123487898D01*
X145185511Y-123255099D01*
X145070833Y-123040551D01*
X144916502Y-122852498D01*
X144728449Y-122698167D01*
X144513901Y-122583489D01*
X144281102Y-122512870D01*
X144099665Y-122495000D01*
X143428335Y-122495000D01*
X143246898Y-122512870D01*
X143014099Y-122583489D01*
X142799551Y-122698167D01*
X142611498Y-122852498D01*
X142457167Y-123040551D01*
X142342489Y-123255099D01*
X142271870Y-123487898D01*
X142248025Y-123730000D01*
X135373975Y-123730000D01*
X135350130Y-123487898D01*
X135279511Y-123255099D01*
X135164833Y-123040551D01*
X135010502Y-122852498D01*
X134822449Y-122698167D01*
X134607901Y-122583489D01*
X134375102Y-122512870D01*
X134193665Y-122495000D01*
X133522335Y-122495000D01*
X133340898Y-122512870D01*
X133108099Y-122583489D01*
X132893551Y-122698167D01*
X132705498Y-122852498D01*
X132551167Y-123040551D01*
X132436489Y-123255099D01*
X132365870Y-123487898D01*
X132342025Y-123730000D01*
X125467975Y-123730000D01*
X125444130Y-123487898D01*
X125373511Y-123255099D01*
X125258833Y-123040551D01*
X125104502Y-122852498D01*
X124916449Y-122698167D01*
X124701901Y-122583489D01*
X124469102Y-122512870D01*
X124287665Y-122495000D01*
X123616335Y-122495000D01*
X123434898Y-122512870D01*
X123202099Y-122583489D01*
X122987551Y-122698167D01*
X122799498Y-122852498D01*
X122645167Y-123040551D01*
X122530489Y-123255099D01*
X122459870Y-123487898D01*
X122436025Y-123730000D01*
X115561975Y-123730000D01*
X115538130Y-123487898D01*
X115467511Y-123255099D01*
X115352833Y-123040551D01*
X115198502Y-122852498D01*
X115010449Y-122698167D01*
X114795901Y-122583489D01*
X114563102Y-122512870D01*
X114381665Y-122495000D01*
X113710335Y-122495000D01*
X113528898Y-122512870D01*
X113296099Y-122583489D01*
X113081551Y-122698167D01*
X112893498Y-122852498D01*
X112739167Y-123040551D01*
X112624489Y-123255099D01*
X112553870Y-123487898D01*
X112530025Y-123730000D01*
X105655975Y-123730000D01*
X105632130Y-123487898D01*
X105561511Y-123255099D01*
X105446833Y-123040551D01*
X105292502Y-122852498D01*
X105104449Y-122698167D01*
X104889901Y-122583489D01*
X104657102Y-122512870D01*
X104475665Y-122495000D01*
X103804335Y-122495000D01*
X103622898Y-122512870D01*
X103390099Y-122583489D01*
X103175551Y-122698167D01*
X102987498Y-122852498D01*
X102833167Y-123040551D01*
X102718489Y-123255099D01*
X102647870Y-123487898D01*
X102624025Y-123730000D01*
X93082899Y-123730000D01*
X93292550Y-123520349D01*
X93553560Y-123129721D01*
X93733346Y-122695679D01*
X93825000Y-122234902D01*
X93825000Y-121765098D01*
X93733346Y-121304321D01*
X93553560Y-120870279D01*
X93292550Y-120479651D01*
X92960349Y-120147450D01*
X92569721Y-119886440D01*
X92135679Y-119706654D01*
X91674902Y-119615000D01*
X91205098Y-119615000D01*
X90744321Y-119706654D01*
X90310279Y-119886440D01*
X89919651Y-120147450D01*
X89587450Y-120479651D01*
X89326440Y-120870279D01*
X89146654Y-121304321D01*
X89055000Y-121765098D01*
X76885000Y-121765098D01*
X76885000Y-118868514D01*
X85105000Y-118868514D01*
X85105000Y-119131486D01*
X85156304Y-119389405D01*
X85256939Y-119632359D01*
X85403038Y-119851013D01*
X85588987Y-120036962D01*
X85807641Y-120183061D01*
X86050595Y-120283696D01*
X86308514Y-120335000D01*
X86571486Y-120335000D01*
X86829405Y-120283696D01*
X87072359Y-120183061D01*
X87291013Y-120036962D01*
X87476962Y-119851013D01*
X87623061Y-119632359D01*
X87723696Y-119389405D01*
X87775000Y-119131486D01*
X87775000Y-118868514D01*
X87723696Y-118610595D01*
X87623061Y-118367641D01*
X87476962Y-118148987D01*
X87291013Y-117963038D01*
X87072359Y-117816939D01*
X86829405Y-117716304D01*
X86571486Y-117665000D01*
X86308514Y-117665000D01*
X86050595Y-117716304D01*
X85807641Y-117816939D01*
X85588987Y-117963038D01*
X85403038Y-118148987D01*
X85256939Y-118367641D01*
X85156304Y-118610595D01*
X85105000Y-118868514D01*
X76885000Y-118868514D01*
X76885000Y-112300000D01*
X102624025Y-112300000D01*
X102647870Y-112542102D01*
X102718489Y-112774901D01*
X102833167Y-112989449D01*
X102987498Y-113177502D01*
X103175551Y-113331833D01*
X103390099Y-113446511D01*
X103622898Y-113517130D01*
X103804335Y-113535000D01*
X104475665Y-113535000D01*
X104657102Y-113517130D01*
X104889901Y-113446511D01*
X105104449Y-113331833D01*
X105292502Y-113177502D01*
X105446833Y-112989449D01*
X105561511Y-112774901D01*
X105632130Y-112542102D01*
X105655975Y-112300000D01*
X112666025Y-112300000D01*
X112689870Y-112542102D01*
X112760489Y-112774901D01*
X112875167Y-112989449D01*
X113029498Y-113177502D01*
X113217551Y-113331833D01*
X113432099Y-113446511D01*
X113664898Y-113517130D01*
X113846335Y-113535000D01*
X114517665Y-113535000D01*
X114699102Y-113517130D01*
X114931901Y-113446511D01*
X115146449Y-113331833D01*
X115334502Y-113177502D01*
X115488833Y-112989449D01*
X115603511Y-112774901D01*
X115674130Y-112542102D01*
X115697975Y-112300000D01*
X122538025Y-112300000D01*
X122561870Y-112542102D01*
X122632489Y-112774901D01*
X122747167Y-112989449D01*
X122901498Y-113177502D01*
X123089551Y-113331833D01*
X123304099Y-113446511D01*
X123536898Y-113517130D01*
X123718335Y-113535000D01*
X124389665Y-113535000D01*
X124571102Y-113517130D01*
X124803901Y-113446511D01*
X125018449Y-113331833D01*
X125206502Y-113177502D01*
X125360833Y-112989449D01*
X125475511Y-112774901D01*
X125546130Y-112542102D01*
X125569975Y-112300000D01*
X132410025Y-112300000D01*
X132433870Y-112542102D01*
X132504489Y-112774901D01*
X132619167Y-112989449D01*
X132773498Y-113177502D01*
X132961551Y-113331833D01*
X133176099Y-113446511D01*
X133408898Y-113517130D01*
X133590335Y-113535000D01*
X134261665Y-113535000D01*
X134443102Y-113517130D01*
X134675901Y-113446511D01*
X134890449Y-113331833D01*
X135078502Y-113177502D01*
X135232833Y-112989449D01*
X135347511Y-112774901D01*
X135418130Y-112542102D01*
X135441975Y-112300000D01*
X142282025Y-112300000D01*
X142305870Y-112542102D01*
X142376489Y-112774901D01*
X142491167Y-112989449D01*
X142645498Y-113177502D01*
X142833551Y-113331833D01*
X143048099Y-113446511D01*
X143280898Y-113517130D01*
X143462335Y-113535000D01*
X144133665Y-113535000D01*
X144315102Y-113517130D01*
X144547901Y-113446511D01*
X144762449Y-113331833D01*
X144950502Y-113177502D01*
X145104833Y-112989449D01*
X145219511Y-112774901D01*
X145290130Y-112542102D01*
X145313975Y-112300000D01*
X152154025Y-112300000D01*
X152177870Y-112542102D01*
X152248489Y-112774901D01*
X152363167Y-112989449D01*
X152517498Y-113177502D01*
X152705551Y-113331833D01*
X152920099Y-113446511D01*
X153152898Y-113517130D01*
X153334335Y-113535000D01*
X154005665Y-113535000D01*
X154187102Y-113517130D01*
X154419901Y-113446511D01*
X154634449Y-113331833D01*
X154822502Y-113177502D01*
X154976833Y-112989449D01*
X155091511Y-112774901D01*
X155162130Y-112542102D01*
X155185975Y-112300000D01*
X155162130Y-112057898D01*
X155091511Y-111825099D01*
X154976833Y-111610551D01*
X154822502Y-111422498D01*
X154634449Y-111268167D01*
X154419901Y-111153489D01*
X154187102Y-111082870D01*
X154005665Y-111065000D01*
X153334335Y-111065000D01*
X153152898Y-111082870D01*
X152920099Y-111153489D01*
X152705551Y-111268167D01*
X152517498Y-111422498D01*
X152363167Y-111610551D01*
X152248489Y-111825099D01*
X152177870Y-112057898D01*
X152154025Y-112300000D01*
X145313975Y-112300000D01*
X145290130Y-112057898D01*
X145219511Y-111825099D01*
X145104833Y-111610551D01*
X144950502Y-111422498D01*
X144762449Y-111268167D01*
X144547901Y-111153489D01*
X144315102Y-111082870D01*
X144133665Y-111065000D01*
X143462335Y-111065000D01*
X143280898Y-111082870D01*
X143048099Y-111153489D01*
X142833551Y-111268167D01*
X142645498Y-111422498D01*
X142491167Y-111610551D01*
X142376489Y-111825099D01*
X142305870Y-112057898D01*
X142282025Y-112300000D01*
X135441975Y-112300000D01*
X135418130Y-112057898D01*
X135347511Y-111825099D01*
X135232833Y-111610551D01*
X135078502Y-111422498D01*
X134890449Y-111268167D01*
X134675901Y-111153489D01*
X134443102Y-111082870D01*
X134261665Y-111065000D01*
X133590335Y-111065000D01*
X133408898Y-111082870D01*
X133176099Y-111153489D01*
X132961551Y-111268167D01*
X132773498Y-111422498D01*
X132619167Y-111610551D01*
X132504489Y-111825099D01*
X132433870Y-112057898D01*
X132410025Y-112300000D01*
X125569975Y-112300000D01*
X125546130Y-112057898D01*
X125475511Y-111825099D01*
X125360833Y-111610551D01*
X125206502Y-111422498D01*
X125018449Y-111268167D01*
X124803901Y-111153489D01*
X124571102Y-111082870D01*
X124389665Y-111065000D01*
X123718335Y-111065000D01*
X123536898Y-111082870D01*
X123304099Y-111153489D01*
X123089551Y-111268167D01*
X122901498Y-111422498D01*
X122747167Y-111610551D01*
X122632489Y-111825099D01*
X122561870Y-112057898D01*
X122538025Y-112300000D01*
X115697975Y-112300000D01*
X115674130Y-112057898D01*
X115603511Y-111825099D01*
X115488833Y-111610551D01*
X115334502Y-111422498D01*
X115146449Y-111268167D01*
X114931901Y-111153489D01*
X114699102Y-111082870D01*
X114517665Y-111065000D01*
X113846335Y-111065000D01*
X113664898Y-111082870D01*
X113432099Y-111153489D01*
X113217551Y-111268167D01*
X113029498Y-111422498D01*
X112875167Y-111610551D01*
X112760489Y-111825099D01*
X112689870Y-112057898D01*
X112666025Y-112300000D01*
X105655975Y-112300000D01*
X105632130Y-112057898D01*
X105561511Y-111825099D01*
X105446833Y-111610551D01*
X105292502Y-111422498D01*
X105104449Y-111268167D01*
X104889901Y-111153489D01*
X104657102Y-111082870D01*
X104475665Y-111065000D01*
X103804335Y-111065000D01*
X103622898Y-111082870D01*
X103390099Y-111153489D01*
X103175551Y-111268167D01*
X102987498Y-111422498D01*
X102833167Y-111610551D01*
X102718489Y-111825099D01*
X102647870Y-112057898D01*
X102624025Y-112300000D01*
X76885000Y-112300000D01*
X76885000Y-102830000D01*
X84717815Y-102830000D01*
X84746487Y-103121111D01*
X84831401Y-103401034D01*
X84969294Y-103659014D01*
X85154866Y-103885134D01*
X85380986Y-104070706D01*
X85638966Y-104208599D01*
X85918889Y-104293513D01*
X86137050Y-104315000D01*
X86582950Y-104315000D01*
X86801111Y-104293513D01*
X87081034Y-104208599D01*
X87339014Y-104070706D01*
X87565134Y-103885134D01*
X87750706Y-103659014D01*
X87888599Y-103401034D01*
X87973513Y-103121111D01*
X88002185Y-102830000D01*
X87973513Y-102538889D01*
X87888599Y-102258966D01*
X87750706Y-102000986D01*
X87565134Y-101774866D01*
X87339014Y-101589294D01*
X87081034Y-101451401D01*
X86801111Y-101366487D01*
X86582950Y-101345000D01*
X86137050Y-101345000D01*
X85918889Y-101366487D01*
X85638966Y-101451401D01*
X85380986Y-101589294D01*
X85154866Y-101774866D01*
X84969294Y-102000986D01*
X84831401Y-102258966D01*
X84746487Y-102538889D01*
X84717815Y-102830000D01*
X76885000Y-102830000D01*
X76885000Y-100870000D01*
X102624025Y-100870000D01*
X102647870Y-101112102D01*
X102718489Y-101344901D01*
X102833167Y-101559449D01*
X102987498Y-101747502D01*
X103175551Y-101901833D01*
X103390099Y-102016511D01*
X103622898Y-102087130D01*
X103804335Y-102105000D01*
X104475665Y-102105000D01*
X104657102Y-102087130D01*
X104889901Y-102016511D01*
X105104449Y-101901833D01*
X105292502Y-101747502D01*
X105446833Y-101559449D01*
X105561511Y-101344901D01*
X105632130Y-101112102D01*
X105655975Y-100870000D01*
X112530025Y-100870000D01*
X112553870Y-101112102D01*
X112624489Y-101344901D01*
X112739167Y-101559449D01*
X112893498Y-101747502D01*
X113081551Y-101901833D01*
X113296099Y-102016511D01*
X113528898Y-102087130D01*
X113710335Y-102105000D01*
X114381665Y-102105000D01*
X114563102Y-102087130D01*
X114795901Y-102016511D01*
X115010449Y-101901833D01*
X115198502Y-101747502D01*
X115352833Y-101559449D01*
X115467511Y-101344901D01*
X115538130Y-101112102D01*
X115561975Y-100870000D01*
X122436025Y-100870000D01*
X122459870Y-101112102D01*
X122530489Y-101344901D01*
X122645167Y-101559449D01*
X122799498Y-101747502D01*
X122987551Y-101901833D01*
X123202099Y-102016511D01*
X123434898Y-102087130D01*
X123616335Y-102105000D01*
X124287665Y-102105000D01*
X124469102Y-102087130D01*
X124701901Y-102016511D01*
X124916449Y-101901833D01*
X125104502Y-101747502D01*
X125258833Y-101559449D01*
X125373511Y-101344901D01*
X125444130Y-101112102D01*
X125467975Y-100870000D01*
X132342025Y-100870000D01*
X132365870Y-101112102D01*
X132436489Y-101344901D01*
X132551167Y-101559449D01*
X132705498Y-101747502D01*
X132893551Y-101901833D01*
X133108099Y-102016511D01*
X133340898Y-102087130D01*
X133522335Y-102105000D01*
X134193665Y-102105000D01*
X134375102Y-102087130D01*
X134607901Y-102016511D01*
X134822449Y-101901833D01*
X135010502Y-101747502D01*
X135164833Y-101559449D01*
X135279511Y-101344901D01*
X135350130Y-101112102D01*
X135373975Y-100870000D01*
X142248025Y-100870000D01*
X142271870Y-101112102D01*
X142342489Y-101344901D01*
X142457167Y-101559449D01*
X142611498Y-101747502D01*
X142799551Y-101901833D01*
X143014099Y-102016511D01*
X143246898Y-102087130D01*
X143428335Y-102105000D01*
X144099665Y-102105000D01*
X144281102Y-102087130D01*
X144513901Y-102016511D01*
X144728449Y-101901833D01*
X144916502Y-101747502D01*
X145070833Y-101559449D01*
X145185511Y-101344901D01*
X145256130Y-101112102D01*
X145279975Y-100870000D01*
X152154025Y-100870000D01*
X152177870Y-101112102D01*
X152248489Y-101344901D01*
X152363167Y-101559449D01*
X152517498Y-101747502D01*
X152705551Y-101901833D01*
X152920099Y-102016511D01*
X153152898Y-102087130D01*
X153334335Y-102105000D01*
X154005665Y-102105000D01*
X154187102Y-102087130D01*
X154419901Y-102016511D01*
X154634449Y-101901833D01*
X154822502Y-101747502D01*
X154976833Y-101559449D01*
X155091511Y-101344901D01*
X155162130Y-101112102D01*
X155185975Y-100870000D01*
X155162130Y-100627898D01*
X155091511Y-100395099D01*
X154976833Y-100180551D01*
X154822502Y-99992498D01*
X154634449Y-99838167D01*
X154419901Y-99723489D01*
X154187102Y-99652870D01*
X154005665Y-99635000D01*
X153334335Y-99635000D01*
X153152898Y-99652870D01*
X152920099Y-99723489D01*
X152705551Y-99838167D01*
X152517498Y-99992498D01*
X152363167Y-100180551D01*
X152248489Y-100395099D01*
X152177870Y-100627898D01*
X152154025Y-100870000D01*
X145279975Y-100870000D01*
X145256130Y-100627898D01*
X145185511Y-100395099D01*
X145070833Y-100180551D01*
X144916502Y-99992498D01*
X144728449Y-99838167D01*
X144513901Y-99723489D01*
X144281102Y-99652870D01*
X144099665Y-99635000D01*
X143428335Y-99635000D01*
X143246898Y-99652870D01*
X143014099Y-99723489D01*
X142799551Y-99838167D01*
X142611498Y-99992498D01*
X142457167Y-100180551D01*
X142342489Y-100395099D01*
X142271870Y-100627898D01*
X142248025Y-100870000D01*
X135373975Y-100870000D01*
X135350130Y-100627898D01*
X135279511Y-100395099D01*
X135164833Y-100180551D01*
X135010502Y-99992498D01*
X134822449Y-99838167D01*
X134607901Y-99723489D01*
X134375102Y-99652870D01*
X134193665Y-99635000D01*
X133522335Y-99635000D01*
X133340898Y-99652870D01*
X133108099Y-99723489D01*
X132893551Y-99838167D01*
X132705498Y-99992498D01*
X132551167Y-100180551D01*
X132436489Y-100395099D01*
X132365870Y-100627898D01*
X132342025Y-100870000D01*
X125467975Y-100870000D01*
X125444130Y-100627898D01*
X125373511Y-100395099D01*
X125258833Y-100180551D01*
X125104502Y-99992498D01*
X124916449Y-99838167D01*
X124701901Y-99723489D01*
X124469102Y-99652870D01*
X124287665Y-99635000D01*
X123616335Y-99635000D01*
X123434898Y-99652870D01*
X123202099Y-99723489D01*
X122987551Y-99838167D01*
X122799498Y-99992498D01*
X122645167Y-100180551D01*
X122530489Y-100395099D01*
X122459870Y-100627898D01*
X122436025Y-100870000D01*
X115561975Y-100870000D01*
X115538130Y-100627898D01*
X115467511Y-100395099D01*
X115352833Y-100180551D01*
X115198502Y-99992498D01*
X115010449Y-99838167D01*
X114795901Y-99723489D01*
X114563102Y-99652870D01*
X114381665Y-99635000D01*
X113710335Y-99635000D01*
X113528898Y-99652870D01*
X113296099Y-99723489D01*
X113081551Y-99838167D01*
X112893498Y-99992498D01*
X112739167Y-100180551D01*
X112624489Y-100395099D01*
X112553870Y-100627898D01*
X112530025Y-100870000D01*
X105655975Y-100870000D01*
X105632130Y-100627898D01*
X105561511Y-100395099D01*
X105446833Y-100180551D01*
X105292502Y-99992498D01*
X105104449Y-99838167D01*
X104889901Y-99723489D01*
X104657102Y-99652870D01*
X104475665Y-99635000D01*
X103804335Y-99635000D01*
X103622898Y-99652870D01*
X103390099Y-99723489D01*
X103175551Y-99838167D01*
X102987498Y-99992498D01*
X102833167Y-100180551D01*
X102718489Y-100395099D01*
X102647870Y-100627898D01*
X102624025Y-100870000D01*
X76885000Y-100870000D01*
X76885000Y-94665000D01*
X158065000Y-94665000D01*
X158065001Y-131395000D01*
%TA.AperFunction,Conductor*%
D16*
G36*
X158065001Y-131395000D02*
G01*
X76885000Y-131395000D01*
X76885000Y-129868514D01*
X85105000Y-129868514D01*
X85105000Y-130131486D01*
X85156304Y-130389405D01*
X85256939Y-130632359D01*
X85403038Y-130851013D01*
X85588987Y-131036962D01*
X85807641Y-131183061D01*
X86050595Y-131283696D01*
X86308514Y-131335000D01*
X86571486Y-131335000D01*
X86829405Y-131283696D01*
X87072359Y-131183061D01*
X87291013Y-131036962D01*
X87476962Y-130851013D01*
X87623061Y-130632359D01*
X87723696Y-130389405D01*
X87775000Y-130131486D01*
X87775000Y-129868514D01*
X87723696Y-129610595D01*
X87623061Y-129367641D01*
X87476962Y-129148987D01*
X87291013Y-128963038D01*
X87072359Y-128816939D01*
X86829405Y-128716304D01*
X86571486Y-128665000D01*
X86308514Y-128665000D01*
X86050595Y-128716304D01*
X85807641Y-128816939D01*
X85588987Y-128963038D01*
X85403038Y-129148987D01*
X85256939Y-129367641D01*
X85156304Y-129610595D01*
X85105000Y-129868514D01*
X76885000Y-129868514D01*
X76885000Y-121765098D01*
X89055000Y-121765098D01*
X89055000Y-122234902D01*
X89146654Y-122695679D01*
X89326440Y-123129721D01*
X89587450Y-123520349D01*
X89919651Y-123852550D01*
X90310279Y-124113560D01*
X90744321Y-124293346D01*
X91205098Y-124385000D01*
X91674902Y-124385000D01*
X92135679Y-124293346D01*
X92569721Y-124113560D01*
X92960349Y-123852550D01*
X93082899Y-123730000D01*
X102624025Y-123730000D01*
X102647870Y-123972102D01*
X102718489Y-124204901D01*
X102833167Y-124419449D01*
X102987498Y-124607502D01*
X103175551Y-124761833D01*
X103390099Y-124876511D01*
X103622898Y-124947130D01*
X103804335Y-124965000D01*
X104475665Y-124965000D01*
X104657102Y-124947130D01*
X104889901Y-124876511D01*
X105104449Y-124761833D01*
X105292502Y-124607502D01*
X105446833Y-124419449D01*
X105561511Y-124204901D01*
X105632130Y-123972102D01*
X105655975Y-123730000D01*
X112530025Y-123730000D01*
X112553870Y-123972102D01*
X112624489Y-124204901D01*
X112739167Y-124419449D01*
X112893498Y-124607502D01*
X113081551Y-124761833D01*
X113296099Y-124876511D01*
X113528898Y-124947130D01*
X113710335Y-124965000D01*
X114381665Y-124965000D01*
X114563102Y-124947130D01*
X114795901Y-124876511D01*
X115010449Y-124761833D01*
X115198502Y-124607502D01*
X115352833Y-124419449D01*
X115467511Y-124204901D01*
X115538130Y-123972102D01*
X115561975Y-123730000D01*
X122436025Y-123730000D01*
X122459870Y-123972102D01*
X122530489Y-124204901D01*
X122645167Y-124419449D01*
X122799498Y-124607502D01*
X122987551Y-124761833D01*
X123202099Y-124876511D01*
X123434898Y-124947130D01*
X123616335Y-124965000D01*
X124287665Y-124965000D01*
X124469102Y-124947130D01*
X124701901Y-124876511D01*
X124916449Y-124761833D01*
X125104502Y-124607502D01*
X125258833Y-124419449D01*
X125373511Y-124204901D01*
X125444130Y-123972102D01*
X125467975Y-123730000D01*
X132342025Y-123730000D01*
X132365870Y-123972102D01*
X132436489Y-124204901D01*
X132551167Y-124419449D01*
X132705498Y-124607502D01*
X132893551Y-124761833D01*
X133108099Y-124876511D01*
X133340898Y-124947130D01*
X133522335Y-124965000D01*
X134193665Y-124965000D01*
X134375102Y-124947130D01*
X134607901Y-124876511D01*
X134822449Y-124761833D01*
X135010502Y-124607502D01*
X135164833Y-124419449D01*
X135279511Y-124204901D01*
X135350130Y-123972102D01*
X135373975Y-123730000D01*
X142248025Y-123730000D01*
X142271870Y-123972102D01*
X142342489Y-124204901D01*
X142457167Y-124419449D01*
X142611498Y-124607502D01*
X142799551Y-124761833D01*
X143014099Y-124876511D01*
X143246898Y-124947130D01*
X143428335Y-124965000D01*
X144099665Y-124965000D01*
X144281102Y-124947130D01*
X144513901Y-124876511D01*
X144728449Y-124761833D01*
X144916502Y-124607502D01*
X145070833Y-124419449D01*
X145185511Y-124204901D01*
X145256130Y-123972102D01*
X145279975Y-123730000D01*
X152154025Y-123730000D01*
X152177870Y-123972102D01*
X152248489Y-124204901D01*
X152363167Y-124419449D01*
X152517498Y-124607502D01*
X152705551Y-124761833D01*
X152920099Y-124876511D01*
X153152898Y-124947130D01*
X153334335Y-124965000D01*
X154005665Y-124965000D01*
X154187102Y-124947130D01*
X154419901Y-124876511D01*
X154634449Y-124761833D01*
X154822502Y-124607502D01*
X154976833Y-124419449D01*
X155091511Y-124204901D01*
X155162130Y-123972102D01*
X155185975Y-123730000D01*
X155162130Y-123487898D01*
X155091511Y-123255099D01*
X154976833Y-123040551D01*
X154822502Y-122852498D01*
X154634449Y-122698167D01*
X154419901Y-122583489D01*
X154187102Y-122512870D01*
X154005665Y-122495000D01*
X153334335Y-122495000D01*
X153152898Y-122512870D01*
X152920099Y-122583489D01*
X152705551Y-122698167D01*
X152517498Y-122852498D01*
X152363167Y-123040551D01*
X152248489Y-123255099D01*
X152177870Y-123487898D01*
X152154025Y-123730000D01*
X145279975Y-123730000D01*
X145256130Y-123487898D01*
X145185511Y-123255099D01*
X145070833Y-123040551D01*
X144916502Y-122852498D01*
X144728449Y-122698167D01*
X144513901Y-122583489D01*
X144281102Y-122512870D01*
X144099665Y-122495000D01*
X143428335Y-122495000D01*
X143246898Y-122512870D01*
X143014099Y-122583489D01*
X142799551Y-122698167D01*
X142611498Y-122852498D01*
X142457167Y-123040551D01*
X142342489Y-123255099D01*
X142271870Y-123487898D01*
X142248025Y-123730000D01*
X135373975Y-123730000D01*
X135350130Y-123487898D01*
X135279511Y-123255099D01*
X135164833Y-123040551D01*
X135010502Y-122852498D01*
X134822449Y-122698167D01*
X134607901Y-122583489D01*
X134375102Y-122512870D01*
X134193665Y-122495000D01*
X133522335Y-122495000D01*
X133340898Y-122512870D01*
X133108099Y-122583489D01*
X132893551Y-122698167D01*
X132705498Y-122852498D01*
X132551167Y-123040551D01*
X132436489Y-123255099D01*
X132365870Y-123487898D01*
X132342025Y-123730000D01*
X125467975Y-123730000D01*
X125444130Y-123487898D01*
X125373511Y-123255099D01*
X125258833Y-123040551D01*
X125104502Y-122852498D01*
X124916449Y-122698167D01*
X124701901Y-122583489D01*
X124469102Y-122512870D01*
X124287665Y-122495000D01*
X123616335Y-122495000D01*
X123434898Y-122512870D01*
X123202099Y-122583489D01*
X122987551Y-122698167D01*
X122799498Y-122852498D01*
X122645167Y-123040551D01*
X122530489Y-123255099D01*
X122459870Y-123487898D01*
X122436025Y-123730000D01*
X115561975Y-123730000D01*
X115538130Y-123487898D01*
X115467511Y-123255099D01*
X115352833Y-123040551D01*
X115198502Y-122852498D01*
X115010449Y-122698167D01*
X114795901Y-122583489D01*
X114563102Y-122512870D01*
X114381665Y-122495000D01*
X113710335Y-122495000D01*
X113528898Y-122512870D01*
X113296099Y-122583489D01*
X113081551Y-122698167D01*
X112893498Y-122852498D01*
X112739167Y-123040551D01*
X112624489Y-123255099D01*
X112553870Y-123487898D01*
X112530025Y-123730000D01*
X105655975Y-123730000D01*
X105632130Y-123487898D01*
X105561511Y-123255099D01*
X105446833Y-123040551D01*
X105292502Y-122852498D01*
X105104449Y-122698167D01*
X104889901Y-122583489D01*
X104657102Y-122512870D01*
X104475665Y-122495000D01*
X103804335Y-122495000D01*
X103622898Y-122512870D01*
X103390099Y-122583489D01*
X103175551Y-122698167D01*
X102987498Y-122852498D01*
X102833167Y-123040551D01*
X102718489Y-123255099D01*
X102647870Y-123487898D01*
X102624025Y-123730000D01*
X93082899Y-123730000D01*
X93292550Y-123520349D01*
X93553560Y-123129721D01*
X93733346Y-122695679D01*
X93825000Y-122234902D01*
X93825000Y-121765098D01*
X93733346Y-121304321D01*
X93553560Y-120870279D01*
X93292550Y-120479651D01*
X92960349Y-120147450D01*
X92569721Y-119886440D01*
X92135679Y-119706654D01*
X91674902Y-119615000D01*
X91205098Y-119615000D01*
X90744321Y-119706654D01*
X90310279Y-119886440D01*
X89919651Y-120147450D01*
X89587450Y-120479651D01*
X89326440Y-120870279D01*
X89146654Y-121304321D01*
X89055000Y-121765098D01*
X76885000Y-121765098D01*
X76885000Y-118868514D01*
X85105000Y-118868514D01*
X85105000Y-119131486D01*
X85156304Y-119389405D01*
X85256939Y-119632359D01*
X85403038Y-119851013D01*
X85588987Y-120036962D01*
X85807641Y-120183061D01*
X86050595Y-120283696D01*
X86308514Y-120335000D01*
X86571486Y-120335000D01*
X86829405Y-120283696D01*
X87072359Y-120183061D01*
X87291013Y-120036962D01*
X87476962Y-119851013D01*
X87623061Y-119632359D01*
X87723696Y-119389405D01*
X87775000Y-119131486D01*
X87775000Y-118868514D01*
X87723696Y-118610595D01*
X87623061Y-118367641D01*
X87476962Y-118148987D01*
X87291013Y-117963038D01*
X87072359Y-117816939D01*
X86829405Y-117716304D01*
X86571486Y-117665000D01*
X86308514Y-117665000D01*
X86050595Y-117716304D01*
X85807641Y-117816939D01*
X85588987Y-117963038D01*
X85403038Y-118148987D01*
X85256939Y-118367641D01*
X85156304Y-118610595D01*
X85105000Y-118868514D01*
X76885000Y-118868514D01*
X76885000Y-112300000D01*
X102624025Y-112300000D01*
X102647870Y-112542102D01*
X102718489Y-112774901D01*
X102833167Y-112989449D01*
X102987498Y-113177502D01*
X103175551Y-113331833D01*
X103390099Y-113446511D01*
X103622898Y-113517130D01*
X103804335Y-113535000D01*
X104475665Y-113535000D01*
X104657102Y-113517130D01*
X104889901Y-113446511D01*
X105104449Y-113331833D01*
X105292502Y-113177502D01*
X105446833Y-112989449D01*
X105561511Y-112774901D01*
X105632130Y-112542102D01*
X105655975Y-112300000D01*
X112666025Y-112300000D01*
X112689870Y-112542102D01*
X112760489Y-112774901D01*
X112875167Y-112989449D01*
X113029498Y-113177502D01*
X113217551Y-113331833D01*
X113432099Y-113446511D01*
X113664898Y-113517130D01*
X113846335Y-113535000D01*
X114517665Y-113535000D01*
X114699102Y-113517130D01*
X114931901Y-113446511D01*
X115146449Y-113331833D01*
X115334502Y-113177502D01*
X115488833Y-112989449D01*
X115603511Y-112774901D01*
X115674130Y-112542102D01*
X115697975Y-112300000D01*
X122538025Y-112300000D01*
X122561870Y-112542102D01*
X122632489Y-112774901D01*
X122747167Y-112989449D01*
X122901498Y-113177502D01*
X123089551Y-113331833D01*
X123304099Y-113446511D01*
X123536898Y-113517130D01*
X123718335Y-113535000D01*
X124389665Y-113535000D01*
X124571102Y-113517130D01*
X124803901Y-113446511D01*
X125018449Y-113331833D01*
X125206502Y-113177502D01*
X125360833Y-112989449D01*
X125475511Y-112774901D01*
X125546130Y-112542102D01*
X125569975Y-112300000D01*
X132410025Y-112300000D01*
X132433870Y-112542102D01*
X132504489Y-112774901D01*
X132619167Y-112989449D01*
X132773498Y-113177502D01*
X132961551Y-113331833D01*
X133176099Y-113446511D01*
X133408898Y-113517130D01*
X133590335Y-113535000D01*
X134261665Y-113535000D01*
X134443102Y-113517130D01*
X134675901Y-113446511D01*
X134890449Y-113331833D01*
X135078502Y-113177502D01*
X135232833Y-112989449D01*
X135347511Y-112774901D01*
X135418130Y-112542102D01*
X135441975Y-112300000D01*
X142282025Y-112300000D01*
X142305870Y-112542102D01*
X142376489Y-112774901D01*
X142491167Y-112989449D01*
X142645498Y-113177502D01*
X142833551Y-113331833D01*
X143048099Y-113446511D01*
X143280898Y-113517130D01*
X143462335Y-113535000D01*
X144133665Y-113535000D01*
X144315102Y-113517130D01*
X144547901Y-113446511D01*
X144762449Y-113331833D01*
X144950502Y-113177502D01*
X145104833Y-112989449D01*
X145219511Y-112774901D01*
X145290130Y-112542102D01*
X145313975Y-112300000D01*
X152154025Y-112300000D01*
X152177870Y-112542102D01*
X152248489Y-112774901D01*
X152363167Y-112989449D01*
X152517498Y-113177502D01*
X152705551Y-113331833D01*
X152920099Y-113446511D01*
X153152898Y-113517130D01*
X153334335Y-113535000D01*
X154005665Y-113535000D01*
X154187102Y-113517130D01*
X154419901Y-113446511D01*
X154634449Y-113331833D01*
X154822502Y-113177502D01*
X154976833Y-112989449D01*
X155091511Y-112774901D01*
X155162130Y-112542102D01*
X155185975Y-112300000D01*
X155162130Y-112057898D01*
X155091511Y-111825099D01*
X154976833Y-111610551D01*
X154822502Y-111422498D01*
X154634449Y-111268167D01*
X154419901Y-111153489D01*
X154187102Y-111082870D01*
X154005665Y-111065000D01*
X153334335Y-111065000D01*
X153152898Y-111082870D01*
X152920099Y-111153489D01*
X152705551Y-111268167D01*
X152517498Y-111422498D01*
X152363167Y-111610551D01*
X152248489Y-111825099D01*
X152177870Y-112057898D01*
X152154025Y-112300000D01*
X145313975Y-112300000D01*
X145290130Y-112057898D01*
X145219511Y-111825099D01*
X145104833Y-111610551D01*
X144950502Y-111422498D01*
X144762449Y-111268167D01*
X144547901Y-111153489D01*
X144315102Y-111082870D01*
X144133665Y-111065000D01*
X143462335Y-111065000D01*
X143280898Y-111082870D01*
X143048099Y-111153489D01*
X142833551Y-111268167D01*
X142645498Y-111422498D01*
X142491167Y-111610551D01*
X142376489Y-111825099D01*
X142305870Y-112057898D01*
X142282025Y-112300000D01*
X135441975Y-112300000D01*
X135418130Y-112057898D01*
X135347511Y-111825099D01*
X135232833Y-111610551D01*
X135078502Y-111422498D01*
X134890449Y-111268167D01*
X134675901Y-111153489D01*
X134443102Y-111082870D01*
X134261665Y-111065000D01*
X133590335Y-111065000D01*
X133408898Y-111082870D01*
X133176099Y-111153489D01*
X132961551Y-111268167D01*
X132773498Y-111422498D01*
X132619167Y-111610551D01*
X132504489Y-111825099D01*
X132433870Y-112057898D01*
X132410025Y-112300000D01*
X125569975Y-112300000D01*
X125546130Y-112057898D01*
X125475511Y-111825099D01*
X125360833Y-111610551D01*
X125206502Y-111422498D01*
X125018449Y-111268167D01*
X124803901Y-111153489D01*
X124571102Y-111082870D01*
X124389665Y-111065000D01*
X123718335Y-111065000D01*
X123536898Y-111082870D01*
X123304099Y-111153489D01*
X123089551Y-111268167D01*
X122901498Y-111422498D01*
X122747167Y-111610551D01*
X122632489Y-111825099D01*
X122561870Y-112057898D01*
X122538025Y-112300000D01*
X115697975Y-112300000D01*
X115674130Y-112057898D01*
X115603511Y-111825099D01*
X115488833Y-111610551D01*
X115334502Y-111422498D01*
X115146449Y-111268167D01*
X114931901Y-111153489D01*
X114699102Y-111082870D01*
X114517665Y-111065000D01*
X113846335Y-111065000D01*
X113664898Y-111082870D01*
X113432099Y-111153489D01*
X113217551Y-111268167D01*
X113029498Y-111422498D01*
X112875167Y-111610551D01*
X112760489Y-111825099D01*
X112689870Y-112057898D01*
X112666025Y-112300000D01*
X105655975Y-112300000D01*
X105632130Y-112057898D01*
X105561511Y-111825099D01*
X105446833Y-111610551D01*
X105292502Y-111422498D01*
X105104449Y-111268167D01*
X104889901Y-111153489D01*
X104657102Y-111082870D01*
X104475665Y-111065000D01*
X103804335Y-111065000D01*
X103622898Y-111082870D01*
X103390099Y-111153489D01*
X103175551Y-111268167D01*
X102987498Y-111422498D01*
X102833167Y-111610551D01*
X102718489Y-111825099D01*
X102647870Y-112057898D01*
X102624025Y-112300000D01*
X76885000Y-112300000D01*
X76885000Y-102830000D01*
X84717815Y-102830000D01*
X84746487Y-103121111D01*
X84831401Y-103401034D01*
X84969294Y-103659014D01*
X85154866Y-103885134D01*
X85380986Y-104070706D01*
X85638966Y-104208599D01*
X85918889Y-104293513D01*
X86137050Y-104315000D01*
X86582950Y-104315000D01*
X86801111Y-104293513D01*
X87081034Y-104208599D01*
X87339014Y-104070706D01*
X87565134Y-103885134D01*
X87750706Y-103659014D01*
X87888599Y-103401034D01*
X87973513Y-103121111D01*
X88002185Y-102830000D01*
X87973513Y-102538889D01*
X87888599Y-102258966D01*
X87750706Y-102000986D01*
X87565134Y-101774866D01*
X87339014Y-101589294D01*
X87081034Y-101451401D01*
X86801111Y-101366487D01*
X86582950Y-101345000D01*
X86137050Y-101345000D01*
X85918889Y-101366487D01*
X85638966Y-101451401D01*
X85380986Y-101589294D01*
X85154866Y-101774866D01*
X84969294Y-102000986D01*
X84831401Y-102258966D01*
X84746487Y-102538889D01*
X84717815Y-102830000D01*
X76885000Y-102830000D01*
X76885000Y-100870000D01*
X102624025Y-100870000D01*
X102647870Y-101112102D01*
X102718489Y-101344901D01*
X102833167Y-101559449D01*
X102987498Y-101747502D01*
X103175551Y-101901833D01*
X103390099Y-102016511D01*
X103622898Y-102087130D01*
X103804335Y-102105000D01*
X104475665Y-102105000D01*
X104657102Y-102087130D01*
X104889901Y-102016511D01*
X105104449Y-101901833D01*
X105292502Y-101747502D01*
X105446833Y-101559449D01*
X105561511Y-101344901D01*
X105632130Y-101112102D01*
X105655975Y-100870000D01*
X112530025Y-100870000D01*
X112553870Y-101112102D01*
X112624489Y-101344901D01*
X112739167Y-101559449D01*
X112893498Y-101747502D01*
X113081551Y-101901833D01*
X113296099Y-102016511D01*
X113528898Y-102087130D01*
X113710335Y-102105000D01*
X114381665Y-102105000D01*
X114563102Y-102087130D01*
X114795901Y-102016511D01*
X115010449Y-101901833D01*
X115198502Y-101747502D01*
X115352833Y-101559449D01*
X115467511Y-101344901D01*
X115538130Y-101112102D01*
X115561975Y-100870000D01*
X122436025Y-100870000D01*
X122459870Y-101112102D01*
X122530489Y-101344901D01*
X122645167Y-101559449D01*
X122799498Y-101747502D01*
X122987551Y-101901833D01*
X123202099Y-102016511D01*
X123434898Y-102087130D01*
X123616335Y-102105000D01*
X124287665Y-102105000D01*
X124469102Y-102087130D01*
X124701901Y-102016511D01*
X124916449Y-101901833D01*
X125104502Y-101747502D01*
X125258833Y-101559449D01*
X125373511Y-101344901D01*
X125444130Y-101112102D01*
X125467975Y-100870000D01*
X132342025Y-100870000D01*
X132365870Y-101112102D01*
X132436489Y-101344901D01*
X132551167Y-101559449D01*
X132705498Y-101747502D01*
X132893551Y-101901833D01*
X133108099Y-102016511D01*
X133340898Y-102087130D01*
X133522335Y-102105000D01*
X134193665Y-102105000D01*
X134375102Y-102087130D01*
X134607901Y-102016511D01*
X134822449Y-101901833D01*
X135010502Y-101747502D01*
X135164833Y-101559449D01*
X135279511Y-101344901D01*
X135350130Y-101112102D01*
X135373975Y-100870000D01*
X142248025Y-100870000D01*
X142271870Y-101112102D01*
X142342489Y-101344901D01*
X142457167Y-101559449D01*
X142611498Y-101747502D01*
X142799551Y-101901833D01*
X143014099Y-102016511D01*
X143246898Y-102087130D01*
X143428335Y-102105000D01*
X144099665Y-102105000D01*
X144281102Y-102087130D01*
X144513901Y-102016511D01*
X144728449Y-101901833D01*
X144916502Y-101747502D01*
X145070833Y-101559449D01*
X145185511Y-101344901D01*
X145256130Y-101112102D01*
X145279975Y-100870000D01*
X152154025Y-100870000D01*
X152177870Y-101112102D01*
X152248489Y-101344901D01*
X152363167Y-101559449D01*
X152517498Y-101747502D01*
X152705551Y-101901833D01*
X152920099Y-102016511D01*
X153152898Y-102087130D01*
X153334335Y-102105000D01*
X154005665Y-102105000D01*
X154187102Y-102087130D01*
X154419901Y-102016511D01*
X154634449Y-101901833D01*
X154822502Y-101747502D01*
X154976833Y-101559449D01*
X155091511Y-101344901D01*
X155162130Y-101112102D01*
X155185975Y-100870000D01*
X155162130Y-100627898D01*
X155091511Y-100395099D01*
X154976833Y-100180551D01*
X154822502Y-99992498D01*
X154634449Y-99838167D01*
X154419901Y-99723489D01*
X154187102Y-99652870D01*
X154005665Y-99635000D01*
X153334335Y-99635000D01*
X153152898Y-99652870D01*
X152920099Y-99723489D01*
X152705551Y-99838167D01*
X152517498Y-99992498D01*
X152363167Y-100180551D01*
X152248489Y-100395099D01*
X152177870Y-100627898D01*
X152154025Y-100870000D01*
X145279975Y-100870000D01*
X145256130Y-100627898D01*
X145185511Y-100395099D01*
X145070833Y-100180551D01*
X144916502Y-99992498D01*
X144728449Y-99838167D01*
X144513901Y-99723489D01*
X144281102Y-99652870D01*
X144099665Y-99635000D01*
X143428335Y-99635000D01*
X143246898Y-99652870D01*
X143014099Y-99723489D01*
X142799551Y-99838167D01*
X142611498Y-99992498D01*
X142457167Y-100180551D01*
X142342489Y-100395099D01*
X142271870Y-100627898D01*
X142248025Y-100870000D01*
X135373975Y-100870000D01*
X135350130Y-100627898D01*
X135279511Y-100395099D01*
X135164833Y-100180551D01*
X135010502Y-99992498D01*
X134822449Y-99838167D01*
X134607901Y-99723489D01*
X134375102Y-99652870D01*
X134193665Y-99635000D01*
X133522335Y-99635000D01*
X133340898Y-99652870D01*
X133108099Y-99723489D01*
X132893551Y-99838167D01*
X132705498Y-99992498D01*
X132551167Y-100180551D01*
X132436489Y-100395099D01*
X132365870Y-100627898D01*
X132342025Y-100870000D01*
X125467975Y-100870000D01*
X125444130Y-100627898D01*
X125373511Y-100395099D01*
X125258833Y-100180551D01*
X125104502Y-99992498D01*
X124916449Y-99838167D01*
X124701901Y-99723489D01*
X124469102Y-99652870D01*
X124287665Y-99635000D01*
X123616335Y-99635000D01*
X123434898Y-99652870D01*
X123202099Y-99723489D01*
X122987551Y-99838167D01*
X122799498Y-99992498D01*
X122645167Y-100180551D01*
X122530489Y-100395099D01*
X122459870Y-100627898D01*
X122436025Y-100870000D01*
X115561975Y-100870000D01*
X115538130Y-100627898D01*
X115467511Y-100395099D01*
X115352833Y-100180551D01*
X115198502Y-99992498D01*
X115010449Y-99838167D01*
X114795901Y-99723489D01*
X114563102Y-99652870D01*
X114381665Y-99635000D01*
X113710335Y-99635000D01*
X113528898Y-99652870D01*
X113296099Y-99723489D01*
X113081551Y-99838167D01*
X112893498Y-99992498D01*
X112739167Y-100180551D01*
X112624489Y-100395099D01*
X112553870Y-100627898D01*
X112530025Y-100870000D01*
X105655975Y-100870000D01*
X105632130Y-100627898D01*
X105561511Y-100395099D01*
X105446833Y-100180551D01*
X105292502Y-99992498D01*
X105104449Y-99838167D01*
X104889901Y-99723489D01*
X104657102Y-99652870D01*
X104475665Y-99635000D01*
X103804335Y-99635000D01*
X103622898Y-99652870D01*
X103390099Y-99723489D01*
X103175551Y-99838167D01*
X102987498Y-99992498D01*
X102833167Y-100180551D01*
X102718489Y-100395099D01*
X102647870Y-100627898D01*
X102624025Y-100870000D01*
X76885000Y-100870000D01*
X76885000Y-94665000D01*
X158065000Y-94665000D01*
X158065001Y-131395000D01*
G37*
%TD.AperFunction*%
%TD*%
M02*
