%TF.GenerationSoftware,KiCad,Pcbnew,(5.1.9)-1*%
%TF.CreationDate,2021-10-16T11:47:39+01:00*%
%TF.ProjectId,1S-parallel-board,31532d70-6172-4616-9c6c-656c2d626f61,rev?*%
%TF.SameCoordinates,Original*%
%TF.FileFunction,Legend,Top*%
%TF.FilePolarity,Positive*%
%FSLAX46Y46*%
G04 Gerber Fmt 4.6, Leading zero omitted, Abs format (unit mm)*
G04 Created by KiCad (PCBNEW (5.1.9)-1) date 2021-10-16 11:47:39*
%MOMM*%
%LPD*%
G01*
G04 APERTURE LIST*
%ADD10C,0.300000*%
%ADD11C,0.120000*%
%ADD12C,0.150000*%
G04 APERTURE END LIST*
D10*
X110602857Y-97424761D02*
X109460000Y-97424761D01*
X110031428Y-97424761D02*
X110031428Y-95424761D01*
X109840952Y-95710476D01*
X109650476Y-95900952D01*
X109460000Y-95996190D01*
X111364761Y-97329523D02*
X111650476Y-97424761D01*
X112126666Y-97424761D01*
X112317142Y-97329523D01*
X112412380Y-97234285D01*
X112507619Y-97043809D01*
X112507619Y-96853333D01*
X112412380Y-96662857D01*
X112317142Y-96567619D01*
X112126666Y-96472380D01*
X111745714Y-96377142D01*
X111555238Y-96281904D01*
X111460000Y-96186666D01*
X111364761Y-95996190D01*
X111364761Y-95805714D01*
X111460000Y-95615238D01*
X111555238Y-95520000D01*
X111745714Y-95424761D01*
X112221904Y-95424761D01*
X112507619Y-95520000D01*
X114888571Y-97424761D02*
X114888571Y-95424761D01*
X115650476Y-95424761D01*
X115840952Y-95520000D01*
X115936190Y-95615238D01*
X116031428Y-95805714D01*
X116031428Y-96091428D01*
X115936190Y-96281904D01*
X115840952Y-96377142D01*
X115650476Y-96472380D01*
X114888571Y-96472380D01*
X116793333Y-96853333D02*
X117745714Y-96853333D01*
X116602857Y-97424761D02*
X117269523Y-95424761D01*
X117936190Y-97424761D01*
X119745714Y-97424761D02*
X119079047Y-96472380D01*
X118602857Y-97424761D02*
X118602857Y-95424761D01*
X119364761Y-95424761D01*
X119555238Y-95520000D01*
X119650476Y-95615238D01*
X119745714Y-95805714D01*
X119745714Y-96091428D01*
X119650476Y-96281904D01*
X119555238Y-96377142D01*
X119364761Y-96472380D01*
X118602857Y-96472380D01*
X120507619Y-96853333D02*
X121460000Y-96853333D01*
X120317142Y-97424761D02*
X120983809Y-95424761D01*
X121650476Y-97424761D01*
X123269523Y-97424761D02*
X122317142Y-97424761D01*
X122317142Y-95424761D01*
X124888571Y-97424761D02*
X123936190Y-97424761D01*
X123936190Y-95424761D01*
X125555238Y-96377142D02*
X126221904Y-96377142D01*
X126507619Y-97424761D02*
X125555238Y-97424761D01*
X125555238Y-95424761D01*
X126507619Y-95424761D01*
X128317142Y-97424761D02*
X127364761Y-97424761D01*
X127364761Y-95424761D01*
X131174285Y-96377142D02*
X131460000Y-96472380D01*
X131555238Y-96567619D01*
X131650476Y-96758095D01*
X131650476Y-97043809D01*
X131555238Y-97234285D01*
X131460000Y-97329523D01*
X131269523Y-97424761D01*
X130507619Y-97424761D01*
X130507619Y-95424761D01*
X131174285Y-95424761D01*
X131364761Y-95520000D01*
X131460000Y-95615238D01*
X131555238Y-95805714D01*
X131555238Y-95996190D01*
X131460000Y-96186666D01*
X131364761Y-96281904D01*
X131174285Y-96377142D01*
X130507619Y-96377142D01*
X132888571Y-95424761D02*
X133269523Y-95424761D01*
X133460000Y-95520000D01*
X133650476Y-95710476D01*
X133745714Y-96091428D01*
X133745714Y-96758095D01*
X133650476Y-97139047D01*
X133460000Y-97329523D01*
X133269523Y-97424761D01*
X132888571Y-97424761D01*
X132698095Y-97329523D01*
X132507619Y-97139047D01*
X132412380Y-96758095D01*
X132412380Y-96091428D01*
X132507619Y-95710476D01*
X132698095Y-95520000D01*
X132888571Y-95424761D01*
X134507619Y-96853333D02*
X135460000Y-96853333D01*
X134317142Y-97424761D02*
X134983809Y-95424761D01*
X135650476Y-97424761D01*
X137460000Y-97424761D02*
X136793333Y-96472380D01*
X136317142Y-97424761D02*
X136317142Y-95424761D01*
X137079047Y-95424761D01*
X137269523Y-95520000D01*
X137364761Y-95615238D01*
X137460000Y-95805714D01*
X137460000Y-96091428D01*
X137364761Y-96281904D01*
X137269523Y-96377142D01*
X137079047Y-96472380D01*
X136317142Y-96472380D01*
X138317142Y-97424761D02*
X138317142Y-95424761D01*
X138793333Y-95424761D01*
X139079047Y-95520000D01*
X139269523Y-95710476D01*
X139364761Y-95900952D01*
X139460000Y-96281904D01*
X139460000Y-96567619D01*
X139364761Y-96948571D01*
X139269523Y-97139047D01*
X139079047Y-97329523D01*
X138793333Y-97424761D01*
X138317142Y-97424761D01*
D11*
%TO.C,J20*%
X77050000Y-101580000D02*
X77050000Y-97770000D01*
X77050000Y-97770000D02*
X88770000Y-97770000D01*
X88770000Y-97770000D02*
X88770000Y-99190000D01*
X88770000Y-99190000D02*
X84270000Y-99190000D01*
X84270000Y-99190000D02*
X84270000Y-101580000D01*
X77050000Y-101580000D02*
X77050000Y-105390000D01*
X77050000Y-105390000D02*
X88770000Y-105390000D01*
X88770000Y-105390000D02*
X88770000Y-103970000D01*
X88770000Y-103970000D02*
X84270000Y-103970000D01*
X84270000Y-103970000D02*
X84270000Y-101580000D01*
X83160000Y-100080000D02*
X77660000Y-100080000D01*
X77660000Y-100080000D02*
X77660000Y-100580000D01*
X77660000Y-100580000D02*
X83160000Y-100580000D01*
X83160000Y-100580000D02*
X83160000Y-100080000D01*
X83160000Y-102580000D02*
X77660000Y-102580000D01*
X77660000Y-102580000D02*
X77660000Y-103080000D01*
X77660000Y-103080000D02*
X83160000Y-103080000D01*
X83160000Y-103080000D02*
X83160000Y-102580000D01*
X87860000Y-100330000D02*
X88460000Y-100030000D01*
X88460000Y-100030000D02*
X88460000Y-100630000D01*
X88460000Y-100630000D02*
X87860000Y-100330000D01*
%TO.C,J18*%
X132048000Y-127790000D02*
X136768000Y-127790000D01*
X136768000Y-127790000D02*
X136768000Y-121670000D01*
X136768000Y-121670000D02*
X132048000Y-121670000D01*
X132048000Y-121670000D02*
X132048000Y-127790000D01*
X132048000Y-126030000D02*
X131848000Y-126030000D01*
X131848000Y-126030000D02*
X131848000Y-126330000D01*
X131848000Y-126330000D02*
X132048000Y-126330000D01*
X131948000Y-126030000D02*
X131948000Y-126330000D01*
X132048000Y-125230000D02*
X132658000Y-125230000D01*
X132658000Y-125230000D02*
X132658000Y-127180000D01*
X132658000Y-127180000D02*
X136158000Y-127180000D01*
X136158000Y-127180000D02*
X136158000Y-122280000D01*
X136158000Y-122280000D02*
X132658000Y-122280000D01*
X132658000Y-122280000D02*
X132658000Y-124230000D01*
X132658000Y-124230000D02*
X132048000Y-124230000D01*
X133358000Y-127790000D02*
X133358000Y-127180000D01*
X134658000Y-127790000D02*
X134658000Y-127180000D01*
X133358000Y-121670000D02*
X133358000Y-122280000D01*
X134658000Y-121670000D02*
X134658000Y-122280000D01*
X136158000Y-124830000D02*
X135658000Y-124830000D01*
X135658000Y-124830000D02*
X135658000Y-124630000D01*
X135658000Y-124630000D02*
X136158000Y-124630000D01*
X136158000Y-124730000D02*
X135658000Y-124730000D01*
X131748000Y-126840000D02*
X131748000Y-128090000D01*
X131748000Y-128090000D02*
X132998000Y-128090000D01*
%TO.C,J17*%
X151860000Y-127790000D02*
X156580000Y-127790000D01*
X156580000Y-127790000D02*
X156580000Y-121670000D01*
X156580000Y-121670000D02*
X151860000Y-121670000D01*
X151860000Y-121670000D02*
X151860000Y-127790000D01*
X151860000Y-126030000D02*
X151660000Y-126030000D01*
X151660000Y-126030000D02*
X151660000Y-126330000D01*
X151660000Y-126330000D02*
X151860000Y-126330000D01*
X151760000Y-126030000D02*
X151760000Y-126330000D01*
X151860000Y-125230000D02*
X152470000Y-125230000D01*
X152470000Y-125230000D02*
X152470000Y-127180000D01*
X152470000Y-127180000D02*
X155970000Y-127180000D01*
X155970000Y-127180000D02*
X155970000Y-122280000D01*
X155970000Y-122280000D02*
X152470000Y-122280000D01*
X152470000Y-122280000D02*
X152470000Y-124230000D01*
X152470000Y-124230000D02*
X151860000Y-124230000D01*
X153170000Y-127790000D02*
X153170000Y-127180000D01*
X154470000Y-127790000D02*
X154470000Y-127180000D01*
X153170000Y-121670000D02*
X153170000Y-122280000D01*
X154470000Y-121670000D02*
X154470000Y-122280000D01*
X155970000Y-124830000D02*
X155470000Y-124830000D01*
X155470000Y-124830000D02*
X155470000Y-124630000D01*
X155470000Y-124630000D02*
X155970000Y-124630000D01*
X155970000Y-124730000D02*
X155470000Y-124730000D01*
X151560000Y-126840000D02*
X151560000Y-128090000D01*
X151560000Y-128090000D02*
X152810000Y-128090000D01*
%TO.C,J16*%
X141954000Y-127790000D02*
X146674000Y-127790000D01*
X146674000Y-127790000D02*
X146674000Y-121670000D01*
X146674000Y-121670000D02*
X141954000Y-121670000D01*
X141954000Y-121670000D02*
X141954000Y-127790000D01*
X141954000Y-126030000D02*
X141754000Y-126030000D01*
X141754000Y-126030000D02*
X141754000Y-126330000D01*
X141754000Y-126330000D02*
X141954000Y-126330000D01*
X141854000Y-126030000D02*
X141854000Y-126330000D01*
X141954000Y-125230000D02*
X142564000Y-125230000D01*
X142564000Y-125230000D02*
X142564000Y-127180000D01*
X142564000Y-127180000D02*
X146064000Y-127180000D01*
X146064000Y-127180000D02*
X146064000Y-122280000D01*
X146064000Y-122280000D02*
X142564000Y-122280000D01*
X142564000Y-122280000D02*
X142564000Y-124230000D01*
X142564000Y-124230000D02*
X141954000Y-124230000D01*
X143264000Y-127790000D02*
X143264000Y-127180000D01*
X144564000Y-127790000D02*
X144564000Y-127180000D01*
X143264000Y-121670000D02*
X143264000Y-122280000D01*
X144564000Y-121670000D02*
X144564000Y-122280000D01*
X146064000Y-124830000D02*
X145564000Y-124830000D01*
X145564000Y-124830000D02*
X145564000Y-124630000D01*
X145564000Y-124630000D02*
X146064000Y-124630000D01*
X146064000Y-124730000D02*
X145564000Y-124730000D01*
X141654000Y-126840000D02*
X141654000Y-128090000D01*
X141654000Y-128090000D02*
X142904000Y-128090000D01*
%TO.C,J15*%
X122142000Y-127790000D02*
X126862000Y-127790000D01*
X126862000Y-127790000D02*
X126862000Y-121670000D01*
X126862000Y-121670000D02*
X122142000Y-121670000D01*
X122142000Y-121670000D02*
X122142000Y-127790000D01*
X122142000Y-126030000D02*
X121942000Y-126030000D01*
X121942000Y-126030000D02*
X121942000Y-126330000D01*
X121942000Y-126330000D02*
X122142000Y-126330000D01*
X122042000Y-126030000D02*
X122042000Y-126330000D01*
X122142000Y-125230000D02*
X122752000Y-125230000D01*
X122752000Y-125230000D02*
X122752000Y-127180000D01*
X122752000Y-127180000D02*
X126252000Y-127180000D01*
X126252000Y-127180000D02*
X126252000Y-122280000D01*
X126252000Y-122280000D02*
X122752000Y-122280000D01*
X122752000Y-122280000D02*
X122752000Y-124230000D01*
X122752000Y-124230000D02*
X122142000Y-124230000D01*
X123452000Y-127790000D02*
X123452000Y-127180000D01*
X124752000Y-127790000D02*
X124752000Y-127180000D01*
X123452000Y-121670000D02*
X123452000Y-122280000D01*
X124752000Y-121670000D02*
X124752000Y-122280000D01*
X126252000Y-124830000D02*
X125752000Y-124830000D01*
X125752000Y-124830000D02*
X125752000Y-124630000D01*
X125752000Y-124630000D02*
X126252000Y-124630000D01*
X126252000Y-124730000D02*
X125752000Y-124730000D01*
X121842000Y-126840000D02*
X121842000Y-128090000D01*
X121842000Y-128090000D02*
X123092000Y-128090000D01*
%TO.C,J14*%
X112236000Y-127790000D02*
X116956000Y-127790000D01*
X116956000Y-127790000D02*
X116956000Y-121670000D01*
X116956000Y-121670000D02*
X112236000Y-121670000D01*
X112236000Y-121670000D02*
X112236000Y-127790000D01*
X112236000Y-126030000D02*
X112036000Y-126030000D01*
X112036000Y-126030000D02*
X112036000Y-126330000D01*
X112036000Y-126330000D02*
X112236000Y-126330000D01*
X112136000Y-126030000D02*
X112136000Y-126330000D01*
X112236000Y-125230000D02*
X112846000Y-125230000D01*
X112846000Y-125230000D02*
X112846000Y-127180000D01*
X112846000Y-127180000D02*
X116346000Y-127180000D01*
X116346000Y-127180000D02*
X116346000Y-122280000D01*
X116346000Y-122280000D02*
X112846000Y-122280000D01*
X112846000Y-122280000D02*
X112846000Y-124230000D01*
X112846000Y-124230000D02*
X112236000Y-124230000D01*
X113546000Y-127790000D02*
X113546000Y-127180000D01*
X114846000Y-127790000D02*
X114846000Y-127180000D01*
X113546000Y-121670000D02*
X113546000Y-122280000D01*
X114846000Y-121670000D02*
X114846000Y-122280000D01*
X116346000Y-124830000D02*
X115846000Y-124830000D01*
X115846000Y-124830000D02*
X115846000Y-124630000D01*
X115846000Y-124630000D02*
X116346000Y-124630000D01*
X116346000Y-124730000D02*
X115846000Y-124730000D01*
X111936000Y-126840000D02*
X111936000Y-128090000D01*
X111936000Y-128090000D02*
X113186000Y-128090000D01*
%TO.C,J13*%
X102330000Y-127790000D02*
X107050000Y-127790000D01*
X107050000Y-127790000D02*
X107050000Y-121670000D01*
X107050000Y-121670000D02*
X102330000Y-121670000D01*
X102330000Y-121670000D02*
X102330000Y-127790000D01*
X102330000Y-126030000D02*
X102130000Y-126030000D01*
X102130000Y-126030000D02*
X102130000Y-126330000D01*
X102130000Y-126330000D02*
X102330000Y-126330000D01*
X102230000Y-126030000D02*
X102230000Y-126330000D01*
X102330000Y-125230000D02*
X102940000Y-125230000D01*
X102940000Y-125230000D02*
X102940000Y-127180000D01*
X102940000Y-127180000D02*
X106440000Y-127180000D01*
X106440000Y-127180000D02*
X106440000Y-122280000D01*
X106440000Y-122280000D02*
X102940000Y-122280000D01*
X102940000Y-122280000D02*
X102940000Y-124230000D01*
X102940000Y-124230000D02*
X102330000Y-124230000D01*
X103640000Y-127790000D02*
X103640000Y-127180000D01*
X104940000Y-127790000D02*
X104940000Y-127180000D01*
X103640000Y-121670000D02*
X103640000Y-122280000D01*
X104940000Y-121670000D02*
X104940000Y-122280000D01*
X106440000Y-124830000D02*
X105940000Y-124830000D01*
X105940000Y-124830000D02*
X105940000Y-124630000D01*
X105940000Y-124630000D02*
X106440000Y-124630000D01*
X106440000Y-124730000D02*
X105940000Y-124730000D01*
X102030000Y-126840000D02*
X102030000Y-128090000D01*
X102030000Y-128090000D02*
X103280000Y-128090000D01*
%TO.C,J12*%
X151860000Y-116360000D02*
X156580000Y-116360000D01*
X156580000Y-116360000D02*
X156580000Y-110240000D01*
X156580000Y-110240000D02*
X151860000Y-110240000D01*
X151860000Y-110240000D02*
X151860000Y-116360000D01*
X151860000Y-114600000D02*
X151660000Y-114600000D01*
X151660000Y-114600000D02*
X151660000Y-114900000D01*
X151660000Y-114900000D02*
X151860000Y-114900000D01*
X151760000Y-114600000D02*
X151760000Y-114900000D01*
X151860000Y-113800000D02*
X152470000Y-113800000D01*
X152470000Y-113800000D02*
X152470000Y-115750000D01*
X152470000Y-115750000D02*
X155970000Y-115750000D01*
X155970000Y-115750000D02*
X155970000Y-110850000D01*
X155970000Y-110850000D02*
X152470000Y-110850000D01*
X152470000Y-110850000D02*
X152470000Y-112800000D01*
X152470000Y-112800000D02*
X151860000Y-112800000D01*
X153170000Y-116360000D02*
X153170000Y-115750000D01*
X154470000Y-116360000D02*
X154470000Y-115750000D01*
X153170000Y-110240000D02*
X153170000Y-110850000D01*
X154470000Y-110240000D02*
X154470000Y-110850000D01*
X155970000Y-113400000D02*
X155470000Y-113400000D01*
X155470000Y-113400000D02*
X155470000Y-113200000D01*
X155470000Y-113200000D02*
X155970000Y-113200000D01*
X155970000Y-113300000D02*
X155470000Y-113300000D01*
X151560000Y-115410000D02*
X151560000Y-116660000D01*
X151560000Y-116660000D02*
X152810000Y-116660000D01*
%TO.C,J11*%
X141988000Y-116360000D02*
X146708000Y-116360000D01*
X146708000Y-116360000D02*
X146708000Y-110240000D01*
X146708000Y-110240000D02*
X141988000Y-110240000D01*
X141988000Y-110240000D02*
X141988000Y-116360000D01*
X141988000Y-114600000D02*
X141788000Y-114600000D01*
X141788000Y-114600000D02*
X141788000Y-114900000D01*
X141788000Y-114900000D02*
X141988000Y-114900000D01*
X141888000Y-114600000D02*
X141888000Y-114900000D01*
X141988000Y-113800000D02*
X142598000Y-113800000D01*
X142598000Y-113800000D02*
X142598000Y-115750000D01*
X142598000Y-115750000D02*
X146098000Y-115750000D01*
X146098000Y-115750000D02*
X146098000Y-110850000D01*
X146098000Y-110850000D02*
X142598000Y-110850000D01*
X142598000Y-110850000D02*
X142598000Y-112800000D01*
X142598000Y-112800000D02*
X141988000Y-112800000D01*
X143298000Y-116360000D02*
X143298000Y-115750000D01*
X144598000Y-116360000D02*
X144598000Y-115750000D01*
X143298000Y-110240000D02*
X143298000Y-110850000D01*
X144598000Y-110240000D02*
X144598000Y-110850000D01*
X146098000Y-113400000D02*
X145598000Y-113400000D01*
X145598000Y-113400000D02*
X145598000Y-113200000D01*
X145598000Y-113200000D02*
X146098000Y-113200000D01*
X146098000Y-113300000D02*
X145598000Y-113300000D01*
X141688000Y-115410000D02*
X141688000Y-116660000D01*
X141688000Y-116660000D02*
X142938000Y-116660000D01*
%TO.C,J10*%
X132116000Y-116360000D02*
X136836000Y-116360000D01*
X136836000Y-116360000D02*
X136836000Y-110240000D01*
X136836000Y-110240000D02*
X132116000Y-110240000D01*
X132116000Y-110240000D02*
X132116000Y-116360000D01*
X132116000Y-114600000D02*
X131916000Y-114600000D01*
X131916000Y-114600000D02*
X131916000Y-114900000D01*
X131916000Y-114900000D02*
X132116000Y-114900000D01*
X132016000Y-114600000D02*
X132016000Y-114900000D01*
X132116000Y-113800000D02*
X132726000Y-113800000D01*
X132726000Y-113800000D02*
X132726000Y-115750000D01*
X132726000Y-115750000D02*
X136226000Y-115750000D01*
X136226000Y-115750000D02*
X136226000Y-110850000D01*
X136226000Y-110850000D02*
X132726000Y-110850000D01*
X132726000Y-110850000D02*
X132726000Y-112800000D01*
X132726000Y-112800000D02*
X132116000Y-112800000D01*
X133426000Y-116360000D02*
X133426000Y-115750000D01*
X134726000Y-116360000D02*
X134726000Y-115750000D01*
X133426000Y-110240000D02*
X133426000Y-110850000D01*
X134726000Y-110240000D02*
X134726000Y-110850000D01*
X136226000Y-113400000D02*
X135726000Y-113400000D01*
X135726000Y-113400000D02*
X135726000Y-113200000D01*
X135726000Y-113200000D02*
X136226000Y-113200000D01*
X136226000Y-113300000D02*
X135726000Y-113300000D01*
X131816000Y-115410000D02*
X131816000Y-116660000D01*
X131816000Y-116660000D02*
X133066000Y-116660000D01*
%TO.C,J9*%
X122244000Y-116360000D02*
X126964000Y-116360000D01*
X126964000Y-116360000D02*
X126964000Y-110240000D01*
X126964000Y-110240000D02*
X122244000Y-110240000D01*
X122244000Y-110240000D02*
X122244000Y-116360000D01*
X122244000Y-114600000D02*
X122044000Y-114600000D01*
X122044000Y-114600000D02*
X122044000Y-114900000D01*
X122044000Y-114900000D02*
X122244000Y-114900000D01*
X122144000Y-114600000D02*
X122144000Y-114900000D01*
X122244000Y-113800000D02*
X122854000Y-113800000D01*
X122854000Y-113800000D02*
X122854000Y-115750000D01*
X122854000Y-115750000D02*
X126354000Y-115750000D01*
X126354000Y-115750000D02*
X126354000Y-110850000D01*
X126354000Y-110850000D02*
X122854000Y-110850000D01*
X122854000Y-110850000D02*
X122854000Y-112800000D01*
X122854000Y-112800000D02*
X122244000Y-112800000D01*
X123554000Y-116360000D02*
X123554000Y-115750000D01*
X124854000Y-116360000D02*
X124854000Y-115750000D01*
X123554000Y-110240000D02*
X123554000Y-110850000D01*
X124854000Y-110240000D02*
X124854000Y-110850000D01*
X126354000Y-113400000D02*
X125854000Y-113400000D01*
X125854000Y-113400000D02*
X125854000Y-113200000D01*
X125854000Y-113200000D02*
X126354000Y-113200000D01*
X126354000Y-113300000D02*
X125854000Y-113300000D01*
X121944000Y-115410000D02*
X121944000Y-116660000D01*
X121944000Y-116660000D02*
X123194000Y-116660000D01*
%TO.C,J8*%
X112372000Y-116360000D02*
X117092000Y-116360000D01*
X117092000Y-116360000D02*
X117092000Y-110240000D01*
X117092000Y-110240000D02*
X112372000Y-110240000D01*
X112372000Y-110240000D02*
X112372000Y-116360000D01*
X112372000Y-114600000D02*
X112172000Y-114600000D01*
X112172000Y-114600000D02*
X112172000Y-114900000D01*
X112172000Y-114900000D02*
X112372000Y-114900000D01*
X112272000Y-114600000D02*
X112272000Y-114900000D01*
X112372000Y-113800000D02*
X112982000Y-113800000D01*
X112982000Y-113800000D02*
X112982000Y-115750000D01*
X112982000Y-115750000D02*
X116482000Y-115750000D01*
X116482000Y-115750000D02*
X116482000Y-110850000D01*
X116482000Y-110850000D02*
X112982000Y-110850000D01*
X112982000Y-110850000D02*
X112982000Y-112800000D01*
X112982000Y-112800000D02*
X112372000Y-112800000D01*
X113682000Y-116360000D02*
X113682000Y-115750000D01*
X114982000Y-116360000D02*
X114982000Y-115750000D01*
X113682000Y-110240000D02*
X113682000Y-110850000D01*
X114982000Y-110240000D02*
X114982000Y-110850000D01*
X116482000Y-113400000D02*
X115982000Y-113400000D01*
X115982000Y-113400000D02*
X115982000Y-113200000D01*
X115982000Y-113200000D02*
X116482000Y-113200000D01*
X116482000Y-113300000D02*
X115982000Y-113300000D01*
X112072000Y-115410000D02*
X112072000Y-116660000D01*
X112072000Y-116660000D02*
X113322000Y-116660000D01*
%TO.C,J7*%
X102330000Y-116360000D02*
X107050000Y-116360000D01*
X107050000Y-116360000D02*
X107050000Y-110240000D01*
X107050000Y-110240000D02*
X102330000Y-110240000D01*
X102330000Y-110240000D02*
X102330000Y-116360000D01*
X102330000Y-114600000D02*
X102130000Y-114600000D01*
X102130000Y-114600000D02*
X102130000Y-114900000D01*
X102130000Y-114900000D02*
X102330000Y-114900000D01*
X102230000Y-114600000D02*
X102230000Y-114900000D01*
X102330000Y-113800000D02*
X102940000Y-113800000D01*
X102940000Y-113800000D02*
X102940000Y-115750000D01*
X102940000Y-115750000D02*
X106440000Y-115750000D01*
X106440000Y-115750000D02*
X106440000Y-110850000D01*
X106440000Y-110850000D02*
X102940000Y-110850000D01*
X102940000Y-110850000D02*
X102940000Y-112800000D01*
X102940000Y-112800000D02*
X102330000Y-112800000D01*
X103640000Y-116360000D02*
X103640000Y-115750000D01*
X104940000Y-116360000D02*
X104940000Y-115750000D01*
X103640000Y-110240000D02*
X103640000Y-110850000D01*
X104940000Y-110240000D02*
X104940000Y-110850000D01*
X106440000Y-113400000D02*
X105940000Y-113400000D01*
X105940000Y-113400000D02*
X105940000Y-113200000D01*
X105940000Y-113200000D02*
X106440000Y-113200000D01*
X106440000Y-113300000D02*
X105940000Y-113300000D01*
X102030000Y-115410000D02*
X102030000Y-116660000D01*
X102030000Y-116660000D02*
X103280000Y-116660000D01*
%TO.C,J6*%
X151860000Y-104930000D02*
X156580000Y-104930000D01*
X156580000Y-104930000D02*
X156580000Y-98810000D01*
X156580000Y-98810000D02*
X151860000Y-98810000D01*
X151860000Y-98810000D02*
X151860000Y-104930000D01*
X151860000Y-103170000D02*
X151660000Y-103170000D01*
X151660000Y-103170000D02*
X151660000Y-103470000D01*
X151660000Y-103470000D02*
X151860000Y-103470000D01*
X151760000Y-103170000D02*
X151760000Y-103470000D01*
X151860000Y-102370000D02*
X152470000Y-102370000D01*
X152470000Y-102370000D02*
X152470000Y-104320000D01*
X152470000Y-104320000D02*
X155970000Y-104320000D01*
X155970000Y-104320000D02*
X155970000Y-99420000D01*
X155970000Y-99420000D02*
X152470000Y-99420000D01*
X152470000Y-99420000D02*
X152470000Y-101370000D01*
X152470000Y-101370000D02*
X151860000Y-101370000D01*
X153170000Y-104930000D02*
X153170000Y-104320000D01*
X154470000Y-104930000D02*
X154470000Y-104320000D01*
X153170000Y-98810000D02*
X153170000Y-99420000D01*
X154470000Y-98810000D02*
X154470000Y-99420000D01*
X155970000Y-101970000D02*
X155470000Y-101970000D01*
X155470000Y-101970000D02*
X155470000Y-101770000D01*
X155470000Y-101770000D02*
X155970000Y-101770000D01*
X155970000Y-101870000D02*
X155470000Y-101870000D01*
X151560000Y-103980000D02*
X151560000Y-105230000D01*
X151560000Y-105230000D02*
X152810000Y-105230000D01*
%TO.C,J5*%
X141954000Y-104930000D02*
X146674000Y-104930000D01*
X146674000Y-104930000D02*
X146674000Y-98810000D01*
X146674000Y-98810000D02*
X141954000Y-98810000D01*
X141954000Y-98810000D02*
X141954000Y-104930000D01*
X141954000Y-103170000D02*
X141754000Y-103170000D01*
X141754000Y-103170000D02*
X141754000Y-103470000D01*
X141754000Y-103470000D02*
X141954000Y-103470000D01*
X141854000Y-103170000D02*
X141854000Y-103470000D01*
X141954000Y-102370000D02*
X142564000Y-102370000D01*
X142564000Y-102370000D02*
X142564000Y-104320000D01*
X142564000Y-104320000D02*
X146064000Y-104320000D01*
X146064000Y-104320000D02*
X146064000Y-99420000D01*
X146064000Y-99420000D02*
X142564000Y-99420000D01*
X142564000Y-99420000D02*
X142564000Y-101370000D01*
X142564000Y-101370000D02*
X141954000Y-101370000D01*
X143264000Y-104930000D02*
X143264000Y-104320000D01*
X144564000Y-104930000D02*
X144564000Y-104320000D01*
X143264000Y-98810000D02*
X143264000Y-99420000D01*
X144564000Y-98810000D02*
X144564000Y-99420000D01*
X146064000Y-101970000D02*
X145564000Y-101970000D01*
X145564000Y-101970000D02*
X145564000Y-101770000D01*
X145564000Y-101770000D02*
X146064000Y-101770000D01*
X146064000Y-101870000D02*
X145564000Y-101870000D01*
X141654000Y-103980000D02*
X141654000Y-105230000D01*
X141654000Y-105230000D02*
X142904000Y-105230000D01*
%TO.C,J4*%
X132048000Y-104930000D02*
X136768000Y-104930000D01*
X136768000Y-104930000D02*
X136768000Y-98810000D01*
X136768000Y-98810000D02*
X132048000Y-98810000D01*
X132048000Y-98810000D02*
X132048000Y-104930000D01*
X132048000Y-103170000D02*
X131848000Y-103170000D01*
X131848000Y-103170000D02*
X131848000Y-103470000D01*
X131848000Y-103470000D02*
X132048000Y-103470000D01*
X131948000Y-103170000D02*
X131948000Y-103470000D01*
X132048000Y-102370000D02*
X132658000Y-102370000D01*
X132658000Y-102370000D02*
X132658000Y-104320000D01*
X132658000Y-104320000D02*
X136158000Y-104320000D01*
X136158000Y-104320000D02*
X136158000Y-99420000D01*
X136158000Y-99420000D02*
X132658000Y-99420000D01*
X132658000Y-99420000D02*
X132658000Y-101370000D01*
X132658000Y-101370000D02*
X132048000Y-101370000D01*
X133358000Y-104930000D02*
X133358000Y-104320000D01*
X134658000Y-104930000D02*
X134658000Y-104320000D01*
X133358000Y-98810000D02*
X133358000Y-99420000D01*
X134658000Y-98810000D02*
X134658000Y-99420000D01*
X136158000Y-101970000D02*
X135658000Y-101970000D01*
X135658000Y-101970000D02*
X135658000Y-101770000D01*
X135658000Y-101770000D02*
X136158000Y-101770000D01*
X136158000Y-101870000D02*
X135658000Y-101870000D01*
X131748000Y-103980000D02*
X131748000Y-105230000D01*
X131748000Y-105230000D02*
X132998000Y-105230000D01*
%TO.C,J3*%
X122142000Y-104930000D02*
X126862000Y-104930000D01*
X126862000Y-104930000D02*
X126862000Y-98810000D01*
X126862000Y-98810000D02*
X122142000Y-98810000D01*
X122142000Y-98810000D02*
X122142000Y-104930000D01*
X122142000Y-103170000D02*
X121942000Y-103170000D01*
X121942000Y-103170000D02*
X121942000Y-103470000D01*
X121942000Y-103470000D02*
X122142000Y-103470000D01*
X122042000Y-103170000D02*
X122042000Y-103470000D01*
X122142000Y-102370000D02*
X122752000Y-102370000D01*
X122752000Y-102370000D02*
X122752000Y-104320000D01*
X122752000Y-104320000D02*
X126252000Y-104320000D01*
X126252000Y-104320000D02*
X126252000Y-99420000D01*
X126252000Y-99420000D02*
X122752000Y-99420000D01*
X122752000Y-99420000D02*
X122752000Y-101370000D01*
X122752000Y-101370000D02*
X122142000Y-101370000D01*
X123452000Y-104930000D02*
X123452000Y-104320000D01*
X124752000Y-104930000D02*
X124752000Y-104320000D01*
X123452000Y-98810000D02*
X123452000Y-99420000D01*
X124752000Y-98810000D02*
X124752000Y-99420000D01*
X126252000Y-101970000D02*
X125752000Y-101970000D01*
X125752000Y-101970000D02*
X125752000Y-101770000D01*
X125752000Y-101770000D02*
X126252000Y-101770000D01*
X126252000Y-101870000D02*
X125752000Y-101870000D01*
X121842000Y-103980000D02*
X121842000Y-105230000D01*
X121842000Y-105230000D02*
X123092000Y-105230000D01*
%TO.C,J2*%
X112236000Y-104930000D02*
X116956000Y-104930000D01*
X116956000Y-104930000D02*
X116956000Y-98810000D01*
X116956000Y-98810000D02*
X112236000Y-98810000D01*
X112236000Y-98810000D02*
X112236000Y-104930000D01*
X112236000Y-103170000D02*
X112036000Y-103170000D01*
X112036000Y-103170000D02*
X112036000Y-103470000D01*
X112036000Y-103470000D02*
X112236000Y-103470000D01*
X112136000Y-103170000D02*
X112136000Y-103470000D01*
X112236000Y-102370000D02*
X112846000Y-102370000D01*
X112846000Y-102370000D02*
X112846000Y-104320000D01*
X112846000Y-104320000D02*
X116346000Y-104320000D01*
X116346000Y-104320000D02*
X116346000Y-99420000D01*
X116346000Y-99420000D02*
X112846000Y-99420000D01*
X112846000Y-99420000D02*
X112846000Y-101370000D01*
X112846000Y-101370000D02*
X112236000Y-101370000D01*
X113546000Y-104930000D02*
X113546000Y-104320000D01*
X114846000Y-104930000D02*
X114846000Y-104320000D01*
X113546000Y-98810000D02*
X113546000Y-99420000D01*
X114846000Y-98810000D02*
X114846000Y-99420000D01*
X116346000Y-101970000D02*
X115846000Y-101970000D01*
X115846000Y-101970000D02*
X115846000Y-101770000D01*
X115846000Y-101770000D02*
X116346000Y-101770000D01*
X116346000Y-101870000D02*
X115846000Y-101870000D01*
X111936000Y-103980000D02*
X111936000Y-105230000D01*
X111936000Y-105230000D02*
X113186000Y-105230000D01*
%TO.C,J1*%
X102330000Y-104930000D02*
X107050000Y-104930000D01*
X107050000Y-104930000D02*
X107050000Y-98810000D01*
X107050000Y-98810000D02*
X102330000Y-98810000D01*
X102330000Y-98810000D02*
X102330000Y-104930000D01*
X102330000Y-103170000D02*
X102130000Y-103170000D01*
X102130000Y-103170000D02*
X102130000Y-103470000D01*
X102130000Y-103470000D02*
X102330000Y-103470000D01*
X102230000Y-103170000D02*
X102230000Y-103470000D01*
X102330000Y-102370000D02*
X102940000Y-102370000D01*
X102940000Y-102370000D02*
X102940000Y-104320000D01*
X102940000Y-104320000D02*
X106440000Y-104320000D01*
X106440000Y-104320000D02*
X106440000Y-99420000D01*
X106440000Y-99420000D02*
X102940000Y-99420000D01*
X102940000Y-99420000D02*
X102940000Y-101370000D01*
X102940000Y-101370000D02*
X102330000Y-101370000D01*
X103640000Y-104930000D02*
X103640000Y-104320000D01*
X104940000Y-104930000D02*
X104940000Y-104320000D01*
X103640000Y-98810000D02*
X103640000Y-99420000D01*
X104940000Y-98810000D02*
X104940000Y-99420000D01*
X106440000Y-101970000D02*
X105940000Y-101970000D01*
X105940000Y-101970000D02*
X105940000Y-101770000D01*
X105940000Y-101770000D02*
X106440000Y-101770000D01*
X106440000Y-101870000D02*
X105940000Y-101870000D01*
X102030000Y-103980000D02*
X102030000Y-105230000D01*
X102030000Y-105230000D02*
X103280000Y-105230000D01*
%TO.C,J19*%
X77280000Y-129030000D02*
X83280000Y-129030000D01*
X77280000Y-129030000D02*
X77280000Y-120000000D01*
X77280000Y-119970000D02*
X83280000Y-119970000D01*
X83280000Y-119970000D02*
X83280000Y-119440000D01*
X83280000Y-119440000D02*
X85330000Y-119440000D01*
X85330000Y-119440000D02*
X85330000Y-118740000D01*
X85330000Y-130260000D02*
X85330000Y-129560000D01*
X83280000Y-129560000D02*
X85330000Y-129560000D01*
X87550000Y-130260000D02*
X87550000Y-118740000D01*
X83280000Y-129560000D02*
X83280000Y-129030000D01*
X85330000Y-118850000D02*
G75*
G02*
X87550000Y-118850000I1110000J0D01*
G01*
X87536635Y-130321729D02*
G75*
G02*
X85330000Y-130150000I-1096635J171729D01*
G01*
%TO.C,J20*%
D12*
X89312380Y-102389523D02*
X90026666Y-102389523D01*
X90169523Y-102437142D01*
X90264761Y-102532380D01*
X90312380Y-102675238D01*
X90312380Y-102770476D01*
X89407619Y-101960952D02*
X89360000Y-101913333D01*
X89312380Y-101818095D01*
X89312380Y-101580000D01*
X89360000Y-101484761D01*
X89407619Y-101437142D01*
X89502857Y-101389523D01*
X89598095Y-101389523D01*
X89740952Y-101437142D01*
X90312380Y-102008571D01*
X90312380Y-101389523D01*
X89312380Y-100770476D02*
X89312380Y-100675238D01*
X89360000Y-100580000D01*
X89407619Y-100532380D01*
X89502857Y-100484761D01*
X89693333Y-100437142D01*
X89931428Y-100437142D01*
X90121904Y-100484761D01*
X90217142Y-100532380D01*
X90264761Y-100580000D01*
X90312380Y-100675238D01*
X90312380Y-100770476D01*
X90264761Y-100865714D01*
X90217142Y-100913333D01*
X90121904Y-100960952D01*
X89931428Y-101008571D01*
X89693333Y-101008571D01*
X89502857Y-100960952D01*
X89407619Y-100913333D01*
X89360000Y-100865714D01*
X89312380Y-100770476D01*
%TO.C,J18*%
X130410380Y-125539523D02*
X131124666Y-125539523D01*
X131267523Y-125587142D01*
X131362761Y-125682380D01*
X131410380Y-125825238D01*
X131410380Y-125920476D01*
X131410380Y-124539523D02*
X131410380Y-125110952D01*
X131410380Y-124825238D02*
X130410380Y-124825238D01*
X130553238Y-124920476D01*
X130648476Y-125015714D01*
X130696095Y-125110952D01*
X130838952Y-123968095D02*
X130791333Y-124063333D01*
X130743714Y-124110952D01*
X130648476Y-124158571D01*
X130600857Y-124158571D01*
X130505619Y-124110952D01*
X130458000Y-124063333D01*
X130410380Y-123968095D01*
X130410380Y-123777619D01*
X130458000Y-123682380D01*
X130505619Y-123634761D01*
X130600857Y-123587142D01*
X130648476Y-123587142D01*
X130743714Y-123634761D01*
X130791333Y-123682380D01*
X130838952Y-123777619D01*
X130838952Y-123968095D01*
X130886571Y-124063333D01*
X130934190Y-124110952D01*
X131029428Y-124158571D01*
X131219904Y-124158571D01*
X131315142Y-124110952D01*
X131362761Y-124063333D01*
X131410380Y-123968095D01*
X131410380Y-123777619D01*
X131362761Y-123682380D01*
X131315142Y-123634761D01*
X131219904Y-123587142D01*
X131029428Y-123587142D01*
X130934190Y-123634761D01*
X130886571Y-123682380D01*
X130838952Y-123777619D01*
%TO.C,J17*%
X150222380Y-125539523D02*
X150936666Y-125539523D01*
X151079523Y-125587142D01*
X151174761Y-125682380D01*
X151222380Y-125825238D01*
X151222380Y-125920476D01*
X151222380Y-124539523D02*
X151222380Y-125110952D01*
X151222380Y-124825238D02*
X150222380Y-124825238D01*
X150365238Y-124920476D01*
X150460476Y-125015714D01*
X150508095Y-125110952D01*
X150222380Y-124206190D02*
X150222380Y-123539523D01*
X151222380Y-123968095D01*
%TO.C,J16*%
X140316380Y-125539523D02*
X141030666Y-125539523D01*
X141173523Y-125587142D01*
X141268761Y-125682380D01*
X141316380Y-125825238D01*
X141316380Y-125920476D01*
X141316380Y-124539523D02*
X141316380Y-125110952D01*
X141316380Y-124825238D02*
X140316380Y-124825238D01*
X140459238Y-124920476D01*
X140554476Y-125015714D01*
X140602095Y-125110952D01*
X140316380Y-123682380D02*
X140316380Y-123872857D01*
X140364000Y-123968095D01*
X140411619Y-124015714D01*
X140554476Y-124110952D01*
X140744952Y-124158571D01*
X141125904Y-124158571D01*
X141221142Y-124110952D01*
X141268761Y-124063333D01*
X141316380Y-123968095D01*
X141316380Y-123777619D01*
X141268761Y-123682380D01*
X141221142Y-123634761D01*
X141125904Y-123587142D01*
X140887809Y-123587142D01*
X140792571Y-123634761D01*
X140744952Y-123682380D01*
X140697333Y-123777619D01*
X140697333Y-123968095D01*
X140744952Y-124063333D01*
X140792571Y-124110952D01*
X140887809Y-124158571D01*
%TO.C,J15*%
X120504380Y-125539523D02*
X121218666Y-125539523D01*
X121361523Y-125587142D01*
X121456761Y-125682380D01*
X121504380Y-125825238D01*
X121504380Y-125920476D01*
X121504380Y-124539523D02*
X121504380Y-125110952D01*
X121504380Y-124825238D02*
X120504380Y-124825238D01*
X120647238Y-124920476D01*
X120742476Y-125015714D01*
X120790095Y-125110952D01*
X120504380Y-123634761D02*
X120504380Y-124110952D01*
X120980571Y-124158571D01*
X120932952Y-124110952D01*
X120885333Y-124015714D01*
X120885333Y-123777619D01*
X120932952Y-123682380D01*
X120980571Y-123634761D01*
X121075809Y-123587142D01*
X121313904Y-123587142D01*
X121409142Y-123634761D01*
X121456761Y-123682380D01*
X121504380Y-123777619D01*
X121504380Y-124015714D01*
X121456761Y-124110952D01*
X121409142Y-124158571D01*
%TO.C,J14*%
X110598380Y-125539523D02*
X111312666Y-125539523D01*
X111455523Y-125587142D01*
X111550761Y-125682380D01*
X111598380Y-125825238D01*
X111598380Y-125920476D01*
X111598380Y-124539523D02*
X111598380Y-125110952D01*
X111598380Y-124825238D02*
X110598380Y-124825238D01*
X110741238Y-124920476D01*
X110836476Y-125015714D01*
X110884095Y-125110952D01*
X110931714Y-123682380D02*
X111598380Y-123682380D01*
X110550761Y-123920476D02*
X111265047Y-124158571D01*
X111265047Y-123539523D01*
%TO.C,J13*%
X100692380Y-125539523D02*
X101406666Y-125539523D01*
X101549523Y-125587142D01*
X101644761Y-125682380D01*
X101692380Y-125825238D01*
X101692380Y-125920476D01*
X101692380Y-124539523D02*
X101692380Y-125110952D01*
X101692380Y-124825238D02*
X100692380Y-124825238D01*
X100835238Y-124920476D01*
X100930476Y-125015714D01*
X100978095Y-125110952D01*
X100692380Y-124206190D02*
X100692380Y-123587142D01*
X101073333Y-123920476D01*
X101073333Y-123777619D01*
X101120952Y-123682380D01*
X101168571Y-123634761D01*
X101263809Y-123587142D01*
X101501904Y-123587142D01*
X101597142Y-123634761D01*
X101644761Y-123682380D01*
X101692380Y-123777619D01*
X101692380Y-124063333D01*
X101644761Y-124158571D01*
X101597142Y-124206190D01*
%TO.C,J12*%
X150222380Y-114109523D02*
X150936666Y-114109523D01*
X151079523Y-114157142D01*
X151174761Y-114252380D01*
X151222380Y-114395238D01*
X151222380Y-114490476D01*
X151222380Y-113109523D02*
X151222380Y-113680952D01*
X151222380Y-113395238D02*
X150222380Y-113395238D01*
X150365238Y-113490476D01*
X150460476Y-113585714D01*
X150508095Y-113680952D01*
X150317619Y-112728571D02*
X150270000Y-112680952D01*
X150222380Y-112585714D01*
X150222380Y-112347619D01*
X150270000Y-112252380D01*
X150317619Y-112204761D01*
X150412857Y-112157142D01*
X150508095Y-112157142D01*
X150650952Y-112204761D01*
X151222380Y-112776190D01*
X151222380Y-112157142D01*
%TO.C,J11*%
X140350380Y-114109523D02*
X141064666Y-114109523D01*
X141207523Y-114157142D01*
X141302761Y-114252380D01*
X141350380Y-114395238D01*
X141350380Y-114490476D01*
X141350380Y-113109523D02*
X141350380Y-113680952D01*
X141350380Y-113395238D02*
X140350380Y-113395238D01*
X140493238Y-113490476D01*
X140588476Y-113585714D01*
X140636095Y-113680952D01*
X141350380Y-112157142D02*
X141350380Y-112728571D01*
X141350380Y-112442857D02*
X140350380Y-112442857D01*
X140493238Y-112538095D01*
X140588476Y-112633333D01*
X140636095Y-112728571D01*
%TO.C,J10*%
X130478380Y-114109523D02*
X131192666Y-114109523D01*
X131335523Y-114157142D01*
X131430761Y-114252380D01*
X131478380Y-114395238D01*
X131478380Y-114490476D01*
X131478380Y-113109523D02*
X131478380Y-113680952D01*
X131478380Y-113395238D02*
X130478380Y-113395238D01*
X130621238Y-113490476D01*
X130716476Y-113585714D01*
X130764095Y-113680952D01*
X130478380Y-112490476D02*
X130478380Y-112395238D01*
X130526000Y-112300000D01*
X130573619Y-112252380D01*
X130668857Y-112204761D01*
X130859333Y-112157142D01*
X131097428Y-112157142D01*
X131287904Y-112204761D01*
X131383142Y-112252380D01*
X131430761Y-112300000D01*
X131478380Y-112395238D01*
X131478380Y-112490476D01*
X131430761Y-112585714D01*
X131383142Y-112633333D01*
X131287904Y-112680952D01*
X131097428Y-112728571D01*
X130859333Y-112728571D01*
X130668857Y-112680952D01*
X130573619Y-112633333D01*
X130526000Y-112585714D01*
X130478380Y-112490476D01*
%TO.C,J9*%
X120606380Y-113633333D02*
X121320666Y-113633333D01*
X121463523Y-113680952D01*
X121558761Y-113776190D01*
X121606380Y-113919047D01*
X121606380Y-114014285D01*
X121606380Y-113109523D02*
X121606380Y-112919047D01*
X121558761Y-112823809D01*
X121511142Y-112776190D01*
X121368285Y-112680952D01*
X121177809Y-112633333D01*
X120796857Y-112633333D01*
X120701619Y-112680952D01*
X120654000Y-112728571D01*
X120606380Y-112823809D01*
X120606380Y-113014285D01*
X120654000Y-113109523D01*
X120701619Y-113157142D01*
X120796857Y-113204761D01*
X121034952Y-113204761D01*
X121130190Y-113157142D01*
X121177809Y-113109523D01*
X121225428Y-113014285D01*
X121225428Y-112823809D01*
X121177809Y-112728571D01*
X121130190Y-112680952D01*
X121034952Y-112633333D01*
%TO.C,J8*%
X110734380Y-113633333D02*
X111448666Y-113633333D01*
X111591523Y-113680952D01*
X111686761Y-113776190D01*
X111734380Y-113919047D01*
X111734380Y-114014285D01*
X111162952Y-113014285D02*
X111115333Y-113109523D01*
X111067714Y-113157142D01*
X110972476Y-113204761D01*
X110924857Y-113204761D01*
X110829619Y-113157142D01*
X110782000Y-113109523D01*
X110734380Y-113014285D01*
X110734380Y-112823809D01*
X110782000Y-112728571D01*
X110829619Y-112680952D01*
X110924857Y-112633333D01*
X110972476Y-112633333D01*
X111067714Y-112680952D01*
X111115333Y-112728571D01*
X111162952Y-112823809D01*
X111162952Y-113014285D01*
X111210571Y-113109523D01*
X111258190Y-113157142D01*
X111353428Y-113204761D01*
X111543904Y-113204761D01*
X111639142Y-113157142D01*
X111686761Y-113109523D01*
X111734380Y-113014285D01*
X111734380Y-112823809D01*
X111686761Y-112728571D01*
X111639142Y-112680952D01*
X111543904Y-112633333D01*
X111353428Y-112633333D01*
X111258190Y-112680952D01*
X111210571Y-112728571D01*
X111162952Y-112823809D01*
%TO.C,J7*%
X100692380Y-113633333D02*
X101406666Y-113633333D01*
X101549523Y-113680952D01*
X101644761Y-113776190D01*
X101692380Y-113919047D01*
X101692380Y-114014285D01*
X100692380Y-113252380D02*
X100692380Y-112585714D01*
X101692380Y-113014285D01*
%TO.C,J6*%
X150222380Y-102203333D02*
X150936666Y-102203333D01*
X151079523Y-102250952D01*
X151174761Y-102346190D01*
X151222380Y-102489047D01*
X151222380Y-102584285D01*
X150222380Y-101298571D02*
X150222380Y-101489047D01*
X150270000Y-101584285D01*
X150317619Y-101631904D01*
X150460476Y-101727142D01*
X150650952Y-101774761D01*
X151031904Y-101774761D01*
X151127142Y-101727142D01*
X151174761Y-101679523D01*
X151222380Y-101584285D01*
X151222380Y-101393809D01*
X151174761Y-101298571D01*
X151127142Y-101250952D01*
X151031904Y-101203333D01*
X150793809Y-101203333D01*
X150698571Y-101250952D01*
X150650952Y-101298571D01*
X150603333Y-101393809D01*
X150603333Y-101584285D01*
X150650952Y-101679523D01*
X150698571Y-101727142D01*
X150793809Y-101774761D01*
%TO.C,J5*%
X140316380Y-102203333D02*
X141030666Y-102203333D01*
X141173523Y-102250952D01*
X141268761Y-102346190D01*
X141316380Y-102489047D01*
X141316380Y-102584285D01*
X140316380Y-101250952D02*
X140316380Y-101727142D01*
X140792571Y-101774761D01*
X140744952Y-101727142D01*
X140697333Y-101631904D01*
X140697333Y-101393809D01*
X140744952Y-101298571D01*
X140792571Y-101250952D01*
X140887809Y-101203333D01*
X141125904Y-101203333D01*
X141221142Y-101250952D01*
X141268761Y-101298571D01*
X141316380Y-101393809D01*
X141316380Y-101631904D01*
X141268761Y-101727142D01*
X141221142Y-101774761D01*
%TO.C,J4*%
X130410380Y-102203333D02*
X131124666Y-102203333D01*
X131267523Y-102250952D01*
X131362761Y-102346190D01*
X131410380Y-102489047D01*
X131410380Y-102584285D01*
X130743714Y-101298571D02*
X131410380Y-101298571D01*
X130362761Y-101536666D02*
X131077047Y-101774761D01*
X131077047Y-101155714D01*
%TO.C,J3*%
X120504380Y-102203333D02*
X121218666Y-102203333D01*
X121361523Y-102250952D01*
X121456761Y-102346190D01*
X121504380Y-102489047D01*
X121504380Y-102584285D01*
X120504380Y-101822380D02*
X120504380Y-101203333D01*
X120885333Y-101536666D01*
X120885333Y-101393809D01*
X120932952Y-101298571D01*
X120980571Y-101250952D01*
X121075809Y-101203333D01*
X121313904Y-101203333D01*
X121409142Y-101250952D01*
X121456761Y-101298571D01*
X121504380Y-101393809D01*
X121504380Y-101679523D01*
X121456761Y-101774761D01*
X121409142Y-101822380D01*
%TO.C,J2*%
X110598380Y-102203333D02*
X111312666Y-102203333D01*
X111455523Y-102250952D01*
X111550761Y-102346190D01*
X111598380Y-102489047D01*
X111598380Y-102584285D01*
X110693619Y-101774761D02*
X110646000Y-101727142D01*
X110598380Y-101631904D01*
X110598380Y-101393809D01*
X110646000Y-101298571D01*
X110693619Y-101250952D01*
X110788857Y-101203333D01*
X110884095Y-101203333D01*
X111026952Y-101250952D01*
X111598380Y-101822380D01*
X111598380Y-101203333D01*
%TO.C,J1*%
X100692380Y-102203333D02*
X101406666Y-102203333D01*
X101549523Y-102250952D01*
X101644761Y-102346190D01*
X101692380Y-102489047D01*
X101692380Y-102584285D01*
X101692380Y-101203333D02*
X101692380Y-101774761D01*
X101692380Y-101489047D02*
X100692380Y-101489047D01*
X100835238Y-101584285D01*
X100930476Y-101679523D01*
X100978095Y-101774761D01*
%TO.C,J19*%
X91547142Y-130571428D02*
X91547142Y-129428571D01*
X91547142Y-119571428D02*
X91547142Y-118428571D01*
X92118571Y-119000000D02*
X90975714Y-119000000D01*
%TD*%
M02*
