%TF.GenerationSoftware,KiCad,Pcbnew,(5.1.9)-1*%
%TF.CreationDate,2021-11-23T19:16:45+00:00*%
%TF.ProjectId,BT2.0-parallel-board,4254322e-302d-4706-9172-616c6c656c2d,rev?*%
%TF.SameCoordinates,Original*%
%TF.FileFunction,Legend,Top*%
%TF.FilePolarity,Positive*%
%FSLAX46Y46*%
G04 Gerber Fmt 4.6, Leading zero omitted, Abs format (unit mm)*
G04 Created by KiCad (PCBNEW (5.1.9)-1) date 2021-11-23 19:16:45*
%MOMM*%
%LPD*%
G01*
G04 APERTURE LIST*
%ADD10C,0.300000*%
%ADD11C,0.120000*%
G04 APERTURE END LIST*
D10*
X96553809Y-101457142D02*
X96839523Y-101552380D01*
X96934761Y-101647619D01*
X97030000Y-101838095D01*
X97030000Y-102123809D01*
X96934761Y-102314285D01*
X96839523Y-102409523D01*
X96649047Y-102504761D01*
X95887142Y-102504761D01*
X95887142Y-100504761D01*
X96553809Y-100504761D01*
X96744285Y-100600000D01*
X96839523Y-100695238D01*
X96934761Y-100885714D01*
X96934761Y-101076190D01*
X96839523Y-101266666D01*
X96744285Y-101361904D01*
X96553809Y-101457142D01*
X95887142Y-101457142D01*
X97601428Y-100504761D02*
X98744285Y-100504761D01*
X98172857Y-102504761D02*
X98172857Y-100504761D01*
X99315714Y-100695238D02*
X99410952Y-100600000D01*
X99601428Y-100504761D01*
X100077619Y-100504761D01*
X100268095Y-100600000D01*
X100363333Y-100695238D01*
X100458571Y-100885714D01*
X100458571Y-101076190D01*
X100363333Y-101361904D01*
X99220476Y-102504761D01*
X100458571Y-102504761D01*
X101315714Y-102314285D02*
X101410952Y-102409523D01*
X101315714Y-102504761D01*
X101220476Y-102409523D01*
X101315714Y-102314285D01*
X101315714Y-102504761D01*
X102649047Y-100504761D02*
X102839523Y-100504761D01*
X103030000Y-100600000D01*
X103125238Y-100695238D01*
X103220476Y-100885714D01*
X103315714Y-101266666D01*
X103315714Y-101742857D01*
X103220476Y-102123809D01*
X103125238Y-102314285D01*
X103030000Y-102409523D01*
X102839523Y-102504761D01*
X102649047Y-102504761D01*
X102458571Y-102409523D01*
X102363333Y-102314285D01*
X102268095Y-102123809D01*
X102172857Y-101742857D01*
X102172857Y-101266666D01*
X102268095Y-100885714D01*
X102363333Y-100695238D01*
X102458571Y-100600000D01*
X102649047Y-100504761D01*
X105696666Y-102504761D02*
X105696666Y-100504761D01*
X106458571Y-100504761D01*
X106649047Y-100600000D01*
X106744285Y-100695238D01*
X106839523Y-100885714D01*
X106839523Y-101171428D01*
X106744285Y-101361904D01*
X106649047Y-101457142D01*
X106458571Y-101552380D01*
X105696666Y-101552380D01*
X107601428Y-101933333D02*
X108553809Y-101933333D01*
X107410952Y-102504761D02*
X108077619Y-100504761D01*
X108744285Y-102504761D01*
X110553809Y-102504761D02*
X109887142Y-101552380D01*
X109410952Y-102504761D02*
X109410952Y-100504761D01*
X110172857Y-100504761D01*
X110363333Y-100600000D01*
X110458571Y-100695238D01*
X110553809Y-100885714D01*
X110553809Y-101171428D01*
X110458571Y-101361904D01*
X110363333Y-101457142D01*
X110172857Y-101552380D01*
X109410952Y-101552380D01*
X111315714Y-101933333D02*
X112268095Y-101933333D01*
X111125238Y-102504761D02*
X111791904Y-100504761D01*
X112458571Y-102504761D01*
X114077619Y-102504761D02*
X113125238Y-102504761D01*
X113125238Y-100504761D01*
X115696666Y-102504761D02*
X114744285Y-102504761D01*
X114744285Y-100504761D01*
X116363333Y-101457142D02*
X117030000Y-101457142D01*
X117315714Y-102504761D02*
X116363333Y-102504761D01*
X116363333Y-100504761D01*
X117315714Y-100504761D01*
X119125238Y-102504761D02*
X118172857Y-102504761D01*
X118172857Y-100504761D01*
X121982380Y-101457142D02*
X122268095Y-101552380D01*
X122363333Y-101647619D01*
X122458571Y-101838095D01*
X122458571Y-102123809D01*
X122363333Y-102314285D01*
X122268095Y-102409523D01*
X122077619Y-102504761D01*
X121315714Y-102504761D01*
X121315714Y-100504761D01*
X121982380Y-100504761D01*
X122172857Y-100600000D01*
X122268095Y-100695238D01*
X122363333Y-100885714D01*
X122363333Y-101076190D01*
X122268095Y-101266666D01*
X122172857Y-101361904D01*
X121982380Y-101457142D01*
X121315714Y-101457142D01*
X123696666Y-100504761D02*
X124077619Y-100504761D01*
X124268095Y-100600000D01*
X124458571Y-100790476D01*
X124553809Y-101171428D01*
X124553809Y-101838095D01*
X124458571Y-102219047D01*
X124268095Y-102409523D01*
X124077619Y-102504761D01*
X123696666Y-102504761D01*
X123506190Y-102409523D01*
X123315714Y-102219047D01*
X123220476Y-101838095D01*
X123220476Y-101171428D01*
X123315714Y-100790476D01*
X123506190Y-100600000D01*
X123696666Y-100504761D01*
X125315714Y-101933333D02*
X126268095Y-101933333D01*
X125125238Y-102504761D02*
X125791904Y-100504761D01*
X126458571Y-102504761D01*
X128268095Y-102504761D02*
X127601428Y-101552380D01*
X127125238Y-102504761D02*
X127125238Y-100504761D01*
X127887142Y-100504761D01*
X128077619Y-100600000D01*
X128172857Y-100695238D01*
X128268095Y-100885714D01*
X128268095Y-101171428D01*
X128172857Y-101361904D01*
X128077619Y-101457142D01*
X127887142Y-101552380D01*
X127125238Y-101552380D01*
X129125238Y-102504761D02*
X129125238Y-100504761D01*
X129601428Y-100504761D01*
X129887142Y-100600000D01*
X130077619Y-100790476D01*
X130172857Y-100980952D01*
X130268095Y-101361904D01*
X130268095Y-101647619D01*
X130172857Y-102028571D01*
X130077619Y-102219047D01*
X129887142Y-102409523D01*
X129601428Y-102504761D01*
X129125238Y-102504761D01*
D11*
%TO.C,J11*%
X77280000Y-111250000D02*
X83280000Y-111250000D01*
X77280000Y-111250000D02*
X77280000Y-102220000D01*
X77280000Y-102190000D02*
X83280000Y-102190000D01*
X83280000Y-102190000D02*
X83280000Y-101660000D01*
X83280000Y-101660000D02*
X85330000Y-101660000D01*
X85330000Y-101660000D02*
X85330000Y-100960000D01*
X85330000Y-112480000D02*
X85330000Y-111780000D01*
X83280000Y-111780000D02*
X85330000Y-111780000D01*
X87550000Y-112480000D02*
X87550000Y-100960000D01*
X83280000Y-111780000D02*
X83280000Y-111250000D01*
X85330000Y-101070000D02*
G75*
G02*
X87550000Y-101070000I1110000J0D01*
G01*
X87536635Y-112541729D02*
G75*
G02*
X85330000Y-112370000I-1096635J171729D01*
G01*
%TO.C,J9*%
X125000000Y-125460000D02*
X125000000Y-122060000D01*
X125000000Y-122060000D02*
X129000000Y-122060000D01*
X129000000Y-122060000D02*
X129000000Y-125460000D01*
X125000000Y-124460000D02*
X129000000Y-124460000D01*
X129000000Y-125460000D02*
G75*
G02*
X125000000Y-125460000I-2000000J0D01*
G01*
%TO.C,J8*%
X113316000Y-125460000D02*
X113316000Y-122060000D01*
X113316000Y-122060000D02*
X117316000Y-122060000D01*
X117316000Y-122060000D02*
X117316000Y-125460000D01*
X113316000Y-124460000D02*
X117316000Y-124460000D01*
X117316000Y-125460000D02*
G75*
G02*
X113316000Y-125460000I-2000000J0D01*
G01*
%TO.C,J7*%
X101632000Y-125460000D02*
X101632000Y-122060000D01*
X101632000Y-122060000D02*
X105632000Y-122060000D01*
X105632000Y-122060000D02*
X105632000Y-125460000D01*
X101632000Y-124460000D02*
X105632000Y-124460000D01*
X105632000Y-125460000D02*
G75*
G02*
X101632000Y-125460000I-2000000J0D01*
G01*
%TO.C,J6*%
X125000000Y-116570000D02*
X125000000Y-113170000D01*
X125000000Y-113170000D02*
X129000000Y-113170000D01*
X129000000Y-113170000D02*
X129000000Y-116570000D01*
X125000000Y-115570000D02*
X129000000Y-115570000D01*
X129000000Y-116570000D02*
G75*
G02*
X125000000Y-116570000I-2000000J0D01*
G01*
%TO.C,J5*%
X113316000Y-116570000D02*
X113316000Y-113170000D01*
X113316000Y-113170000D02*
X117316000Y-113170000D01*
X117316000Y-113170000D02*
X117316000Y-116570000D01*
X113316000Y-115570000D02*
X117316000Y-115570000D01*
X117316000Y-116570000D02*
G75*
G02*
X113316000Y-116570000I-2000000J0D01*
G01*
%TO.C,J4*%
X101632000Y-116570000D02*
X101632000Y-113170000D01*
X101632000Y-113170000D02*
X105632000Y-113170000D01*
X105632000Y-113170000D02*
X105632000Y-116570000D01*
X101632000Y-115570000D02*
X105632000Y-115570000D01*
X105632000Y-116570000D02*
G75*
G02*
X101632000Y-116570000I-2000000J0D01*
G01*
%TO.C,J3*%
X125000000Y-107680000D02*
X125000000Y-104280000D01*
X125000000Y-104280000D02*
X129000000Y-104280000D01*
X129000000Y-104280000D02*
X129000000Y-107680000D01*
X125000000Y-106680000D02*
X129000000Y-106680000D01*
X129000000Y-107680000D02*
G75*
G02*
X125000000Y-107680000I-2000000J0D01*
G01*
%TO.C,J2*%
X113316000Y-107680000D02*
X113316000Y-104280000D01*
X113316000Y-104280000D02*
X117316000Y-104280000D01*
X117316000Y-104280000D02*
X117316000Y-107680000D01*
X113316000Y-106680000D02*
X117316000Y-106680000D01*
X117316000Y-107680000D02*
G75*
G02*
X113316000Y-107680000I-2000000J0D01*
G01*
%TO.C,J1*%
X101632000Y-107680000D02*
X101632000Y-104280000D01*
X101632000Y-104280000D02*
X105632000Y-104280000D01*
X105632000Y-104280000D02*
X105632000Y-107680000D01*
X101632000Y-106680000D02*
X105632000Y-106680000D01*
X105632000Y-107680000D02*
G75*
G02*
X101632000Y-107680000I-2000000J0D01*
G01*
%TO.C,J10*%
X77280000Y-129030000D02*
X83280000Y-129030000D01*
X77280000Y-129030000D02*
X77280000Y-120000000D01*
X77280000Y-119970000D02*
X83280000Y-119970000D01*
X83280000Y-119970000D02*
X83280000Y-119440000D01*
X83280000Y-119440000D02*
X85330000Y-119440000D01*
X85330000Y-119440000D02*
X85330000Y-118740000D01*
X85330000Y-130260000D02*
X85330000Y-129560000D01*
X83280000Y-129560000D02*
X85330000Y-129560000D01*
X87550000Y-130260000D02*
X87550000Y-118740000D01*
X83280000Y-129560000D02*
X83280000Y-129030000D01*
X85330000Y-118850000D02*
G75*
G02*
X87550000Y-118850000I1110000J0D01*
G01*
X87536635Y-130321729D02*
G75*
G02*
X85330000Y-130150000I-1096635J171729D01*
G01*
%TD*%
M02*
