M48
; DRILL file {KiCad (5.1.9)-1} date 11/23/21 19:16:47
; FORMAT={-:-/ absolute / inch / decimal}
; #@! TF.CreationDate,2021-11-23T19:16:47+00:00
; #@! TF.GenerationSoftware,Kicad,Pcbnew,(5.1.9)-1
FMAT,2
INCH
T1C0.0394
T2C0.0551
T3C0.0748
%
G90
G05
T1
X3.4031Y-3.985
X3.4031Y-4.4181
X3.4031Y-4.685
X3.4031Y-5.1181
T2
X4.08Y-4.1606
X4.08Y-4.2394
X4.08Y-4.5106
X4.08Y-4.5894
X4.08Y-4.8606
X4.08Y-4.9394
X4.54Y-4.1606
X4.54Y-4.2394
X4.54Y-4.5106
X4.54Y-4.5894
X4.54Y-4.8606
X4.54Y-4.9394
X5.0Y-4.1606
X5.0Y-4.2394
X5.0Y-4.5106
X5.0Y-4.5894
X5.0Y-4.8606
X5.0Y-4.9394
T3
X3.6Y-4.1031
X3.6Y-4.3
X3.6Y-4.8031
X3.6Y-5.0
T0
M30
