%TF.GenerationSoftware,KiCad,Pcbnew,(5.1.9)-1*%
%TF.CreationDate,2021-07-19T11:38:20+01:00*%
%TF.ProjectId,2S-parallel-board,32532d70-6172-4616-9c6c-656c2d626f61,rev?*%
%TF.SameCoordinates,Original*%
%TF.FileFunction,Legend,Top*%
%TF.FilePolarity,Positive*%
%FSLAX46Y46*%
G04 Gerber Fmt 4.6, Leading zero omitted, Abs format (unit mm)*
G04 Created by KiCad (PCBNEW (5.1.9)-1) date 2021-07-19 11:38:20*
%MOMM*%
%LPD*%
G01*
G04 APERTURE LIST*
%ADD10C,0.300000*%
%ADD11C,0.120000*%
%ADD12C,0.150000*%
G04 APERTURE END LIST*
D10*
X110730000Y-112125238D02*
X110825238Y-112030000D01*
X111015714Y-111934761D01*
X111491904Y-111934761D01*
X111682380Y-112030000D01*
X111777619Y-112125238D01*
X111872857Y-112315714D01*
X111872857Y-112506190D01*
X111777619Y-112791904D01*
X110634761Y-113934761D01*
X111872857Y-113934761D01*
X112634761Y-113839523D02*
X112920476Y-113934761D01*
X113396666Y-113934761D01*
X113587142Y-113839523D01*
X113682380Y-113744285D01*
X113777619Y-113553809D01*
X113777619Y-113363333D01*
X113682380Y-113172857D01*
X113587142Y-113077619D01*
X113396666Y-112982380D01*
X113015714Y-112887142D01*
X112825238Y-112791904D01*
X112730000Y-112696666D01*
X112634761Y-112506190D01*
X112634761Y-112315714D01*
X112730000Y-112125238D01*
X112825238Y-112030000D01*
X113015714Y-111934761D01*
X113491904Y-111934761D01*
X113777619Y-112030000D01*
X116158571Y-113934761D02*
X116158571Y-111934761D01*
X116920476Y-111934761D01*
X117110952Y-112030000D01*
X117206190Y-112125238D01*
X117301428Y-112315714D01*
X117301428Y-112601428D01*
X117206190Y-112791904D01*
X117110952Y-112887142D01*
X116920476Y-112982380D01*
X116158571Y-112982380D01*
X118063333Y-113363333D02*
X119015714Y-113363333D01*
X117872857Y-113934761D02*
X118539523Y-111934761D01*
X119206190Y-113934761D01*
X121015714Y-113934761D02*
X120349047Y-112982380D01*
X119872857Y-113934761D02*
X119872857Y-111934761D01*
X120634761Y-111934761D01*
X120825238Y-112030000D01*
X120920476Y-112125238D01*
X121015714Y-112315714D01*
X121015714Y-112601428D01*
X120920476Y-112791904D01*
X120825238Y-112887142D01*
X120634761Y-112982380D01*
X119872857Y-112982380D01*
X121777619Y-113363333D02*
X122730000Y-113363333D01*
X121587142Y-113934761D02*
X122253809Y-111934761D01*
X122920476Y-113934761D01*
X124539523Y-113934761D02*
X123587142Y-113934761D01*
X123587142Y-111934761D01*
X126158571Y-113934761D02*
X125206190Y-113934761D01*
X125206190Y-111934761D01*
X126825238Y-112887142D02*
X127491904Y-112887142D01*
X127777619Y-113934761D02*
X126825238Y-113934761D01*
X126825238Y-111934761D01*
X127777619Y-111934761D01*
X129587142Y-113934761D02*
X128634761Y-113934761D01*
X128634761Y-111934761D01*
X132444285Y-112887142D02*
X132730000Y-112982380D01*
X132825238Y-113077619D01*
X132920476Y-113268095D01*
X132920476Y-113553809D01*
X132825238Y-113744285D01*
X132730000Y-113839523D01*
X132539523Y-113934761D01*
X131777619Y-113934761D01*
X131777619Y-111934761D01*
X132444285Y-111934761D01*
X132634761Y-112030000D01*
X132730000Y-112125238D01*
X132825238Y-112315714D01*
X132825238Y-112506190D01*
X132730000Y-112696666D01*
X132634761Y-112791904D01*
X132444285Y-112887142D01*
X131777619Y-112887142D01*
X134158571Y-111934761D02*
X134539523Y-111934761D01*
X134730000Y-112030000D01*
X134920476Y-112220476D01*
X135015714Y-112601428D01*
X135015714Y-113268095D01*
X134920476Y-113649047D01*
X134730000Y-113839523D01*
X134539523Y-113934761D01*
X134158571Y-113934761D01*
X133968095Y-113839523D01*
X133777619Y-113649047D01*
X133682380Y-113268095D01*
X133682380Y-112601428D01*
X133777619Y-112220476D01*
X133968095Y-112030000D01*
X134158571Y-111934761D01*
X135777619Y-113363333D02*
X136730000Y-113363333D01*
X135587142Y-113934761D02*
X136253809Y-111934761D01*
X136920476Y-113934761D01*
X138730000Y-113934761D02*
X138063333Y-112982380D01*
X137587142Y-113934761D02*
X137587142Y-111934761D01*
X138349047Y-111934761D01*
X138539523Y-112030000D01*
X138634761Y-112125238D01*
X138730000Y-112315714D01*
X138730000Y-112601428D01*
X138634761Y-112791904D01*
X138539523Y-112887142D01*
X138349047Y-112982380D01*
X137587142Y-112982380D01*
X139587142Y-113934761D02*
X139587142Y-111934761D01*
X140063333Y-111934761D01*
X140349047Y-112030000D01*
X140539523Y-112220476D01*
X140634761Y-112410952D01*
X140730000Y-112791904D01*
X140730000Y-113077619D01*
X140634761Y-113458571D01*
X140539523Y-113649047D01*
X140349047Y-113839523D01*
X140063333Y-113934761D01*
X139587142Y-113934761D01*
D11*
%TO.C,J9*%
X85330000Y-117580000D02*
G75*
G02*
X87550000Y-117580000I1110000J0D01*
G01*
X87536635Y-129051729D02*
G75*
G02*
X85330000Y-128880000I-1096635J171729D01*
G01*
X83280000Y-128290000D02*
X83280000Y-127760000D01*
X87550000Y-128990000D02*
X87550000Y-117470000D01*
X83280000Y-128290000D02*
X85330000Y-128290000D01*
X85330000Y-128990000D02*
X85330000Y-128290000D01*
X85330000Y-118170000D02*
X85330000Y-117470000D01*
X83280000Y-118170000D02*
X85330000Y-118170000D01*
X83280000Y-118700000D02*
X83280000Y-118170000D01*
X77280000Y-118700000D02*
X83280000Y-118700000D01*
X77280000Y-127760000D02*
X77280000Y-118730000D01*
X77280000Y-127760000D02*
X83280000Y-127760000D01*
%TO.C,J10*%
X88460000Y-99360000D02*
X87860000Y-99060000D01*
X88460000Y-98760000D02*
X88460000Y-99360000D01*
X87860000Y-99060000D02*
X88460000Y-98760000D01*
X83160000Y-104310000D02*
X83160000Y-103810000D01*
X77660000Y-104310000D02*
X83160000Y-104310000D01*
X77660000Y-103810000D02*
X77660000Y-104310000D01*
X83160000Y-103810000D02*
X77660000Y-103810000D01*
X83160000Y-101810000D02*
X83160000Y-101310000D01*
X77660000Y-101810000D02*
X83160000Y-101810000D01*
X77660000Y-101310000D02*
X77660000Y-101810000D01*
X83160000Y-101310000D02*
X77660000Y-101310000D01*
X83160000Y-99310000D02*
X83160000Y-98810000D01*
X77660000Y-99310000D02*
X83160000Y-99310000D01*
X77660000Y-98810000D02*
X77660000Y-99310000D01*
X83160000Y-98810000D02*
X77660000Y-98810000D01*
X84270000Y-105200000D02*
X84270000Y-101560000D01*
X88770000Y-105200000D02*
X84270000Y-105200000D01*
X88770000Y-106620000D02*
X88770000Y-105200000D01*
X77050000Y-106620000D02*
X88770000Y-106620000D01*
X77050000Y-101560000D02*
X77050000Y-106620000D01*
X84270000Y-97920000D02*
X84270000Y-101560000D01*
X88770000Y-97920000D02*
X84270000Y-97920000D01*
X88770000Y-96500000D02*
X88770000Y-97920000D01*
X77050000Y-96500000D02*
X88770000Y-96500000D01*
X77050000Y-101560000D02*
X77050000Y-96500000D01*
%TO.C,J8*%
X153880000Y-119070000D02*
X152630000Y-119070000D01*
X153880000Y-120320000D02*
X153880000Y-119070000D01*
X148380000Y-128720000D02*
X148380000Y-124420000D01*
X151330000Y-128720000D02*
X148380000Y-128720000D01*
X151330000Y-129470000D02*
X151330000Y-128720000D01*
X148380000Y-120120000D02*
X148380000Y-124420000D01*
X151330000Y-120120000D02*
X148380000Y-120120000D01*
X151330000Y-119370000D02*
X151330000Y-120120000D01*
X153580000Y-129470000D02*
X153580000Y-127670000D01*
X152830000Y-129470000D02*
X153580000Y-129470000D01*
X152830000Y-127670000D02*
X152830000Y-129470000D01*
X153580000Y-127670000D02*
X152830000Y-127670000D01*
X153580000Y-121170000D02*
X153580000Y-119370000D01*
X152830000Y-121170000D02*
X153580000Y-121170000D01*
X152830000Y-119370000D02*
X152830000Y-121170000D01*
X153580000Y-119370000D02*
X152830000Y-119370000D01*
X153580000Y-126170000D02*
X153580000Y-122670000D01*
X152830000Y-126170000D02*
X153580000Y-126170000D01*
X152830000Y-122670000D02*
X152830000Y-126170000D01*
X153580000Y-122670000D02*
X152830000Y-122670000D01*
X153590000Y-129480000D02*
X153590000Y-119360000D01*
X147620000Y-129480000D02*
X153590000Y-129480000D01*
X147620000Y-119360000D02*
X147620000Y-129480000D01*
X153590000Y-119360000D02*
X147620000Y-119360000D01*
%TO.C,J7*%
X138640000Y-119070000D02*
X137390000Y-119070000D01*
X138640000Y-120320000D02*
X138640000Y-119070000D01*
X133140000Y-128720000D02*
X133140000Y-124420000D01*
X136090000Y-128720000D02*
X133140000Y-128720000D01*
X136090000Y-129470000D02*
X136090000Y-128720000D01*
X133140000Y-120120000D02*
X133140000Y-124420000D01*
X136090000Y-120120000D02*
X133140000Y-120120000D01*
X136090000Y-119370000D02*
X136090000Y-120120000D01*
X138340000Y-129470000D02*
X138340000Y-127670000D01*
X137590000Y-129470000D02*
X138340000Y-129470000D01*
X137590000Y-127670000D02*
X137590000Y-129470000D01*
X138340000Y-127670000D02*
X137590000Y-127670000D01*
X138340000Y-121170000D02*
X138340000Y-119370000D01*
X137590000Y-121170000D02*
X138340000Y-121170000D01*
X137590000Y-119370000D02*
X137590000Y-121170000D01*
X138340000Y-119370000D02*
X137590000Y-119370000D01*
X138340000Y-126170000D02*
X138340000Y-122670000D01*
X137590000Y-126170000D02*
X138340000Y-126170000D01*
X137590000Y-122670000D02*
X137590000Y-126170000D01*
X138340000Y-122670000D02*
X137590000Y-122670000D01*
X138350000Y-129480000D02*
X138350000Y-119360000D01*
X132380000Y-129480000D02*
X138350000Y-129480000D01*
X132380000Y-119360000D02*
X132380000Y-129480000D01*
X138350000Y-119360000D02*
X132380000Y-119360000D01*
%TO.C,J6*%
X123400000Y-119070000D02*
X122150000Y-119070000D01*
X123400000Y-120320000D02*
X123400000Y-119070000D01*
X117900000Y-128720000D02*
X117900000Y-124420000D01*
X120850000Y-128720000D02*
X117900000Y-128720000D01*
X120850000Y-129470000D02*
X120850000Y-128720000D01*
X117900000Y-120120000D02*
X117900000Y-124420000D01*
X120850000Y-120120000D02*
X117900000Y-120120000D01*
X120850000Y-119370000D02*
X120850000Y-120120000D01*
X123100000Y-129470000D02*
X123100000Y-127670000D01*
X122350000Y-129470000D02*
X123100000Y-129470000D01*
X122350000Y-127670000D02*
X122350000Y-129470000D01*
X123100000Y-127670000D02*
X122350000Y-127670000D01*
X123100000Y-121170000D02*
X123100000Y-119370000D01*
X122350000Y-121170000D02*
X123100000Y-121170000D01*
X122350000Y-119370000D02*
X122350000Y-121170000D01*
X123100000Y-119370000D02*
X122350000Y-119370000D01*
X123100000Y-126170000D02*
X123100000Y-122670000D01*
X122350000Y-126170000D02*
X123100000Y-126170000D01*
X122350000Y-122670000D02*
X122350000Y-126170000D01*
X123100000Y-122670000D02*
X122350000Y-122670000D01*
X123110000Y-129480000D02*
X123110000Y-119360000D01*
X117140000Y-129480000D02*
X123110000Y-129480000D01*
X117140000Y-119360000D02*
X117140000Y-129480000D01*
X123110000Y-119360000D02*
X117140000Y-119360000D01*
%TO.C,J5*%
X108160000Y-119070000D02*
X106910000Y-119070000D01*
X108160000Y-120320000D02*
X108160000Y-119070000D01*
X102660000Y-128720000D02*
X102660000Y-124420000D01*
X105610000Y-128720000D02*
X102660000Y-128720000D01*
X105610000Y-129470000D02*
X105610000Y-128720000D01*
X102660000Y-120120000D02*
X102660000Y-124420000D01*
X105610000Y-120120000D02*
X102660000Y-120120000D01*
X105610000Y-119370000D02*
X105610000Y-120120000D01*
X107860000Y-129470000D02*
X107860000Y-127670000D01*
X107110000Y-129470000D02*
X107860000Y-129470000D01*
X107110000Y-127670000D02*
X107110000Y-129470000D01*
X107860000Y-127670000D02*
X107110000Y-127670000D01*
X107860000Y-121170000D02*
X107860000Y-119370000D01*
X107110000Y-121170000D02*
X107860000Y-121170000D01*
X107110000Y-119370000D02*
X107110000Y-121170000D01*
X107860000Y-119370000D02*
X107110000Y-119370000D01*
X107860000Y-126170000D02*
X107860000Y-122670000D01*
X107110000Y-126170000D02*
X107860000Y-126170000D01*
X107110000Y-122670000D02*
X107110000Y-126170000D01*
X107860000Y-122670000D02*
X107110000Y-122670000D01*
X107870000Y-129480000D02*
X107870000Y-119360000D01*
X101900000Y-129480000D02*
X107870000Y-129480000D01*
X101900000Y-119360000D02*
X101900000Y-129480000D01*
X107870000Y-119360000D02*
X101900000Y-119360000D01*
%TO.C,J4*%
X153880000Y-96210000D02*
X152630000Y-96210000D01*
X153880000Y-97460000D02*
X153880000Y-96210000D01*
X148380000Y-105860000D02*
X148380000Y-101560000D01*
X151330000Y-105860000D02*
X148380000Y-105860000D01*
X151330000Y-106610000D02*
X151330000Y-105860000D01*
X148380000Y-97260000D02*
X148380000Y-101560000D01*
X151330000Y-97260000D02*
X148380000Y-97260000D01*
X151330000Y-96510000D02*
X151330000Y-97260000D01*
X153580000Y-106610000D02*
X153580000Y-104810000D01*
X152830000Y-106610000D02*
X153580000Y-106610000D01*
X152830000Y-104810000D02*
X152830000Y-106610000D01*
X153580000Y-104810000D02*
X152830000Y-104810000D01*
X153580000Y-98310000D02*
X153580000Y-96510000D01*
X152830000Y-98310000D02*
X153580000Y-98310000D01*
X152830000Y-96510000D02*
X152830000Y-98310000D01*
X153580000Y-96510000D02*
X152830000Y-96510000D01*
X153580000Y-103310000D02*
X153580000Y-99810000D01*
X152830000Y-103310000D02*
X153580000Y-103310000D01*
X152830000Y-99810000D02*
X152830000Y-103310000D01*
X153580000Y-99810000D02*
X152830000Y-99810000D01*
X153590000Y-106620000D02*
X153590000Y-96500000D01*
X147620000Y-106620000D02*
X153590000Y-106620000D01*
X147620000Y-96500000D02*
X147620000Y-106620000D01*
X153590000Y-96500000D02*
X147620000Y-96500000D01*
%TO.C,J3*%
X138640000Y-96210000D02*
X137390000Y-96210000D01*
X138640000Y-97460000D02*
X138640000Y-96210000D01*
X133140000Y-105860000D02*
X133140000Y-101560000D01*
X136090000Y-105860000D02*
X133140000Y-105860000D01*
X136090000Y-106610000D02*
X136090000Y-105860000D01*
X133140000Y-97260000D02*
X133140000Y-101560000D01*
X136090000Y-97260000D02*
X133140000Y-97260000D01*
X136090000Y-96510000D02*
X136090000Y-97260000D01*
X138340000Y-106610000D02*
X138340000Y-104810000D01*
X137590000Y-106610000D02*
X138340000Y-106610000D01*
X137590000Y-104810000D02*
X137590000Y-106610000D01*
X138340000Y-104810000D02*
X137590000Y-104810000D01*
X138340000Y-98310000D02*
X138340000Y-96510000D01*
X137590000Y-98310000D02*
X138340000Y-98310000D01*
X137590000Y-96510000D02*
X137590000Y-98310000D01*
X138340000Y-96510000D02*
X137590000Y-96510000D01*
X138340000Y-103310000D02*
X138340000Y-99810000D01*
X137590000Y-103310000D02*
X138340000Y-103310000D01*
X137590000Y-99810000D02*
X137590000Y-103310000D01*
X138340000Y-99810000D02*
X137590000Y-99810000D01*
X138350000Y-106620000D02*
X138350000Y-96500000D01*
X132380000Y-106620000D02*
X138350000Y-106620000D01*
X132380000Y-96500000D02*
X132380000Y-106620000D01*
X138350000Y-96500000D02*
X132380000Y-96500000D01*
%TO.C,J2*%
X123400000Y-96170000D02*
X122150000Y-96170000D01*
X123400000Y-97420000D02*
X123400000Y-96170000D01*
X117900000Y-105820000D02*
X117900000Y-101520000D01*
X120850000Y-105820000D02*
X117900000Y-105820000D01*
X120850000Y-106570000D02*
X120850000Y-105820000D01*
X117900000Y-97220000D02*
X117900000Y-101520000D01*
X120850000Y-97220000D02*
X117900000Y-97220000D01*
X120850000Y-96470000D02*
X120850000Y-97220000D01*
X123100000Y-106570000D02*
X123100000Y-104770000D01*
X122350000Y-106570000D02*
X123100000Y-106570000D01*
X122350000Y-104770000D02*
X122350000Y-106570000D01*
X123100000Y-104770000D02*
X122350000Y-104770000D01*
X123100000Y-98270000D02*
X123100000Y-96470000D01*
X122350000Y-98270000D02*
X123100000Y-98270000D01*
X122350000Y-96470000D02*
X122350000Y-98270000D01*
X123100000Y-96470000D02*
X122350000Y-96470000D01*
X123100000Y-103270000D02*
X123100000Y-99770000D01*
X122350000Y-103270000D02*
X123100000Y-103270000D01*
X122350000Y-99770000D02*
X122350000Y-103270000D01*
X123100000Y-99770000D02*
X122350000Y-99770000D01*
X123110000Y-106580000D02*
X123110000Y-96460000D01*
X117140000Y-106580000D02*
X123110000Y-106580000D01*
X117140000Y-96460000D02*
X117140000Y-106580000D01*
X123110000Y-96460000D02*
X117140000Y-96460000D01*
%TO.C,J1*%
X108160000Y-96210000D02*
X106910000Y-96210000D01*
X108160000Y-97460000D02*
X108160000Y-96210000D01*
X102660000Y-105860000D02*
X102660000Y-101560000D01*
X105610000Y-105860000D02*
X102660000Y-105860000D01*
X105610000Y-106610000D02*
X105610000Y-105860000D01*
X102660000Y-97260000D02*
X102660000Y-101560000D01*
X105610000Y-97260000D02*
X102660000Y-97260000D01*
X105610000Y-96510000D02*
X105610000Y-97260000D01*
X107860000Y-106610000D02*
X107860000Y-104810000D01*
X107110000Y-106610000D02*
X107860000Y-106610000D01*
X107110000Y-104810000D02*
X107110000Y-106610000D01*
X107860000Y-104810000D02*
X107110000Y-104810000D01*
X107860000Y-98310000D02*
X107860000Y-96510000D01*
X107110000Y-98310000D02*
X107860000Y-98310000D01*
X107110000Y-96510000D02*
X107110000Y-98310000D01*
X107860000Y-96510000D02*
X107110000Y-96510000D01*
X107860000Y-103310000D02*
X107860000Y-99810000D01*
X107110000Y-103310000D02*
X107860000Y-103310000D01*
X107110000Y-99810000D02*
X107110000Y-103310000D01*
X107860000Y-99810000D02*
X107110000Y-99810000D01*
X107870000Y-106620000D02*
X107870000Y-96500000D01*
X101900000Y-106620000D02*
X107870000Y-106620000D01*
X101900000Y-96500000D02*
X101900000Y-106620000D01*
X107870000Y-96500000D02*
X101900000Y-96500000D01*
%TO.C,J9*%
D12*
X91547142Y-129301428D02*
X91547142Y-128158571D01*
X91547142Y-118301428D02*
X91547142Y-117158571D01*
X92118571Y-117730000D02*
X90975714Y-117730000D01*
%TO.C,J8*%
X154132380Y-124753333D02*
X154846666Y-124753333D01*
X154989523Y-124800952D01*
X155084761Y-124896190D01*
X155132380Y-125039047D01*
X155132380Y-125134285D01*
X154560952Y-124134285D02*
X154513333Y-124229523D01*
X154465714Y-124277142D01*
X154370476Y-124324761D01*
X154322857Y-124324761D01*
X154227619Y-124277142D01*
X154180000Y-124229523D01*
X154132380Y-124134285D01*
X154132380Y-123943809D01*
X154180000Y-123848571D01*
X154227619Y-123800952D01*
X154322857Y-123753333D01*
X154370476Y-123753333D01*
X154465714Y-123800952D01*
X154513333Y-123848571D01*
X154560952Y-123943809D01*
X154560952Y-124134285D01*
X154608571Y-124229523D01*
X154656190Y-124277142D01*
X154751428Y-124324761D01*
X154941904Y-124324761D01*
X155037142Y-124277142D01*
X155084761Y-124229523D01*
X155132380Y-124134285D01*
X155132380Y-123943809D01*
X155084761Y-123848571D01*
X155037142Y-123800952D01*
X154941904Y-123753333D01*
X154751428Y-123753333D01*
X154656190Y-123800952D01*
X154608571Y-123848571D01*
X154560952Y-123943809D01*
%TO.C,J7*%
X138892380Y-124753333D02*
X139606666Y-124753333D01*
X139749523Y-124800952D01*
X139844761Y-124896190D01*
X139892380Y-125039047D01*
X139892380Y-125134285D01*
X138892380Y-124372380D02*
X138892380Y-123705714D01*
X139892380Y-124134285D01*
%TO.C,J6*%
X123652380Y-124753333D02*
X124366666Y-124753333D01*
X124509523Y-124800952D01*
X124604761Y-124896190D01*
X124652380Y-125039047D01*
X124652380Y-125134285D01*
X123652380Y-123848571D02*
X123652380Y-124039047D01*
X123700000Y-124134285D01*
X123747619Y-124181904D01*
X123890476Y-124277142D01*
X124080952Y-124324761D01*
X124461904Y-124324761D01*
X124557142Y-124277142D01*
X124604761Y-124229523D01*
X124652380Y-124134285D01*
X124652380Y-123943809D01*
X124604761Y-123848571D01*
X124557142Y-123800952D01*
X124461904Y-123753333D01*
X124223809Y-123753333D01*
X124128571Y-123800952D01*
X124080952Y-123848571D01*
X124033333Y-123943809D01*
X124033333Y-124134285D01*
X124080952Y-124229523D01*
X124128571Y-124277142D01*
X124223809Y-124324761D01*
%TO.C,J5*%
X108412380Y-124753333D02*
X109126666Y-124753333D01*
X109269523Y-124800952D01*
X109364761Y-124896190D01*
X109412380Y-125039047D01*
X109412380Y-125134285D01*
X108412380Y-123800952D02*
X108412380Y-124277142D01*
X108888571Y-124324761D01*
X108840952Y-124277142D01*
X108793333Y-124181904D01*
X108793333Y-123943809D01*
X108840952Y-123848571D01*
X108888571Y-123800952D01*
X108983809Y-123753333D01*
X109221904Y-123753333D01*
X109317142Y-123800952D01*
X109364761Y-123848571D01*
X109412380Y-123943809D01*
X109412380Y-124181904D01*
X109364761Y-124277142D01*
X109317142Y-124324761D01*
%TO.C,J4*%
X154132380Y-101893333D02*
X154846666Y-101893333D01*
X154989523Y-101940952D01*
X155084761Y-102036190D01*
X155132380Y-102179047D01*
X155132380Y-102274285D01*
X154465714Y-100988571D02*
X155132380Y-100988571D01*
X154084761Y-101226666D02*
X154799047Y-101464761D01*
X154799047Y-100845714D01*
%TO.C,J3*%
X138892380Y-101893333D02*
X139606666Y-101893333D01*
X139749523Y-101940952D01*
X139844761Y-102036190D01*
X139892380Y-102179047D01*
X139892380Y-102274285D01*
X138892380Y-101512380D02*
X138892380Y-100893333D01*
X139273333Y-101226666D01*
X139273333Y-101083809D01*
X139320952Y-100988571D01*
X139368571Y-100940952D01*
X139463809Y-100893333D01*
X139701904Y-100893333D01*
X139797142Y-100940952D01*
X139844761Y-100988571D01*
X139892380Y-101083809D01*
X139892380Y-101369523D01*
X139844761Y-101464761D01*
X139797142Y-101512380D01*
%TO.C,J2*%
X123652380Y-101853333D02*
X124366666Y-101853333D01*
X124509523Y-101900952D01*
X124604761Y-101996190D01*
X124652380Y-102139047D01*
X124652380Y-102234285D01*
X123747619Y-101424761D02*
X123700000Y-101377142D01*
X123652380Y-101281904D01*
X123652380Y-101043809D01*
X123700000Y-100948571D01*
X123747619Y-100900952D01*
X123842857Y-100853333D01*
X123938095Y-100853333D01*
X124080952Y-100900952D01*
X124652380Y-101472380D01*
X124652380Y-100853333D01*
%TO.C,J1*%
X108412380Y-101893333D02*
X109126666Y-101893333D01*
X109269523Y-101940952D01*
X109364761Y-102036190D01*
X109412380Y-102179047D01*
X109412380Y-102274285D01*
X109412380Y-100893333D02*
X109412380Y-101464761D01*
X109412380Y-101179047D02*
X108412380Y-101179047D01*
X108555238Y-101274285D01*
X108650476Y-101369523D01*
X108698095Y-101464761D01*
%TD*%
M02*
