M48
; DRILL file {KiCad (5.1.9)-1} date 07/19/21 11:38:19
; FORMAT={-:-/ absolute / inch / decimal}
; #@! TF.CreationDate,2021-07-19T11:38:19+01:00
; #@! TF.GenerationSoftware,Kicad,Pcbnew,(5.1.9)-1
FMAT,2
INCH
T1C0.0374
T2C0.0394
T3C0.0748
%
G90
G05
T1
X3.4Y-3.9
X3.4Y-3.9984
X3.4Y-4.0969
X4.15Y-3.9
X4.15Y-3.9984
X4.15Y-4.0969
X4.15Y-4.8
X4.15Y-4.8984
X4.15Y-4.9969
X4.75Y-3.8984
X4.75Y-3.9969
X4.75Y-4.0953
X4.75Y-4.8
X4.75Y-4.8984
X4.75Y-4.9969
X5.35Y-3.9
X5.35Y-3.9984
X5.35Y-4.0969
X5.35Y-4.8
X5.35Y-4.8984
X5.35Y-4.9969
X5.95Y-3.9
X5.95Y-3.9984
X5.95Y-4.0969
X5.95Y-4.8
X5.95Y-4.8984
X5.95Y-4.9969
T2
X3.4031Y-4.635
X3.4031Y-5.0681
T3
X3.6Y-4.7531
X3.6Y-4.95
T0
M30
