%TF.GenerationSoftware,KiCad,Pcbnew,(5.1.9)-1*%
%TF.CreationDate,2021-07-19T11:38:20+01:00*%
%TF.ProjectId,2S-parallel-board,32532d70-6172-4616-9c6c-656c2d626f61,rev?*%
%TF.SameCoordinates,Original*%
%TF.FileFunction,Copper,L1,Top*%
%TF.FilePolarity,Positive*%
%FSLAX46Y46*%
G04 Gerber Fmt 4.6, Leading zero omitted, Abs format (unit mm)*
G04 Created by KiCad (PCBNEW (5.1.9)-1) date 2021-07-19 11:38:20*
%MOMM*%
%LPD*%
G01*
G04 APERTURE LIST*
%TA.AperFunction,ComponentPad*%
%ADD10C,3.500000*%
%TD*%
%TA.AperFunction,ComponentPad*%
%ADD11R,3.500000X3.500000*%
%TD*%
%TA.AperFunction,ComponentPad*%
%ADD12C,1.400000*%
%TD*%
%TA.AperFunction,ComponentPad*%
%ADD13O,1.950000X1.700000*%
%TD*%
%TA.AperFunction,Conductor*%
%ADD14C,2.500000*%
%TD*%
%TA.AperFunction,Conductor*%
%ADD15C,0.254000*%
%TD*%
%TA.AperFunction,Conductor*%
%ADD16C,0.100000*%
%TD*%
G04 APERTURE END LIST*
D10*
%TO.P,J9,2*%
%TO.N,VCC*%
X91440000Y-120730000D03*
D11*
%TO.P,J9,1*%
%TO.N,GND*%
X91440000Y-125730000D03*
D12*
%TO.P,J9,*%
%TO.N,*%
X86440000Y-117730000D03*
X86440000Y-128730000D03*
%TD*%
D13*
%TO.P,J10,3*%
%TO.N,VCC*%
X86360000Y-104060000D03*
%TO.P,J10,2*%
%TO.N,Net-(J1-Pad2)*%
X86360000Y-101560000D03*
%TO.P,J10,1*%
%TO.N,GND*%
%TA.AperFunction,ComponentPad*%
G36*
G01*
X85635000Y-98210000D02*
X87085000Y-98210000D01*
G75*
G02*
X87335000Y-98460000I0J-250000D01*
G01*
X87335000Y-99660000D01*
G75*
G02*
X87085000Y-99910000I-250000J0D01*
G01*
X85635000Y-99910000D01*
G75*
G02*
X85385000Y-99660000I0J250000D01*
G01*
X85385000Y-98460000D01*
G75*
G02*
X85635000Y-98210000I250000J0D01*
G01*
G37*
%TD.AperFunction*%
%TD*%
%TO.P,J8,3*%
%TO.N,GND*%
X151130000Y-126920000D03*
%TO.P,J8,2*%
%TO.N,Net-(J1-Pad2)*%
X151130000Y-124420000D03*
%TO.P,J8,1*%
%TO.N,VCC*%
%TA.AperFunction,ComponentPad*%
G36*
G01*
X150405000Y-121070000D02*
X151855000Y-121070000D01*
G75*
G02*
X152105000Y-121320000I0J-250000D01*
G01*
X152105000Y-122520000D01*
G75*
G02*
X151855000Y-122770000I-250000J0D01*
G01*
X150405000Y-122770000D01*
G75*
G02*
X150155000Y-122520000I0J250000D01*
G01*
X150155000Y-121320000D01*
G75*
G02*
X150405000Y-121070000I250000J0D01*
G01*
G37*
%TD.AperFunction*%
%TD*%
%TO.P,J7,3*%
%TO.N,GND*%
X135890000Y-126920000D03*
%TO.P,J7,2*%
%TO.N,Net-(J1-Pad2)*%
X135890000Y-124420000D03*
%TO.P,J7,1*%
%TO.N,VCC*%
%TA.AperFunction,ComponentPad*%
G36*
G01*
X135165000Y-121070000D02*
X136615000Y-121070000D01*
G75*
G02*
X136865000Y-121320000I0J-250000D01*
G01*
X136865000Y-122520000D01*
G75*
G02*
X136615000Y-122770000I-250000J0D01*
G01*
X135165000Y-122770000D01*
G75*
G02*
X134915000Y-122520000I0J250000D01*
G01*
X134915000Y-121320000D01*
G75*
G02*
X135165000Y-121070000I250000J0D01*
G01*
G37*
%TD.AperFunction*%
%TD*%
%TO.P,J6,3*%
%TO.N,GND*%
X120650000Y-126920000D03*
%TO.P,J6,2*%
%TO.N,Net-(J1-Pad2)*%
X120650000Y-124420000D03*
%TO.P,J6,1*%
%TO.N,VCC*%
%TA.AperFunction,ComponentPad*%
G36*
G01*
X119925000Y-121070000D02*
X121375000Y-121070000D01*
G75*
G02*
X121625000Y-121320000I0J-250000D01*
G01*
X121625000Y-122520000D01*
G75*
G02*
X121375000Y-122770000I-250000J0D01*
G01*
X119925000Y-122770000D01*
G75*
G02*
X119675000Y-122520000I0J250000D01*
G01*
X119675000Y-121320000D01*
G75*
G02*
X119925000Y-121070000I250000J0D01*
G01*
G37*
%TD.AperFunction*%
%TD*%
%TO.P,J5,3*%
%TO.N,GND*%
X105410000Y-126920000D03*
%TO.P,J5,2*%
%TO.N,Net-(J1-Pad2)*%
X105410000Y-124420000D03*
%TO.P,J5,1*%
%TO.N,VCC*%
%TA.AperFunction,ComponentPad*%
G36*
G01*
X104685000Y-121070000D02*
X106135000Y-121070000D01*
G75*
G02*
X106385000Y-121320000I0J-250000D01*
G01*
X106385000Y-122520000D01*
G75*
G02*
X106135000Y-122770000I-250000J0D01*
G01*
X104685000Y-122770000D01*
G75*
G02*
X104435000Y-122520000I0J250000D01*
G01*
X104435000Y-121320000D01*
G75*
G02*
X104685000Y-121070000I250000J0D01*
G01*
G37*
%TD.AperFunction*%
%TD*%
%TO.P,J4,3*%
%TO.N,GND*%
X151130000Y-104060000D03*
%TO.P,J4,2*%
%TO.N,Net-(J1-Pad2)*%
X151130000Y-101560000D03*
%TO.P,J4,1*%
%TO.N,VCC*%
%TA.AperFunction,ComponentPad*%
G36*
G01*
X150405000Y-98210000D02*
X151855000Y-98210000D01*
G75*
G02*
X152105000Y-98460000I0J-250000D01*
G01*
X152105000Y-99660000D01*
G75*
G02*
X151855000Y-99910000I-250000J0D01*
G01*
X150405000Y-99910000D01*
G75*
G02*
X150155000Y-99660000I0J250000D01*
G01*
X150155000Y-98460000D01*
G75*
G02*
X150405000Y-98210000I250000J0D01*
G01*
G37*
%TD.AperFunction*%
%TD*%
%TO.P,J3,3*%
%TO.N,GND*%
X135890000Y-104060000D03*
%TO.P,J3,2*%
%TO.N,Net-(J1-Pad2)*%
X135890000Y-101560000D03*
%TO.P,J3,1*%
%TO.N,VCC*%
%TA.AperFunction,ComponentPad*%
G36*
G01*
X135165000Y-98210000D02*
X136615000Y-98210000D01*
G75*
G02*
X136865000Y-98460000I0J-250000D01*
G01*
X136865000Y-99660000D01*
G75*
G02*
X136615000Y-99910000I-250000J0D01*
G01*
X135165000Y-99910000D01*
G75*
G02*
X134915000Y-99660000I0J250000D01*
G01*
X134915000Y-98460000D01*
G75*
G02*
X135165000Y-98210000I250000J0D01*
G01*
G37*
%TD.AperFunction*%
%TD*%
%TO.P,J2,3*%
%TO.N,GND*%
X120650000Y-104020000D03*
%TO.P,J2,2*%
%TO.N,Net-(J1-Pad2)*%
X120650000Y-101520000D03*
%TO.P,J2,1*%
%TO.N,VCC*%
%TA.AperFunction,ComponentPad*%
G36*
G01*
X119925000Y-98170000D02*
X121375000Y-98170000D01*
G75*
G02*
X121625000Y-98420000I0J-250000D01*
G01*
X121625000Y-99620000D01*
G75*
G02*
X121375000Y-99870000I-250000J0D01*
G01*
X119925000Y-99870000D01*
G75*
G02*
X119675000Y-99620000I0J250000D01*
G01*
X119675000Y-98420000D01*
G75*
G02*
X119925000Y-98170000I250000J0D01*
G01*
G37*
%TD.AperFunction*%
%TD*%
%TO.P,J1,3*%
%TO.N,GND*%
X105410000Y-104060000D03*
%TO.P,J1,2*%
%TO.N,Net-(J1-Pad2)*%
X105410000Y-101560000D03*
%TO.P,J1,1*%
%TO.N,VCC*%
%TA.AperFunction,ComponentPad*%
G36*
G01*
X104685000Y-98210000D02*
X106135000Y-98210000D01*
G75*
G02*
X106385000Y-98460000I0J-250000D01*
G01*
X106385000Y-99660000D01*
G75*
G02*
X106135000Y-99910000I-250000J0D01*
G01*
X104685000Y-99910000D01*
G75*
G02*
X104435000Y-99660000I0J250000D01*
G01*
X104435000Y-98460000D01*
G75*
G02*
X104685000Y-98210000I250000J0D01*
G01*
G37*
%TD.AperFunction*%
%TD*%
D14*
%TO.N,Net-(J1-Pad2)*%
X152007705Y-101560000D02*
X151130000Y-101560000D01*
X153555010Y-103107305D02*
X152007705Y-101560000D01*
X153555010Y-123224170D02*
X153555010Y-103107305D01*
X152359180Y-124420000D02*
X153555010Y-123224170D01*
X151130000Y-124420000D02*
X152359180Y-124420000D01*
X151130000Y-124420000D02*
X105410000Y-124420000D01*
X86360000Y-101560000D02*
X151130000Y-101560000D01*
%TD*%
D15*
%TO.N,VCC*%
X158065001Y-131395000D02*
X76885000Y-131395000D01*
X76885000Y-128598514D01*
X85105000Y-128598514D01*
X85105000Y-128861486D01*
X85156304Y-129119405D01*
X85256939Y-129362359D01*
X85403038Y-129581013D01*
X85588987Y-129766962D01*
X85807641Y-129913061D01*
X86050595Y-130013696D01*
X86308514Y-130065000D01*
X86571486Y-130065000D01*
X86829405Y-130013696D01*
X87072359Y-129913061D01*
X87291013Y-129766962D01*
X87476962Y-129581013D01*
X87623061Y-129362359D01*
X87723696Y-129119405D01*
X87775000Y-128861486D01*
X87775000Y-128598514D01*
X87723696Y-128340595D01*
X87623061Y-128097641D01*
X87476962Y-127878987D01*
X87291013Y-127693038D01*
X87072359Y-127546939D01*
X86829405Y-127446304D01*
X86571486Y-127395000D01*
X86308514Y-127395000D01*
X86050595Y-127446304D01*
X85807641Y-127546939D01*
X85588987Y-127693038D01*
X85403038Y-127878987D01*
X85256939Y-128097641D01*
X85156304Y-128340595D01*
X85105000Y-128598514D01*
X76885000Y-128598514D01*
X76885000Y-123980000D01*
X89051928Y-123980000D01*
X89051928Y-127480000D01*
X89064188Y-127604482D01*
X89100498Y-127724180D01*
X89159463Y-127834494D01*
X89238815Y-127931185D01*
X89335506Y-128010537D01*
X89445820Y-128069502D01*
X89565518Y-128105812D01*
X89690000Y-128118072D01*
X93190000Y-128118072D01*
X93314482Y-128105812D01*
X93434180Y-128069502D01*
X93544494Y-128010537D01*
X93641185Y-127931185D01*
X93720537Y-127834494D01*
X93779502Y-127724180D01*
X93815812Y-127604482D01*
X93828072Y-127480000D01*
X93828072Y-123980000D01*
X93815812Y-123855518D01*
X93779502Y-123735820D01*
X93720537Y-123625506D01*
X93641185Y-123528815D01*
X93544494Y-123449463D01*
X93434180Y-123390498D01*
X93314482Y-123354188D01*
X93190000Y-123341928D01*
X89690000Y-123341928D01*
X89565518Y-123354188D01*
X89445820Y-123390498D01*
X89335506Y-123449463D01*
X89238815Y-123528815D01*
X89159463Y-123625506D01*
X89100498Y-123735820D01*
X89064188Y-123855518D01*
X89051928Y-123980000D01*
X76885000Y-123980000D01*
X76885000Y-117598514D01*
X85105000Y-117598514D01*
X85105000Y-117861486D01*
X85156304Y-118119405D01*
X85256939Y-118362359D01*
X85403038Y-118581013D01*
X85588987Y-118766962D01*
X85807641Y-118913061D01*
X86050595Y-119013696D01*
X86308514Y-119065000D01*
X86571486Y-119065000D01*
X86829405Y-119013696D01*
X87072359Y-118913061D01*
X87291013Y-118766962D01*
X87476962Y-118581013D01*
X87623061Y-118362359D01*
X87723696Y-118119405D01*
X87775000Y-117861486D01*
X87775000Y-117598514D01*
X87723696Y-117340595D01*
X87623061Y-117097641D01*
X87476962Y-116878987D01*
X87291013Y-116693038D01*
X87072359Y-116546939D01*
X86829405Y-116446304D01*
X86571486Y-116395000D01*
X86308514Y-116395000D01*
X86050595Y-116446304D01*
X85807641Y-116546939D01*
X85588987Y-116693038D01*
X85403038Y-116878987D01*
X85256939Y-117097641D01*
X85156304Y-117340595D01*
X85105000Y-117598514D01*
X76885000Y-117598514D01*
X76885000Y-101560000D01*
X84465880Y-101560000D01*
X84502275Y-101929524D01*
X84610061Y-102284848D01*
X84785097Y-102612317D01*
X85020655Y-102899345D01*
X85307683Y-103134903D01*
X85635152Y-103309939D01*
X85990476Y-103417725D01*
X86267403Y-103445000D01*
X103929901Y-103445000D01*
X103906401Y-103488966D01*
X103821487Y-103768889D01*
X103792815Y-104060000D01*
X103821487Y-104351111D01*
X103906401Y-104631034D01*
X104044294Y-104889014D01*
X104229866Y-105115134D01*
X104455986Y-105300706D01*
X104713966Y-105438599D01*
X104993889Y-105523513D01*
X105212050Y-105545000D01*
X105607950Y-105545000D01*
X105826111Y-105523513D01*
X106106034Y-105438599D01*
X106364014Y-105300706D01*
X106590134Y-105115134D01*
X106775706Y-104889014D01*
X106913599Y-104631034D01*
X106998513Y-104351111D01*
X107027185Y-104060000D01*
X106998513Y-103768889D01*
X106913599Y-103488966D01*
X106890099Y-103445000D01*
X119148521Y-103445000D01*
X119146401Y-103448966D01*
X119061487Y-103728889D01*
X119032815Y-104020000D01*
X119061487Y-104311111D01*
X119146401Y-104591034D01*
X119284294Y-104849014D01*
X119469866Y-105075134D01*
X119695986Y-105260706D01*
X119953966Y-105398599D01*
X120233889Y-105483513D01*
X120452050Y-105505000D01*
X120847950Y-105505000D01*
X121066111Y-105483513D01*
X121346034Y-105398599D01*
X121604014Y-105260706D01*
X121830134Y-105075134D01*
X122015706Y-104849014D01*
X122153599Y-104591034D01*
X122238513Y-104311111D01*
X122267185Y-104020000D01*
X122238513Y-103728889D01*
X122153599Y-103448966D01*
X122151479Y-103445000D01*
X134409901Y-103445000D01*
X134386401Y-103488966D01*
X134301487Y-103768889D01*
X134272815Y-104060000D01*
X134301487Y-104351111D01*
X134386401Y-104631034D01*
X134524294Y-104889014D01*
X134709866Y-105115134D01*
X134935986Y-105300706D01*
X135193966Y-105438599D01*
X135473889Y-105523513D01*
X135692050Y-105545000D01*
X136087950Y-105545000D01*
X136306111Y-105523513D01*
X136586034Y-105438599D01*
X136844014Y-105300706D01*
X137070134Y-105115134D01*
X137255706Y-104889014D01*
X137393599Y-104631034D01*
X137478513Y-104351111D01*
X137507185Y-104060000D01*
X137478513Y-103768889D01*
X137393599Y-103488966D01*
X137370099Y-103445000D01*
X149649901Y-103445000D01*
X149626401Y-103488966D01*
X149541487Y-103768889D01*
X149512815Y-104060000D01*
X149541487Y-104351111D01*
X149626401Y-104631034D01*
X149764294Y-104889014D01*
X149949866Y-105115134D01*
X150175986Y-105300706D01*
X150433966Y-105438599D01*
X150713889Y-105523513D01*
X150932050Y-105545000D01*
X151327950Y-105545000D01*
X151546111Y-105523513D01*
X151670011Y-105485928D01*
X151670010Y-122443378D01*
X151578388Y-122535000D01*
X105317403Y-122535000D01*
X105040476Y-122562275D01*
X104685152Y-122670061D01*
X104357683Y-122845097D01*
X104070655Y-123080655D01*
X103835097Y-123367683D01*
X103660061Y-123695152D01*
X103552275Y-124050476D01*
X103515880Y-124420000D01*
X103552275Y-124789524D01*
X103660061Y-125144848D01*
X103835097Y-125472317D01*
X104070655Y-125759345D01*
X104217537Y-125879888D01*
X104044294Y-126090986D01*
X103906401Y-126348966D01*
X103821487Y-126628889D01*
X103792815Y-126920000D01*
X103821487Y-127211111D01*
X103906401Y-127491034D01*
X104044294Y-127749014D01*
X104229866Y-127975134D01*
X104455986Y-128160706D01*
X104713966Y-128298599D01*
X104993889Y-128383513D01*
X105212050Y-128405000D01*
X105607950Y-128405000D01*
X105826111Y-128383513D01*
X106106034Y-128298599D01*
X106364014Y-128160706D01*
X106590134Y-127975134D01*
X106775706Y-127749014D01*
X106913599Y-127491034D01*
X106998513Y-127211111D01*
X107027185Y-126920000D01*
X106998513Y-126628889D01*
X106913599Y-126348966D01*
X106890099Y-126305000D01*
X119169901Y-126305000D01*
X119146401Y-126348966D01*
X119061487Y-126628889D01*
X119032815Y-126920000D01*
X119061487Y-127211111D01*
X119146401Y-127491034D01*
X119284294Y-127749014D01*
X119469866Y-127975134D01*
X119695986Y-128160706D01*
X119953966Y-128298599D01*
X120233889Y-128383513D01*
X120452050Y-128405000D01*
X120847950Y-128405000D01*
X121066111Y-128383513D01*
X121346034Y-128298599D01*
X121604014Y-128160706D01*
X121830134Y-127975134D01*
X122015706Y-127749014D01*
X122153599Y-127491034D01*
X122238513Y-127211111D01*
X122267185Y-126920000D01*
X122238513Y-126628889D01*
X122153599Y-126348966D01*
X122130099Y-126305000D01*
X134409901Y-126305000D01*
X134386401Y-126348966D01*
X134301487Y-126628889D01*
X134272815Y-126920000D01*
X134301487Y-127211111D01*
X134386401Y-127491034D01*
X134524294Y-127749014D01*
X134709866Y-127975134D01*
X134935986Y-128160706D01*
X135193966Y-128298599D01*
X135473889Y-128383513D01*
X135692050Y-128405000D01*
X136087950Y-128405000D01*
X136306111Y-128383513D01*
X136586034Y-128298599D01*
X136844014Y-128160706D01*
X137070134Y-127975134D01*
X137255706Y-127749014D01*
X137393599Y-127491034D01*
X137478513Y-127211111D01*
X137507185Y-126920000D01*
X137478513Y-126628889D01*
X137393599Y-126348966D01*
X137370099Y-126305000D01*
X149649901Y-126305000D01*
X149626401Y-126348966D01*
X149541487Y-126628889D01*
X149512815Y-126920000D01*
X149541487Y-127211111D01*
X149626401Y-127491034D01*
X149764294Y-127749014D01*
X149949866Y-127975134D01*
X150175986Y-128160706D01*
X150433966Y-128298599D01*
X150713889Y-128383513D01*
X150932050Y-128405000D01*
X151327950Y-128405000D01*
X151546111Y-128383513D01*
X151826034Y-128298599D01*
X152084014Y-128160706D01*
X152310134Y-127975134D01*
X152495706Y-127749014D01*
X152633599Y-127491034D01*
X152718513Y-127211111D01*
X152747185Y-126920000D01*
X152718513Y-126628889D01*
X152633599Y-126348966D01*
X152602181Y-126290186D01*
X152728704Y-126277725D01*
X153084028Y-126169939D01*
X153411497Y-125994903D01*
X153698525Y-125759345D01*
X153757554Y-125687418D01*
X154822428Y-124622544D01*
X154894355Y-124563515D01*
X155129913Y-124276487D01*
X155304949Y-123949018D01*
X155412735Y-123593694D01*
X155440010Y-123316767D01*
X155440010Y-123316760D01*
X155449129Y-123224171D01*
X155440010Y-123131582D01*
X155440010Y-103199902D01*
X155449130Y-103107305D01*
X155412735Y-102737781D01*
X155395632Y-102681401D01*
X155304949Y-102382457D01*
X155129913Y-102054988D01*
X154953382Y-101839884D01*
X154953380Y-101839882D01*
X154894355Y-101767960D01*
X154822433Y-101708935D01*
X153406079Y-100292582D01*
X153347050Y-100220655D01*
X153060022Y-99985097D01*
X152732553Y-99810061D01*
X152377229Y-99702275D01*
X152100302Y-99675000D01*
X152100294Y-99675000D01*
X152007705Y-99665881D01*
X151915116Y-99675000D01*
X87971595Y-99675000D01*
X87973072Y-99660000D01*
X87973072Y-98460000D01*
X87956008Y-98286746D01*
X87905472Y-98120150D01*
X87823405Y-97966614D01*
X87712962Y-97832038D01*
X87578386Y-97721595D01*
X87424850Y-97639528D01*
X87258254Y-97588992D01*
X87085000Y-97571928D01*
X85635000Y-97571928D01*
X85461746Y-97588992D01*
X85295150Y-97639528D01*
X85141614Y-97721595D01*
X85007038Y-97832038D01*
X84896595Y-97966614D01*
X84814528Y-98120150D01*
X84763992Y-98286746D01*
X84746928Y-98460000D01*
X84746928Y-99660000D01*
X84763992Y-99833254D01*
X84814528Y-99999850D01*
X84896595Y-100153386D01*
X84986228Y-100262605D01*
X84785097Y-100507683D01*
X84610061Y-100835152D01*
X84502275Y-101190476D01*
X84465880Y-101560000D01*
X76885000Y-101560000D01*
X76885000Y-94665000D01*
X158065000Y-94665000D01*
X158065001Y-131395000D01*
%TA.AperFunction,Conductor*%
D16*
G36*
X158065001Y-131395000D02*
G01*
X76885000Y-131395000D01*
X76885000Y-128598514D01*
X85105000Y-128598514D01*
X85105000Y-128861486D01*
X85156304Y-129119405D01*
X85256939Y-129362359D01*
X85403038Y-129581013D01*
X85588987Y-129766962D01*
X85807641Y-129913061D01*
X86050595Y-130013696D01*
X86308514Y-130065000D01*
X86571486Y-130065000D01*
X86829405Y-130013696D01*
X87072359Y-129913061D01*
X87291013Y-129766962D01*
X87476962Y-129581013D01*
X87623061Y-129362359D01*
X87723696Y-129119405D01*
X87775000Y-128861486D01*
X87775000Y-128598514D01*
X87723696Y-128340595D01*
X87623061Y-128097641D01*
X87476962Y-127878987D01*
X87291013Y-127693038D01*
X87072359Y-127546939D01*
X86829405Y-127446304D01*
X86571486Y-127395000D01*
X86308514Y-127395000D01*
X86050595Y-127446304D01*
X85807641Y-127546939D01*
X85588987Y-127693038D01*
X85403038Y-127878987D01*
X85256939Y-128097641D01*
X85156304Y-128340595D01*
X85105000Y-128598514D01*
X76885000Y-128598514D01*
X76885000Y-123980000D01*
X89051928Y-123980000D01*
X89051928Y-127480000D01*
X89064188Y-127604482D01*
X89100498Y-127724180D01*
X89159463Y-127834494D01*
X89238815Y-127931185D01*
X89335506Y-128010537D01*
X89445820Y-128069502D01*
X89565518Y-128105812D01*
X89690000Y-128118072D01*
X93190000Y-128118072D01*
X93314482Y-128105812D01*
X93434180Y-128069502D01*
X93544494Y-128010537D01*
X93641185Y-127931185D01*
X93720537Y-127834494D01*
X93779502Y-127724180D01*
X93815812Y-127604482D01*
X93828072Y-127480000D01*
X93828072Y-123980000D01*
X93815812Y-123855518D01*
X93779502Y-123735820D01*
X93720537Y-123625506D01*
X93641185Y-123528815D01*
X93544494Y-123449463D01*
X93434180Y-123390498D01*
X93314482Y-123354188D01*
X93190000Y-123341928D01*
X89690000Y-123341928D01*
X89565518Y-123354188D01*
X89445820Y-123390498D01*
X89335506Y-123449463D01*
X89238815Y-123528815D01*
X89159463Y-123625506D01*
X89100498Y-123735820D01*
X89064188Y-123855518D01*
X89051928Y-123980000D01*
X76885000Y-123980000D01*
X76885000Y-117598514D01*
X85105000Y-117598514D01*
X85105000Y-117861486D01*
X85156304Y-118119405D01*
X85256939Y-118362359D01*
X85403038Y-118581013D01*
X85588987Y-118766962D01*
X85807641Y-118913061D01*
X86050595Y-119013696D01*
X86308514Y-119065000D01*
X86571486Y-119065000D01*
X86829405Y-119013696D01*
X87072359Y-118913061D01*
X87291013Y-118766962D01*
X87476962Y-118581013D01*
X87623061Y-118362359D01*
X87723696Y-118119405D01*
X87775000Y-117861486D01*
X87775000Y-117598514D01*
X87723696Y-117340595D01*
X87623061Y-117097641D01*
X87476962Y-116878987D01*
X87291013Y-116693038D01*
X87072359Y-116546939D01*
X86829405Y-116446304D01*
X86571486Y-116395000D01*
X86308514Y-116395000D01*
X86050595Y-116446304D01*
X85807641Y-116546939D01*
X85588987Y-116693038D01*
X85403038Y-116878987D01*
X85256939Y-117097641D01*
X85156304Y-117340595D01*
X85105000Y-117598514D01*
X76885000Y-117598514D01*
X76885000Y-101560000D01*
X84465880Y-101560000D01*
X84502275Y-101929524D01*
X84610061Y-102284848D01*
X84785097Y-102612317D01*
X85020655Y-102899345D01*
X85307683Y-103134903D01*
X85635152Y-103309939D01*
X85990476Y-103417725D01*
X86267403Y-103445000D01*
X103929901Y-103445000D01*
X103906401Y-103488966D01*
X103821487Y-103768889D01*
X103792815Y-104060000D01*
X103821487Y-104351111D01*
X103906401Y-104631034D01*
X104044294Y-104889014D01*
X104229866Y-105115134D01*
X104455986Y-105300706D01*
X104713966Y-105438599D01*
X104993889Y-105523513D01*
X105212050Y-105545000D01*
X105607950Y-105545000D01*
X105826111Y-105523513D01*
X106106034Y-105438599D01*
X106364014Y-105300706D01*
X106590134Y-105115134D01*
X106775706Y-104889014D01*
X106913599Y-104631034D01*
X106998513Y-104351111D01*
X107027185Y-104060000D01*
X106998513Y-103768889D01*
X106913599Y-103488966D01*
X106890099Y-103445000D01*
X119148521Y-103445000D01*
X119146401Y-103448966D01*
X119061487Y-103728889D01*
X119032815Y-104020000D01*
X119061487Y-104311111D01*
X119146401Y-104591034D01*
X119284294Y-104849014D01*
X119469866Y-105075134D01*
X119695986Y-105260706D01*
X119953966Y-105398599D01*
X120233889Y-105483513D01*
X120452050Y-105505000D01*
X120847950Y-105505000D01*
X121066111Y-105483513D01*
X121346034Y-105398599D01*
X121604014Y-105260706D01*
X121830134Y-105075134D01*
X122015706Y-104849014D01*
X122153599Y-104591034D01*
X122238513Y-104311111D01*
X122267185Y-104020000D01*
X122238513Y-103728889D01*
X122153599Y-103448966D01*
X122151479Y-103445000D01*
X134409901Y-103445000D01*
X134386401Y-103488966D01*
X134301487Y-103768889D01*
X134272815Y-104060000D01*
X134301487Y-104351111D01*
X134386401Y-104631034D01*
X134524294Y-104889014D01*
X134709866Y-105115134D01*
X134935986Y-105300706D01*
X135193966Y-105438599D01*
X135473889Y-105523513D01*
X135692050Y-105545000D01*
X136087950Y-105545000D01*
X136306111Y-105523513D01*
X136586034Y-105438599D01*
X136844014Y-105300706D01*
X137070134Y-105115134D01*
X137255706Y-104889014D01*
X137393599Y-104631034D01*
X137478513Y-104351111D01*
X137507185Y-104060000D01*
X137478513Y-103768889D01*
X137393599Y-103488966D01*
X137370099Y-103445000D01*
X149649901Y-103445000D01*
X149626401Y-103488966D01*
X149541487Y-103768889D01*
X149512815Y-104060000D01*
X149541487Y-104351111D01*
X149626401Y-104631034D01*
X149764294Y-104889014D01*
X149949866Y-105115134D01*
X150175986Y-105300706D01*
X150433966Y-105438599D01*
X150713889Y-105523513D01*
X150932050Y-105545000D01*
X151327950Y-105545000D01*
X151546111Y-105523513D01*
X151670011Y-105485928D01*
X151670010Y-122443378D01*
X151578388Y-122535000D01*
X105317403Y-122535000D01*
X105040476Y-122562275D01*
X104685152Y-122670061D01*
X104357683Y-122845097D01*
X104070655Y-123080655D01*
X103835097Y-123367683D01*
X103660061Y-123695152D01*
X103552275Y-124050476D01*
X103515880Y-124420000D01*
X103552275Y-124789524D01*
X103660061Y-125144848D01*
X103835097Y-125472317D01*
X104070655Y-125759345D01*
X104217537Y-125879888D01*
X104044294Y-126090986D01*
X103906401Y-126348966D01*
X103821487Y-126628889D01*
X103792815Y-126920000D01*
X103821487Y-127211111D01*
X103906401Y-127491034D01*
X104044294Y-127749014D01*
X104229866Y-127975134D01*
X104455986Y-128160706D01*
X104713966Y-128298599D01*
X104993889Y-128383513D01*
X105212050Y-128405000D01*
X105607950Y-128405000D01*
X105826111Y-128383513D01*
X106106034Y-128298599D01*
X106364014Y-128160706D01*
X106590134Y-127975134D01*
X106775706Y-127749014D01*
X106913599Y-127491034D01*
X106998513Y-127211111D01*
X107027185Y-126920000D01*
X106998513Y-126628889D01*
X106913599Y-126348966D01*
X106890099Y-126305000D01*
X119169901Y-126305000D01*
X119146401Y-126348966D01*
X119061487Y-126628889D01*
X119032815Y-126920000D01*
X119061487Y-127211111D01*
X119146401Y-127491034D01*
X119284294Y-127749014D01*
X119469866Y-127975134D01*
X119695986Y-128160706D01*
X119953966Y-128298599D01*
X120233889Y-128383513D01*
X120452050Y-128405000D01*
X120847950Y-128405000D01*
X121066111Y-128383513D01*
X121346034Y-128298599D01*
X121604014Y-128160706D01*
X121830134Y-127975134D01*
X122015706Y-127749014D01*
X122153599Y-127491034D01*
X122238513Y-127211111D01*
X122267185Y-126920000D01*
X122238513Y-126628889D01*
X122153599Y-126348966D01*
X122130099Y-126305000D01*
X134409901Y-126305000D01*
X134386401Y-126348966D01*
X134301487Y-126628889D01*
X134272815Y-126920000D01*
X134301487Y-127211111D01*
X134386401Y-127491034D01*
X134524294Y-127749014D01*
X134709866Y-127975134D01*
X134935986Y-128160706D01*
X135193966Y-128298599D01*
X135473889Y-128383513D01*
X135692050Y-128405000D01*
X136087950Y-128405000D01*
X136306111Y-128383513D01*
X136586034Y-128298599D01*
X136844014Y-128160706D01*
X137070134Y-127975134D01*
X137255706Y-127749014D01*
X137393599Y-127491034D01*
X137478513Y-127211111D01*
X137507185Y-126920000D01*
X137478513Y-126628889D01*
X137393599Y-126348966D01*
X137370099Y-126305000D01*
X149649901Y-126305000D01*
X149626401Y-126348966D01*
X149541487Y-126628889D01*
X149512815Y-126920000D01*
X149541487Y-127211111D01*
X149626401Y-127491034D01*
X149764294Y-127749014D01*
X149949866Y-127975134D01*
X150175986Y-128160706D01*
X150433966Y-128298599D01*
X150713889Y-128383513D01*
X150932050Y-128405000D01*
X151327950Y-128405000D01*
X151546111Y-128383513D01*
X151826034Y-128298599D01*
X152084014Y-128160706D01*
X152310134Y-127975134D01*
X152495706Y-127749014D01*
X152633599Y-127491034D01*
X152718513Y-127211111D01*
X152747185Y-126920000D01*
X152718513Y-126628889D01*
X152633599Y-126348966D01*
X152602181Y-126290186D01*
X152728704Y-126277725D01*
X153084028Y-126169939D01*
X153411497Y-125994903D01*
X153698525Y-125759345D01*
X153757554Y-125687418D01*
X154822428Y-124622544D01*
X154894355Y-124563515D01*
X155129913Y-124276487D01*
X155304949Y-123949018D01*
X155412735Y-123593694D01*
X155440010Y-123316767D01*
X155440010Y-123316760D01*
X155449129Y-123224171D01*
X155440010Y-123131582D01*
X155440010Y-103199902D01*
X155449130Y-103107305D01*
X155412735Y-102737781D01*
X155395632Y-102681401D01*
X155304949Y-102382457D01*
X155129913Y-102054988D01*
X154953382Y-101839884D01*
X154953380Y-101839882D01*
X154894355Y-101767960D01*
X154822433Y-101708935D01*
X153406079Y-100292582D01*
X153347050Y-100220655D01*
X153060022Y-99985097D01*
X152732553Y-99810061D01*
X152377229Y-99702275D01*
X152100302Y-99675000D01*
X152100294Y-99675000D01*
X152007705Y-99665881D01*
X151915116Y-99675000D01*
X87971595Y-99675000D01*
X87973072Y-99660000D01*
X87973072Y-98460000D01*
X87956008Y-98286746D01*
X87905472Y-98120150D01*
X87823405Y-97966614D01*
X87712962Y-97832038D01*
X87578386Y-97721595D01*
X87424850Y-97639528D01*
X87258254Y-97588992D01*
X87085000Y-97571928D01*
X85635000Y-97571928D01*
X85461746Y-97588992D01*
X85295150Y-97639528D01*
X85141614Y-97721595D01*
X85007038Y-97832038D01*
X84896595Y-97966614D01*
X84814528Y-98120150D01*
X84763992Y-98286746D01*
X84746928Y-98460000D01*
X84746928Y-99660000D01*
X84763992Y-99833254D01*
X84814528Y-99999850D01*
X84896595Y-100153386D01*
X84986228Y-100262605D01*
X84785097Y-100507683D01*
X84610061Y-100835152D01*
X84502275Y-101190476D01*
X84465880Y-101560000D01*
X76885000Y-101560000D01*
X76885000Y-94665000D01*
X158065000Y-94665000D01*
X158065001Y-131395000D01*
G37*
%TD.AperFunction*%
%TD*%
M02*
