%TF.GenerationSoftware,KiCad,Pcbnew,(5.1.9)-1*%
%TF.CreationDate,2021-07-19T11:38:20+01:00*%
%TF.ProjectId,2S-parallel-board,32532d70-6172-4616-9c6c-656c2d626f61,rev?*%
%TF.SameCoordinates,Original*%
%TF.FileFunction,Copper,L2,Bot*%
%TF.FilePolarity,Positive*%
%FSLAX46Y46*%
G04 Gerber Fmt 4.6, Leading zero omitted, Abs format (unit mm)*
G04 Created by KiCad (PCBNEW (5.1.9)-1) date 2021-07-19 11:38:20*
%MOMM*%
%LPD*%
G01*
G04 APERTURE LIST*
%TA.AperFunction,ComponentPad*%
%ADD10C,3.500000*%
%TD*%
%TA.AperFunction,ComponentPad*%
%ADD11R,3.500000X3.500000*%
%TD*%
%TA.AperFunction,ComponentPad*%
%ADD12C,1.400000*%
%TD*%
%TA.AperFunction,ComponentPad*%
%ADD13O,1.950000X1.700000*%
%TD*%
%TA.AperFunction,Conductor*%
%ADD14C,2.500000*%
%TD*%
%TA.AperFunction,Conductor*%
%ADD15C,0.254000*%
%TD*%
%TA.AperFunction,Conductor*%
%ADD16C,0.100000*%
%TD*%
G04 APERTURE END LIST*
D10*
%TO.P,J9,2*%
%TO.N,VCC*%
X91440000Y-120730000D03*
D11*
%TO.P,J9,1*%
%TO.N,GND*%
X91440000Y-125730000D03*
D12*
%TO.P,J9,*%
%TO.N,*%
X86440000Y-117730000D03*
X86440000Y-128730000D03*
%TD*%
D13*
%TO.P,J10,3*%
%TO.N,VCC*%
X86360000Y-104060000D03*
%TO.P,J10,2*%
%TO.N,Net-(J1-Pad2)*%
X86360000Y-101560000D03*
%TO.P,J10,1*%
%TO.N,GND*%
%TA.AperFunction,ComponentPad*%
G36*
G01*
X85635000Y-98210000D02*
X87085000Y-98210000D01*
G75*
G02*
X87335000Y-98460000I0J-250000D01*
G01*
X87335000Y-99660000D01*
G75*
G02*
X87085000Y-99910000I-250000J0D01*
G01*
X85635000Y-99910000D01*
G75*
G02*
X85385000Y-99660000I0J250000D01*
G01*
X85385000Y-98460000D01*
G75*
G02*
X85635000Y-98210000I250000J0D01*
G01*
G37*
%TD.AperFunction*%
%TD*%
%TO.P,J8,3*%
%TO.N,GND*%
X151130000Y-126920000D03*
%TO.P,J8,2*%
%TO.N,Net-(J1-Pad2)*%
X151130000Y-124420000D03*
%TO.P,J8,1*%
%TO.N,VCC*%
%TA.AperFunction,ComponentPad*%
G36*
G01*
X150405000Y-121070000D02*
X151855000Y-121070000D01*
G75*
G02*
X152105000Y-121320000I0J-250000D01*
G01*
X152105000Y-122520000D01*
G75*
G02*
X151855000Y-122770000I-250000J0D01*
G01*
X150405000Y-122770000D01*
G75*
G02*
X150155000Y-122520000I0J250000D01*
G01*
X150155000Y-121320000D01*
G75*
G02*
X150405000Y-121070000I250000J0D01*
G01*
G37*
%TD.AperFunction*%
%TD*%
%TO.P,J7,3*%
%TO.N,GND*%
X135890000Y-126920000D03*
%TO.P,J7,2*%
%TO.N,Net-(J1-Pad2)*%
X135890000Y-124420000D03*
%TO.P,J7,1*%
%TO.N,VCC*%
%TA.AperFunction,ComponentPad*%
G36*
G01*
X135165000Y-121070000D02*
X136615000Y-121070000D01*
G75*
G02*
X136865000Y-121320000I0J-250000D01*
G01*
X136865000Y-122520000D01*
G75*
G02*
X136615000Y-122770000I-250000J0D01*
G01*
X135165000Y-122770000D01*
G75*
G02*
X134915000Y-122520000I0J250000D01*
G01*
X134915000Y-121320000D01*
G75*
G02*
X135165000Y-121070000I250000J0D01*
G01*
G37*
%TD.AperFunction*%
%TD*%
%TO.P,J6,3*%
%TO.N,GND*%
X120650000Y-126920000D03*
%TO.P,J6,2*%
%TO.N,Net-(J1-Pad2)*%
X120650000Y-124420000D03*
%TO.P,J6,1*%
%TO.N,VCC*%
%TA.AperFunction,ComponentPad*%
G36*
G01*
X119925000Y-121070000D02*
X121375000Y-121070000D01*
G75*
G02*
X121625000Y-121320000I0J-250000D01*
G01*
X121625000Y-122520000D01*
G75*
G02*
X121375000Y-122770000I-250000J0D01*
G01*
X119925000Y-122770000D01*
G75*
G02*
X119675000Y-122520000I0J250000D01*
G01*
X119675000Y-121320000D01*
G75*
G02*
X119925000Y-121070000I250000J0D01*
G01*
G37*
%TD.AperFunction*%
%TD*%
%TO.P,J5,3*%
%TO.N,GND*%
X105410000Y-126920000D03*
%TO.P,J5,2*%
%TO.N,Net-(J1-Pad2)*%
X105410000Y-124420000D03*
%TO.P,J5,1*%
%TO.N,VCC*%
%TA.AperFunction,ComponentPad*%
G36*
G01*
X104685000Y-121070000D02*
X106135000Y-121070000D01*
G75*
G02*
X106385000Y-121320000I0J-250000D01*
G01*
X106385000Y-122520000D01*
G75*
G02*
X106135000Y-122770000I-250000J0D01*
G01*
X104685000Y-122770000D01*
G75*
G02*
X104435000Y-122520000I0J250000D01*
G01*
X104435000Y-121320000D01*
G75*
G02*
X104685000Y-121070000I250000J0D01*
G01*
G37*
%TD.AperFunction*%
%TD*%
%TO.P,J4,3*%
%TO.N,GND*%
X151130000Y-104060000D03*
%TO.P,J4,2*%
%TO.N,Net-(J1-Pad2)*%
X151130000Y-101560000D03*
%TO.P,J4,1*%
%TO.N,VCC*%
%TA.AperFunction,ComponentPad*%
G36*
G01*
X150405000Y-98210000D02*
X151855000Y-98210000D01*
G75*
G02*
X152105000Y-98460000I0J-250000D01*
G01*
X152105000Y-99660000D01*
G75*
G02*
X151855000Y-99910000I-250000J0D01*
G01*
X150405000Y-99910000D01*
G75*
G02*
X150155000Y-99660000I0J250000D01*
G01*
X150155000Y-98460000D01*
G75*
G02*
X150405000Y-98210000I250000J0D01*
G01*
G37*
%TD.AperFunction*%
%TD*%
%TO.P,J3,3*%
%TO.N,GND*%
X135890000Y-104060000D03*
%TO.P,J3,2*%
%TO.N,Net-(J1-Pad2)*%
X135890000Y-101560000D03*
%TO.P,J3,1*%
%TO.N,VCC*%
%TA.AperFunction,ComponentPad*%
G36*
G01*
X135165000Y-98210000D02*
X136615000Y-98210000D01*
G75*
G02*
X136865000Y-98460000I0J-250000D01*
G01*
X136865000Y-99660000D01*
G75*
G02*
X136615000Y-99910000I-250000J0D01*
G01*
X135165000Y-99910000D01*
G75*
G02*
X134915000Y-99660000I0J250000D01*
G01*
X134915000Y-98460000D01*
G75*
G02*
X135165000Y-98210000I250000J0D01*
G01*
G37*
%TD.AperFunction*%
%TD*%
%TO.P,J2,3*%
%TO.N,GND*%
X120650000Y-104020000D03*
%TO.P,J2,2*%
%TO.N,Net-(J1-Pad2)*%
X120650000Y-101520000D03*
%TO.P,J2,1*%
%TO.N,VCC*%
%TA.AperFunction,ComponentPad*%
G36*
G01*
X119925000Y-98170000D02*
X121375000Y-98170000D01*
G75*
G02*
X121625000Y-98420000I0J-250000D01*
G01*
X121625000Y-99620000D01*
G75*
G02*
X121375000Y-99870000I-250000J0D01*
G01*
X119925000Y-99870000D01*
G75*
G02*
X119675000Y-99620000I0J250000D01*
G01*
X119675000Y-98420000D01*
G75*
G02*
X119925000Y-98170000I250000J0D01*
G01*
G37*
%TD.AperFunction*%
%TD*%
%TO.P,J1,3*%
%TO.N,GND*%
X105410000Y-104060000D03*
%TO.P,J1,2*%
%TO.N,Net-(J1-Pad2)*%
X105410000Y-101560000D03*
%TO.P,J1,1*%
%TO.N,VCC*%
%TA.AperFunction,ComponentPad*%
G36*
G01*
X104685000Y-98210000D02*
X106135000Y-98210000D01*
G75*
G02*
X106385000Y-98460000I0J-250000D01*
G01*
X106385000Y-99660000D01*
G75*
G02*
X106135000Y-99910000I-250000J0D01*
G01*
X104685000Y-99910000D01*
G75*
G02*
X104435000Y-99660000I0J250000D01*
G01*
X104435000Y-98460000D01*
G75*
G02*
X104685000Y-98210000I250000J0D01*
G01*
G37*
%TD.AperFunction*%
%TD*%
D14*
%TO.N,VCC*%
X104220000Y-120730000D02*
X105410000Y-121920000D01*
X91440000Y-120730000D02*
X104220000Y-120730000D01*
X105410000Y-121920000D02*
X135890000Y-121920000D01*
X150252295Y-99060000D02*
X151130000Y-99060000D01*
X135890000Y-113422295D02*
X150252295Y-99060000D01*
X135890000Y-121920000D02*
X135890000Y-113422295D01*
X151130000Y-99060000D02*
X105410000Y-99060000D01*
%TD*%
D15*
%TO.N,GND*%
X158065001Y-131395000D02*
X76885000Y-131395000D01*
X76885000Y-128598514D01*
X85105000Y-128598514D01*
X85105000Y-128861486D01*
X85156304Y-129119405D01*
X85256939Y-129362359D01*
X85403038Y-129581013D01*
X85588987Y-129766962D01*
X85807641Y-129913061D01*
X86050595Y-130013696D01*
X86308514Y-130065000D01*
X86571486Y-130065000D01*
X86829405Y-130013696D01*
X87072359Y-129913061D01*
X87291013Y-129766962D01*
X87476962Y-129581013D01*
X87623061Y-129362359D01*
X87723696Y-129119405D01*
X87775000Y-128861486D01*
X87775000Y-128598514D01*
X87723696Y-128340595D01*
X87623061Y-128097641D01*
X87476962Y-127878987D01*
X87291013Y-127693038D01*
X87072359Y-127546939D01*
X86829405Y-127446304D01*
X86571486Y-127395000D01*
X86308514Y-127395000D01*
X86050595Y-127446304D01*
X85807641Y-127546939D01*
X85588987Y-127693038D01*
X85403038Y-127878987D01*
X85256939Y-128097641D01*
X85156304Y-128340595D01*
X85105000Y-128598514D01*
X76885000Y-128598514D01*
X76885000Y-120495098D01*
X89055000Y-120495098D01*
X89055000Y-120964902D01*
X89146654Y-121425679D01*
X89326440Y-121859721D01*
X89587450Y-122250349D01*
X89919651Y-122582550D01*
X90310279Y-122843560D01*
X90744321Y-123023346D01*
X91205098Y-123115000D01*
X91674902Y-123115000D01*
X92135679Y-123023346D01*
X92569721Y-122843560D01*
X92911784Y-122615000D01*
X103439208Y-122615000D01*
X104011626Y-123187418D01*
X104070655Y-123259345D01*
X104217537Y-123379888D01*
X104044294Y-123590986D01*
X103906401Y-123848966D01*
X103821487Y-124128889D01*
X103792815Y-124420000D01*
X103821487Y-124711111D01*
X103906401Y-124991034D01*
X104044294Y-125249014D01*
X104229866Y-125475134D01*
X104455986Y-125660706D01*
X104713966Y-125798599D01*
X104993889Y-125883513D01*
X105212050Y-125905000D01*
X105607950Y-125905000D01*
X105826111Y-125883513D01*
X106106034Y-125798599D01*
X106364014Y-125660706D01*
X106590134Y-125475134D01*
X106775706Y-125249014D01*
X106913599Y-124991034D01*
X106998513Y-124711111D01*
X107027185Y-124420000D01*
X106998513Y-124128889D01*
X106913599Y-123848966D01*
X106890099Y-123805000D01*
X119169901Y-123805000D01*
X119146401Y-123848966D01*
X119061487Y-124128889D01*
X119032815Y-124420000D01*
X119061487Y-124711111D01*
X119146401Y-124991034D01*
X119284294Y-125249014D01*
X119469866Y-125475134D01*
X119695986Y-125660706D01*
X119953966Y-125798599D01*
X120233889Y-125883513D01*
X120452050Y-125905000D01*
X120847950Y-125905000D01*
X121066111Y-125883513D01*
X121346034Y-125798599D01*
X121604014Y-125660706D01*
X121830134Y-125475134D01*
X122015706Y-125249014D01*
X122153599Y-124991034D01*
X122238513Y-124711111D01*
X122267185Y-124420000D01*
X122238513Y-124128889D01*
X122153599Y-123848966D01*
X122130099Y-123805000D01*
X134409901Y-123805000D01*
X134386401Y-123848966D01*
X134301487Y-124128889D01*
X134272815Y-124420000D01*
X134301487Y-124711111D01*
X134386401Y-124991034D01*
X134524294Y-125249014D01*
X134709866Y-125475134D01*
X134935986Y-125660706D01*
X135193966Y-125798599D01*
X135473889Y-125883513D01*
X135692050Y-125905000D01*
X136087950Y-125905000D01*
X136306111Y-125883513D01*
X136586034Y-125798599D01*
X136844014Y-125660706D01*
X137070134Y-125475134D01*
X137255706Y-125249014D01*
X137393599Y-124991034D01*
X137478513Y-124711111D01*
X137507185Y-124420000D01*
X149512815Y-124420000D01*
X149541487Y-124711111D01*
X149626401Y-124991034D01*
X149764294Y-125249014D01*
X149949866Y-125475134D01*
X150175986Y-125660706D01*
X150433966Y-125798599D01*
X150713889Y-125883513D01*
X150932050Y-125905000D01*
X151327950Y-125905000D01*
X151546111Y-125883513D01*
X151826034Y-125798599D01*
X152084014Y-125660706D01*
X152310134Y-125475134D01*
X152495706Y-125249014D01*
X152633599Y-124991034D01*
X152718513Y-124711111D01*
X152747185Y-124420000D01*
X152718513Y-124128889D01*
X152633599Y-123848966D01*
X152495706Y-123590986D01*
X152310134Y-123364866D01*
X152246663Y-123312777D01*
X152348386Y-123258405D01*
X152482962Y-123147962D01*
X152593405Y-123013386D01*
X152675472Y-122859850D01*
X152726008Y-122693254D01*
X152743072Y-122520000D01*
X152743072Y-121320000D01*
X152726008Y-121146746D01*
X152675472Y-120980150D01*
X152593405Y-120826614D01*
X152482962Y-120692038D01*
X152348386Y-120581595D01*
X152194850Y-120499528D01*
X152028254Y-120448992D01*
X151855000Y-120431928D01*
X150405000Y-120431928D01*
X150231746Y-120448992D01*
X150065150Y-120499528D01*
X149911614Y-120581595D01*
X149777038Y-120692038D01*
X149666595Y-120826614D01*
X149584528Y-120980150D01*
X149533992Y-121146746D01*
X149516928Y-121320000D01*
X149516928Y-122520000D01*
X149533992Y-122693254D01*
X149584528Y-122859850D01*
X149666595Y-123013386D01*
X149777038Y-123147962D01*
X149911614Y-123258405D01*
X150013337Y-123312777D01*
X149949866Y-123364866D01*
X149764294Y-123590986D01*
X149626401Y-123848966D01*
X149541487Y-124128889D01*
X149512815Y-124420000D01*
X137507185Y-124420000D01*
X137478513Y-124128889D01*
X137393599Y-123848966D01*
X137255706Y-123590986D01*
X137082463Y-123379888D01*
X137229345Y-123259345D01*
X137464903Y-122972317D01*
X137639939Y-122644848D01*
X137747725Y-122289524D01*
X137784120Y-121920000D01*
X137775000Y-121827403D01*
X137775000Y-114203087D01*
X149703260Y-102274827D01*
X149764294Y-102389014D01*
X149949866Y-102615134D01*
X150175986Y-102800706D01*
X150433966Y-102938599D01*
X150713889Y-103023513D01*
X150932050Y-103045000D01*
X151327950Y-103045000D01*
X151546111Y-103023513D01*
X151826034Y-102938599D01*
X152084014Y-102800706D01*
X152310134Y-102615134D01*
X152495706Y-102389014D01*
X152633599Y-102131034D01*
X152718513Y-101851111D01*
X152747185Y-101560000D01*
X152718513Y-101268889D01*
X152633599Y-100988966D01*
X152495706Y-100730986D01*
X152322463Y-100519888D01*
X152469345Y-100399345D01*
X152704903Y-100112317D01*
X152879939Y-99784848D01*
X152987725Y-99429524D01*
X153024120Y-99060000D01*
X152987725Y-98690476D01*
X152879939Y-98335152D01*
X152704903Y-98007683D01*
X152469345Y-97720655D01*
X152182317Y-97485097D01*
X151854848Y-97310061D01*
X151499524Y-97202275D01*
X151222597Y-97175000D01*
X150344881Y-97175000D01*
X150252294Y-97165881D01*
X150159707Y-97175000D01*
X105317403Y-97175000D01*
X105040476Y-97202275D01*
X104685152Y-97310061D01*
X104357683Y-97485097D01*
X104070655Y-97720655D01*
X103835097Y-98007683D01*
X103660061Y-98335152D01*
X103552275Y-98690476D01*
X103515880Y-99060000D01*
X103552275Y-99429524D01*
X103660061Y-99784848D01*
X103835097Y-100112317D01*
X104070655Y-100399345D01*
X104217537Y-100519888D01*
X104044294Y-100730986D01*
X103906401Y-100988966D01*
X103821487Y-101268889D01*
X103792815Y-101560000D01*
X103821487Y-101851111D01*
X103906401Y-102131034D01*
X104044294Y-102389014D01*
X104229866Y-102615134D01*
X104455986Y-102800706D01*
X104713966Y-102938599D01*
X104993889Y-103023513D01*
X105212050Y-103045000D01*
X105607950Y-103045000D01*
X105826111Y-103023513D01*
X106106034Y-102938599D01*
X106364014Y-102800706D01*
X106590134Y-102615134D01*
X106775706Y-102389014D01*
X106913599Y-102131034D01*
X106998513Y-101851111D01*
X107027185Y-101560000D01*
X106998513Y-101268889D01*
X106913599Y-100988966D01*
X106890099Y-100945000D01*
X119148521Y-100945000D01*
X119146401Y-100948966D01*
X119061487Y-101228889D01*
X119032815Y-101520000D01*
X119061487Y-101811111D01*
X119146401Y-102091034D01*
X119284294Y-102349014D01*
X119469866Y-102575134D01*
X119695986Y-102760706D01*
X119953966Y-102898599D01*
X120233889Y-102983513D01*
X120452050Y-103005000D01*
X120847950Y-103005000D01*
X121066111Y-102983513D01*
X121346034Y-102898599D01*
X121604014Y-102760706D01*
X121830134Y-102575134D01*
X122015706Y-102349014D01*
X122153599Y-102091034D01*
X122238513Y-101811111D01*
X122267185Y-101520000D01*
X122238513Y-101228889D01*
X122153599Y-100948966D01*
X122151479Y-100945000D01*
X134409901Y-100945000D01*
X134386401Y-100988966D01*
X134301487Y-101268889D01*
X134272815Y-101560000D01*
X134301487Y-101851111D01*
X134386401Y-102131034D01*
X134524294Y-102389014D01*
X134709866Y-102615134D01*
X134935986Y-102800706D01*
X135193966Y-102938599D01*
X135473889Y-103023513D01*
X135692050Y-103045000D01*
X136087950Y-103045000D01*
X136306111Y-103023513D01*
X136586034Y-102938599D01*
X136844014Y-102800706D01*
X137070134Y-102615134D01*
X137255706Y-102389014D01*
X137393599Y-102131034D01*
X137478513Y-101851111D01*
X137507185Y-101560000D01*
X137478513Y-101268889D01*
X137393599Y-100988966D01*
X137370099Y-100945000D01*
X145701503Y-100945000D01*
X134622578Y-112023925D01*
X134550656Y-112082950D01*
X134491631Y-112154872D01*
X134491628Y-112154875D01*
X134315098Y-112369978D01*
X134140062Y-112697447D01*
X134032275Y-113052771D01*
X133995881Y-113422295D01*
X134005001Y-113514894D01*
X134005000Y-120035000D01*
X106190792Y-120035000D01*
X105618374Y-119462582D01*
X105559345Y-119390655D01*
X105272317Y-119155097D01*
X104944848Y-118980061D01*
X104589524Y-118872275D01*
X104312597Y-118845000D01*
X104312589Y-118845000D01*
X104220000Y-118835881D01*
X104127411Y-118845000D01*
X92911784Y-118845000D01*
X92569721Y-118616440D01*
X92135679Y-118436654D01*
X91674902Y-118345000D01*
X91205098Y-118345000D01*
X90744321Y-118436654D01*
X90310279Y-118616440D01*
X89919651Y-118877450D01*
X89587450Y-119209651D01*
X89326440Y-119600279D01*
X89146654Y-120034321D01*
X89055000Y-120495098D01*
X76885000Y-120495098D01*
X76885000Y-117598514D01*
X85105000Y-117598514D01*
X85105000Y-117861486D01*
X85156304Y-118119405D01*
X85256939Y-118362359D01*
X85403038Y-118581013D01*
X85588987Y-118766962D01*
X85807641Y-118913061D01*
X86050595Y-119013696D01*
X86308514Y-119065000D01*
X86571486Y-119065000D01*
X86829405Y-119013696D01*
X87072359Y-118913061D01*
X87291013Y-118766962D01*
X87476962Y-118581013D01*
X87623061Y-118362359D01*
X87723696Y-118119405D01*
X87775000Y-117861486D01*
X87775000Y-117598514D01*
X87723696Y-117340595D01*
X87623061Y-117097641D01*
X87476962Y-116878987D01*
X87291013Y-116693038D01*
X87072359Y-116546939D01*
X86829405Y-116446304D01*
X86571486Y-116395000D01*
X86308514Y-116395000D01*
X86050595Y-116446304D01*
X85807641Y-116546939D01*
X85588987Y-116693038D01*
X85403038Y-116878987D01*
X85256939Y-117097641D01*
X85156304Y-117340595D01*
X85105000Y-117598514D01*
X76885000Y-117598514D01*
X76885000Y-101560000D01*
X84742815Y-101560000D01*
X84771487Y-101851111D01*
X84856401Y-102131034D01*
X84994294Y-102389014D01*
X85179866Y-102615134D01*
X85405986Y-102800706D01*
X85423374Y-102810000D01*
X85405986Y-102819294D01*
X85179866Y-103004866D01*
X84994294Y-103230986D01*
X84856401Y-103488966D01*
X84771487Y-103768889D01*
X84742815Y-104060000D01*
X84771487Y-104351111D01*
X84856401Y-104631034D01*
X84994294Y-104889014D01*
X85179866Y-105115134D01*
X85405986Y-105300706D01*
X85663966Y-105438599D01*
X85943889Y-105523513D01*
X86162050Y-105545000D01*
X86557950Y-105545000D01*
X86776111Y-105523513D01*
X87056034Y-105438599D01*
X87314014Y-105300706D01*
X87540134Y-105115134D01*
X87725706Y-104889014D01*
X87863599Y-104631034D01*
X87948513Y-104351111D01*
X87977185Y-104060000D01*
X87948513Y-103768889D01*
X87863599Y-103488966D01*
X87725706Y-103230986D01*
X87540134Y-103004866D01*
X87314014Y-102819294D01*
X87296626Y-102810000D01*
X87314014Y-102800706D01*
X87540134Y-102615134D01*
X87725706Y-102389014D01*
X87863599Y-102131034D01*
X87948513Y-101851111D01*
X87977185Y-101560000D01*
X87948513Y-101268889D01*
X87863599Y-100988966D01*
X87725706Y-100730986D01*
X87540134Y-100504866D01*
X87314014Y-100319294D01*
X87056034Y-100181401D01*
X86776111Y-100096487D01*
X86557950Y-100075000D01*
X86162050Y-100075000D01*
X85943889Y-100096487D01*
X85663966Y-100181401D01*
X85405986Y-100319294D01*
X85179866Y-100504866D01*
X84994294Y-100730986D01*
X84856401Y-100988966D01*
X84771487Y-101268889D01*
X84742815Y-101560000D01*
X76885000Y-101560000D01*
X76885000Y-94665000D01*
X158065000Y-94665000D01*
X158065001Y-131395000D01*
%TA.AperFunction,Conductor*%
D16*
G36*
X158065001Y-131395000D02*
G01*
X76885000Y-131395000D01*
X76885000Y-128598514D01*
X85105000Y-128598514D01*
X85105000Y-128861486D01*
X85156304Y-129119405D01*
X85256939Y-129362359D01*
X85403038Y-129581013D01*
X85588987Y-129766962D01*
X85807641Y-129913061D01*
X86050595Y-130013696D01*
X86308514Y-130065000D01*
X86571486Y-130065000D01*
X86829405Y-130013696D01*
X87072359Y-129913061D01*
X87291013Y-129766962D01*
X87476962Y-129581013D01*
X87623061Y-129362359D01*
X87723696Y-129119405D01*
X87775000Y-128861486D01*
X87775000Y-128598514D01*
X87723696Y-128340595D01*
X87623061Y-128097641D01*
X87476962Y-127878987D01*
X87291013Y-127693038D01*
X87072359Y-127546939D01*
X86829405Y-127446304D01*
X86571486Y-127395000D01*
X86308514Y-127395000D01*
X86050595Y-127446304D01*
X85807641Y-127546939D01*
X85588987Y-127693038D01*
X85403038Y-127878987D01*
X85256939Y-128097641D01*
X85156304Y-128340595D01*
X85105000Y-128598514D01*
X76885000Y-128598514D01*
X76885000Y-120495098D01*
X89055000Y-120495098D01*
X89055000Y-120964902D01*
X89146654Y-121425679D01*
X89326440Y-121859721D01*
X89587450Y-122250349D01*
X89919651Y-122582550D01*
X90310279Y-122843560D01*
X90744321Y-123023346D01*
X91205098Y-123115000D01*
X91674902Y-123115000D01*
X92135679Y-123023346D01*
X92569721Y-122843560D01*
X92911784Y-122615000D01*
X103439208Y-122615000D01*
X104011626Y-123187418D01*
X104070655Y-123259345D01*
X104217537Y-123379888D01*
X104044294Y-123590986D01*
X103906401Y-123848966D01*
X103821487Y-124128889D01*
X103792815Y-124420000D01*
X103821487Y-124711111D01*
X103906401Y-124991034D01*
X104044294Y-125249014D01*
X104229866Y-125475134D01*
X104455986Y-125660706D01*
X104713966Y-125798599D01*
X104993889Y-125883513D01*
X105212050Y-125905000D01*
X105607950Y-125905000D01*
X105826111Y-125883513D01*
X106106034Y-125798599D01*
X106364014Y-125660706D01*
X106590134Y-125475134D01*
X106775706Y-125249014D01*
X106913599Y-124991034D01*
X106998513Y-124711111D01*
X107027185Y-124420000D01*
X106998513Y-124128889D01*
X106913599Y-123848966D01*
X106890099Y-123805000D01*
X119169901Y-123805000D01*
X119146401Y-123848966D01*
X119061487Y-124128889D01*
X119032815Y-124420000D01*
X119061487Y-124711111D01*
X119146401Y-124991034D01*
X119284294Y-125249014D01*
X119469866Y-125475134D01*
X119695986Y-125660706D01*
X119953966Y-125798599D01*
X120233889Y-125883513D01*
X120452050Y-125905000D01*
X120847950Y-125905000D01*
X121066111Y-125883513D01*
X121346034Y-125798599D01*
X121604014Y-125660706D01*
X121830134Y-125475134D01*
X122015706Y-125249014D01*
X122153599Y-124991034D01*
X122238513Y-124711111D01*
X122267185Y-124420000D01*
X122238513Y-124128889D01*
X122153599Y-123848966D01*
X122130099Y-123805000D01*
X134409901Y-123805000D01*
X134386401Y-123848966D01*
X134301487Y-124128889D01*
X134272815Y-124420000D01*
X134301487Y-124711111D01*
X134386401Y-124991034D01*
X134524294Y-125249014D01*
X134709866Y-125475134D01*
X134935986Y-125660706D01*
X135193966Y-125798599D01*
X135473889Y-125883513D01*
X135692050Y-125905000D01*
X136087950Y-125905000D01*
X136306111Y-125883513D01*
X136586034Y-125798599D01*
X136844014Y-125660706D01*
X137070134Y-125475134D01*
X137255706Y-125249014D01*
X137393599Y-124991034D01*
X137478513Y-124711111D01*
X137507185Y-124420000D01*
X149512815Y-124420000D01*
X149541487Y-124711111D01*
X149626401Y-124991034D01*
X149764294Y-125249014D01*
X149949866Y-125475134D01*
X150175986Y-125660706D01*
X150433966Y-125798599D01*
X150713889Y-125883513D01*
X150932050Y-125905000D01*
X151327950Y-125905000D01*
X151546111Y-125883513D01*
X151826034Y-125798599D01*
X152084014Y-125660706D01*
X152310134Y-125475134D01*
X152495706Y-125249014D01*
X152633599Y-124991034D01*
X152718513Y-124711111D01*
X152747185Y-124420000D01*
X152718513Y-124128889D01*
X152633599Y-123848966D01*
X152495706Y-123590986D01*
X152310134Y-123364866D01*
X152246663Y-123312777D01*
X152348386Y-123258405D01*
X152482962Y-123147962D01*
X152593405Y-123013386D01*
X152675472Y-122859850D01*
X152726008Y-122693254D01*
X152743072Y-122520000D01*
X152743072Y-121320000D01*
X152726008Y-121146746D01*
X152675472Y-120980150D01*
X152593405Y-120826614D01*
X152482962Y-120692038D01*
X152348386Y-120581595D01*
X152194850Y-120499528D01*
X152028254Y-120448992D01*
X151855000Y-120431928D01*
X150405000Y-120431928D01*
X150231746Y-120448992D01*
X150065150Y-120499528D01*
X149911614Y-120581595D01*
X149777038Y-120692038D01*
X149666595Y-120826614D01*
X149584528Y-120980150D01*
X149533992Y-121146746D01*
X149516928Y-121320000D01*
X149516928Y-122520000D01*
X149533992Y-122693254D01*
X149584528Y-122859850D01*
X149666595Y-123013386D01*
X149777038Y-123147962D01*
X149911614Y-123258405D01*
X150013337Y-123312777D01*
X149949866Y-123364866D01*
X149764294Y-123590986D01*
X149626401Y-123848966D01*
X149541487Y-124128889D01*
X149512815Y-124420000D01*
X137507185Y-124420000D01*
X137478513Y-124128889D01*
X137393599Y-123848966D01*
X137255706Y-123590986D01*
X137082463Y-123379888D01*
X137229345Y-123259345D01*
X137464903Y-122972317D01*
X137639939Y-122644848D01*
X137747725Y-122289524D01*
X137784120Y-121920000D01*
X137775000Y-121827403D01*
X137775000Y-114203087D01*
X149703260Y-102274827D01*
X149764294Y-102389014D01*
X149949866Y-102615134D01*
X150175986Y-102800706D01*
X150433966Y-102938599D01*
X150713889Y-103023513D01*
X150932050Y-103045000D01*
X151327950Y-103045000D01*
X151546111Y-103023513D01*
X151826034Y-102938599D01*
X152084014Y-102800706D01*
X152310134Y-102615134D01*
X152495706Y-102389014D01*
X152633599Y-102131034D01*
X152718513Y-101851111D01*
X152747185Y-101560000D01*
X152718513Y-101268889D01*
X152633599Y-100988966D01*
X152495706Y-100730986D01*
X152322463Y-100519888D01*
X152469345Y-100399345D01*
X152704903Y-100112317D01*
X152879939Y-99784848D01*
X152987725Y-99429524D01*
X153024120Y-99060000D01*
X152987725Y-98690476D01*
X152879939Y-98335152D01*
X152704903Y-98007683D01*
X152469345Y-97720655D01*
X152182317Y-97485097D01*
X151854848Y-97310061D01*
X151499524Y-97202275D01*
X151222597Y-97175000D01*
X150344881Y-97175000D01*
X150252294Y-97165881D01*
X150159707Y-97175000D01*
X105317403Y-97175000D01*
X105040476Y-97202275D01*
X104685152Y-97310061D01*
X104357683Y-97485097D01*
X104070655Y-97720655D01*
X103835097Y-98007683D01*
X103660061Y-98335152D01*
X103552275Y-98690476D01*
X103515880Y-99060000D01*
X103552275Y-99429524D01*
X103660061Y-99784848D01*
X103835097Y-100112317D01*
X104070655Y-100399345D01*
X104217537Y-100519888D01*
X104044294Y-100730986D01*
X103906401Y-100988966D01*
X103821487Y-101268889D01*
X103792815Y-101560000D01*
X103821487Y-101851111D01*
X103906401Y-102131034D01*
X104044294Y-102389014D01*
X104229866Y-102615134D01*
X104455986Y-102800706D01*
X104713966Y-102938599D01*
X104993889Y-103023513D01*
X105212050Y-103045000D01*
X105607950Y-103045000D01*
X105826111Y-103023513D01*
X106106034Y-102938599D01*
X106364014Y-102800706D01*
X106590134Y-102615134D01*
X106775706Y-102389014D01*
X106913599Y-102131034D01*
X106998513Y-101851111D01*
X107027185Y-101560000D01*
X106998513Y-101268889D01*
X106913599Y-100988966D01*
X106890099Y-100945000D01*
X119148521Y-100945000D01*
X119146401Y-100948966D01*
X119061487Y-101228889D01*
X119032815Y-101520000D01*
X119061487Y-101811111D01*
X119146401Y-102091034D01*
X119284294Y-102349014D01*
X119469866Y-102575134D01*
X119695986Y-102760706D01*
X119953966Y-102898599D01*
X120233889Y-102983513D01*
X120452050Y-103005000D01*
X120847950Y-103005000D01*
X121066111Y-102983513D01*
X121346034Y-102898599D01*
X121604014Y-102760706D01*
X121830134Y-102575134D01*
X122015706Y-102349014D01*
X122153599Y-102091034D01*
X122238513Y-101811111D01*
X122267185Y-101520000D01*
X122238513Y-101228889D01*
X122153599Y-100948966D01*
X122151479Y-100945000D01*
X134409901Y-100945000D01*
X134386401Y-100988966D01*
X134301487Y-101268889D01*
X134272815Y-101560000D01*
X134301487Y-101851111D01*
X134386401Y-102131034D01*
X134524294Y-102389014D01*
X134709866Y-102615134D01*
X134935986Y-102800706D01*
X135193966Y-102938599D01*
X135473889Y-103023513D01*
X135692050Y-103045000D01*
X136087950Y-103045000D01*
X136306111Y-103023513D01*
X136586034Y-102938599D01*
X136844014Y-102800706D01*
X137070134Y-102615134D01*
X137255706Y-102389014D01*
X137393599Y-102131034D01*
X137478513Y-101851111D01*
X137507185Y-101560000D01*
X137478513Y-101268889D01*
X137393599Y-100988966D01*
X137370099Y-100945000D01*
X145701503Y-100945000D01*
X134622578Y-112023925D01*
X134550656Y-112082950D01*
X134491631Y-112154872D01*
X134491628Y-112154875D01*
X134315098Y-112369978D01*
X134140062Y-112697447D01*
X134032275Y-113052771D01*
X133995881Y-113422295D01*
X134005001Y-113514894D01*
X134005000Y-120035000D01*
X106190792Y-120035000D01*
X105618374Y-119462582D01*
X105559345Y-119390655D01*
X105272317Y-119155097D01*
X104944848Y-118980061D01*
X104589524Y-118872275D01*
X104312597Y-118845000D01*
X104312589Y-118845000D01*
X104220000Y-118835881D01*
X104127411Y-118845000D01*
X92911784Y-118845000D01*
X92569721Y-118616440D01*
X92135679Y-118436654D01*
X91674902Y-118345000D01*
X91205098Y-118345000D01*
X90744321Y-118436654D01*
X90310279Y-118616440D01*
X89919651Y-118877450D01*
X89587450Y-119209651D01*
X89326440Y-119600279D01*
X89146654Y-120034321D01*
X89055000Y-120495098D01*
X76885000Y-120495098D01*
X76885000Y-117598514D01*
X85105000Y-117598514D01*
X85105000Y-117861486D01*
X85156304Y-118119405D01*
X85256939Y-118362359D01*
X85403038Y-118581013D01*
X85588987Y-118766962D01*
X85807641Y-118913061D01*
X86050595Y-119013696D01*
X86308514Y-119065000D01*
X86571486Y-119065000D01*
X86829405Y-119013696D01*
X87072359Y-118913061D01*
X87291013Y-118766962D01*
X87476962Y-118581013D01*
X87623061Y-118362359D01*
X87723696Y-118119405D01*
X87775000Y-117861486D01*
X87775000Y-117598514D01*
X87723696Y-117340595D01*
X87623061Y-117097641D01*
X87476962Y-116878987D01*
X87291013Y-116693038D01*
X87072359Y-116546939D01*
X86829405Y-116446304D01*
X86571486Y-116395000D01*
X86308514Y-116395000D01*
X86050595Y-116446304D01*
X85807641Y-116546939D01*
X85588987Y-116693038D01*
X85403038Y-116878987D01*
X85256939Y-117097641D01*
X85156304Y-117340595D01*
X85105000Y-117598514D01*
X76885000Y-117598514D01*
X76885000Y-101560000D01*
X84742815Y-101560000D01*
X84771487Y-101851111D01*
X84856401Y-102131034D01*
X84994294Y-102389014D01*
X85179866Y-102615134D01*
X85405986Y-102800706D01*
X85423374Y-102810000D01*
X85405986Y-102819294D01*
X85179866Y-103004866D01*
X84994294Y-103230986D01*
X84856401Y-103488966D01*
X84771487Y-103768889D01*
X84742815Y-104060000D01*
X84771487Y-104351111D01*
X84856401Y-104631034D01*
X84994294Y-104889014D01*
X85179866Y-105115134D01*
X85405986Y-105300706D01*
X85663966Y-105438599D01*
X85943889Y-105523513D01*
X86162050Y-105545000D01*
X86557950Y-105545000D01*
X86776111Y-105523513D01*
X87056034Y-105438599D01*
X87314014Y-105300706D01*
X87540134Y-105115134D01*
X87725706Y-104889014D01*
X87863599Y-104631034D01*
X87948513Y-104351111D01*
X87977185Y-104060000D01*
X87948513Y-103768889D01*
X87863599Y-103488966D01*
X87725706Y-103230986D01*
X87540134Y-103004866D01*
X87314014Y-102819294D01*
X87296626Y-102810000D01*
X87314014Y-102800706D01*
X87540134Y-102615134D01*
X87725706Y-102389014D01*
X87863599Y-102131034D01*
X87948513Y-101851111D01*
X87977185Y-101560000D01*
X87948513Y-101268889D01*
X87863599Y-100988966D01*
X87725706Y-100730986D01*
X87540134Y-100504866D01*
X87314014Y-100319294D01*
X87056034Y-100181401D01*
X86776111Y-100096487D01*
X86557950Y-100075000D01*
X86162050Y-100075000D01*
X85943889Y-100096487D01*
X85663966Y-100181401D01*
X85405986Y-100319294D01*
X85179866Y-100504866D01*
X84994294Y-100730986D01*
X84856401Y-100988966D01*
X84771487Y-101268889D01*
X84742815Y-101560000D01*
X76885000Y-101560000D01*
X76885000Y-94665000D01*
X158065000Y-94665000D01*
X158065001Y-131395000D01*
G37*
%TD.AperFunction*%
%TD*%
M02*
