M48
; DRILL file {KiCad (5.1.9)-1} date 05/15/22 15:14:19
; FORMAT={-:-/ absolute / inch / decimal}
; #@! TF.CreationDate,2022-05-15T15:14:19+01:00
; #@! TF.GenerationSoftware,Kicad,Pcbnew,(5.1.9)-1
FMAT,2
INCH
T1C0.0157
T2C0.0394
T3C0.0591
T4C0.0610
T5C0.0748
T6C0.0866
%
G90
G05
T1
X5.4Y-4.05
X7.0Y-4.05
T2
X5.985Y-6.0219
X6.4181Y-6.0219
T4
X5.175Y-4.35
X5.175Y-4.8
X5.175Y-5.25
X5.425Y-4.35
X5.425Y-4.8
X5.425Y-5.25
X5.625Y-4.35
X5.625Y-4.8
X5.625Y-5.25
X5.875Y-4.35
X5.875Y-4.8
X5.875Y-5.25
X6.525Y-4.35
X6.525Y-4.8
X6.525Y-5.25
X6.775Y-4.35
X6.775Y-4.8
X6.775Y-5.25
X6.975Y-4.35
X6.975Y-4.8
X6.975Y-5.25
X7.225Y-4.35
X7.225Y-4.8
X7.225Y-5.25
T5
X6.1031Y-5.825
X6.3Y-5.825
T6
X5.05Y-4.1
X5.05Y-6.05
X7.35Y-4.1
X7.35Y-6.05
T3
G00X5.9Y-5.9955
M15
G01X5.9Y-6.0545
M16
G05
G00X6.5Y-5.9955
M15
G01X6.5Y-6.0545
M16
G05
T0
M30
