%TF.GenerationSoftware,KiCad,Pcbnew,(5.1.9)-1*%
%TF.CreationDate,2022-05-15T15:17:23+01:00*%
%TF.ProjectId,Halogen discharger,48616c6f-6765-46e2-9064-697363686172,rev?*%
%TF.SameCoordinates,Original*%
%TF.FileFunction,Soldermask,Top*%
%TF.FilePolarity,Negative*%
%FSLAX46Y46*%
G04 Gerber Fmt 4.6, Leading zero omitted, Abs format (unit mm)*
G04 Created by KiCad (PCBNEW (5.1.9)-1) date 2022-05-15 15:17:23*
%MOMM*%
%LPD*%
G01*
G04 APERTURE LIST*
%ADD10O,1.500000X3.000000*%
%ADD11C,3.000000*%
%ADD12C,2.200000*%
%ADD13C,3.500000*%
%ADD14R,3.500000X3.500000*%
%ADD15C,1.400000*%
G04 APERTURE END LIST*
%TO.C,J5*%
G36*
G01*
X179570000Y-103390000D02*
X179570000Y-104890000D01*
G75*
G02*
X179320000Y-105140000I-250000J0D01*
G01*
X178820000Y-105140000D01*
G75*
G02*
X178570000Y-104890000I0J250000D01*
G01*
X178570000Y-103390000D01*
G75*
G02*
X178820000Y-103140000I250000J0D01*
G01*
X179320000Y-103140000D01*
G75*
G02*
X179570000Y-103390000I0J-250000D01*
G01*
G37*
%TD*%
%TO.C,J4*%
G36*
G01*
X182110000Y-103390000D02*
X182110000Y-104890000D01*
G75*
G02*
X181860000Y-105140000I-250000J0D01*
G01*
X181360000Y-105140000D01*
G75*
G02*
X181110000Y-104890000I0J250000D01*
G01*
X181110000Y-103390000D01*
G75*
G02*
X181360000Y-103140000I250000J0D01*
G01*
X181860000Y-103140000D01*
G75*
G02*
X182110000Y-103390000I0J-250000D01*
G01*
G37*
%TD*%
%TO.C,J3*%
G36*
G01*
X135390000Y-104890000D02*
X135390000Y-103390000D01*
G75*
G02*
X135640000Y-103140000I250000J0D01*
G01*
X136140000Y-103140000D01*
G75*
G02*
X136390000Y-103390000I0J-250000D01*
G01*
X136390000Y-104890000D01*
G75*
G02*
X136140000Y-105140000I-250000J0D01*
G01*
X135640000Y-105140000D01*
G75*
G02*
X135390000Y-104890000I0J250000D01*
G01*
G37*
%TD*%
%TO.C,J2*%
G36*
G01*
X132850000Y-104890000D02*
X132850000Y-103390000D01*
G75*
G02*
X133100000Y-103140000I250000J0D01*
G01*
X133600000Y-103140000D01*
G75*
G02*
X133850000Y-103390000I0J-250000D01*
G01*
X133850000Y-104890000D01*
G75*
G02*
X133600000Y-105140000I-250000J0D01*
G01*
X133100000Y-105140000D01*
G75*
G02*
X132850000Y-104890000I0J250000D01*
G01*
G37*
%TD*%
D10*
%TO.C,REF\u002A\u002A*%
X165100000Y-153035000D03*
%TD*%
%TO.C,REF\u002A\u002A*%
X149860000Y-153035000D03*
%TD*%
D11*
%TO.C,LA10*%
X142875000Y-110490000D03*
X149225000Y-110490000D03*
%TD*%
%TO.C,LA9*%
X131445000Y-110490000D03*
X137795000Y-110490000D03*
%TD*%
%TO.C,LA12*%
X177165000Y-110490000D03*
X183515000Y-110490000D03*
%TD*%
%TO.C,LA11*%
X165735000Y-110490000D03*
X172085000Y-110490000D03*
%TD*%
%TO.C,LA8*%
X177165000Y-121920000D03*
X183515000Y-121920000D03*
%TD*%
%TO.C,LA7*%
X165735000Y-121920000D03*
X172085000Y-121920000D03*
%TD*%
%TO.C,LA6*%
X142875000Y-121920000D03*
X149225000Y-121920000D03*
%TD*%
%TO.C,LA5*%
X131445000Y-121920000D03*
X137795000Y-121920000D03*
%TD*%
%TO.C,LA4*%
X177165000Y-133350000D03*
X183515000Y-133350000D03*
%TD*%
%TO.C,LA3*%
X165735000Y-133350000D03*
X172085000Y-133350000D03*
%TD*%
%TO.C,LA2*%
X142875000Y-133350000D03*
X149225000Y-133350000D03*
%TD*%
%TO.C,LA1*%
X131445000Y-133350000D03*
X137795000Y-133350000D03*
%TD*%
D12*
%TO.C,H4*%
X186690000Y-153670000D03*
%TD*%
%TO.C,H3*%
X128270000Y-153670000D03*
%TD*%
%TO.C,H2*%
X186690000Y-104140000D03*
%TD*%
%TO.C,H1*%
X128270000Y-104140000D03*
%TD*%
D13*
%TO.C,J1*%
X155020000Y-147955000D03*
D14*
X160020000Y-147955000D03*
D15*
X152020000Y-152955000D03*
X163020000Y-152955000D03*
%TD*%
M02*
