%TF.GenerationSoftware,KiCad,Pcbnew,(5.1.9)-1*%
%TF.CreationDate,2021-11-05T14:11:20+00:00*%
%TF.ProjectId,Halogen discharger,48616c6f-6765-46e2-9064-697363686172,rev?*%
%TF.SameCoordinates,Original*%
%TF.FileFunction,Legend,Top*%
%TF.FilePolarity,Positive*%
%FSLAX46Y46*%
G04 Gerber Fmt 4.6, Leading zero omitted, Abs format (unit mm)*
G04 Created by KiCad (PCBNEW (5.1.9)-1) date 2021-11-05 14:11:20*
%MOMM*%
%LPD*%
G01*
G04 APERTURE LIST*
%ADD10C,0.200000*%
%ADD11C,0.150000*%
%ADD12C,0.300000*%
G04 APERTURE END LIST*
D10*
X154730000Y-119945000D02*
X154587142Y-119873571D01*
X154372857Y-119873571D01*
X154158571Y-119945000D01*
X154015714Y-120087857D01*
X153944285Y-120230714D01*
X153872857Y-120516428D01*
X153872857Y-120730714D01*
X153944285Y-121016428D01*
X154015714Y-121159285D01*
X154158571Y-121302142D01*
X154372857Y-121373571D01*
X154515714Y-121373571D01*
X154730000Y-121302142D01*
X154801428Y-121230714D01*
X154801428Y-120730714D01*
X154515714Y-120730714D01*
X155730000Y-120659285D02*
X155730000Y-121373571D01*
X155230000Y-119873571D02*
X155730000Y-120659285D01*
X156230000Y-119873571D01*
X157372857Y-119873571D02*
X157087142Y-119873571D01*
X156944285Y-119945000D01*
X156872857Y-120016428D01*
X156730000Y-120230714D01*
X156658571Y-120516428D01*
X156658571Y-121087857D01*
X156730000Y-121230714D01*
X156801428Y-121302142D01*
X156944285Y-121373571D01*
X157230000Y-121373571D01*
X157372857Y-121302142D01*
X157444285Y-121230714D01*
X157515714Y-121087857D01*
X157515714Y-120730714D01*
X157444285Y-120587857D01*
X157372857Y-120516428D01*
X157230000Y-120445000D01*
X156944285Y-120445000D01*
X156801428Y-120516428D01*
X156730000Y-120587857D01*
X156658571Y-120730714D01*
X158158571Y-121230714D02*
X158230000Y-121302142D01*
X158158571Y-121373571D01*
X158087142Y-121302142D01*
X158158571Y-121230714D01*
X158158571Y-121373571D01*
X158730000Y-119873571D02*
X159658571Y-119873571D01*
X159158571Y-120445000D01*
X159372857Y-120445000D01*
X159515714Y-120516428D01*
X159587142Y-120587857D01*
X159658571Y-120730714D01*
X159658571Y-121087857D01*
X159587142Y-121230714D01*
X159515714Y-121302142D01*
X159372857Y-121373571D01*
X158944285Y-121373571D01*
X158801428Y-121302142D01*
X158730000Y-121230714D01*
X161015714Y-119873571D02*
X160301428Y-119873571D01*
X160230000Y-120587857D01*
X160301428Y-120516428D01*
X160444285Y-120445000D01*
X160801428Y-120445000D01*
X160944285Y-120516428D01*
X161015714Y-120587857D01*
X161087142Y-120730714D01*
X161087142Y-121087857D01*
X161015714Y-121230714D01*
X160944285Y-121302142D01*
X160801428Y-121373571D01*
X160444285Y-121373571D01*
X160301428Y-121302142D01*
X160230000Y-121230714D01*
X151658571Y-123823571D02*
X151658571Y-122323571D01*
X152015714Y-122323571D01*
X152230000Y-122395000D01*
X152372857Y-122537857D01*
X152444285Y-122680714D01*
X152515714Y-122966428D01*
X152515714Y-123180714D01*
X152444285Y-123466428D01*
X152372857Y-123609285D01*
X152230000Y-123752142D01*
X152015714Y-123823571D01*
X151658571Y-123823571D01*
X153158571Y-123823571D02*
X153158571Y-122323571D01*
X153801428Y-123752142D02*
X154015714Y-123823571D01*
X154372857Y-123823571D01*
X154515714Y-123752142D01*
X154587142Y-123680714D01*
X154658571Y-123537857D01*
X154658571Y-123395000D01*
X154587142Y-123252142D01*
X154515714Y-123180714D01*
X154372857Y-123109285D01*
X154087142Y-123037857D01*
X153944285Y-122966428D01*
X153872857Y-122895000D01*
X153801428Y-122752142D01*
X153801428Y-122609285D01*
X153872857Y-122466428D01*
X153944285Y-122395000D01*
X154087142Y-122323571D01*
X154444285Y-122323571D01*
X154658571Y-122395000D01*
X156158571Y-123680714D02*
X156087142Y-123752142D01*
X155872857Y-123823571D01*
X155730000Y-123823571D01*
X155515714Y-123752142D01*
X155372857Y-123609285D01*
X155301428Y-123466428D01*
X155230000Y-123180714D01*
X155230000Y-122966428D01*
X155301428Y-122680714D01*
X155372857Y-122537857D01*
X155515714Y-122395000D01*
X155730000Y-122323571D01*
X155872857Y-122323571D01*
X156087142Y-122395000D01*
X156158571Y-122466428D01*
X156801428Y-123823571D02*
X156801428Y-122323571D01*
X156801428Y-123037857D02*
X157658571Y-123037857D01*
X157658571Y-123823571D02*
X157658571Y-122323571D01*
X158301428Y-123395000D02*
X159015714Y-123395000D01*
X158158571Y-123823571D02*
X158658571Y-122323571D01*
X159158571Y-123823571D01*
X160515714Y-123823571D02*
X160015714Y-123109285D01*
X159658571Y-123823571D02*
X159658571Y-122323571D01*
X160230000Y-122323571D01*
X160372857Y-122395000D01*
X160444285Y-122466428D01*
X160515714Y-122609285D01*
X160515714Y-122823571D01*
X160444285Y-122966428D01*
X160372857Y-123037857D01*
X160230000Y-123109285D01*
X159658571Y-123109285D01*
X161944285Y-122395000D02*
X161801428Y-122323571D01*
X161587142Y-122323571D01*
X161372857Y-122395000D01*
X161230000Y-122537857D01*
X161158571Y-122680714D01*
X161087142Y-122966428D01*
X161087142Y-123180714D01*
X161158571Y-123466428D01*
X161230000Y-123609285D01*
X161372857Y-123752142D01*
X161587142Y-123823571D01*
X161730000Y-123823571D01*
X161944285Y-123752142D01*
X162015714Y-123680714D01*
X162015714Y-123180714D01*
X161730000Y-123180714D01*
X162658571Y-123037857D02*
X163158571Y-123037857D01*
X163372857Y-123823571D02*
X162658571Y-123823571D01*
X162658571Y-122323571D01*
X163372857Y-122323571D01*
D11*
X155403809Y-146930714D02*
X155365714Y-146968809D01*
X155251428Y-147006904D01*
X155175238Y-147006904D01*
X155060952Y-146968809D01*
X154984761Y-146892619D01*
X154946666Y-146816428D01*
X154908571Y-146664047D01*
X154908571Y-146549761D01*
X154946666Y-146397380D01*
X154984761Y-146321190D01*
X155060952Y-146245000D01*
X155175238Y-146206904D01*
X155251428Y-146206904D01*
X155365714Y-146245000D01*
X155403809Y-146283095D01*
X155899047Y-146206904D02*
X156051428Y-146206904D01*
X156127619Y-146245000D01*
X156203809Y-146321190D01*
X156241904Y-146473571D01*
X156241904Y-146740238D01*
X156203809Y-146892619D01*
X156127619Y-146968809D01*
X156051428Y-147006904D01*
X155899047Y-147006904D01*
X155822857Y-146968809D01*
X155746666Y-146892619D01*
X155708571Y-146740238D01*
X155708571Y-146473571D01*
X155746666Y-146321190D01*
X155822857Y-146245000D01*
X155899047Y-146206904D01*
X156584761Y-147006904D02*
X156584761Y-146206904D01*
X157041904Y-147006904D01*
X157041904Y-146206904D01*
X157422857Y-147006904D02*
X157422857Y-146206904D01*
X157880000Y-147006904D01*
X157880000Y-146206904D01*
X158260952Y-146587857D02*
X158527619Y-146587857D01*
X158641904Y-147006904D02*
X158260952Y-147006904D01*
X158260952Y-146206904D01*
X158641904Y-146206904D01*
X159441904Y-146930714D02*
X159403809Y-146968809D01*
X159289523Y-147006904D01*
X159213333Y-147006904D01*
X159099047Y-146968809D01*
X159022857Y-146892619D01*
X158984761Y-146816428D01*
X158946666Y-146664047D01*
X158946666Y-146549761D01*
X158984761Y-146397380D01*
X159022857Y-146321190D01*
X159099047Y-146245000D01*
X159213333Y-146206904D01*
X159289523Y-146206904D01*
X159403809Y-146245000D01*
X159441904Y-146283095D01*
X159670476Y-146206904D02*
X160127619Y-146206904D01*
X159899047Y-147006904D02*
X159899047Y-146206904D01*
X154813333Y-147556904D02*
X154965714Y-147556904D01*
X155041904Y-147595000D01*
X155118095Y-147671190D01*
X155156190Y-147823571D01*
X155156190Y-148090238D01*
X155118095Y-148242619D01*
X155041904Y-148318809D01*
X154965714Y-148356904D01*
X154813333Y-148356904D01*
X154737142Y-148318809D01*
X154660952Y-148242619D01*
X154622857Y-148090238D01*
X154622857Y-147823571D01*
X154660952Y-147671190D01*
X154737142Y-147595000D01*
X154813333Y-147556904D01*
X155499047Y-148356904D02*
X155499047Y-147556904D01*
X155956190Y-148356904D01*
X155956190Y-147556904D01*
X156337142Y-147937857D02*
X156603809Y-147937857D01*
X156718095Y-148356904D02*
X156337142Y-148356904D01*
X156337142Y-147556904D01*
X156718095Y-147556904D01*
X157822857Y-147556904D02*
X157975238Y-147556904D01*
X158051428Y-147595000D01*
X158127619Y-147671190D01*
X158165714Y-147823571D01*
X158165714Y-148090238D01*
X158127619Y-148242619D01*
X158051428Y-148318809D01*
X157975238Y-148356904D01*
X157822857Y-148356904D01*
X157746666Y-148318809D01*
X157670476Y-148242619D01*
X157632380Y-148090238D01*
X157632380Y-147823571D01*
X157670476Y-147671190D01*
X157746666Y-147595000D01*
X157822857Y-147556904D01*
X158508571Y-148356904D02*
X158508571Y-147556904D01*
X158965714Y-148356904D01*
X158965714Y-147556904D01*
X159727619Y-148356904D02*
X159346666Y-148356904D01*
X159346666Y-147556904D01*
X160146666Y-147975952D02*
X160146666Y-148356904D01*
X159880000Y-147556904D02*
X160146666Y-147975952D01*
X160413333Y-147556904D01*
D12*
X161667142Y-153304761D02*
X162714761Y-151971428D01*
X161667142Y-151971428D02*
X162714761Y-153304761D01*
X164524285Y-153304761D02*
X163381428Y-153304761D01*
X163952857Y-153304761D02*
X163952857Y-151304761D01*
X163762380Y-151590476D01*
X163571904Y-151780952D01*
X163381428Y-151876190D01*
X165286190Y-151495238D02*
X165381428Y-151400000D01*
X165571904Y-151304761D01*
X166048095Y-151304761D01*
X166238571Y-151400000D01*
X166333809Y-151495238D01*
X166429047Y-151685714D01*
X166429047Y-151876190D01*
X166333809Y-152161904D01*
X165190952Y-153304761D01*
X166429047Y-153304761D01*
X148435714Y-153304761D02*
X149483333Y-151971428D01*
X148435714Y-151971428D02*
X149483333Y-153304761D01*
X151102380Y-151304761D02*
X150721428Y-151304761D01*
X150530952Y-151400000D01*
X150435714Y-151495238D01*
X150245238Y-151780952D01*
X150150000Y-152161904D01*
X150150000Y-152923809D01*
X150245238Y-153114285D01*
X150340476Y-153209523D01*
X150530952Y-153304761D01*
X150911904Y-153304761D01*
X151102380Y-153209523D01*
X151197619Y-153114285D01*
X151292857Y-152923809D01*
X151292857Y-152447619D01*
X151197619Y-152257142D01*
X151102380Y-152161904D01*
X150911904Y-152066666D01*
X150530952Y-152066666D01*
X150340476Y-152161904D01*
X150245238Y-152257142D01*
X150150000Y-152447619D01*
M02*
