M48
; DRILL file {KiCad (5.1.9)-1} date 11/05/21 14:11:22
; FORMAT={-:-/ absolute / inch / decimal}
; #@! TF.CreationDate,2021-11-05T14:11:22+00:00
; #@! TF.GenerationSoftware,Kicad,Pcbnew,(5.1.9)-1
FMAT,2
INCH
T1C0.0394
T2C0.0610
T3C0.0748
T4C0.0866
%
G90
G05
T1
X5.31Y-6.0219
X5.7431Y-6.0219
X6.66Y-6.0219
X7.0931Y-6.0219
T2
X5.175Y-4.35
X5.175Y-4.8
X5.175Y-5.25
X5.425Y-4.35
X5.425Y-4.8
X5.425Y-5.25
X5.625Y-4.35
X5.625Y-4.8
X5.625Y-5.25
X5.875Y-4.35
X5.875Y-4.8
X5.875Y-5.25
X6.525Y-4.35
X6.525Y-4.8
X6.525Y-5.25
X6.775Y-4.35
X6.775Y-4.8
X6.775Y-5.25
X6.975Y-4.35
X6.975Y-4.8
X6.975Y-5.25
X7.225Y-4.35
X7.225Y-4.8
X7.225Y-5.25
T3
X5.4281Y-5.825
X5.625Y-5.825
X6.7781Y-5.825
X6.975Y-5.825
T4
X5.05Y-4.1
X5.05Y-6.05
X7.35Y-4.1
X7.35Y-6.05
T0
M30
