%TF.GenerationSoftware,KiCad,Pcbnew,(5.1.9)-1*%
%TF.CreationDate,2022-05-15T15:17:23+01:00*%
%TF.ProjectId,Halogen discharger,48616c6f-6765-46e2-9064-697363686172,rev?*%
%TF.SameCoordinates,Original*%
%TF.FileFunction,Copper,L2,Bot*%
%TF.FilePolarity,Positive*%
%FSLAX46Y46*%
G04 Gerber Fmt 4.6, Leading zero omitted, Abs format (unit mm)*
G04 Created by KiCad (PCBNEW (5.1.9)-1) date 2022-05-15 15:17:23*
%MOMM*%
%LPD*%
G01*
G04 APERTURE LIST*
%TA.AperFunction,ComponentPad*%
%ADD10O,1.500000X3.000000*%
%TD*%
%TA.AperFunction,ComponentPad*%
%ADD11C,3.000000*%
%TD*%
%TA.AperFunction,ComponentPad*%
%ADD12C,3.500000*%
%TD*%
%TA.AperFunction,ComponentPad*%
%ADD13R,3.500000X3.500000*%
%TD*%
%TA.AperFunction,ComponentPad*%
%ADD14C,1.400000*%
%TD*%
%TA.AperFunction,ViaPad*%
%ADD15C,0.800000*%
%TD*%
%TA.AperFunction,Conductor*%
%ADD16C,5.000000*%
%TD*%
%TA.AperFunction,Conductor*%
%ADD17C,0.254000*%
%TD*%
%TA.AperFunction,Conductor*%
%ADD18C,0.100000*%
%TD*%
G04 APERTURE END LIST*
D10*
%TO.P,REF\u002A\u002A,1*%
%TO.N,N/C*%
X165100000Y-153035000D03*
%TD*%
%TO.P,REF\u002A\u002A,1*%
%TO.N,N/C*%
X149860000Y-153035000D03*
%TD*%
D11*
%TO.P,LA10,2*%
%TO.N,Net-(LA1-Pad1)*%
X142875000Y-110490000D03*
%TO.P,LA10,1*%
%TO.N,Net-(LA10-Pad1)*%
X149225000Y-110490000D03*
%TD*%
%TO.P,LA9,2*%
%TO.N,VCC*%
X131445000Y-110490000D03*
%TO.P,LA9,1*%
%TO.N,Net-(LA1-Pad1)*%
X137795000Y-110490000D03*
%TD*%
%TO.P,LA12,2*%
%TO.N,Net-(LA11-Pad1)*%
X177165000Y-110490000D03*
%TO.P,LA12,1*%
%TO.N,GND*%
X183515000Y-110490000D03*
%TD*%
%TO.P,LA11,2*%
%TO.N,Net-(LA10-Pad1)*%
X165735000Y-110490000D03*
%TO.P,LA11,1*%
%TO.N,Net-(LA11-Pad1)*%
X172085000Y-110490000D03*
%TD*%
%TO.P,LA8,2*%
%TO.N,Net-(LA11-Pad1)*%
X177165000Y-121920000D03*
%TO.P,LA8,1*%
%TO.N,GND*%
X183515000Y-121920000D03*
%TD*%
%TO.P,LA7,2*%
%TO.N,Net-(LA10-Pad1)*%
X165735000Y-121920000D03*
%TO.P,LA7,1*%
%TO.N,Net-(LA11-Pad1)*%
X172085000Y-121920000D03*
%TD*%
%TO.P,LA6,2*%
%TO.N,Net-(LA1-Pad1)*%
X142875000Y-121920000D03*
%TO.P,LA6,1*%
%TO.N,Net-(LA10-Pad1)*%
X149225000Y-121920000D03*
%TD*%
%TO.P,LA5,2*%
%TO.N,VCC*%
X131445000Y-121920000D03*
%TO.P,LA5,1*%
%TO.N,Net-(LA1-Pad1)*%
X137795000Y-121920000D03*
%TD*%
%TO.P,LA4,2*%
%TO.N,Net-(LA11-Pad1)*%
X177165000Y-133350000D03*
%TO.P,LA4,1*%
%TO.N,GND*%
X183515000Y-133350000D03*
%TD*%
%TO.P,LA3,2*%
%TO.N,Net-(LA10-Pad1)*%
X165735000Y-133350000D03*
%TO.P,LA3,1*%
%TO.N,Net-(LA11-Pad1)*%
X172085000Y-133350000D03*
%TD*%
%TO.P,LA2,2*%
%TO.N,Net-(LA1-Pad1)*%
X142875000Y-133350000D03*
%TO.P,LA2,1*%
%TO.N,Net-(LA10-Pad1)*%
X149225000Y-133350000D03*
%TD*%
%TO.P,LA1,2*%
%TO.N,VCC*%
X131445000Y-133350000D03*
%TO.P,LA1,1*%
%TO.N,Net-(LA1-Pad1)*%
X137795000Y-133350000D03*
%TD*%
D12*
%TO.P,J1,2*%
%TO.N,VCC*%
X155020000Y-147955000D03*
D13*
%TO.P,J1,1*%
%TO.N,GND*%
X160020000Y-147955000D03*
D14*
%TO.P,J1,*%
%TO.N,*%
X152020000Y-152955000D03*
X163020000Y-152955000D03*
%TD*%
D15*
%TO.N,GND*%
X177800000Y-102870000D03*
X137160000Y-102870000D03*
%TD*%
D16*
%TO.N,Net-(LA1-Pad1)*%
X137795000Y-133350000D02*
X142875000Y-133350000D01*
%TO.N,Net-(LA11-Pad1)*%
X172085000Y-133350000D02*
X177165000Y-133350000D01*
%TO.N,Net-(LA1-Pad1)*%
X137795000Y-121920000D02*
X142875000Y-121920000D01*
%TO.N,Net-(LA11-Pad1)*%
X172085000Y-121920000D02*
X177165000Y-121920000D01*
%TO.N,Net-(LA1-Pad1)*%
X137795000Y-110490000D02*
X142875000Y-110490000D01*
X137795000Y-110490000D02*
X137795000Y-133350000D01*
X142875000Y-133350000D02*
X142875000Y-110490000D01*
X140335000Y-130810000D02*
X142875000Y-133350000D01*
X140335000Y-110490000D02*
X140335000Y-130810000D01*
%TO.N,Net-(LA11-Pad1)*%
X172085000Y-110490000D02*
X177165000Y-110490000D01*
X172085000Y-110490000D02*
X172085000Y-133350000D01*
X177165000Y-133350000D02*
X177165000Y-110490000D01*
X174625000Y-130810000D02*
X177165000Y-133350000D01*
X174625000Y-110490000D02*
X174625000Y-130810000D01*
%TO.N,Net-(LA10-Pad1)*%
X149225000Y-110490000D02*
X165735000Y-110490000D01*
X149225000Y-133350000D02*
X165735000Y-133350000D01*
X165735000Y-133350000D02*
X165735000Y-110490000D01*
X165735000Y-121920000D02*
X151130000Y-121920000D01*
X149225000Y-123825000D02*
X149225000Y-133350000D01*
X149225000Y-110490000D02*
X149225000Y-123825000D01*
%TD*%
D17*
%TO.N,GND*%
X187054545Y-102298909D02*
X187405208Y-102404780D01*
X187728625Y-102576744D01*
X188012484Y-102808254D01*
X188245965Y-103090486D01*
X188420183Y-103412695D01*
X188528502Y-103762614D01*
X188570000Y-104157443D01*
X188570001Y-153637711D01*
X188531091Y-154034545D01*
X188425220Y-154385206D01*
X188253257Y-154708623D01*
X188021748Y-154992482D01*
X187739514Y-155225965D01*
X187417304Y-155400184D01*
X187067385Y-155508502D01*
X186672557Y-155550000D01*
X128302279Y-155550000D01*
X127905455Y-155511091D01*
X127554794Y-155405220D01*
X127231377Y-155233257D01*
X126947518Y-155001748D01*
X126714035Y-154719514D01*
X126539816Y-154397304D01*
X126431498Y-154047385D01*
X126390000Y-153652557D01*
X126390000Y-153490056D01*
X126443000Y-153490056D01*
X126443000Y-153849944D01*
X126513211Y-154202916D01*
X126650934Y-154535409D01*
X126850876Y-154834645D01*
X127105355Y-155089124D01*
X127404591Y-155289066D01*
X127737084Y-155426789D01*
X128090056Y-155497000D01*
X128449944Y-155497000D01*
X128802916Y-155426789D01*
X129135409Y-155289066D01*
X129434645Y-155089124D01*
X129689124Y-154834645D01*
X129889066Y-154535409D01*
X130026789Y-154202916D01*
X130097000Y-153849944D01*
X130097000Y-153490056D01*
X130026789Y-153137084D01*
X129889066Y-152804591D01*
X129689124Y-152505355D01*
X129434645Y-152250876D01*
X129377129Y-152212445D01*
X148383000Y-152212445D01*
X148383000Y-153857556D01*
X148404371Y-154074543D01*
X148488829Y-154352958D01*
X148625979Y-154609547D01*
X148810551Y-154834450D01*
X149035454Y-155019022D01*
X149292043Y-155156172D01*
X149570458Y-155240629D01*
X149860000Y-155269146D01*
X150149543Y-155240629D01*
X150427958Y-155156172D01*
X150684547Y-155019022D01*
X150909450Y-154834450D01*
X151094022Y-154609547D01*
X151231172Y-154352958D01*
X151283836Y-154179350D01*
X151344062Y-154219591D01*
X151603759Y-154327162D01*
X151879453Y-154382000D01*
X152160547Y-154382000D01*
X152436241Y-154327162D01*
X152695938Y-154219591D01*
X152929660Y-154063424D01*
X153128424Y-153864660D01*
X153284591Y-153630938D01*
X153392162Y-153371241D01*
X153447000Y-153095547D01*
X153447000Y-152814453D01*
X161593000Y-152814453D01*
X161593000Y-153095547D01*
X161647838Y-153371241D01*
X161755409Y-153630938D01*
X161911576Y-153864660D01*
X162110340Y-154063424D01*
X162344062Y-154219591D01*
X162603759Y-154327162D01*
X162879453Y-154382000D01*
X163160547Y-154382000D01*
X163436241Y-154327162D01*
X163689216Y-154222375D01*
X163728829Y-154352958D01*
X163865979Y-154609547D01*
X164050551Y-154834450D01*
X164275454Y-155019022D01*
X164532043Y-155156172D01*
X164810458Y-155240629D01*
X165100000Y-155269146D01*
X165389543Y-155240629D01*
X165667958Y-155156172D01*
X165924547Y-155019022D01*
X166149450Y-154834450D01*
X166334022Y-154609547D01*
X166471172Y-154352958D01*
X166555629Y-154074543D01*
X166577000Y-153857556D01*
X166577000Y-153490056D01*
X184863000Y-153490056D01*
X184863000Y-153849944D01*
X184933211Y-154202916D01*
X185070934Y-154535409D01*
X185270876Y-154834645D01*
X185525355Y-155089124D01*
X185824591Y-155289066D01*
X186157084Y-155426789D01*
X186510056Y-155497000D01*
X186869944Y-155497000D01*
X187222916Y-155426789D01*
X187555409Y-155289066D01*
X187854645Y-155089124D01*
X188109124Y-154834645D01*
X188309066Y-154535409D01*
X188446789Y-154202916D01*
X188517000Y-153849944D01*
X188517000Y-153490056D01*
X188446789Y-153137084D01*
X188309066Y-152804591D01*
X188109124Y-152505355D01*
X187854645Y-152250876D01*
X187555409Y-152050934D01*
X187222916Y-151913211D01*
X186869944Y-151843000D01*
X186510056Y-151843000D01*
X186157084Y-151913211D01*
X185824591Y-152050934D01*
X185525355Y-152250876D01*
X185270876Y-152505355D01*
X185070934Y-152804591D01*
X184933211Y-153137084D01*
X184863000Y-153490056D01*
X166577000Y-153490056D01*
X166577000Y-152212444D01*
X166555629Y-151995457D01*
X166471172Y-151717042D01*
X166334022Y-151460453D01*
X166149450Y-151235550D01*
X165924546Y-151050978D01*
X165667957Y-150913828D01*
X165389542Y-150829371D01*
X165100000Y-150800854D01*
X164810457Y-150829371D01*
X164532042Y-150913828D01*
X164275453Y-151050978D01*
X164050550Y-151235550D01*
X163865978Y-151460454D01*
X163730662Y-151713611D01*
X163695938Y-151690409D01*
X163436241Y-151582838D01*
X163160547Y-151528000D01*
X162879453Y-151528000D01*
X162603759Y-151582838D01*
X162344062Y-151690409D01*
X162110340Y-151846576D01*
X161911576Y-152045340D01*
X161755409Y-152279062D01*
X161647838Y-152538759D01*
X161593000Y-152814453D01*
X153447000Y-152814453D01*
X153392162Y-152538759D01*
X153284591Y-152279062D01*
X153128424Y-152045340D01*
X152929660Y-151846576D01*
X152695938Y-151690409D01*
X152436241Y-151582838D01*
X152160547Y-151528000D01*
X151879453Y-151528000D01*
X151603759Y-151582838D01*
X151344062Y-151690409D01*
X151243480Y-151757615D01*
X151231172Y-151717042D01*
X151094022Y-151460453D01*
X150909450Y-151235550D01*
X150684546Y-151050978D01*
X150427957Y-150913828D01*
X150149542Y-150829371D01*
X149860000Y-150800854D01*
X149570457Y-150829371D01*
X149292042Y-150913828D01*
X149035453Y-151050978D01*
X148810550Y-151235550D01*
X148625978Y-151460454D01*
X148488828Y-151717043D01*
X148404371Y-151995458D01*
X148383000Y-152212445D01*
X129377129Y-152212445D01*
X129135409Y-152050934D01*
X128802916Y-151913211D01*
X128449944Y-151843000D01*
X128090056Y-151843000D01*
X127737084Y-151913211D01*
X127404591Y-152050934D01*
X127105355Y-152250876D01*
X126850876Y-152505355D01*
X126650934Y-152804591D01*
X126513211Y-153137084D01*
X126443000Y-153490056D01*
X126390000Y-153490056D01*
X126390000Y-147711037D01*
X152543000Y-147711037D01*
X152543000Y-148198963D01*
X152638190Y-148677514D01*
X152824911Y-149128299D01*
X153095989Y-149533995D01*
X153441005Y-149879011D01*
X153846701Y-150150089D01*
X154297486Y-150336810D01*
X154776037Y-150432000D01*
X155263963Y-150432000D01*
X155742514Y-150336810D01*
X156193299Y-150150089D01*
X156598995Y-149879011D01*
X156944011Y-149533995D01*
X157215089Y-149128299D01*
X157401810Y-148677514D01*
X157497000Y-148198963D01*
X157497000Y-147711037D01*
X157401810Y-147232486D01*
X157215089Y-146781701D01*
X156944011Y-146376005D01*
X156598995Y-146030989D01*
X156193299Y-145759911D01*
X155742514Y-145573190D01*
X155263963Y-145478000D01*
X154776037Y-145478000D01*
X154297486Y-145573190D01*
X153846701Y-145759911D01*
X153441005Y-146030989D01*
X153095989Y-146376005D01*
X152824911Y-146781701D01*
X152638190Y-147232486D01*
X152543000Y-147711037D01*
X126390000Y-147711037D01*
X126390000Y-133130660D01*
X129218000Y-133130660D01*
X129218000Y-133569340D01*
X129303582Y-133999592D01*
X129471458Y-134404880D01*
X129715176Y-134769630D01*
X130025370Y-135079824D01*
X130390120Y-135323542D01*
X130795408Y-135491418D01*
X131225660Y-135577000D01*
X131664340Y-135577000D01*
X132094592Y-135491418D01*
X132499880Y-135323542D01*
X132864630Y-135079824D01*
X133174824Y-134769630D01*
X133418542Y-134404880D01*
X133586418Y-133999592D01*
X133672000Y-133569340D01*
X133672000Y-133130660D01*
X133586418Y-132700408D01*
X133418542Y-132295120D01*
X133174824Y-131930370D01*
X132864630Y-131620176D01*
X132499880Y-131376458D01*
X132094592Y-131208582D01*
X131664340Y-131123000D01*
X131225660Y-131123000D01*
X130795408Y-131208582D01*
X130390120Y-131376458D01*
X130025370Y-131620176D01*
X129715176Y-131930370D01*
X129471458Y-132295120D01*
X129303582Y-132700408D01*
X129218000Y-133130660D01*
X126390000Y-133130660D01*
X126390000Y-121700660D01*
X129218000Y-121700660D01*
X129218000Y-122139340D01*
X129303582Y-122569592D01*
X129471458Y-122974880D01*
X129715176Y-123339630D01*
X130025370Y-123649824D01*
X130390120Y-123893542D01*
X130795408Y-124061418D01*
X131225660Y-124147000D01*
X131664340Y-124147000D01*
X132094592Y-124061418D01*
X132499880Y-123893542D01*
X132864630Y-123649824D01*
X133174824Y-123339630D01*
X133418542Y-122974880D01*
X133586418Y-122569592D01*
X133672000Y-122139340D01*
X133672000Y-121700660D01*
X133586418Y-121270408D01*
X133418542Y-120865120D01*
X133174824Y-120500370D01*
X132864630Y-120190176D01*
X132499880Y-119946458D01*
X132094592Y-119778582D01*
X131664340Y-119693000D01*
X131225660Y-119693000D01*
X130795408Y-119778582D01*
X130390120Y-119946458D01*
X130025370Y-120190176D01*
X129715176Y-120500370D01*
X129471458Y-120865120D01*
X129303582Y-121270408D01*
X129218000Y-121700660D01*
X126390000Y-121700660D01*
X126390000Y-110270660D01*
X129218000Y-110270660D01*
X129218000Y-110709340D01*
X129303582Y-111139592D01*
X129471458Y-111544880D01*
X129715176Y-111909630D01*
X130025370Y-112219824D01*
X130390120Y-112463542D01*
X130795408Y-112631418D01*
X131225660Y-112717000D01*
X131664340Y-112717000D01*
X132094592Y-112631418D01*
X132499880Y-112463542D01*
X132864630Y-112219824D01*
X133174824Y-111909630D01*
X133418542Y-111544880D01*
X133586418Y-111139592D01*
X133672000Y-110709340D01*
X133672000Y-110490000D01*
X134552386Y-110490000D01*
X134568000Y-110648532D01*
X134568000Y-121761463D01*
X134552386Y-121920000D01*
X134568001Y-122078537D01*
X134568001Y-133191458D01*
X134552386Y-133350000D01*
X134614692Y-133982603D01*
X134799215Y-134590895D01*
X135098865Y-135151500D01*
X135502126Y-135642874D01*
X135993500Y-136046135D01*
X136554105Y-136345785D01*
X137162397Y-136530308D01*
X137636469Y-136577000D01*
X137795000Y-136592614D01*
X137953531Y-136577000D01*
X142716469Y-136577000D01*
X142875000Y-136592614D01*
X143033531Y-136577000D01*
X143507603Y-136530308D01*
X144115895Y-136345785D01*
X144676500Y-136046135D01*
X145167874Y-135642874D01*
X145571135Y-135151500D01*
X145870785Y-134590895D01*
X146050000Y-134000101D01*
X146229215Y-134590895D01*
X146528865Y-135151500D01*
X146932126Y-135642874D01*
X147423500Y-136046135D01*
X147984105Y-136345785D01*
X148592397Y-136530308D01*
X149066469Y-136577000D01*
X149225000Y-136592614D01*
X149383531Y-136577000D01*
X165576469Y-136577000D01*
X165735000Y-136592614D01*
X165893531Y-136577000D01*
X166367603Y-136530308D01*
X166975895Y-136345785D01*
X167536500Y-136046135D01*
X168027874Y-135642874D01*
X168431135Y-135151500D01*
X168730785Y-134590895D01*
X168910000Y-134000101D01*
X169089215Y-134590895D01*
X169388865Y-135151500D01*
X169792126Y-135642874D01*
X170283500Y-136046135D01*
X170844105Y-136345785D01*
X171452397Y-136530308D01*
X171926469Y-136577000D01*
X172085000Y-136592614D01*
X172243531Y-136577000D01*
X177006469Y-136577000D01*
X177165000Y-136592614D01*
X177323531Y-136577000D01*
X177797603Y-136530308D01*
X178405895Y-136345785D01*
X178966500Y-136046135D01*
X179457874Y-135642874D01*
X179861135Y-135151500D01*
X180160785Y-134590895D01*
X180345308Y-133982603D01*
X180407614Y-133350000D01*
X180392000Y-133191469D01*
X180392000Y-122078531D01*
X180407614Y-121920000D01*
X180392000Y-121761469D01*
X180392000Y-110648531D01*
X180407614Y-110490000D01*
X180345308Y-109857397D01*
X180160785Y-109249105D01*
X179861135Y-108688500D01*
X179457874Y-108197126D01*
X178966500Y-107793865D01*
X178405895Y-107494215D01*
X177797603Y-107309692D01*
X177323531Y-107263000D01*
X177165000Y-107247386D01*
X177006469Y-107263000D01*
X174783531Y-107263000D01*
X174625000Y-107247386D01*
X174466469Y-107263000D01*
X172243531Y-107263000D01*
X172085000Y-107247386D01*
X171926469Y-107263000D01*
X171452397Y-107309692D01*
X170844105Y-107494215D01*
X170283500Y-107793865D01*
X169792126Y-108197126D01*
X169388865Y-108688500D01*
X169089215Y-109249105D01*
X168910000Y-109839899D01*
X168730785Y-109249105D01*
X168431135Y-108688500D01*
X168027874Y-108197126D01*
X167536500Y-107793865D01*
X166975895Y-107494215D01*
X166367603Y-107309692D01*
X165893531Y-107263000D01*
X165735000Y-107247386D01*
X165576469Y-107263000D01*
X149383531Y-107263000D01*
X149225000Y-107247386D01*
X149066469Y-107263000D01*
X148592397Y-107309692D01*
X147984105Y-107494215D01*
X147423500Y-107793865D01*
X146932126Y-108197126D01*
X146528865Y-108688500D01*
X146229215Y-109249105D01*
X146050000Y-109839899D01*
X145870785Y-109249105D01*
X145571135Y-108688500D01*
X145167874Y-108197126D01*
X144676500Y-107793865D01*
X144115895Y-107494215D01*
X143507603Y-107309692D01*
X143033531Y-107263000D01*
X142875000Y-107247386D01*
X142716469Y-107263000D01*
X140493531Y-107263000D01*
X140335000Y-107247386D01*
X140176469Y-107263000D01*
X137953531Y-107263000D01*
X137795000Y-107247386D01*
X137636469Y-107263000D01*
X137162397Y-107309692D01*
X136554105Y-107494215D01*
X135993500Y-107793865D01*
X135502126Y-108197126D01*
X135098865Y-108688500D01*
X134799215Y-109249105D01*
X134614692Y-109857397D01*
X134552386Y-110490000D01*
X133672000Y-110490000D01*
X133672000Y-110270660D01*
X133586418Y-109840408D01*
X133418542Y-109435120D01*
X133174824Y-109070370D01*
X132864630Y-108760176D01*
X132499880Y-108516458D01*
X132094592Y-108348582D01*
X131664340Y-108263000D01*
X131225660Y-108263000D01*
X130795408Y-108348582D01*
X130390120Y-108516458D01*
X130025370Y-108760176D01*
X129715176Y-109070370D01*
X129471458Y-109435120D01*
X129303582Y-109840408D01*
X129218000Y-110270660D01*
X126390000Y-110270660D01*
X126390000Y-104172279D01*
X126410808Y-103960056D01*
X126443000Y-103960056D01*
X126443000Y-104319944D01*
X126513211Y-104672916D01*
X126650934Y-105005409D01*
X126850876Y-105304645D01*
X127105355Y-105559124D01*
X127404591Y-105759066D01*
X127737084Y-105896789D01*
X128090056Y-105967000D01*
X128449944Y-105967000D01*
X128802916Y-105896789D01*
X129135409Y-105759066D01*
X129434645Y-105559124D01*
X129689124Y-105304645D01*
X129889066Y-105005409D01*
X130026789Y-104672916D01*
X130097000Y-104319944D01*
X130097000Y-103960056D01*
X184863000Y-103960056D01*
X184863000Y-104319944D01*
X184933211Y-104672916D01*
X185070934Y-105005409D01*
X185270876Y-105304645D01*
X185525355Y-105559124D01*
X185824591Y-105759066D01*
X186157084Y-105896789D01*
X186510056Y-105967000D01*
X186869944Y-105967000D01*
X187222916Y-105896789D01*
X187555409Y-105759066D01*
X187854645Y-105559124D01*
X188109124Y-105304645D01*
X188309066Y-105005409D01*
X188446789Y-104672916D01*
X188517000Y-104319944D01*
X188517000Y-103960056D01*
X188446789Y-103607084D01*
X188309066Y-103274591D01*
X188109124Y-102975355D01*
X187854645Y-102720876D01*
X187555409Y-102520934D01*
X187222916Y-102383211D01*
X186869944Y-102313000D01*
X186510056Y-102313000D01*
X186157084Y-102383211D01*
X185824591Y-102520934D01*
X185525355Y-102720876D01*
X185270876Y-102975355D01*
X185070934Y-103274591D01*
X184933211Y-103607084D01*
X184863000Y-103960056D01*
X130097000Y-103960056D01*
X130026789Y-103607084D01*
X129889066Y-103274591D01*
X129689124Y-102975355D01*
X129434645Y-102720876D01*
X129135409Y-102520934D01*
X128802916Y-102383211D01*
X128449944Y-102313000D01*
X128090056Y-102313000D01*
X127737084Y-102383211D01*
X127404591Y-102520934D01*
X127105355Y-102720876D01*
X126850876Y-102975355D01*
X126650934Y-103274591D01*
X126513211Y-103607084D01*
X126443000Y-103960056D01*
X126410808Y-103960056D01*
X126428909Y-103775455D01*
X126534780Y-103424792D01*
X126706744Y-103101375D01*
X126938254Y-102817516D01*
X127220486Y-102584035D01*
X127542695Y-102409817D01*
X127892614Y-102301498D01*
X128287443Y-102260000D01*
X186657721Y-102260000D01*
X187054545Y-102298909D01*
%TA.AperFunction,Conductor*%
D18*
G36*
X187054545Y-102298909D02*
G01*
X187405208Y-102404780D01*
X187728625Y-102576744D01*
X188012484Y-102808254D01*
X188245965Y-103090486D01*
X188420183Y-103412695D01*
X188528502Y-103762614D01*
X188570000Y-104157443D01*
X188570001Y-153637711D01*
X188531091Y-154034545D01*
X188425220Y-154385206D01*
X188253257Y-154708623D01*
X188021748Y-154992482D01*
X187739514Y-155225965D01*
X187417304Y-155400184D01*
X187067385Y-155508502D01*
X186672557Y-155550000D01*
X128302279Y-155550000D01*
X127905455Y-155511091D01*
X127554794Y-155405220D01*
X127231377Y-155233257D01*
X126947518Y-155001748D01*
X126714035Y-154719514D01*
X126539816Y-154397304D01*
X126431498Y-154047385D01*
X126390000Y-153652557D01*
X126390000Y-153490056D01*
X126443000Y-153490056D01*
X126443000Y-153849944D01*
X126513211Y-154202916D01*
X126650934Y-154535409D01*
X126850876Y-154834645D01*
X127105355Y-155089124D01*
X127404591Y-155289066D01*
X127737084Y-155426789D01*
X128090056Y-155497000D01*
X128449944Y-155497000D01*
X128802916Y-155426789D01*
X129135409Y-155289066D01*
X129434645Y-155089124D01*
X129689124Y-154834645D01*
X129889066Y-154535409D01*
X130026789Y-154202916D01*
X130097000Y-153849944D01*
X130097000Y-153490056D01*
X130026789Y-153137084D01*
X129889066Y-152804591D01*
X129689124Y-152505355D01*
X129434645Y-152250876D01*
X129377129Y-152212445D01*
X148383000Y-152212445D01*
X148383000Y-153857556D01*
X148404371Y-154074543D01*
X148488829Y-154352958D01*
X148625979Y-154609547D01*
X148810551Y-154834450D01*
X149035454Y-155019022D01*
X149292043Y-155156172D01*
X149570458Y-155240629D01*
X149860000Y-155269146D01*
X150149543Y-155240629D01*
X150427958Y-155156172D01*
X150684547Y-155019022D01*
X150909450Y-154834450D01*
X151094022Y-154609547D01*
X151231172Y-154352958D01*
X151283836Y-154179350D01*
X151344062Y-154219591D01*
X151603759Y-154327162D01*
X151879453Y-154382000D01*
X152160547Y-154382000D01*
X152436241Y-154327162D01*
X152695938Y-154219591D01*
X152929660Y-154063424D01*
X153128424Y-153864660D01*
X153284591Y-153630938D01*
X153392162Y-153371241D01*
X153447000Y-153095547D01*
X153447000Y-152814453D01*
X161593000Y-152814453D01*
X161593000Y-153095547D01*
X161647838Y-153371241D01*
X161755409Y-153630938D01*
X161911576Y-153864660D01*
X162110340Y-154063424D01*
X162344062Y-154219591D01*
X162603759Y-154327162D01*
X162879453Y-154382000D01*
X163160547Y-154382000D01*
X163436241Y-154327162D01*
X163689216Y-154222375D01*
X163728829Y-154352958D01*
X163865979Y-154609547D01*
X164050551Y-154834450D01*
X164275454Y-155019022D01*
X164532043Y-155156172D01*
X164810458Y-155240629D01*
X165100000Y-155269146D01*
X165389543Y-155240629D01*
X165667958Y-155156172D01*
X165924547Y-155019022D01*
X166149450Y-154834450D01*
X166334022Y-154609547D01*
X166471172Y-154352958D01*
X166555629Y-154074543D01*
X166577000Y-153857556D01*
X166577000Y-153490056D01*
X184863000Y-153490056D01*
X184863000Y-153849944D01*
X184933211Y-154202916D01*
X185070934Y-154535409D01*
X185270876Y-154834645D01*
X185525355Y-155089124D01*
X185824591Y-155289066D01*
X186157084Y-155426789D01*
X186510056Y-155497000D01*
X186869944Y-155497000D01*
X187222916Y-155426789D01*
X187555409Y-155289066D01*
X187854645Y-155089124D01*
X188109124Y-154834645D01*
X188309066Y-154535409D01*
X188446789Y-154202916D01*
X188517000Y-153849944D01*
X188517000Y-153490056D01*
X188446789Y-153137084D01*
X188309066Y-152804591D01*
X188109124Y-152505355D01*
X187854645Y-152250876D01*
X187555409Y-152050934D01*
X187222916Y-151913211D01*
X186869944Y-151843000D01*
X186510056Y-151843000D01*
X186157084Y-151913211D01*
X185824591Y-152050934D01*
X185525355Y-152250876D01*
X185270876Y-152505355D01*
X185070934Y-152804591D01*
X184933211Y-153137084D01*
X184863000Y-153490056D01*
X166577000Y-153490056D01*
X166577000Y-152212444D01*
X166555629Y-151995457D01*
X166471172Y-151717042D01*
X166334022Y-151460453D01*
X166149450Y-151235550D01*
X165924546Y-151050978D01*
X165667957Y-150913828D01*
X165389542Y-150829371D01*
X165100000Y-150800854D01*
X164810457Y-150829371D01*
X164532042Y-150913828D01*
X164275453Y-151050978D01*
X164050550Y-151235550D01*
X163865978Y-151460454D01*
X163730662Y-151713611D01*
X163695938Y-151690409D01*
X163436241Y-151582838D01*
X163160547Y-151528000D01*
X162879453Y-151528000D01*
X162603759Y-151582838D01*
X162344062Y-151690409D01*
X162110340Y-151846576D01*
X161911576Y-152045340D01*
X161755409Y-152279062D01*
X161647838Y-152538759D01*
X161593000Y-152814453D01*
X153447000Y-152814453D01*
X153392162Y-152538759D01*
X153284591Y-152279062D01*
X153128424Y-152045340D01*
X152929660Y-151846576D01*
X152695938Y-151690409D01*
X152436241Y-151582838D01*
X152160547Y-151528000D01*
X151879453Y-151528000D01*
X151603759Y-151582838D01*
X151344062Y-151690409D01*
X151243480Y-151757615D01*
X151231172Y-151717042D01*
X151094022Y-151460453D01*
X150909450Y-151235550D01*
X150684546Y-151050978D01*
X150427957Y-150913828D01*
X150149542Y-150829371D01*
X149860000Y-150800854D01*
X149570457Y-150829371D01*
X149292042Y-150913828D01*
X149035453Y-151050978D01*
X148810550Y-151235550D01*
X148625978Y-151460454D01*
X148488828Y-151717043D01*
X148404371Y-151995458D01*
X148383000Y-152212445D01*
X129377129Y-152212445D01*
X129135409Y-152050934D01*
X128802916Y-151913211D01*
X128449944Y-151843000D01*
X128090056Y-151843000D01*
X127737084Y-151913211D01*
X127404591Y-152050934D01*
X127105355Y-152250876D01*
X126850876Y-152505355D01*
X126650934Y-152804591D01*
X126513211Y-153137084D01*
X126443000Y-153490056D01*
X126390000Y-153490056D01*
X126390000Y-147711037D01*
X152543000Y-147711037D01*
X152543000Y-148198963D01*
X152638190Y-148677514D01*
X152824911Y-149128299D01*
X153095989Y-149533995D01*
X153441005Y-149879011D01*
X153846701Y-150150089D01*
X154297486Y-150336810D01*
X154776037Y-150432000D01*
X155263963Y-150432000D01*
X155742514Y-150336810D01*
X156193299Y-150150089D01*
X156598995Y-149879011D01*
X156944011Y-149533995D01*
X157215089Y-149128299D01*
X157401810Y-148677514D01*
X157497000Y-148198963D01*
X157497000Y-147711037D01*
X157401810Y-147232486D01*
X157215089Y-146781701D01*
X156944011Y-146376005D01*
X156598995Y-146030989D01*
X156193299Y-145759911D01*
X155742514Y-145573190D01*
X155263963Y-145478000D01*
X154776037Y-145478000D01*
X154297486Y-145573190D01*
X153846701Y-145759911D01*
X153441005Y-146030989D01*
X153095989Y-146376005D01*
X152824911Y-146781701D01*
X152638190Y-147232486D01*
X152543000Y-147711037D01*
X126390000Y-147711037D01*
X126390000Y-133130660D01*
X129218000Y-133130660D01*
X129218000Y-133569340D01*
X129303582Y-133999592D01*
X129471458Y-134404880D01*
X129715176Y-134769630D01*
X130025370Y-135079824D01*
X130390120Y-135323542D01*
X130795408Y-135491418D01*
X131225660Y-135577000D01*
X131664340Y-135577000D01*
X132094592Y-135491418D01*
X132499880Y-135323542D01*
X132864630Y-135079824D01*
X133174824Y-134769630D01*
X133418542Y-134404880D01*
X133586418Y-133999592D01*
X133672000Y-133569340D01*
X133672000Y-133130660D01*
X133586418Y-132700408D01*
X133418542Y-132295120D01*
X133174824Y-131930370D01*
X132864630Y-131620176D01*
X132499880Y-131376458D01*
X132094592Y-131208582D01*
X131664340Y-131123000D01*
X131225660Y-131123000D01*
X130795408Y-131208582D01*
X130390120Y-131376458D01*
X130025370Y-131620176D01*
X129715176Y-131930370D01*
X129471458Y-132295120D01*
X129303582Y-132700408D01*
X129218000Y-133130660D01*
X126390000Y-133130660D01*
X126390000Y-121700660D01*
X129218000Y-121700660D01*
X129218000Y-122139340D01*
X129303582Y-122569592D01*
X129471458Y-122974880D01*
X129715176Y-123339630D01*
X130025370Y-123649824D01*
X130390120Y-123893542D01*
X130795408Y-124061418D01*
X131225660Y-124147000D01*
X131664340Y-124147000D01*
X132094592Y-124061418D01*
X132499880Y-123893542D01*
X132864630Y-123649824D01*
X133174824Y-123339630D01*
X133418542Y-122974880D01*
X133586418Y-122569592D01*
X133672000Y-122139340D01*
X133672000Y-121700660D01*
X133586418Y-121270408D01*
X133418542Y-120865120D01*
X133174824Y-120500370D01*
X132864630Y-120190176D01*
X132499880Y-119946458D01*
X132094592Y-119778582D01*
X131664340Y-119693000D01*
X131225660Y-119693000D01*
X130795408Y-119778582D01*
X130390120Y-119946458D01*
X130025370Y-120190176D01*
X129715176Y-120500370D01*
X129471458Y-120865120D01*
X129303582Y-121270408D01*
X129218000Y-121700660D01*
X126390000Y-121700660D01*
X126390000Y-110270660D01*
X129218000Y-110270660D01*
X129218000Y-110709340D01*
X129303582Y-111139592D01*
X129471458Y-111544880D01*
X129715176Y-111909630D01*
X130025370Y-112219824D01*
X130390120Y-112463542D01*
X130795408Y-112631418D01*
X131225660Y-112717000D01*
X131664340Y-112717000D01*
X132094592Y-112631418D01*
X132499880Y-112463542D01*
X132864630Y-112219824D01*
X133174824Y-111909630D01*
X133418542Y-111544880D01*
X133586418Y-111139592D01*
X133672000Y-110709340D01*
X133672000Y-110490000D01*
X134552386Y-110490000D01*
X134568000Y-110648532D01*
X134568000Y-121761463D01*
X134552386Y-121920000D01*
X134568001Y-122078537D01*
X134568001Y-133191458D01*
X134552386Y-133350000D01*
X134614692Y-133982603D01*
X134799215Y-134590895D01*
X135098865Y-135151500D01*
X135502126Y-135642874D01*
X135993500Y-136046135D01*
X136554105Y-136345785D01*
X137162397Y-136530308D01*
X137636469Y-136577000D01*
X137795000Y-136592614D01*
X137953531Y-136577000D01*
X142716469Y-136577000D01*
X142875000Y-136592614D01*
X143033531Y-136577000D01*
X143507603Y-136530308D01*
X144115895Y-136345785D01*
X144676500Y-136046135D01*
X145167874Y-135642874D01*
X145571135Y-135151500D01*
X145870785Y-134590895D01*
X146050000Y-134000101D01*
X146229215Y-134590895D01*
X146528865Y-135151500D01*
X146932126Y-135642874D01*
X147423500Y-136046135D01*
X147984105Y-136345785D01*
X148592397Y-136530308D01*
X149066469Y-136577000D01*
X149225000Y-136592614D01*
X149383531Y-136577000D01*
X165576469Y-136577000D01*
X165735000Y-136592614D01*
X165893531Y-136577000D01*
X166367603Y-136530308D01*
X166975895Y-136345785D01*
X167536500Y-136046135D01*
X168027874Y-135642874D01*
X168431135Y-135151500D01*
X168730785Y-134590895D01*
X168910000Y-134000101D01*
X169089215Y-134590895D01*
X169388865Y-135151500D01*
X169792126Y-135642874D01*
X170283500Y-136046135D01*
X170844105Y-136345785D01*
X171452397Y-136530308D01*
X171926469Y-136577000D01*
X172085000Y-136592614D01*
X172243531Y-136577000D01*
X177006469Y-136577000D01*
X177165000Y-136592614D01*
X177323531Y-136577000D01*
X177797603Y-136530308D01*
X178405895Y-136345785D01*
X178966500Y-136046135D01*
X179457874Y-135642874D01*
X179861135Y-135151500D01*
X180160785Y-134590895D01*
X180345308Y-133982603D01*
X180407614Y-133350000D01*
X180392000Y-133191469D01*
X180392000Y-122078531D01*
X180407614Y-121920000D01*
X180392000Y-121761469D01*
X180392000Y-110648531D01*
X180407614Y-110490000D01*
X180345308Y-109857397D01*
X180160785Y-109249105D01*
X179861135Y-108688500D01*
X179457874Y-108197126D01*
X178966500Y-107793865D01*
X178405895Y-107494215D01*
X177797603Y-107309692D01*
X177323531Y-107263000D01*
X177165000Y-107247386D01*
X177006469Y-107263000D01*
X174783531Y-107263000D01*
X174625000Y-107247386D01*
X174466469Y-107263000D01*
X172243531Y-107263000D01*
X172085000Y-107247386D01*
X171926469Y-107263000D01*
X171452397Y-107309692D01*
X170844105Y-107494215D01*
X170283500Y-107793865D01*
X169792126Y-108197126D01*
X169388865Y-108688500D01*
X169089215Y-109249105D01*
X168910000Y-109839899D01*
X168730785Y-109249105D01*
X168431135Y-108688500D01*
X168027874Y-108197126D01*
X167536500Y-107793865D01*
X166975895Y-107494215D01*
X166367603Y-107309692D01*
X165893531Y-107263000D01*
X165735000Y-107247386D01*
X165576469Y-107263000D01*
X149383531Y-107263000D01*
X149225000Y-107247386D01*
X149066469Y-107263000D01*
X148592397Y-107309692D01*
X147984105Y-107494215D01*
X147423500Y-107793865D01*
X146932126Y-108197126D01*
X146528865Y-108688500D01*
X146229215Y-109249105D01*
X146050000Y-109839899D01*
X145870785Y-109249105D01*
X145571135Y-108688500D01*
X145167874Y-108197126D01*
X144676500Y-107793865D01*
X144115895Y-107494215D01*
X143507603Y-107309692D01*
X143033531Y-107263000D01*
X142875000Y-107247386D01*
X142716469Y-107263000D01*
X140493531Y-107263000D01*
X140335000Y-107247386D01*
X140176469Y-107263000D01*
X137953531Y-107263000D01*
X137795000Y-107247386D01*
X137636469Y-107263000D01*
X137162397Y-107309692D01*
X136554105Y-107494215D01*
X135993500Y-107793865D01*
X135502126Y-108197126D01*
X135098865Y-108688500D01*
X134799215Y-109249105D01*
X134614692Y-109857397D01*
X134552386Y-110490000D01*
X133672000Y-110490000D01*
X133672000Y-110270660D01*
X133586418Y-109840408D01*
X133418542Y-109435120D01*
X133174824Y-109070370D01*
X132864630Y-108760176D01*
X132499880Y-108516458D01*
X132094592Y-108348582D01*
X131664340Y-108263000D01*
X131225660Y-108263000D01*
X130795408Y-108348582D01*
X130390120Y-108516458D01*
X130025370Y-108760176D01*
X129715176Y-109070370D01*
X129471458Y-109435120D01*
X129303582Y-109840408D01*
X129218000Y-110270660D01*
X126390000Y-110270660D01*
X126390000Y-104172279D01*
X126410808Y-103960056D01*
X126443000Y-103960056D01*
X126443000Y-104319944D01*
X126513211Y-104672916D01*
X126650934Y-105005409D01*
X126850876Y-105304645D01*
X127105355Y-105559124D01*
X127404591Y-105759066D01*
X127737084Y-105896789D01*
X128090056Y-105967000D01*
X128449944Y-105967000D01*
X128802916Y-105896789D01*
X129135409Y-105759066D01*
X129434645Y-105559124D01*
X129689124Y-105304645D01*
X129889066Y-105005409D01*
X130026789Y-104672916D01*
X130097000Y-104319944D01*
X130097000Y-103960056D01*
X184863000Y-103960056D01*
X184863000Y-104319944D01*
X184933211Y-104672916D01*
X185070934Y-105005409D01*
X185270876Y-105304645D01*
X185525355Y-105559124D01*
X185824591Y-105759066D01*
X186157084Y-105896789D01*
X186510056Y-105967000D01*
X186869944Y-105967000D01*
X187222916Y-105896789D01*
X187555409Y-105759066D01*
X187854645Y-105559124D01*
X188109124Y-105304645D01*
X188309066Y-105005409D01*
X188446789Y-104672916D01*
X188517000Y-104319944D01*
X188517000Y-103960056D01*
X188446789Y-103607084D01*
X188309066Y-103274591D01*
X188109124Y-102975355D01*
X187854645Y-102720876D01*
X187555409Y-102520934D01*
X187222916Y-102383211D01*
X186869944Y-102313000D01*
X186510056Y-102313000D01*
X186157084Y-102383211D01*
X185824591Y-102520934D01*
X185525355Y-102720876D01*
X185270876Y-102975355D01*
X185070934Y-103274591D01*
X184933211Y-103607084D01*
X184863000Y-103960056D01*
X130097000Y-103960056D01*
X130026789Y-103607084D01*
X129889066Y-103274591D01*
X129689124Y-102975355D01*
X129434645Y-102720876D01*
X129135409Y-102520934D01*
X128802916Y-102383211D01*
X128449944Y-102313000D01*
X128090056Y-102313000D01*
X127737084Y-102383211D01*
X127404591Y-102520934D01*
X127105355Y-102720876D01*
X126850876Y-102975355D01*
X126650934Y-103274591D01*
X126513211Y-103607084D01*
X126443000Y-103960056D01*
X126410808Y-103960056D01*
X126428909Y-103775455D01*
X126534780Y-103424792D01*
X126706744Y-103101375D01*
X126938254Y-102817516D01*
X127220486Y-102584035D01*
X127542695Y-102409817D01*
X127892614Y-102301498D01*
X128287443Y-102260000D01*
X186657721Y-102260000D01*
X187054545Y-102298909D01*
G37*
%TD.AperFunction*%
%TD*%
D17*
%TO.N,Net-(LA10-Pad1)*%
X165608000Y-133223000D02*
X149352000Y-133223000D01*
X149352000Y-110617000D01*
X165608000Y-110617000D01*
X165608000Y-133223000D01*
%TA.AperFunction,Conductor*%
D18*
G36*
X165608000Y-133223000D02*
G01*
X149352000Y-133223000D01*
X149352000Y-110617000D01*
X165608000Y-110617000D01*
X165608000Y-133223000D01*
G37*
%TD.AperFunction*%
%TD*%
M02*
