%TF.GenerationSoftware,KiCad,Pcbnew,(5.1.9)-1*%
%TF.CreationDate,2022-05-15T15:17:23+01:00*%
%TF.ProjectId,Halogen discharger,48616c6f-6765-46e2-9064-697363686172,rev?*%
%TF.SameCoordinates,Original*%
%TF.FileFunction,Legend,Top*%
%TF.FilePolarity,Positive*%
%FSLAX46Y46*%
G04 Gerber Fmt 4.6, Leading zero omitted, Abs format (unit mm)*
G04 Created by KiCad (PCBNEW (5.1.9)-1) date 2022-05-15 15:17:23*
%MOMM*%
%LPD*%
G01*
G04 APERTURE LIST*
%ADD10C,0.200000*%
G04 APERTURE END LIST*
D10*
X183057857Y-104225714D02*
X183972142Y-104225714D01*
X183515000Y-104682857D02*
X183515000Y-103768571D01*
X176707857Y-104225714D02*
X177622142Y-104225714D01*
X137337857Y-104225714D02*
X138252142Y-104225714D01*
X130987857Y-104225714D02*
X131902142Y-104225714D01*
X131445000Y-104682857D02*
X131445000Y-103768571D01*
X154730000Y-138995000D02*
X154587142Y-138923571D01*
X154372857Y-138923571D01*
X154158571Y-138995000D01*
X154015714Y-139137857D01*
X153944285Y-139280714D01*
X153872857Y-139566428D01*
X153872857Y-139780714D01*
X153944285Y-140066428D01*
X154015714Y-140209285D01*
X154158571Y-140352142D01*
X154372857Y-140423571D01*
X154515714Y-140423571D01*
X154730000Y-140352142D01*
X154801428Y-140280714D01*
X154801428Y-139780714D01*
X154515714Y-139780714D01*
X155730000Y-139709285D02*
X155730000Y-140423571D01*
X155230000Y-138923571D02*
X155730000Y-139709285D01*
X156230000Y-138923571D01*
X157372857Y-138923571D02*
X157087142Y-138923571D01*
X156944285Y-138995000D01*
X156872857Y-139066428D01*
X156730000Y-139280714D01*
X156658571Y-139566428D01*
X156658571Y-140137857D01*
X156730000Y-140280714D01*
X156801428Y-140352142D01*
X156944285Y-140423571D01*
X157230000Y-140423571D01*
X157372857Y-140352142D01*
X157444285Y-140280714D01*
X157515714Y-140137857D01*
X157515714Y-139780714D01*
X157444285Y-139637857D01*
X157372857Y-139566428D01*
X157230000Y-139495000D01*
X156944285Y-139495000D01*
X156801428Y-139566428D01*
X156730000Y-139637857D01*
X156658571Y-139780714D01*
X158158571Y-140280714D02*
X158230000Y-140352142D01*
X158158571Y-140423571D01*
X158087142Y-140352142D01*
X158158571Y-140280714D01*
X158158571Y-140423571D01*
X158730000Y-138923571D02*
X159658571Y-138923571D01*
X159158571Y-139495000D01*
X159372857Y-139495000D01*
X159515714Y-139566428D01*
X159587142Y-139637857D01*
X159658571Y-139780714D01*
X159658571Y-140137857D01*
X159587142Y-140280714D01*
X159515714Y-140352142D01*
X159372857Y-140423571D01*
X158944285Y-140423571D01*
X158801428Y-140352142D01*
X158730000Y-140280714D01*
X161015714Y-138923571D02*
X160301428Y-138923571D01*
X160230000Y-139637857D01*
X160301428Y-139566428D01*
X160444285Y-139495000D01*
X160801428Y-139495000D01*
X160944285Y-139566428D01*
X161015714Y-139637857D01*
X161087142Y-139780714D01*
X161087142Y-140137857D01*
X161015714Y-140280714D01*
X160944285Y-140352142D01*
X160801428Y-140423571D01*
X160444285Y-140423571D01*
X160301428Y-140352142D01*
X160230000Y-140280714D01*
X151658571Y-142873571D02*
X151658571Y-141373571D01*
X152015714Y-141373571D01*
X152230000Y-141445000D01*
X152372857Y-141587857D01*
X152444285Y-141730714D01*
X152515714Y-142016428D01*
X152515714Y-142230714D01*
X152444285Y-142516428D01*
X152372857Y-142659285D01*
X152230000Y-142802142D01*
X152015714Y-142873571D01*
X151658571Y-142873571D01*
X153158571Y-142873571D02*
X153158571Y-141373571D01*
X153801428Y-142802142D02*
X154015714Y-142873571D01*
X154372857Y-142873571D01*
X154515714Y-142802142D01*
X154587142Y-142730714D01*
X154658571Y-142587857D01*
X154658571Y-142445000D01*
X154587142Y-142302142D01*
X154515714Y-142230714D01*
X154372857Y-142159285D01*
X154087142Y-142087857D01*
X153944285Y-142016428D01*
X153872857Y-141945000D01*
X153801428Y-141802142D01*
X153801428Y-141659285D01*
X153872857Y-141516428D01*
X153944285Y-141445000D01*
X154087142Y-141373571D01*
X154444285Y-141373571D01*
X154658571Y-141445000D01*
X156158571Y-142730714D02*
X156087142Y-142802142D01*
X155872857Y-142873571D01*
X155730000Y-142873571D01*
X155515714Y-142802142D01*
X155372857Y-142659285D01*
X155301428Y-142516428D01*
X155230000Y-142230714D01*
X155230000Y-142016428D01*
X155301428Y-141730714D01*
X155372857Y-141587857D01*
X155515714Y-141445000D01*
X155730000Y-141373571D01*
X155872857Y-141373571D01*
X156087142Y-141445000D01*
X156158571Y-141516428D01*
X156801428Y-142873571D02*
X156801428Y-141373571D01*
X156801428Y-142087857D02*
X157658571Y-142087857D01*
X157658571Y-142873571D02*
X157658571Y-141373571D01*
X158301428Y-142445000D02*
X159015714Y-142445000D01*
X158158571Y-142873571D02*
X158658571Y-141373571D01*
X159158571Y-142873571D01*
X160515714Y-142873571D02*
X160015714Y-142159285D01*
X159658571Y-142873571D02*
X159658571Y-141373571D01*
X160230000Y-141373571D01*
X160372857Y-141445000D01*
X160444285Y-141516428D01*
X160515714Y-141659285D01*
X160515714Y-141873571D01*
X160444285Y-142016428D01*
X160372857Y-142087857D01*
X160230000Y-142159285D01*
X159658571Y-142159285D01*
X161944285Y-141445000D02*
X161801428Y-141373571D01*
X161587142Y-141373571D01*
X161372857Y-141445000D01*
X161230000Y-141587857D01*
X161158571Y-141730714D01*
X161087142Y-142016428D01*
X161087142Y-142230714D01*
X161158571Y-142516428D01*
X161230000Y-142659285D01*
X161372857Y-142802142D01*
X161587142Y-142873571D01*
X161730000Y-142873571D01*
X161944285Y-142802142D01*
X162015714Y-142730714D01*
X162015714Y-142230714D01*
X161730000Y-142230714D01*
X162658571Y-142087857D02*
X163158571Y-142087857D01*
X163372857Y-142873571D02*
X162658571Y-142873571D01*
X162658571Y-141373571D01*
X163372857Y-141373571D01*
M02*
