%TF.GenerationSoftware,KiCad,Pcbnew,(5.1.9)-1*%
%TF.CreationDate,2021-11-24T00:24:37+00:00*%
%TF.ProjectId,4S parallel board,34532070-6172-4616-9c6c-656c20626f61,rev?*%
%TF.SameCoordinates,Original*%
%TF.FileFunction,Copper,L1,Top*%
%TF.FilePolarity,Positive*%
%FSLAX46Y46*%
G04 Gerber Fmt 4.6, Leading zero omitted, Abs format (unit mm)*
G04 Created by KiCad (PCBNEW (5.1.9)-1) date 2021-11-24 00:24:37*
%MOMM*%
%LPD*%
G01*
G04 APERTURE LIST*
%TA.AperFunction,ComponentPad*%
%ADD10O,1.950000X1.700000*%
%TD*%
%TA.AperFunction,ComponentPad*%
%ADD11C,1.400000*%
%TD*%
%TA.AperFunction,ComponentPad*%
%ADD12R,3.500000X3.500000*%
%TD*%
%TA.AperFunction,ComponentPad*%
%ADD13C,3.500000*%
%TD*%
%TA.AperFunction,Conductor*%
%ADD14C,2.200000*%
%TD*%
%TA.AperFunction,Conductor*%
%ADD15C,0.254000*%
%TD*%
%TA.AperFunction,Conductor*%
%ADD16C,0.100000*%
%TD*%
G04 APERTURE END LIST*
%TO.P,J8,1*%
%TO.N,VCC*%
%TA.AperFunction,ComponentPad*%
G36*
G01*
X166915000Y-96940000D02*
X168365000Y-96940000D01*
G75*
G02*
X168615000Y-97190000I0J-250000D01*
G01*
X168615000Y-98390000D01*
G75*
G02*
X168365000Y-98640000I-250000J0D01*
G01*
X166915000Y-98640000D01*
G75*
G02*
X166665000Y-98390000I0J250000D01*
G01*
X166665000Y-97190000D01*
G75*
G02*
X166915000Y-96940000I250000J0D01*
G01*
G37*
%TD.AperFunction*%
D10*
%TO.P,J8,2*%
%TO.N,/B2*%
X167640000Y-100290000D03*
%TO.P,J8,3*%
%TO.N,/B3*%
X167640000Y-102790000D03*
%TO.P,J8,4*%
%TO.N,/B4*%
X167640000Y-105290000D03*
%TO.P,J8,5*%
%TO.N,GND*%
X167640000Y-107790000D03*
%TD*%
%TO.P,J14,1*%
%TO.N,VCC*%
%TA.AperFunction,ComponentPad*%
G36*
G01*
X166915000Y-117260000D02*
X168365000Y-117260000D01*
G75*
G02*
X168615000Y-117510000I0J-250000D01*
G01*
X168615000Y-118710000D01*
G75*
G02*
X168365000Y-118960000I-250000J0D01*
G01*
X166915000Y-118960000D01*
G75*
G02*
X166665000Y-118710000I0J250000D01*
G01*
X166665000Y-117510000D01*
G75*
G02*
X166915000Y-117260000I250000J0D01*
G01*
G37*
%TD.AperFunction*%
%TO.P,J14,2*%
%TO.N,/B2*%
X167640000Y-120610000D03*
%TO.P,J14,3*%
%TO.N,/B3*%
X167640000Y-123110000D03*
%TO.P,J14,4*%
%TO.N,/B4*%
X167640000Y-125610000D03*
%TO.P,J14,5*%
%TO.N,GND*%
X167640000Y-128110000D03*
%TD*%
%TO.P,J13,1*%
%TO.N,VCC*%
%TA.AperFunction,ComponentPad*%
G36*
G01*
X154215000Y-117260000D02*
X155665000Y-117260000D01*
G75*
G02*
X155915000Y-117510000I0J-250000D01*
G01*
X155915000Y-118710000D01*
G75*
G02*
X155665000Y-118960000I-250000J0D01*
G01*
X154215000Y-118960000D01*
G75*
G02*
X153965000Y-118710000I0J250000D01*
G01*
X153965000Y-117510000D01*
G75*
G02*
X154215000Y-117260000I250000J0D01*
G01*
G37*
%TD.AperFunction*%
%TO.P,J13,2*%
%TO.N,/B2*%
X154940000Y-120610000D03*
%TO.P,J13,3*%
%TO.N,/B3*%
X154940000Y-123110000D03*
%TO.P,J13,4*%
%TO.N,/B4*%
X154940000Y-125610000D03*
%TO.P,J13,5*%
%TO.N,GND*%
X154940000Y-128110000D03*
%TD*%
%TO.P,J12,1*%
%TO.N,VCC*%
%TA.AperFunction,ComponentPad*%
G36*
G01*
X141515000Y-117260000D02*
X142965000Y-117260000D01*
G75*
G02*
X143215000Y-117510000I0J-250000D01*
G01*
X143215000Y-118710000D01*
G75*
G02*
X142965000Y-118960000I-250000J0D01*
G01*
X141515000Y-118960000D01*
G75*
G02*
X141265000Y-118710000I0J250000D01*
G01*
X141265000Y-117510000D01*
G75*
G02*
X141515000Y-117260000I250000J0D01*
G01*
G37*
%TD.AperFunction*%
%TO.P,J12,2*%
%TO.N,/B2*%
X142240000Y-120610000D03*
%TO.P,J12,3*%
%TO.N,/B3*%
X142240000Y-123110000D03*
%TO.P,J12,4*%
%TO.N,/B4*%
X142240000Y-125610000D03*
%TO.P,J12,5*%
%TO.N,GND*%
X142240000Y-128110000D03*
%TD*%
%TO.P,J11,1*%
%TO.N,VCC*%
%TA.AperFunction,ComponentPad*%
G36*
G01*
X128815000Y-117260000D02*
X130265000Y-117260000D01*
G75*
G02*
X130515000Y-117510000I0J-250000D01*
G01*
X130515000Y-118710000D01*
G75*
G02*
X130265000Y-118960000I-250000J0D01*
G01*
X128815000Y-118960000D01*
G75*
G02*
X128565000Y-118710000I0J250000D01*
G01*
X128565000Y-117510000D01*
G75*
G02*
X128815000Y-117260000I250000J0D01*
G01*
G37*
%TD.AperFunction*%
%TO.P,J11,2*%
%TO.N,/B2*%
X129540000Y-120610000D03*
%TO.P,J11,3*%
%TO.N,/B3*%
X129540000Y-123110000D03*
%TO.P,J11,4*%
%TO.N,/B4*%
X129540000Y-125610000D03*
%TO.P,J11,5*%
%TO.N,GND*%
X129540000Y-128110000D03*
%TD*%
%TO.P,J10,1*%
%TO.N,VCC*%
%TA.AperFunction,ComponentPad*%
G36*
G01*
X116115000Y-117260000D02*
X117565000Y-117260000D01*
G75*
G02*
X117815000Y-117510000I0J-250000D01*
G01*
X117815000Y-118710000D01*
G75*
G02*
X117565000Y-118960000I-250000J0D01*
G01*
X116115000Y-118960000D01*
G75*
G02*
X115865000Y-118710000I0J250000D01*
G01*
X115865000Y-117510000D01*
G75*
G02*
X116115000Y-117260000I250000J0D01*
G01*
G37*
%TD.AperFunction*%
%TO.P,J10,2*%
%TO.N,/B2*%
X116840000Y-120610000D03*
%TO.P,J10,3*%
%TO.N,/B3*%
X116840000Y-123110000D03*
%TO.P,J10,4*%
%TO.N,/B4*%
X116840000Y-125610000D03*
%TO.P,J10,5*%
%TO.N,GND*%
X116840000Y-128110000D03*
%TD*%
%TO.P,J9,1*%
%TO.N,VCC*%
%TA.AperFunction,ComponentPad*%
G36*
G01*
X103415000Y-117260000D02*
X104865000Y-117260000D01*
G75*
G02*
X105115000Y-117510000I0J-250000D01*
G01*
X105115000Y-118710000D01*
G75*
G02*
X104865000Y-118960000I-250000J0D01*
G01*
X103415000Y-118960000D01*
G75*
G02*
X103165000Y-118710000I0J250000D01*
G01*
X103165000Y-117510000D01*
G75*
G02*
X103415000Y-117260000I250000J0D01*
G01*
G37*
%TD.AperFunction*%
%TO.P,J9,2*%
%TO.N,/B2*%
X104140000Y-120610000D03*
%TO.P,J9,3*%
%TO.N,/B3*%
X104140000Y-123110000D03*
%TO.P,J9,4*%
%TO.N,/B4*%
X104140000Y-125610000D03*
%TO.P,J9,5*%
%TO.N,GND*%
X104140000Y-128110000D03*
%TD*%
%TO.P,J7,1*%
%TO.N,VCC*%
%TA.AperFunction,ComponentPad*%
G36*
G01*
X154215000Y-96940000D02*
X155665000Y-96940000D01*
G75*
G02*
X155915000Y-97190000I0J-250000D01*
G01*
X155915000Y-98390000D01*
G75*
G02*
X155665000Y-98640000I-250000J0D01*
G01*
X154215000Y-98640000D01*
G75*
G02*
X153965000Y-98390000I0J250000D01*
G01*
X153965000Y-97190000D01*
G75*
G02*
X154215000Y-96940000I250000J0D01*
G01*
G37*
%TD.AperFunction*%
%TO.P,J7,2*%
%TO.N,/B2*%
X154940000Y-100290000D03*
%TO.P,J7,3*%
%TO.N,/B3*%
X154940000Y-102790000D03*
%TO.P,J7,4*%
%TO.N,/B4*%
X154940000Y-105290000D03*
%TO.P,J7,5*%
%TO.N,GND*%
X154940000Y-107790000D03*
%TD*%
%TO.P,J6,1*%
%TO.N,VCC*%
%TA.AperFunction,ComponentPad*%
G36*
G01*
X141515000Y-96940000D02*
X142965000Y-96940000D01*
G75*
G02*
X143215000Y-97190000I0J-250000D01*
G01*
X143215000Y-98390000D01*
G75*
G02*
X142965000Y-98640000I-250000J0D01*
G01*
X141515000Y-98640000D01*
G75*
G02*
X141265000Y-98390000I0J250000D01*
G01*
X141265000Y-97190000D01*
G75*
G02*
X141515000Y-96940000I250000J0D01*
G01*
G37*
%TD.AperFunction*%
%TO.P,J6,2*%
%TO.N,/B2*%
X142240000Y-100290000D03*
%TO.P,J6,3*%
%TO.N,/B3*%
X142240000Y-102790000D03*
%TO.P,J6,4*%
%TO.N,/B4*%
X142240000Y-105290000D03*
%TO.P,J6,5*%
%TO.N,GND*%
X142240000Y-107790000D03*
%TD*%
%TO.P,J5,1*%
%TO.N,VCC*%
%TA.AperFunction,ComponentPad*%
G36*
G01*
X128815000Y-96940000D02*
X130265000Y-96940000D01*
G75*
G02*
X130515000Y-97190000I0J-250000D01*
G01*
X130515000Y-98390000D01*
G75*
G02*
X130265000Y-98640000I-250000J0D01*
G01*
X128815000Y-98640000D01*
G75*
G02*
X128565000Y-98390000I0J250000D01*
G01*
X128565000Y-97190000D01*
G75*
G02*
X128815000Y-96940000I250000J0D01*
G01*
G37*
%TD.AperFunction*%
%TO.P,J5,2*%
%TO.N,/B2*%
X129540000Y-100290000D03*
%TO.P,J5,3*%
%TO.N,/B3*%
X129540000Y-102790000D03*
%TO.P,J5,4*%
%TO.N,/B4*%
X129540000Y-105290000D03*
%TO.P,J5,5*%
%TO.N,GND*%
X129540000Y-107790000D03*
%TD*%
%TO.P,J4,1*%
%TO.N,VCC*%
%TA.AperFunction,ComponentPad*%
G36*
G01*
X116115000Y-96940000D02*
X117565000Y-96940000D01*
G75*
G02*
X117815000Y-97190000I0J-250000D01*
G01*
X117815000Y-98390000D01*
G75*
G02*
X117565000Y-98640000I-250000J0D01*
G01*
X116115000Y-98640000D01*
G75*
G02*
X115865000Y-98390000I0J250000D01*
G01*
X115865000Y-97190000D01*
G75*
G02*
X116115000Y-96940000I250000J0D01*
G01*
G37*
%TD.AperFunction*%
%TO.P,J4,2*%
%TO.N,/B2*%
X116840000Y-100290000D03*
%TO.P,J4,3*%
%TO.N,/B3*%
X116840000Y-102790000D03*
%TO.P,J4,4*%
%TO.N,/B4*%
X116840000Y-105290000D03*
%TO.P,J4,5*%
%TO.N,GND*%
X116840000Y-107790000D03*
%TD*%
%TO.P,J3,1*%
%TO.N,VCC*%
%TA.AperFunction,ComponentPad*%
G36*
G01*
X103415000Y-96940000D02*
X104865000Y-96940000D01*
G75*
G02*
X105115000Y-97190000I0J-250000D01*
G01*
X105115000Y-98390000D01*
G75*
G02*
X104865000Y-98640000I-250000J0D01*
G01*
X103415000Y-98640000D01*
G75*
G02*
X103165000Y-98390000I0J250000D01*
G01*
X103165000Y-97190000D01*
G75*
G02*
X103415000Y-96940000I250000J0D01*
G01*
G37*
%TD.AperFunction*%
%TO.P,J3,2*%
%TO.N,/B2*%
X104140000Y-100290000D03*
%TO.P,J3,3*%
%TO.N,/B3*%
X104140000Y-102790000D03*
%TO.P,J3,4*%
%TO.N,/B4*%
X104140000Y-105290000D03*
%TO.P,J3,5*%
%TO.N,GND*%
X104140000Y-107790000D03*
%TD*%
%TO.P,J2,5*%
%TO.N,GND*%
X86360000Y-107790000D03*
%TO.P,J2,4*%
%TO.N,/B4*%
X86360000Y-105290000D03*
%TO.P,J2,3*%
%TO.N,/B3*%
X86360000Y-102790000D03*
%TO.P,J2,2*%
%TO.N,/B2*%
X86360000Y-100290000D03*
%TO.P,J2,1*%
%TO.N,VCC*%
%TA.AperFunction,ComponentPad*%
G36*
G01*
X85635000Y-96940000D02*
X87085000Y-96940000D01*
G75*
G02*
X87335000Y-97190000I0J-250000D01*
G01*
X87335000Y-98390000D01*
G75*
G02*
X87085000Y-98640000I-250000J0D01*
G01*
X85635000Y-98640000D01*
G75*
G02*
X85385000Y-98390000I0J250000D01*
G01*
X85385000Y-97190000D01*
G75*
G02*
X85635000Y-96940000I250000J0D01*
G01*
G37*
%TD.AperFunction*%
%TD*%
D11*
%TO.P,J1,*%
%TO.N,*%
X86440000Y-128730000D03*
X86440000Y-117730000D03*
D12*
%TO.P,J1,1*%
%TO.N,GND*%
X91440000Y-125730000D03*
D13*
%TO.P,J1,2*%
%TO.N,VCC*%
X91440000Y-120730000D03*
%TD*%
D14*
%TO.N,/B4*%
X86360000Y-105290000D02*
X167640000Y-105290000D01*
X167640000Y-125610000D02*
X104140000Y-125610000D01*
%TO.N,/B3*%
X86360000Y-102790000D02*
X167640000Y-102790000D01*
X104140000Y-123110000D02*
X167640000Y-123110000D01*
%TO.N,/B2*%
X86360000Y-100290000D02*
X167640000Y-100290000D01*
X104140000Y-120610000D02*
X167640000Y-120610000D01*
%TD*%
D15*
%TO.N,VCC*%
X173305001Y-132665000D02*
X76885000Y-132665000D01*
X76885000Y-128598514D01*
X85105000Y-128598514D01*
X85105000Y-128861486D01*
X85156304Y-129119405D01*
X85256939Y-129362359D01*
X85403038Y-129581013D01*
X85588987Y-129766962D01*
X85807641Y-129913061D01*
X86050595Y-130013696D01*
X86308514Y-130065000D01*
X86571486Y-130065000D01*
X86829405Y-130013696D01*
X87072359Y-129913061D01*
X87291013Y-129766962D01*
X87476962Y-129581013D01*
X87623061Y-129362359D01*
X87723696Y-129119405D01*
X87775000Y-128861486D01*
X87775000Y-128598514D01*
X87723696Y-128340595D01*
X87623061Y-128097641D01*
X87476962Y-127878987D01*
X87291013Y-127693038D01*
X87072359Y-127546939D01*
X86829405Y-127446304D01*
X86571486Y-127395000D01*
X86308514Y-127395000D01*
X86050595Y-127446304D01*
X85807641Y-127546939D01*
X85588987Y-127693038D01*
X85403038Y-127878987D01*
X85256939Y-128097641D01*
X85156304Y-128340595D01*
X85105000Y-128598514D01*
X76885000Y-128598514D01*
X76885000Y-123980000D01*
X89051928Y-123980000D01*
X89051928Y-127480000D01*
X89064188Y-127604482D01*
X89100498Y-127724180D01*
X89159463Y-127834494D01*
X89238815Y-127931185D01*
X89335506Y-128010537D01*
X89445820Y-128069502D01*
X89565518Y-128105812D01*
X89690000Y-128118072D01*
X93190000Y-128118072D01*
X93314482Y-128105812D01*
X93434180Y-128069502D01*
X93544494Y-128010537D01*
X93641185Y-127931185D01*
X93720537Y-127834494D01*
X93779502Y-127724180D01*
X93815812Y-127604482D01*
X93828072Y-127480000D01*
X93828072Y-123980000D01*
X93815812Y-123855518D01*
X93779502Y-123735820D01*
X93720537Y-123625506D01*
X93641185Y-123528815D01*
X93544494Y-123449463D01*
X93434180Y-123390498D01*
X93314482Y-123354188D01*
X93190000Y-123341928D01*
X89690000Y-123341928D01*
X89565518Y-123354188D01*
X89445820Y-123390498D01*
X89335506Y-123449463D01*
X89238815Y-123528815D01*
X89159463Y-123625506D01*
X89100498Y-123735820D01*
X89064188Y-123855518D01*
X89051928Y-123980000D01*
X76885000Y-123980000D01*
X76885000Y-120610000D01*
X102396606Y-120610000D01*
X102430105Y-120950119D01*
X102529314Y-121277168D01*
X102690421Y-121578578D01*
X102907234Y-121842766D01*
X102928234Y-121860000D01*
X102907234Y-121877234D01*
X102690421Y-122141422D01*
X102529314Y-122442832D01*
X102430105Y-122769881D01*
X102396606Y-123110000D01*
X102430105Y-123450119D01*
X102529314Y-123777168D01*
X102690421Y-124078578D01*
X102907234Y-124342766D01*
X102928234Y-124360000D01*
X102907234Y-124377234D01*
X102690421Y-124641422D01*
X102529314Y-124942832D01*
X102430105Y-125269881D01*
X102396606Y-125610000D01*
X102430105Y-125950119D01*
X102529314Y-126277168D01*
X102690421Y-126578578D01*
X102907234Y-126842766D01*
X103062772Y-126970413D01*
X102959866Y-127054866D01*
X102774294Y-127280986D01*
X102636401Y-127538966D01*
X102551487Y-127818889D01*
X102522815Y-128110000D01*
X102551487Y-128401111D01*
X102636401Y-128681034D01*
X102774294Y-128939014D01*
X102959866Y-129165134D01*
X103185986Y-129350706D01*
X103443966Y-129488599D01*
X103723889Y-129573513D01*
X103942050Y-129595000D01*
X104337950Y-129595000D01*
X104556111Y-129573513D01*
X104836034Y-129488599D01*
X105094014Y-129350706D01*
X105320134Y-129165134D01*
X105505706Y-128939014D01*
X105643599Y-128681034D01*
X105728513Y-128401111D01*
X105757185Y-128110000D01*
X105728513Y-127818889D01*
X105643599Y-127538966D01*
X105539922Y-127345000D01*
X115440078Y-127345000D01*
X115336401Y-127538966D01*
X115251487Y-127818889D01*
X115222815Y-128110000D01*
X115251487Y-128401111D01*
X115336401Y-128681034D01*
X115474294Y-128939014D01*
X115659866Y-129165134D01*
X115885986Y-129350706D01*
X116143966Y-129488599D01*
X116423889Y-129573513D01*
X116642050Y-129595000D01*
X117037950Y-129595000D01*
X117256111Y-129573513D01*
X117536034Y-129488599D01*
X117794014Y-129350706D01*
X118020134Y-129165134D01*
X118205706Y-128939014D01*
X118343599Y-128681034D01*
X118428513Y-128401111D01*
X118457185Y-128110000D01*
X118428513Y-127818889D01*
X118343599Y-127538966D01*
X118239922Y-127345000D01*
X128140078Y-127345000D01*
X128036401Y-127538966D01*
X127951487Y-127818889D01*
X127922815Y-128110000D01*
X127951487Y-128401111D01*
X128036401Y-128681034D01*
X128174294Y-128939014D01*
X128359866Y-129165134D01*
X128585986Y-129350706D01*
X128843966Y-129488599D01*
X129123889Y-129573513D01*
X129342050Y-129595000D01*
X129737950Y-129595000D01*
X129956111Y-129573513D01*
X130236034Y-129488599D01*
X130494014Y-129350706D01*
X130720134Y-129165134D01*
X130905706Y-128939014D01*
X131043599Y-128681034D01*
X131128513Y-128401111D01*
X131157185Y-128110000D01*
X131128513Y-127818889D01*
X131043599Y-127538966D01*
X130939922Y-127345000D01*
X140840078Y-127345000D01*
X140736401Y-127538966D01*
X140651487Y-127818889D01*
X140622815Y-128110000D01*
X140651487Y-128401111D01*
X140736401Y-128681034D01*
X140874294Y-128939014D01*
X141059866Y-129165134D01*
X141285986Y-129350706D01*
X141543966Y-129488599D01*
X141823889Y-129573513D01*
X142042050Y-129595000D01*
X142437950Y-129595000D01*
X142656111Y-129573513D01*
X142936034Y-129488599D01*
X143194014Y-129350706D01*
X143420134Y-129165134D01*
X143605706Y-128939014D01*
X143743599Y-128681034D01*
X143828513Y-128401111D01*
X143857185Y-128110000D01*
X143828513Y-127818889D01*
X143743599Y-127538966D01*
X143639922Y-127345000D01*
X153540078Y-127345000D01*
X153436401Y-127538966D01*
X153351487Y-127818889D01*
X153322815Y-128110000D01*
X153351487Y-128401111D01*
X153436401Y-128681034D01*
X153574294Y-128939014D01*
X153759866Y-129165134D01*
X153985986Y-129350706D01*
X154243966Y-129488599D01*
X154523889Y-129573513D01*
X154742050Y-129595000D01*
X155137950Y-129595000D01*
X155356111Y-129573513D01*
X155636034Y-129488599D01*
X155894014Y-129350706D01*
X156120134Y-129165134D01*
X156305706Y-128939014D01*
X156443599Y-128681034D01*
X156528513Y-128401111D01*
X156557185Y-128110000D01*
X156528513Y-127818889D01*
X156443599Y-127538966D01*
X156339922Y-127345000D01*
X166240078Y-127345000D01*
X166136401Y-127538966D01*
X166051487Y-127818889D01*
X166022815Y-128110000D01*
X166051487Y-128401111D01*
X166136401Y-128681034D01*
X166274294Y-128939014D01*
X166459866Y-129165134D01*
X166685986Y-129350706D01*
X166943966Y-129488599D01*
X167223889Y-129573513D01*
X167442050Y-129595000D01*
X167837950Y-129595000D01*
X168056111Y-129573513D01*
X168336034Y-129488599D01*
X168594014Y-129350706D01*
X168820134Y-129165134D01*
X169005706Y-128939014D01*
X169143599Y-128681034D01*
X169228513Y-128401111D01*
X169257185Y-128110000D01*
X169228513Y-127818889D01*
X169143599Y-127538966D01*
X169005706Y-127280986D01*
X168820134Y-127054866D01*
X168717228Y-126970413D01*
X168872766Y-126842766D01*
X169089579Y-126578578D01*
X169250686Y-126277168D01*
X169349895Y-125950119D01*
X169383394Y-125610000D01*
X169349895Y-125269881D01*
X169250686Y-124942832D01*
X169089579Y-124641422D01*
X168872766Y-124377234D01*
X168851766Y-124360000D01*
X168872766Y-124342766D01*
X169089579Y-124078578D01*
X169250686Y-123777168D01*
X169349895Y-123450119D01*
X169383394Y-123110000D01*
X169349895Y-122769881D01*
X169250686Y-122442832D01*
X169089579Y-122141422D01*
X168872766Y-121877234D01*
X168851766Y-121860000D01*
X168872766Y-121842766D01*
X169089579Y-121578578D01*
X169250686Y-121277168D01*
X169349895Y-120950119D01*
X169383394Y-120610000D01*
X169349895Y-120269881D01*
X169250686Y-119942832D01*
X169089579Y-119641422D01*
X168872766Y-119377234D01*
X168608578Y-119160421D01*
X168307168Y-118999314D01*
X167980119Y-118900105D01*
X167725225Y-118875000D01*
X104054775Y-118875000D01*
X103799881Y-118900105D01*
X103472832Y-118999314D01*
X103171422Y-119160421D01*
X102907234Y-119377234D01*
X102690421Y-119641422D01*
X102529314Y-119942832D01*
X102430105Y-120269881D01*
X102396606Y-120610000D01*
X76885000Y-120610000D01*
X76885000Y-117598514D01*
X85105000Y-117598514D01*
X85105000Y-117861486D01*
X85156304Y-118119405D01*
X85256939Y-118362359D01*
X85403038Y-118581013D01*
X85588987Y-118766962D01*
X85807641Y-118913061D01*
X86050595Y-119013696D01*
X86308514Y-119065000D01*
X86571486Y-119065000D01*
X86829405Y-119013696D01*
X87072359Y-118913061D01*
X87291013Y-118766962D01*
X87476962Y-118581013D01*
X87623061Y-118362359D01*
X87723696Y-118119405D01*
X87775000Y-117861486D01*
X87775000Y-117598514D01*
X87723696Y-117340595D01*
X87623061Y-117097641D01*
X87476962Y-116878987D01*
X87291013Y-116693038D01*
X87072359Y-116546939D01*
X86829405Y-116446304D01*
X86571486Y-116395000D01*
X86308514Y-116395000D01*
X86050595Y-116446304D01*
X85807641Y-116546939D01*
X85588987Y-116693038D01*
X85403038Y-116878987D01*
X85256939Y-117097641D01*
X85156304Y-117340595D01*
X85105000Y-117598514D01*
X76885000Y-117598514D01*
X76885000Y-100290000D01*
X84616606Y-100290000D01*
X84650105Y-100630119D01*
X84749314Y-100957168D01*
X84910421Y-101258578D01*
X85127234Y-101522766D01*
X85148234Y-101540000D01*
X85127234Y-101557234D01*
X84910421Y-101821422D01*
X84749314Y-102122832D01*
X84650105Y-102449881D01*
X84616606Y-102790000D01*
X84650105Y-103130119D01*
X84749314Y-103457168D01*
X84910421Y-103758578D01*
X85127234Y-104022766D01*
X85148234Y-104040000D01*
X85127234Y-104057234D01*
X84910421Y-104321422D01*
X84749314Y-104622832D01*
X84650105Y-104949881D01*
X84616606Y-105290000D01*
X84650105Y-105630119D01*
X84749314Y-105957168D01*
X84910421Y-106258578D01*
X85127234Y-106522766D01*
X85282772Y-106650413D01*
X85179866Y-106734866D01*
X84994294Y-106960986D01*
X84856401Y-107218966D01*
X84771487Y-107498889D01*
X84742815Y-107790000D01*
X84771487Y-108081111D01*
X84856401Y-108361034D01*
X84994294Y-108619014D01*
X85179866Y-108845134D01*
X85405986Y-109030706D01*
X85663966Y-109168599D01*
X85943889Y-109253513D01*
X86162050Y-109275000D01*
X86557950Y-109275000D01*
X86776111Y-109253513D01*
X87056034Y-109168599D01*
X87314014Y-109030706D01*
X87540134Y-108845134D01*
X87725706Y-108619014D01*
X87863599Y-108361034D01*
X87948513Y-108081111D01*
X87977185Y-107790000D01*
X87948513Y-107498889D01*
X87863599Y-107218966D01*
X87759922Y-107025000D01*
X102740078Y-107025000D01*
X102636401Y-107218966D01*
X102551487Y-107498889D01*
X102522815Y-107790000D01*
X102551487Y-108081111D01*
X102636401Y-108361034D01*
X102774294Y-108619014D01*
X102959866Y-108845134D01*
X103185986Y-109030706D01*
X103443966Y-109168599D01*
X103723889Y-109253513D01*
X103942050Y-109275000D01*
X104337950Y-109275000D01*
X104556111Y-109253513D01*
X104836034Y-109168599D01*
X105094014Y-109030706D01*
X105320134Y-108845134D01*
X105505706Y-108619014D01*
X105643599Y-108361034D01*
X105728513Y-108081111D01*
X105757185Y-107790000D01*
X105728513Y-107498889D01*
X105643599Y-107218966D01*
X105539922Y-107025000D01*
X115440078Y-107025000D01*
X115336401Y-107218966D01*
X115251487Y-107498889D01*
X115222815Y-107790000D01*
X115251487Y-108081111D01*
X115336401Y-108361034D01*
X115474294Y-108619014D01*
X115659866Y-108845134D01*
X115885986Y-109030706D01*
X116143966Y-109168599D01*
X116423889Y-109253513D01*
X116642050Y-109275000D01*
X117037950Y-109275000D01*
X117256111Y-109253513D01*
X117536034Y-109168599D01*
X117794014Y-109030706D01*
X118020134Y-108845134D01*
X118205706Y-108619014D01*
X118343599Y-108361034D01*
X118428513Y-108081111D01*
X118457185Y-107790000D01*
X118428513Y-107498889D01*
X118343599Y-107218966D01*
X118239922Y-107025000D01*
X128140078Y-107025000D01*
X128036401Y-107218966D01*
X127951487Y-107498889D01*
X127922815Y-107790000D01*
X127951487Y-108081111D01*
X128036401Y-108361034D01*
X128174294Y-108619014D01*
X128359866Y-108845134D01*
X128585986Y-109030706D01*
X128843966Y-109168599D01*
X129123889Y-109253513D01*
X129342050Y-109275000D01*
X129737950Y-109275000D01*
X129956111Y-109253513D01*
X130236034Y-109168599D01*
X130494014Y-109030706D01*
X130720134Y-108845134D01*
X130905706Y-108619014D01*
X131043599Y-108361034D01*
X131128513Y-108081111D01*
X131157185Y-107790000D01*
X131128513Y-107498889D01*
X131043599Y-107218966D01*
X130939922Y-107025000D01*
X140840078Y-107025000D01*
X140736401Y-107218966D01*
X140651487Y-107498889D01*
X140622815Y-107790000D01*
X140651487Y-108081111D01*
X140736401Y-108361034D01*
X140874294Y-108619014D01*
X141059866Y-108845134D01*
X141285986Y-109030706D01*
X141543966Y-109168599D01*
X141823889Y-109253513D01*
X142042050Y-109275000D01*
X142437950Y-109275000D01*
X142656111Y-109253513D01*
X142936034Y-109168599D01*
X143194014Y-109030706D01*
X143420134Y-108845134D01*
X143605706Y-108619014D01*
X143743599Y-108361034D01*
X143828513Y-108081111D01*
X143857185Y-107790000D01*
X143828513Y-107498889D01*
X143743599Y-107218966D01*
X143639922Y-107025000D01*
X153540078Y-107025000D01*
X153436401Y-107218966D01*
X153351487Y-107498889D01*
X153322815Y-107790000D01*
X153351487Y-108081111D01*
X153436401Y-108361034D01*
X153574294Y-108619014D01*
X153759866Y-108845134D01*
X153985986Y-109030706D01*
X154243966Y-109168599D01*
X154523889Y-109253513D01*
X154742050Y-109275000D01*
X155137950Y-109275000D01*
X155356111Y-109253513D01*
X155636034Y-109168599D01*
X155894014Y-109030706D01*
X156120134Y-108845134D01*
X156305706Y-108619014D01*
X156443599Y-108361034D01*
X156528513Y-108081111D01*
X156557185Y-107790000D01*
X156528513Y-107498889D01*
X156443599Y-107218966D01*
X156339922Y-107025000D01*
X166240078Y-107025000D01*
X166136401Y-107218966D01*
X166051487Y-107498889D01*
X166022815Y-107790000D01*
X166051487Y-108081111D01*
X166136401Y-108361034D01*
X166274294Y-108619014D01*
X166459866Y-108845134D01*
X166685986Y-109030706D01*
X166943966Y-109168599D01*
X167223889Y-109253513D01*
X167442050Y-109275000D01*
X167837950Y-109275000D01*
X168056111Y-109253513D01*
X168336034Y-109168599D01*
X168594014Y-109030706D01*
X168820134Y-108845134D01*
X169005706Y-108619014D01*
X169143599Y-108361034D01*
X169228513Y-108081111D01*
X169257185Y-107790000D01*
X169228513Y-107498889D01*
X169143599Y-107218966D01*
X169005706Y-106960986D01*
X168820134Y-106734866D01*
X168717228Y-106650413D01*
X168872766Y-106522766D01*
X169089579Y-106258578D01*
X169250686Y-105957168D01*
X169349895Y-105630119D01*
X169383394Y-105290000D01*
X169349895Y-104949881D01*
X169250686Y-104622832D01*
X169089579Y-104321422D01*
X168872766Y-104057234D01*
X168851766Y-104040000D01*
X168872766Y-104022766D01*
X169089579Y-103758578D01*
X169250686Y-103457168D01*
X169349895Y-103130119D01*
X169383394Y-102790000D01*
X169349895Y-102449881D01*
X169250686Y-102122832D01*
X169089579Y-101821422D01*
X168872766Y-101557234D01*
X168851766Y-101540000D01*
X168872766Y-101522766D01*
X169089579Y-101258578D01*
X169250686Y-100957168D01*
X169349895Y-100630119D01*
X169383394Y-100290000D01*
X169349895Y-99949881D01*
X169250686Y-99622832D01*
X169089579Y-99321422D01*
X168872766Y-99057234D01*
X168608578Y-98840421D01*
X168307168Y-98679314D01*
X167980119Y-98580105D01*
X167725225Y-98555000D01*
X86274775Y-98555000D01*
X86019881Y-98580105D01*
X85692832Y-98679314D01*
X85391422Y-98840421D01*
X85127234Y-99057234D01*
X84910421Y-99321422D01*
X84749314Y-99622832D01*
X84650105Y-99949881D01*
X84616606Y-100290000D01*
X76885000Y-100290000D01*
X76885000Y-93395000D01*
X173305000Y-93395000D01*
X173305001Y-132665000D01*
%TA.AperFunction,Conductor*%
D16*
G36*
X173305001Y-132665000D02*
G01*
X76885000Y-132665000D01*
X76885000Y-128598514D01*
X85105000Y-128598514D01*
X85105000Y-128861486D01*
X85156304Y-129119405D01*
X85256939Y-129362359D01*
X85403038Y-129581013D01*
X85588987Y-129766962D01*
X85807641Y-129913061D01*
X86050595Y-130013696D01*
X86308514Y-130065000D01*
X86571486Y-130065000D01*
X86829405Y-130013696D01*
X87072359Y-129913061D01*
X87291013Y-129766962D01*
X87476962Y-129581013D01*
X87623061Y-129362359D01*
X87723696Y-129119405D01*
X87775000Y-128861486D01*
X87775000Y-128598514D01*
X87723696Y-128340595D01*
X87623061Y-128097641D01*
X87476962Y-127878987D01*
X87291013Y-127693038D01*
X87072359Y-127546939D01*
X86829405Y-127446304D01*
X86571486Y-127395000D01*
X86308514Y-127395000D01*
X86050595Y-127446304D01*
X85807641Y-127546939D01*
X85588987Y-127693038D01*
X85403038Y-127878987D01*
X85256939Y-128097641D01*
X85156304Y-128340595D01*
X85105000Y-128598514D01*
X76885000Y-128598514D01*
X76885000Y-123980000D01*
X89051928Y-123980000D01*
X89051928Y-127480000D01*
X89064188Y-127604482D01*
X89100498Y-127724180D01*
X89159463Y-127834494D01*
X89238815Y-127931185D01*
X89335506Y-128010537D01*
X89445820Y-128069502D01*
X89565518Y-128105812D01*
X89690000Y-128118072D01*
X93190000Y-128118072D01*
X93314482Y-128105812D01*
X93434180Y-128069502D01*
X93544494Y-128010537D01*
X93641185Y-127931185D01*
X93720537Y-127834494D01*
X93779502Y-127724180D01*
X93815812Y-127604482D01*
X93828072Y-127480000D01*
X93828072Y-123980000D01*
X93815812Y-123855518D01*
X93779502Y-123735820D01*
X93720537Y-123625506D01*
X93641185Y-123528815D01*
X93544494Y-123449463D01*
X93434180Y-123390498D01*
X93314482Y-123354188D01*
X93190000Y-123341928D01*
X89690000Y-123341928D01*
X89565518Y-123354188D01*
X89445820Y-123390498D01*
X89335506Y-123449463D01*
X89238815Y-123528815D01*
X89159463Y-123625506D01*
X89100498Y-123735820D01*
X89064188Y-123855518D01*
X89051928Y-123980000D01*
X76885000Y-123980000D01*
X76885000Y-120610000D01*
X102396606Y-120610000D01*
X102430105Y-120950119D01*
X102529314Y-121277168D01*
X102690421Y-121578578D01*
X102907234Y-121842766D01*
X102928234Y-121860000D01*
X102907234Y-121877234D01*
X102690421Y-122141422D01*
X102529314Y-122442832D01*
X102430105Y-122769881D01*
X102396606Y-123110000D01*
X102430105Y-123450119D01*
X102529314Y-123777168D01*
X102690421Y-124078578D01*
X102907234Y-124342766D01*
X102928234Y-124360000D01*
X102907234Y-124377234D01*
X102690421Y-124641422D01*
X102529314Y-124942832D01*
X102430105Y-125269881D01*
X102396606Y-125610000D01*
X102430105Y-125950119D01*
X102529314Y-126277168D01*
X102690421Y-126578578D01*
X102907234Y-126842766D01*
X103062772Y-126970413D01*
X102959866Y-127054866D01*
X102774294Y-127280986D01*
X102636401Y-127538966D01*
X102551487Y-127818889D01*
X102522815Y-128110000D01*
X102551487Y-128401111D01*
X102636401Y-128681034D01*
X102774294Y-128939014D01*
X102959866Y-129165134D01*
X103185986Y-129350706D01*
X103443966Y-129488599D01*
X103723889Y-129573513D01*
X103942050Y-129595000D01*
X104337950Y-129595000D01*
X104556111Y-129573513D01*
X104836034Y-129488599D01*
X105094014Y-129350706D01*
X105320134Y-129165134D01*
X105505706Y-128939014D01*
X105643599Y-128681034D01*
X105728513Y-128401111D01*
X105757185Y-128110000D01*
X105728513Y-127818889D01*
X105643599Y-127538966D01*
X105539922Y-127345000D01*
X115440078Y-127345000D01*
X115336401Y-127538966D01*
X115251487Y-127818889D01*
X115222815Y-128110000D01*
X115251487Y-128401111D01*
X115336401Y-128681034D01*
X115474294Y-128939014D01*
X115659866Y-129165134D01*
X115885986Y-129350706D01*
X116143966Y-129488599D01*
X116423889Y-129573513D01*
X116642050Y-129595000D01*
X117037950Y-129595000D01*
X117256111Y-129573513D01*
X117536034Y-129488599D01*
X117794014Y-129350706D01*
X118020134Y-129165134D01*
X118205706Y-128939014D01*
X118343599Y-128681034D01*
X118428513Y-128401111D01*
X118457185Y-128110000D01*
X118428513Y-127818889D01*
X118343599Y-127538966D01*
X118239922Y-127345000D01*
X128140078Y-127345000D01*
X128036401Y-127538966D01*
X127951487Y-127818889D01*
X127922815Y-128110000D01*
X127951487Y-128401111D01*
X128036401Y-128681034D01*
X128174294Y-128939014D01*
X128359866Y-129165134D01*
X128585986Y-129350706D01*
X128843966Y-129488599D01*
X129123889Y-129573513D01*
X129342050Y-129595000D01*
X129737950Y-129595000D01*
X129956111Y-129573513D01*
X130236034Y-129488599D01*
X130494014Y-129350706D01*
X130720134Y-129165134D01*
X130905706Y-128939014D01*
X131043599Y-128681034D01*
X131128513Y-128401111D01*
X131157185Y-128110000D01*
X131128513Y-127818889D01*
X131043599Y-127538966D01*
X130939922Y-127345000D01*
X140840078Y-127345000D01*
X140736401Y-127538966D01*
X140651487Y-127818889D01*
X140622815Y-128110000D01*
X140651487Y-128401111D01*
X140736401Y-128681034D01*
X140874294Y-128939014D01*
X141059866Y-129165134D01*
X141285986Y-129350706D01*
X141543966Y-129488599D01*
X141823889Y-129573513D01*
X142042050Y-129595000D01*
X142437950Y-129595000D01*
X142656111Y-129573513D01*
X142936034Y-129488599D01*
X143194014Y-129350706D01*
X143420134Y-129165134D01*
X143605706Y-128939014D01*
X143743599Y-128681034D01*
X143828513Y-128401111D01*
X143857185Y-128110000D01*
X143828513Y-127818889D01*
X143743599Y-127538966D01*
X143639922Y-127345000D01*
X153540078Y-127345000D01*
X153436401Y-127538966D01*
X153351487Y-127818889D01*
X153322815Y-128110000D01*
X153351487Y-128401111D01*
X153436401Y-128681034D01*
X153574294Y-128939014D01*
X153759866Y-129165134D01*
X153985986Y-129350706D01*
X154243966Y-129488599D01*
X154523889Y-129573513D01*
X154742050Y-129595000D01*
X155137950Y-129595000D01*
X155356111Y-129573513D01*
X155636034Y-129488599D01*
X155894014Y-129350706D01*
X156120134Y-129165134D01*
X156305706Y-128939014D01*
X156443599Y-128681034D01*
X156528513Y-128401111D01*
X156557185Y-128110000D01*
X156528513Y-127818889D01*
X156443599Y-127538966D01*
X156339922Y-127345000D01*
X166240078Y-127345000D01*
X166136401Y-127538966D01*
X166051487Y-127818889D01*
X166022815Y-128110000D01*
X166051487Y-128401111D01*
X166136401Y-128681034D01*
X166274294Y-128939014D01*
X166459866Y-129165134D01*
X166685986Y-129350706D01*
X166943966Y-129488599D01*
X167223889Y-129573513D01*
X167442050Y-129595000D01*
X167837950Y-129595000D01*
X168056111Y-129573513D01*
X168336034Y-129488599D01*
X168594014Y-129350706D01*
X168820134Y-129165134D01*
X169005706Y-128939014D01*
X169143599Y-128681034D01*
X169228513Y-128401111D01*
X169257185Y-128110000D01*
X169228513Y-127818889D01*
X169143599Y-127538966D01*
X169005706Y-127280986D01*
X168820134Y-127054866D01*
X168717228Y-126970413D01*
X168872766Y-126842766D01*
X169089579Y-126578578D01*
X169250686Y-126277168D01*
X169349895Y-125950119D01*
X169383394Y-125610000D01*
X169349895Y-125269881D01*
X169250686Y-124942832D01*
X169089579Y-124641422D01*
X168872766Y-124377234D01*
X168851766Y-124360000D01*
X168872766Y-124342766D01*
X169089579Y-124078578D01*
X169250686Y-123777168D01*
X169349895Y-123450119D01*
X169383394Y-123110000D01*
X169349895Y-122769881D01*
X169250686Y-122442832D01*
X169089579Y-122141422D01*
X168872766Y-121877234D01*
X168851766Y-121860000D01*
X168872766Y-121842766D01*
X169089579Y-121578578D01*
X169250686Y-121277168D01*
X169349895Y-120950119D01*
X169383394Y-120610000D01*
X169349895Y-120269881D01*
X169250686Y-119942832D01*
X169089579Y-119641422D01*
X168872766Y-119377234D01*
X168608578Y-119160421D01*
X168307168Y-118999314D01*
X167980119Y-118900105D01*
X167725225Y-118875000D01*
X104054775Y-118875000D01*
X103799881Y-118900105D01*
X103472832Y-118999314D01*
X103171422Y-119160421D01*
X102907234Y-119377234D01*
X102690421Y-119641422D01*
X102529314Y-119942832D01*
X102430105Y-120269881D01*
X102396606Y-120610000D01*
X76885000Y-120610000D01*
X76885000Y-117598514D01*
X85105000Y-117598514D01*
X85105000Y-117861486D01*
X85156304Y-118119405D01*
X85256939Y-118362359D01*
X85403038Y-118581013D01*
X85588987Y-118766962D01*
X85807641Y-118913061D01*
X86050595Y-119013696D01*
X86308514Y-119065000D01*
X86571486Y-119065000D01*
X86829405Y-119013696D01*
X87072359Y-118913061D01*
X87291013Y-118766962D01*
X87476962Y-118581013D01*
X87623061Y-118362359D01*
X87723696Y-118119405D01*
X87775000Y-117861486D01*
X87775000Y-117598514D01*
X87723696Y-117340595D01*
X87623061Y-117097641D01*
X87476962Y-116878987D01*
X87291013Y-116693038D01*
X87072359Y-116546939D01*
X86829405Y-116446304D01*
X86571486Y-116395000D01*
X86308514Y-116395000D01*
X86050595Y-116446304D01*
X85807641Y-116546939D01*
X85588987Y-116693038D01*
X85403038Y-116878987D01*
X85256939Y-117097641D01*
X85156304Y-117340595D01*
X85105000Y-117598514D01*
X76885000Y-117598514D01*
X76885000Y-100290000D01*
X84616606Y-100290000D01*
X84650105Y-100630119D01*
X84749314Y-100957168D01*
X84910421Y-101258578D01*
X85127234Y-101522766D01*
X85148234Y-101540000D01*
X85127234Y-101557234D01*
X84910421Y-101821422D01*
X84749314Y-102122832D01*
X84650105Y-102449881D01*
X84616606Y-102790000D01*
X84650105Y-103130119D01*
X84749314Y-103457168D01*
X84910421Y-103758578D01*
X85127234Y-104022766D01*
X85148234Y-104040000D01*
X85127234Y-104057234D01*
X84910421Y-104321422D01*
X84749314Y-104622832D01*
X84650105Y-104949881D01*
X84616606Y-105290000D01*
X84650105Y-105630119D01*
X84749314Y-105957168D01*
X84910421Y-106258578D01*
X85127234Y-106522766D01*
X85282772Y-106650413D01*
X85179866Y-106734866D01*
X84994294Y-106960986D01*
X84856401Y-107218966D01*
X84771487Y-107498889D01*
X84742815Y-107790000D01*
X84771487Y-108081111D01*
X84856401Y-108361034D01*
X84994294Y-108619014D01*
X85179866Y-108845134D01*
X85405986Y-109030706D01*
X85663966Y-109168599D01*
X85943889Y-109253513D01*
X86162050Y-109275000D01*
X86557950Y-109275000D01*
X86776111Y-109253513D01*
X87056034Y-109168599D01*
X87314014Y-109030706D01*
X87540134Y-108845134D01*
X87725706Y-108619014D01*
X87863599Y-108361034D01*
X87948513Y-108081111D01*
X87977185Y-107790000D01*
X87948513Y-107498889D01*
X87863599Y-107218966D01*
X87759922Y-107025000D01*
X102740078Y-107025000D01*
X102636401Y-107218966D01*
X102551487Y-107498889D01*
X102522815Y-107790000D01*
X102551487Y-108081111D01*
X102636401Y-108361034D01*
X102774294Y-108619014D01*
X102959866Y-108845134D01*
X103185986Y-109030706D01*
X103443966Y-109168599D01*
X103723889Y-109253513D01*
X103942050Y-109275000D01*
X104337950Y-109275000D01*
X104556111Y-109253513D01*
X104836034Y-109168599D01*
X105094014Y-109030706D01*
X105320134Y-108845134D01*
X105505706Y-108619014D01*
X105643599Y-108361034D01*
X105728513Y-108081111D01*
X105757185Y-107790000D01*
X105728513Y-107498889D01*
X105643599Y-107218966D01*
X105539922Y-107025000D01*
X115440078Y-107025000D01*
X115336401Y-107218966D01*
X115251487Y-107498889D01*
X115222815Y-107790000D01*
X115251487Y-108081111D01*
X115336401Y-108361034D01*
X115474294Y-108619014D01*
X115659866Y-108845134D01*
X115885986Y-109030706D01*
X116143966Y-109168599D01*
X116423889Y-109253513D01*
X116642050Y-109275000D01*
X117037950Y-109275000D01*
X117256111Y-109253513D01*
X117536034Y-109168599D01*
X117794014Y-109030706D01*
X118020134Y-108845134D01*
X118205706Y-108619014D01*
X118343599Y-108361034D01*
X118428513Y-108081111D01*
X118457185Y-107790000D01*
X118428513Y-107498889D01*
X118343599Y-107218966D01*
X118239922Y-107025000D01*
X128140078Y-107025000D01*
X128036401Y-107218966D01*
X127951487Y-107498889D01*
X127922815Y-107790000D01*
X127951487Y-108081111D01*
X128036401Y-108361034D01*
X128174294Y-108619014D01*
X128359866Y-108845134D01*
X128585986Y-109030706D01*
X128843966Y-109168599D01*
X129123889Y-109253513D01*
X129342050Y-109275000D01*
X129737950Y-109275000D01*
X129956111Y-109253513D01*
X130236034Y-109168599D01*
X130494014Y-109030706D01*
X130720134Y-108845134D01*
X130905706Y-108619014D01*
X131043599Y-108361034D01*
X131128513Y-108081111D01*
X131157185Y-107790000D01*
X131128513Y-107498889D01*
X131043599Y-107218966D01*
X130939922Y-107025000D01*
X140840078Y-107025000D01*
X140736401Y-107218966D01*
X140651487Y-107498889D01*
X140622815Y-107790000D01*
X140651487Y-108081111D01*
X140736401Y-108361034D01*
X140874294Y-108619014D01*
X141059866Y-108845134D01*
X141285986Y-109030706D01*
X141543966Y-109168599D01*
X141823889Y-109253513D01*
X142042050Y-109275000D01*
X142437950Y-109275000D01*
X142656111Y-109253513D01*
X142936034Y-109168599D01*
X143194014Y-109030706D01*
X143420134Y-108845134D01*
X143605706Y-108619014D01*
X143743599Y-108361034D01*
X143828513Y-108081111D01*
X143857185Y-107790000D01*
X143828513Y-107498889D01*
X143743599Y-107218966D01*
X143639922Y-107025000D01*
X153540078Y-107025000D01*
X153436401Y-107218966D01*
X153351487Y-107498889D01*
X153322815Y-107790000D01*
X153351487Y-108081111D01*
X153436401Y-108361034D01*
X153574294Y-108619014D01*
X153759866Y-108845134D01*
X153985986Y-109030706D01*
X154243966Y-109168599D01*
X154523889Y-109253513D01*
X154742050Y-109275000D01*
X155137950Y-109275000D01*
X155356111Y-109253513D01*
X155636034Y-109168599D01*
X155894014Y-109030706D01*
X156120134Y-108845134D01*
X156305706Y-108619014D01*
X156443599Y-108361034D01*
X156528513Y-108081111D01*
X156557185Y-107790000D01*
X156528513Y-107498889D01*
X156443599Y-107218966D01*
X156339922Y-107025000D01*
X166240078Y-107025000D01*
X166136401Y-107218966D01*
X166051487Y-107498889D01*
X166022815Y-107790000D01*
X166051487Y-108081111D01*
X166136401Y-108361034D01*
X166274294Y-108619014D01*
X166459866Y-108845134D01*
X166685986Y-109030706D01*
X166943966Y-109168599D01*
X167223889Y-109253513D01*
X167442050Y-109275000D01*
X167837950Y-109275000D01*
X168056111Y-109253513D01*
X168336034Y-109168599D01*
X168594014Y-109030706D01*
X168820134Y-108845134D01*
X169005706Y-108619014D01*
X169143599Y-108361034D01*
X169228513Y-108081111D01*
X169257185Y-107790000D01*
X169228513Y-107498889D01*
X169143599Y-107218966D01*
X169005706Y-106960986D01*
X168820134Y-106734866D01*
X168717228Y-106650413D01*
X168872766Y-106522766D01*
X169089579Y-106258578D01*
X169250686Y-105957168D01*
X169349895Y-105630119D01*
X169383394Y-105290000D01*
X169349895Y-104949881D01*
X169250686Y-104622832D01*
X169089579Y-104321422D01*
X168872766Y-104057234D01*
X168851766Y-104040000D01*
X168872766Y-104022766D01*
X169089579Y-103758578D01*
X169250686Y-103457168D01*
X169349895Y-103130119D01*
X169383394Y-102790000D01*
X169349895Y-102449881D01*
X169250686Y-102122832D01*
X169089579Y-101821422D01*
X168872766Y-101557234D01*
X168851766Y-101540000D01*
X168872766Y-101522766D01*
X169089579Y-101258578D01*
X169250686Y-100957168D01*
X169349895Y-100630119D01*
X169383394Y-100290000D01*
X169349895Y-99949881D01*
X169250686Y-99622832D01*
X169089579Y-99321422D01*
X168872766Y-99057234D01*
X168608578Y-98840421D01*
X168307168Y-98679314D01*
X167980119Y-98580105D01*
X167725225Y-98555000D01*
X86274775Y-98555000D01*
X86019881Y-98580105D01*
X85692832Y-98679314D01*
X85391422Y-98840421D01*
X85127234Y-99057234D01*
X84910421Y-99321422D01*
X84749314Y-99622832D01*
X84650105Y-99949881D01*
X84616606Y-100290000D01*
X76885000Y-100290000D01*
X76885000Y-93395000D01*
X173305000Y-93395000D01*
X173305001Y-132665000D01*
G37*
%TD.AperFunction*%
%TD*%
M02*
