M48
; DRILL file {KiCad (5.1.9)-1} date 11/24/21 00:24:39
; FORMAT={-:-/ absolute / inch / decimal}
; #@! TF.CreationDate,2021-11-24T00:24:39+00:00
; #@! TF.GenerationSoftware,Kicad,Pcbnew,(5.1.9)-1
FMAT,2
INCH
T1C0.0374
T2C0.0394
T3C0.0748
%
G90
G05
T1
X3.4Y-3.85
X3.4Y-3.9484
X3.4Y-4.0469
X3.4Y-4.1453
X3.4Y-4.2437
X4.1Y-3.85
X4.1Y-3.9484
X4.1Y-4.0469
X4.1Y-4.1453
X4.1Y-4.2437
X4.1Y-4.65
X4.1Y-4.7484
X4.1Y-4.8469
X4.1Y-4.9453
X4.1Y-5.0437
X4.6Y-3.85
X4.6Y-3.9484
X4.6Y-4.0469
X4.6Y-4.1453
X4.6Y-4.2437
X4.6Y-4.65
X4.6Y-4.7484
X4.6Y-4.8469
X4.6Y-4.9453
X4.6Y-5.0437
X5.1Y-3.85
X5.1Y-3.9484
X5.1Y-4.0469
X5.1Y-4.1453
X5.1Y-4.2437
X5.1Y-4.65
X5.1Y-4.7484
X5.1Y-4.8469
X5.1Y-4.9453
X5.1Y-5.0437
X5.6Y-3.85
X5.6Y-3.9484
X5.6Y-4.0469
X5.6Y-4.1453
X5.6Y-4.2437
X5.6Y-4.65
X5.6Y-4.7484
X5.6Y-4.8469
X5.6Y-4.9453
X5.6Y-5.0437
X6.1Y-3.85
X6.1Y-3.9484
X6.1Y-4.0469
X6.1Y-4.1453
X6.1Y-4.2437
X6.1Y-4.65
X6.1Y-4.7484
X6.1Y-4.8469
X6.1Y-4.9453
X6.1Y-5.0437
X6.6Y-3.85
X6.6Y-3.9484
X6.6Y-4.0469
X6.6Y-4.1453
X6.6Y-4.2437
X6.6Y-4.65
X6.6Y-4.7484
X6.6Y-4.8469
X6.6Y-4.9453
X6.6Y-5.0437
T2
X3.4031Y-4.635
X3.4031Y-5.0681
T3
X3.6Y-4.7531
X3.6Y-4.95
T0
M30
