%TF.GenerationSoftware,KiCad,Pcbnew,(5.1.9)-1*%
%TF.CreationDate,2021-11-24T00:24:37+00:00*%
%TF.ProjectId,4S parallel board,34532070-6172-4616-9c6c-656c20626f61,rev?*%
%TF.SameCoordinates,Original*%
%TF.FileFunction,Copper,L2,Bot*%
%TF.FilePolarity,Positive*%
%FSLAX46Y46*%
G04 Gerber Fmt 4.6, Leading zero omitted, Abs format (unit mm)*
G04 Created by KiCad (PCBNEW (5.1.9)-1) date 2021-11-24 00:24:37*
%MOMM*%
%LPD*%
G01*
G04 APERTURE LIST*
%TA.AperFunction,ComponentPad*%
%ADD10O,1.950000X1.700000*%
%TD*%
%TA.AperFunction,ComponentPad*%
%ADD11C,1.400000*%
%TD*%
%TA.AperFunction,ComponentPad*%
%ADD12R,3.500000X3.500000*%
%TD*%
%TA.AperFunction,ComponentPad*%
%ADD13C,3.500000*%
%TD*%
%TA.AperFunction,Conductor*%
%ADD14C,2.200000*%
%TD*%
%TA.AperFunction,Conductor*%
%ADD15C,0.254000*%
%TD*%
%TA.AperFunction,Conductor*%
%ADD16C,0.100000*%
%TD*%
G04 APERTURE END LIST*
%TO.P,J8,1*%
%TO.N,VCC*%
%TA.AperFunction,ComponentPad*%
G36*
G01*
X166915000Y-96940000D02*
X168365000Y-96940000D01*
G75*
G02*
X168615000Y-97190000I0J-250000D01*
G01*
X168615000Y-98390000D01*
G75*
G02*
X168365000Y-98640000I-250000J0D01*
G01*
X166915000Y-98640000D01*
G75*
G02*
X166665000Y-98390000I0J250000D01*
G01*
X166665000Y-97190000D01*
G75*
G02*
X166915000Y-96940000I250000J0D01*
G01*
G37*
%TD.AperFunction*%
D10*
%TO.P,J8,2*%
%TO.N,/B2*%
X167640000Y-100290000D03*
%TO.P,J8,3*%
%TO.N,/B3*%
X167640000Y-102790000D03*
%TO.P,J8,4*%
%TO.N,/B4*%
X167640000Y-105290000D03*
%TO.P,J8,5*%
%TO.N,GND*%
X167640000Y-107790000D03*
%TD*%
%TO.P,J14,1*%
%TO.N,VCC*%
%TA.AperFunction,ComponentPad*%
G36*
G01*
X166915000Y-117260000D02*
X168365000Y-117260000D01*
G75*
G02*
X168615000Y-117510000I0J-250000D01*
G01*
X168615000Y-118710000D01*
G75*
G02*
X168365000Y-118960000I-250000J0D01*
G01*
X166915000Y-118960000D01*
G75*
G02*
X166665000Y-118710000I0J250000D01*
G01*
X166665000Y-117510000D01*
G75*
G02*
X166915000Y-117260000I250000J0D01*
G01*
G37*
%TD.AperFunction*%
%TO.P,J14,2*%
%TO.N,/B2*%
X167640000Y-120610000D03*
%TO.P,J14,3*%
%TO.N,/B3*%
X167640000Y-123110000D03*
%TO.P,J14,4*%
%TO.N,/B4*%
X167640000Y-125610000D03*
%TO.P,J14,5*%
%TO.N,GND*%
X167640000Y-128110000D03*
%TD*%
%TO.P,J13,1*%
%TO.N,VCC*%
%TA.AperFunction,ComponentPad*%
G36*
G01*
X154215000Y-117260000D02*
X155665000Y-117260000D01*
G75*
G02*
X155915000Y-117510000I0J-250000D01*
G01*
X155915000Y-118710000D01*
G75*
G02*
X155665000Y-118960000I-250000J0D01*
G01*
X154215000Y-118960000D01*
G75*
G02*
X153965000Y-118710000I0J250000D01*
G01*
X153965000Y-117510000D01*
G75*
G02*
X154215000Y-117260000I250000J0D01*
G01*
G37*
%TD.AperFunction*%
%TO.P,J13,2*%
%TO.N,/B2*%
X154940000Y-120610000D03*
%TO.P,J13,3*%
%TO.N,/B3*%
X154940000Y-123110000D03*
%TO.P,J13,4*%
%TO.N,/B4*%
X154940000Y-125610000D03*
%TO.P,J13,5*%
%TO.N,GND*%
X154940000Y-128110000D03*
%TD*%
%TO.P,J12,1*%
%TO.N,VCC*%
%TA.AperFunction,ComponentPad*%
G36*
G01*
X141515000Y-117260000D02*
X142965000Y-117260000D01*
G75*
G02*
X143215000Y-117510000I0J-250000D01*
G01*
X143215000Y-118710000D01*
G75*
G02*
X142965000Y-118960000I-250000J0D01*
G01*
X141515000Y-118960000D01*
G75*
G02*
X141265000Y-118710000I0J250000D01*
G01*
X141265000Y-117510000D01*
G75*
G02*
X141515000Y-117260000I250000J0D01*
G01*
G37*
%TD.AperFunction*%
%TO.P,J12,2*%
%TO.N,/B2*%
X142240000Y-120610000D03*
%TO.P,J12,3*%
%TO.N,/B3*%
X142240000Y-123110000D03*
%TO.P,J12,4*%
%TO.N,/B4*%
X142240000Y-125610000D03*
%TO.P,J12,5*%
%TO.N,GND*%
X142240000Y-128110000D03*
%TD*%
%TO.P,J11,1*%
%TO.N,VCC*%
%TA.AperFunction,ComponentPad*%
G36*
G01*
X128815000Y-117260000D02*
X130265000Y-117260000D01*
G75*
G02*
X130515000Y-117510000I0J-250000D01*
G01*
X130515000Y-118710000D01*
G75*
G02*
X130265000Y-118960000I-250000J0D01*
G01*
X128815000Y-118960000D01*
G75*
G02*
X128565000Y-118710000I0J250000D01*
G01*
X128565000Y-117510000D01*
G75*
G02*
X128815000Y-117260000I250000J0D01*
G01*
G37*
%TD.AperFunction*%
%TO.P,J11,2*%
%TO.N,/B2*%
X129540000Y-120610000D03*
%TO.P,J11,3*%
%TO.N,/B3*%
X129540000Y-123110000D03*
%TO.P,J11,4*%
%TO.N,/B4*%
X129540000Y-125610000D03*
%TO.P,J11,5*%
%TO.N,GND*%
X129540000Y-128110000D03*
%TD*%
%TO.P,J10,1*%
%TO.N,VCC*%
%TA.AperFunction,ComponentPad*%
G36*
G01*
X116115000Y-117260000D02*
X117565000Y-117260000D01*
G75*
G02*
X117815000Y-117510000I0J-250000D01*
G01*
X117815000Y-118710000D01*
G75*
G02*
X117565000Y-118960000I-250000J0D01*
G01*
X116115000Y-118960000D01*
G75*
G02*
X115865000Y-118710000I0J250000D01*
G01*
X115865000Y-117510000D01*
G75*
G02*
X116115000Y-117260000I250000J0D01*
G01*
G37*
%TD.AperFunction*%
%TO.P,J10,2*%
%TO.N,/B2*%
X116840000Y-120610000D03*
%TO.P,J10,3*%
%TO.N,/B3*%
X116840000Y-123110000D03*
%TO.P,J10,4*%
%TO.N,/B4*%
X116840000Y-125610000D03*
%TO.P,J10,5*%
%TO.N,GND*%
X116840000Y-128110000D03*
%TD*%
%TO.P,J9,1*%
%TO.N,VCC*%
%TA.AperFunction,ComponentPad*%
G36*
G01*
X103415000Y-117260000D02*
X104865000Y-117260000D01*
G75*
G02*
X105115000Y-117510000I0J-250000D01*
G01*
X105115000Y-118710000D01*
G75*
G02*
X104865000Y-118960000I-250000J0D01*
G01*
X103415000Y-118960000D01*
G75*
G02*
X103165000Y-118710000I0J250000D01*
G01*
X103165000Y-117510000D01*
G75*
G02*
X103415000Y-117260000I250000J0D01*
G01*
G37*
%TD.AperFunction*%
%TO.P,J9,2*%
%TO.N,/B2*%
X104140000Y-120610000D03*
%TO.P,J9,3*%
%TO.N,/B3*%
X104140000Y-123110000D03*
%TO.P,J9,4*%
%TO.N,/B4*%
X104140000Y-125610000D03*
%TO.P,J9,5*%
%TO.N,GND*%
X104140000Y-128110000D03*
%TD*%
%TO.P,J7,1*%
%TO.N,VCC*%
%TA.AperFunction,ComponentPad*%
G36*
G01*
X154215000Y-96940000D02*
X155665000Y-96940000D01*
G75*
G02*
X155915000Y-97190000I0J-250000D01*
G01*
X155915000Y-98390000D01*
G75*
G02*
X155665000Y-98640000I-250000J0D01*
G01*
X154215000Y-98640000D01*
G75*
G02*
X153965000Y-98390000I0J250000D01*
G01*
X153965000Y-97190000D01*
G75*
G02*
X154215000Y-96940000I250000J0D01*
G01*
G37*
%TD.AperFunction*%
%TO.P,J7,2*%
%TO.N,/B2*%
X154940000Y-100290000D03*
%TO.P,J7,3*%
%TO.N,/B3*%
X154940000Y-102790000D03*
%TO.P,J7,4*%
%TO.N,/B4*%
X154940000Y-105290000D03*
%TO.P,J7,5*%
%TO.N,GND*%
X154940000Y-107790000D03*
%TD*%
%TO.P,J6,1*%
%TO.N,VCC*%
%TA.AperFunction,ComponentPad*%
G36*
G01*
X141515000Y-96940000D02*
X142965000Y-96940000D01*
G75*
G02*
X143215000Y-97190000I0J-250000D01*
G01*
X143215000Y-98390000D01*
G75*
G02*
X142965000Y-98640000I-250000J0D01*
G01*
X141515000Y-98640000D01*
G75*
G02*
X141265000Y-98390000I0J250000D01*
G01*
X141265000Y-97190000D01*
G75*
G02*
X141515000Y-96940000I250000J0D01*
G01*
G37*
%TD.AperFunction*%
%TO.P,J6,2*%
%TO.N,/B2*%
X142240000Y-100290000D03*
%TO.P,J6,3*%
%TO.N,/B3*%
X142240000Y-102790000D03*
%TO.P,J6,4*%
%TO.N,/B4*%
X142240000Y-105290000D03*
%TO.P,J6,5*%
%TO.N,GND*%
X142240000Y-107790000D03*
%TD*%
%TO.P,J5,1*%
%TO.N,VCC*%
%TA.AperFunction,ComponentPad*%
G36*
G01*
X128815000Y-96940000D02*
X130265000Y-96940000D01*
G75*
G02*
X130515000Y-97190000I0J-250000D01*
G01*
X130515000Y-98390000D01*
G75*
G02*
X130265000Y-98640000I-250000J0D01*
G01*
X128815000Y-98640000D01*
G75*
G02*
X128565000Y-98390000I0J250000D01*
G01*
X128565000Y-97190000D01*
G75*
G02*
X128815000Y-96940000I250000J0D01*
G01*
G37*
%TD.AperFunction*%
%TO.P,J5,2*%
%TO.N,/B2*%
X129540000Y-100290000D03*
%TO.P,J5,3*%
%TO.N,/B3*%
X129540000Y-102790000D03*
%TO.P,J5,4*%
%TO.N,/B4*%
X129540000Y-105290000D03*
%TO.P,J5,5*%
%TO.N,GND*%
X129540000Y-107790000D03*
%TD*%
%TO.P,J4,1*%
%TO.N,VCC*%
%TA.AperFunction,ComponentPad*%
G36*
G01*
X116115000Y-96940000D02*
X117565000Y-96940000D01*
G75*
G02*
X117815000Y-97190000I0J-250000D01*
G01*
X117815000Y-98390000D01*
G75*
G02*
X117565000Y-98640000I-250000J0D01*
G01*
X116115000Y-98640000D01*
G75*
G02*
X115865000Y-98390000I0J250000D01*
G01*
X115865000Y-97190000D01*
G75*
G02*
X116115000Y-96940000I250000J0D01*
G01*
G37*
%TD.AperFunction*%
%TO.P,J4,2*%
%TO.N,/B2*%
X116840000Y-100290000D03*
%TO.P,J4,3*%
%TO.N,/B3*%
X116840000Y-102790000D03*
%TO.P,J4,4*%
%TO.N,/B4*%
X116840000Y-105290000D03*
%TO.P,J4,5*%
%TO.N,GND*%
X116840000Y-107790000D03*
%TD*%
%TO.P,J3,1*%
%TO.N,VCC*%
%TA.AperFunction,ComponentPad*%
G36*
G01*
X103415000Y-96940000D02*
X104865000Y-96940000D01*
G75*
G02*
X105115000Y-97190000I0J-250000D01*
G01*
X105115000Y-98390000D01*
G75*
G02*
X104865000Y-98640000I-250000J0D01*
G01*
X103415000Y-98640000D01*
G75*
G02*
X103165000Y-98390000I0J250000D01*
G01*
X103165000Y-97190000D01*
G75*
G02*
X103415000Y-96940000I250000J0D01*
G01*
G37*
%TD.AperFunction*%
%TO.P,J3,2*%
%TO.N,/B2*%
X104140000Y-100290000D03*
%TO.P,J3,3*%
%TO.N,/B3*%
X104140000Y-102790000D03*
%TO.P,J3,4*%
%TO.N,/B4*%
X104140000Y-105290000D03*
%TO.P,J3,5*%
%TO.N,GND*%
X104140000Y-107790000D03*
%TD*%
%TO.P,J2,5*%
%TO.N,GND*%
X86360000Y-107790000D03*
%TO.P,J2,4*%
%TO.N,/B4*%
X86360000Y-105290000D03*
%TO.P,J2,3*%
%TO.N,/B3*%
X86360000Y-102790000D03*
%TO.P,J2,2*%
%TO.N,/B2*%
X86360000Y-100290000D03*
%TO.P,J2,1*%
%TO.N,VCC*%
%TA.AperFunction,ComponentPad*%
G36*
G01*
X85635000Y-96940000D02*
X87085000Y-96940000D01*
G75*
G02*
X87335000Y-97190000I0J-250000D01*
G01*
X87335000Y-98390000D01*
G75*
G02*
X87085000Y-98640000I-250000J0D01*
G01*
X85635000Y-98640000D01*
G75*
G02*
X85385000Y-98390000I0J250000D01*
G01*
X85385000Y-97190000D01*
G75*
G02*
X85635000Y-96940000I250000J0D01*
G01*
G37*
%TD.AperFunction*%
%TD*%
D11*
%TO.P,J1,*%
%TO.N,*%
X86440000Y-128730000D03*
X86440000Y-117730000D03*
D12*
%TO.P,J1,1*%
%TO.N,GND*%
X91440000Y-125730000D03*
D13*
%TO.P,J1,2*%
%TO.N,VCC*%
X91440000Y-120730000D03*
%TD*%
D14*
%TO.N,/B4*%
X90050000Y-105290000D02*
X86360000Y-105290000D01*
X95250000Y-110490000D02*
X90050000Y-105290000D01*
X95250000Y-120410000D02*
X95250000Y-110490000D01*
X100450000Y-125610000D02*
X95250000Y-120410000D01*
X104140000Y-125610000D02*
X100450000Y-125610000D01*
X104140000Y-105290000D02*
X167640000Y-105290000D01*
X104140000Y-125610000D02*
X167640000Y-125610000D01*
%TO.N,/B3*%
X90944126Y-102790000D02*
X97650010Y-109495884D01*
X86360000Y-102790000D02*
X90944126Y-102790000D01*
X97650010Y-109495884D02*
X97650010Y-119415884D01*
X101344126Y-123110000D02*
X97650010Y-119415884D01*
X104140000Y-123110000D02*
X101344126Y-123110000D01*
X167640000Y-102790000D02*
X104140000Y-102790000D01*
X167640000Y-123110000D02*
X104140000Y-123110000D01*
%TO.N,/B2*%
X104140000Y-120610000D02*
X102910000Y-120610000D01*
X91838252Y-100290000D02*
X86360000Y-100290000D01*
X100050019Y-108501767D02*
X91838252Y-100290000D01*
X100050020Y-118421768D02*
X100050019Y-108501767D01*
X104140000Y-100290000D02*
X167640000Y-100290000D01*
X102238252Y-120610000D02*
X100050020Y-118421768D01*
X104140000Y-120610000D02*
X102238252Y-120610000D01*
X104140000Y-120610000D02*
X167640000Y-120610000D01*
%TD*%
D15*
%TO.N,GND*%
X173305001Y-132665000D02*
X76885000Y-132665000D01*
X76885000Y-128598514D01*
X85105000Y-128598514D01*
X85105000Y-128861486D01*
X85156304Y-129119405D01*
X85256939Y-129362359D01*
X85403038Y-129581013D01*
X85588987Y-129766962D01*
X85807641Y-129913061D01*
X86050595Y-130013696D01*
X86308514Y-130065000D01*
X86571486Y-130065000D01*
X86829405Y-130013696D01*
X87072359Y-129913061D01*
X87291013Y-129766962D01*
X87476962Y-129581013D01*
X87623061Y-129362359D01*
X87723696Y-129119405D01*
X87775000Y-128861486D01*
X87775000Y-128598514D01*
X87723696Y-128340595D01*
X87623061Y-128097641D01*
X87476962Y-127878987D01*
X87291013Y-127693038D01*
X87072359Y-127546939D01*
X86829405Y-127446304D01*
X86571486Y-127395000D01*
X86308514Y-127395000D01*
X86050595Y-127446304D01*
X85807641Y-127546939D01*
X85588987Y-127693038D01*
X85403038Y-127878987D01*
X85256939Y-128097641D01*
X85156304Y-128340595D01*
X85105000Y-128598514D01*
X76885000Y-128598514D01*
X76885000Y-117598514D01*
X85105000Y-117598514D01*
X85105000Y-117861486D01*
X85156304Y-118119405D01*
X85256939Y-118362359D01*
X85403038Y-118581013D01*
X85588987Y-118766962D01*
X85807641Y-118913061D01*
X86050595Y-119013696D01*
X86308514Y-119065000D01*
X86571486Y-119065000D01*
X86829405Y-119013696D01*
X87072359Y-118913061D01*
X87291013Y-118766962D01*
X87476962Y-118581013D01*
X87623061Y-118362359D01*
X87723696Y-118119405D01*
X87775000Y-117861486D01*
X87775000Y-117598514D01*
X87723696Y-117340595D01*
X87623061Y-117097641D01*
X87476962Y-116878987D01*
X87291013Y-116693038D01*
X87072359Y-116546939D01*
X86829405Y-116446304D01*
X86571486Y-116395000D01*
X86308514Y-116395000D01*
X86050595Y-116446304D01*
X85807641Y-116546939D01*
X85588987Y-116693038D01*
X85403038Y-116878987D01*
X85256939Y-117097641D01*
X85156304Y-117340595D01*
X85105000Y-117598514D01*
X76885000Y-117598514D01*
X76885000Y-100290000D01*
X84616606Y-100290000D01*
X84650105Y-100630119D01*
X84749314Y-100957168D01*
X84910421Y-101258578D01*
X85127234Y-101522766D01*
X85148234Y-101540000D01*
X85127234Y-101557234D01*
X84910421Y-101821422D01*
X84749314Y-102122832D01*
X84650105Y-102449881D01*
X84616606Y-102790000D01*
X84650105Y-103130119D01*
X84749314Y-103457168D01*
X84910421Y-103758578D01*
X85127234Y-104022766D01*
X85148234Y-104040000D01*
X85127234Y-104057234D01*
X84910421Y-104321422D01*
X84749314Y-104622832D01*
X84650105Y-104949881D01*
X84616606Y-105290000D01*
X84650105Y-105630119D01*
X84749314Y-105957168D01*
X84910421Y-106258578D01*
X85127234Y-106522766D01*
X85391422Y-106739579D01*
X85692832Y-106900686D01*
X86019881Y-106999895D01*
X86274775Y-107025000D01*
X89331340Y-107025000D01*
X93515001Y-111208661D01*
X93515000Y-119542570D01*
X93292550Y-119209651D01*
X92960349Y-118877450D01*
X92569721Y-118616440D01*
X92135679Y-118436654D01*
X91674902Y-118345000D01*
X91205098Y-118345000D01*
X90744321Y-118436654D01*
X90310279Y-118616440D01*
X89919651Y-118877450D01*
X89587450Y-119209651D01*
X89326440Y-119600279D01*
X89146654Y-120034321D01*
X89055000Y-120495098D01*
X89055000Y-120964902D01*
X89146654Y-121425679D01*
X89326440Y-121859721D01*
X89587450Y-122250349D01*
X89919651Y-122582550D01*
X90310279Y-122843560D01*
X90744321Y-123023346D01*
X91205098Y-123115000D01*
X91674902Y-123115000D01*
X92135679Y-123023346D01*
X92569721Y-122843560D01*
X92960349Y-122582550D01*
X93292550Y-122250349D01*
X93553560Y-121859721D01*
X93733346Y-121425679D01*
X93758366Y-121299897D01*
X93800421Y-121378577D01*
X94017234Y-121642766D01*
X94083439Y-121697099D01*
X99162901Y-126776561D01*
X99217234Y-126842766D01*
X99481422Y-127059579D01*
X99782832Y-127220686D01*
X100109881Y-127319895D01*
X100450000Y-127353394D01*
X100535225Y-127345000D01*
X167725225Y-127345000D01*
X167980119Y-127319895D01*
X168307168Y-127220686D01*
X168608578Y-127059579D01*
X168872766Y-126842766D01*
X169089579Y-126578578D01*
X169250686Y-126277168D01*
X169349895Y-125950119D01*
X169383394Y-125610000D01*
X169349895Y-125269881D01*
X169250686Y-124942832D01*
X169089579Y-124641422D01*
X168872766Y-124377234D01*
X168851766Y-124360000D01*
X168872766Y-124342766D01*
X169089579Y-124078578D01*
X169250686Y-123777168D01*
X169349895Y-123450119D01*
X169383394Y-123110000D01*
X169349895Y-122769881D01*
X169250686Y-122442832D01*
X169089579Y-122141422D01*
X168872766Y-121877234D01*
X168851766Y-121860000D01*
X168872766Y-121842766D01*
X169089579Y-121578578D01*
X169250686Y-121277168D01*
X169349895Y-120950119D01*
X169383394Y-120610000D01*
X169349895Y-120269881D01*
X169250686Y-119942832D01*
X169089579Y-119641422D01*
X168901881Y-119412710D01*
X168992962Y-119337962D01*
X169103405Y-119203386D01*
X169185472Y-119049850D01*
X169236008Y-118883254D01*
X169253072Y-118710000D01*
X169253072Y-117510000D01*
X169236008Y-117336746D01*
X169185472Y-117170150D01*
X169103405Y-117016614D01*
X168992962Y-116882038D01*
X168858386Y-116771595D01*
X168704850Y-116689528D01*
X168538254Y-116638992D01*
X168365000Y-116621928D01*
X166915000Y-116621928D01*
X166741746Y-116638992D01*
X166575150Y-116689528D01*
X166421614Y-116771595D01*
X166287038Y-116882038D01*
X166176595Y-117016614D01*
X166094528Y-117170150D01*
X166043992Y-117336746D01*
X166026928Y-117510000D01*
X166026928Y-118710000D01*
X166043179Y-118875000D01*
X156536821Y-118875000D01*
X156553072Y-118710000D01*
X156553072Y-117510000D01*
X156536008Y-117336746D01*
X156485472Y-117170150D01*
X156403405Y-117016614D01*
X156292962Y-116882038D01*
X156158386Y-116771595D01*
X156004850Y-116689528D01*
X155838254Y-116638992D01*
X155665000Y-116621928D01*
X154215000Y-116621928D01*
X154041746Y-116638992D01*
X153875150Y-116689528D01*
X153721614Y-116771595D01*
X153587038Y-116882038D01*
X153476595Y-117016614D01*
X153394528Y-117170150D01*
X153343992Y-117336746D01*
X153326928Y-117510000D01*
X153326928Y-118710000D01*
X153343179Y-118875000D01*
X143836821Y-118875000D01*
X143853072Y-118710000D01*
X143853072Y-117510000D01*
X143836008Y-117336746D01*
X143785472Y-117170150D01*
X143703405Y-117016614D01*
X143592962Y-116882038D01*
X143458386Y-116771595D01*
X143304850Y-116689528D01*
X143138254Y-116638992D01*
X142965000Y-116621928D01*
X141515000Y-116621928D01*
X141341746Y-116638992D01*
X141175150Y-116689528D01*
X141021614Y-116771595D01*
X140887038Y-116882038D01*
X140776595Y-117016614D01*
X140694528Y-117170150D01*
X140643992Y-117336746D01*
X140626928Y-117510000D01*
X140626928Y-118710000D01*
X140643179Y-118875000D01*
X131136821Y-118875000D01*
X131153072Y-118710000D01*
X131153072Y-117510000D01*
X131136008Y-117336746D01*
X131085472Y-117170150D01*
X131003405Y-117016614D01*
X130892962Y-116882038D01*
X130758386Y-116771595D01*
X130604850Y-116689528D01*
X130438254Y-116638992D01*
X130265000Y-116621928D01*
X128815000Y-116621928D01*
X128641746Y-116638992D01*
X128475150Y-116689528D01*
X128321614Y-116771595D01*
X128187038Y-116882038D01*
X128076595Y-117016614D01*
X127994528Y-117170150D01*
X127943992Y-117336746D01*
X127926928Y-117510000D01*
X127926928Y-118710000D01*
X127943179Y-118875000D01*
X118436821Y-118875000D01*
X118453072Y-118710000D01*
X118453072Y-117510000D01*
X118436008Y-117336746D01*
X118385472Y-117170150D01*
X118303405Y-117016614D01*
X118192962Y-116882038D01*
X118058386Y-116771595D01*
X117904850Y-116689528D01*
X117738254Y-116638992D01*
X117565000Y-116621928D01*
X116115000Y-116621928D01*
X115941746Y-116638992D01*
X115775150Y-116689528D01*
X115621614Y-116771595D01*
X115487038Y-116882038D01*
X115376595Y-117016614D01*
X115294528Y-117170150D01*
X115243992Y-117336746D01*
X115226928Y-117510000D01*
X115226928Y-118710000D01*
X115243179Y-118875000D01*
X105736821Y-118875000D01*
X105753072Y-118710000D01*
X105753072Y-117510000D01*
X105736008Y-117336746D01*
X105685472Y-117170150D01*
X105603405Y-117016614D01*
X105492962Y-116882038D01*
X105358386Y-116771595D01*
X105204850Y-116689528D01*
X105038254Y-116638992D01*
X104865000Y-116621928D01*
X103415000Y-116621928D01*
X103241746Y-116638992D01*
X103075150Y-116689528D01*
X102921614Y-116771595D01*
X102787038Y-116882038D01*
X102676595Y-117016614D01*
X102594528Y-117170150D01*
X102543992Y-117336746D01*
X102526928Y-117510000D01*
X102526928Y-118445015D01*
X101785020Y-117703108D01*
X101785018Y-108587001D01*
X101793413Y-108501766D01*
X101759914Y-108161647D01*
X101660704Y-107834598D01*
X101499597Y-107533188D01*
X101337112Y-107335199D01*
X101337107Y-107335194D01*
X101282784Y-107269001D01*
X101216591Y-107214678D01*
X94291913Y-100290000D01*
X102396606Y-100290000D01*
X102430105Y-100630119D01*
X102529314Y-100957168D01*
X102690421Y-101258578D01*
X102907234Y-101522766D01*
X102928234Y-101540000D01*
X102907234Y-101557234D01*
X102690421Y-101821422D01*
X102529314Y-102122832D01*
X102430105Y-102449881D01*
X102396606Y-102790000D01*
X102430105Y-103130119D01*
X102529314Y-103457168D01*
X102690421Y-103758578D01*
X102907234Y-104022766D01*
X102928234Y-104040000D01*
X102907234Y-104057234D01*
X102690421Y-104321422D01*
X102529314Y-104622832D01*
X102430105Y-104949881D01*
X102396606Y-105290000D01*
X102430105Y-105630119D01*
X102529314Y-105957168D01*
X102690421Y-106258578D01*
X102907234Y-106522766D01*
X103171422Y-106739579D01*
X103472832Y-106900686D01*
X103799881Y-106999895D01*
X104054775Y-107025000D01*
X167725225Y-107025000D01*
X167980119Y-106999895D01*
X168307168Y-106900686D01*
X168608578Y-106739579D01*
X168872766Y-106522766D01*
X169089579Y-106258578D01*
X169250686Y-105957168D01*
X169349895Y-105630119D01*
X169383394Y-105290000D01*
X169349895Y-104949881D01*
X169250686Y-104622832D01*
X169089579Y-104321422D01*
X168872766Y-104057234D01*
X168851766Y-104040000D01*
X168872766Y-104022766D01*
X169089579Y-103758578D01*
X169250686Y-103457168D01*
X169349895Y-103130119D01*
X169383394Y-102790000D01*
X169349895Y-102449881D01*
X169250686Y-102122832D01*
X169089579Y-101821422D01*
X168872766Y-101557234D01*
X168851766Y-101540000D01*
X168872766Y-101522766D01*
X169089579Y-101258578D01*
X169250686Y-100957168D01*
X169349895Y-100630119D01*
X169383394Y-100290000D01*
X169349895Y-99949881D01*
X169250686Y-99622832D01*
X169089579Y-99321422D01*
X168901881Y-99092710D01*
X168992962Y-99017962D01*
X169103405Y-98883386D01*
X169185472Y-98729850D01*
X169236008Y-98563254D01*
X169253072Y-98390000D01*
X169253072Y-97190000D01*
X169236008Y-97016746D01*
X169185472Y-96850150D01*
X169103405Y-96696614D01*
X168992962Y-96562038D01*
X168858386Y-96451595D01*
X168704850Y-96369528D01*
X168538254Y-96318992D01*
X168365000Y-96301928D01*
X166915000Y-96301928D01*
X166741746Y-96318992D01*
X166575150Y-96369528D01*
X166421614Y-96451595D01*
X166287038Y-96562038D01*
X166176595Y-96696614D01*
X166094528Y-96850150D01*
X166043992Y-97016746D01*
X166026928Y-97190000D01*
X166026928Y-98390000D01*
X166043179Y-98555000D01*
X156536821Y-98555000D01*
X156553072Y-98390000D01*
X156553072Y-97190000D01*
X156536008Y-97016746D01*
X156485472Y-96850150D01*
X156403405Y-96696614D01*
X156292962Y-96562038D01*
X156158386Y-96451595D01*
X156004850Y-96369528D01*
X155838254Y-96318992D01*
X155665000Y-96301928D01*
X154215000Y-96301928D01*
X154041746Y-96318992D01*
X153875150Y-96369528D01*
X153721614Y-96451595D01*
X153587038Y-96562038D01*
X153476595Y-96696614D01*
X153394528Y-96850150D01*
X153343992Y-97016746D01*
X153326928Y-97190000D01*
X153326928Y-98390000D01*
X153343179Y-98555000D01*
X143836821Y-98555000D01*
X143853072Y-98390000D01*
X143853072Y-97190000D01*
X143836008Y-97016746D01*
X143785472Y-96850150D01*
X143703405Y-96696614D01*
X143592962Y-96562038D01*
X143458386Y-96451595D01*
X143304850Y-96369528D01*
X143138254Y-96318992D01*
X142965000Y-96301928D01*
X141515000Y-96301928D01*
X141341746Y-96318992D01*
X141175150Y-96369528D01*
X141021614Y-96451595D01*
X140887038Y-96562038D01*
X140776595Y-96696614D01*
X140694528Y-96850150D01*
X140643992Y-97016746D01*
X140626928Y-97190000D01*
X140626928Y-98390000D01*
X140643179Y-98555000D01*
X131136821Y-98555000D01*
X131153072Y-98390000D01*
X131153072Y-97190000D01*
X131136008Y-97016746D01*
X131085472Y-96850150D01*
X131003405Y-96696614D01*
X130892962Y-96562038D01*
X130758386Y-96451595D01*
X130604850Y-96369528D01*
X130438254Y-96318992D01*
X130265000Y-96301928D01*
X128815000Y-96301928D01*
X128641746Y-96318992D01*
X128475150Y-96369528D01*
X128321614Y-96451595D01*
X128187038Y-96562038D01*
X128076595Y-96696614D01*
X127994528Y-96850150D01*
X127943992Y-97016746D01*
X127926928Y-97190000D01*
X127926928Y-98390000D01*
X127943179Y-98555000D01*
X118436821Y-98555000D01*
X118453072Y-98390000D01*
X118453072Y-97190000D01*
X118436008Y-97016746D01*
X118385472Y-96850150D01*
X118303405Y-96696614D01*
X118192962Y-96562038D01*
X118058386Y-96451595D01*
X117904850Y-96369528D01*
X117738254Y-96318992D01*
X117565000Y-96301928D01*
X116115000Y-96301928D01*
X115941746Y-96318992D01*
X115775150Y-96369528D01*
X115621614Y-96451595D01*
X115487038Y-96562038D01*
X115376595Y-96696614D01*
X115294528Y-96850150D01*
X115243992Y-97016746D01*
X115226928Y-97190000D01*
X115226928Y-98390000D01*
X115243179Y-98555000D01*
X105736821Y-98555000D01*
X105753072Y-98390000D01*
X105753072Y-97190000D01*
X105736008Y-97016746D01*
X105685472Y-96850150D01*
X105603405Y-96696614D01*
X105492962Y-96562038D01*
X105358386Y-96451595D01*
X105204850Y-96369528D01*
X105038254Y-96318992D01*
X104865000Y-96301928D01*
X103415000Y-96301928D01*
X103241746Y-96318992D01*
X103075150Y-96369528D01*
X102921614Y-96451595D01*
X102787038Y-96562038D01*
X102676595Y-96696614D01*
X102594528Y-96850150D01*
X102543992Y-97016746D01*
X102526928Y-97190000D01*
X102526928Y-98390000D01*
X102543992Y-98563254D01*
X102594528Y-98729850D01*
X102676595Y-98883386D01*
X102787038Y-99017962D01*
X102878119Y-99092710D01*
X102690421Y-99321422D01*
X102529314Y-99622832D01*
X102430105Y-99949881D01*
X102396606Y-100290000D01*
X94291913Y-100290000D01*
X93125350Y-99123438D01*
X93071018Y-99057234D01*
X92806830Y-98840421D01*
X92505420Y-98679314D01*
X92178371Y-98580105D01*
X91923477Y-98555000D01*
X91838252Y-98546606D01*
X91753027Y-98555000D01*
X87956821Y-98555000D01*
X87973072Y-98390000D01*
X87973072Y-97190000D01*
X87956008Y-97016746D01*
X87905472Y-96850150D01*
X87823405Y-96696614D01*
X87712962Y-96562038D01*
X87578386Y-96451595D01*
X87424850Y-96369528D01*
X87258254Y-96318992D01*
X87085000Y-96301928D01*
X85635000Y-96301928D01*
X85461746Y-96318992D01*
X85295150Y-96369528D01*
X85141614Y-96451595D01*
X85007038Y-96562038D01*
X84896595Y-96696614D01*
X84814528Y-96850150D01*
X84763992Y-97016746D01*
X84746928Y-97190000D01*
X84746928Y-98390000D01*
X84763992Y-98563254D01*
X84814528Y-98729850D01*
X84896595Y-98883386D01*
X85007038Y-99017962D01*
X85098119Y-99092710D01*
X84910421Y-99321422D01*
X84749314Y-99622832D01*
X84650105Y-99949881D01*
X84616606Y-100290000D01*
X76885000Y-100290000D01*
X76885000Y-93395000D01*
X173305000Y-93395000D01*
X173305001Y-132665000D01*
%TA.AperFunction,Conductor*%
D16*
G36*
X173305001Y-132665000D02*
G01*
X76885000Y-132665000D01*
X76885000Y-128598514D01*
X85105000Y-128598514D01*
X85105000Y-128861486D01*
X85156304Y-129119405D01*
X85256939Y-129362359D01*
X85403038Y-129581013D01*
X85588987Y-129766962D01*
X85807641Y-129913061D01*
X86050595Y-130013696D01*
X86308514Y-130065000D01*
X86571486Y-130065000D01*
X86829405Y-130013696D01*
X87072359Y-129913061D01*
X87291013Y-129766962D01*
X87476962Y-129581013D01*
X87623061Y-129362359D01*
X87723696Y-129119405D01*
X87775000Y-128861486D01*
X87775000Y-128598514D01*
X87723696Y-128340595D01*
X87623061Y-128097641D01*
X87476962Y-127878987D01*
X87291013Y-127693038D01*
X87072359Y-127546939D01*
X86829405Y-127446304D01*
X86571486Y-127395000D01*
X86308514Y-127395000D01*
X86050595Y-127446304D01*
X85807641Y-127546939D01*
X85588987Y-127693038D01*
X85403038Y-127878987D01*
X85256939Y-128097641D01*
X85156304Y-128340595D01*
X85105000Y-128598514D01*
X76885000Y-128598514D01*
X76885000Y-117598514D01*
X85105000Y-117598514D01*
X85105000Y-117861486D01*
X85156304Y-118119405D01*
X85256939Y-118362359D01*
X85403038Y-118581013D01*
X85588987Y-118766962D01*
X85807641Y-118913061D01*
X86050595Y-119013696D01*
X86308514Y-119065000D01*
X86571486Y-119065000D01*
X86829405Y-119013696D01*
X87072359Y-118913061D01*
X87291013Y-118766962D01*
X87476962Y-118581013D01*
X87623061Y-118362359D01*
X87723696Y-118119405D01*
X87775000Y-117861486D01*
X87775000Y-117598514D01*
X87723696Y-117340595D01*
X87623061Y-117097641D01*
X87476962Y-116878987D01*
X87291013Y-116693038D01*
X87072359Y-116546939D01*
X86829405Y-116446304D01*
X86571486Y-116395000D01*
X86308514Y-116395000D01*
X86050595Y-116446304D01*
X85807641Y-116546939D01*
X85588987Y-116693038D01*
X85403038Y-116878987D01*
X85256939Y-117097641D01*
X85156304Y-117340595D01*
X85105000Y-117598514D01*
X76885000Y-117598514D01*
X76885000Y-100290000D01*
X84616606Y-100290000D01*
X84650105Y-100630119D01*
X84749314Y-100957168D01*
X84910421Y-101258578D01*
X85127234Y-101522766D01*
X85148234Y-101540000D01*
X85127234Y-101557234D01*
X84910421Y-101821422D01*
X84749314Y-102122832D01*
X84650105Y-102449881D01*
X84616606Y-102790000D01*
X84650105Y-103130119D01*
X84749314Y-103457168D01*
X84910421Y-103758578D01*
X85127234Y-104022766D01*
X85148234Y-104040000D01*
X85127234Y-104057234D01*
X84910421Y-104321422D01*
X84749314Y-104622832D01*
X84650105Y-104949881D01*
X84616606Y-105290000D01*
X84650105Y-105630119D01*
X84749314Y-105957168D01*
X84910421Y-106258578D01*
X85127234Y-106522766D01*
X85391422Y-106739579D01*
X85692832Y-106900686D01*
X86019881Y-106999895D01*
X86274775Y-107025000D01*
X89331340Y-107025000D01*
X93515001Y-111208661D01*
X93515000Y-119542570D01*
X93292550Y-119209651D01*
X92960349Y-118877450D01*
X92569721Y-118616440D01*
X92135679Y-118436654D01*
X91674902Y-118345000D01*
X91205098Y-118345000D01*
X90744321Y-118436654D01*
X90310279Y-118616440D01*
X89919651Y-118877450D01*
X89587450Y-119209651D01*
X89326440Y-119600279D01*
X89146654Y-120034321D01*
X89055000Y-120495098D01*
X89055000Y-120964902D01*
X89146654Y-121425679D01*
X89326440Y-121859721D01*
X89587450Y-122250349D01*
X89919651Y-122582550D01*
X90310279Y-122843560D01*
X90744321Y-123023346D01*
X91205098Y-123115000D01*
X91674902Y-123115000D01*
X92135679Y-123023346D01*
X92569721Y-122843560D01*
X92960349Y-122582550D01*
X93292550Y-122250349D01*
X93553560Y-121859721D01*
X93733346Y-121425679D01*
X93758366Y-121299897D01*
X93800421Y-121378577D01*
X94017234Y-121642766D01*
X94083439Y-121697099D01*
X99162901Y-126776561D01*
X99217234Y-126842766D01*
X99481422Y-127059579D01*
X99782832Y-127220686D01*
X100109881Y-127319895D01*
X100450000Y-127353394D01*
X100535225Y-127345000D01*
X167725225Y-127345000D01*
X167980119Y-127319895D01*
X168307168Y-127220686D01*
X168608578Y-127059579D01*
X168872766Y-126842766D01*
X169089579Y-126578578D01*
X169250686Y-126277168D01*
X169349895Y-125950119D01*
X169383394Y-125610000D01*
X169349895Y-125269881D01*
X169250686Y-124942832D01*
X169089579Y-124641422D01*
X168872766Y-124377234D01*
X168851766Y-124360000D01*
X168872766Y-124342766D01*
X169089579Y-124078578D01*
X169250686Y-123777168D01*
X169349895Y-123450119D01*
X169383394Y-123110000D01*
X169349895Y-122769881D01*
X169250686Y-122442832D01*
X169089579Y-122141422D01*
X168872766Y-121877234D01*
X168851766Y-121860000D01*
X168872766Y-121842766D01*
X169089579Y-121578578D01*
X169250686Y-121277168D01*
X169349895Y-120950119D01*
X169383394Y-120610000D01*
X169349895Y-120269881D01*
X169250686Y-119942832D01*
X169089579Y-119641422D01*
X168901881Y-119412710D01*
X168992962Y-119337962D01*
X169103405Y-119203386D01*
X169185472Y-119049850D01*
X169236008Y-118883254D01*
X169253072Y-118710000D01*
X169253072Y-117510000D01*
X169236008Y-117336746D01*
X169185472Y-117170150D01*
X169103405Y-117016614D01*
X168992962Y-116882038D01*
X168858386Y-116771595D01*
X168704850Y-116689528D01*
X168538254Y-116638992D01*
X168365000Y-116621928D01*
X166915000Y-116621928D01*
X166741746Y-116638992D01*
X166575150Y-116689528D01*
X166421614Y-116771595D01*
X166287038Y-116882038D01*
X166176595Y-117016614D01*
X166094528Y-117170150D01*
X166043992Y-117336746D01*
X166026928Y-117510000D01*
X166026928Y-118710000D01*
X166043179Y-118875000D01*
X156536821Y-118875000D01*
X156553072Y-118710000D01*
X156553072Y-117510000D01*
X156536008Y-117336746D01*
X156485472Y-117170150D01*
X156403405Y-117016614D01*
X156292962Y-116882038D01*
X156158386Y-116771595D01*
X156004850Y-116689528D01*
X155838254Y-116638992D01*
X155665000Y-116621928D01*
X154215000Y-116621928D01*
X154041746Y-116638992D01*
X153875150Y-116689528D01*
X153721614Y-116771595D01*
X153587038Y-116882038D01*
X153476595Y-117016614D01*
X153394528Y-117170150D01*
X153343992Y-117336746D01*
X153326928Y-117510000D01*
X153326928Y-118710000D01*
X153343179Y-118875000D01*
X143836821Y-118875000D01*
X143853072Y-118710000D01*
X143853072Y-117510000D01*
X143836008Y-117336746D01*
X143785472Y-117170150D01*
X143703405Y-117016614D01*
X143592962Y-116882038D01*
X143458386Y-116771595D01*
X143304850Y-116689528D01*
X143138254Y-116638992D01*
X142965000Y-116621928D01*
X141515000Y-116621928D01*
X141341746Y-116638992D01*
X141175150Y-116689528D01*
X141021614Y-116771595D01*
X140887038Y-116882038D01*
X140776595Y-117016614D01*
X140694528Y-117170150D01*
X140643992Y-117336746D01*
X140626928Y-117510000D01*
X140626928Y-118710000D01*
X140643179Y-118875000D01*
X131136821Y-118875000D01*
X131153072Y-118710000D01*
X131153072Y-117510000D01*
X131136008Y-117336746D01*
X131085472Y-117170150D01*
X131003405Y-117016614D01*
X130892962Y-116882038D01*
X130758386Y-116771595D01*
X130604850Y-116689528D01*
X130438254Y-116638992D01*
X130265000Y-116621928D01*
X128815000Y-116621928D01*
X128641746Y-116638992D01*
X128475150Y-116689528D01*
X128321614Y-116771595D01*
X128187038Y-116882038D01*
X128076595Y-117016614D01*
X127994528Y-117170150D01*
X127943992Y-117336746D01*
X127926928Y-117510000D01*
X127926928Y-118710000D01*
X127943179Y-118875000D01*
X118436821Y-118875000D01*
X118453072Y-118710000D01*
X118453072Y-117510000D01*
X118436008Y-117336746D01*
X118385472Y-117170150D01*
X118303405Y-117016614D01*
X118192962Y-116882038D01*
X118058386Y-116771595D01*
X117904850Y-116689528D01*
X117738254Y-116638992D01*
X117565000Y-116621928D01*
X116115000Y-116621928D01*
X115941746Y-116638992D01*
X115775150Y-116689528D01*
X115621614Y-116771595D01*
X115487038Y-116882038D01*
X115376595Y-117016614D01*
X115294528Y-117170150D01*
X115243992Y-117336746D01*
X115226928Y-117510000D01*
X115226928Y-118710000D01*
X115243179Y-118875000D01*
X105736821Y-118875000D01*
X105753072Y-118710000D01*
X105753072Y-117510000D01*
X105736008Y-117336746D01*
X105685472Y-117170150D01*
X105603405Y-117016614D01*
X105492962Y-116882038D01*
X105358386Y-116771595D01*
X105204850Y-116689528D01*
X105038254Y-116638992D01*
X104865000Y-116621928D01*
X103415000Y-116621928D01*
X103241746Y-116638992D01*
X103075150Y-116689528D01*
X102921614Y-116771595D01*
X102787038Y-116882038D01*
X102676595Y-117016614D01*
X102594528Y-117170150D01*
X102543992Y-117336746D01*
X102526928Y-117510000D01*
X102526928Y-118445015D01*
X101785020Y-117703108D01*
X101785018Y-108587001D01*
X101793413Y-108501766D01*
X101759914Y-108161647D01*
X101660704Y-107834598D01*
X101499597Y-107533188D01*
X101337112Y-107335199D01*
X101337107Y-107335194D01*
X101282784Y-107269001D01*
X101216591Y-107214678D01*
X94291913Y-100290000D01*
X102396606Y-100290000D01*
X102430105Y-100630119D01*
X102529314Y-100957168D01*
X102690421Y-101258578D01*
X102907234Y-101522766D01*
X102928234Y-101540000D01*
X102907234Y-101557234D01*
X102690421Y-101821422D01*
X102529314Y-102122832D01*
X102430105Y-102449881D01*
X102396606Y-102790000D01*
X102430105Y-103130119D01*
X102529314Y-103457168D01*
X102690421Y-103758578D01*
X102907234Y-104022766D01*
X102928234Y-104040000D01*
X102907234Y-104057234D01*
X102690421Y-104321422D01*
X102529314Y-104622832D01*
X102430105Y-104949881D01*
X102396606Y-105290000D01*
X102430105Y-105630119D01*
X102529314Y-105957168D01*
X102690421Y-106258578D01*
X102907234Y-106522766D01*
X103171422Y-106739579D01*
X103472832Y-106900686D01*
X103799881Y-106999895D01*
X104054775Y-107025000D01*
X167725225Y-107025000D01*
X167980119Y-106999895D01*
X168307168Y-106900686D01*
X168608578Y-106739579D01*
X168872766Y-106522766D01*
X169089579Y-106258578D01*
X169250686Y-105957168D01*
X169349895Y-105630119D01*
X169383394Y-105290000D01*
X169349895Y-104949881D01*
X169250686Y-104622832D01*
X169089579Y-104321422D01*
X168872766Y-104057234D01*
X168851766Y-104040000D01*
X168872766Y-104022766D01*
X169089579Y-103758578D01*
X169250686Y-103457168D01*
X169349895Y-103130119D01*
X169383394Y-102790000D01*
X169349895Y-102449881D01*
X169250686Y-102122832D01*
X169089579Y-101821422D01*
X168872766Y-101557234D01*
X168851766Y-101540000D01*
X168872766Y-101522766D01*
X169089579Y-101258578D01*
X169250686Y-100957168D01*
X169349895Y-100630119D01*
X169383394Y-100290000D01*
X169349895Y-99949881D01*
X169250686Y-99622832D01*
X169089579Y-99321422D01*
X168901881Y-99092710D01*
X168992962Y-99017962D01*
X169103405Y-98883386D01*
X169185472Y-98729850D01*
X169236008Y-98563254D01*
X169253072Y-98390000D01*
X169253072Y-97190000D01*
X169236008Y-97016746D01*
X169185472Y-96850150D01*
X169103405Y-96696614D01*
X168992962Y-96562038D01*
X168858386Y-96451595D01*
X168704850Y-96369528D01*
X168538254Y-96318992D01*
X168365000Y-96301928D01*
X166915000Y-96301928D01*
X166741746Y-96318992D01*
X166575150Y-96369528D01*
X166421614Y-96451595D01*
X166287038Y-96562038D01*
X166176595Y-96696614D01*
X166094528Y-96850150D01*
X166043992Y-97016746D01*
X166026928Y-97190000D01*
X166026928Y-98390000D01*
X166043179Y-98555000D01*
X156536821Y-98555000D01*
X156553072Y-98390000D01*
X156553072Y-97190000D01*
X156536008Y-97016746D01*
X156485472Y-96850150D01*
X156403405Y-96696614D01*
X156292962Y-96562038D01*
X156158386Y-96451595D01*
X156004850Y-96369528D01*
X155838254Y-96318992D01*
X155665000Y-96301928D01*
X154215000Y-96301928D01*
X154041746Y-96318992D01*
X153875150Y-96369528D01*
X153721614Y-96451595D01*
X153587038Y-96562038D01*
X153476595Y-96696614D01*
X153394528Y-96850150D01*
X153343992Y-97016746D01*
X153326928Y-97190000D01*
X153326928Y-98390000D01*
X153343179Y-98555000D01*
X143836821Y-98555000D01*
X143853072Y-98390000D01*
X143853072Y-97190000D01*
X143836008Y-97016746D01*
X143785472Y-96850150D01*
X143703405Y-96696614D01*
X143592962Y-96562038D01*
X143458386Y-96451595D01*
X143304850Y-96369528D01*
X143138254Y-96318992D01*
X142965000Y-96301928D01*
X141515000Y-96301928D01*
X141341746Y-96318992D01*
X141175150Y-96369528D01*
X141021614Y-96451595D01*
X140887038Y-96562038D01*
X140776595Y-96696614D01*
X140694528Y-96850150D01*
X140643992Y-97016746D01*
X140626928Y-97190000D01*
X140626928Y-98390000D01*
X140643179Y-98555000D01*
X131136821Y-98555000D01*
X131153072Y-98390000D01*
X131153072Y-97190000D01*
X131136008Y-97016746D01*
X131085472Y-96850150D01*
X131003405Y-96696614D01*
X130892962Y-96562038D01*
X130758386Y-96451595D01*
X130604850Y-96369528D01*
X130438254Y-96318992D01*
X130265000Y-96301928D01*
X128815000Y-96301928D01*
X128641746Y-96318992D01*
X128475150Y-96369528D01*
X128321614Y-96451595D01*
X128187038Y-96562038D01*
X128076595Y-96696614D01*
X127994528Y-96850150D01*
X127943992Y-97016746D01*
X127926928Y-97190000D01*
X127926928Y-98390000D01*
X127943179Y-98555000D01*
X118436821Y-98555000D01*
X118453072Y-98390000D01*
X118453072Y-97190000D01*
X118436008Y-97016746D01*
X118385472Y-96850150D01*
X118303405Y-96696614D01*
X118192962Y-96562038D01*
X118058386Y-96451595D01*
X117904850Y-96369528D01*
X117738254Y-96318992D01*
X117565000Y-96301928D01*
X116115000Y-96301928D01*
X115941746Y-96318992D01*
X115775150Y-96369528D01*
X115621614Y-96451595D01*
X115487038Y-96562038D01*
X115376595Y-96696614D01*
X115294528Y-96850150D01*
X115243992Y-97016746D01*
X115226928Y-97190000D01*
X115226928Y-98390000D01*
X115243179Y-98555000D01*
X105736821Y-98555000D01*
X105753072Y-98390000D01*
X105753072Y-97190000D01*
X105736008Y-97016746D01*
X105685472Y-96850150D01*
X105603405Y-96696614D01*
X105492962Y-96562038D01*
X105358386Y-96451595D01*
X105204850Y-96369528D01*
X105038254Y-96318992D01*
X104865000Y-96301928D01*
X103415000Y-96301928D01*
X103241746Y-96318992D01*
X103075150Y-96369528D01*
X102921614Y-96451595D01*
X102787038Y-96562038D01*
X102676595Y-96696614D01*
X102594528Y-96850150D01*
X102543992Y-97016746D01*
X102526928Y-97190000D01*
X102526928Y-98390000D01*
X102543992Y-98563254D01*
X102594528Y-98729850D01*
X102676595Y-98883386D01*
X102787038Y-99017962D01*
X102878119Y-99092710D01*
X102690421Y-99321422D01*
X102529314Y-99622832D01*
X102430105Y-99949881D01*
X102396606Y-100290000D01*
X94291913Y-100290000D01*
X93125350Y-99123438D01*
X93071018Y-99057234D01*
X92806830Y-98840421D01*
X92505420Y-98679314D01*
X92178371Y-98580105D01*
X91923477Y-98555000D01*
X91838252Y-98546606D01*
X91753027Y-98555000D01*
X87956821Y-98555000D01*
X87973072Y-98390000D01*
X87973072Y-97190000D01*
X87956008Y-97016746D01*
X87905472Y-96850150D01*
X87823405Y-96696614D01*
X87712962Y-96562038D01*
X87578386Y-96451595D01*
X87424850Y-96369528D01*
X87258254Y-96318992D01*
X87085000Y-96301928D01*
X85635000Y-96301928D01*
X85461746Y-96318992D01*
X85295150Y-96369528D01*
X85141614Y-96451595D01*
X85007038Y-96562038D01*
X84896595Y-96696614D01*
X84814528Y-96850150D01*
X84763992Y-97016746D01*
X84746928Y-97190000D01*
X84746928Y-98390000D01*
X84763992Y-98563254D01*
X84814528Y-98729850D01*
X84896595Y-98883386D01*
X85007038Y-99017962D01*
X85098119Y-99092710D01*
X84910421Y-99321422D01*
X84749314Y-99622832D01*
X84650105Y-99949881D01*
X84616606Y-100290000D01*
X76885000Y-100290000D01*
X76885000Y-93395000D01*
X173305000Y-93395000D01*
X173305001Y-132665000D01*
G37*
%TD.AperFunction*%
%TD*%
M02*
