%TF.GenerationSoftware,KiCad,Pcbnew,(5.1.9)-1*%
%TF.CreationDate,2021-11-24T00:24:37+00:00*%
%TF.ProjectId,4S parallel board,34532070-6172-4616-9c6c-656c20626f61,rev?*%
%TF.SameCoordinates,Original*%
%TF.FileFunction,Soldermask,Top*%
%TF.FilePolarity,Negative*%
%FSLAX46Y46*%
G04 Gerber Fmt 4.6, Leading zero omitted, Abs format (unit mm)*
G04 Created by KiCad (PCBNEW (5.1.9)-1) date 2021-11-24 00:24:37*
%MOMM*%
%LPD*%
G01*
G04 APERTURE LIST*
%ADD10O,1.950000X1.700000*%
%ADD11C,1.400000*%
%ADD12R,3.500000X3.500000*%
%ADD13C,3.500000*%
G04 APERTURE END LIST*
%TO.C,J8*%
G36*
G01*
X166915000Y-96940000D02*
X168365000Y-96940000D01*
G75*
G02*
X168615000Y-97190000I0J-250000D01*
G01*
X168615000Y-98390000D01*
G75*
G02*
X168365000Y-98640000I-250000J0D01*
G01*
X166915000Y-98640000D01*
G75*
G02*
X166665000Y-98390000I0J250000D01*
G01*
X166665000Y-97190000D01*
G75*
G02*
X166915000Y-96940000I250000J0D01*
G01*
G37*
D10*
X167640000Y-100290000D03*
X167640000Y-102790000D03*
X167640000Y-105290000D03*
X167640000Y-107790000D03*
%TD*%
%TO.C,J14*%
G36*
G01*
X166915000Y-117260000D02*
X168365000Y-117260000D01*
G75*
G02*
X168615000Y-117510000I0J-250000D01*
G01*
X168615000Y-118710000D01*
G75*
G02*
X168365000Y-118960000I-250000J0D01*
G01*
X166915000Y-118960000D01*
G75*
G02*
X166665000Y-118710000I0J250000D01*
G01*
X166665000Y-117510000D01*
G75*
G02*
X166915000Y-117260000I250000J0D01*
G01*
G37*
X167640000Y-120610000D03*
X167640000Y-123110000D03*
X167640000Y-125610000D03*
X167640000Y-128110000D03*
%TD*%
%TO.C,J13*%
G36*
G01*
X154215000Y-117260000D02*
X155665000Y-117260000D01*
G75*
G02*
X155915000Y-117510000I0J-250000D01*
G01*
X155915000Y-118710000D01*
G75*
G02*
X155665000Y-118960000I-250000J0D01*
G01*
X154215000Y-118960000D01*
G75*
G02*
X153965000Y-118710000I0J250000D01*
G01*
X153965000Y-117510000D01*
G75*
G02*
X154215000Y-117260000I250000J0D01*
G01*
G37*
X154940000Y-120610000D03*
X154940000Y-123110000D03*
X154940000Y-125610000D03*
X154940000Y-128110000D03*
%TD*%
%TO.C,J12*%
G36*
G01*
X141515000Y-117260000D02*
X142965000Y-117260000D01*
G75*
G02*
X143215000Y-117510000I0J-250000D01*
G01*
X143215000Y-118710000D01*
G75*
G02*
X142965000Y-118960000I-250000J0D01*
G01*
X141515000Y-118960000D01*
G75*
G02*
X141265000Y-118710000I0J250000D01*
G01*
X141265000Y-117510000D01*
G75*
G02*
X141515000Y-117260000I250000J0D01*
G01*
G37*
X142240000Y-120610000D03*
X142240000Y-123110000D03*
X142240000Y-125610000D03*
X142240000Y-128110000D03*
%TD*%
%TO.C,J11*%
G36*
G01*
X128815000Y-117260000D02*
X130265000Y-117260000D01*
G75*
G02*
X130515000Y-117510000I0J-250000D01*
G01*
X130515000Y-118710000D01*
G75*
G02*
X130265000Y-118960000I-250000J0D01*
G01*
X128815000Y-118960000D01*
G75*
G02*
X128565000Y-118710000I0J250000D01*
G01*
X128565000Y-117510000D01*
G75*
G02*
X128815000Y-117260000I250000J0D01*
G01*
G37*
X129540000Y-120610000D03*
X129540000Y-123110000D03*
X129540000Y-125610000D03*
X129540000Y-128110000D03*
%TD*%
%TO.C,J10*%
G36*
G01*
X116115000Y-117260000D02*
X117565000Y-117260000D01*
G75*
G02*
X117815000Y-117510000I0J-250000D01*
G01*
X117815000Y-118710000D01*
G75*
G02*
X117565000Y-118960000I-250000J0D01*
G01*
X116115000Y-118960000D01*
G75*
G02*
X115865000Y-118710000I0J250000D01*
G01*
X115865000Y-117510000D01*
G75*
G02*
X116115000Y-117260000I250000J0D01*
G01*
G37*
X116840000Y-120610000D03*
X116840000Y-123110000D03*
X116840000Y-125610000D03*
X116840000Y-128110000D03*
%TD*%
%TO.C,J9*%
G36*
G01*
X103415000Y-117260000D02*
X104865000Y-117260000D01*
G75*
G02*
X105115000Y-117510000I0J-250000D01*
G01*
X105115000Y-118710000D01*
G75*
G02*
X104865000Y-118960000I-250000J0D01*
G01*
X103415000Y-118960000D01*
G75*
G02*
X103165000Y-118710000I0J250000D01*
G01*
X103165000Y-117510000D01*
G75*
G02*
X103415000Y-117260000I250000J0D01*
G01*
G37*
X104140000Y-120610000D03*
X104140000Y-123110000D03*
X104140000Y-125610000D03*
X104140000Y-128110000D03*
%TD*%
%TO.C,J7*%
G36*
G01*
X154215000Y-96940000D02*
X155665000Y-96940000D01*
G75*
G02*
X155915000Y-97190000I0J-250000D01*
G01*
X155915000Y-98390000D01*
G75*
G02*
X155665000Y-98640000I-250000J0D01*
G01*
X154215000Y-98640000D01*
G75*
G02*
X153965000Y-98390000I0J250000D01*
G01*
X153965000Y-97190000D01*
G75*
G02*
X154215000Y-96940000I250000J0D01*
G01*
G37*
X154940000Y-100290000D03*
X154940000Y-102790000D03*
X154940000Y-105290000D03*
X154940000Y-107790000D03*
%TD*%
%TO.C,J6*%
G36*
G01*
X141515000Y-96940000D02*
X142965000Y-96940000D01*
G75*
G02*
X143215000Y-97190000I0J-250000D01*
G01*
X143215000Y-98390000D01*
G75*
G02*
X142965000Y-98640000I-250000J0D01*
G01*
X141515000Y-98640000D01*
G75*
G02*
X141265000Y-98390000I0J250000D01*
G01*
X141265000Y-97190000D01*
G75*
G02*
X141515000Y-96940000I250000J0D01*
G01*
G37*
X142240000Y-100290000D03*
X142240000Y-102790000D03*
X142240000Y-105290000D03*
X142240000Y-107790000D03*
%TD*%
%TO.C,J5*%
G36*
G01*
X128815000Y-96940000D02*
X130265000Y-96940000D01*
G75*
G02*
X130515000Y-97190000I0J-250000D01*
G01*
X130515000Y-98390000D01*
G75*
G02*
X130265000Y-98640000I-250000J0D01*
G01*
X128815000Y-98640000D01*
G75*
G02*
X128565000Y-98390000I0J250000D01*
G01*
X128565000Y-97190000D01*
G75*
G02*
X128815000Y-96940000I250000J0D01*
G01*
G37*
X129540000Y-100290000D03*
X129540000Y-102790000D03*
X129540000Y-105290000D03*
X129540000Y-107790000D03*
%TD*%
%TO.C,J4*%
G36*
G01*
X116115000Y-96940000D02*
X117565000Y-96940000D01*
G75*
G02*
X117815000Y-97190000I0J-250000D01*
G01*
X117815000Y-98390000D01*
G75*
G02*
X117565000Y-98640000I-250000J0D01*
G01*
X116115000Y-98640000D01*
G75*
G02*
X115865000Y-98390000I0J250000D01*
G01*
X115865000Y-97190000D01*
G75*
G02*
X116115000Y-96940000I250000J0D01*
G01*
G37*
X116840000Y-100290000D03*
X116840000Y-102790000D03*
X116840000Y-105290000D03*
X116840000Y-107790000D03*
%TD*%
%TO.C,J3*%
G36*
G01*
X103415000Y-96940000D02*
X104865000Y-96940000D01*
G75*
G02*
X105115000Y-97190000I0J-250000D01*
G01*
X105115000Y-98390000D01*
G75*
G02*
X104865000Y-98640000I-250000J0D01*
G01*
X103415000Y-98640000D01*
G75*
G02*
X103165000Y-98390000I0J250000D01*
G01*
X103165000Y-97190000D01*
G75*
G02*
X103415000Y-96940000I250000J0D01*
G01*
G37*
X104140000Y-100290000D03*
X104140000Y-102790000D03*
X104140000Y-105290000D03*
X104140000Y-107790000D03*
%TD*%
%TO.C,J2*%
X86360000Y-107790000D03*
X86360000Y-105290000D03*
X86360000Y-102790000D03*
X86360000Y-100290000D03*
G36*
G01*
X85635000Y-96940000D02*
X87085000Y-96940000D01*
G75*
G02*
X87335000Y-97190000I0J-250000D01*
G01*
X87335000Y-98390000D01*
G75*
G02*
X87085000Y-98640000I-250000J0D01*
G01*
X85635000Y-98640000D01*
G75*
G02*
X85385000Y-98390000I0J250000D01*
G01*
X85385000Y-97190000D01*
G75*
G02*
X85635000Y-96940000I250000J0D01*
G01*
G37*
%TD*%
D11*
%TO.C,J1*%
X86440000Y-128730000D03*
X86440000Y-117730000D03*
D12*
X91440000Y-125730000D03*
D13*
X91440000Y-120730000D03*
%TD*%
M02*
