%TF.GenerationSoftware,KiCad,Pcbnew,(5.1.9)-1*%
%TF.CreationDate,2021-11-24T00:24:37+00:00*%
%TF.ProjectId,4S parallel board,34532070-6172-4616-9c6c-656c20626f61,rev?*%
%TF.SameCoordinates,Original*%
%TF.FileFunction,Legend,Top*%
%TF.FilePolarity,Positive*%
%FSLAX46Y46*%
G04 Gerber Fmt 4.6, Leading zero omitted, Abs format (unit mm)*
G04 Created by KiCad (PCBNEW (5.1.9)-1) date 2021-11-24 00:24:37*
%MOMM*%
%LPD*%
G01*
G04 APERTURE LIST*
%ADD10C,0.300000*%
%ADD11C,0.120000*%
G04 APERTURE END LIST*
D10*
X121842380Y-112601428D02*
X121842380Y-113934761D01*
X121366190Y-111839523D02*
X120890000Y-113268095D01*
X122128095Y-113268095D01*
X122794761Y-113839523D02*
X123080476Y-113934761D01*
X123556666Y-113934761D01*
X123747142Y-113839523D01*
X123842380Y-113744285D01*
X123937619Y-113553809D01*
X123937619Y-113363333D01*
X123842380Y-113172857D01*
X123747142Y-113077619D01*
X123556666Y-112982380D01*
X123175714Y-112887142D01*
X122985238Y-112791904D01*
X122890000Y-112696666D01*
X122794761Y-112506190D01*
X122794761Y-112315714D01*
X122890000Y-112125238D01*
X122985238Y-112030000D01*
X123175714Y-111934761D01*
X123651904Y-111934761D01*
X123937619Y-112030000D01*
X126318571Y-113934761D02*
X126318571Y-111934761D01*
X127080476Y-111934761D01*
X127270952Y-112030000D01*
X127366190Y-112125238D01*
X127461428Y-112315714D01*
X127461428Y-112601428D01*
X127366190Y-112791904D01*
X127270952Y-112887142D01*
X127080476Y-112982380D01*
X126318571Y-112982380D01*
X128223333Y-113363333D02*
X129175714Y-113363333D01*
X128032857Y-113934761D02*
X128699523Y-111934761D01*
X129366190Y-113934761D01*
X131175714Y-113934761D02*
X130509047Y-112982380D01*
X130032857Y-113934761D02*
X130032857Y-111934761D01*
X130794761Y-111934761D01*
X130985238Y-112030000D01*
X131080476Y-112125238D01*
X131175714Y-112315714D01*
X131175714Y-112601428D01*
X131080476Y-112791904D01*
X130985238Y-112887142D01*
X130794761Y-112982380D01*
X130032857Y-112982380D01*
X131937619Y-113363333D02*
X132890000Y-113363333D01*
X131747142Y-113934761D02*
X132413809Y-111934761D01*
X133080476Y-113934761D01*
X134699523Y-113934761D02*
X133747142Y-113934761D01*
X133747142Y-111934761D01*
X136318571Y-113934761D02*
X135366190Y-113934761D01*
X135366190Y-111934761D01*
X136985238Y-112887142D02*
X137651904Y-112887142D01*
X137937619Y-113934761D02*
X136985238Y-113934761D01*
X136985238Y-111934761D01*
X137937619Y-111934761D01*
X139747142Y-113934761D02*
X138794761Y-113934761D01*
X138794761Y-111934761D01*
X142604285Y-112887142D02*
X142890000Y-112982380D01*
X142985238Y-113077619D01*
X143080476Y-113268095D01*
X143080476Y-113553809D01*
X142985238Y-113744285D01*
X142890000Y-113839523D01*
X142699523Y-113934761D01*
X141937619Y-113934761D01*
X141937619Y-111934761D01*
X142604285Y-111934761D01*
X142794761Y-112030000D01*
X142890000Y-112125238D01*
X142985238Y-112315714D01*
X142985238Y-112506190D01*
X142890000Y-112696666D01*
X142794761Y-112791904D01*
X142604285Y-112887142D01*
X141937619Y-112887142D01*
X144318571Y-111934761D02*
X144699523Y-111934761D01*
X144890000Y-112030000D01*
X145080476Y-112220476D01*
X145175714Y-112601428D01*
X145175714Y-113268095D01*
X145080476Y-113649047D01*
X144890000Y-113839523D01*
X144699523Y-113934761D01*
X144318571Y-113934761D01*
X144128095Y-113839523D01*
X143937619Y-113649047D01*
X143842380Y-113268095D01*
X143842380Y-112601428D01*
X143937619Y-112220476D01*
X144128095Y-112030000D01*
X144318571Y-111934761D01*
X145937619Y-113363333D02*
X146890000Y-113363333D01*
X145747142Y-113934761D02*
X146413809Y-111934761D01*
X147080476Y-113934761D01*
X148890000Y-113934761D02*
X148223333Y-112982380D01*
X147747142Y-113934761D02*
X147747142Y-111934761D01*
X148509047Y-111934761D01*
X148699523Y-112030000D01*
X148794761Y-112125238D01*
X148890000Y-112315714D01*
X148890000Y-112601428D01*
X148794761Y-112791904D01*
X148699523Y-112887142D01*
X148509047Y-112982380D01*
X147747142Y-112982380D01*
X149747142Y-113934761D02*
X149747142Y-111934761D01*
X150223333Y-111934761D01*
X150509047Y-112030000D01*
X150699523Y-112220476D01*
X150794761Y-112410952D01*
X150890000Y-112791904D01*
X150890000Y-113077619D01*
X150794761Y-113458571D01*
X150699523Y-113649047D01*
X150509047Y-113839523D01*
X150223333Y-113934761D01*
X149747142Y-113934761D01*
D11*
%TO.C,J8*%
X170100000Y-95230000D02*
X164130000Y-95230000D01*
X164130000Y-95230000D02*
X164130000Y-110350000D01*
X164130000Y-110350000D02*
X170100000Y-110350000D01*
X170100000Y-110350000D02*
X170100000Y-95230000D01*
X170090000Y-98540000D02*
X169340000Y-98540000D01*
X169340000Y-98540000D02*
X169340000Y-107040000D01*
X169340000Y-107040000D02*
X170090000Y-107040000D01*
X170090000Y-107040000D02*
X170090000Y-98540000D01*
X170090000Y-95240000D02*
X169340000Y-95240000D01*
X169340000Y-95240000D02*
X169340000Y-97040000D01*
X169340000Y-97040000D02*
X170090000Y-97040000D01*
X170090000Y-97040000D02*
X170090000Y-95240000D01*
X170090000Y-108540000D02*
X169340000Y-108540000D01*
X169340000Y-108540000D02*
X169340000Y-110340000D01*
X169340000Y-110340000D02*
X170090000Y-110340000D01*
X170090000Y-110340000D02*
X170090000Y-108540000D01*
X167840000Y-95240000D02*
X167840000Y-95990000D01*
X167840000Y-95990000D02*
X164890000Y-95990000D01*
X164890000Y-95990000D02*
X164890000Y-102790000D01*
X167840000Y-110340000D02*
X167840000Y-109590000D01*
X167840000Y-109590000D02*
X164890000Y-109590000D01*
X164890000Y-109590000D02*
X164890000Y-102790000D01*
X170390000Y-96190000D02*
X170390000Y-94940000D01*
X170390000Y-94940000D02*
X169140000Y-94940000D01*
%TO.C,J14*%
X170100000Y-115550000D02*
X164130000Y-115550000D01*
X164130000Y-115550000D02*
X164130000Y-130670000D01*
X164130000Y-130670000D02*
X170100000Y-130670000D01*
X170100000Y-130670000D02*
X170100000Y-115550000D01*
X170090000Y-118860000D02*
X169340000Y-118860000D01*
X169340000Y-118860000D02*
X169340000Y-127360000D01*
X169340000Y-127360000D02*
X170090000Y-127360000D01*
X170090000Y-127360000D02*
X170090000Y-118860000D01*
X170090000Y-115560000D02*
X169340000Y-115560000D01*
X169340000Y-115560000D02*
X169340000Y-117360000D01*
X169340000Y-117360000D02*
X170090000Y-117360000D01*
X170090000Y-117360000D02*
X170090000Y-115560000D01*
X170090000Y-128860000D02*
X169340000Y-128860000D01*
X169340000Y-128860000D02*
X169340000Y-130660000D01*
X169340000Y-130660000D02*
X170090000Y-130660000D01*
X170090000Y-130660000D02*
X170090000Y-128860000D01*
X167840000Y-115560000D02*
X167840000Y-116310000D01*
X167840000Y-116310000D02*
X164890000Y-116310000D01*
X164890000Y-116310000D02*
X164890000Y-123110000D01*
X167840000Y-130660000D02*
X167840000Y-129910000D01*
X167840000Y-129910000D02*
X164890000Y-129910000D01*
X164890000Y-129910000D02*
X164890000Y-123110000D01*
X170390000Y-116510000D02*
X170390000Y-115260000D01*
X170390000Y-115260000D02*
X169140000Y-115260000D01*
%TO.C,J13*%
X157400000Y-115550000D02*
X151430000Y-115550000D01*
X151430000Y-115550000D02*
X151430000Y-130670000D01*
X151430000Y-130670000D02*
X157400000Y-130670000D01*
X157400000Y-130670000D02*
X157400000Y-115550000D01*
X157390000Y-118860000D02*
X156640000Y-118860000D01*
X156640000Y-118860000D02*
X156640000Y-127360000D01*
X156640000Y-127360000D02*
X157390000Y-127360000D01*
X157390000Y-127360000D02*
X157390000Y-118860000D01*
X157390000Y-115560000D02*
X156640000Y-115560000D01*
X156640000Y-115560000D02*
X156640000Y-117360000D01*
X156640000Y-117360000D02*
X157390000Y-117360000D01*
X157390000Y-117360000D02*
X157390000Y-115560000D01*
X157390000Y-128860000D02*
X156640000Y-128860000D01*
X156640000Y-128860000D02*
X156640000Y-130660000D01*
X156640000Y-130660000D02*
X157390000Y-130660000D01*
X157390000Y-130660000D02*
X157390000Y-128860000D01*
X155140000Y-115560000D02*
X155140000Y-116310000D01*
X155140000Y-116310000D02*
X152190000Y-116310000D01*
X152190000Y-116310000D02*
X152190000Y-123110000D01*
X155140000Y-130660000D02*
X155140000Y-129910000D01*
X155140000Y-129910000D02*
X152190000Y-129910000D01*
X152190000Y-129910000D02*
X152190000Y-123110000D01*
X157690000Y-116510000D02*
X157690000Y-115260000D01*
X157690000Y-115260000D02*
X156440000Y-115260000D01*
%TO.C,J12*%
X144700000Y-115550000D02*
X138730000Y-115550000D01*
X138730000Y-115550000D02*
X138730000Y-130670000D01*
X138730000Y-130670000D02*
X144700000Y-130670000D01*
X144700000Y-130670000D02*
X144700000Y-115550000D01*
X144690000Y-118860000D02*
X143940000Y-118860000D01*
X143940000Y-118860000D02*
X143940000Y-127360000D01*
X143940000Y-127360000D02*
X144690000Y-127360000D01*
X144690000Y-127360000D02*
X144690000Y-118860000D01*
X144690000Y-115560000D02*
X143940000Y-115560000D01*
X143940000Y-115560000D02*
X143940000Y-117360000D01*
X143940000Y-117360000D02*
X144690000Y-117360000D01*
X144690000Y-117360000D02*
X144690000Y-115560000D01*
X144690000Y-128860000D02*
X143940000Y-128860000D01*
X143940000Y-128860000D02*
X143940000Y-130660000D01*
X143940000Y-130660000D02*
X144690000Y-130660000D01*
X144690000Y-130660000D02*
X144690000Y-128860000D01*
X142440000Y-115560000D02*
X142440000Y-116310000D01*
X142440000Y-116310000D02*
X139490000Y-116310000D01*
X139490000Y-116310000D02*
X139490000Y-123110000D01*
X142440000Y-130660000D02*
X142440000Y-129910000D01*
X142440000Y-129910000D02*
X139490000Y-129910000D01*
X139490000Y-129910000D02*
X139490000Y-123110000D01*
X144990000Y-116510000D02*
X144990000Y-115260000D01*
X144990000Y-115260000D02*
X143740000Y-115260000D01*
%TO.C,J11*%
X132000000Y-115550000D02*
X126030000Y-115550000D01*
X126030000Y-115550000D02*
X126030000Y-130670000D01*
X126030000Y-130670000D02*
X132000000Y-130670000D01*
X132000000Y-130670000D02*
X132000000Y-115550000D01*
X131990000Y-118860000D02*
X131240000Y-118860000D01*
X131240000Y-118860000D02*
X131240000Y-127360000D01*
X131240000Y-127360000D02*
X131990000Y-127360000D01*
X131990000Y-127360000D02*
X131990000Y-118860000D01*
X131990000Y-115560000D02*
X131240000Y-115560000D01*
X131240000Y-115560000D02*
X131240000Y-117360000D01*
X131240000Y-117360000D02*
X131990000Y-117360000D01*
X131990000Y-117360000D02*
X131990000Y-115560000D01*
X131990000Y-128860000D02*
X131240000Y-128860000D01*
X131240000Y-128860000D02*
X131240000Y-130660000D01*
X131240000Y-130660000D02*
X131990000Y-130660000D01*
X131990000Y-130660000D02*
X131990000Y-128860000D01*
X129740000Y-115560000D02*
X129740000Y-116310000D01*
X129740000Y-116310000D02*
X126790000Y-116310000D01*
X126790000Y-116310000D02*
X126790000Y-123110000D01*
X129740000Y-130660000D02*
X129740000Y-129910000D01*
X129740000Y-129910000D02*
X126790000Y-129910000D01*
X126790000Y-129910000D02*
X126790000Y-123110000D01*
X132290000Y-116510000D02*
X132290000Y-115260000D01*
X132290000Y-115260000D02*
X131040000Y-115260000D01*
%TO.C,J10*%
X119300000Y-115550000D02*
X113330000Y-115550000D01*
X113330000Y-115550000D02*
X113330000Y-130670000D01*
X113330000Y-130670000D02*
X119300000Y-130670000D01*
X119300000Y-130670000D02*
X119300000Y-115550000D01*
X119290000Y-118860000D02*
X118540000Y-118860000D01*
X118540000Y-118860000D02*
X118540000Y-127360000D01*
X118540000Y-127360000D02*
X119290000Y-127360000D01*
X119290000Y-127360000D02*
X119290000Y-118860000D01*
X119290000Y-115560000D02*
X118540000Y-115560000D01*
X118540000Y-115560000D02*
X118540000Y-117360000D01*
X118540000Y-117360000D02*
X119290000Y-117360000D01*
X119290000Y-117360000D02*
X119290000Y-115560000D01*
X119290000Y-128860000D02*
X118540000Y-128860000D01*
X118540000Y-128860000D02*
X118540000Y-130660000D01*
X118540000Y-130660000D02*
X119290000Y-130660000D01*
X119290000Y-130660000D02*
X119290000Y-128860000D01*
X117040000Y-115560000D02*
X117040000Y-116310000D01*
X117040000Y-116310000D02*
X114090000Y-116310000D01*
X114090000Y-116310000D02*
X114090000Y-123110000D01*
X117040000Y-130660000D02*
X117040000Y-129910000D01*
X117040000Y-129910000D02*
X114090000Y-129910000D01*
X114090000Y-129910000D02*
X114090000Y-123110000D01*
X119590000Y-116510000D02*
X119590000Y-115260000D01*
X119590000Y-115260000D02*
X118340000Y-115260000D01*
%TO.C,J9*%
X106600000Y-115550000D02*
X100630000Y-115550000D01*
X100630000Y-115550000D02*
X100630000Y-130670000D01*
X100630000Y-130670000D02*
X106600000Y-130670000D01*
X106600000Y-130670000D02*
X106600000Y-115550000D01*
X106590000Y-118860000D02*
X105840000Y-118860000D01*
X105840000Y-118860000D02*
X105840000Y-127360000D01*
X105840000Y-127360000D02*
X106590000Y-127360000D01*
X106590000Y-127360000D02*
X106590000Y-118860000D01*
X106590000Y-115560000D02*
X105840000Y-115560000D01*
X105840000Y-115560000D02*
X105840000Y-117360000D01*
X105840000Y-117360000D02*
X106590000Y-117360000D01*
X106590000Y-117360000D02*
X106590000Y-115560000D01*
X106590000Y-128860000D02*
X105840000Y-128860000D01*
X105840000Y-128860000D02*
X105840000Y-130660000D01*
X105840000Y-130660000D02*
X106590000Y-130660000D01*
X106590000Y-130660000D02*
X106590000Y-128860000D01*
X104340000Y-115560000D02*
X104340000Y-116310000D01*
X104340000Y-116310000D02*
X101390000Y-116310000D01*
X101390000Y-116310000D02*
X101390000Y-123110000D01*
X104340000Y-130660000D02*
X104340000Y-129910000D01*
X104340000Y-129910000D02*
X101390000Y-129910000D01*
X101390000Y-129910000D02*
X101390000Y-123110000D01*
X106890000Y-116510000D02*
X106890000Y-115260000D01*
X106890000Y-115260000D02*
X105640000Y-115260000D01*
%TO.C,J7*%
X157400000Y-95230000D02*
X151430000Y-95230000D01*
X151430000Y-95230000D02*
X151430000Y-110350000D01*
X151430000Y-110350000D02*
X157400000Y-110350000D01*
X157400000Y-110350000D02*
X157400000Y-95230000D01*
X157390000Y-98540000D02*
X156640000Y-98540000D01*
X156640000Y-98540000D02*
X156640000Y-107040000D01*
X156640000Y-107040000D02*
X157390000Y-107040000D01*
X157390000Y-107040000D02*
X157390000Y-98540000D01*
X157390000Y-95240000D02*
X156640000Y-95240000D01*
X156640000Y-95240000D02*
X156640000Y-97040000D01*
X156640000Y-97040000D02*
X157390000Y-97040000D01*
X157390000Y-97040000D02*
X157390000Y-95240000D01*
X157390000Y-108540000D02*
X156640000Y-108540000D01*
X156640000Y-108540000D02*
X156640000Y-110340000D01*
X156640000Y-110340000D02*
X157390000Y-110340000D01*
X157390000Y-110340000D02*
X157390000Y-108540000D01*
X155140000Y-95240000D02*
X155140000Y-95990000D01*
X155140000Y-95990000D02*
X152190000Y-95990000D01*
X152190000Y-95990000D02*
X152190000Y-102790000D01*
X155140000Y-110340000D02*
X155140000Y-109590000D01*
X155140000Y-109590000D02*
X152190000Y-109590000D01*
X152190000Y-109590000D02*
X152190000Y-102790000D01*
X157690000Y-96190000D02*
X157690000Y-94940000D01*
X157690000Y-94940000D02*
X156440000Y-94940000D01*
%TO.C,J6*%
X144700000Y-95230000D02*
X138730000Y-95230000D01*
X138730000Y-95230000D02*
X138730000Y-110350000D01*
X138730000Y-110350000D02*
X144700000Y-110350000D01*
X144700000Y-110350000D02*
X144700000Y-95230000D01*
X144690000Y-98540000D02*
X143940000Y-98540000D01*
X143940000Y-98540000D02*
X143940000Y-107040000D01*
X143940000Y-107040000D02*
X144690000Y-107040000D01*
X144690000Y-107040000D02*
X144690000Y-98540000D01*
X144690000Y-95240000D02*
X143940000Y-95240000D01*
X143940000Y-95240000D02*
X143940000Y-97040000D01*
X143940000Y-97040000D02*
X144690000Y-97040000D01*
X144690000Y-97040000D02*
X144690000Y-95240000D01*
X144690000Y-108540000D02*
X143940000Y-108540000D01*
X143940000Y-108540000D02*
X143940000Y-110340000D01*
X143940000Y-110340000D02*
X144690000Y-110340000D01*
X144690000Y-110340000D02*
X144690000Y-108540000D01*
X142440000Y-95240000D02*
X142440000Y-95990000D01*
X142440000Y-95990000D02*
X139490000Y-95990000D01*
X139490000Y-95990000D02*
X139490000Y-102790000D01*
X142440000Y-110340000D02*
X142440000Y-109590000D01*
X142440000Y-109590000D02*
X139490000Y-109590000D01*
X139490000Y-109590000D02*
X139490000Y-102790000D01*
X144990000Y-96190000D02*
X144990000Y-94940000D01*
X144990000Y-94940000D02*
X143740000Y-94940000D01*
%TO.C,J5*%
X132000000Y-95230000D02*
X126030000Y-95230000D01*
X126030000Y-95230000D02*
X126030000Y-110350000D01*
X126030000Y-110350000D02*
X132000000Y-110350000D01*
X132000000Y-110350000D02*
X132000000Y-95230000D01*
X131990000Y-98540000D02*
X131240000Y-98540000D01*
X131240000Y-98540000D02*
X131240000Y-107040000D01*
X131240000Y-107040000D02*
X131990000Y-107040000D01*
X131990000Y-107040000D02*
X131990000Y-98540000D01*
X131990000Y-95240000D02*
X131240000Y-95240000D01*
X131240000Y-95240000D02*
X131240000Y-97040000D01*
X131240000Y-97040000D02*
X131990000Y-97040000D01*
X131990000Y-97040000D02*
X131990000Y-95240000D01*
X131990000Y-108540000D02*
X131240000Y-108540000D01*
X131240000Y-108540000D02*
X131240000Y-110340000D01*
X131240000Y-110340000D02*
X131990000Y-110340000D01*
X131990000Y-110340000D02*
X131990000Y-108540000D01*
X129740000Y-95240000D02*
X129740000Y-95990000D01*
X129740000Y-95990000D02*
X126790000Y-95990000D01*
X126790000Y-95990000D02*
X126790000Y-102790000D01*
X129740000Y-110340000D02*
X129740000Y-109590000D01*
X129740000Y-109590000D02*
X126790000Y-109590000D01*
X126790000Y-109590000D02*
X126790000Y-102790000D01*
X132290000Y-96190000D02*
X132290000Y-94940000D01*
X132290000Y-94940000D02*
X131040000Y-94940000D01*
%TO.C,J4*%
X119300000Y-95230000D02*
X113330000Y-95230000D01*
X113330000Y-95230000D02*
X113330000Y-110350000D01*
X113330000Y-110350000D02*
X119300000Y-110350000D01*
X119300000Y-110350000D02*
X119300000Y-95230000D01*
X119290000Y-98540000D02*
X118540000Y-98540000D01*
X118540000Y-98540000D02*
X118540000Y-107040000D01*
X118540000Y-107040000D02*
X119290000Y-107040000D01*
X119290000Y-107040000D02*
X119290000Y-98540000D01*
X119290000Y-95240000D02*
X118540000Y-95240000D01*
X118540000Y-95240000D02*
X118540000Y-97040000D01*
X118540000Y-97040000D02*
X119290000Y-97040000D01*
X119290000Y-97040000D02*
X119290000Y-95240000D01*
X119290000Y-108540000D02*
X118540000Y-108540000D01*
X118540000Y-108540000D02*
X118540000Y-110340000D01*
X118540000Y-110340000D02*
X119290000Y-110340000D01*
X119290000Y-110340000D02*
X119290000Y-108540000D01*
X117040000Y-95240000D02*
X117040000Y-95990000D01*
X117040000Y-95990000D02*
X114090000Y-95990000D01*
X114090000Y-95990000D02*
X114090000Y-102790000D01*
X117040000Y-110340000D02*
X117040000Y-109590000D01*
X117040000Y-109590000D02*
X114090000Y-109590000D01*
X114090000Y-109590000D02*
X114090000Y-102790000D01*
X119590000Y-96190000D02*
X119590000Y-94940000D01*
X119590000Y-94940000D02*
X118340000Y-94940000D01*
%TO.C,J3*%
X106600000Y-95230000D02*
X100630000Y-95230000D01*
X100630000Y-95230000D02*
X100630000Y-110350000D01*
X100630000Y-110350000D02*
X106600000Y-110350000D01*
X106600000Y-110350000D02*
X106600000Y-95230000D01*
X106590000Y-98540000D02*
X105840000Y-98540000D01*
X105840000Y-98540000D02*
X105840000Y-107040000D01*
X105840000Y-107040000D02*
X106590000Y-107040000D01*
X106590000Y-107040000D02*
X106590000Y-98540000D01*
X106590000Y-95240000D02*
X105840000Y-95240000D01*
X105840000Y-95240000D02*
X105840000Y-97040000D01*
X105840000Y-97040000D02*
X106590000Y-97040000D01*
X106590000Y-97040000D02*
X106590000Y-95240000D01*
X106590000Y-108540000D02*
X105840000Y-108540000D01*
X105840000Y-108540000D02*
X105840000Y-110340000D01*
X105840000Y-110340000D02*
X106590000Y-110340000D01*
X106590000Y-110340000D02*
X106590000Y-108540000D01*
X104340000Y-95240000D02*
X104340000Y-95990000D01*
X104340000Y-95990000D02*
X101390000Y-95990000D01*
X101390000Y-95990000D02*
X101390000Y-102790000D01*
X104340000Y-110340000D02*
X104340000Y-109590000D01*
X104340000Y-109590000D02*
X101390000Y-109590000D01*
X101390000Y-109590000D02*
X101390000Y-102790000D01*
X106890000Y-96190000D02*
X106890000Y-94940000D01*
X106890000Y-94940000D02*
X105640000Y-94940000D01*
%TO.C,J2*%
X88460000Y-98090000D02*
X87860000Y-97790000D01*
X88460000Y-97490000D02*
X88460000Y-98090000D01*
X87860000Y-97790000D02*
X88460000Y-97490000D01*
X83160000Y-108040000D02*
X83160000Y-107540000D01*
X77660000Y-108040000D02*
X83160000Y-108040000D01*
X77660000Y-107540000D02*
X77660000Y-108040000D01*
X83160000Y-107540000D02*
X77660000Y-107540000D01*
X83160000Y-105540000D02*
X83160000Y-105040000D01*
X77660000Y-105540000D02*
X83160000Y-105540000D01*
X77660000Y-105040000D02*
X77660000Y-105540000D01*
X83160000Y-105040000D02*
X77660000Y-105040000D01*
X83160000Y-103040000D02*
X83160000Y-102540000D01*
X77660000Y-103040000D02*
X83160000Y-103040000D01*
X77660000Y-102540000D02*
X77660000Y-103040000D01*
X83160000Y-102540000D02*
X77660000Y-102540000D01*
X83160000Y-100540000D02*
X83160000Y-100040000D01*
X77660000Y-100540000D02*
X83160000Y-100540000D01*
X77660000Y-100040000D02*
X77660000Y-100540000D01*
X83160000Y-100040000D02*
X77660000Y-100040000D01*
X83160000Y-98040000D02*
X83160000Y-97540000D01*
X77660000Y-98040000D02*
X83160000Y-98040000D01*
X77660000Y-97540000D02*
X77660000Y-98040000D01*
X83160000Y-97540000D02*
X77660000Y-97540000D01*
X84270000Y-108930000D02*
X84270000Y-102790000D01*
X88770000Y-108930000D02*
X84270000Y-108930000D01*
X88770000Y-110350000D02*
X88770000Y-108930000D01*
X77050000Y-110350000D02*
X88770000Y-110350000D01*
X77050000Y-102790000D02*
X77050000Y-110350000D01*
X84270000Y-96650000D02*
X84270000Y-102790000D01*
X88770000Y-96650000D02*
X84270000Y-96650000D01*
X88770000Y-95230000D02*
X88770000Y-96650000D01*
X77050000Y-95230000D02*
X88770000Y-95230000D01*
X77050000Y-102790000D02*
X77050000Y-95230000D01*
%TO.C,J1*%
X77280000Y-127760000D02*
X83280000Y-127760000D01*
X77280000Y-127760000D02*
X77280000Y-118730000D01*
X77280000Y-118700000D02*
X83280000Y-118700000D01*
X83280000Y-118700000D02*
X83280000Y-118170000D01*
X83280000Y-118170000D02*
X85330000Y-118170000D01*
X85330000Y-118170000D02*
X85330000Y-117470000D01*
X85330000Y-128990000D02*
X85330000Y-128290000D01*
X83280000Y-128290000D02*
X85330000Y-128290000D01*
X87550000Y-128990000D02*
X87550000Y-117470000D01*
X83280000Y-128290000D02*
X83280000Y-127760000D01*
X87536635Y-129051729D02*
G75*
G02*
X85330000Y-128880000I-1096635J171729D01*
G01*
X85330000Y-117580000D02*
G75*
G02*
X87550000Y-117580000I1110000J0D01*
G01*
%TD*%
M02*
