%TF.GenerationSoftware,KiCad,Pcbnew,(5.1.9)-1*%
%TF.CreationDate,2022-05-31T00:47:07+01:00*%
%TF.ProjectId,board,626f6172-642e-46b6-9963-61645f706362,rev?*%
%TF.SameCoordinates,Original*%
%TF.FileFunction,Paste,Top*%
%TF.FilePolarity,Positive*%
%FSLAX46Y46*%
G04 Gerber Fmt 4.6, Leading zero omitted, Abs format (unit mm)*
G04 Created by KiCad (PCBNEW (5.1.9)-1) date 2022-05-31 00:47:07*
%MOMM*%
%LPD*%
G01*
G04 APERTURE LIST*
G04 APERTURE END LIST*
%TO.C,J1*%
G36*
G01*
X109276000Y-101811000D02*
X109276000Y-103061000D01*
G75*
G02*
X109051000Y-103286000I-225000J0D01*
G01*
X108601000Y-103286000D01*
G75*
G02*
X108376000Y-103061000I0J225000D01*
G01*
X108376000Y-101811000D01*
G75*
G02*
X108601000Y-101586000I225000J0D01*
G01*
X109051000Y-101586000D01*
G75*
G02*
X109276000Y-101811000I0J-225000D01*
G01*
G37*
G36*
G01*
X117176000Y-101811000D02*
X117176000Y-103061000D01*
G75*
G02*
X116951000Y-103286000I-225000J0D01*
G01*
X116501000Y-103286000D01*
G75*
G02*
X116276000Y-103061000I0J225000D01*
G01*
X116276000Y-101811000D01*
G75*
G02*
X116501000Y-101586000I225000J0D01*
G01*
X116951000Y-101586000D01*
G75*
G02*
X117176000Y-101811000I0J-225000D01*
G01*
G37*
G36*
G01*
X110576000Y-105086000D02*
X110576000Y-106036000D01*
G75*
G02*
X110426000Y-106186000I-150000J0D01*
G01*
X110126000Y-106186000D01*
G75*
G02*
X109976000Y-106036000I0J150000D01*
G01*
X109976000Y-105086000D01*
G75*
G02*
X110126000Y-104936000I150000J0D01*
G01*
X110426000Y-104936000D01*
G75*
G02*
X110576000Y-105086000I0J-150000D01*
G01*
G37*
G36*
G01*
X111576000Y-105086000D02*
X111576000Y-106036000D01*
G75*
G02*
X111426000Y-106186000I-150000J0D01*
G01*
X111126000Y-106186000D01*
G75*
G02*
X110976000Y-106036000I0J150000D01*
G01*
X110976000Y-105086000D01*
G75*
G02*
X111126000Y-104936000I150000J0D01*
G01*
X111426000Y-104936000D01*
G75*
G02*
X111576000Y-105086000I0J-150000D01*
G01*
G37*
G36*
G01*
X112576000Y-105086000D02*
X112576000Y-106036000D01*
G75*
G02*
X112426000Y-106186000I-150000J0D01*
G01*
X112126000Y-106186000D01*
G75*
G02*
X111976000Y-106036000I0J150000D01*
G01*
X111976000Y-105086000D01*
G75*
G02*
X112126000Y-104936000I150000J0D01*
G01*
X112426000Y-104936000D01*
G75*
G02*
X112576000Y-105086000I0J-150000D01*
G01*
G37*
G36*
G01*
X113576000Y-105086000D02*
X113576000Y-106036000D01*
G75*
G02*
X113426000Y-106186000I-150000J0D01*
G01*
X113126000Y-106186000D01*
G75*
G02*
X112976000Y-106036000I0J150000D01*
G01*
X112976000Y-105086000D01*
G75*
G02*
X113126000Y-104936000I150000J0D01*
G01*
X113426000Y-104936000D01*
G75*
G02*
X113576000Y-105086000I0J-150000D01*
G01*
G37*
G36*
G01*
X114576000Y-105086000D02*
X114576000Y-106036000D01*
G75*
G02*
X114426000Y-106186000I-150000J0D01*
G01*
X114126000Y-106186000D01*
G75*
G02*
X113976000Y-106036000I0J150000D01*
G01*
X113976000Y-105086000D01*
G75*
G02*
X114126000Y-104936000I150000J0D01*
G01*
X114426000Y-104936000D01*
G75*
G02*
X114576000Y-105086000I0J-150000D01*
G01*
G37*
G36*
G01*
X115576000Y-105086000D02*
X115576000Y-106036000D01*
G75*
G02*
X115426000Y-106186000I-150000J0D01*
G01*
X115126000Y-106186000D01*
G75*
G02*
X114976000Y-106036000I0J150000D01*
G01*
X114976000Y-105086000D01*
G75*
G02*
X115126000Y-104936000I150000J0D01*
G01*
X115426000Y-104936000D01*
G75*
G02*
X115576000Y-105086000I0J-150000D01*
G01*
G37*
%TD*%
M02*
