%TF.GenerationSoftware,KiCad,Pcbnew,(5.1.9)-1*%
%TF.CreationDate,2022-05-31T00:47:07+01:00*%
%TF.ProjectId,board,626f6172-642e-46b6-9963-61645f706362,rev?*%
%TF.SameCoordinates,Original*%
%TF.FileFunction,Copper,L1,Top*%
%TF.FilePolarity,Positive*%
%FSLAX46Y46*%
G04 Gerber Fmt 4.6, Leading zero omitted, Abs format (unit mm)*
G04 Created by KiCad (PCBNEW (5.1.9)-1) date 2022-05-31 00:47:07*
%MOMM*%
%LPD*%
G01*
G04 APERTURE LIST*
%TA.AperFunction,ComponentPad*%
%ADD10O,1.300000X0.800000*%
%TD*%
%TA.AperFunction,ViaPad*%
%ADD11C,0.800000*%
%TD*%
%TA.AperFunction,Conductor*%
%ADD12C,0.600000*%
%TD*%
%TA.AperFunction,Conductor*%
%ADD13C,0.254000*%
%TD*%
%TA.AperFunction,Conductor*%
%ADD14C,0.100000*%
%TD*%
G04 APERTURE END LIST*
%TO.P,J13,1*%
%TO.N,Net-(J1-Pad6)*%
%TA.AperFunction,ComponentPad*%
G36*
G01*
X107480000Y-122386000D02*
X107480000Y-123486000D01*
G75*
G02*
X107230000Y-123736000I-250000J0D01*
G01*
X106130000Y-123736000D01*
G75*
G02*
X105880000Y-123486000I0J250000D01*
G01*
X105880000Y-122386000D01*
G75*
G02*
X106130000Y-122136000I250000J0D01*
G01*
X107230000Y-122136000D01*
G75*
G02*
X107480000Y-122386000I0J-250000D01*
G01*
G37*
%TD.AperFunction*%
%TD*%
%TO.P,J10,1*%
%TO.N,+BATT*%
%TA.AperFunction,ComponentPad*%
G36*
G01*
X117814000Y-125184000D02*
X118914000Y-125184000D01*
G75*
G02*
X119164000Y-125434000I0J-250000D01*
G01*
X119164000Y-126534000D01*
G75*
G02*
X118914000Y-126784000I-250000J0D01*
G01*
X117814000Y-126784000D01*
G75*
G02*
X117564000Y-126534000I0J250000D01*
G01*
X117564000Y-125434000D01*
G75*
G02*
X117814000Y-125184000I250000J0D01*
G01*
G37*
%TD.AperFunction*%
%TD*%
%TO.P,J9,1*%
%TO.N,Net-(J1-Pad3)*%
%TA.AperFunction,ComponentPad*%
G36*
G01*
X118914000Y-123736000D02*
X117814000Y-123736000D01*
G75*
G02*
X117564000Y-123486000I0J250000D01*
G01*
X117564000Y-122386000D01*
G75*
G02*
X117814000Y-122136000I250000J0D01*
G01*
X118914000Y-122136000D01*
G75*
G02*
X119164000Y-122386000I0J-250000D01*
G01*
X119164000Y-123486000D01*
G75*
G02*
X118914000Y-123736000I-250000J0D01*
G01*
G37*
%TD.AperFunction*%
%TD*%
%TO.P,J8,1*%
%TO.N,Net-(J1-Pad4)*%
%TA.AperFunction,ComponentPad*%
G36*
G01*
X113500000Y-123486000D02*
X113500000Y-122386000D01*
G75*
G02*
X113750000Y-122136000I250000J0D01*
G01*
X114850000Y-122136000D01*
G75*
G02*
X115100000Y-122386000I0J-250000D01*
G01*
X115100000Y-123486000D01*
G75*
G02*
X114850000Y-123736000I-250000J0D01*
G01*
X113750000Y-123736000D01*
G75*
G02*
X113500000Y-123486000I0J250000D01*
G01*
G37*
%TD.AperFunction*%
%TD*%
%TO.P,J7,1*%
%TO.N,Net-(J1-Pad5)*%
%TA.AperFunction,ComponentPad*%
G36*
G01*
X109690000Y-123486000D02*
X109690000Y-122386000D01*
G75*
G02*
X109940000Y-122136000I250000J0D01*
G01*
X111040000Y-122136000D01*
G75*
G02*
X111290000Y-122386000I0J-250000D01*
G01*
X111290000Y-123486000D01*
G75*
G02*
X111040000Y-123736000I-250000J0D01*
G01*
X109940000Y-123736000D01*
G75*
G02*
X109690000Y-123486000I0J250000D01*
G01*
G37*
%TD.AperFunction*%
%TD*%
%TO.P,J6,1*%
%TO.N,GND*%
%TA.AperFunction,ComponentPad*%
G36*
G01*
X117814000Y-128232000D02*
X118914000Y-128232000D01*
G75*
G02*
X119164000Y-128482000I0J-250000D01*
G01*
X119164000Y-129582000D01*
G75*
G02*
X118914000Y-129832000I-250000J0D01*
G01*
X117814000Y-129832000D01*
G75*
G02*
X117564000Y-129582000I0J250000D01*
G01*
X117564000Y-128482000D01*
G75*
G02*
X117814000Y-128232000I250000J0D01*
G01*
G37*
%TD.AperFunction*%
%TD*%
D10*
%TO.P,J4,3*%
%TO.N,Net-(J1-Pad4)*%
X114300000Y-126278000D03*
%TO.P,J4,2*%
%TO.N,+BATT*%
X114300000Y-127528000D03*
%TO.P,J4,1*%
%TO.N,GND*%
%TA.AperFunction,ComponentPad*%
G36*
G01*
X114750000Y-129178000D02*
X113850000Y-129178000D01*
G75*
G02*
X113650000Y-128978000I0J200000D01*
G01*
X113650000Y-128578000D01*
G75*
G02*
X113850000Y-128378000I200000J0D01*
G01*
X114750000Y-128378000D01*
G75*
G02*
X114950000Y-128578000I0J-200000D01*
G01*
X114950000Y-128978000D01*
G75*
G02*
X114750000Y-129178000I-200000J0D01*
G01*
G37*
%TD.AperFunction*%
%TD*%
%TO.P,J3,3*%
%TO.N,Net-(J1-Pad5)*%
X110490000Y-126278000D03*
%TO.P,J3,2*%
%TO.N,+BATT*%
X110490000Y-127528000D03*
%TO.P,J3,1*%
%TO.N,GND*%
%TA.AperFunction,ComponentPad*%
G36*
G01*
X110940000Y-129178000D02*
X110040000Y-129178000D01*
G75*
G02*
X109840000Y-128978000I0J200000D01*
G01*
X109840000Y-128578000D01*
G75*
G02*
X110040000Y-128378000I200000J0D01*
G01*
X110940000Y-128378000D01*
G75*
G02*
X111140000Y-128578000I0J-200000D01*
G01*
X111140000Y-128978000D01*
G75*
G02*
X110940000Y-129178000I-200000J0D01*
G01*
G37*
%TD.AperFunction*%
%TD*%
%TO.P,J2,3*%
%TO.N,Net-(J1-Pad6)*%
X106680000Y-126278000D03*
%TO.P,J2,2*%
%TO.N,+BATT*%
X106680000Y-127528000D03*
%TO.P,J2,1*%
%TO.N,GND*%
%TA.AperFunction,ComponentPad*%
G36*
G01*
X107130000Y-129178000D02*
X106230000Y-129178000D01*
G75*
G02*
X106030000Y-128978000I0J200000D01*
G01*
X106030000Y-128578000D01*
G75*
G02*
X106230000Y-128378000I200000J0D01*
G01*
X107130000Y-128378000D01*
G75*
G02*
X107330000Y-128578000I0J-200000D01*
G01*
X107330000Y-128978000D01*
G75*
G02*
X107130000Y-129178000I-200000J0D01*
G01*
G37*
%TD.AperFunction*%
%TD*%
%TO.P,J1,MP*%
%TO.N,N/C*%
%TA.AperFunction,SMDPad,CuDef*%
G36*
G01*
X109276000Y-101811000D02*
X109276000Y-103061000D01*
G75*
G02*
X109051000Y-103286000I-225000J0D01*
G01*
X108601000Y-103286000D01*
G75*
G02*
X108376000Y-103061000I0J225000D01*
G01*
X108376000Y-101811000D01*
G75*
G02*
X108601000Y-101586000I225000J0D01*
G01*
X109051000Y-101586000D01*
G75*
G02*
X109276000Y-101811000I0J-225000D01*
G01*
G37*
%TD.AperFunction*%
%TA.AperFunction,SMDPad,CuDef*%
G36*
G01*
X117176000Y-101811000D02*
X117176000Y-103061000D01*
G75*
G02*
X116951000Y-103286000I-225000J0D01*
G01*
X116501000Y-103286000D01*
G75*
G02*
X116276000Y-103061000I0J225000D01*
G01*
X116276000Y-101811000D01*
G75*
G02*
X116501000Y-101586000I225000J0D01*
G01*
X116951000Y-101586000D01*
G75*
G02*
X117176000Y-101811000I0J-225000D01*
G01*
G37*
%TD.AperFunction*%
%TO.P,J1,6*%
%TO.N,Net-(J1-Pad6)*%
%TA.AperFunction,SMDPad,CuDef*%
G36*
G01*
X110576000Y-105086000D02*
X110576000Y-106036000D01*
G75*
G02*
X110426000Y-106186000I-150000J0D01*
G01*
X110126000Y-106186000D01*
G75*
G02*
X109976000Y-106036000I0J150000D01*
G01*
X109976000Y-105086000D01*
G75*
G02*
X110126000Y-104936000I150000J0D01*
G01*
X110426000Y-104936000D01*
G75*
G02*
X110576000Y-105086000I0J-150000D01*
G01*
G37*
%TD.AperFunction*%
%TO.P,J1,5*%
%TO.N,Net-(J1-Pad5)*%
%TA.AperFunction,SMDPad,CuDef*%
G36*
G01*
X111576000Y-105086000D02*
X111576000Y-106036000D01*
G75*
G02*
X111426000Y-106186000I-150000J0D01*
G01*
X111126000Y-106186000D01*
G75*
G02*
X110976000Y-106036000I0J150000D01*
G01*
X110976000Y-105086000D01*
G75*
G02*
X111126000Y-104936000I150000J0D01*
G01*
X111426000Y-104936000D01*
G75*
G02*
X111576000Y-105086000I0J-150000D01*
G01*
G37*
%TD.AperFunction*%
%TO.P,J1,4*%
%TO.N,Net-(J1-Pad4)*%
%TA.AperFunction,SMDPad,CuDef*%
G36*
G01*
X112576000Y-105086000D02*
X112576000Y-106036000D01*
G75*
G02*
X112426000Y-106186000I-150000J0D01*
G01*
X112126000Y-106186000D01*
G75*
G02*
X111976000Y-106036000I0J150000D01*
G01*
X111976000Y-105086000D01*
G75*
G02*
X112126000Y-104936000I150000J0D01*
G01*
X112426000Y-104936000D01*
G75*
G02*
X112576000Y-105086000I0J-150000D01*
G01*
G37*
%TD.AperFunction*%
%TO.P,J1,3*%
%TO.N,Net-(J1-Pad3)*%
%TA.AperFunction,SMDPad,CuDef*%
G36*
G01*
X113576000Y-105086000D02*
X113576000Y-106036000D01*
G75*
G02*
X113426000Y-106186000I-150000J0D01*
G01*
X113126000Y-106186000D01*
G75*
G02*
X112976000Y-106036000I0J150000D01*
G01*
X112976000Y-105086000D01*
G75*
G02*
X113126000Y-104936000I150000J0D01*
G01*
X113426000Y-104936000D01*
G75*
G02*
X113576000Y-105086000I0J-150000D01*
G01*
G37*
%TD.AperFunction*%
%TO.P,J1,2*%
%TO.N,+BATT*%
%TA.AperFunction,SMDPad,CuDef*%
G36*
G01*
X114576000Y-105086000D02*
X114576000Y-106036000D01*
G75*
G02*
X114426000Y-106186000I-150000J0D01*
G01*
X114126000Y-106186000D01*
G75*
G02*
X113976000Y-106036000I0J150000D01*
G01*
X113976000Y-105086000D01*
G75*
G02*
X114126000Y-104936000I150000J0D01*
G01*
X114426000Y-104936000D01*
G75*
G02*
X114576000Y-105086000I0J-150000D01*
G01*
G37*
%TD.AperFunction*%
%TO.P,J1,1*%
%TO.N,GND*%
%TA.AperFunction,SMDPad,CuDef*%
G36*
G01*
X115576000Y-105086000D02*
X115576000Y-106036000D01*
G75*
G02*
X115426000Y-106186000I-150000J0D01*
G01*
X115126000Y-106186000D01*
G75*
G02*
X114976000Y-106036000I0J150000D01*
G01*
X114976000Y-105086000D01*
G75*
G02*
X115126000Y-104936000I150000J0D01*
G01*
X115426000Y-104936000D01*
G75*
G02*
X115576000Y-105086000I0J-150000D01*
G01*
G37*
%TD.AperFunction*%
%TD*%
D11*
%TO.N,GND*%
X116586000Y-105918000D03*
%TD*%
D12*
%TO.N,Net-(J1-Pad3)*%
X113276000Y-117848000D02*
X118364000Y-122936000D01*
X113276000Y-105561000D02*
X113276000Y-117848000D01*
%TO.N,GND*%
X116229000Y-105561000D02*
X116586000Y-105918000D01*
X115276000Y-105561000D02*
X116229000Y-105561000D01*
%TO.N,Net-(J1-Pad6)*%
X110276000Y-119340000D02*
X106680000Y-122936000D01*
X110276000Y-105561000D02*
X110276000Y-119340000D01*
%TO.N,Net-(J1-Pad5)*%
X111276000Y-122150000D02*
X110490000Y-122936000D01*
X111276000Y-105561000D02*
X111276000Y-122150000D01*
%TO.N,Net-(J1-Pad4)*%
X112276000Y-120912000D02*
X114300000Y-122936000D01*
X112276000Y-105561000D02*
X112276000Y-120912000D01*
%TD*%
D13*
%TO.N,+BATT*%
X108121503Y-101093382D02*
X107990716Y-101200716D01*
X107883382Y-101331503D01*
X107803625Y-101480717D01*
X107754512Y-101642623D01*
X107737928Y-101811000D01*
X107737928Y-103061000D01*
X107754512Y-103229377D01*
X107803625Y-103391283D01*
X107883382Y-103540497D01*
X107990716Y-103671284D01*
X108121503Y-103778618D01*
X108270717Y-103858375D01*
X108432623Y-103907488D01*
X108601000Y-103924072D01*
X109051000Y-103924072D01*
X109219377Y-103907488D01*
X109381283Y-103858375D01*
X109530497Y-103778618D01*
X109661284Y-103671284D01*
X109768618Y-103540497D01*
X109848375Y-103391283D01*
X109897488Y-103229377D01*
X109914072Y-103061000D01*
X109914072Y-101811000D01*
X109897488Y-101642623D01*
X109848375Y-101480717D01*
X109768618Y-101331503D01*
X109661284Y-101200716D01*
X109530497Y-101093382D01*
X109423143Y-101036000D01*
X116128857Y-101036000D01*
X116021503Y-101093382D01*
X115890716Y-101200716D01*
X115783382Y-101331503D01*
X115703625Y-101480717D01*
X115654512Y-101642623D01*
X115637928Y-101811000D01*
X115637928Y-103061000D01*
X115654512Y-103229377D01*
X115703625Y-103391283D01*
X115783382Y-103540497D01*
X115890716Y-103671284D01*
X116021503Y-103778618D01*
X116170717Y-103858375D01*
X116332623Y-103907488D01*
X116501000Y-103924072D01*
X116951000Y-103924072D01*
X117119377Y-103907488D01*
X117281283Y-103858375D01*
X117430497Y-103778618D01*
X117561284Y-103671284D01*
X117668618Y-103540497D01*
X117748375Y-103391283D01*
X117797488Y-103229377D01*
X117814072Y-103061000D01*
X117814072Y-101811000D01*
X117797488Y-101642623D01*
X117748375Y-101480717D01*
X117668618Y-101331503D01*
X117561284Y-101200716D01*
X117430497Y-101093382D01*
X117323143Y-101036000D01*
X120812969Y-101036000D01*
X120622458Y-101321120D01*
X120454582Y-101726408D01*
X120369000Y-102156660D01*
X120369000Y-102595340D01*
X120454582Y-103025592D01*
X120622458Y-103430880D01*
X120866176Y-103795630D01*
X121176370Y-104105824D01*
X121541120Y-104349542D01*
X121946408Y-104517418D01*
X122376660Y-104603000D01*
X122815340Y-104603000D01*
X123245592Y-104517418D01*
X123650880Y-104349542D01*
X123936271Y-104158850D01*
X123938761Y-120594814D01*
X123650880Y-120402458D01*
X123245592Y-120234582D01*
X122815340Y-120149000D01*
X122376660Y-120149000D01*
X121946408Y-120234582D01*
X121541120Y-120402458D01*
X121176370Y-120646176D01*
X120866176Y-120956370D01*
X120622458Y-121321120D01*
X120454582Y-121726408D01*
X120369000Y-122156660D01*
X120369000Y-122595340D01*
X120454582Y-123025592D01*
X120622458Y-123430880D01*
X120866176Y-123795630D01*
X121176370Y-124105824D01*
X121541120Y-124349542D01*
X121946408Y-124517418D01*
X122376660Y-124603000D01*
X122815340Y-124603000D01*
X123245592Y-124517418D01*
X123650880Y-124349542D01*
X123939300Y-124156826D01*
X123939995Y-128745770D01*
X123911375Y-129037660D01*
X123835965Y-129287429D01*
X123713477Y-129517794D01*
X123548579Y-129719979D01*
X123347546Y-129886288D01*
X123118046Y-130010378D01*
X122868805Y-130087531D01*
X122578911Y-130118000D01*
X119617433Y-130118000D01*
X119652405Y-130075386D01*
X119734472Y-129921850D01*
X119785008Y-129755254D01*
X119802072Y-129582000D01*
X119802072Y-128482000D01*
X119785008Y-128308746D01*
X119734472Y-128142150D01*
X119652405Y-127988614D01*
X119541962Y-127854038D01*
X119407386Y-127743595D01*
X119253850Y-127661528D01*
X119087254Y-127610992D01*
X118914000Y-127593928D01*
X117814000Y-127593928D01*
X117640746Y-127610992D01*
X117474150Y-127661528D01*
X117320614Y-127743595D01*
X117186038Y-127854038D01*
X117075595Y-127988614D01*
X116993528Y-128142150D01*
X116942992Y-128308746D01*
X116925928Y-128482000D01*
X116925928Y-129582000D01*
X116942992Y-129755254D01*
X116993528Y-129921850D01*
X117075595Y-130075386D01*
X117110567Y-130118000D01*
X102628279Y-130118000D01*
X102336340Y-130089375D01*
X102086571Y-130013965D01*
X101856206Y-129891477D01*
X101654021Y-129726579D01*
X101487712Y-129525546D01*
X101363622Y-129296046D01*
X101286469Y-129046805D01*
X101256000Y-128756911D01*
X101256000Y-128578000D01*
X105391928Y-128578000D01*
X105391928Y-128978000D01*
X105408031Y-129141500D01*
X105455722Y-129298716D01*
X105533169Y-129443608D01*
X105637394Y-129570606D01*
X105764392Y-129674831D01*
X105909284Y-129752278D01*
X106066500Y-129799969D01*
X106230000Y-129816072D01*
X107130000Y-129816072D01*
X107293500Y-129799969D01*
X107450716Y-129752278D01*
X107595608Y-129674831D01*
X107722606Y-129570606D01*
X107826831Y-129443608D01*
X107904278Y-129298716D01*
X107951969Y-129141500D01*
X107968072Y-128978000D01*
X107968072Y-128578000D01*
X109201928Y-128578000D01*
X109201928Y-128978000D01*
X109218031Y-129141500D01*
X109265722Y-129298716D01*
X109343169Y-129443608D01*
X109447394Y-129570606D01*
X109574392Y-129674831D01*
X109719284Y-129752278D01*
X109876500Y-129799969D01*
X110040000Y-129816072D01*
X110940000Y-129816072D01*
X111103500Y-129799969D01*
X111260716Y-129752278D01*
X111405608Y-129674831D01*
X111532606Y-129570606D01*
X111636831Y-129443608D01*
X111714278Y-129298716D01*
X111761969Y-129141500D01*
X111778072Y-128978000D01*
X111778072Y-128578000D01*
X113011928Y-128578000D01*
X113011928Y-128978000D01*
X113028031Y-129141500D01*
X113075722Y-129298716D01*
X113153169Y-129443608D01*
X113257394Y-129570606D01*
X113384392Y-129674831D01*
X113529284Y-129752278D01*
X113686500Y-129799969D01*
X113850000Y-129816072D01*
X114750000Y-129816072D01*
X114913500Y-129799969D01*
X115070716Y-129752278D01*
X115215608Y-129674831D01*
X115342606Y-129570606D01*
X115446831Y-129443608D01*
X115524278Y-129298716D01*
X115571969Y-129141500D01*
X115588072Y-128978000D01*
X115588072Y-128578000D01*
X115571969Y-128414500D01*
X115524278Y-128257284D01*
X115446831Y-128112392D01*
X115342606Y-127985394D01*
X115215608Y-127881169D01*
X115070716Y-127803722D01*
X114913500Y-127756031D01*
X114750000Y-127739928D01*
X113850000Y-127739928D01*
X113686500Y-127756031D01*
X113529284Y-127803722D01*
X113384392Y-127881169D01*
X113257394Y-127985394D01*
X113153169Y-128112392D01*
X113075722Y-128257284D01*
X113028031Y-128414500D01*
X113011928Y-128578000D01*
X111778072Y-128578000D01*
X111761969Y-128414500D01*
X111714278Y-128257284D01*
X111636831Y-128112392D01*
X111532606Y-127985394D01*
X111405608Y-127881169D01*
X111260716Y-127803722D01*
X111103500Y-127756031D01*
X110940000Y-127739928D01*
X110040000Y-127739928D01*
X109876500Y-127756031D01*
X109719284Y-127803722D01*
X109574392Y-127881169D01*
X109447394Y-127985394D01*
X109343169Y-128112392D01*
X109265722Y-128257284D01*
X109218031Y-128414500D01*
X109201928Y-128578000D01*
X107968072Y-128578000D01*
X107951969Y-128414500D01*
X107904278Y-128257284D01*
X107826831Y-128112392D01*
X107722606Y-127985394D01*
X107595608Y-127881169D01*
X107450716Y-127803722D01*
X107293500Y-127756031D01*
X107130000Y-127739928D01*
X106230000Y-127739928D01*
X106066500Y-127756031D01*
X105909284Y-127803722D01*
X105764392Y-127881169D01*
X105637394Y-127985394D01*
X105533169Y-128112392D01*
X105455722Y-128257284D01*
X105408031Y-128414500D01*
X105391928Y-128578000D01*
X101256000Y-128578000D01*
X101256000Y-126278000D01*
X105389993Y-126278000D01*
X105409976Y-126480895D01*
X105469159Y-126675993D01*
X105565266Y-126855797D01*
X105694604Y-127013396D01*
X105852203Y-127142734D01*
X106032007Y-127238841D01*
X106227105Y-127298024D01*
X106379162Y-127313000D01*
X106980838Y-127313000D01*
X107132895Y-127298024D01*
X107327993Y-127238841D01*
X107507797Y-127142734D01*
X107665396Y-127013396D01*
X107794734Y-126855797D01*
X107890841Y-126675993D01*
X107950024Y-126480895D01*
X107970007Y-126278000D01*
X109199993Y-126278000D01*
X109219976Y-126480895D01*
X109279159Y-126675993D01*
X109375266Y-126855797D01*
X109504604Y-127013396D01*
X109662203Y-127142734D01*
X109842007Y-127238841D01*
X110037105Y-127298024D01*
X110189162Y-127313000D01*
X110790838Y-127313000D01*
X110942895Y-127298024D01*
X111137993Y-127238841D01*
X111317797Y-127142734D01*
X111475396Y-127013396D01*
X111604734Y-126855797D01*
X111700841Y-126675993D01*
X111760024Y-126480895D01*
X111780007Y-126278000D01*
X113009993Y-126278000D01*
X113029976Y-126480895D01*
X113089159Y-126675993D01*
X113185266Y-126855797D01*
X113314604Y-127013396D01*
X113472203Y-127142734D01*
X113652007Y-127238841D01*
X113847105Y-127298024D01*
X113999162Y-127313000D01*
X114600838Y-127313000D01*
X114752895Y-127298024D01*
X114947993Y-127238841D01*
X115127797Y-127142734D01*
X115285396Y-127013396D01*
X115414734Y-126855797D01*
X115510841Y-126675993D01*
X115570024Y-126480895D01*
X115590007Y-126278000D01*
X115570024Y-126075105D01*
X115510841Y-125880007D01*
X115414734Y-125700203D01*
X115285396Y-125542604D01*
X115127797Y-125413266D01*
X114947993Y-125317159D01*
X114752895Y-125257976D01*
X114600838Y-125243000D01*
X113999162Y-125243000D01*
X113847105Y-125257976D01*
X113652007Y-125317159D01*
X113472203Y-125413266D01*
X113314604Y-125542604D01*
X113185266Y-125700203D01*
X113089159Y-125880007D01*
X113029976Y-126075105D01*
X113009993Y-126278000D01*
X111780007Y-126278000D01*
X111760024Y-126075105D01*
X111700841Y-125880007D01*
X111604734Y-125700203D01*
X111475396Y-125542604D01*
X111317797Y-125413266D01*
X111137993Y-125317159D01*
X110942895Y-125257976D01*
X110790838Y-125243000D01*
X110189162Y-125243000D01*
X110037105Y-125257976D01*
X109842007Y-125317159D01*
X109662203Y-125413266D01*
X109504604Y-125542604D01*
X109375266Y-125700203D01*
X109279159Y-125880007D01*
X109219976Y-126075105D01*
X109199993Y-126278000D01*
X107970007Y-126278000D01*
X107950024Y-126075105D01*
X107890841Y-125880007D01*
X107794734Y-125700203D01*
X107665396Y-125542604D01*
X107507797Y-125413266D01*
X107327993Y-125317159D01*
X107132895Y-125257976D01*
X106980838Y-125243000D01*
X106379162Y-125243000D01*
X106227105Y-125257976D01*
X106032007Y-125317159D01*
X105852203Y-125413266D01*
X105694604Y-125542604D01*
X105565266Y-125700203D01*
X105469159Y-125880007D01*
X105409976Y-126075105D01*
X105389993Y-126278000D01*
X101256000Y-126278000D01*
X101256000Y-124159031D01*
X101541120Y-124349542D01*
X101946408Y-124517418D01*
X102376660Y-124603000D01*
X102815340Y-124603000D01*
X103245592Y-124517418D01*
X103650880Y-124349542D01*
X104015630Y-124105824D01*
X104325824Y-123795630D01*
X104569542Y-123430880D01*
X104737418Y-123025592D01*
X104823000Y-122595340D01*
X104823000Y-122386000D01*
X105241928Y-122386000D01*
X105241928Y-123486000D01*
X105258992Y-123659254D01*
X105309528Y-123825850D01*
X105391595Y-123979386D01*
X105502038Y-124113962D01*
X105636614Y-124224405D01*
X105790150Y-124306472D01*
X105956746Y-124357008D01*
X106130000Y-124374072D01*
X107230000Y-124374072D01*
X107403254Y-124357008D01*
X107569850Y-124306472D01*
X107723386Y-124224405D01*
X107857962Y-124113962D01*
X107968405Y-123979386D01*
X108050472Y-123825850D01*
X108101008Y-123659254D01*
X108118072Y-123486000D01*
X108118072Y-122820217D01*
X110341001Y-120597288D01*
X110341001Y-121497928D01*
X109940000Y-121497928D01*
X109766746Y-121514992D01*
X109600150Y-121565528D01*
X109446614Y-121647595D01*
X109312038Y-121758038D01*
X109201595Y-121892614D01*
X109119528Y-122046150D01*
X109068992Y-122212746D01*
X109051928Y-122386000D01*
X109051928Y-123486000D01*
X109068992Y-123659254D01*
X109119528Y-123825850D01*
X109201595Y-123979386D01*
X109312038Y-124113962D01*
X109446614Y-124224405D01*
X109600150Y-124306472D01*
X109766746Y-124357008D01*
X109940000Y-124374072D01*
X111040000Y-124374072D01*
X111213254Y-124357008D01*
X111379850Y-124306472D01*
X111533386Y-124224405D01*
X111667962Y-124113962D01*
X111778405Y-123979386D01*
X111860472Y-123825850D01*
X111911008Y-123659254D01*
X111928072Y-123486000D01*
X111928072Y-122824415D01*
X111940344Y-122814344D01*
X112057186Y-122671972D01*
X112144007Y-122509540D01*
X112197471Y-122333292D01*
X112211000Y-122195932D01*
X112213389Y-122171678D01*
X112861928Y-122820218D01*
X112861928Y-123486000D01*
X112878992Y-123659254D01*
X112929528Y-123825850D01*
X113011595Y-123979386D01*
X113122038Y-124113962D01*
X113256614Y-124224405D01*
X113410150Y-124306472D01*
X113576746Y-124357008D01*
X113750000Y-124374072D01*
X114850000Y-124374072D01*
X115023254Y-124357008D01*
X115189850Y-124306472D01*
X115343386Y-124224405D01*
X115477962Y-124113962D01*
X115588405Y-123979386D01*
X115670472Y-123825850D01*
X115721008Y-123659254D01*
X115738072Y-123486000D01*
X115738072Y-122386000D01*
X115721008Y-122212746D01*
X115670472Y-122046150D01*
X115588405Y-121892614D01*
X115477962Y-121758038D01*
X115343386Y-121647595D01*
X115189850Y-121565528D01*
X115023254Y-121514992D01*
X114850000Y-121497928D01*
X114184218Y-121497928D01*
X113211000Y-120524711D01*
X113211000Y-119105289D01*
X116925928Y-122820217D01*
X116925928Y-123486000D01*
X116942992Y-123659254D01*
X116993528Y-123825850D01*
X117075595Y-123979386D01*
X117186038Y-124113962D01*
X117320614Y-124224405D01*
X117474150Y-124306472D01*
X117640746Y-124357008D01*
X117814000Y-124374072D01*
X118914000Y-124374072D01*
X119087254Y-124357008D01*
X119253850Y-124306472D01*
X119407386Y-124224405D01*
X119541962Y-124113962D01*
X119652405Y-123979386D01*
X119734472Y-123825850D01*
X119785008Y-123659254D01*
X119802072Y-123486000D01*
X119802072Y-122386000D01*
X119785008Y-122212746D01*
X119734472Y-122046150D01*
X119652405Y-121892614D01*
X119541962Y-121758038D01*
X119407386Y-121647595D01*
X119253850Y-121565528D01*
X119087254Y-121514992D01*
X118914000Y-121497928D01*
X118248217Y-121497928D01*
X114211000Y-117460711D01*
X114211000Y-106067190D01*
X114214072Y-106036000D01*
X114214072Y-105561000D01*
X114336476Y-105561000D01*
X114337928Y-105575742D01*
X114337928Y-106036000D01*
X114353071Y-106189745D01*
X114397916Y-106337582D01*
X114470742Y-106473829D01*
X114568749Y-106593251D01*
X114688171Y-106691258D01*
X114824418Y-106764084D01*
X114972255Y-106808929D01*
X115126000Y-106824072D01*
X115426000Y-106824072D01*
X115579745Y-106808929D01*
X115727582Y-106764084D01*
X115863829Y-106691258D01*
X115881250Y-106676961D01*
X115926226Y-106721937D01*
X116095744Y-106835205D01*
X116284102Y-106913226D01*
X116484061Y-106953000D01*
X116687939Y-106953000D01*
X116887898Y-106913226D01*
X117076256Y-106835205D01*
X117186908Y-106761270D01*
X117180237Y-106767988D01*
X117137487Y-106809851D01*
X117131613Y-106816952D01*
X117006289Y-106970614D01*
X116973174Y-107020456D01*
X116939390Y-107069796D01*
X116935007Y-107077902D01*
X116841916Y-107252980D01*
X116819125Y-107308275D01*
X116795554Y-107363270D01*
X116792829Y-107372073D01*
X116735518Y-107561900D01*
X116723900Y-107620580D01*
X116711463Y-107679087D01*
X116710500Y-107688252D01*
X116691150Y-107885594D01*
X116691150Y-107885599D01*
X116688000Y-107917582D01*
X116688001Y-118142419D01*
X116691249Y-118175397D01*
X116691249Y-118188591D01*
X116692212Y-118197756D01*
X116714315Y-118394808D01*
X116726747Y-118453295D01*
X116738370Y-118511997D01*
X116741096Y-118520800D01*
X116801052Y-118709808D01*
X116824612Y-118764778D01*
X116847414Y-118820099D01*
X116851797Y-118828205D01*
X116947324Y-119001966D01*
X116981130Y-119051338D01*
X117014221Y-119101144D01*
X117020095Y-119108245D01*
X117147552Y-119260142D01*
X117190263Y-119301968D01*
X117232441Y-119344442D01*
X117239583Y-119350266D01*
X117394116Y-119474515D01*
X117444170Y-119507269D01*
X117493765Y-119540722D01*
X117501901Y-119545048D01*
X117677625Y-119636914D01*
X117733078Y-119659318D01*
X117788233Y-119682503D01*
X117797055Y-119685166D01*
X117987276Y-119741151D01*
X118046010Y-119752355D01*
X118104633Y-119764389D01*
X118113805Y-119765288D01*
X118311277Y-119783259D01*
X118371094Y-119782841D01*
X118430911Y-119783259D01*
X118440083Y-119782359D01*
X118637284Y-119761632D01*
X118695834Y-119749613D01*
X118754639Y-119738396D01*
X118763461Y-119735732D01*
X118952882Y-119677097D01*
X119008009Y-119653924D01*
X119063492Y-119631507D01*
X119071629Y-119627181D01*
X119246052Y-119532870D01*
X119295636Y-119499425D01*
X119345699Y-119466665D01*
X119352840Y-119460841D01*
X119505624Y-119334446D01*
X119547744Y-119292031D01*
X119590513Y-119250149D01*
X119596387Y-119243048D01*
X119721711Y-119089386D01*
X119754803Y-119039577D01*
X119788610Y-118990205D01*
X119792993Y-118982098D01*
X119886084Y-118807020D01*
X119908875Y-118751725D01*
X119932446Y-118696730D01*
X119935171Y-118687926D01*
X119992482Y-118498100D01*
X120004098Y-118439434D01*
X120016537Y-118380913D01*
X120017500Y-118371748D01*
X120036850Y-118174407D01*
X120036850Y-118174402D01*
X120040000Y-118142419D01*
X120040000Y-107917582D01*
X120498000Y-107917582D01*
X120498001Y-118142419D01*
X120501249Y-118175397D01*
X120501249Y-118188591D01*
X120502212Y-118197756D01*
X120524315Y-118394808D01*
X120536747Y-118453295D01*
X120548370Y-118511997D01*
X120551096Y-118520800D01*
X120611052Y-118709808D01*
X120634612Y-118764778D01*
X120657414Y-118820099D01*
X120661797Y-118828205D01*
X120757324Y-119001966D01*
X120791130Y-119051338D01*
X120824221Y-119101144D01*
X120830095Y-119108245D01*
X120957552Y-119260142D01*
X121000263Y-119301968D01*
X121042441Y-119344442D01*
X121049583Y-119350266D01*
X121204116Y-119474515D01*
X121254170Y-119507269D01*
X121303765Y-119540722D01*
X121311901Y-119545048D01*
X121487625Y-119636914D01*
X121543078Y-119659318D01*
X121598233Y-119682503D01*
X121607055Y-119685166D01*
X121797276Y-119741151D01*
X121856010Y-119752355D01*
X121914633Y-119764389D01*
X121923805Y-119765288D01*
X122121277Y-119783259D01*
X122181094Y-119782841D01*
X122240911Y-119783259D01*
X122250083Y-119782359D01*
X122447284Y-119761632D01*
X122505834Y-119749613D01*
X122564639Y-119738396D01*
X122573461Y-119735732D01*
X122762882Y-119677097D01*
X122818009Y-119653924D01*
X122873492Y-119631507D01*
X122881629Y-119627181D01*
X123056052Y-119532870D01*
X123105636Y-119499425D01*
X123155699Y-119466665D01*
X123162840Y-119460841D01*
X123315624Y-119334446D01*
X123357744Y-119292031D01*
X123400513Y-119250149D01*
X123406387Y-119243048D01*
X123531711Y-119089386D01*
X123564803Y-119039577D01*
X123598610Y-118990205D01*
X123602993Y-118982098D01*
X123696084Y-118807020D01*
X123718875Y-118751725D01*
X123742446Y-118696730D01*
X123745171Y-118687926D01*
X123802482Y-118498100D01*
X123814098Y-118439434D01*
X123826537Y-118380913D01*
X123827500Y-118371748D01*
X123846850Y-118174407D01*
X123846850Y-118174402D01*
X123850000Y-118142419D01*
X123850000Y-107917581D01*
X123846751Y-107884593D01*
X123846751Y-107871409D01*
X123845788Y-107862244D01*
X123823685Y-107665192D01*
X123811251Y-107606699D01*
X123799630Y-107548003D01*
X123796904Y-107539200D01*
X123736948Y-107350193D01*
X123713400Y-107295249D01*
X123690586Y-107239900D01*
X123686203Y-107231794D01*
X123590676Y-107058034D01*
X123556892Y-107008695D01*
X123523779Y-106958855D01*
X123517905Y-106951755D01*
X123390448Y-106799857D01*
X123347718Y-106758013D01*
X123305559Y-106715558D01*
X123298417Y-106709734D01*
X123143883Y-106585485D01*
X123093847Y-106552742D01*
X123044235Y-106519278D01*
X123036098Y-106514952D01*
X122860375Y-106423086D01*
X122804936Y-106400688D01*
X122749768Y-106377497D01*
X122740946Y-106374834D01*
X122550724Y-106318849D01*
X122492016Y-106307650D01*
X122433367Y-106295611D01*
X122424195Y-106294712D01*
X122226723Y-106276741D01*
X122166906Y-106277159D01*
X122107088Y-106276741D01*
X122097917Y-106277641D01*
X121900715Y-106298368D01*
X121842151Y-106310390D01*
X121783362Y-106321604D01*
X121774540Y-106324268D01*
X121585118Y-106382903D01*
X121530005Y-106406071D01*
X121474507Y-106428493D01*
X121466371Y-106432820D01*
X121291947Y-106527130D01*
X121242331Y-106560597D01*
X121192301Y-106593335D01*
X121185160Y-106599159D01*
X121032376Y-106725553D01*
X120990237Y-106767988D01*
X120947487Y-106809851D01*
X120941613Y-106816952D01*
X120816289Y-106970614D01*
X120783174Y-107020456D01*
X120749390Y-107069796D01*
X120745007Y-107077902D01*
X120651916Y-107252980D01*
X120629125Y-107308275D01*
X120605554Y-107363270D01*
X120602829Y-107372073D01*
X120545518Y-107561900D01*
X120533900Y-107620580D01*
X120521463Y-107679087D01*
X120520500Y-107688252D01*
X120501150Y-107885594D01*
X120501150Y-107885599D01*
X120498000Y-107917582D01*
X120040000Y-107917582D01*
X120040000Y-107917581D01*
X120036751Y-107884593D01*
X120036751Y-107871409D01*
X120035788Y-107862244D01*
X120013685Y-107665192D01*
X120001251Y-107606699D01*
X119989630Y-107548003D01*
X119986904Y-107539200D01*
X119926948Y-107350193D01*
X119903400Y-107295249D01*
X119880586Y-107239900D01*
X119876203Y-107231794D01*
X119780676Y-107058034D01*
X119746892Y-107008695D01*
X119713779Y-106958855D01*
X119707905Y-106951755D01*
X119580448Y-106799857D01*
X119537718Y-106758013D01*
X119495559Y-106715558D01*
X119488417Y-106709734D01*
X119333883Y-106585485D01*
X119283847Y-106552742D01*
X119234235Y-106519278D01*
X119226098Y-106514952D01*
X119050375Y-106423086D01*
X118994936Y-106400688D01*
X118939768Y-106377497D01*
X118930946Y-106374834D01*
X118740724Y-106318849D01*
X118682016Y-106307650D01*
X118623367Y-106295611D01*
X118614195Y-106294712D01*
X118416723Y-106276741D01*
X118356906Y-106277159D01*
X118297088Y-106276741D01*
X118287917Y-106277641D01*
X118090715Y-106298368D01*
X118032151Y-106310390D01*
X117973362Y-106321604D01*
X117964540Y-106324268D01*
X117775118Y-106382903D01*
X117720005Y-106406071D01*
X117664507Y-106428493D01*
X117656371Y-106432820D01*
X117481947Y-106527130D01*
X117432331Y-106560597D01*
X117382301Y-106593335D01*
X117375160Y-106599159D01*
X117336903Y-106630808D01*
X117389937Y-106577774D01*
X117503205Y-106408256D01*
X117581226Y-106219898D01*
X117621000Y-106019939D01*
X117621000Y-105816061D01*
X117581226Y-105616102D01*
X117503205Y-105427744D01*
X117389937Y-105258226D01*
X117245774Y-105114063D01*
X117076256Y-105000795D01*
X116930858Y-104940569D01*
X116922630Y-104932341D01*
X116893344Y-104896656D01*
X116750972Y-104779814D01*
X116588540Y-104692993D01*
X116412292Y-104639529D01*
X116274932Y-104626000D01*
X116229000Y-104621476D01*
X116183068Y-104626000D01*
X116063063Y-104626000D01*
X115983251Y-104528749D01*
X115863829Y-104430742D01*
X115727582Y-104357916D01*
X115579745Y-104313071D01*
X115426000Y-104297928D01*
X115126000Y-104297928D01*
X114972255Y-104313071D01*
X114824418Y-104357916D01*
X114688171Y-104430742D01*
X114568749Y-104528749D01*
X114470742Y-104648171D01*
X114397916Y-104784418D01*
X114353071Y-104932255D01*
X114337928Y-105086000D01*
X114337928Y-105546258D01*
X114336476Y-105561000D01*
X114214072Y-105561000D01*
X114214072Y-105086000D01*
X114198929Y-104932255D01*
X114154084Y-104784418D01*
X114081258Y-104648171D01*
X113983251Y-104528749D01*
X113863829Y-104430742D01*
X113727582Y-104357916D01*
X113579745Y-104313071D01*
X113426000Y-104297928D01*
X113126000Y-104297928D01*
X112972255Y-104313071D01*
X112824418Y-104357916D01*
X112776000Y-104383796D01*
X112727582Y-104357916D01*
X112579745Y-104313071D01*
X112426000Y-104297928D01*
X112126000Y-104297928D01*
X111972255Y-104313071D01*
X111824418Y-104357916D01*
X111776000Y-104383796D01*
X111727582Y-104357916D01*
X111579745Y-104313071D01*
X111426000Y-104297928D01*
X111126000Y-104297928D01*
X110972255Y-104313071D01*
X110824418Y-104357916D01*
X110776000Y-104383796D01*
X110727582Y-104357916D01*
X110579745Y-104313071D01*
X110426000Y-104297928D01*
X110126000Y-104297928D01*
X109972255Y-104313071D01*
X109824418Y-104357916D01*
X109688171Y-104430742D01*
X109568749Y-104528749D01*
X109470742Y-104648171D01*
X109397916Y-104784418D01*
X109353071Y-104932255D01*
X109337928Y-105086000D01*
X109337928Y-106036000D01*
X109341000Y-106067190D01*
X109341001Y-118952710D01*
X106795783Y-121497928D01*
X106130000Y-121497928D01*
X105956746Y-121514992D01*
X105790150Y-121565528D01*
X105636614Y-121647595D01*
X105502038Y-121758038D01*
X105391595Y-121892614D01*
X105309528Y-122046150D01*
X105258992Y-122212746D01*
X105241928Y-122386000D01*
X104823000Y-122386000D01*
X104823000Y-122156660D01*
X104737418Y-121726408D01*
X104569542Y-121321120D01*
X104325824Y-120956370D01*
X104015630Y-120646176D01*
X103650880Y-120402458D01*
X103245592Y-120234582D01*
X102815340Y-120149000D01*
X102376660Y-120149000D01*
X101946408Y-120234582D01*
X101541120Y-120402458D01*
X101256000Y-120592969D01*
X101256000Y-107917582D01*
X101702000Y-107917582D01*
X101702001Y-118142419D01*
X101705249Y-118175397D01*
X101705249Y-118188591D01*
X101706212Y-118197756D01*
X101728315Y-118394808D01*
X101740747Y-118453295D01*
X101752370Y-118511997D01*
X101755096Y-118520800D01*
X101815052Y-118709808D01*
X101838612Y-118764778D01*
X101861414Y-118820099D01*
X101865797Y-118828205D01*
X101961324Y-119001966D01*
X101995130Y-119051338D01*
X102028221Y-119101144D01*
X102034095Y-119108245D01*
X102161552Y-119260142D01*
X102204263Y-119301968D01*
X102246441Y-119344442D01*
X102253583Y-119350266D01*
X102408116Y-119474515D01*
X102458170Y-119507269D01*
X102507765Y-119540722D01*
X102515901Y-119545048D01*
X102691625Y-119636914D01*
X102747078Y-119659318D01*
X102802233Y-119682503D01*
X102811055Y-119685166D01*
X103001276Y-119741151D01*
X103060010Y-119752355D01*
X103118633Y-119764389D01*
X103127805Y-119765288D01*
X103325277Y-119783259D01*
X103385094Y-119782841D01*
X103444911Y-119783259D01*
X103454083Y-119782359D01*
X103651284Y-119761632D01*
X103709834Y-119749613D01*
X103768639Y-119738396D01*
X103777461Y-119735732D01*
X103966882Y-119677097D01*
X104022009Y-119653924D01*
X104077492Y-119631507D01*
X104085629Y-119627181D01*
X104260052Y-119532870D01*
X104309636Y-119499425D01*
X104359699Y-119466665D01*
X104366840Y-119460841D01*
X104519624Y-119334446D01*
X104561744Y-119292031D01*
X104604513Y-119250149D01*
X104610387Y-119243048D01*
X104735711Y-119089386D01*
X104768803Y-119039577D01*
X104802610Y-118990205D01*
X104806993Y-118982098D01*
X104900084Y-118807020D01*
X104922875Y-118751725D01*
X104946446Y-118696730D01*
X104949171Y-118687926D01*
X105006482Y-118498100D01*
X105018098Y-118439434D01*
X105030537Y-118380913D01*
X105031500Y-118371748D01*
X105050850Y-118174407D01*
X105050850Y-118174402D01*
X105054000Y-118142419D01*
X105054000Y-107917582D01*
X105512000Y-107917582D01*
X105512001Y-118142419D01*
X105515249Y-118175397D01*
X105515249Y-118188591D01*
X105516212Y-118197756D01*
X105538315Y-118394808D01*
X105550747Y-118453295D01*
X105562370Y-118511997D01*
X105565096Y-118520800D01*
X105625052Y-118709808D01*
X105648612Y-118764778D01*
X105671414Y-118820099D01*
X105675797Y-118828205D01*
X105771324Y-119001966D01*
X105805130Y-119051338D01*
X105838221Y-119101144D01*
X105844095Y-119108245D01*
X105971552Y-119260142D01*
X106014263Y-119301968D01*
X106056441Y-119344442D01*
X106063583Y-119350266D01*
X106218116Y-119474515D01*
X106268170Y-119507269D01*
X106317765Y-119540722D01*
X106325901Y-119545048D01*
X106501625Y-119636914D01*
X106557078Y-119659318D01*
X106612233Y-119682503D01*
X106621055Y-119685166D01*
X106811276Y-119741151D01*
X106870010Y-119752355D01*
X106928633Y-119764389D01*
X106937805Y-119765288D01*
X107135277Y-119783259D01*
X107195094Y-119782841D01*
X107254911Y-119783259D01*
X107264083Y-119782359D01*
X107461284Y-119761632D01*
X107519834Y-119749613D01*
X107578639Y-119738396D01*
X107587461Y-119735732D01*
X107776882Y-119677097D01*
X107832009Y-119653924D01*
X107887492Y-119631507D01*
X107895629Y-119627181D01*
X108070052Y-119532870D01*
X108119636Y-119499425D01*
X108169699Y-119466665D01*
X108176840Y-119460841D01*
X108329624Y-119334446D01*
X108371744Y-119292031D01*
X108414513Y-119250149D01*
X108420387Y-119243048D01*
X108545711Y-119089386D01*
X108578803Y-119039577D01*
X108612610Y-118990205D01*
X108616993Y-118982098D01*
X108710084Y-118807020D01*
X108732875Y-118751725D01*
X108756446Y-118696730D01*
X108759171Y-118687926D01*
X108816482Y-118498100D01*
X108828098Y-118439434D01*
X108840537Y-118380913D01*
X108841500Y-118371748D01*
X108860850Y-118174407D01*
X108860850Y-118174402D01*
X108864000Y-118142419D01*
X108864000Y-107917581D01*
X108860751Y-107884593D01*
X108860751Y-107871409D01*
X108859788Y-107862244D01*
X108837685Y-107665192D01*
X108825251Y-107606699D01*
X108813630Y-107548003D01*
X108810904Y-107539200D01*
X108750948Y-107350193D01*
X108727400Y-107295249D01*
X108704586Y-107239900D01*
X108700203Y-107231794D01*
X108604676Y-107058034D01*
X108570892Y-107008695D01*
X108537779Y-106958855D01*
X108531905Y-106951755D01*
X108404448Y-106799857D01*
X108361718Y-106758013D01*
X108319559Y-106715558D01*
X108312417Y-106709734D01*
X108157883Y-106585485D01*
X108107847Y-106552742D01*
X108058235Y-106519278D01*
X108050098Y-106514952D01*
X107874375Y-106423086D01*
X107818936Y-106400688D01*
X107763768Y-106377497D01*
X107754946Y-106374834D01*
X107564724Y-106318849D01*
X107506016Y-106307650D01*
X107447367Y-106295611D01*
X107438195Y-106294712D01*
X107240723Y-106276741D01*
X107180906Y-106277159D01*
X107121088Y-106276741D01*
X107111917Y-106277641D01*
X106914715Y-106298368D01*
X106856151Y-106310390D01*
X106797362Y-106321604D01*
X106788540Y-106324268D01*
X106599118Y-106382903D01*
X106544005Y-106406071D01*
X106488507Y-106428493D01*
X106480371Y-106432820D01*
X106305947Y-106527130D01*
X106256331Y-106560597D01*
X106206301Y-106593335D01*
X106199160Y-106599159D01*
X106046376Y-106725553D01*
X106004237Y-106767988D01*
X105961487Y-106809851D01*
X105955613Y-106816952D01*
X105830289Y-106970614D01*
X105797174Y-107020456D01*
X105763390Y-107069796D01*
X105759007Y-107077902D01*
X105665916Y-107252980D01*
X105643125Y-107308275D01*
X105619554Y-107363270D01*
X105616829Y-107372073D01*
X105559518Y-107561900D01*
X105547900Y-107620580D01*
X105535463Y-107679087D01*
X105534500Y-107688252D01*
X105515150Y-107885594D01*
X105515150Y-107885599D01*
X105512000Y-107917582D01*
X105054000Y-107917582D01*
X105054000Y-107917581D01*
X105050751Y-107884593D01*
X105050751Y-107871409D01*
X105049788Y-107862244D01*
X105027685Y-107665192D01*
X105015251Y-107606699D01*
X105003630Y-107548003D01*
X105000904Y-107539200D01*
X104940948Y-107350193D01*
X104917400Y-107295249D01*
X104894586Y-107239900D01*
X104890203Y-107231794D01*
X104794676Y-107058034D01*
X104760892Y-107008695D01*
X104727779Y-106958855D01*
X104721905Y-106951755D01*
X104594448Y-106799857D01*
X104551718Y-106758013D01*
X104509559Y-106715558D01*
X104502417Y-106709734D01*
X104347883Y-106585485D01*
X104297847Y-106552742D01*
X104248235Y-106519278D01*
X104240098Y-106514952D01*
X104064375Y-106423086D01*
X104008936Y-106400688D01*
X103953768Y-106377497D01*
X103944946Y-106374834D01*
X103754724Y-106318849D01*
X103696016Y-106307650D01*
X103637367Y-106295611D01*
X103628195Y-106294712D01*
X103430723Y-106276741D01*
X103370906Y-106277159D01*
X103311088Y-106276741D01*
X103301917Y-106277641D01*
X103104715Y-106298368D01*
X103046151Y-106310390D01*
X102987362Y-106321604D01*
X102978540Y-106324268D01*
X102789118Y-106382903D01*
X102734005Y-106406071D01*
X102678507Y-106428493D01*
X102670371Y-106432820D01*
X102495947Y-106527130D01*
X102446331Y-106560597D01*
X102396301Y-106593335D01*
X102389160Y-106599159D01*
X102236376Y-106725553D01*
X102194237Y-106767988D01*
X102151487Y-106809851D01*
X102145613Y-106816952D01*
X102020289Y-106970614D01*
X101987174Y-107020456D01*
X101953390Y-107069796D01*
X101949007Y-107077902D01*
X101855916Y-107252980D01*
X101833125Y-107308275D01*
X101809554Y-107363270D01*
X101806829Y-107372073D01*
X101749518Y-107561900D01*
X101737900Y-107620580D01*
X101725463Y-107679087D01*
X101724500Y-107688252D01*
X101705150Y-107885594D01*
X101705150Y-107885599D01*
X101702000Y-107917582D01*
X101256000Y-107917582D01*
X101256000Y-104159031D01*
X101541120Y-104349542D01*
X101946408Y-104517418D01*
X102376660Y-104603000D01*
X102815340Y-104603000D01*
X103245592Y-104517418D01*
X103650880Y-104349542D01*
X104015630Y-104105824D01*
X104325824Y-103795630D01*
X104569542Y-103430880D01*
X104737418Y-103025592D01*
X104823000Y-102595340D01*
X104823000Y-102156660D01*
X104737418Y-101726408D01*
X104569542Y-101321120D01*
X104379031Y-101036000D01*
X108228857Y-101036000D01*
X108121503Y-101093382D01*
%TA.AperFunction,Conductor*%
D14*
G36*
X108121503Y-101093382D02*
G01*
X107990716Y-101200716D01*
X107883382Y-101331503D01*
X107803625Y-101480717D01*
X107754512Y-101642623D01*
X107737928Y-101811000D01*
X107737928Y-103061000D01*
X107754512Y-103229377D01*
X107803625Y-103391283D01*
X107883382Y-103540497D01*
X107990716Y-103671284D01*
X108121503Y-103778618D01*
X108270717Y-103858375D01*
X108432623Y-103907488D01*
X108601000Y-103924072D01*
X109051000Y-103924072D01*
X109219377Y-103907488D01*
X109381283Y-103858375D01*
X109530497Y-103778618D01*
X109661284Y-103671284D01*
X109768618Y-103540497D01*
X109848375Y-103391283D01*
X109897488Y-103229377D01*
X109914072Y-103061000D01*
X109914072Y-101811000D01*
X109897488Y-101642623D01*
X109848375Y-101480717D01*
X109768618Y-101331503D01*
X109661284Y-101200716D01*
X109530497Y-101093382D01*
X109423143Y-101036000D01*
X116128857Y-101036000D01*
X116021503Y-101093382D01*
X115890716Y-101200716D01*
X115783382Y-101331503D01*
X115703625Y-101480717D01*
X115654512Y-101642623D01*
X115637928Y-101811000D01*
X115637928Y-103061000D01*
X115654512Y-103229377D01*
X115703625Y-103391283D01*
X115783382Y-103540497D01*
X115890716Y-103671284D01*
X116021503Y-103778618D01*
X116170717Y-103858375D01*
X116332623Y-103907488D01*
X116501000Y-103924072D01*
X116951000Y-103924072D01*
X117119377Y-103907488D01*
X117281283Y-103858375D01*
X117430497Y-103778618D01*
X117561284Y-103671284D01*
X117668618Y-103540497D01*
X117748375Y-103391283D01*
X117797488Y-103229377D01*
X117814072Y-103061000D01*
X117814072Y-101811000D01*
X117797488Y-101642623D01*
X117748375Y-101480717D01*
X117668618Y-101331503D01*
X117561284Y-101200716D01*
X117430497Y-101093382D01*
X117323143Y-101036000D01*
X120812969Y-101036000D01*
X120622458Y-101321120D01*
X120454582Y-101726408D01*
X120369000Y-102156660D01*
X120369000Y-102595340D01*
X120454582Y-103025592D01*
X120622458Y-103430880D01*
X120866176Y-103795630D01*
X121176370Y-104105824D01*
X121541120Y-104349542D01*
X121946408Y-104517418D01*
X122376660Y-104603000D01*
X122815340Y-104603000D01*
X123245592Y-104517418D01*
X123650880Y-104349542D01*
X123936271Y-104158850D01*
X123938761Y-120594814D01*
X123650880Y-120402458D01*
X123245592Y-120234582D01*
X122815340Y-120149000D01*
X122376660Y-120149000D01*
X121946408Y-120234582D01*
X121541120Y-120402458D01*
X121176370Y-120646176D01*
X120866176Y-120956370D01*
X120622458Y-121321120D01*
X120454582Y-121726408D01*
X120369000Y-122156660D01*
X120369000Y-122595340D01*
X120454582Y-123025592D01*
X120622458Y-123430880D01*
X120866176Y-123795630D01*
X121176370Y-124105824D01*
X121541120Y-124349542D01*
X121946408Y-124517418D01*
X122376660Y-124603000D01*
X122815340Y-124603000D01*
X123245592Y-124517418D01*
X123650880Y-124349542D01*
X123939300Y-124156826D01*
X123939995Y-128745770D01*
X123911375Y-129037660D01*
X123835965Y-129287429D01*
X123713477Y-129517794D01*
X123548579Y-129719979D01*
X123347546Y-129886288D01*
X123118046Y-130010378D01*
X122868805Y-130087531D01*
X122578911Y-130118000D01*
X119617433Y-130118000D01*
X119652405Y-130075386D01*
X119734472Y-129921850D01*
X119785008Y-129755254D01*
X119802072Y-129582000D01*
X119802072Y-128482000D01*
X119785008Y-128308746D01*
X119734472Y-128142150D01*
X119652405Y-127988614D01*
X119541962Y-127854038D01*
X119407386Y-127743595D01*
X119253850Y-127661528D01*
X119087254Y-127610992D01*
X118914000Y-127593928D01*
X117814000Y-127593928D01*
X117640746Y-127610992D01*
X117474150Y-127661528D01*
X117320614Y-127743595D01*
X117186038Y-127854038D01*
X117075595Y-127988614D01*
X116993528Y-128142150D01*
X116942992Y-128308746D01*
X116925928Y-128482000D01*
X116925928Y-129582000D01*
X116942992Y-129755254D01*
X116993528Y-129921850D01*
X117075595Y-130075386D01*
X117110567Y-130118000D01*
X102628279Y-130118000D01*
X102336340Y-130089375D01*
X102086571Y-130013965D01*
X101856206Y-129891477D01*
X101654021Y-129726579D01*
X101487712Y-129525546D01*
X101363622Y-129296046D01*
X101286469Y-129046805D01*
X101256000Y-128756911D01*
X101256000Y-128578000D01*
X105391928Y-128578000D01*
X105391928Y-128978000D01*
X105408031Y-129141500D01*
X105455722Y-129298716D01*
X105533169Y-129443608D01*
X105637394Y-129570606D01*
X105764392Y-129674831D01*
X105909284Y-129752278D01*
X106066500Y-129799969D01*
X106230000Y-129816072D01*
X107130000Y-129816072D01*
X107293500Y-129799969D01*
X107450716Y-129752278D01*
X107595608Y-129674831D01*
X107722606Y-129570606D01*
X107826831Y-129443608D01*
X107904278Y-129298716D01*
X107951969Y-129141500D01*
X107968072Y-128978000D01*
X107968072Y-128578000D01*
X109201928Y-128578000D01*
X109201928Y-128978000D01*
X109218031Y-129141500D01*
X109265722Y-129298716D01*
X109343169Y-129443608D01*
X109447394Y-129570606D01*
X109574392Y-129674831D01*
X109719284Y-129752278D01*
X109876500Y-129799969D01*
X110040000Y-129816072D01*
X110940000Y-129816072D01*
X111103500Y-129799969D01*
X111260716Y-129752278D01*
X111405608Y-129674831D01*
X111532606Y-129570606D01*
X111636831Y-129443608D01*
X111714278Y-129298716D01*
X111761969Y-129141500D01*
X111778072Y-128978000D01*
X111778072Y-128578000D01*
X113011928Y-128578000D01*
X113011928Y-128978000D01*
X113028031Y-129141500D01*
X113075722Y-129298716D01*
X113153169Y-129443608D01*
X113257394Y-129570606D01*
X113384392Y-129674831D01*
X113529284Y-129752278D01*
X113686500Y-129799969D01*
X113850000Y-129816072D01*
X114750000Y-129816072D01*
X114913500Y-129799969D01*
X115070716Y-129752278D01*
X115215608Y-129674831D01*
X115342606Y-129570606D01*
X115446831Y-129443608D01*
X115524278Y-129298716D01*
X115571969Y-129141500D01*
X115588072Y-128978000D01*
X115588072Y-128578000D01*
X115571969Y-128414500D01*
X115524278Y-128257284D01*
X115446831Y-128112392D01*
X115342606Y-127985394D01*
X115215608Y-127881169D01*
X115070716Y-127803722D01*
X114913500Y-127756031D01*
X114750000Y-127739928D01*
X113850000Y-127739928D01*
X113686500Y-127756031D01*
X113529284Y-127803722D01*
X113384392Y-127881169D01*
X113257394Y-127985394D01*
X113153169Y-128112392D01*
X113075722Y-128257284D01*
X113028031Y-128414500D01*
X113011928Y-128578000D01*
X111778072Y-128578000D01*
X111761969Y-128414500D01*
X111714278Y-128257284D01*
X111636831Y-128112392D01*
X111532606Y-127985394D01*
X111405608Y-127881169D01*
X111260716Y-127803722D01*
X111103500Y-127756031D01*
X110940000Y-127739928D01*
X110040000Y-127739928D01*
X109876500Y-127756031D01*
X109719284Y-127803722D01*
X109574392Y-127881169D01*
X109447394Y-127985394D01*
X109343169Y-128112392D01*
X109265722Y-128257284D01*
X109218031Y-128414500D01*
X109201928Y-128578000D01*
X107968072Y-128578000D01*
X107951969Y-128414500D01*
X107904278Y-128257284D01*
X107826831Y-128112392D01*
X107722606Y-127985394D01*
X107595608Y-127881169D01*
X107450716Y-127803722D01*
X107293500Y-127756031D01*
X107130000Y-127739928D01*
X106230000Y-127739928D01*
X106066500Y-127756031D01*
X105909284Y-127803722D01*
X105764392Y-127881169D01*
X105637394Y-127985394D01*
X105533169Y-128112392D01*
X105455722Y-128257284D01*
X105408031Y-128414500D01*
X105391928Y-128578000D01*
X101256000Y-128578000D01*
X101256000Y-126278000D01*
X105389993Y-126278000D01*
X105409976Y-126480895D01*
X105469159Y-126675993D01*
X105565266Y-126855797D01*
X105694604Y-127013396D01*
X105852203Y-127142734D01*
X106032007Y-127238841D01*
X106227105Y-127298024D01*
X106379162Y-127313000D01*
X106980838Y-127313000D01*
X107132895Y-127298024D01*
X107327993Y-127238841D01*
X107507797Y-127142734D01*
X107665396Y-127013396D01*
X107794734Y-126855797D01*
X107890841Y-126675993D01*
X107950024Y-126480895D01*
X107970007Y-126278000D01*
X109199993Y-126278000D01*
X109219976Y-126480895D01*
X109279159Y-126675993D01*
X109375266Y-126855797D01*
X109504604Y-127013396D01*
X109662203Y-127142734D01*
X109842007Y-127238841D01*
X110037105Y-127298024D01*
X110189162Y-127313000D01*
X110790838Y-127313000D01*
X110942895Y-127298024D01*
X111137993Y-127238841D01*
X111317797Y-127142734D01*
X111475396Y-127013396D01*
X111604734Y-126855797D01*
X111700841Y-126675993D01*
X111760024Y-126480895D01*
X111780007Y-126278000D01*
X113009993Y-126278000D01*
X113029976Y-126480895D01*
X113089159Y-126675993D01*
X113185266Y-126855797D01*
X113314604Y-127013396D01*
X113472203Y-127142734D01*
X113652007Y-127238841D01*
X113847105Y-127298024D01*
X113999162Y-127313000D01*
X114600838Y-127313000D01*
X114752895Y-127298024D01*
X114947993Y-127238841D01*
X115127797Y-127142734D01*
X115285396Y-127013396D01*
X115414734Y-126855797D01*
X115510841Y-126675993D01*
X115570024Y-126480895D01*
X115590007Y-126278000D01*
X115570024Y-126075105D01*
X115510841Y-125880007D01*
X115414734Y-125700203D01*
X115285396Y-125542604D01*
X115127797Y-125413266D01*
X114947993Y-125317159D01*
X114752895Y-125257976D01*
X114600838Y-125243000D01*
X113999162Y-125243000D01*
X113847105Y-125257976D01*
X113652007Y-125317159D01*
X113472203Y-125413266D01*
X113314604Y-125542604D01*
X113185266Y-125700203D01*
X113089159Y-125880007D01*
X113029976Y-126075105D01*
X113009993Y-126278000D01*
X111780007Y-126278000D01*
X111760024Y-126075105D01*
X111700841Y-125880007D01*
X111604734Y-125700203D01*
X111475396Y-125542604D01*
X111317797Y-125413266D01*
X111137993Y-125317159D01*
X110942895Y-125257976D01*
X110790838Y-125243000D01*
X110189162Y-125243000D01*
X110037105Y-125257976D01*
X109842007Y-125317159D01*
X109662203Y-125413266D01*
X109504604Y-125542604D01*
X109375266Y-125700203D01*
X109279159Y-125880007D01*
X109219976Y-126075105D01*
X109199993Y-126278000D01*
X107970007Y-126278000D01*
X107950024Y-126075105D01*
X107890841Y-125880007D01*
X107794734Y-125700203D01*
X107665396Y-125542604D01*
X107507797Y-125413266D01*
X107327993Y-125317159D01*
X107132895Y-125257976D01*
X106980838Y-125243000D01*
X106379162Y-125243000D01*
X106227105Y-125257976D01*
X106032007Y-125317159D01*
X105852203Y-125413266D01*
X105694604Y-125542604D01*
X105565266Y-125700203D01*
X105469159Y-125880007D01*
X105409976Y-126075105D01*
X105389993Y-126278000D01*
X101256000Y-126278000D01*
X101256000Y-124159031D01*
X101541120Y-124349542D01*
X101946408Y-124517418D01*
X102376660Y-124603000D01*
X102815340Y-124603000D01*
X103245592Y-124517418D01*
X103650880Y-124349542D01*
X104015630Y-124105824D01*
X104325824Y-123795630D01*
X104569542Y-123430880D01*
X104737418Y-123025592D01*
X104823000Y-122595340D01*
X104823000Y-122386000D01*
X105241928Y-122386000D01*
X105241928Y-123486000D01*
X105258992Y-123659254D01*
X105309528Y-123825850D01*
X105391595Y-123979386D01*
X105502038Y-124113962D01*
X105636614Y-124224405D01*
X105790150Y-124306472D01*
X105956746Y-124357008D01*
X106130000Y-124374072D01*
X107230000Y-124374072D01*
X107403254Y-124357008D01*
X107569850Y-124306472D01*
X107723386Y-124224405D01*
X107857962Y-124113962D01*
X107968405Y-123979386D01*
X108050472Y-123825850D01*
X108101008Y-123659254D01*
X108118072Y-123486000D01*
X108118072Y-122820217D01*
X110341001Y-120597288D01*
X110341001Y-121497928D01*
X109940000Y-121497928D01*
X109766746Y-121514992D01*
X109600150Y-121565528D01*
X109446614Y-121647595D01*
X109312038Y-121758038D01*
X109201595Y-121892614D01*
X109119528Y-122046150D01*
X109068992Y-122212746D01*
X109051928Y-122386000D01*
X109051928Y-123486000D01*
X109068992Y-123659254D01*
X109119528Y-123825850D01*
X109201595Y-123979386D01*
X109312038Y-124113962D01*
X109446614Y-124224405D01*
X109600150Y-124306472D01*
X109766746Y-124357008D01*
X109940000Y-124374072D01*
X111040000Y-124374072D01*
X111213254Y-124357008D01*
X111379850Y-124306472D01*
X111533386Y-124224405D01*
X111667962Y-124113962D01*
X111778405Y-123979386D01*
X111860472Y-123825850D01*
X111911008Y-123659254D01*
X111928072Y-123486000D01*
X111928072Y-122824415D01*
X111940344Y-122814344D01*
X112057186Y-122671972D01*
X112144007Y-122509540D01*
X112197471Y-122333292D01*
X112211000Y-122195932D01*
X112213389Y-122171678D01*
X112861928Y-122820218D01*
X112861928Y-123486000D01*
X112878992Y-123659254D01*
X112929528Y-123825850D01*
X113011595Y-123979386D01*
X113122038Y-124113962D01*
X113256614Y-124224405D01*
X113410150Y-124306472D01*
X113576746Y-124357008D01*
X113750000Y-124374072D01*
X114850000Y-124374072D01*
X115023254Y-124357008D01*
X115189850Y-124306472D01*
X115343386Y-124224405D01*
X115477962Y-124113962D01*
X115588405Y-123979386D01*
X115670472Y-123825850D01*
X115721008Y-123659254D01*
X115738072Y-123486000D01*
X115738072Y-122386000D01*
X115721008Y-122212746D01*
X115670472Y-122046150D01*
X115588405Y-121892614D01*
X115477962Y-121758038D01*
X115343386Y-121647595D01*
X115189850Y-121565528D01*
X115023254Y-121514992D01*
X114850000Y-121497928D01*
X114184218Y-121497928D01*
X113211000Y-120524711D01*
X113211000Y-119105289D01*
X116925928Y-122820217D01*
X116925928Y-123486000D01*
X116942992Y-123659254D01*
X116993528Y-123825850D01*
X117075595Y-123979386D01*
X117186038Y-124113962D01*
X117320614Y-124224405D01*
X117474150Y-124306472D01*
X117640746Y-124357008D01*
X117814000Y-124374072D01*
X118914000Y-124374072D01*
X119087254Y-124357008D01*
X119253850Y-124306472D01*
X119407386Y-124224405D01*
X119541962Y-124113962D01*
X119652405Y-123979386D01*
X119734472Y-123825850D01*
X119785008Y-123659254D01*
X119802072Y-123486000D01*
X119802072Y-122386000D01*
X119785008Y-122212746D01*
X119734472Y-122046150D01*
X119652405Y-121892614D01*
X119541962Y-121758038D01*
X119407386Y-121647595D01*
X119253850Y-121565528D01*
X119087254Y-121514992D01*
X118914000Y-121497928D01*
X118248217Y-121497928D01*
X114211000Y-117460711D01*
X114211000Y-106067190D01*
X114214072Y-106036000D01*
X114214072Y-105561000D01*
X114336476Y-105561000D01*
X114337928Y-105575742D01*
X114337928Y-106036000D01*
X114353071Y-106189745D01*
X114397916Y-106337582D01*
X114470742Y-106473829D01*
X114568749Y-106593251D01*
X114688171Y-106691258D01*
X114824418Y-106764084D01*
X114972255Y-106808929D01*
X115126000Y-106824072D01*
X115426000Y-106824072D01*
X115579745Y-106808929D01*
X115727582Y-106764084D01*
X115863829Y-106691258D01*
X115881250Y-106676961D01*
X115926226Y-106721937D01*
X116095744Y-106835205D01*
X116284102Y-106913226D01*
X116484061Y-106953000D01*
X116687939Y-106953000D01*
X116887898Y-106913226D01*
X117076256Y-106835205D01*
X117186908Y-106761270D01*
X117180237Y-106767988D01*
X117137487Y-106809851D01*
X117131613Y-106816952D01*
X117006289Y-106970614D01*
X116973174Y-107020456D01*
X116939390Y-107069796D01*
X116935007Y-107077902D01*
X116841916Y-107252980D01*
X116819125Y-107308275D01*
X116795554Y-107363270D01*
X116792829Y-107372073D01*
X116735518Y-107561900D01*
X116723900Y-107620580D01*
X116711463Y-107679087D01*
X116710500Y-107688252D01*
X116691150Y-107885594D01*
X116691150Y-107885599D01*
X116688000Y-107917582D01*
X116688001Y-118142419D01*
X116691249Y-118175397D01*
X116691249Y-118188591D01*
X116692212Y-118197756D01*
X116714315Y-118394808D01*
X116726747Y-118453295D01*
X116738370Y-118511997D01*
X116741096Y-118520800D01*
X116801052Y-118709808D01*
X116824612Y-118764778D01*
X116847414Y-118820099D01*
X116851797Y-118828205D01*
X116947324Y-119001966D01*
X116981130Y-119051338D01*
X117014221Y-119101144D01*
X117020095Y-119108245D01*
X117147552Y-119260142D01*
X117190263Y-119301968D01*
X117232441Y-119344442D01*
X117239583Y-119350266D01*
X117394116Y-119474515D01*
X117444170Y-119507269D01*
X117493765Y-119540722D01*
X117501901Y-119545048D01*
X117677625Y-119636914D01*
X117733078Y-119659318D01*
X117788233Y-119682503D01*
X117797055Y-119685166D01*
X117987276Y-119741151D01*
X118046010Y-119752355D01*
X118104633Y-119764389D01*
X118113805Y-119765288D01*
X118311277Y-119783259D01*
X118371094Y-119782841D01*
X118430911Y-119783259D01*
X118440083Y-119782359D01*
X118637284Y-119761632D01*
X118695834Y-119749613D01*
X118754639Y-119738396D01*
X118763461Y-119735732D01*
X118952882Y-119677097D01*
X119008009Y-119653924D01*
X119063492Y-119631507D01*
X119071629Y-119627181D01*
X119246052Y-119532870D01*
X119295636Y-119499425D01*
X119345699Y-119466665D01*
X119352840Y-119460841D01*
X119505624Y-119334446D01*
X119547744Y-119292031D01*
X119590513Y-119250149D01*
X119596387Y-119243048D01*
X119721711Y-119089386D01*
X119754803Y-119039577D01*
X119788610Y-118990205D01*
X119792993Y-118982098D01*
X119886084Y-118807020D01*
X119908875Y-118751725D01*
X119932446Y-118696730D01*
X119935171Y-118687926D01*
X119992482Y-118498100D01*
X120004098Y-118439434D01*
X120016537Y-118380913D01*
X120017500Y-118371748D01*
X120036850Y-118174407D01*
X120036850Y-118174402D01*
X120040000Y-118142419D01*
X120040000Y-107917582D01*
X120498000Y-107917582D01*
X120498001Y-118142419D01*
X120501249Y-118175397D01*
X120501249Y-118188591D01*
X120502212Y-118197756D01*
X120524315Y-118394808D01*
X120536747Y-118453295D01*
X120548370Y-118511997D01*
X120551096Y-118520800D01*
X120611052Y-118709808D01*
X120634612Y-118764778D01*
X120657414Y-118820099D01*
X120661797Y-118828205D01*
X120757324Y-119001966D01*
X120791130Y-119051338D01*
X120824221Y-119101144D01*
X120830095Y-119108245D01*
X120957552Y-119260142D01*
X121000263Y-119301968D01*
X121042441Y-119344442D01*
X121049583Y-119350266D01*
X121204116Y-119474515D01*
X121254170Y-119507269D01*
X121303765Y-119540722D01*
X121311901Y-119545048D01*
X121487625Y-119636914D01*
X121543078Y-119659318D01*
X121598233Y-119682503D01*
X121607055Y-119685166D01*
X121797276Y-119741151D01*
X121856010Y-119752355D01*
X121914633Y-119764389D01*
X121923805Y-119765288D01*
X122121277Y-119783259D01*
X122181094Y-119782841D01*
X122240911Y-119783259D01*
X122250083Y-119782359D01*
X122447284Y-119761632D01*
X122505834Y-119749613D01*
X122564639Y-119738396D01*
X122573461Y-119735732D01*
X122762882Y-119677097D01*
X122818009Y-119653924D01*
X122873492Y-119631507D01*
X122881629Y-119627181D01*
X123056052Y-119532870D01*
X123105636Y-119499425D01*
X123155699Y-119466665D01*
X123162840Y-119460841D01*
X123315624Y-119334446D01*
X123357744Y-119292031D01*
X123400513Y-119250149D01*
X123406387Y-119243048D01*
X123531711Y-119089386D01*
X123564803Y-119039577D01*
X123598610Y-118990205D01*
X123602993Y-118982098D01*
X123696084Y-118807020D01*
X123718875Y-118751725D01*
X123742446Y-118696730D01*
X123745171Y-118687926D01*
X123802482Y-118498100D01*
X123814098Y-118439434D01*
X123826537Y-118380913D01*
X123827500Y-118371748D01*
X123846850Y-118174407D01*
X123846850Y-118174402D01*
X123850000Y-118142419D01*
X123850000Y-107917581D01*
X123846751Y-107884593D01*
X123846751Y-107871409D01*
X123845788Y-107862244D01*
X123823685Y-107665192D01*
X123811251Y-107606699D01*
X123799630Y-107548003D01*
X123796904Y-107539200D01*
X123736948Y-107350193D01*
X123713400Y-107295249D01*
X123690586Y-107239900D01*
X123686203Y-107231794D01*
X123590676Y-107058034D01*
X123556892Y-107008695D01*
X123523779Y-106958855D01*
X123517905Y-106951755D01*
X123390448Y-106799857D01*
X123347718Y-106758013D01*
X123305559Y-106715558D01*
X123298417Y-106709734D01*
X123143883Y-106585485D01*
X123093847Y-106552742D01*
X123044235Y-106519278D01*
X123036098Y-106514952D01*
X122860375Y-106423086D01*
X122804936Y-106400688D01*
X122749768Y-106377497D01*
X122740946Y-106374834D01*
X122550724Y-106318849D01*
X122492016Y-106307650D01*
X122433367Y-106295611D01*
X122424195Y-106294712D01*
X122226723Y-106276741D01*
X122166906Y-106277159D01*
X122107088Y-106276741D01*
X122097917Y-106277641D01*
X121900715Y-106298368D01*
X121842151Y-106310390D01*
X121783362Y-106321604D01*
X121774540Y-106324268D01*
X121585118Y-106382903D01*
X121530005Y-106406071D01*
X121474507Y-106428493D01*
X121466371Y-106432820D01*
X121291947Y-106527130D01*
X121242331Y-106560597D01*
X121192301Y-106593335D01*
X121185160Y-106599159D01*
X121032376Y-106725553D01*
X120990237Y-106767988D01*
X120947487Y-106809851D01*
X120941613Y-106816952D01*
X120816289Y-106970614D01*
X120783174Y-107020456D01*
X120749390Y-107069796D01*
X120745007Y-107077902D01*
X120651916Y-107252980D01*
X120629125Y-107308275D01*
X120605554Y-107363270D01*
X120602829Y-107372073D01*
X120545518Y-107561900D01*
X120533900Y-107620580D01*
X120521463Y-107679087D01*
X120520500Y-107688252D01*
X120501150Y-107885594D01*
X120501150Y-107885599D01*
X120498000Y-107917582D01*
X120040000Y-107917582D01*
X120040000Y-107917581D01*
X120036751Y-107884593D01*
X120036751Y-107871409D01*
X120035788Y-107862244D01*
X120013685Y-107665192D01*
X120001251Y-107606699D01*
X119989630Y-107548003D01*
X119986904Y-107539200D01*
X119926948Y-107350193D01*
X119903400Y-107295249D01*
X119880586Y-107239900D01*
X119876203Y-107231794D01*
X119780676Y-107058034D01*
X119746892Y-107008695D01*
X119713779Y-106958855D01*
X119707905Y-106951755D01*
X119580448Y-106799857D01*
X119537718Y-106758013D01*
X119495559Y-106715558D01*
X119488417Y-106709734D01*
X119333883Y-106585485D01*
X119283847Y-106552742D01*
X119234235Y-106519278D01*
X119226098Y-106514952D01*
X119050375Y-106423086D01*
X118994936Y-106400688D01*
X118939768Y-106377497D01*
X118930946Y-106374834D01*
X118740724Y-106318849D01*
X118682016Y-106307650D01*
X118623367Y-106295611D01*
X118614195Y-106294712D01*
X118416723Y-106276741D01*
X118356906Y-106277159D01*
X118297088Y-106276741D01*
X118287917Y-106277641D01*
X118090715Y-106298368D01*
X118032151Y-106310390D01*
X117973362Y-106321604D01*
X117964540Y-106324268D01*
X117775118Y-106382903D01*
X117720005Y-106406071D01*
X117664507Y-106428493D01*
X117656371Y-106432820D01*
X117481947Y-106527130D01*
X117432331Y-106560597D01*
X117382301Y-106593335D01*
X117375160Y-106599159D01*
X117336903Y-106630808D01*
X117389937Y-106577774D01*
X117503205Y-106408256D01*
X117581226Y-106219898D01*
X117621000Y-106019939D01*
X117621000Y-105816061D01*
X117581226Y-105616102D01*
X117503205Y-105427744D01*
X117389937Y-105258226D01*
X117245774Y-105114063D01*
X117076256Y-105000795D01*
X116930858Y-104940569D01*
X116922630Y-104932341D01*
X116893344Y-104896656D01*
X116750972Y-104779814D01*
X116588540Y-104692993D01*
X116412292Y-104639529D01*
X116274932Y-104626000D01*
X116229000Y-104621476D01*
X116183068Y-104626000D01*
X116063063Y-104626000D01*
X115983251Y-104528749D01*
X115863829Y-104430742D01*
X115727582Y-104357916D01*
X115579745Y-104313071D01*
X115426000Y-104297928D01*
X115126000Y-104297928D01*
X114972255Y-104313071D01*
X114824418Y-104357916D01*
X114688171Y-104430742D01*
X114568749Y-104528749D01*
X114470742Y-104648171D01*
X114397916Y-104784418D01*
X114353071Y-104932255D01*
X114337928Y-105086000D01*
X114337928Y-105546258D01*
X114336476Y-105561000D01*
X114214072Y-105561000D01*
X114214072Y-105086000D01*
X114198929Y-104932255D01*
X114154084Y-104784418D01*
X114081258Y-104648171D01*
X113983251Y-104528749D01*
X113863829Y-104430742D01*
X113727582Y-104357916D01*
X113579745Y-104313071D01*
X113426000Y-104297928D01*
X113126000Y-104297928D01*
X112972255Y-104313071D01*
X112824418Y-104357916D01*
X112776000Y-104383796D01*
X112727582Y-104357916D01*
X112579745Y-104313071D01*
X112426000Y-104297928D01*
X112126000Y-104297928D01*
X111972255Y-104313071D01*
X111824418Y-104357916D01*
X111776000Y-104383796D01*
X111727582Y-104357916D01*
X111579745Y-104313071D01*
X111426000Y-104297928D01*
X111126000Y-104297928D01*
X110972255Y-104313071D01*
X110824418Y-104357916D01*
X110776000Y-104383796D01*
X110727582Y-104357916D01*
X110579745Y-104313071D01*
X110426000Y-104297928D01*
X110126000Y-104297928D01*
X109972255Y-104313071D01*
X109824418Y-104357916D01*
X109688171Y-104430742D01*
X109568749Y-104528749D01*
X109470742Y-104648171D01*
X109397916Y-104784418D01*
X109353071Y-104932255D01*
X109337928Y-105086000D01*
X109337928Y-106036000D01*
X109341000Y-106067190D01*
X109341001Y-118952710D01*
X106795783Y-121497928D01*
X106130000Y-121497928D01*
X105956746Y-121514992D01*
X105790150Y-121565528D01*
X105636614Y-121647595D01*
X105502038Y-121758038D01*
X105391595Y-121892614D01*
X105309528Y-122046150D01*
X105258992Y-122212746D01*
X105241928Y-122386000D01*
X104823000Y-122386000D01*
X104823000Y-122156660D01*
X104737418Y-121726408D01*
X104569542Y-121321120D01*
X104325824Y-120956370D01*
X104015630Y-120646176D01*
X103650880Y-120402458D01*
X103245592Y-120234582D01*
X102815340Y-120149000D01*
X102376660Y-120149000D01*
X101946408Y-120234582D01*
X101541120Y-120402458D01*
X101256000Y-120592969D01*
X101256000Y-107917582D01*
X101702000Y-107917582D01*
X101702001Y-118142419D01*
X101705249Y-118175397D01*
X101705249Y-118188591D01*
X101706212Y-118197756D01*
X101728315Y-118394808D01*
X101740747Y-118453295D01*
X101752370Y-118511997D01*
X101755096Y-118520800D01*
X101815052Y-118709808D01*
X101838612Y-118764778D01*
X101861414Y-118820099D01*
X101865797Y-118828205D01*
X101961324Y-119001966D01*
X101995130Y-119051338D01*
X102028221Y-119101144D01*
X102034095Y-119108245D01*
X102161552Y-119260142D01*
X102204263Y-119301968D01*
X102246441Y-119344442D01*
X102253583Y-119350266D01*
X102408116Y-119474515D01*
X102458170Y-119507269D01*
X102507765Y-119540722D01*
X102515901Y-119545048D01*
X102691625Y-119636914D01*
X102747078Y-119659318D01*
X102802233Y-119682503D01*
X102811055Y-119685166D01*
X103001276Y-119741151D01*
X103060010Y-119752355D01*
X103118633Y-119764389D01*
X103127805Y-119765288D01*
X103325277Y-119783259D01*
X103385094Y-119782841D01*
X103444911Y-119783259D01*
X103454083Y-119782359D01*
X103651284Y-119761632D01*
X103709834Y-119749613D01*
X103768639Y-119738396D01*
X103777461Y-119735732D01*
X103966882Y-119677097D01*
X104022009Y-119653924D01*
X104077492Y-119631507D01*
X104085629Y-119627181D01*
X104260052Y-119532870D01*
X104309636Y-119499425D01*
X104359699Y-119466665D01*
X104366840Y-119460841D01*
X104519624Y-119334446D01*
X104561744Y-119292031D01*
X104604513Y-119250149D01*
X104610387Y-119243048D01*
X104735711Y-119089386D01*
X104768803Y-119039577D01*
X104802610Y-118990205D01*
X104806993Y-118982098D01*
X104900084Y-118807020D01*
X104922875Y-118751725D01*
X104946446Y-118696730D01*
X104949171Y-118687926D01*
X105006482Y-118498100D01*
X105018098Y-118439434D01*
X105030537Y-118380913D01*
X105031500Y-118371748D01*
X105050850Y-118174407D01*
X105050850Y-118174402D01*
X105054000Y-118142419D01*
X105054000Y-107917582D01*
X105512000Y-107917582D01*
X105512001Y-118142419D01*
X105515249Y-118175397D01*
X105515249Y-118188591D01*
X105516212Y-118197756D01*
X105538315Y-118394808D01*
X105550747Y-118453295D01*
X105562370Y-118511997D01*
X105565096Y-118520800D01*
X105625052Y-118709808D01*
X105648612Y-118764778D01*
X105671414Y-118820099D01*
X105675797Y-118828205D01*
X105771324Y-119001966D01*
X105805130Y-119051338D01*
X105838221Y-119101144D01*
X105844095Y-119108245D01*
X105971552Y-119260142D01*
X106014263Y-119301968D01*
X106056441Y-119344442D01*
X106063583Y-119350266D01*
X106218116Y-119474515D01*
X106268170Y-119507269D01*
X106317765Y-119540722D01*
X106325901Y-119545048D01*
X106501625Y-119636914D01*
X106557078Y-119659318D01*
X106612233Y-119682503D01*
X106621055Y-119685166D01*
X106811276Y-119741151D01*
X106870010Y-119752355D01*
X106928633Y-119764389D01*
X106937805Y-119765288D01*
X107135277Y-119783259D01*
X107195094Y-119782841D01*
X107254911Y-119783259D01*
X107264083Y-119782359D01*
X107461284Y-119761632D01*
X107519834Y-119749613D01*
X107578639Y-119738396D01*
X107587461Y-119735732D01*
X107776882Y-119677097D01*
X107832009Y-119653924D01*
X107887492Y-119631507D01*
X107895629Y-119627181D01*
X108070052Y-119532870D01*
X108119636Y-119499425D01*
X108169699Y-119466665D01*
X108176840Y-119460841D01*
X108329624Y-119334446D01*
X108371744Y-119292031D01*
X108414513Y-119250149D01*
X108420387Y-119243048D01*
X108545711Y-119089386D01*
X108578803Y-119039577D01*
X108612610Y-118990205D01*
X108616993Y-118982098D01*
X108710084Y-118807020D01*
X108732875Y-118751725D01*
X108756446Y-118696730D01*
X108759171Y-118687926D01*
X108816482Y-118498100D01*
X108828098Y-118439434D01*
X108840537Y-118380913D01*
X108841500Y-118371748D01*
X108860850Y-118174407D01*
X108860850Y-118174402D01*
X108864000Y-118142419D01*
X108864000Y-107917581D01*
X108860751Y-107884593D01*
X108860751Y-107871409D01*
X108859788Y-107862244D01*
X108837685Y-107665192D01*
X108825251Y-107606699D01*
X108813630Y-107548003D01*
X108810904Y-107539200D01*
X108750948Y-107350193D01*
X108727400Y-107295249D01*
X108704586Y-107239900D01*
X108700203Y-107231794D01*
X108604676Y-107058034D01*
X108570892Y-107008695D01*
X108537779Y-106958855D01*
X108531905Y-106951755D01*
X108404448Y-106799857D01*
X108361718Y-106758013D01*
X108319559Y-106715558D01*
X108312417Y-106709734D01*
X108157883Y-106585485D01*
X108107847Y-106552742D01*
X108058235Y-106519278D01*
X108050098Y-106514952D01*
X107874375Y-106423086D01*
X107818936Y-106400688D01*
X107763768Y-106377497D01*
X107754946Y-106374834D01*
X107564724Y-106318849D01*
X107506016Y-106307650D01*
X107447367Y-106295611D01*
X107438195Y-106294712D01*
X107240723Y-106276741D01*
X107180906Y-106277159D01*
X107121088Y-106276741D01*
X107111917Y-106277641D01*
X106914715Y-106298368D01*
X106856151Y-106310390D01*
X106797362Y-106321604D01*
X106788540Y-106324268D01*
X106599118Y-106382903D01*
X106544005Y-106406071D01*
X106488507Y-106428493D01*
X106480371Y-106432820D01*
X106305947Y-106527130D01*
X106256331Y-106560597D01*
X106206301Y-106593335D01*
X106199160Y-106599159D01*
X106046376Y-106725553D01*
X106004237Y-106767988D01*
X105961487Y-106809851D01*
X105955613Y-106816952D01*
X105830289Y-106970614D01*
X105797174Y-107020456D01*
X105763390Y-107069796D01*
X105759007Y-107077902D01*
X105665916Y-107252980D01*
X105643125Y-107308275D01*
X105619554Y-107363270D01*
X105616829Y-107372073D01*
X105559518Y-107561900D01*
X105547900Y-107620580D01*
X105535463Y-107679087D01*
X105534500Y-107688252D01*
X105515150Y-107885594D01*
X105515150Y-107885599D01*
X105512000Y-107917582D01*
X105054000Y-107917582D01*
X105054000Y-107917581D01*
X105050751Y-107884593D01*
X105050751Y-107871409D01*
X105049788Y-107862244D01*
X105027685Y-107665192D01*
X105015251Y-107606699D01*
X105003630Y-107548003D01*
X105000904Y-107539200D01*
X104940948Y-107350193D01*
X104917400Y-107295249D01*
X104894586Y-107239900D01*
X104890203Y-107231794D01*
X104794676Y-107058034D01*
X104760892Y-107008695D01*
X104727779Y-106958855D01*
X104721905Y-106951755D01*
X104594448Y-106799857D01*
X104551718Y-106758013D01*
X104509559Y-106715558D01*
X104502417Y-106709734D01*
X104347883Y-106585485D01*
X104297847Y-106552742D01*
X104248235Y-106519278D01*
X104240098Y-106514952D01*
X104064375Y-106423086D01*
X104008936Y-106400688D01*
X103953768Y-106377497D01*
X103944946Y-106374834D01*
X103754724Y-106318849D01*
X103696016Y-106307650D01*
X103637367Y-106295611D01*
X103628195Y-106294712D01*
X103430723Y-106276741D01*
X103370906Y-106277159D01*
X103311088Y-106276741D01*
X103301917Y-106277641D01*
X103104715Y-106298368D01*
X103046151Y-106310390D01*
X102987362Y-106321604D01*
X102978540Y-106324268D01*
X102789118Y-106382903D01*
X102734005Y-106406071D01*
X102678507Y-106428493D01*
X102670371Y-106432820D01*
X102495947Y-106527130D01*
X102446331Y-106560597D01*
X102396301Y-106593335D01*
X102389160Y-106599159D01*
X102236376Y-106725553D01*
X102194237Y-106767988D01*
X102151487Y-106809851D01*
X102145613Y-106816952D01*
X102020289Y-106970614D01*
X101987174Y-107020456D01*
X101953390Y-107069796D01*
X101949007Y-107077902D01*
X101855916Y-107252980D01*
X101833125Y-107308275D01*
X101809554Y-107363270D01*
X101806829Y-107372073D01*
X101749518Y-107561900D01*
X101737900Y-107620580D01*
X101725463Y-107679087D01*
X101724500Y-107688252D01*
X101705150Y-107885594D01*
X101705150Y-107885599D01*
X101702000Y-107917582D01*
X101256000Y-107917582D01*
X101256000Y-104159031D01*
X101541120Y-104349542D01*
X101946408Y-104517418D01*
X102376660Y-104603000D01*
X102815340Y-104603000D01*
X103245592Y-104517418D01*
X103650880Y-104349542D01*
X104015630Y-104105824D01*
X104325824Y-103795630D01*
X104569542Y-103430880D01*
X104737418Y-103025592D01*
X104823000Y-102595340D01*
X104823000Y-102156660D01*
X104737418Y-101726408D01*
X104569542Y-101321120D01*
X104379031Y-101036000D01*
X108228857Y-101036000D01*
X108121503Y-101093382D01*
G37*
%TD.AperFunction*%
%TD*%
M02*
