M48
; DRILL file {KiCad (5.1.9)-1} date 05/31/22 00:47:12
; FORMAT={-:-/ absolute / inch / decimal}
; #@! TF.CreationDate,2022-05-31T00:47:12+01:00
; #@! TF.GenerationSoftware,Kicad,Pcbnew,(5.1.9)-1
FMAT,2
INCH
T1C0.0157
T2C0.0197
T3C0.0236
T4C0.0866
%
G90
G05
T1
X4.59Y-4.17
T2
X4.2Y-4.9716
X4.2Y-5.0208
X4.2Y-5.07
X4.35Y-4.9716
X4.35Y-5.0208
X4.35Y-5.07
X4.5Y-4.9716
X4.5Y-5.0208
X4.5Y-5.07
T3
X4.2Y-4.84
X4.35Y-4.84
X4.5Y-4.84
X4.66Y-4.84
X4.66Y-4.96
X4.66Y-5.08
T4
X4.0392Y-4.0306
X4.0392Y-4.818
X4.8266Y-4.0306
X4.8266Y-4.818
T0
M30
