%TF.GenerationSoftware,KiCad,Pcbnew,(5.1.9)-1*%
%TF.CreationDate,2022-05-31T00:47:08+01:00*%
%TF.ProjectId,board,626f6172-642e-46b6-9963-61645f706362,rev?*%
%TF.SameCoordinates,Original*%
%TF.FileFunction,Soldermask,Bot*%
%TF.FilePolarity,Negative*%
%FSLAX46Y46*%
G04 Gerber Fmt 4.6, Leading zero omitted, Abs format (unit mm)*
G04 Created by KiCad (PCBNEW (5.1.9)-1) date 2022-05-31 00:47:08*
%MOMM*%
%LPD*%
G01*
G04 APERTURE LIST*
%ADD10O,1.300000X0.800000*%
%ADD11C,2.200000*%
G04 APERTURE END LIST*
%TO.C,J13*%
G36*
G01*
X107480000Y-122386000D02*
X107480000Y-123486000D01*
G75*
G02*
X107230000Y-123736000I-250000J0D01*
G01*
X106130000Y-123736000D01*
G75*
G02*
X105880000Y-123486000I0J250000D01*
G01*
X105880000Y-122386000D01*
G75*
G02*
X106130000Y-122136000I250000J0D01*
G01*
X107230000Y-122136000D01*
G75*
G02*
X107480000Y-122386000I0J-250000D01*
G01*
G37*
%TD*%
%TO.C,J10*%
G36*
G01*
X117814000Y-125184000D02*
X118914000Y-125184000D01*
G75*
G02*
X119164000Y-125434000I0J-250000D01*
G01*
X119164000Y-126534000D01*
G75*
G02*
X118914000Y-126784000I-250000J0D01*
G01*
X117814000Y-126784000D01*
G75*
G02*
X117564000Y-126534000I0J250000D01*
G01*
X117564000Y-125434000D01*
G75*
G02*
X117814000Y-125184000I250000J0D01*
G01*
G37*
%TD*%
%TO.C,J9*%
G36*
G01*
X118914000Y-123736000D02*
X117814000Y-123736000D01*
G75*
G02*
X117564000Y-123486000I0J250000D01*
G01*
X117564000Y-122386000D01*
G75*
G02*
X117814000Y-122136000I250000J0D01*
G01*
X118914000Y-122136000D01*
G75*
G02*
X119164000Y-122386000I0J-250000D01*
G01*
X119164000Y-123486000D01*
G75*
G02*
X118914000Y-123736000I-250000J0D01*
G01*
G37*
%TD*%
%TO.C,J8*%
G36*
G01*
X113500000Y-123486000D02*
X113500000Y-122386000D01*
G75*
G02*
X113750000Y-122136000I250000J0D01*
G01*
X114850000Y-122136000D01*
G75*
G02*
X115100000Y-122386000I0J-250000D01*
G01*
X115100000Y-123486000D01*
G75*
G02*
X114850000Y-123736000I-250000J0D01*
G01*
X113750000Y-123736000D01*
G75*
G02*
X113500000Y-123486000I0J250000D01*
G01*
G37*
%TD*%
%TO.C,J7*%
G36*
G01*
X109690000Y-123486000D02*
X109690000Y-122386000D01*
G75*
G02*
X109940000Y-122136000I250000J0D01*
G01*
X111040000Y-122136000D01*
G75*
G02*
X111290000Y-122386000I0J-250000D01*
G01*
X111290000Y-123486000D01*
G75*
G02*
X111040000Y-123736000I-250000J0D01*
G01*
X109940000Y-123736000D01*
G75*
G02*
X109690000Y-123486000I0J250000D01*
G01*
G37*
%TD*%
%TO.C,J6*%
G36*
G01*
X117814000Y-128232000D02*
X118914000Y-128232000D01*
G75*
G02*
X119164000Y-128482000I0J-250000D01*
G01*
X119164000Y-129582000D01*
G75*
G02*
X118914000Y-129832000I-250000J0D01*
G01*
X117814000Y-129832000D01*
G75*
G02*
X117564000Y-129582000I0J250000D01*
G01*
X117564000Y-128482000D01*
G75*
G02*
X117814000Y-128232000I250000J0D01*
G01*
G37*
%TD*%
D10*
%TO.C,J4*%
X114300000Y-126278000D03*
X114300000Y-127528000D03*
G36*
G01*
X114750000Y-129178000D02*
X113850000Y-129178000D01*
G75*
G02*
X113650000Y-128978000I0J200000D01*
G01*
X113650000Y-128578000D01*
G75*
G02*
X113850000Y-128378000I200000J0D01*
G01*
X114750000Y-128378000D01*
G75*
G02*
X114950000Y-128578000I0J-200000D01*
G01*
X114950000Y-128978000D01*
G75*
G02*
X114750000Y-129178000I-200000J0D01*
G01*
G37*
%TD*%
%TO.C,J3*%
X110490000Y-126278000D03*
X110490000Y-127528000D03*
G36*
G01*
X110940000Y-129178000D02*
X110040000Y-129178000D01*
G75*
G02*
X109840000Y-128978000I0J200000D01*
G01*
X109840000Y-128578000D01*
G75*
G02*
X110040000Y-128378000I200000J0D01*
G01*
X110940000Y-128378000D01*
G75*
G02*
X111140000Y-128578000I0J-200000D01*
G01*
X111140000Y-128978000D01*
G75*
G02*
X110940000Y-129178000I-200000J0D01*
G01*
G37*
%TD*%
%TO.C,J2*%
X106680000Y-126278000D03*
X106680000Y-127528000D03*
G36*
G01*
X107130000Y-129178000D02*
X106230000Y-129178000D01*
G75*
G02*
X106030000Y-128978000I0J200000D01*
G01*
X106030000Y-128578000D01*
G75*
G02*
X106230000Y-128378000I200000J0D01*
G01*
X107130000Y-128378000D01*
G75*
G02*
X107330000Y-128578000I0J-200000D01*
G01*
X107330000Y-128978000D01*
G75*
G02*
X107130000Y-129178000I-200000J0D01*
G01*
G37*
%TD*%
D11*
%TO.C,H4*%
X122596000Y-122376000D03*
%TD*%
%TO.C,H3*%
X122596000Y-102376000D03*
%TD*%
%TO.C,H2*%
X102596000Y-122376000D03*
%TD*%
%TO.C,H1*%
X102596000Y-102376000D03*
%TD*%
M02*
