%TF.GenerationSoftware,KiCad,Pcbnew,(5.1.9)-1*%
%TF.CreationDate,2021-10-26T22:47:50+01:00*%
%TF.ProjectId,Top hat 16mm Blade,546f7020-6861-4742-9031-366d6d20426c,rev?*%
%TF.SameCoordinates,Original*%
%TF.FileFunction,Copper,L2,Bot*%
%TF.FilePolarity,Positive*%
%FSLAX46Y46*%
G04 Gerber Fmt 4.6, Leading zero omitted, Abs format (unit mm)*
G04 Created by KiCad (PCBNEW (5.1.9)-1) date 2021-10-26 22:47:50*
%MOMM*%
%LPD*%
G01*
G04 APERTURE LIST*
%TA.AperFunction,ComponentPad*%
%ADD10O,1.700000X1.700000*%
%TD*%
%TA.AperFunction,ComponentPad*%
%ADD11R,1.700000X1.700000*%
%TD*%
%TA.AperFunction,ComponentPad*%
%ADD12O,1.730000X1.030000*%
%TD*%
%TA.AperFunction,Conductor*%
%ADD13C,0.254000*%
%TD*%
%TA.AperFunction,Conductor*%
%ADD14C,0.100000*%
%TD*%
G04 APERTURE END LIST*
%TO.P,J8,1*%
%TO.N,GND*%
%TA.AperFunction,ComponentPad*%
G36*
G01*
X164500000Y-148500000D02*
X164500000Y-145500000D01*
G75*
G02*
X165000000Y-145000000I500000J0D01*
G01*
X166000000Y-145000000D01*
G75*
G02*
X166500000Y-145500000I0J-500000D01*
G01*
X166500000Y-148500000D01*
G75*
G02*
X166000000Y-149000000I-500000J0D01*
G01*
X165000000Y-149000000D01*
G75*
G02*
X164500000Y-148500000I0J500000D01*
G01*
G37*
%TD.AperFunction*%
%TD*%
D10*
%TO.P,J14,3*%
%TO.N,GND*%
X176500000Y-151370000D03*
%TO.P,J14,2*%
%TO.N,VCC*%
X176500000Y-153910000D03*
D11*
%TO.P,J14,1*%
%TO.N,Net-(J14-Pad1)*%
X176500000Y-156450000D03*
%TD*%
D10*
%TO.P,J13,3*%
%TO.N,GND*%
X173500000Y-151370000D03*
%TO.P,J13,2*%
%TO.N,VCC*%
X173500000Y-153910000D03*
D11*
%TO.P,J13,1*%
%TO.N,Net-(J13-Pad1)*%
X173500000Y-156450000D03*
%TD*%
D12*
%TO.P,J12,3*%
%TO.N,VCC*%
X169545000Y-152440000D03*
%TO.P,J12,2*%
%TO.N,GND*%
X169545000Y-153940000D03*
%TO.P,J12,1*%
%TO.N,Net-(J12-Pad1)*%
%TA.AperFunction,ComponentPad*%
G36*
G01*
X170160001Y-155955000D02*
X168929999Y-155955000D01*
G75*
G02*
X168680000Y-155705001I0J249999D01*
G01*
X168680000Y-155174999D01*
G75*
G02*
X168929999Y-154925000I249999J0D01*
G01*
X170160001Y-154925000D01*
G75*
G02*
X170410000Y-155174999I0J-249999D01*
G01*
X170410000Y-155705001D01*
G75*
G02*
X170160001Y-155955000I-249999J0D01*
G01*
G37*
%TD.AperFunction*%
%TD*%
%TO.P,J11,3*%
%TO.N,VCC*%
X165522500Y-152440000D03*
%TO.P,J11,2*%
%TO.N,GND*%
X165522500Y-153940000D03*
%TO.P,J11,1*%
%TO.N,Net-(J11-Pad1)*%
%TA.AperFunction,ComponentPad*%
G36*
G01*
X166137501Y-155955000D02*
X164907499Y-155955000D01*
G75*
G02*
X164657500Y-155705001I0J249999D01*
G01*
X164657500Y-155174999D01*
G75*
G02*
X164907499Y-154925000I249999J0D01*
G01*
X166137501Y-154925000D01*
G75*
G02*
X166387500Y-155174999I0J-249999D01*
G01*
X166387500Y-155705001D01*
G75*
G02*
X166137501Y-155955000I-249999J0D01*
G01*
G37*
%TD.AperFunction*%
%TD*%
%TO.P,J10,3*%
%TO.N,VCC*%
X161500000Y-152440000D03*
%TO.P,J10,2*%
%TO.N,GND*%
X161500000Y-153940000D03*
%TO.P,J10,1*%
%TO.N,Net-(J10-Pad1)*%
%TA.AperFunction,ComponentPad*%
G36*
G01*
X162115001Y-155955000D02*
X160884999Y-155955000D01*
G75*
G02*
X160635000Y-155705001I0J249999D01*
G01*
X160635000Y-155174999D01*
G75*
G02*
X160884999Y-154925000I249999J0D01*
G01*
X162115001Y-154925000D01*
G75*
G02*
X162365000Y-155174999I0J-249999D01*
G01*
X162365000Y-155705001D01*
G75*
G02*
X162115001Y-155955000I-249999J0D01*
G01*
G37*
%TD.AperFunction*%
%TD*%
%TO.P,J1,1*%
%TO.N,GND*%
%TA.AperFunction,ComponentPad*%
G36*
G01*
X163250000Y-163250000D02*
X163250000Y-161750000D01*
G75*
G02*
X163500000Y-161500000I250000J0D01*
G01*
X164000000Y-161500000D01*
G75*
G02*
X164250000Y-161750000I0J-250000D01*
G01*
X164250000Y-163250000D01*
G75*
G02*
X164000000Y-163500000I-250000J0D01*
G01*
X163500000Y-163500000D01*
G75*
G02*
X163250000Y-163250000I0J250000D01*
G01*
G37*
%TD.AperFunction*%
%TD*%
D13*
%TO.N,GND*%
X172897012Y-145058719D02*
X172773000Y-145682168D01*
X172773000Y-146317832D01*
X172897012Y-146941281D01*
X173140270Y-147528558D01*
X173493425Y-148057093D01*
X173942907Y-148506575D01*
X174471442Y-148859730D01*
X175058719Y-149102988D01*
X175682168Y-149227000D01*
X176317832Y-149227000D01*
X176941281Y-149102988D01*
X177423000Y-148903453D01*
X177423000Y-152885627D01*
X177377787Y-152840414D01*
X177152254Y-152689718D01*
X176901656Y-152585917D01*
X176635623Y-152533000D01*
X176364377Y-152533000D01*
X176098344Y-152585917D01*
X175847746Y-152689718D01*
X175622213Y-152840414D01*
X175430414Y-153032213D01*
X175279718Y-153257746D01*
X175175917Y-153508344D01*
X175123000Y-153774377D01*
X175123000Y-154045623D01*
X175175917Y-154311656D01*
X175279718Y-154562254D01*
X175430414Y-154787787D01*
X175622213Y-154979586D01*
X175758202Y-155070451D01*
X175650000Y-155070451D01*
X175546690Y-155080626D01*
X175447350Y-155110761D01*
X175355798Y-155159696D01*
X175275552Y-155225552D01*
X175209696Y-155305798D01*
X175160761Y-155397350D01*
X175130626Y-155496690D01*
X175120451Y-155600000D01*
X175120451Y-157300000D01*
X175130626Y-157403310D01*
X175160761Y-157502650D01*
X175209696Y-157594202D01*
X175275552Y-157674448D01*
X175355798Y-157740304D01*
X175447350Y-157789239D01*
X175546690Y-157819374D01*
X175650000Y-157829549D01*
X177350000Y-157829549D01*
X177423001Y-157822359D01*
X177423001Y-159096547D01*
X176941281Y-158897012D01*
X176317832Y-158773000D01*
X175682168Y-158773000D01*
X175058719Y-158897012D01*
X174471442Y-159140270D01*
X173942907Y-159493425D01*
X173493425Y-159942907D01*
X173140270Y-160471442D01*
X172897012Y-161058719D01*
X172773000Y-161682168D01*
X172773000Y-162317832D01*
X172897012Y-162941281D01*
X173096546Y-163423000D01*
X162903454Y-163423000D01*
X163102988Y-162941281D01*
X163227000Y-162317832D01*
X163227000Y-161682168D01*
X163102988Y-161058719D01*
X162859730Y-160471442D01*
X162506575Y-159942907D01*
X162057093Y-159493425D01*
X161528558Y-159140270D01*
X160941281Y-158897012D01*
X160317832Y-158773000D01*
X159682168Y-158773000D01*
X159058719Y-158897012D01*
X158577000Y-159096546D01*
X158577000Y-155174999D01*
X160105451Y-155174999D01*
X160105451Y-155705001D01*
X160120430Y-155857083D01*
X160164791Y-156003321D01*
X160236829Y-156138095D01*
X160333775Y-156256225D01*
X160451905Y-156353171D01*
X160586679Y-156425209D01*
X160732917Y-156469570D01*
X160884999Y-156484549D01*
X162115001Y-156484549D01*
X162267083Y-156469570D01*
X162413321Y-156425209D01*
X162548095Y-156353171D01*
X162666225Y-156256225D01*
X162763171Y-156138095D01*
X162835209Y-156003321D01*
X162879570Y-155857083D01*
X162894549Y-155705001D01*
X162894549Y-155174999D01*
X164127951Y-155174999D01*
X164127951Y-155705001D01*
X164142930Y-155857083D01*
X164187291Y-156003321D01*
X164259329Y-156138095D01*
X164356275Y-156256225D01*
X164474405Y-156353171D01*
X164609179Y-156425209D01*
X164755417Y-156469570D01*
X164907499Y-156484549D01*
X166137501Y-156484549D01*
X166289583Y-156469570D01*
X166435821Y-156425209D01*
X166570595Y-156353171D01*
X166688725Y-156256225D01*
X166785671Y-156138095D01*
X166857709Y-156003321D01*
X166902070Y-155857083D01*
X166917049Y-155705001D01*
X166917049Y-155174999D01*
X168150451Y-155174999D01*
X168150451Y-155705001D01*
X168165430Y-155857083D01*
X168209791Y-156003321D01*
X168281829Y-156138095D01*
X168378775Y-156256225D01*
X168496905Y-156353171D01*
X168631679Y-156425209D01*
X168777917Y-156469570D01*
X168929999Y-156484549D01*
X170160001Y-156484549D01*
X170312083Y-156469570D01*
X170458321Y-156425209D01*
X170593095Y-156353171D01*
X170711225Y-156256225D01*
X170808171Y-156138095D01*
X170880209Y-156003321D01*
X170924570Y-155857083D01*
X170939549Y-155705001D01*
X170939549Y-155600000D01*
X172120451Y-155600000D01*
X172120451Y-157300000D01*
X172130626Y-157403310D01*
X172160761Y-157502650D01*
X172209696Y-157594202D01*
X172275552Y-157674448D01*
X172355798Y-157740304D01*
X172447350Y-157789239D01*
X172546690Y-157819374D01*
X172650000Y-157829549D01*
X174350000Y-157829549D01*
X174453310Y-157819374D01*
X174552650Y-157789239D01*
X174644202Y-157740304D01*
X174724448Y-157674448D01*
X174790304Y-157594202D01*
X174839239Y-157502650D01*
X174869374Y-157403310D01*
X174879549Y-157300000D01*
X174879549Y-155600000D01*
X174869374Y-155496690D01*
X174839239Y-155397350D01*
X174790304Y-155305798D01*
X174724448Y-155225552D01*
X174644202Y-155159696D01*
X174552650Y-155110761D01*
X174453310Y-155080626D01*
X174350000Y-155070451D01*
X174241798Y-155070451D01*
X174377787Y-154979586D01*
X174569586Y-154787787D01*
X174720282Y-154562254D01*
X174824083Y-154311656D01*
X174877000Y-154045623D01*
X174877000Y-153774377D01*
X174824083Y-153508344D01*
X174720282Y-153257746D01*
X174569586Y-153032213D01*
X174377787Y-152840414D01*
X174152254Y-152689718D01*
X173901656Y-152585917D01*
X173635623Y-152533000D01*
X173364377Y-152533000D01*
X173098344Y-152585917D01*
X172847746Y-152689718D01*
X172622213Y-152840414D01*
X172430414Y-153032213D01*
X172279718Y-153257746D01*
X172175917Y-153508344D01*
X172123000Y-153774377D01*
X172123000Y-154045623D01*
X172175917Y-154311656D01*
X172279718Y-154562254D01*
X172430414Y-154787787D01*
X172622213Y-154979586D01*
X172758202Y-155070451D01*
X172650000Y-155070451D01*
X172546690Y-155080626D01*
X172447350Y-155110761D01*
X172355798Y-155159696D01*
X172275552Y-155225552D01*
X172209696Y-155305798D01*
X172160761Y-155397350D01*
X172130626Y-155496690D01*
X172120451Y-155600000D01*
X170939549Y-155600000D01*
X170939549Y-155174999D01*
X170924570Y-155022917D01*
X170880209Y-154876679D01*
X170808171Y-154741905D01*
X170711225Y-154623775D01*
X170593095Y-154526829D01*
X170458321Y-154454791D01*
X170312083Y-154410430D01*
X170160001Y-154395451D01*
X168929999Y-154395451D01*
X168777917Y-154410430D01*
X168631679Y-154454791D01*
X168496905Y-154526829D01*
X168378775Y-154623775D01*
X168281829Y-154741905D01*
X168209791Y-154876679D01*
X168165430Y-155022917D01*
X168150451Y-155174999D01*
X166917049Y-155174999D01*
X166902070Y-155022917D01*
X166857709Y-154876679D01*
X166785671Y-154741905D01*
X166688725Y-154623775D01*
X166570595Y-154526829D01*
X166435821Y-154454791D01*
X166289583Y-154410430D01*
X166137501Y-154395451D01*
X164907499Y-154395451D01*
X164755417Y-154410430D01*
X164609179Y-154454791D01*
X164474405Y-154526829D01*
X164356275Y-154623775D01*
X164259329Y-154741905D01*
X164187291Y-154876679D01*
X164142930Y-155022917D01*
X164127951Y-155174999D01*
X162894549Y-155174999D01*
X162879570Y-155022917D01*
X162835209Y-154876679D01*
X162763171Y-154741905D01*
X162666225Y-154623775D01*
X162548095Y-154526829D01*
X162413321Y-154454791D01*
X162267083Y-154410430D01*
X162115001Y-154395451D01*
X160884999Y-154395451D01*
X160732917Y-154410430D01*
X160586679Y-154454791D01*
X160451905Y-154526829D01*
X160333775Y-154623775D01*
X160236829Y-154741905D01*
X160164791Y-154876679D01*
X160120430Y-155022917D01*
X160105451Y-155174999D01*
X158577000Y-155174999D01*
X158577000Y-152440000D01*
X160102959Y-152440000D01*
X160123078Y-152644268D01*
X160182660Y-152840685D01*
X160279417Y-153021705D01*
X160409630Y-153180370D01*
X160568295Y-153310583D01*
X160749315Y-153407340D01*
X160945732Y-153466922D01*
X161098819Y-153482000D01*
X161901181Y-153482000D01*
X162054268Y-153466922D01*
X162250685Y-153407340D01*
X162431705Y-153310583D01*
X162590370Y-153180370D01*
X162720583Y-153021705D01*
X162817340Y-152840685D01*
X162876922Y-152644268D01*
X162897041Y-152440000D01*
X164125459Y-152440000D01*
X164145578Y-152644268D01*
X164205160Y-152840685D01*
X164301917Y-153021705D01*
X164432130Y-153180370D01*
X164590795Y-153310583D01*
X164771815Y-153407340D01*
X164968232Y-153466922D01*
X165121319Y-153482000D01*
X165923681Y-153482000D01*
X166076768Y-153466922D01*
X166273185Y-153407340D01*
X166454205Y-153310583D01*
X166612870Y-153180370D01*
X166743083Y-153021705D01*
X166839840Y-152840685D01*
X166899422Y-152644268D01*
X166919541Y-152440000D01*
X168147959Y-152440000D01*
X168168078Y-152644268D01*
X168227660Y-152840685D01*
X168324417Y-153021705D01*
X168454630Y-153180370D01*
X168613295Y-153310583D01*
X168794315Y-153407340D01*
X168990732Y-153466922D01*
X169143819Y-153482000D01*
X169946181Y-153482000D01*
X170099268Y-153466922D01*
X170295685Y-153407340D01*
X170476705Y-153310583D01*
X170635370Y-153180370D01*
X170765583Y-153021705D01*
X170862340Y-152840685D01*
X170921922Y-152644268D01*
X170942041Y-152440000D01*
X170921922Y-152235732D01*
X170862340Y-152039315D01*
X170765583Y-151858295D01*
X170635370Y-151699630D01*
X170476705Y-151569417D01*
X170295685Y-151472660D01*
X170099268Y-151413078D01*
X169946181Y-151398000D01*
X169143819Y-151398000D01*
X168990732Y-151413078D01*
X168794315Y-151472660D01*
X168613295Y-151569417D01*
X168454630Y-151699630D01*
X168324417Y-151858295D01*
X168227660Y-152039315D01*
X168168078Y-152235732D01*
X168147959Y-152440000D01*
X166919541Y-152440000D01*
X166899422Y-152235732D01*
X166839840Y-152039315D01*
X166743083Y-151858295D01*
X166612870Y-151699630D01*
X166454205Y-151569417D01*
X166273185Y-151472660D01*
X166076768Y-151413078D01*
X165923681Y-151398000D01*
X165121319Y-151398000D01*
X164968232Y-151413078D01*
X164771815Y-151472660D01*
X164590795Y-151569417D01*
X164432130Y-151699630D01*
X164301917Y-151858295D01*
X164205160Y-152039315D01*
X164145578Y-152235732D01*
X164125459Y-152440000D01*
X162897041Y-152440000D01*
X162876922Y-152235732D01*
X162817340Y-152039315D01*
X162720583Y-151858295D01*
X162590370Y-151699630D01*
X162431705Y-151569417D01*
X162250685Y-151472660D01*
X162054268Y-151413078D01*
X161901181Y-151398000D01*
X161098819Y-151398000D01*
X160945732Y-151413078D01*
X160749315Y-151472660D01*
X160568295Y-151569417D01*
X160409630Y-151699630D01*
X160279417Y-151858295D01*
X160182660Y-152039315D01*
X160123078Y-152235732D01*
X160102959Y-152440000D01*
X158577000Y-152440000D01*
X158577000Y-148903454D01*
X159058719Y-149102988D01*
X159682168Y-149227000D01*
X160317832Y-149227000D01*
X160941281Y-149102988D01*
X161528558Y-148859730D01*
X162057093Y-148506575D01*
X162506575Y-148057093D01*
X162859730Y-147528558D01*
X163102988Y-146941281D01*
X163227000Y-146317832D01*
X163227000Y-145682168D01*
X163102988Y-145058719D01*
X162903454Y-144577000D01*
X173096546Y-144577000D01*
X172897012Y-145058719D01*
%TA.AperFunction,Conductor*%
D14*
G36*
X172897012Y-145058719D02*
G01*
X172773000Y-145682168D01*
X172773000Y-146317832D01*
X172897012Y-146941281D01*
X173140270Y-147528558D01*
X173493425Y-148057093D01*
X173942907Y-148506575D01*
X174471442Y-148859730D01*
X175058719Y-149102988D01*
X175682168Y-149227000D01*
X176317832Y-149227000D01*
X176941281Y-149102988D01*
X177423000Y-148903453D01*
X177423000Y-152885627D01*
X177377787Y-152840414D01*
X177152254Y-152689718D01*
X176901656Y-152585917D01*
X176635623Y-152533000D01*
X176364377Y-152533000D01*
X176098344Y-152585917D01*
X175847746Y-152689718D01*
X175622213Y-152840414D01*
X175430414Y-153032213D01*
X175279718Y-153257746D01*
X175175917Y-153508344D01*
X175123000Y-153774377D01*
X175123000Y-154045623D01*
X175175917Y-154311656D01*
X175279718Y-154562254D01*
X175430414Y-154787787D01*
X175622213Y-154979586D01*
X175758202Y-155070451D01*
X175650000Y-155070451D01*
X175546690Y-155080626D01*
X175447350Y-155110761D01*
X175355798Y-155159696D01*
X175275552Y-155225552D01*
X175209696Y-155305798D01*
X175160761Y-155397350D01*
X175130626Y-155496690D01*
X175120451Y-155600000D01*
X175120451Y-157300000D01*
X175130626Y-157403310D01*
X175160761Y-157502650D01*
X175209696Y-157594202D01*
X175275552Y-157674448D01*
X175355798Y-157740304D01*
X175447350Y-157789239D01*
X175546690Y-157819374D01*
X175650000Y-157829549D01*
X177350000Y-157829549D01*
X177423001Y-157822359D01*
X177423001Y-159096547D01*
X176941281Y-158897012D01*
X176317832Y-158773000D01*
X175682168Y-158773000D01*
X175058719Y-158897012D01*
X174471442Y-159140270D01*
X173942907Y-159493425D01*
X173493425Y-159942907D01*
X173140270Y-160471442D01*
X172897012Y-161058719D01*
X172773000Y-161682168D01*
X172773000Y-162317832D01*
X172897012Y-162941281D01*
X173096546Y-163423000D01*
X162903454Y-163423000D01*
X163102988Y-162941281D01*
X163227000Y-162317832D01*
X163227000Y-161682168D01*
X163102988Y-161058719D01*
X162859730Y-160471442D01*
X162506575Y-159942907D01*
X162057093Y-159493425D01*
X161528558Y-159140270D01*
X160941281Y-158897012D01*
X160317832Y-158773000D01*
X159682168Y-158773000D01*
X159058719Y-158897012D01*
X158577000Y-159096546D01*
X158577000Y-155174999D01*
X160105451Y-155174999D01*
X160105451Y-155705001D01*
X160120430Y-155857083D01*
X160164791Y-156003321D01*
X160236829Y-156138095D01*
X160333775Y-156256225D01*
X160451905Y-156353171D01*
X160586679Y-156425209D01*
X160732917Y-156469570D01*
X160884999Y-156484549D01*
X162115001Y-156484549D01*
X162267083Y-156469570D01*
X162413321Y-156425209D01*
X162548095Y-156353171D01*
X162666225Y-156256225D01*
X162763171Y-156138095D01*
X162835209Y-156003321D01*
X162879570Y-155857083D01*
X162894549Y-155705001D01*
X162894549Y-155174999D01*
X164127951Y-155174999D01*
X164127951Y-155705001D01*
X164142930Y-155857083D01*
X164187291Y-156003321D01*
X164259329Y-156138095D01*
X164356275Y-156256225D01*
X164474405Y-156353171D01*
X164609179Y-156425209D01*
X164755417Y-156469570D01*
X164907499Y-156484549D01*
X166137501Y-156484549D01*
X166289583Y-156469570D01*
X166435821Y-156425209D01*
X166570595Y-156353171D01*
X166688725Y-156256225D01*
X166785671Y-156138095D01*
X166857709Y-156003321D01*
X166902070Y-155857083D01*
X166917049Y-155705001D01*
X166917049Y-155174999D01*
X168150451Y-155174999D01*
X168150451Y-155705001D01*
X168165430Y-155857083D01*
X168209791Y-156003321D01*
X168281829Y-156138095D01*
X168378775Y-156256225D01*
X168496905Y-156353171D01*
X168631679Y-156425209D01*
X168777917Y-156469570D01*
X168929999Y-156484549D01*
X170160001Y-156484549D01*
X170312083Y-156469570D01*
X170458321Y-156425209D01*
X170593095Y-156353171D01*
X170711225Y-156256225D01*
X170808171Y-156138095D01*
X170880209Y-156003321D01*
X170924570Y-155857083D01*
X170939549Y-155705001D01*
X170939549Y-155600000D01*
X172120451Y-155600000D01*
X172120451Y-157300000D01*
X172130626Y-157403310D01*
X172160761Y-157502650D01*
X172209696Y-157594202D01*
X172275552Y-157674448D01*
X172355798Y-157740304D01*
X172447350Y-157789239D01*
X172546690Y-157819374D01*
X172650000Y-157829549D01*
X174350000Y-157829549D01*
X174453310Y-157819374D01*
X174552650Y-157789239D01*
X174644202Y-157740304D01*
X174724448Y-157674448D01*
X174790304Y-157594202D01*
X174839239Y-157502650D01*
X174869374Y-157403310D01*
X174879549Y-157300000D01*
X174879549Y-155600000D01*
X174869374Y-155496690D01*
X174839239Y-155397350D01*
X174790304Y-155305798D01*
X174724448Y-155225552D01*
X174644202Y-155159696D01*
X174552650Y-155110761D01*
X174453310Y-155080626D01*
X174350000Y-155070451D01*
X174241798Y-155070451D01*
X174377787Y-154979586D01*
X174569586Y-154787787D01*
X174720282Y-154562254D01*
X174824083Y-154311656D01*
X174877000Y-154045623D01*
X174877000Y-153774377D01*
X174824083Y-153508344D01*
X174720282Y-153257746D01*
X174569586Y-153032213D01*
X174377787Y-152840414D01*
X174152254Y-152689718D01*
X173901656Y-152585917D01*
X173635623Y-152533000D01*
X173364377Y-152533000D01*
X173098344Y-152585917D01*
X172847746Y-152689718D01*
X172622213Y-152840414D01*
X172430414Y-153032213D01*
X172279718Y-153257746D01*
X172175917Y-153508344D01*
X172123000Y-153774377D01*
X172123000Y-154045623D01*
X172175917Y-154311656D01*
X172279718Y-154562254D01*
X172430414Y-154787787D01*
X172622213Y-154979586D01*
X172758202Y-155070451D01*
X172650000Y-155070451D01*
X172546690Y-155080626D01*
X172447350Y-155110761D01*
X172355798Y-155159696D01*
X172275552Y-155225552D01*
X172209696Y-155305798D01*
X172160761Y-155397350D01*
X172130626Y-155496690D01*
X172120451Y-155600000D01*
X170939549Y-155600000D01*
X170939549Y-155174999D01*
X170924570Y-155022917D01*
X170880209Y-154876679D01*
X170808171Y-154741905D01*
X170711225Y-154623775D01*
X170593095Y-154526829D01*
X170458321Y-154454791D01*
X170312083Y-154410430D01*
X170160001Y-154395451D01*
X168929999Y-154395451D01*
X168777917Y-154410430D01*
X168631679Y-154454791D01*
X168496905Y-154526829D01*
X168378775Y-154623775D01*
X168281829Y-154741905D01*
X168209791Y-154876679D01*
X168165430Y-155022917D01*
X168150451Y-155174999D01*
X166917049Y-155174999D01*
X166902070Y-155022917D01*
X166857709Y-154876679D01*
X166785671Y-154741905D01*
X166688725Y-154623775D01*
X166570595Y-154526829D01*
X166435821Y-154454791D01*
X166289583Y-154410430D01*
X166137501Y-154395451D01*
X164907499Y-154395451D01*
X164755417Y-154410430D01*
X164609179Y-154454791D01*
X164474405Y-154526829D01*
X164356275Y-154623775D01*
X164259329Y-154741905D01*
X164187291Y-154876679D01*
X164142930Y-155022917D01*
X164127951Y-155174999D01*
X162894549Y-155174999D01*
X162879570Y-155022917D01*
X162835209Y-154876679D01*
X162763171Y-154741905D01*
X162666225Y-154623775D01*
X162548095Y-154526829D01*
X162413321Y-154454791D01*
X162267083Y-154410430D01*
X162115001Y-154395451D01*
X160884999Y-154395451D01*
X160732917Y-154410430D01*
X160586679Y-154454791D01*
X160451905Y-154526829D01*
X160333775Y-154623775D01*
X160236829Y-154741905D01*
X160164791Y-154876679D01*
X160120430Y-155022917D01*
X160105451Y-155174999D01*
X158577000Y-155174999D01*
X158577000Y-152440000D01*
X160102959Y-152440000D01*
X160123078Y-152644268D01*
X160182660Y-152840685D01*
X160279417Y-153021705D01*
X160409630Y-153180370D01*
X160568295Y-153310583D01*
X160749315Y-153407340D01*
X160945732Y-153466922D01*
X161098819Y-153482000D01*
X161901181Y-153482000D01*
X162054268Y-153466922D01*
X162250685Y-153407340D01*
X162431705Y-153310583D01*
X162590370Y-153180370D01*
X162720583Y-153021705D01*
X162817340Y-152840685D01*
X162876922Y-152644268D01*
X162897041Y-152440000D01*
X164125459Y-152440000D01*
X164145578Y-152644268D01*
X164205160Y-152840685D01*
X164301917Y-153021705D01*
X164432130Y-153180370D01*
X164590795Y-153310583D01*
X164771815Y-153407340D01*
X164968232Y-153466922D01*
X165121319Y-153482000D01*
X165923681Y-153482000D01*
X166076768Y-153466922D01*
X166273185Y-153407340D01*
X166454205Y-153310583D01*
X166612870Y-153180370D01*
X166743083Y-153021705D01*
X166839840Y-152840685D01*
X166899422Y-152644268D01*
X166919541Y-152440000D01*
X168147959Y-152440000D01*
X168168078Y-152644268D01*
X168227660Y-152840685D01*
X168324417Y-153021705D01*
X168454630Y-153180370D01*
X168613295Y-153310583D01*
X168794315Y-153407340D01*
X168990732Y-153466922D01*
X169143819Y-153482000D01*
X169946181Y-153482000D01*
X170099268Y-153466922D01*
X170295685Y-153407340D01*
X170476705Y-153310583D01*
X170635370Y-153180370D01*
X170765583Y-153021705D01*
X170862340Y-152840685D01*
X170921922Y-152644268D01*
X170942041Y-152440000D01*
X170921922Y-152235732D01*
X170862340Y-152039315D01*
X170765583Y-151858295D01*
X170635370Y-151699630D01*
X170476705Y-151569417D01*
X170295685Y-151472660D01*
X170099268Y-151413078D01*
X169946181Y-151398000D01*
X169143819Y-151398000D01*
X168990732Y-151413078D01*
X168794315Y-151472660D01*
X168613295Y-151569417D01*
X168454630Y-151699630D01*
X168324417Y-151858295D01*
X168227660Y-152039315D01*
X168168078Y-152235732D01*
X168147959Y-152440000D01*
X166919541Y-152440000D01*
X166899422Y-152235732D01*
X166839840Y-152039315D01*
X166743083Y-151858295D01*
X166612870Y-151699630D01*
X166454205Y-151569417D01*
X166273185Y-151472660D01*
X166076768Y-151413078D01*
X165923681Y-151398000D01*
X165121319Y-151398000D01*
X164968232Y-151413078D01*
X164771815Y-151472660D01*
X164590795Y-151569417D01*
X164432130Y-151699630D01*
X164301917Y-151858295D01*
X164205160Y-152039315D01*
X164145578Y-152235732D01*
X164125459Y-152440000D01*
X162897041Y-152440000D01*
X162876922Y-152235732D01*
X162817340Y-152039315D01*
X162720583Y-151858295D01*
X162590370Y-151699630D01*
X162431705Y-151569417D01*
X162250685Y-151472660D01*
X162054268Y-151413078D01*
X161901181Y-151398000D01*
X161098819Y-151398000D01*
X160945732Y-151413078D01*
X160749315Y-151472660D01*
X160568295Y-151569417D01*
X160409630Y-151699630D01*
X160279417Y-151858295D01*
X160182660Y-152039315D01*
X160123078Y-152235732D01*
X160102959Y-152440000D01*
X158577000Y-152440000D01*
X158577000Y-148903454D01*
X159058719Y-149102988D01*
X159682168Y-149227000D01*
X160317832Y-149227000D01*
X160941281Y-149102988D01*
X161528558Y-148859730D01*
X162057093Y-148506575D01*
X162506575Y-148057093D01*
X162859730Y-147528558D01*
X163102988Y-146941281D01*
X163227000Y-146317832D01*
X163227000Y-145682168D01*
X163102988Y-145058719D01*
X162903454Y-144577000D01*
X173096546Y-144577000D01*
X172897012Y-145058719D01*
G37*
%TD.AperFunction*%
%TD*%
M02*
