M48
; DRILL file {KiCad (5.1.9)-1} date 10/26/21 22:47:52
; FORMAT={-:-/ absolute / inch / decimal}
; #@! TF.CreationDate,2021-10-26T22:47:52+01:00
; #@! TF.GenerationSoftware,Kicad,Pcbnew,(5.1.9)-1
FMAT,2
INCH
T1C0.0236
T2C0.0287
T3C0.0394
T4C0.0866
%
G90
G05
T1
X6.4469Y-6.3976
T2
X6.3583Y-6.0016
X6.3583Y-6.0606
X6.3583Y-6.1197
X6.5166Y-6.0016
X6.5166Y-6.0606
X6.5166Y-6.1197
X6.675Y-6.0016
X6.675Y-6.0606
X6.675Y-6.1197
T3
X6.5157Y-5.7874
X6.8307Y-5.9594
X6.8307Y-6.0594
X6.8307Y-6.1594
X6.9488Y-5.9594
X6.9488Y-6.0594
X6.9488Y-6.1594
T4
X6.2992Y-5.748
X6.2992Y-6.378
X6.9291Y-5.748
X6.9291Y-6.378
T0
M30
