%TF.GenerationSoftware,KiCad,Pcbnew,(5.1.9)-1*%
%TF.CreationDate,2021-10-26T22:47:50+01:00*%
%TF.ProjectId,Top hat 16mm Blade,546f7020-6861-4742-9031-366d6d20426c,rev?*%
%TF.SameCoordinates,Original*%
%TF.FileFunction,Copper,L1,Top*%
%TF.FilePolarity,Positive*%
%FSLAX46Y46*%
G04 Gerber Fmt 4.6, Leading zero omitted, Abs format (unit mm)*
G04 Created by KiCad (PCBNEW (5.1.9)-1) date 2021-10-26 22:47:50*
%MOMM*%
%LPD*%
G01*
G04 APERTURE LIST*
%TA.AperFunction,ComponentPad*%
%ADD10O,1.700000X1.700000*%
%TD*%
%TA.AperFunction,ComponentPad*%
%ADD11R,1.700000X1.700000*%
%TD*%
%TA.AperFunction,ComponentPad*%
%ADD12O,1.730000X1.030000*%
%TD*%
%TA.AperFunction,Conductor*%
%ADD13C,1.000000*%
%TD*%
%TA.AperFunction,Conductor*%
%ADD14C,0.600000*%
%TD*%
%TA.AperFunction,Conductor*%
%ADD15C,0.254000*%
%TD*%
%TA.AperFunction,Conductor*%
%ADD16C,0.100000*%
%TD*%
G04 APERTURE END LIST*
%TO.P,J9,1*%
%TO.N,VCC*%
%TA.AperFunction,SMDPad,CuDef*%
G36*
G01*
X169000000Y-148500000D02*
X169000000Y-145500000D01*
G75*
G02*
X169500000Y-145000000I500000J0D01*
G01*
X170500000Y-145000000D01*
G75*
G02*
X171000000Y-145500000I0J-500000D01*
G01*
X171000000Y-148500000D01*
G75*
G02*
X170500000Y-149000000I-500000J0D01*
G01*
X169500000Y-149000000D01*
G75*
G02*
X169000000Y-148500000I0J500000D01*
G01*
G37*
%TD.AperFunction*%
%TD*%
%TO.P,J8,1*%
%TO.N,GND*%
%TA.AperFunction,ComponentPad*%
G36*
G01*
X164500000Y-148500000D02*
X164500000Y-145500000D01*
G75*
G02*
X165000000Y-145000000I500000J0D01*
G01*
X166000000Y-145000000D01*
G75*
G02*
X166500000Y-145500000I0J-500000D01*
G01*
X166500000Y-148500000D01*
G75*
G02*
X166000000Y-149000000I-500000J0D01*
G01*
X165000000Y-149000000D01*
G75*
G02*
X164500000Y-148500000I0J500000D01*
G01*
G37*
%TD.AperFunction*%
%TD*%
D10*
%TO.P,J14,3*%
%TO.N,GND*%
X176500000Y-151370000D03*
%TO.P,J14,2*%
%TO.N,VCC*%
X176500000Y-153910000D03*
D11*
%TO.P,J14,1*%
%TO.N,Net-(J14-Pad1)*%
X176500000Y-156450000D03*
%TD*%
D10*
%TO.P,J13,3*%
%TO.N,GND*%
X173500000Y-151370000D03*
%TO.P,J13,2*%
%TO.N,VCC*%
X173500000Y-153910000D03*
D11*
%TO.P,J13,1*%
%TO.N,Net-(J13-Pad1)*%
X173500000Y-156450000D03*
%TD*%
D12*
%TO.P,J12,3*%
%TO.N,VCC*%
X169545000Y-152440000D03*
%TO.P,J12,2*%
%TO.N,GND*%
X169545000Y-153940000D03*
%TO.P,J12,1*%
%TO.N,Net-(J12-Pad1)*%
%TA.AperFunction,ComponentPad*%
G36*
G01*
X170160001Y-155955000D02*
X168929999Y-155955000D01*
G75*
G02*
X168680000Y-155705001I0J249999D01*
G01*
X168680000Y-155174999D01*
G75*
G02*
X168929999Y-154925000I249999J0D01*
G01*
X170160001Y-154925000D01*
G75*
G02*
X170410000Y-155174999I0J-249999D01*
G01*
X170410000Y-155705001D01*
G75*
G02*
X170160001Y-155955000I-249999J0D01*
G01*
G37*
%TD.AperFunction*%
%TD*%
%TO.P,J11,3*%
%TO.N,VCC*%
X165522500Y-152440000D03*
%TO.P,J11,2*%
%TO.N,GND*%
X165522500Y-153940000D03*
%TO.P,J11,1*%
%TO.N,Net-(J11-Pad1)*%
%TA.AperFunction,ComponentPad*%
G36*
G01*
X166137501Y-155955000D02*
X164907499Y-155955000D01*
G75*
G02*
X164657500Y-155705001I0J249999D01*
G01*
X164657500Y-155174999D01*
G75*
G02*
X164907499Y-154925000I249999J0D01*
G01*
X166137501Y-154925000D01*
G75*
G02*
X166387500Y-155174999I0J-249999D01*
G01*
X166387500Y-155705001D01*
G75*
G02*
X166137501Y-155955000I-249999J0D01*
G01*
G37*
%TD.AperFunction*%
%TD*%
%TO.P,J10,3*%
%TO.N,VCC*%
X161500000Y-152440000D03*
%TO.P,J10,2*%
%TO.N,GND*%
X161500000Y-153940000D03*
%TO.P,J10,1*%
%TO.N,Net-(J10-Pad1)*%
%TA.AperFunction,ComponentPad*%
G36*
G01*
X162115001Y-155955000D02*
X160884999Y-155955000D01*
G75*
G02*
X160635000Y-155705001I0J249999D01*
G01*
X160635000Y-155174999D01*
G75*
G02*
X160884999Y-154925000I249999J0D01*
G01*
X162115001Y-154925000D01*
G75*
G02*
X162365000Y-155174999I0J-249999D01*
G01*
X162365000Y-155705001D01*
G75*
G02*
X162115001Y-155955000I-249999J0D01*
G01*
G37*
%TD.AperFunction*%
%TD*%
%TO.P,J7,1*%
%TO.N,Net-(J14-Pad1)*%
%TA.AperFunction,SMDPad,CuDef*%
G36*
G01*
X171750000Y-163250000D02*
X171750000Y-161750000D01*
G75*
G02*
X172000000Y-161500000I250000J0D01*
G01*
X172500000Y-161500000D01*
G75*
G02*
X172750000Y-161750000I0J-250000D01*
G01*
X172750000Y-163250000D01*
G75*
G02*
X172500000Y-163500000I-250000J0D01*
G01*
X172000000Y-163500000D01*
G75*
G02*
X171750000Y-163250000I0J250000D01*
G01*
G37*
%TD.AperFunction*%
%TD*%
%TO.P,J6,1*%
%TO.N,Net-(J13-Pad1)*%
%TA.AperFunction,SMDPad,CuDef*%
G36*
G01*
X170333330Y-163250000D02*
X170333330Y-161750000D01*
G75*
G02*
X170583330Y-161500000I250000J0D01*
G01*
X171083330Y-161500000D01*
G75*
G02*
X171333330Y-161750000I0J-250000D01*
G01*
X171333330Y-163250000D01*
G75*
G02*
X171083330Y-163500000I-250000J0D01*
G01*
X170583330Y-163500000D01*
G75*
G02*
X170333330Y-163250000I0J250000D01*
G01*
G37*
%TD.AperFunction*%
%TD*%
%TO.P,J5,1*%
%TO.N,Net-(J12-Pad1)*%
%TA.AperFunction,SMDPad,CuDef*%
G36*
G01*
X168916664Y-163250000D02*
X168916664Y-161750000D01*
G75*
G02*
X169166664Y-161500000I250000J0D01*
G01*
X169666664Y-161500000D01*
G75*
G02*
X169916664Y-161750000I0J-250000D01*
G01*
X169916664Y-163250000D01*
G75*
G02*
X169666664Y-163500000I-250000J0D01*
G01*
X169166664Y-163500000D01*
G75*
G02*
X168916664Y-163250000I0J250000D01*
G01*
G37*
%TD.AperFunction*%
%TD*%
%TO.P,J4,1*%
%TO.N,Net-(J11-Pad1)*%
%TA.AperFunction,SMDPad,CuDef*%
G36*
G01*
X167499998Y-163250000D02*
X167499998Y-161750000D01*
G75*
G02*
X167749998Y-161500000I250000J0D01*
G01*
X168249998Y-161500000D01*
G75*
G02*
X168499998Y-161750000I0J-250000D01*
G01*
X168499998Y-163250000D01*
G75*
G02*
X168249998Y-163500000I-250000J0D01*
G01*
X167749998Y-163500000D01*
G75*
G02*
X167499998Y-163250000I0J250000D01*
G01*
G37*
%TD.AperFunction*%
%TD*%
%TO.P,J3,1*%
%TO.N,Net-(J10-Pad1)*%
%TA.AperFunction,SMDPad,CuDef*%
G36*
G01*
X166083332Y-163250000D02*
X166083332Y-161750000D01*
G75*
G02*
X166333332Y-161500000I250000J0D01*
G01*
X166833332Y-161500000D01*
G75*
G02*
X167083332Y-161750000I0J-250000D01*
G01*
X167083332Y-163250000D01*
G75*
G02*
X166833332Y-163500000I-250000J0D01*
G01*
X166333332Y-163500000D01*
G75*
G02*
X166083332Y-163250000I0J250000D01*
G01*
G37*
%TD.AperFunction*%
%TD*%
%TO.P,J2,1*%
%TO.N,VCC*%
%TA.AperFunction,SMDPad,CuDef*%
G36*
G01*
X164666666Y-163250000D02*
X164666666Y-161750000D01*
G75*
G02*
X164916666Y-161500000I250000J0D01*
G01*
X165416666Y-161500000D01*
G75*
G02*
X165666666Y-161750000I0J-250000D01*
G01*
X165666666Y-163250000D01*
G75*
G02*
X165416666Y-163500000I-250000J0D01*
G01*
X164916666Y-163500000D01*
G75*
G02*
X164666666Y-163250000I0J250000D01*
G01*
G37*
%TD.AperFunction*%
%TD*%
%TO.P,J1,1*%
%TO.N,GND*%
%TA.AperFunction,ComponentPad*%
G36*
G01*
X163250000Y-163250000D02*
X163250000Y-161750000D01*
G75*
G02*
X163500000Y-161500000I250000J0D01*
G01*
X164000000Y-161500000D01*
G75*
G02*
X164250000Y-161750000I0J-250000D01*
G01*
X164250000Y-163250000D01*
G75*
G02*
X164000000Y-163500000I-250000J0D01*
G01*
X163500000Y-163500000D01*
G75*
G02*
X163250000Y-163250000I0J250000D01*
G01*
G37*
%TD.AperFunction*%
%TD*%
D13*
%TO.N,Net-(J10-Pad1)*%
X166583332Y-160523332D02*
X161500000Y-155440000D01*
X166583332Y-162500000D02*
X166583332Y-160523332D01*
%TO.N,Net-(J11-Pad1)*%
X167999998Y-157917498D02*
X165522500Y-155440000D01*
X167999998Y-162500000D02*
X167999998Y-157917498D01*
%TO.N,Net-(J13-Pad1)*%
X170833330Y-159116670D02*
X173500000Y-156450000D01*
X170833330Y-162500000D02*
X170833330Y-159116670D01*
D14*
%TO.N,Net-(J14-Pad1)*%
X176217998Y-156750000D02*
X176500000Y-156750000D01*
D13*
X176221998Y-156450000D02*
X172250000Y-160421998D01*
X172250000Y-160421998D02*
X172250000Y-162500000D01*
X176500000Y-156450000D02*
X176221998Y-156450000D01*
%TO.N,Net-(J12-Pad1)*%
X169416664Y-155568336D02*
X169545000Y-155440000D01*
X169416664Y-162500000D02*
X169416664Y-155568336D01*
%TD*%
D15*
%TO.N,VCC*%
X164428013Y-144643961D02*
X164271999Y-144771999D01*
X164143961Y-144928013D01*
X164048821Y-145106009D01*
X163990233Y-145299145D01*
X163970451Y-145500000D01*
X163970451Y-148500000D01*
X163990233Y-148700855D01*
X164048821Y-148893991D01*
X164143961Y-149071987D01*
X164271999Y-149228001D01*
X164428013Y-149356039D01*
X164606009Y-149451179D01*
X164799145Y-149509767D01*
X165000000Y-149529549D01*
X166000000Y-149529549D01*
X166200855Y-149509767D01*
X166393991Y-149451179D01*
X166571987Y-149356039D01*
X166728001Y-149228001D01*
X166856039Y-149071987D01*
X166951179Y-148893991D01*
X167009767Y-148700855D01*
X167029549Y-148500000D01*
X167029549Y-145500000D01*
X167009767Y-145299145D01*
X166951179Y-145106009D01*
X166856039Y-144928013D01*
X166728001Y-144771999D01*
X166571987Y-144643961D01*
X166446711Y-144577000D01*
X173096546Y-144577000D01*
X172897012Y-145058719D01*
X172773000Y-145682168D01*
X172773000Y-146317832D01*
X172897012Y-146941281D01*
X173140270Y-147528558D01*
X173493425Y-148057093D01*
X173942907Y-148506575D01*
X174471442Y-148859730D01*
X175058719Y-149102988D01*
X175682168Y-149227000D01*
X176317832Y-149227000D01*
X176941281Y-149102988D01*
X177423000Y-148903453D01*
X177423000Y-150345627D01*
X177377787Y-150300414D01*
X177152254Y-150149718D01*
X176901656Y-150045917D01*
X176635623Y-149993000D01*
X176364377Y-149993000D01*
X176098344Y-150045917D01*
X175847746Y-150149718D01*
X175622213Y-150300414D01*
X175430414Y-150492213D01*
X175279718Y-150717746D01*
X175175917Y-150968344D01*
X175123000Y-151234377D01*
X175123000Y-151505623D01*
X175175917Y-151771656D01*
X175279718Y-152022254D01*
X175430414Y-152247787D01*
X175622213Y-152439586D01*
X175847746Y-152590282D01*
X176098344Y-152694083D01*
X176364377Y-152747000D01*
X176635623Y-152747000D01*
X176901656Y-152694083D01*
X177152254Y-152590282D01*
X177377787Y-152439586D01*
X177423000Y-152394373D01*
X177423001Y-155077641D01*
X177350000Y-155070451D01*
X175650000Y-155070451D01*
X175546690Y-155080626D01*
X175447350Y-155110761D01*
X175355798Y-155159696D01*
X175275552Y-155225552D01*
X175209696Y-155305798D01*
X175160761Y-155397350D01*
X175130626Y-155496690D01*
X175120451Y-155600000D01*
X175120451Y-156099150D01*
X174879549Y-156340052D01*
X174879549Y-155600000D01*
X174869374Y-155496690D01*
X174839239Y-155397350D01*
X174790304Y-155305798D01*
X174724448Y-155225552D01*
X174644202Y-155159696D01*
X174552650Y-155110761D01*
X174453310Y-155080626D01*
X174350000Y-155070451D01*
X172650000Y-155070451D01*
X172546690Y-155080626D01*
X172447350Y-155110761D01*
X172355798Y-155159696D01*
X172275552Y-155225552D01*
X172209696Y-155305798D01*
X172160761Y-155397350D01*
X172130626Y-155496690D01*
X172120451Y-155600000D01*
X172120451Y-156377152D01*
X170443664Y-158053940D01*
X170443664Y-156429655D01*
X170458321Y-156425209D01*
X170593095Y-156353171D01*
X170711225Y-156256225D01*
X170808171Y-156138095D01*
X170880209Y-156003321D01*
X170924570Y-155857083D01*
X170939549Y-155705001D01*
X170939549Y-155174999D01*
X170924570Y-155022917D01*
X170880209Y-154876679D01*
X170808171Y-154741905D01*
X170711225Y-154623775D01*
X170693652Y-154609353D01*
X170765583Y-154521705D01*
X170862340Y-154340685D01*
X170921922Y-154144268D01*
X170942041Y-153940000D01*
X170921922Y-153735732D01*
X170862340Y-153539315D01*
X170765583Y-153358295D01*
X170635370Y-153199630D01*
X170476705Y-153069417D01*
X170295685Y-152972660D01*
X170099268Y-152913078D01*
X169946181Y-152898000D01*
X169143819Y-152898000D01*
X168990732Y-152913078D01*
X168794315Y-152972660D01*
X168613295Y-153069417D01*
X168454630Y-153199630D01*
X168324417Y-153358295D01*
X168227660Y-153539315D01*
X168168078Y-153735732D01*
X168147959Y-153940000D01*
X168168078Y-154144268D01*
X168227660Y-154340685D01*
X168324417Y-154521705D01*
X168396348Y-154609353D01*
X168378775Y-154623775D01*
X168281829Y-154741905D01*
X168209791Y-154876679D01*
X168165430Y-155022917D01*
X168150451Y-155174999D01*
X168150451Y-155705001D01*
X168165430Y-155857083D01*
X168209791Y-156003321D01*
X168281829Y-156138095D01*
X168378775Y-156256225D01*
X168389665Y-156265162D01*
X168389665Y-156854768D01*
X166917049Y-155382153D01*
X166917049Y-155174999D01*
X166902070Y-155022917D01*
X166857709Y-154876679D01*
X166785671Y-154741905D01*
X166688725Y-154623775D01*
X166671152Y-154609353D01*
X166743083Y-154521705D01*
X166839840Y-154340685D01*
X166899422Y-154144268D01*
X166919541Y-153940000D01*
X166899422Y-153735732D01*
X166839840Y-153539315D01*
X166743083Y-153358295D01*
X166612870Y-153199630D01*
X166454205Y-153069417D01*
X166273185Y-152972660D01*
X166076768Y-152913078D01*
X165923681Y-152898000D01*
X165121319Y-152898000D01*
X164968232Y-152913078D01*
X164771815Y-152972660D01*
X164590795Y-153069417D01*
X164432130Y-153199630D01*
X164301917Y-153358295D01*
X164205160Y-153539315D01*
X164145578Y-153735732D01*
X164125459Y-153940000D01*
X164145578Y-154144268D01*
X164205160Y-154340685D01*
X164301917Y-154521705D01*
X164373848Y-154609353D01*
X164356275Y-154623775D01*
X164259329Y-154741905D01*
X164187291Y-154876679D01*
X164142930Y-155022917D01*
X164127951Y-155174999D01*
X164127951Y-155705001D01*
X164142930Y-155857083D01*
X164187291Y-156003321D01*
X164259329Y-156138095D01*
X164356275Y-156256225D01*
X164474405Y-156353171D01*
X164609179Y-156425209D01*
X164755417Y-156469570D01*
X164907499Y-156484549D01*
X165114653Y-156484549D01*
X166972999Y-158342896D01*
X166972999Y-159460602D01*
X162894549Y-155382153D01*
X162894549Y-155174999D01*
X162879570Y-155022917D01*
X162835209Y-154876679D01*
X162763171Y-154741905D01*
X162666225Y-154623775D01*
X162648652Y-154609353D01*
X162720583Y-154521705D01*
X162817340Y-154340685D01*
X162876922Y-154144268D01*
X162897041Y-153940000D01*
X162876922Y-153735732D01*
X162817340Y-153539315D01*
X162720583Y-153358295D01*
X162590370Y-153199630D01*
X162431705Y-153069417D01*
X162250685Y-152972660D01*
X162054268Y-152913078D01*
X161901181Y-152898000D01*
X161098819Y-152898000D01*
X160945732Y-152913078D01*
X160749315Y-152972660D01*
X160568295Y-153069417D01*
X160409630Y-153199630D01*
X160279417Y-153358295D01*
X160182660Y-153539315D01*
X160123078Y-153735732D01*
X160102959Y-153940000D01*
X160123078Y-154144268D01*
X160182660Y-154340685D01*
X160279417Y-154521705D01*
X160351348Y-154609353D01*
X160333775Y-154623775D01*
X160236829Y-154741905D01*
X160164791Y-154876679D01*
X160120430Y-155022917D01*
X160105451Y-155174999D01*
X160105451Y-155705001D01*
X160120430Y-155857083D01*
X160164791Y-156003321D01*
X160236829Y-156138095D01*
X160333775Y-156256225D01*
X160451905Y-156353171D01*
X160586679Y-156425209D01*
X160732917Y-156469570D01*
X160884999Y-156484549D01*
X161092153Y-156484549D01*
X165556333Y-160948730D01*
X165556332Y-161724116D01*
X165553783Y-161750000D01*
X165553783Y-163250000D01*
X165568762Y-163402082D01*
X165575107Y-163423000D01*
X164758225Y-163423000D01*
X164764570Y-163402082D01*
X164779549Y-163250000D01*
X164779549Y-161750000D01*
X164764570Y-161597918D01*
X164720209Y-161451680D01*
X164648171Y-161316906D01*
X164551224Y-161198776D01*
X164433094Y-161101829D01*
X164298320Y-161029791D01*
X164152082Y-160985430D01*
X164000000Y-160970451D01*
X163500000Y-160970451D01*
X163347918Y-160985430D01*
X163201680Y-161029791D01*
X163107271Y-161080253D01*
X163102988Y-161058719D01*
X162859730Y-160471442D01*
X162506575Y-159942907D01*
X162057093Y-159493425D01*
X161528558Y-159140270D01*
X160941281Y-158897012D01*
X160317832Y-158773000D01*
X159682168Y-158773000D01*
X159058719Y-158897012D01*
X158577000Y-159096546D01*
X158577000Y-151234377D01*
X172123000Y-151234377D01*
X172123000Y-151505623D01*
X172175917Y-151771656D01*
X172279718Y-152022254D01*
X172430414Y-152247787D01*
X172622213Y-152439586D01*
X172847746Y-152590282D01*
X173098344Y-152694083D01*
X173364377Y-152747000D01*
X173635623Y-152747000D01*
X173901656Y-152694083D01*
X174152254Y-152590282D01*
X174377787Y-152439586D01*
X174569586Y-152247787D01*
X174720282Y-152022254D01*
X174824083Y-151771656D01*
X174877000Y-151505623D01*
X174877000Y-151234377D01*
X174824083Y-150968344D01*
X174720282Y-150717746D01*
X174569586Y-150492213D01*
X174377787Y-150300414D01*
X174152254Y-150149718D01*
X173901656Y-150045917D01*
X173635623Y-149993000D01*
X173364377Y-149993000D01*
X173098344Y-150045917D01*
X172847746Y-150149718D01*
X172622213Y-150300414D01*
X172430414Y-150492213D01*
X172279718Y-150717746D01*
X172175917Y-150968344D01*
X172123000Y-151234377D01*
X158577000Y-151234377D01*
X158577000Y-148903454D01*
X159058719Y-149102988D01*
X159682168Y-149227000D01*
X160317832Y-149227000D01*
X160941281Y-149102988D01*
X161528558Y-148859730D01*
X162057093Y-148506575D01*
X162506575Y-148057093D01*
X162859730Y-147528558D01*
X163102988Y-146941281D01*
X163227000Y-146317832D01*
X163227000Y-145682168D01*
X163102988Y-145058719D01*
X162903454Y-144577000D01*
X164553289Y-144577000D01*
X164428013Y-144643961D01*
%TA.AperFunction,Conductor*%
D16*
G36*
X164428013Y-144643961D02*
G01*
X164271999Y-144771999D01*
X164143961Y-144928013D01*
X164048821Y-145106009D01*
X163990233Y-145299145D01*
X163970451Y-145500000D01*
X163970451Y-148500000D01*
X163990233Y-148700855D01*
X164048821Y-148893991D01*
X164143961Y-149071987D01*
X164271999Y-149228001D01*
X164428013Y-149356039D01*
X164606009Y-149451179D01*
X164799145Y-149509767D01*
X165000000Y-149529549D01*
X166000000Y-149529549D01*
X166200855Y-149509767D01*
X166393991Y-149451179D01*
X166571987Y-149356039D01*
X166728001Y-149228001D01*
X166856039Y-149071987D01*
X166951179Y-148893991D01*
X167009767Y-148700855D01*
X167029549Y-148500000D01*
X167029549Y-145500000D01*
X167009767Y-145299145D01*
X166951179Y-145106009D01*
X166856039Y-144928013D01*
X166728001Y-144771999D01*
X166571987Y-144643961D01*
X166446711Y-144577000D01*
X173096546Y-144577000D01*
X172897012Y-145058719D01*
X172773000Y-145682168D01*
X172773000Y-146317832D01*
X172897012Y-146941281D01*
X173140270Y-147528558D01*
X173493425Y-148057093D01*
X173942907Y-148506575D01*
X174471442Y-148859730D01*
X175058719Y-149102988D01*
X175682168Y-149227000D01*
X176317832Y-149227000D01*
X176941281Y-149102988D01*
X177423000Y-148903453D01*
X177423000Y-150345627D01*
X177377787Y-150300414D01*
X177152254Y-150149718D01*
X176901656Y-150045917D01*
X176635623Y-149993000D01*
X176364377Y-149993000D01*
X176098344Y-150045917D01*
X175847746Y-150149718D01*
X175622213Y-150300414D01*
X175430414Y-150492213D01*
X175279718Y-150717746D01*
X175175917Y-150968344D01*
X175123000Y-151234377D01*
X175123000Y-151505623D01*
X175175917Y-151771656D01*
X175279718Y-152022254D01*
X175430414Y-152247787D01*
X175622213Y-152439586D01*
X175847746Y-152590282D01*
X176098344Y-152694083D01*
X176364377Y-152747000D01*
X176635623Y-152747000D01*
X176901656Y-152694083D01*
X177152254Y-152590282D01*
X177377787Y-152439586D01*
X177423000Y-152394373D01*
X177423001Y-155077641D01*
X177350000Y-155070451D01*
X175650000Y-155070451D01*
X175546690Y-155080626D01*
X175447350Y-155110761D01*
X175355798Y-155159696D01*
X175275552Y-155225552D01*
X175209696Y-155305798D01*
X175160761Y-155397350D01*
X175130626Y-155496690D01*
X175120451Y-155600000D01*
X175120451Y-156099150D01*
X174879549Y-156340052D01*
X174879549Y-155600000D01*
X174869374Y-155496690D01*
X174839239Y-155397350D01*
X174790304Y-155305798D01*
X174724448Y-155225552D01*
X174644202Y-155159696D01*
X174552650Y-155110761D01*
X174453310Y-155080626D01*
X174350000Y-155070451D01*
X172650000Y-155070451D01*
X172546690Y-155080626D01*
X172447350Y-155110761D01*
X172355798Y-155159696D01*
X172275552Y-155225552D01*
X172209696Y-155305798D01*
X172160761Y-155397350D01*
X172130626Y-155496690D01*
X172120451Y-155600000D01*
X172120451Y-156377152D01*
X170443664Y-158053940D01*
X170443664Y-156429655D01*
X170458321Y-156425209D01*
X170593095Y-156353171D01*
X170711225Y-156256225D01*
X170808171Y-156138095D01*
X170880209Y-156003321D01*
X170924570Y-155857083D01*
X170939549Y-155705001D01*
X170939549Y-155174999D01*
X170924570Y-155022917D01*
X170880209Y-154876679D01*
X170808171Y-154741905D01*
X170711225Y-154623775D01*
X170693652Y-154609353D01*
X170765583Y-154521705D01*
X170862340Y-154340685D01*
X170921922Y-154144268D01*
X170942041Y-153940000D01*
X170921922Y-153735732D01*
X170862340Y-153539315D01*
X170765583Y-153358295D01*
X170635370Y-153199630D01*
X170476705Y-153069417D01*
X170295685Y-152972660D01*
X170099268Y-152913078D01*
X169946181Y-152898000D01*
X169143819Y-152898000D01*
X168990732Y-152913078D01*
X168794315Y-152972660D01*
X168613295Y-153069417D01*
X168454630Y-153199630D01*
X168324417Y-153358295D01*
X168227660Y-153539315D01*
X168168078Y-153735732D01*
X168147959Y-153940000D01*
X168168078Y-154144268D01*
X168227660Y-154340685D01*
X168324417Y-154521705D01*
X168396348Y-154609353D01*
X168378775Y-154623775D01*
X168281829Y-154741905D01*
X168209791Y-154876679D01*
X168165430Y-155022917D01*
X168150451Y-155174999D01*
X168150451Y-155705001D01*
X168165430Y-155857083D01*
X168209791Y-156003321D01*
X168281829Y-156138095D01*
X168378775Y-156256225D01*
X168389665Y-156265162D01*
X168389665Y-156854768D01*
X166917049Y-155382153D01*
X166917049Y-155174999D01*
X166902070Y-155022917D01*
X166857709Y-154876679D01*
X166785671Y-154741905D01*
X166688725Y-154623775D01*
X166671152Y-154609353D01*
X166743083Y-154521705D01*
X166839840Y-154340685D01*
X166899422Y-154144268D01*
X166919541Y-153940000D01*
X166899422Y-153735732D01*
X166839840Y-153539315D01*
X166743083Y-153358295D01*
X166612870Y-153199630D01*
X166454205Y-153069417D01*
X166273185Y-152972660D01*
X166076768Y-152913078D01*
X165923681Y-152898000D01*
X165121319Y-152898000D01*
X164968232Y-152913078D01*
X164771815Y-152972660D01*
X164590795Y-153069417D01*
X164432130Y-153199630D01*
X164301917Y-153358295D01*
X164205160Y-153539315D01*
X164145578Y-153735732D01*
X164125459Y-153940000D01*
X164145578Y-154144268D01*
X164205160Y-154340685D01*
X164301917Y-154521705D01*
X164373848Y-154609353D01*
X164356275Y-154623775D01*
X164259329Y-154741905D01*
X164187291Y-154876679D01*
X164142930Y-155022917D01*
X164127951Y-155174999D01*
X164127951Y-155705001D01*
X164142930Y-155857083D01*
X164187291Y-156003321D01*
X164259329Y-156138095D01*
X164356275Y-156256225D01*
X164474405Y-156353171D01*
X164609179Y-156425209D01*
X164755417Y-156469570D01*
X164907499Y-156484549D01*
X165114653Y-156484549D01*
X166972999Y-158342896D01*
X166972999Y-159460602D01*
X162894549Y-155382153D01*
X162894549Y-155174999D01*
X162879570Y-155022917D01*
X162835209Y-154876679D01*
X162763171Y-154741905D01*
X162666225Y-154623775D01*
X162648652Y-154609353D01*
X162720583Y-154521705D01*
X162817340Y-154340685D01*
X162876922Y-154144268D01*
X162897041Y-153940000D01*
X162876922Y-153735732D01*
X162817340Y-153539315D01*
X162720583Y-153358295D01*
X162590370Y-153199630D01*
X162431705Y-153069417D01*
X162250685Y-152972660D01*
X162054268Y-152913078D01*
X161901181Y-152898000D01*
X161098819Y-152898000D01*
X160945732Y-152913078D01*
X160749315Y-152972660D01*
X160568295Y-153069417D01*
X160409630Y-153199630D01*
X160279417Y-153358295D01*
X160182660Y-153539315D01*
X160123078Y-153735732D01*
X160102959Y-153940000D01*
X160123078Y-154144268D01*
X160182660Y-154340685D01*
X160279417Y-154521705D01*
X160351348Y-154609353D01*
X160333775Y-154623775D01*
X160236829Y-154741905D01*
X160164791Y-154876679D01*
X160120430Y-155022917D01*
X160105451Y-155174999D01*
X160105451Y-155705001D01*
X160120430Y-155857083D01*
X160164791Y-156003321D01*
X160236829Y-156138095D01*
X160333775Y-156256225D01*
X160451905Y-156353171D01*
X160586679Y-156425209D01*
X160732917Y-156469570D01*
X160884999Y-156484549D01*
X161092153Y-156484549D01*
X165556333Y-160948730D01*
X165556332Y-161724116D01*
X165553783Y-161750000D01*
X165553783Y-163250000D01*
X165568762Y-163402082D01*
X165575107Y-163423000D01*
X164758225Y-163423000D01*
X164764570Y-163402082D01*
X164779549Y-163250000D01*
X164779549Y-161750000D01*
X164764570Y-161597918D01*
X164720209Y-161451680D01*
X164648171Y-161316906D01*
X164551224Y-161198776D01*
X164433094Y-161101829D01*
X164298320Y-161029791D01*
X164152082Y-160985430D01*
X164000000Y-160970451D01*
X163500000Y-160970451D01*
X163347918Y-160985430D01*
X163201680Y-161029791D01*
X163107271Y-161080253D01*
X163102988Y-161058719D01*
X162859730Y-160471442D01*
X162506575Y-159942907D01*
X162057093Y-159493425D01*
X161528558Y-159140270D01*
X160941281Y-158897012D01*
X160317832Y-158773000D01*
X159682168Y-158773000D01*
X159058719Y-158897012D01*
X158577000Y-159096546D01*
X158577000Y-151234377D01*
X172123000Y-151234377D01*
X172123000Y-151505623D01*
X172175917Y-151771656D01*
X172279718Y-152022254D01*
X172430414Y-152247787D01*
X172622213Y-152439586D01*
X172847746Y-152590282D01*
X173098344Y-152694083D01*
X173364377Y-152747000D01*
X173635623Y-152747000D01*
X173901656Y-152694083D01*
X174152254Y-152590282D01*
X174377787Y-152439586D01*
X174569586Y-152247787D01*
X174720282Y-152022254D01*
X174824083Y-151771656D01*
X174877000Y-151505623D01*
X174877000Y-151234377D01*
X174824083Y-150968344D01*
X174720282Y-150717746D01*
X174569586Y-150492213D01*
X174377787Y-150300414D01*
X174152254Y-150149718D01*
X173901656Y-150045917D01*
X173635623Y-149993000D01*
X173364377Y-149993000D01*
X173098344Y-150045917D01*
X172847746Y-150149718D01*
X172622213Y-150300414D01*
X172430414Y-150492213D01*
X172279718Y-150717746D01*
X172175917Y-150968344D01*
X172123000Y-151234377D01*
X158577000Y-151234377D01*
X158577000Y-148903454D01*
X159058719Y-149102988D01*
X159682168Y-149227000D01*
X160317832Y-149227000D01*
X160941281Y-149102988D01*
X161528558Y-148859730D01*
X162057093Y-148506575D01*
X162506575Y-148057093D01*
X162859730Y-147528558D01*
X163102988Y-146941281D01*
X163227000Y-146317832D01*
X163227000Y-145682168D01*
X163102988Y-145058719D01*
X162903454Y-144577000D01*
X164553289Y-144577000D01*
X164428013Y-144643961D01*
G37*
%TD.AperFunction*%
%TD*%
M02*
