%TF.GenerationSoftware,KiCad,Pcbnew,(5.1.9)-1*%
%TF.CreationDate,2022-05-31T00:12:37+01:00*%
%TF.ProjectId,board,626f6172-642e-46b6-9963-61645f706362,rev?*%
%TF.SameCoordinates,Original*%
%TF.FileFunction,Profile,NP*%
%FSLAX46Y46*%
G04 Gerber Fmt 4.6, Leading zero omitted, Abs format (unit mm)*
G04 Created by KiCad (PCBNEW (5.1.9)-1) date 2022-05-31 00:12:37*
%MOMM*%
%LPD*%
G01*
G04 APERTURE LIST*
%TA.AperFunction,Profile*%
%ADD10C,0.050000*%
%TD*%
G04 APERTURE END LIST*
D10*
X121158000Y-118110000D02*
G75*
G03*
X123190000Y-118110000I1016000J0D01*
G01*
X123190000Y-107950000D02*
G75*
G03*
X121158000Y-107950000I-1016000J0D01*
G01*
X123190000Y-118110000D02*
X123190000Y-107950000D01*
X121158000Y-107950000D02*
X121158000Y-118110000D01*
X102362000Y-118110000D02*
G75*
G03*
X104394000Y-118110000I1016000J0D01*
G01*
X104394000Y-107950000D02*
G75*
G03*
X102362000Y-107950000I-1016000J0D01*
G01*
X104394000Y-118110000D02*
X104394000Y-107950000D01*
X102362000Y-107950000D02*
X102362000Y-118110000D01*
X108204000Y-118110000D02*
X108204000Y-107950000D01*
X106172000Y-107950000D02*
X106172000Y-118110000D01*
X106172000Y-118110000D02*
G75*
G03*
X108204000Y-118110000I1016000J0D01*
G01*
X108204000Y-107950000D02*
G75*
G03*
X106172000Y-107950000I-1016000J0D01*
G01*
X102596000Y-100376000D02*
X122596000Y-100376000D01*
X102596000Y-135509000D02*
X122616000Y-135509000D01*
X124596000Y-102376000D02*
X124616000Y-133509000D01*
X100596000Y-133509000D02*
X100596000Y-102376000D01*
X124616000Y-133509000D02*
G75*
G02*
X122616000Y-135509000I-2000000J0D01*
G01*
X122596000Y-100376000D02*
G75*
G02*
X124596000Y-102376000I0J-2000000D01*
G01*
X100596000Y-102376000D02*
G75*
G02*
X102596000Y-100376000I2000000J0D01*
G01*
X102596000Y-135509000D02*
G75*
G02*
X100596000Y-133509000I0J2000000D01*
G01*
M02*
