%TF.GenerationSoftware,KiCad,Pcbnew,(5.1.9)-1*%
%TF.CreationDate,2022-05-31T00:09:08+01:00*%
%TF.ProjectId,board,626f6172-642e-46b6-9963-61645f706362,rev?*%
%TF.SameCoordinates,Original*%
%TF.FileFunction,Copper,L1,Top*%
%TF.FilePolarity,Positive*%
%FSLAX46Y46*%
G04 Gerber Fmt 4.6, Leading zero omitted, Abs format (unit mm)*
G04 Created by KiCad (PCBNEW (5.1.9)-1) date 2022-05-31 00:09:08*
%MOMM*%
%LPD*%
G01*
G04 APERTURE LIST*
%TA.AperFunction,ComponentPad*%
%ADD10O,1.700000X1.700000*%
%TD*%
%TA.AperFunction,ComponentPad*%
%ADD11R,1.700000X1.700000*%
%TD*%
%TA.AperFunction,ViaPad*%
%ADD12C,0.800000*%
%TD*%
%TA.AperFunction,Conductor*%
%ADD13C,0.600000*%
%TD*%
%TA.AperFunction,Conductor*%
%ADD14C,0.254000*%
%TD*%
%TA.AperFunction,Conductor*%
%ADD15C,0.100000*%
%TD*%
G04 APERTURE END LIST*
%TO.P,J6,1*%
%TO.N,GND*%
%TA.AperFunction,ComponentPad*%
G36*
G01*
X116802000Y-115104000D02*
X116802000Y-114004000D01*
G75*
G02*
X117052000Y-113754000I250000J0D01*
G01*
X118152000Y-113754000D01*
G75*
G02*
X118402000Y-114004000I0J-250000D01*
G01*
X118402000Y-115104000D01*
G75*
G02*
X118152000Y-115354000I-250000J0D01*
G01*
X117052000Y-115354000D01*
G75*
G02*
X116802000Y-115104000I0J250000D01*
G01*
G37*
%TD.AperFunction*%
%TD*%
%TO.P,J10,1*%
%TO.N,+BATT*%
%TA.AperFunction,ComponentPad*%
G36*
G01*
X116802000Y-112564000D02*
X116802000Y-111464000D01*
G75*
G02*
X117052000Y-111214000I250000J0D01*
G01*
X118152000Y-111214000D01*
G75*
G02*
X118402000Y-111464000I0J-250000D01*
G01*
X118402000Y-112564000D01*
G75*
G02*
X118152000Y-112814000I-250000J0D01*
G01*
X117052000Y-112814000D01*
G75*
G02*
X116802000Y-112564000I0J250000D01*
G01*
G37*
%TD.AperFunction*%
%TD*%
%TO.P,J12,1*%
%TO.N,N/C*%
%TA.AperFunction,ComponentPad*%
G36*
G01*
X115532000Y-123232400D02*
X115532000Y-122131600D01*
G75*
G02*
X115781600Y-121882000I249600J0D01*
G01*
X116882400Y-121882000D01*
G75*
G02*
X117132000Y-122131600I0J-249600D01*
G01*
X117132000Y-123232400D01*
G75*
G02*
X116882400Y-123482000I-249600J0D01*
G01*
X115781600Y-123482000D01*
G75*
G02*
X115532000Y-123232400I0J249600D01*
G01*
G37*
%TD.AperFunction*%
%TD*%
%TO.P,J12,1*%
%TO.N,N/C*%
%TA.AperFunction,ComponentPad*%
G36*
G01*
X118072000Y-123232400D02*
X118072000Y-122131600D01*
G75*
G02*
X118321600Y-121882000I249600J0D01*
G01*
X119422400Y-121882000D01*
G75*
G02*
X119672000Y-122131600I0J-249600D01*
G01*
X119672000Y-123232400D01*
G75*
G02*
X119422400Y-123482000I-249600J0D01*
G01*
X118321600Y-123482000D01*
G75*
G02*
X118072000Y-123232400I0J249600D01*
G01*
G37*
%TD.AperFunction*%
%TD*%
D10*
%TO.P,REF\u002A\u002A,4*%
%TO.N,N/C*%
X123190000Y-126238000D03*
%TO.P,REF\u002A\u002A,3*%
X120650000Y-126238000D03*
%TO.P,REF\u002A\u002A,2*%
%TO.N,+BATT*%
X118110000Y-126238000D03*
D11*
%TO.P,REF\u002A\u002A,1*%
%TO.N,GND*%
X115570000Y-126238000D03*
%TD*%
%TO.P,J13,1*%
%TO.N,Net-(J1-Pad6)*%
%TA.AperFunction,ComponentPad*%
G36*
G01*
X103162000Y-125688000D02*
X103162000Y-126788000D01*
G75*
G02*
X102912000Y-127038000I-250000J0D01*
G01*
X101812000Y-127038000D01*
G75*
G02*
X101562000Y-126788000I0J250000D01*
G01*
X101562000Y-125688000D01*
G75*
G02*
X101812000Y-125438000I250000J0D01*
G01*
X102912000Y-125438000D01*
G75*
G02*
X103162000Y-125688000I0J-250000D01*
G01*
G37*
%TD.AperFunction*%
%TD*%
%TO.P,J12,1*%
%TO.N,Net-(J11-Pad3)*%
%TA.AperFunction,ComponentPad*%
G36*
G01*
X111722000Y-126788000D02*
X111722000Y-125688000D01*
G75*
G02*
X111972000Y-125438000I250000J0D01*
G01*
X113072000Y-125438000D01*
G75*
G02*
X113322000Y-125688000I0J-250000D01*
G01*
X113322000Y-126788000D01*
G75*
G02*
X113072000Y-127038000I-250000J0D01*
G01*
X111972000Y-127038000D01*
G75*
G02*
X111722000Y-126788000I0J250000D01*
G01*
G37*
%TD.AperFunction*%
%TD*%
D10*
%TO.P,J11,3*%
%TO.N,Net-(J11-Pad3)*%
X112522000Y-128778000D03*
%TO.P,J11,2*%
%TO.N,+BATT*%
X112522000Y-131318000D03*
D11*
%TO.P,J11,1*%
%TO.N,GND*%
X112522000Y-133858000D03*
%TD*%
%TO.P,J10,1*%
%TO.N,+BATT*%
%TA.AperFunction,ComponentPad*%
G36*
G01*
X114262000Y-131868000D02*
X114262000Y-130768000D01*
G75*
G02*
X114512000Y-130518000I250000J0D01*
G01*
X115612000Y-130518000D01*
G75*
G02*
X115862000Y-130768000I0J-250000D01*
G01*
X115862000Y-131868000D01*
G75*
G02*
X115612000Y-132118000I-250000J0D01*
G01*
X114512000Y-132118000D01*
G75*
G02*
X114262000Y-131868000I0J250000D01*
G01*
G37*
%TD.AperFunction*%
%TD*%
%TO.P,J9,1*%
%TO.N,Net-(J1-Pad3)*%
%TA.AperFunction,ComponentPad*%
G36*
G01*
X109182000Y-126788000D02*
X109182000Y-125688000D01*
G75*
G02*
X109432000Y-125438000I250000J0D01*
G01*
X110532000Y-125438000D01*
G75*
G02*
X110782000Y-125688000I0J-250000D01*
G01*
X110782000Y-126788000D01*
G75*
G02*
X110532000Y-127038000I-250000J0D01*
G01*
X109432000Y-127038000D01*
G75*
G02*
X109182000Y-126788000I0J250000D01*
G01*
G37*
%TD.AperFunction*%
%TD*%
%TO.P,J8,1*%
%TO.N,Net-(J1-Pad4)*%
%TA.AperFunction,ComponentPad*%
G36*
G01*
X106642000Y-126788000D02*
X106642000Y-125688000D01*
G75*
G02*
X106892000Y-125438000I250000J0D01*
G01*
X107992000Y-125438000D01*
G75*
G02*
X108242000Y-125688000I0J-250000D01*
G01*
X108242000Y-126788000D01*
G75*
G02*
X107992000Y-127038000I-250000J0D01*
G01*
X106892000Y-127038000D01*
G75*
G02*
X106642000Y-126788000I0J250000D01*
G01*
G37*
%TD.AperFunction*%
%TD*%
%TO.P,J7,1*%
%TO.N,Net-(J1-Pad5)*%
%TA.AperFunction,ComponentPad*%
G36*
G01*
X104102000Y-126788000D02*
X104102000Y-125688000D01*
G75*
G02*
X104352000Y-125438000I250000J0D01*
G01*
X105452000Y-125438000D01*
G75*
G02*
X105702000Y-125688000I0J-250000D01*
G01*
X105702000Y-126788000D01*
G75*
G02*
X105452000Y-127038000I-250000J0D01*
G01*
X104352000Y-127038000D01*
G75*
G02*
X104102000Y-126788000I0J250000D01*
G01*
G37*
%TD.AperFunction*%
%TD*%
%TO.P,J6,1*%
%TO.N,GND*%
%TA.AperFunction,ComponentPad*%
G36*
G01*
X114262000Y-134408000D02*
X114262000Y-133308000D01*
G75*
G02*
X114512000Y-133058000I250000J0D01*
G01*
X115612000Y-133058000D01*
G75*
G02*
X115862000Y-133308000I0J-250000D01*
G01*
X115862000Y-134408000D01*
G75*
G02*
X115612000Y-134658000I-250000J0D01*
G01*
X114512000Y-134658000D01*
G75*
G02*
X114262000Y-134408000I0J250000D01*
G01*
G37*
%TD.AperFunction*%
%TD*%
%TO.P,J1,MP*%
%TO.N,N/C*%
%TA.AperFunction,SMDPad,CuDef*%
G36*
G01*
X109276000Y-101811000D02*
X109276000Y-103061000D01*
G75*
G02*
X109051000Y-103286000I-225000J0D01*
G01*
X108601000Y-103286000D01*
G75*
G02*
X108376000Y-103061000I0J225000D01*
G01*
X108376000Y-101811000D01*
G75*
G02*
X108601000Y-101586000I225000J0D01*
G01*
X109051000Y-101586000D01*
G75*
G02*
X109276000Y-101811000I0J-225000D01*
G01*
G37*
%TD.AperFunction*%
%TA.AperFunction,SMDPad,CuDef*%
G36*
G01*
X117176000Y-101811000D02*
X117176000Y-103061000D01*
G75*
G02*
X116951000Y-103286000I-225000J0D01*
G01*
X116501000Y-103286000D01*
G75*
G02*
X116276000Y-103061000I0J225000D01*
G01*
X116276000Y-101811000D01*
G75*
G02*
X116501000Y-101586000I225000J0D01*
G01*
X116951000Y-101586000D01*
G75*
G02*
X117176000Y-101811000I0J-225000D01*
G01*
G37*
%TD.AperFunction*%
%TO.P,J1,6*%
%TO.N,Net-(J1-Pad6)*%
%TA.AperFunction,SMDPad,CuDef*%
G36*
G01*
X110576000Y-105086000D02*
X110576000Y-106036000D01*
G75*
G02*
X110426000Y-106186000I-150000J0D01*
G01*
X110126000Y-106186000D01*
G75*
G02*
X109976000Y-106036000I0J150000D01*
G01*
X109976000Y-105086000D01*
G75*
G02*
X110126000Y-104936000I150000J0D01*
G01*
X110426000Y-104936000D01*
G75*
G02*
X110576000Y-105086000I0J-150000D01*
G01*
G37*
%TD.AperFunction*%
%TO.P,J1,5*%
%TO.N,Net-(J1-Pad5)*%
%TA.AperFunction,SMDPad,CuDef*%
G36*
G01*
X111576000Y-105086000D02*
X111576000Y-106036000D01*
G75*
G02*
X111426000Y-106186000I-150000J0D01*
G01*
X111126000Y-106186000D01*
G75*
G02*
X110976000Y-106036000I0J150000D01*
G01*
X110976000Y-105086000D01*
G75*
G02*
X111126000Y-104936000I150000J0D01*
G01*
X111426000Y-104936000D01*
G75*
G02*
X111576000Y-105086000I0J-150000D01*
G01*
G37*
%TD.AperFunction*%
%TO.P,J1,4*%
%TO.N,Net-(J1-Pad4)*%
%TA.AperFunction,SMDPad,CuDef*%
G36*
G01*
X112576000Y-105086000D02*
X112576000Y-106036000D01*
G75*
G02*
X112426000Y-106186000I-150000J0D01*
G01*
X112126000Y-106186000D01*
G75*
G02*
X111976000Y-106036000I0J150000D01*
G01*
X111976000Y-105086000D01*
G75*
G02*
X112126000Y-104936000I150000J0D01*
G01*
X112426000Y-104936000D01*
G75*
G02*
X112576000Y-105086000I0J-150000D01*
G01*
G37*
%TD.AperFunction*%
%TO.P,J1,3*%
%TO.N,Net-(J1-Pad3)*%
%TA.AperFunction,SMDPad,CuDef*%
G36*
G01*
X113576000Y-105086000D02*
X113576000Y-106036000D01*
G75*
G02*
X113426000Y-106186000I-150000J0D01*
G01*
X113126000Y-106186000D01*
G75*
G02*
X112976000Y-106036000I0J150000D01*
G01*
X112976000Y-105086000D01*
G75*
G02*
X113126000Y-104936000I150000J0D01*
G01*
X113426000Y-104936000D01*
G75*
G02*
X113576000Y-105086000I0J-150000D01*
G01*
G37*
%TD.AperFunction*%
%TO.P,J1,2*%
%TO.N,+BATT*%
%TA.AperFunction,SMDPad,CuDef*%
G36*
G01*
X114576000Y-105086000D02*
X114576000Y-106036000D01*
G75*
G02*
X114426000Y-106186000I-150000J0D01*
G01*
X114126000Y-106186000D01*
G75*
G02*
X113976000Y-106036000I0J150000D01*
G01*
X113976000Y-105086000D01*
G75*
G02*
X114126000Y-104936000I150000J0D01*
G01*
X114426000Y-104936000D01*
G75*
G02*
X114576000Y-105086000I0J-150000D01*
G01*
G37*
%TD.AperFunction*%
%TO.P,J1,1*%
%TO.N,GND*%
%TA.AperFunction,SMDPad,CuDef*%
G36*
G01*
X115576000Y-105086000D02*
X115576000Y-106036000D01*
G75*
G02*
X115426000Y-106186000I-150000J0D01*
G01*
X115126000Y-106186000D01*
G75*
G02*
X114976000Y-106036000I0J150000D01*
G01*
X114976000Y-105086000D01*
G75*
G02*
X115126000Y-104936000I150000J0D01*
G01*
X115426000Y-104936000D01*
G75*
G02*
X115576000Y-105086000I0J-150000D01*
G01*
G37*
%TD.AperFunction*%
%TD*%
D10*
%TO.P,J5,3*%
%TO.N,Net-(J1-Pad3)*%
X109982000Y-128778000D03*
%TO.P,J5,2*%
%TO.N,+BATT*%
X109982000Y-131318000D03*
D11*
%TO.P,J5,1*%
%TO.N,GND*%
X109982000Y-133858000D03*
%TD*%
D10*
%TO.P,J4,3*%
%TO.N,Net-(J1-Pad4)*%
X107442000Y-128778000D03*
%TO.P,J4,2*%
%TO.N,+BATT*%
X107442000Y-131318000D03*
D11*
%TO.P,J4,1*%
%TO.N,GND*%
X107442000Y-133858000D03*
%TD*%
D10*
%TO.P,J3,3*%
%TO.N,Net-(J1-Pad5)*%
X104902000Y-128778000D03*
%TO.P,J3,2*%
%TO.N,+BATT*%
X104902000Y-131318000D03*
D11*
%TO.P,J3,1*%
%TO.N,GND*%
X104902000Y-133858000D03*
%TD*%
D10*
%TO.P,J2,3*%
%TO.N,Net-(J1-Pad6)*%
X102362000Y-128778000D03*
%TO.P,J2,2*%
%TO.N,+BATT*%
X102362000Y-131318000D03*
D11*
%TO.P,J2,1*%
%TO.N,GND*%
X102362000Y-133858000D03*
%TD*%
D12*
%TO.N,GND*%
X116586000Y-105918000D03*
%TD*%
D13*
%TO.N,*%
X123190000Y-126238000D02*
X121158000Y-124206000D01*
X120396000Y-124206000D02*
X118872000Y-122682000D01*
X121158000Y-124206000D02*
X120396000Y-124206000D01*
X120650000Y-126238000D02*
X118618000Y-124206000D01*
X117856000Y-124206000D02*
X116332000Y-122682000D01*
X118618000Y-124206000D02*
X117856000Y-124206000D01*
%TO.N,Net-(J1-Pad3)*%
X109982000Y-126238000D02*
X109982000Y-128778000D01*
X113276000Y-122944000D02*
X109982000Y-126238000D01*
X113276000Y-105561000D02*
X113276000Y-122944000D01*
%TO.N,GND*%
X116229000Y-105561000D02*
X116586000Y-105918000D01*
X115276000Y-105561000D02*
X116229000Y-105561000D01*
%TO.N,Net-(J1-Pad6)*%
X102362000Y-126238000D02*
X102362000Y-128778000D01*
X102741322Y-126238000D02*
X102362000Y-126238000D01*
X110276000Y-118703322D02*
X102741322Y-126238000D01*
X110276000Y-105561000D02*
X110276000Y-118703322D01*
%TO.N,Net-(J1-Pad5)*%
X104902000Y-126238000D02*
X104902000Y-128778000D01*
X111276000Y-119864000D02*
X104902000Y-126238000D01*
X111276000Y-105561000D02*
X111276000Y-119864000D01*
%TO.N,Net-(J1-Pad4)*%
X107442000Y-126238000D02*
X107442000Y-128778000D01*
X112276000Y-121404000D02*
X107442000Y-126238000D01*
X112276000Y-105561000D02*
X112276000Y-121404000D01*
%TO.N,Net-(J11-Pad3)*%
X112522000Y-126238000D02*
X112522000Y-128778000D01*
%TD*%
D14*
%TO.N,+BATT*%
X108121503Y-101093382D02*
X107990716Y-101200716D01*
X107883382Y-101331503D01*
X107803625Y-101480717D01*
X107754512Y-101642623D01*
X107737928Y-101811000D01*
X107737928Y-103061000D01*
X107754512Y-103229377D01*
X107803625Y-103391283D01*
X107883382Y-103540497D01*
X107990716Y-103671284D01*
X108121503Y-103778618D01*
X108270717Y-103858375D01*
X108432623Y-103907488D01*
X108601000Y-103924072D01*
X109051000Y-103924072D01*
X109219377Y-103907488D01*
X109381283Y-103858375D01*
X109530497Y-103778618D01*
X109661284Y-103671284D01*
X109768618Y-103540497D01*
X109848375Y-103391283D01*
X109897488Y-103229377D01*
X109914072Y-103061000D01*
X109914072Y-101811000D01*
X109897488Y-101642623D01*
X109848375Y-101480717D01*
X109768618Y-101331503D01*
X109661284Y-101200716D01*
X109530497Y-101093382D01*
X109423143Y-101036000D01*
X116128857Y-101036000D01*
X116021503Y-101093382D01*
X115890716Y-101200716D01*
X115783382Y-101331503D01*
X115703625Y-101480717D01*
X115654512Y-101642623D01*
X115637928Y-101811000D01*
X115637928Y-103061000D01*
X115654512Y-103229377D01*
X115703625Y-103391283D01*
X115783382Y-103540497D01*
X115890716Y-103671284D01*
X116021503Y-103778618D01*
X116170717Y-103858375D01*
X116332623Y-103907488D01*
X116501000Y-103924072D01*
X116951000Y-103924072D01*
X117119377Y-103907488D01*
X117281283Y-103858375D01*
X117430497Y-103778618D01*
X117561284Y-103671284D01*
X117668618Y-103540497D01*
X117748375Y-103391283D01*
X117797488Y-103229377D01*
X117814072Y-103061000D01*
X117814072Y-101811000D01*
X117797488Y-101642623D01*
X117748375Y-101480717D01*
X117668618Y-101331503D01*
X117561284Y-101200716D01*
X117430497Y-101093382D01*
X117323143Y-101036000D01*
X120812969Y-101036000D01*
X120622458Y-101321120D01*
X120454582Y-101726408D01*
X120369000Y-102156660D01*
X120369000Y-102595340D01*
X120454582Y-103025592D01*
X120622458Y-103430880D01*
X120866176Y-103795630D01*
X121176370Y-104105824D01*
X121541120Y-104349542D01*
X121946408Y-104517418D01*
X122376660Y-104603000D01*
X122815340Y-104603000D01*
X123245592Y-104517418D01*
X123650880Y-104349542D01*
X123937145Y-104158266D01*
X123947708Y-120600792D01*
X123650880Y-120402458D01*
X123245592Y-120234582D01*
X122815340Y-120149000D01*
X122376660Y-120149000D01*
X121946408Y-120234582D01*
X121541120Y-120402458D01*
X121176370Y-120646176D01*
X120866176Y-120956370D01*
X120622458Y-121321120D01*
X120454582Y-121726408D01*
X120369000Y-122156660D01*
X120369000Y-122595340D01*
X120433899Y-122921609D01*
X120310072Y-122797782D01*
X120310072Y-122131600D01*
X120293016Y-121958424D01*
X120242502Y-121791903D01*
X120160472Y-121638436D01*
X120050079Y-121503921D01*
X119915564Y-121393528D01*
X119762097Y-121311498D01*
X119595576Y-121260984D01*
X119422400Y-121243928D01*
X118321600Y-121243928D01*
X118148424Y-121260984D01*
X117981903Y-121311498D01*
X117828436Y-121393528D01*
X117693921Y-121503921D01*
X117602000Y-121615928D01*
X117510079Y-121503921D01*
X117375564Y-121393528D01*
X117222097Y-121311498D01*
X117055576Y-121260984D01*
X116882400Y-121243928D01*
X115781600Y-121243928D01*
X115608424Y-121260984D01*
X115441903Y-121311498D01*
X115288436Y-121393528D01*
X115153921Y-121503921D01*
X115043528Y-121638436D01*
X114961498Y-121791903D01*
X114910984Y-121958424D01*
X114893928Y-122131600D01*
X114893928Y-123232400D01*
X114910984Y-123405576D01*
X114961498Y-123572097D01*
X115043528Y-123725564D01*
X115153921Y-123860079D01*
X115288436Y-123970472D01*
X115441903Y-124052502D01*
X115608424Y-124103016D01*
X115781600Y-124120072D01*
X116447782Y-124120072D01*
X117162374Y-124834664D01*
X117191656Y-124870344D01*
X117334028Y-124987186D01*
X117496460Y-125074007D01*
X117619243Y-125111253D01*
X117672707Y-125127471D01*
X117691110Y-125129283D01*
X117810068Y-125141000D01*
X117810074Y-125141000D01*
X117855999Y-125145523D01*
X117901924Y-125141000D01*
X118230711Y-125141000D01*
X119167729Y-126078018D01*
X119165000Y-126091740D01*
X119165000Y-126384260D01*
X119222068Y-126671158D01*
X119334010Y-126941411D01*
X119496525Y-127184632D01*
X119703368Y-127391475D01*
X119946589Y-127553990D01*
X120216842Y-127665932D01*
X120503740Y-127723000D01*
X120796260Y-127723000D01*
X121083158Y-127665932D01*
X121353411Y-127553990D01*
X121596632Y-127391475D01*
X121803475Y-127184632D01*
X121920000Y-127010240D01*
X122036525Y-127184632D01*
X122243368Y-127391475D01*
X122486589Y-127553990D01*
X122756842Y-127665932D01*
X123043740Y-127723000D01*
X123336260Y-127723000D01*
X123623158Y-127665932D01*
X123893411Y-127553990D01*
X123952149Y-127514742D01*
X123955979Y-133476932D01*
X123927375Y-133768660D01*
X123851965Y-134018429D01*
X123729477Y-134248794D01*
X123564579Y-134450979D01*
X123363546Y-134617288D01*
X123134046Y-134741378D01*
X122884805Y-134818531D01*
X122594911Y-134849000D01*
X116378406Y-134849000D01*
X116432472Y-134747850D01*
X116483008Y-134581254D01*
X116500072Y-134408000D01*
X116500072Y-133308000D01*
X116483008Y-133134746D01*
X116432472Y-132968150D01*
X116350405Y-132814614D01*
X116239962Y-132680038D01*
X116105386Y-132569595D01*
X115951850Y-132487528D01*
X115785254Y-132436992D01*
X115612000Y-132419928D01*
X114512000Y-132419928D01*
X114338746Y-132436992D01*
X114172150Y-132487528D01*
X114018614Y-132569595D01*
X113906754Y-132661395D01*
X113902537Y-132653506D01*
X113823185Y-132556815D01*
X113726494Y-132477463D01*
X113616180Y-132418498D01*
X113496482Y-132382188D01*
X113372000Y-132369928D01*
X111672000Y-132369928D01*
X111547518Y-132382188D01*
X111427820Y-132418498D01*
X111317506Y-132477463D01*
X111252000Y-132531222D01*
X111186494Y-132477463D01*
X111076180Y-132418498D01*
X110956482Y-132382188D01*
X110832000Y-132369928D01*
X109132000Y-132369928D01*
X109007518Y-132382188D01*
X108887820Y-132418498D01*
X108777506Y-132477463D01*
X108712000Y-132531222D01*
X108646494Y-132477463D01*
X108536180Y-132418498D01*
X108416482Y-132382188D01*
X108292000Y-132369928D01*
X106592000Y-132369928D01*
X106467518Y-132382188D01*
X106347820Y-132418498D01*
X106237506Y-132477463D01*
X106172000Y-132531222D01*
X106106494Y-132477463D01*
X105996180Y-132418498D01*
X105876482Y-132382188D01*
X105752000Y-132369928D01*
X104052000Y-132369928D01*
X103927518Y-132382188D01*
X103807820Y-132418498D01*
X103697506Y-132477463D01*
X103632000Y-132531222D01*
X103566494Y-132477463D01*
X103456180Y-132418498D01*
X103336482Y-132382188D01*
X103212000Y-132369928D01*
X101512000Y-132369928D01*
X101387518Y-132382188D01*
X101267820Y-132418498D01*
X101256000Y-132424816D01*
X101256000Y-129772107D01*
X101415368Y-129931475D01*
X101658589Y-130093990D01*
X101928842Y-130205932D01*
X102215740Y-130263000D01*
X102508260Y-130263000D01*
X102795158Y-130205932D01*
X103065411Y-130093990D01*
X103308632Y-129931475D01*
X103515475Y-129724632D01*
X103632000Y-129550240D01*
X103748525Y-129724632D01*
X103955368Y-129931475D01*
X104198589Y-130093990D01*
X104468842Y-130205932D01*
X104755740Y-130263000D01*
X105048260Y-130263000D01*
X105335158Y-130205932D01*
X105605411Y-130093990D01*
X105848632Y-129931475D01*
X106055475Y-129724632D01*
X106172000Y-129550240D01*
X106288525Y-129724632D01*
X106495368Y-129931475D01*
X106738589Y-130093990D01*
X107008842Y-130205932D01*
X107295740Y-130263000D01*
X107588260Y-130263000D01*
X107875158Y-130205932D01*
X108145411Y-130093990D01*
X108388632Y-129931475D01*
X108595475Y-129724632D01*
X108712000Y-129550240D01*
X108828525Y-129724632D01*
X109035368Y-129931475D01*
X109278589Y-130093990D01*
X109548842Y-130205932D01*
X109835740Y-130263000D01*
X110128260Y-130263000D01*
X110415158Y-130205932D01*
X110685411Y-130093990D01*
X110928632Y-129931475D01*
X111135475Y-129724632D01*
X111252000Y-129550240D01*
X111368525Y-129724632D01*
X111575368Y-129931475D01*
X111818589Y-130093990D01*
X112088842Y-130205932D01*
X112375740Y-130263000D01*
X112668260Y-130263000D01*
X112955158Y-130205932D01*
X113225411Y-130093990D01*
X113468632Y-129931475D01*
X113675475Y-129724632D01*
X113837990Y-129481411D01*
X113949932Y-129211158D01*
X114007000Y-128924260D01*
X114007000Y-128631740D01*
X113949932Y-128344842D01*
X113837990Y-128074589D01*
X113675475Y-127831368D01*
X113468632Y-127624525D01*
X113457000Y-127616753D01*
X113457000Y-127584339D01*
X113565386Y-127526405D01*
X113699962Y-127415962D01*
X113810405Y-127281386D01*
X113892472Y-127127850D01*
X113943008Y-126961254D01*
X113960072Y-126788000D01*
X113960072Y-125688000D01*
X113943008Y-125514746D01*
X113904561Y-125388000D01*
X114081928Y-125388000D01*
X114081928Y-127088000D01*
X114094188Y-127212482D01*
X114130498Y-127332180D01*
X114189463Y-127442494D01*
X114268815Y-127539185D01*
X114365506Y-127618537D01*
X114475820Y-127677502D01*
X114595518Y-127713812D01*
X114720000Y-127726072D01*
X116420000Y-127726072D01*
X116544482Y-127713812D01*
X116664180Y-127677502D01*
X116774494Y-127618537D01*
X116871185Y-127539185D01*
X116950537Y-127442494D01*
X117009502Y-127332180D01*
X117045812Y-127212482D01*
X117058072Y-127088000D01*
X117058072Y-125388000D01*
X117045812Y-125263518D01*
X117009502Y-125143820D01*
X116950537Y-125033506D01*
X116871185Y-124936815D01*
X116774494Y-124857463D01*
X116664180Y-124798498D01*
X116544482Y-124762188D01*
X116420000Y-124749928D01*
X114720000Y-124749928D01*
X114595518Y-124762188D01*
X114475820Y-124798498D01*
X114365506Y-124857463D01*
X114268815Y-124936815D01*
X114189463Y-125033506D01*
X114130498Y-125143820D01*
X114094188Y-125263518D01*
X114081928Y-125388000D01*
X113904561Y-125388000D01*
X113892472Y-125348150D01*
X113810405Y-125194614D01*
X113699962Y-125060038D01*
X113565386Y-124949595D01*
X113411850Y-124867528D01*
X113245254Y-124816992D01*
X113072000Y-124799928D01*
X112742362Y-124799928D01*
X113904664Y-123637626D01*
X113940344Y-123608344D01*
X114057186Y-123465972D01*
X114144007Y-123303540D01*
X114197471Y-123127292D01*
X114211000Y-122989932D01*
X114211000Y-122989926D01*
X114215523Y-122944001D01*
X114211000Y-122898076D01*
X114211000Y-114004000D01*
X116163928Y-114004000D01*
X116163928Y-115104000D01*
X116180992Y-115277254D01*
X116231528Y-115443850D01*
X116313595Y-115597386D01*
X116424038Y-115731962D01*
X116558614Y-115842405D01*
X116712150Y-115924472D01*
X116878746Y-115975008D01*
X117052000Y-115992072D01*
X118152000Y-115992072D01*
X118325254Y-115975008D01*
X118491850Y-115924472D01*
X118645386Y-115842405D01*
X118779962Y-115731962D01*
X118890405Y-115597386D01*
X118972472Y-115443850D01*
X119023008Y-115277254D01*
X119040072Y-115104000D01*
X119040072Y-114004000D01*
X119023008Y-113830746D01*
X118972472Y-113664150D01*
X118890405Y-113510614D01*
X118779962Y-113376038D01*
X118645386Y-113265595D01*
X118491850Y-113183528D01*
X118325254Y-113132992D01*
X118152000Y-113115928D01*
X117052000Y-113115928D01*
X116878746Y-113132992D01*
X116712150Y-113183528D01*
X116558614Y-113265595D01*
X116424038Y-113376038D01*
X116313595Y-113510614D01*
X116231528Y-113664150D01*
X116180992Y-113830746D01*
X116163928Y-114004000D01*
X114211000Y-114004000D01*
X114211000Y-107917582D01*
X120498000Y-107917582D01*
X120498001Y-118142419D01*
X120501249Y-118175397D01*
X120501249Y-118188591D01*
X120502212Y-118197756D01*
X120524315Y-118394808D01*
X120536747Y-118453295D01*
X120548370Y-118511997D01*
X120551096Y-118520800D01*
X120611052Y-118709808D01*
X120634612Y-118764778D01*
X120657414Y-118820099D01*
X120661797Y-118828205D01*
X120757324Y-119001966D01*
X120791130Y-119051338D01*
X120824221Y-119101144D01*
X120830095Y-119108245D01*
X120957552Y-119260142D01*
X121000263Y-119301968D01*
X121042441Y-119344442D01*
X121049583Y-119350266D01*
X121204116Y-119474515D01*
X121254170Y-119507269D01*
X121303765Y-119540722D01*
X121311901Y-119545048D01*
X121487625Y-119636914D01*
X121543078Y-119659318D01*
X121598233Y-119682503D01*
X121607055Y-119685166D01*
X121797276Y-119741151D01*
X121856010Y-119752355D01*
X121914633Y-119764389D01*
X121923805Y-119765288D01*
X122121277Y-119783259D01*
X122181094Y-119782841D01*
X122240911Y-119783259D01*
X122250083Y-119782359D01*
X122447284Y-119761632D01*
X122505834Y-119749613D01*
X122564639Y-119738396D01*
X122573461Y-119735732D01*
X122762882Y-119677097D01*
X122818009Y-119653924D01*
X122873492Y-119631507D01*
X122881629Y-119627181D01*
X123056052Y-119532870D01*
X123105636Y-119499425D01*
X123155699Y-119466665D01*
X123162840Y-119460841D01*
X123315624Y-119334446D01*
X123357744Y-119292031D01*
X123400513Y-119250149D01*
X123406387Y-119243048D01*
X123531711Y-119089386D01*
X123564803Y-119039577D01*
X123598610Y-118990205D01*
X123602993Y-118982098D01*
X123696084Y-118807020D01*
X123718875Y-118751725D01*
X123742446Y-118696730D01*
X123745171Y-118687926D01*
X123802482Y-118498100D01*
X123814098Y-118439434D01*
X123826537Y-118380913D01*
X123827500Y-118371748D01*
X123846850Y-118174407D01*
X123846850Y-118174402D01*
X123850000Y-118142419D01*
X123850000Y-107917581D01*
X123846751Y-107884593D01*
X123846751Y-107871409D01*
X123845788Y-107862244D01*
X123823685Y-107665192D01*
X123811251Y-107606699D01*
X123799630Y-107548003D01*
X123796904Y-107539200D01*
X123736948Y-107350193D01*
X123713400Y-107295249D01*
X123690586Y-107239900D01*
X123686203Y-107231794D01*
X123590676Y-107058034D01*
X123556892Y-107008695D01*
X123523779Y-106958855D01*
X123517905Y-106951755D01*
X123390448Y-106799857D01*
X123347718Y-106758013D01*
X123305559Y-106715558D01*
X123298417Y-106709734D01*
X123143883Y-106585485D01*
X123093847Y-106552742D01*
X123044235Y-106519278D01*
X123036098Y-106514952D01*
X122860375Y-106423086D01*
X122804936Y-106400688D01*
X122749768Y-106377497D01*
X122740946Y-106374834D01*
X122550724Y-106318849D01*
X122492016Y-106307650D01*
X122433367Y-106295611D01*
X122424195Y-106294712D01*
X122226723Y-106276741D01*
X122166906Y-106277159D01*
X122107088Y-106276741D01*
X122097917Y-106277641D01*
X121900715Y-106298368D01*
X121842151Y-106310390D01*
X121783362Y-106321604D01*
X121774540Y-106324268D01*
X121585118Y-106382903D01*
X121530005Y-106406071D01*
X121474507Y-106428493D01*
X121466371Y-106432820D01*
X121291947Y-106527130D01*
X121242331Y-106560597D01*
X121192301Y-106593335D01*
X121185160Y-106599159D01*
X121032376Y-106725553D01*
X120990237Y-106767988D01*
X120947487Y-106809851D01*
X120941613Y-106816952D01*
X120816289Y-106970614D01*
X120783174Y-107020456D01*
X120749390Y-107069796D01*
X120745007Y-107077902D01*
X120651916Y-107252980D01*
X120629125Y-107308275D01*
X120605554Y-107363270D01*
X120602829Y-107372073D01*
X120545518Y-107561900D01*
X120533900Y-107620580D01*
X120521463Y-107679087D01*
X120520500Y-107688252D01*
X120501150Y-107885594D01*
X120501150Y-107885599D01*
X120498000Y-107917582D01*
X114211000Y-107917582D01*
X114211000Y-106067190D01*
X114214072Y-106036000D01*
X114214072Y-105561000D01*
X114336476Y-105561000D01*
X114337928Y-105575742D01*
X114337928Y-106036000D01*
X114353071Y-106189745D01*
X114397916Y-106337582D01*
X114470742Y-106473829D01*
X114568749Y-106593251D01*
X114688171Y-106691258D01*
X114824418Y-106764084D01*
X114972255Y-106808929D01*
X115126000Y-106824072D01*
X115426000Y-106824072D01*
X115579745Y-106808929D01*
X115727582Y-106764084D01*
X115863829Y-106691258D01*
X115881250Y-106676961D01*
X115926226Y-106721937D01*
X116095744Y-106835205D01*
X116284102Y-106913226D01*
X116484061Y-106953000D01*
X116687939Y-106953000D01*
X116887898Y-106913226D01*
X117076256Y-106835205D01*
X117245774Y-106721937D01*
X117389937Y-106577774D01*
X117503205Y-106408256D01*
X117581226Y-106219898D01*
X117621000Y-106019939D01*
X117621000Y-105816061D01*
X117581226Y-105616102D01*
X117503205Y-105427744D01*
X117389937Y-105258226D01*
X117245774Y-105114063D01*
X117076256Y-105000795D01*
X116930858Y-104940569D01*
X116922630Y-104932341D01*
X116893344Y-104896656D01*
X116750972Y-104779814D01*
X116588540Y-104692993D01*
X116412292Y-104639529D01*
X116274932Y-104626000D01*
X116229000Y-104621476D01*
X116183068Y-104626000D01*
X116063063Y-104626000D01*
X115983251Y-104528749D01*
X115863829Y-104430742D01*
X115727582Y-104357916D01*
X115579745Y-104313071D01*
X115426000Y-104297928D01*
X115126000Y-104297928D01*
X114972255Y-104313071D01*
X114824418Y-104357916D01*
X114688171Y-104430742D01*
X114568749Y-104528749D01*
X114470742Y-104648171D01*
X114397916Y-104784418D01*
X114353071Y-104932255D01*
X114337928Y-105086000D01*
X114337928Y-105546258D01*
X114336476Y-105561000D01*
X114214072Y-105561000D01*
X114214072Y-105086000D01*
X114198929Y-104932255D01*
X114154084Y-104784418D01*
X114081258Y-104648171D01*
X113983251Y-104528749D01*
X113863829Y-104430742D01*
X113727582Y-104357916D01*
X113579745Y-104313071D01*
X113426000Y-104297928D01*
X113126000Y-104297928D01*
X112972255Y-104313071D01*
X112824418Y-104357916D01*
X112776000Y-104383796D01*
X112727582Y-104357916D01*
X112579745Y-104313071D01*
X112426000Y-104297928D01*
X112126000Y-104297928D01*
X111972255Y-104313071D01*
X111824418Y-104357916D01*
X111776000Y-104383796D01*
X111727582Y-104357916D01*
X111579745Y-104313071D01*
X111426000Y-104297928D01*
X111126000Y-104297928D01*
X110972255Y-104313071D01*
X110824418Y-104357916D01*
X110776000Y-104383796D01*
X110727582Y-104357916D01*
X110579745Y-104313071D01*
X110426000Y-104297928D01*
X110126000Y-104297928D01*
X109972255Y-104313071D01*
X109824418Y-104357916D01*
X109688171Y-104430742D01*
X109568749Y-104528749D01*
X109470742Y-104648171D01*
X109397916Y-104784418D01*
X109353071Y-104932255D01*
X109337928Y-105086000D01*
X109337928Y-106036000D01*
X109341000Y-106067190D01*
X109341001Y-118316032D01*
X108448700Y-119208333D01*
X108545711Y-119089386D01*
X108578803Y-119039577D01*
X108612610Y-118990205D01*
X108616993Y-118982098D01*
X108710084Y-118807020D01*
X108732875Y-118751725D01*
X108756446Y-118696730D01*
X108759171Y-118687926D01*
X108816482Y-118498100D01*
X108828098Y-118439434D01*
X108840537Y-118380913D01*
X108841500Y-118371748D01*
X108860850Y-118174407D01*
X108860850Y-118174402D01*
X108864000Y-118142419D01*
X108864000Y-107917581D01*
X108860751Y-107884593D01*
X108860751Y-107871409D01*
X108859788Y-107862244D01*
X108837685Y-107665192D01*
X108825251Y-107606699D01*
X108813630Y-107548003D01*
X108810904Y-107539200D01*
X108750948Y-107350193D01*
X108727400Y-107295249D01*
X108704586Y-107239900D01*
X108700203Y-107231794D01*
X108604676Y-107058034D01*
X108570892Y-107008695D01*
X108537779Y-106958855D01*
X108531905Y-106951755D01*
X108404448Y-106799857D01*
X108361718Y-106758013D01*
X108319559Y-106715558D01*
X108312417Y-106709734D01*
X108157883Y-106585485D01*
X108107847Y-106552742D01*
X108058235Y-106519278D01*
X108050098Y-106514952D01*
X107874375Y-106423086D01*
X107818936Y-106400688D01*
X107763768Y-106377497D01*
X107754946Y-106374834D01*
X107564724Y-106318849D01*
X107506016Y-106307650D01*
X107447367Y-106295611D01*
X107438195Y-106294712D01*
X107240723Y-106276741D01*
X107180906Y-106277159D01*
X107121088Y-106276741D01*
X107111917Y-106277641D01*
X106914715Y-106298368D01*
X106856151Y-106310390D01*
X106797362Y-106321604D01*
X106788540Y-106324268D01*
X106599118Y-106382903D01*
X106544005Y-106406071D01*
X106488507Y-106428493D01*
X106480371Y-106432820D01*
X106305947Y-106527130D01*
X106256331Y-106560597D01*
X106206301Y-106593335D01*
X106199160Y-106599159D01*
X106046376Y-106725553D01*
X106004237Y-106767988D01*
X105961487Y-106809851D01*
X105955613Y-106816952D01*
X105830289Y-106970614D01*
X105797174Y-107020456D01*
X105763390Y-107069796D01*
X105759007Y-107077902D01*
X105665916Y-107252980D01*
X105643125Y-107308275D01*
X105619554Y-107363270D01*
X105616829Y-107372073D01*
X105559518Y-107561900D01*
X105547900Y-107620580D01*
X105535463Y-107679087D01*
X105534500Y-107688252D01*
X105515150Y-107885594D01*
X105515150Y-107885599D01*
X105512000Y-107917582D01*
X105512001Y-118142419D01*
X105515249Y-118175397D01*
X105515249Y-118188591D01*
X105516212Y-118197756D01*
X105538315Y-118394808D01*
X105550747Y-118453295D01*
X105562370Y-118511997D01*
X105565096Y-118520800D01*
X105625052Y-118709808D01*
X105648612Y-118764778D01*
X105671414Y-118820099D01*
X105675797Y-118828205D01*
X105771324Y-119001966D01*
X105805130Y-119051338D01*
X105838221Y-119101144D01*
X105844095Y-119108245D01*
X105971552Y-119260142D01*
X106014263Y-119301968D01*
X106056441Y-119344442D01*
X106063583Y-119350266D01*
X106218116Y-119474515D01*
X106268170Y-119507269D01*
X106317765Y-119540722D01*
X106325901Y-119545048D01*
X106501625Y-119636914D01*
X106557078Y-119659318D01*
X106612233Y-119682503D01*
X106621055Y-119685166D01*
X106811276Y-119741151D01*
X106870010Y-119752355D01*
X106928633Y-119764389D01*
X106937805Y-119765288D01*
X107135277Y-119783259D01*
X107195094Y-119782841D01*
X107254911Y-119783259D01*
X107264083Y-119782359D01*
X107461284Y-119761632D01*
X107519834Y-119749613D01*
X107578639Y-119738396D01*
X107587461Y-119735732D01*
X107776882Y-119677097D01*
X107832009Y-119653924D01*
X107887492Y-119631507D01*
X107895629Y-119627181D01*
X108070052Y-119532870D01*
X108119636Y-119499425D01*
X108169699Y-119466665D01*
X108176840Y-119460841D01*
X108288882Y-119368151D01*
X104763732Y-122893301D01*
X104823000Y-122595340D01*
X104823000Y-122156660D01*
X104737418Y-121726408D01*
X104569542Y-121321120D01*
X104325824Y-120956370D01*
X104015630Y-120646176D01*
X103650880Y-120402458D01*
X103245592Y-120234582D01*
X102815340Y-120149000D01*
X102376660Y-120149000D01*
X101946408Y-120234582D01*
X101541120Y-120402458D01*
X101256000Y-120592969D01*
X101256000Y-107917582D01*
X101702000Y-107917582D01*
X101702001Y-118142419D01*
X101705249Y-118175397D01*
X101705249Y-118188591D01*
X101706212Y-118197756D01*
X101728315Y-118394808D01*
X101740747Y-118453295D01*
X101752370Y-118511997D01*
X101755096Y-118520800D01*
X101815052Y-118709808D01*
X101838612Y-118764778D01*
X101861414Y-118820099D01*
X101865797Y-118828205D01*
X101961324Y-119001966D01*
X101995130Y-119051338D01*
X102028221Y-119101144D01*
X102034095Y-119108245D01*
X102161552Y-119260142D01*
X102204263Y-119301968D01*
X102246441Y-119344442D01*
X102253583Y-119350266D01*
X102408116Y-119474515D01*
X102458170Y-119507269D01*
X102507765Y-119540722D01*
X102515901Y-119545048D01*
X102691625Y-119636914D01*
X102747078Y-119659318D01*
X102802233Y-119682503D01*
X102811055Y-119685166D01*
X103001276Y-119741151D01*
X103060010Y-119752355D01*
X103118633Y-119764389D01*
X103127805Y-119765288D01*
X103325277Y-119783259D01*
X103385094Y-119782841D01*
X103444911Y-119783259D01*
X103454083Y-119782359D01*
X103651284Y-119761632D01*
X103709834Y-119749613D01*
X103768639Y-119738396D01*
X103777461Y-119735732D01*
X103966882Y-119677097D01*
X104022009Y-119653924D01*
X104077492Y-119631507D01*
X104085629Y-119627181D01*
X104260052Y-119532870D01*
X104309636Y-119499425D01*
X104359699Y-119466665D01*
X104366840Y-119460841D01*
X104519624Y-119334446D01*
X104561744Y-119292031D01*
X104604513Y-119250149D01*
X104610387Y-119243048D01*
X104735711Y-119089386D01*
X104768803Y-119039577D01*
X104802610Y-118990205D01*
X104806993Y-118982098D01*
X104900084Y-118807020D01*
X104922875Y-118751725D01*
X104946446Y-118696730D01*
X104949171Y-118687926D01*
X105006482Y-118498100D01*
X105018098Y-118439434D01*
X105030537Y-118380913D01*
X105031500Y-118371748D01*
X105050850Y-118174407D01*
X105050850Y-118174402D01*
X105054000Y-118142419D01*
X105054000Y-107917581D01*
X105050751Y-107884593D01*
X105050751Y-107871409D01*
X105049788Y-107862244D01*
X105027685Y-107665192D01*
X105015251Y-107606699D01*
X105003630Y-107548003D01*
X105000904Y-107539200D01*
X104940948Y-107350193D01*
X104917400Y-107295249D01*
X104894586Y-107239900D01*
X104890203Y-107231794D01*
X104794676Y-107058034D01*
X104760892Y-107008695D01*
X104727779Y-106958855D01*
X104721905Y-106951755D01*
X104594448Y-106799857D01*
X104551718Y-106758013D01*
X104509559Y-106715558D01*
X104502417Y-106709734D01*
X104347883Y-106585485D01*
X104297847Y-106552742D01*
X104248235Y-106519278D01*
X104240098Y-106514952D01*
X104064375Y-106423086D01*
X104008936Y-106400688D01*
X103953768Y-106377497D01*
X103944946Y-106374834D01*
X103754724Y-106318849D01*
X103696016Y-106307650D01*
X103637367Y-106295611D01*
X103628195Y-106294712D01*
X103430723Y-106276741D01*
X103370906Y-106277159D01*
X103311088Y-106276741D01*
X103301917Y-106277641D01*
X103104715Y-106298368D01*
X103046151Y-106310390D01*
X102987362Y-106321604D01*
X102978540Y-106324268D01*
X102789118Y-106382903D01*
X102734005Y-106406071D01*
X102678507Y-106428493D01*
X102670371Y-106432820D01*
X102495947Y-106527130D01*
X102446331Y-106560597D01*
X102396301Y-106593335D01*
X102389160Y-106599159D01*
X102236376Y-106725553D01*
X102194237Y-106767988D01*
X102151487Y-106809851D01*
X102145613Y-106816952D01*
X102020289Y-106970614D01*
X101987174Y-107020456D01*
X101953390Y-107069796D01*
X101949007Y-107077902D01*
X101855916Y-107252980D01*
X101833125Y-107308275D01*
X101809554Y-107363270D01*
X101806829Y-107372073D01*
X101749518Y-107561900D01*
X101737900Y-107620580D01*
X101725463Y-107679087D01*
X101724500Y-107688252D01*
X101705150Y-107885594D01*
X101705150Y-107885599D01*
X101702000Y-107917582D01*
X101256000Y-107917582D01*
X101256000Y-104159031D01*
X101541120Y-104349542D01*
X101946408Y-104517418D01*
X102376660Y-104603000D01*
X102815340Y-104603000D01*
X103245592Y-104517418D01*
X103650880Y-104349542D01*
X104015630Y-104105824D01*
X104325824Y-103795630D01*
X104569542Y-103430880D01*
X104737418Y-103025592D01*
X104823000Y-102595340D01*
X104823000Y-102156660D01*
X104737418Y-101726408D01*
X104569542Y-101321120D01*
X104379031Y-101036000D01*
X108228857Y-101036000D01*
X108121503Y-101093382D01*
%TA.AperFunction,Conductor*%
D15*
G36*
X108121503Y-101093382D02*
G01*
X107990716Y-101200716D01*
X107883382Y-101331503D01*
X107803625Y-101480717D01*
X107754512Y-101642623D01*
X107737928Y-101811000D01*
X107737928Y-103061000D01*
X107754512Y-103229377D01*
X107803625Y-103391283D01*
X107883382Y-103540497D01*
X107990716Y-103671284D01*
X108121503Y-103778618D01*
X108270717Y-103858375D01*
X108432623Y-103907488D01*
X108601000Y-103924072D01*
X109051000Y-103924072D01*
X109219377Y-103907488D01*
X109381283Y-103858375D01*
X109530497Y-103778618D01*
X109661284Y-103671284D01*
X109768618Y-103540497D01*
X109848375Y-103391283D01*
X109897488Y-103229377D01*
X109914072Y-103061000D01*
X109914072Y-101811000D01*
X109897488Y-101642623D01*
X109848375Y-101480717D01*
X109768618Y-101331503D01*
X109661284Y-101200716D01*
X109530497Y-101093382D01*
X109423143Y-101036000D01*
X116128857Y-101036000D01*
X116021503Y-101093382D01*
X115890716Y-101200716D01*
X115783382Y-101331503D01*
X115703625Y-101480717D01*
X115654512Y-101642623D01*
X115637928Y-101811000D01*
X115637928Y-103061000D01*
X115654512Y-103229377D01*
X115703625Y-103391283D01*
X115783382Y-103540497D01*
X115890716Y-103671284D01*
X116021503Y-103778618D01*
X116170717Y-103858375D01*
X116332623Y-103907488D01*
X116501000Y-103924072D01*
X116951000Y-103924072D01*
X117119377Y-103907488D01*
X117281283Y-103858375D01*
X117430497Y-103778618D01*
X117561284Y-103671284D01*
X117668618Y-103540497D01*
X117748375Y-103391283D01*
X117797488Y-103229377D01*
X117814072Y-103061000D01*
X117814072Y-101811000D01*
X117797488Y-101642623D01*
X117748375Y-101480717D01*
X117668618Y-101331503D01*
X117561284Y-101200716D01*
X117430497Y-101093382D01*
X117323143Y-101036000D01*
X120812969Y-101036000D01*
X120622458Y-101321120D01*
X120454582Y-101726408D01*
X120369000Y-102156660D01*
X120369000Y-102595340D01*
X120454582Y-103025592D01*
X120622458Y-103430880D01*
X120866176Y-103795630D01*
X121176370Y-104105824D01*
X121541120Y-104349542D01*
X121946408Y-104517418D01*
X122376660Y-104603000D01*
X122815340Y-104603000D01*
X123245592Y-104517418D01*
X123650880Y-104349542D01*
X123937145Y-104158266D01*
X123947708Y-120600792D01*
X123650880Y-120402458D01*
X123245592Y-120234582D01*
X122815340Y-120149000D01*
X122376660Y-120149000D01*
X121946408Y-120234582D01*
X121541120Y-120402458D01*
X121176370Y-120646176D01*
X120866176Y-120956370D01*
X120622458Y-121321120D01*
X120454582Y-121726408D01*
X120369000Y-122156660D01*
X120369000Y-122595340D01*
X120433899Y-122921609D01*
X120310072Y-122797782D01*
X120310072Y-122131600D01*
X120293016Y-121958424D01*
X120242502Y-121791903D01*
X120160472Y-121638436D01*
X120050079Y-121503921D01*
X119915564Y-121393528D01*
X119762097Y-121311498D01*
X119595576Y-121260984D01*
X119422400Y-121243928D01*
X118321600Y-121243928D01*
X118148424Y-121260984D01*
X117981903Y-121311498D01*
X117828436Y-121393528D01*
X117693921Y-121503921D01*
X117602000Y-121615928D01*
X117510079Y-121503921D01*
X117375564Y-121393528D01*
X117222097Y-121311498D01*
X117055576Y-121260984D01*
X116882400Y-121243928D01*
X115781600Y-121243928D01*
X115608424Y-121260984D01*
X115441903Y-121311498D01*
X115288436Y-121393528D01*
X115153921Y-121503921D01*
X115043528Y-121638436D01*
X114961498Y-121791903D01*
X114910984Y-121958424D01*
X114893928Y-122131600D01*
X114893928Y-123232400D01*
X114910984Y-123405576D01*
X114961498Y-123572097D01*
X115043528Y-123725564D01*
X115153921Y-123860079D01*
X115288436Y-123970472D01*
X115441903Y-124052502D01*
X115608424Y-124103016D01*
X115781600Y-124120072D01*
X116447782Y-124120072D01*
X117162374Y-124834664D01*
X117191656Y-124870344D01*
X117334028Y-124987186D01*
X117496460Y-125074007D01*
X117619243Y-125111253D01*
X117672707Y-125127471D01*
X117691110Y-125129283D01*
X117810068Y-125141000D01*
X117810074Y-125141000D01*
X117855999Y-125145523D01*
X117901924Y-125141000D01*
X118230711Y-125141000D01*
X119167729Y-126078018D01*
X119165000Y-126091740D01*
X119165000Y-126384260D01*
X119222068Y-126671158D01*
X119334010Y-126941411D01*
X119496525Y-127184632D01*
X119703368Y-127391475D01*
X119946589Y-127553990D01*
X120216842Y-127665932D01*
X120503740Y-127723000D01*
X120796260Y-127723000D01*
X121083158Y-127665932D01*
X121353411Y-127553990D01*
X121596632Y-127391475D01*
X121803475Y-127184632D01*
X121920000Y-127010240D01*
X122036525Y-127184632D01*
X122243368Y-127391475D01*
X122486589Y-127553990D01*
X122756842Y-127665932D01*
X123043740Y-127723000D01*
X123336260Y-127723000D01*
X123623158Y-127665932D01*
X123893411Y-127553990D01*
X123952149Y-127514742D01*
X123955979Y-133476932D01*
X123927375Y-133768660D01*
X123851965Y-134018429D01*
X123729477Y-134248794D01*
X123564579Y-134450979D01*
X123363546Y-134617288D01*
X123134046Y-134741378D01*
X122884805Y-134818531D01*
X122594911Y-134849000D01*
X116378406Y-134849000D01*
X116432472Y-134747850D01*
X116483008Y-134581254D01*
X116500072Y-134408000D01*
X116500072Y-133308000D01*
X116483008Y-133134746D01*
X116432472Y-132968150D01*
X116350405Y-132814614D01*
X116239962Y-132680038D01*
X116105386Y-132569595D01*
X115951850Y-132487528D01*
X115785254Y-132436992D01*
X115612000Y-132419928D01*
X114512000Y-132419928D01*
X114338746Y-132436992D01*
X114172150Y-132487528D01*
X114018614Y-132569595D01*
X113906754Y-132661395D01*
X113902537Y-132653506D01*
X113823185Y-132556815D01*
X113726494Y-132477463D01*
X113616180Y-132418498D01*
X113496482Y-132382188D01*
X113372000Y-132369928D01*
X111672000Y-132369928D01*
X111547518Y-132382188D01*
X111427820Y-132418498D01*
X111317506Y-132477463D01*
X111252000Y-132531222D01*
X111186494Y-132477463D01*
X111076180Y-132418498D01*
X110956482Y-132382188D01*
X110832000Y-132369928D01*
X109132000Y-132369928D01*
X109007518Y-132382188D01*
X108887820Y-132418498D01*
X108777506Y-132477463D01*
X108712000Y-132531222D01*
X108646494Y-132477463D01*
X108536180Y-132418498D01*
X108416482Y-132382188D01*
X108292000Y-132369928D01*
X106592000Y-132369928D01*
X106467518Y-132382188D01*
X106347820Y-132418498D01*
X106237506Y-132477463D01*
X106172000Y-132531222D01*
X106106494Y-132477463D01*
X105996180Y-132418498D01*
X105876482Y-132382188D01*
X105752000Y-132369928D01*
X104052000Y-132369928D01*
X103927518Y-132382188D01*
X103807820Y-132418498D01*
X103697506Y-132477463D01*
X103632000Y-132531222D01*
X103566494Y-132477463D01*
X103456180Y-132418498D01*
X103336482Y-132382188D01*
X103212000Y-132369928D01*
X101512000Y-132369928D01*
X101387518Y-132382188D01*
X101267820Y-132418498D01*
X101256000Y-132424816D01*
X101256000Y-129772107D01*
X101415368Y-129931475D01*
X101658589Y-130093990D01*
X101928842Y-130205932D01*
X102215740Y-130263000D01*
X102508260Y-130263000D01*
X102795158Y-130205932D01*
X103065411Y-130093990D01*
X103308632Y-129931475D01*
X103515475Y-129724632D01*
X103632000Y-129550240D01*
X103748525Y-129724632D01*
X103955368Y-129931475D01*
X104198589Y-130093990D01*
X104468842Y-130205932D01*
X104755740Y-130263000D01*
X105048260Y-130263000D01*
X105335158Y-130205932D01*
X105605411Y-130093990D01*
X105848632Y-129931475D01*
X106055475Y-129724632D01*
X106172000Y-129550240D01*
X106288525Y-129724632D01*
X106495368Y-129931475D01*
X106738589Y-130093990D01*
X107008842Y-130205932D01*
X107295740Y-130263000D01*
X107588260Y-130263000D01*
X107875158Y-130205932D01*
X108145411Y-130093990D01*
X108388632Y-129931475D01*
X108595475Y-129724632D01*
X108712000Y-129550240D01*
X108828525Y-129724632D01*
X109035368Y-129931475D01*
X109278589Y-130093990D01*
X109548842Y-130205932D01*
X109835740Y-130263000D01*
X110128260Y-130263000D01*
X110415158Y-130205932D01*
X110685411Y-130093990D01*
X110928632Y-129931475D01*
X111135475Y-129724632D01*
X111252000Y-129550240D01*
X111368525Y-129724632D01*
X111575368Y-129931475D01*
X111818589Y-130093990D01*
X112088842Y-130205932D01*
X112375740Y-130263000D01*
X112668260Y-130263000D01*
X112955158Y-130205932D01*
X113225411Y-130093990D01*
X113468632Y-129931475D01*
X113675475Y-129724632D01*
X113837990Y-129481411D01*
X113949932Y-129211158D01*
X114007000Y-128924260D01*
X114007000Y-128631740D01*
X113949932Y-128344842D01*
X113837990Y-128074589D01*
X113675475Y-127831368D01*
X113468632Y-127624525D01*
X113457000Y-127616753D01*
X113457000Y-127584339D01*
X113565386Y-127526405D01*
X113699962Y-127415962D01*
X113810405Y-127281386D01*
X113892472Y-127127850D01*
X113943008Y-126961254D01*
X113960072Y-126788000D01*
X113960072Y-125688000D01*
X113943008Y-125514746D01*
X113904561Y-125388000D01*
X114081928Y-125388000D01*
X114081928Y-127088000D01*
X114094188Y-127212482D01*
X114130498Y-127332180D01*
X114189463Y-127442494D01*
X114268815Y-127539185D01*
X114365506Y-127618537D01*
X114475820Y-127677502D01*
X114595518Y-127713812D01*
X114720000Y-127726072D01*
X116420000Y-127726072D01*
X116544482Y-127713812D01*
X116664180Y-127677502D01*
X116774494Y-127618537D01*
X116871185Y-127539185D01*
X116950537Y-127442494D01*
X117009502Y-127332180D01*
X117045812Y-127212482D01*
X117058072Y-127088000D01*
X117058072Y-125388000D01*
X117045812Y-125263518D01*
X117009502Y-125143820D01*
X116950537Y-125033506D01*
X116871185Y-124936815D01*
X116774494Y-124857463D01*
X116664180Y-124798498D01*
X116544482Y-124762188D01*
X116420000Y-124749928D01*
X114720000Y-124749928D01*
X114595518Y-124762188D01*
X114475820Y-124798498D01*
X114365506Y-124857463D01*
X114268815Y-124936815D01*
X114189463Y-125033506D01*
X114130498Y-125143820D01*
X114094188Y-125263518D01*
X114081928Y-125388000D01*
X113904561Y-125388000D01*
X113892472Y-125348150D01*
X113810405Y-125194614D01*
X113699962Y-125060038D01*
X113565386Y-124949595D01*
X113411850Y-124867528D01*
X113245254Y-124816992D01*
X113072000Y-124799928D01*
X112742362Y-124799928D01*
X113904664Y-123637626D01*
X113940344Y-123608344D01*
X114057186Y-123465972D01*
X114144007Y-123303540D01*
X114197471Y-123127292D01*
X114211000Y-122989932D01*
X114211000Y-122989926D01*
X114215523Y-122944001D01*
X114211000Y-122898076D01*
X114211000Y-114004000D01*
X116163928Y-114004000D01*
X116163928Y-115104000D01*
X116180992Y-115277254D01*
X116231528Y-115443850D01*
X116313595Y-115597386D01*
X116424038Y-115731962D01*
X116558614Y-115842405D01*
X116712150Y-115924472D01*
X116878746Y-115975008D01*
X117052000Y-115992072D01*
X118152000Y-115992072D01*
X118325254Y-115975008D01*
X118491850Y-115924472D01*
X118645386Y-115842405D01*
X118779962Y-115731962D01*
X118890405Y-115597386D01*
X118972472Y-115443850D01*
X119023008Y-115277254D01*
X119040072Y-115104000D01*
X119040072Y-114004000D01*
X119023008Y-113830746D01*
X118972472Y-113664150D01*
X118890405Y-113510614D01*
X118779962Y-113376038D01*
X118645386Y-113265595D01*
X118491850Y-113183528D01*
X118325254Y-113132992D01*
X118152000Y-113115928D01*
X117052000Y-113115928D01*
X116878746Y-113132992D01*
X116712150Y-113183528D01*
X116558614Y-113265595D01*
X116424038Y-113376038D01*
X116313595Y-113510614D01*
X116231528Y-113664150D01*
X116180992Y-113830746D01*
X116163928Y-114004000D01*
X114211000Y-114004000D01*
X114211000Y-107917582D01*
X120498000Y-107917582D01*
X120498001Y-118142419D01*
X120501249Y-118175397D01*
X120501249Y-118188591D01*
X120502212Y-118197756D01*
X120524315Y-118394808D01*
X120536747Y-118453295D01*
X120548370Y-118511997D01*
X120551096Y-118520800D01*
X120611052Y-118709808D01*
X120634612Y-118764778D01*
X120657414Y-118820099D01*
X120661797Y-118828205D01*
X120757324Y-119001966D01*
X120791130Y-119051338D01*
X120824221Y-119101144D01*
X120830095Y-119108245D01*
X120957552Y-119260142D01*
X121000263Y-119301968D01*
X121042441Y-119344442D01*
X121049583Y-119350266D01*
X121204116Y-119474515D01*
X121254170Y-119507269D01*
X121303765Y-119540722D01*
X121311901Y-119545048D01*
X121487625Y-119636914D01*
X121543078Y-119659318D01*
X121598233Y-119682503D01*
X121607055Y-119685166D01*
X121797276Y-119741151D01*
X121856010Y-119752355D01*
X121914633Y-119764389D01*
X121923805Y-119765288D01*
X122121277Y-119783259D01*
X122181094Y-119782841D01*
X122240911Y-119783259D01*
X122250083Y-119782359D01*
X122447284Y-119761632D01*
X122505834Y-119749613D01*
X122564639Y-119738396D01*
X122573461Y-119735732D01*
X122762882Y-119677097D01*
X122818009Y-119653924D01*
X122873492Y-119631507D01*
X122881629Y-119627181D01*
X123056052Y-119532870D01*
X123105636Y-119499425D01*
X123155699Y-119466665D01*
X123162840Y-119460841D01*
X123315624Y-119334446D01*
X123357744Y-119292031D01*
X123400513Y-119250149D01*
X123406387Y-119243048D01*
X123531711Y-119089386D01*
X123564803Y-119039577D01*
X123598610Y-118990205D01*
X123602993Y-118982098D01*
X123696084Y-118807020D01*
X123718875Y-118751725D01*
X123742446Y-118696730D01*
X123745171Y-118687926D01*
X123802482Y-118498100D01*
X123814098Y-118439434D01*
X123826537Y-118380913D01*
X123827500Y-118371748D01*
X123846850Y-118174407D01*
X123846850Y-118174402D01*
X123850000Y-118142419D01*
X123850000Y-107917581D01*
X123846751Y-107884593D01*
X123846751Y-107871409D01*
X123845788Y-107862244D01*
X123823685Y-107665192D01*
X123811251Y-107606699D01*
X123799630Y-107548003D01*
X123796904Y-107539200D01*
X123736948Y-107350193D01*
X123713400Y-107295249D01*
X123690586Y-107239900D01*
X123686203Y-107231794D01*
X123590676Y-107058034D01*
X123556892Y-107008695D01*
X123523779Y-106958855D01*
X123517905Y-106951755D01*
X123390448Y-106799857D01*
X123347718Y-106758013D01*
X123305559Y-106715558D01*
X123298417Y-106709734D01*
X123143883Y-106585485D01*
X123093847Y-106552742D01*
X123044235Y-106519278D01*
X123036098Y-106514952D01*
X122860375Y-106423086D01*
X122804936Y-106400688D01*
X122749768Y-106377497D01*
X122740946Y-106374834D01*
X122550724Y-106318849D01*
X122492016Y-106307650D01*
X122433367Y-106295611D01*
X122424195Y-106294712D01*
X122226723Y-106276741D01*
X122166906Y-106277159D01*
X122107088Y-106276741D01*
X122097917Y-106277641D01*
X121900715Y-106298368D01*
X121842151Y-106310390D01*
X121783362Y-106321604D01*
X121774540Y-106324268D01*
X121585118Y-106382903D01*
X121530005Y-106406071D01*
X121474507Y-106428493D01*
X121466371Y-106432820D01*
X121291947Y-106527130D01*
X121242331Y-106560597D01*
X121192301Y-106593335D01*
X121185160Y-106599159D01*
X121032376Y-106725553D01*
X120990237Y-106767988D01*
X120947487Y-106809851D01*
X120941613Y-106816952D01*
X120816289Y-106970614D01*
X120783174Y-107020456D01*
X120749390Y-107069796D01*
X120745007Y-107077902D01*
X120651916Y-107252980D01*
X120629125Y-107308275D01*
X120605554Y-107363270D01*
X120602829Y-107372073D01*
X120545518Y-107561900D01*
X120533900Y-107620580D01*
X120521463Y-107679087D01*
X120520500Y-107688252D01*
X120501150Y-107885594D01*
X120501150Y-107885599D01*
X120498000Y-107917582D01*
X114211000Y-107917582D01*
X114211000Y-106067190D01*
X114214072Y-106036000D01*
X114214072Y-105561000D01*
X114336476Y-105561000D01*
X114337928Y-105575742D01*
X114337928Y-106036000D01*
X114353071Y-106189745D01*
X114397916Y-106337582D01*
X114470742Y-106473829D01*
X114568749Y-106593251D01*
X114688171Y-106691258D01*
X114824418Y-106764084D01*
X114972255Y-106808929D01*
X115126000Y-106824072D01*
X115426000Y-106824072D01*
X115579745Y-106808929D01*
X115727582Y-106764084D01*
X115863829Y-106691258D01*
X115881250Y-106676961D01*
X115926226Y-106721937D01*
X116095744Y-106835205D01*
X116284102Y-106913226D01*
X116484061Y-106953000D01*
X116687939Y-106953000D01*
X116887898Y-106913226D01*
X117076256Y-106835205D01*
X117245774Y-106721937D01*
X117389937Y-106577774D01*
X117503205Y-106408256D01*
X117581226Y-106219898D01*
X117621000Y-106019939D01*
X117621000Y-105816061D01*
X117581226Y-105616102D01*
X117503205Y-105427744D01*
X117389937Y-105258226D01*
X117245774Y-105114063D01*
X117076256Y-105000795D01*
X116930858Y-104940569D01*
X116922630Y-104932341D01*
X116893344Y-104896656D01*
X116750972Y-104779814D01*
X116588540Y-104692993D01*
X116412292Y-104639529D01*
X116274932Y-104626000D01*
X116229000Y-104621476D01*
X116183068Y-104626000D01*
X116063063Y-104626000D01*
X115983251Y-104528749D01*
X115863829Y-104430742D01*
X115727582Y-104357916D01*
X115579745Y-104313071D01*
X115426000Y-104297928D01*
X115126000Y-104297928D01*
X114972255Y-104313071D01*
X114824418Y-104357916D01*
X114688171Y-104430742D01*
X114568749Y-104528749D01*
X114470742Y-104648171D01*
X114397916Y-104784418D01*
X114353071Y-104932255D01*
X114337928Y-105086000D01*
X114337928Y-105546258D01*
X114336476Y-105561000D01*
X114214072Y-105561000D01*
X114214072Y-105086000D01*
X114198929Y-104932255D01*
X114154084Y-104784418D01*
X114081258Y-104648171D01*
X113983251Y-104528749D01*
X113863829Y-104430742D01*
X113727582Y-104357916D01*
X113579745Y-104313071D01*
X113426000Y-104297928D01*
X113126000Y-104297928D01*
X112972255Y-104313071D01*
X112824418Y-104357916D01*
X112776000Y-104383796D01*
X112727582Y-104357916D01*
X112579745Y-104313071D01*
X112426000Y-104297928D01*
X112126000Y-104297928D01*
X111972255Y-104313071D01*
X111824418Y-104357916D01*
X111776000Y-104383796D01*
X111727582Y-104357916D01*
X111579745Y-104313071D01*
X111426000Y-104297928D01*
X111126000Y-104297928D01*
X110972255Y-104313071D01*
X110824418Y-104357916D01*
X110776000Y-104383796D01*
X110727582Y-104357916D01*
X110579745Y-104313071D01*
X110426000Y-104297928D01*
X110126000Y-104297928D01*
X109972255Y-104313071D01*
X109824418Y-104357916D01*
X109688171Y-104430742D01*
X109568749Y-104528749D01*
X109470742Y-104648171D01*
X109397916Y-104784418D01*
X109353071Y-104932255D01*
X109337928Y-105086000D01*
X109337928Y-106036000D01*
X109341000Y-106067190D01*
X109341001Y-118316032D01*
X108448700Y-119208333D01*
X108545711Y-119089386D01*
X108578803Y-119039577D01*
X108612610Y-118990205D01*
X108616993Y-118982098D01*
X108710084Y-118807020D01*
X108732875Y-118751725D01*
X108756446Y-118696730D01*
X108759171Y-118687926D01*
X108816482Y-118498100D01*
X108828098Y-118439434D01*
X108840537Y-118380913D01*
X108841500Y-118371748D01*
X108860850Y-118174407D01*
X108860850Y-118174402D01*
X108864000Y-118142419D01*
X108864000Y-107917581D01*
X108860751Y-107884593D01*
X108860751Y-107871409D01*
X108859788Y-107862244D01*
X108837685Y-107665192D01*
X108825251Y-107606699D01*
X108813630Y-107548003D01*
X108810904Y-107539200D01*
X108750948Y-107350193D01*
X108727400Y-107295249D01*
X108704586Y-107239900D01*
X108700203Y-107231794D01*
X108604676Y-107058034D01*
X108570892Y-107008695D01*
X108537779Y-106958855D01*
X108531905Y-106951755D01*
X108404448Y-106799857D01*
X108361718Y-106758013D01*
X108319559Y-106715558D01*
X108312417Y-106709734D01*
X108157883Y-106585485D01*
X108107847Y-106552742D01*
X108058235Y-106519278D01*
X108050098Y-106514952D01*
X107874375Y-106423086D01*
X107818936Y-106400688D01*
X107763768Y-106377497D01*
X107754946Y-106374834D01*
X107564724Y-106318849D01*
X107506016Y-106307650D01*
X107447367Y-106295611D01*
X107438195Y-106294712D01*
X107240723Y-106276741D01*
X107180906Y-106277159D01*
X107121088Y-106276741D01*
X107111917Y-106277641D01*
X106914715Y-106298368D01*
X106856151Y-106310390D01*
X106797362Y-106321604D01*
X106788540Y-106324268D01*
X106599118Y-106382903D01*
X106544005Y-106406071D01*
X106488507Y-106428493D01*
X106480371Y-106432820D01*
X106305947Y-106527130D01*
X106256331Y-106560597D01*
X106206301Y-106593335D01*
X106199160Y-106599159D01*
X106046376Y-106725553D01*
X106004237Y-106767988D01*
X105961487Y-106809851D01*
X105955613Y-106816952D01*
X105830289Y-106970614D01*
X105797174Y-107020456D01*
X105763390Y-107069796D01*
X105759007Y-107077902D01*
X105665916Y-107252980D01*
X105643125Y-107308275D01*
X105619554Y-107363270D01*
X105616829Y-107372073D01*
X105559518Y-107561900D01*
X105547900Y-107620580D01*
X105535463Y-107679087D01*
X105534500Y-107688252D01*
X105515150Y-107885594D01*
X105515150Y-107885599D01*
X105512000Y-107917582D01*
X105512001Y-118142419D01*
X105515249Y-118175397D01*
X105515249Y-118188591D01*
X105516212Y-118197756D01*
X105538315Y-118394808D01*
X105550747Y-118453295D01*
X105562370Y-118511997D01*
X105565096Y-118520800D01*
X105625052Y-118709808D01*
X105648612Y-118764778D01*
X105671414Y-118820099D01*
X105675797Y-118828205D01*
X105771324Y-119001966D01*
X105805130Y-119051338D01*
X105838221Y-119101144D01*
X105844095Y-119108245D01*
X105971552Y-119260142D01*
X106014263Y-119301968D01*
X106056441Y-119344442D01*
X106063583Y-119350266D01*
X106218116Y-119474515D01*
X106268170Y-119507269D01*
X106317765Y-119540722D01*
X106325901Y-119545048D01*
X106501625Y-119636914D01*
X106557078Y-119659318D01*
X106612233Y-119682503D01*
X106621055Y-119685166D01*
X106811276Y-119741151D01*
X106870010Y-119752355D01*
X106928633Y-119764389D01*
X106937805Y-119765288D01*
X107135277Y-119783259D01*
X107195094Y-119782841D01*
X107254911Y-119783259D01*
X107264083Y-119782359D01*
X107461284Y-119761632D01*
X107519834Y-119749613D01*
X107578639Y-119738396D01*
X107587461Y-119735732D01*
X107776882Y-119677097D01*
X107832009Y-119653924D01*
X107887492Y-119631507D01*
X107895629Y-119627181D01*
X108070052Y-119532870D01*
X108119636Y-119499425D01*
X108169699Y-119466665D01*
X108176840Y-119460841D01*
X108288882Y-119368151D01*
X104763732Y-122893301D01*
X104823000Y-122595340D01*
X104823000Y-122156660D01*
X104737418Y-121726408D01*
X104569542Y-121321120D01*
X104325824Y-120956370D01*
X104015630Y-120646176D01*
X103650880Y-120402458D01*
X103245592Y-120234582D01*
X102815340Y-120149000D01*
X102376660Y-120149000D01*
X101946408Y-120234582D01*
X101541120Y-120402458D01*
X101256000Y-120592969D01*
X101256000Y-107917582D01*
X101702000Y-107917582D01*
X101702001Y-118142419D01*
X101705249Y-118175397D01*
X101705249Y-118188591D01*
X101706212Y-118197756D01*
X101728315Y-118394808D01*
X101740747Y-118453295D01*
X101752370Y-118511997D01*
X101755096Y-118520800D01*
X101815052Y-118709808D01*
X101838612Y-118764778D01*
X101861414Y-118820099D01*
X101865797Y-118828205D01*
X101961324Y-119001966D01*
X101995130Y-119051338D01*
X102028221Y-119101144D01*
X102034095Y-119108245D01*
X102161552Y-119260142D01*
X102204263Y-119301968D01*
X102246441Y-119344442D01*
X102253583Y-119350266D01*
X102408116Y-119474515D01*
X102458170Y-119507269D01*
X102507765Y-119540722D01*
X102515901Y-119545048D01*
X102691625Y-119636914D01*
X102747078Y-119659318D01*
X102802233Y-119682503D01*
X102811055Y-119685166D01*
X103001276Y-119741151D01*
X103060010Y-119752355D01*
X103118633Y-119764389D01*
X103127805Y-119765288D01*
X103325277Y-119783259D01*
X103385094Y-119782841D01*
X103444911Y-119783259D01*
X103454083Y-119782359D01*
X103651284Y-119761632D01*
X103709834Y-119749613D01*
X103768639Y-119738396D01*
X103777461Y-119735732D01*
X103966882Y-119677097D01*
X104022009Y-119653924D01*
X104077492Y-119631507D01*
X104085629Y-119627181D01*
X104260052Y-119532870D01*
X104309636Y-119499425D01*
X104359699Y-119466665D01*
X104366840Y-119460841D01*
X104519624Y-119334446D01*
X104561744Y-119292031D01*
X104604513Y-119250149D01*
X104610387Y-119243048D01*
X104735711Y-119089386D01*
X104768803Y-119039577D01*
X104802610Y-118990205D01*
X104806993Y-118982098D01*
X104900084Y-118807020D01*
X104922875Y-118751725D01*
X104946446Y-118696730D01*
X104949171Y-118687926D01*
X105006482Y-118498100D01*
X105018098Y-118439434D01*
X105030537Y-118380913D01*
X105031500Y-118371748D01*
X105050850Y-118174407D01*
X105050850Y-118174402D01*
X105054000Y-118142419D01*
X105054000Y-107917581D01*
X105050751Y-107884593D01*
X105050751Y-107871409D01*
X105049788Y-107862244D01*
X105027685Y-107665192D01*
X105015251Y-107606699D01*
X105003630Y-107548003D01*
X105000904Y-107539200D01*
X104940948Y-107350193D01*
X104917400Y-107295249D01*
X104894586Y-107239900D01*
X104890203Y-107231794D01*
X104794676Y-107058034D01*
X104760892Y-107008695D01*
X104727779Y-106958855D01*
X104721905Y-106951755D01*
X104594448Y-106799857D01*
X104551718Y-106758013D01*
X104509559Y-106715558D01*
X104502417Y-106709734D01*
X104347883Y-106585485D01*
X104297847Y-106552742D01*
X104248235Y-106519278D01*
X104240098Y-106514952D01*
X104064375Y-106423086D01*
X104008936Y-106400688D01*
X103953768Y-106377497D01*
X103944946Y-106374834D01*
X103754724Y-106318849D01*
X103696016Y-106307650D01*
X103637367Y-106295611D01*
X103628195Y-106294712D01*
X103430723Y-106276741D01*
X103370906Y-106277159D01*
X103311088Y-106276741D01*
X103301917Y-106277641D01*
X103104715Y-106298368D01*
X103046151Y-106310390D01*
X102987362Y-106321604D01*
X102978540Y-106324268D01*
X102789118Y-106382903D01*
X102734005Y-106406071D01*
X102678507Y-106428493D01*
X102670371Y-106432820D01*
X102495947Y-106527130D01*
X102446331Y-106560597D01*
X102396301Y-106593335D01*
X102389160Y-106599159D01*
X102236376Y-106725553D01*
X102194237Y-106767988D01*
X102151487Y-106809851D01*
X102145613Y-106816952D01*
X102020289Y-106970614D01*
X101987174Y-107020456D01*
X101953390Y-107069796D01*
X101949007Y-107077902D01*
X101855916Y-107252980D01*
X101833125Y-107308275D01*
X101809554Y-107363270D01*
X101806829Y-107372073D01*
X101749518Y-107561900D01*
X101737900Y-107620580D01*
X101725463Y-107679087D01*
X101724500Y-107688252D01*
X101705150Y-107885594D01*
X101705150Y-107885599D01*
X101702000Y-107917582D01*
X101256000Y-107917582D01*
X101256000Y-104159031D01*
X101541120Y-104349542D01*
X101946408Y-104517418D01*
X102376660Y-104603000D01*
X102815340Y-104603000D01*
X103245592Y-104517418D01*
X103650880Y-104349542D01*
X104015630Y-104105824D01*
X104325824Y-103795630D01*
X104569542Y-103430880D01*
X104737418Y-103025592D01*
X104823000Y-102595340D01*
X104823000Y-102156660D01*
X104737418Y-101726408D01*
X104569542Y-101321120D01*
X104379031Y-101036000D01*
X108228857Y-101036000D01*
X108121503Y-101093382D01*
G37*
%TD.AperFunction*%
%TD*%
M02*
