M48
; DRILL file {KiCad (5.1.9)-1} date 05/31/22 00:09:10
; FORMAT={-:-/ absolute / inch / decimal}
; #@! TF.CreationDate,2022-05-31T00:09:10+01:00
; #@! TF.GenerationSoftware,Kicad,Pcbnew,(5.1.9)-1
FMAT,2
INCH
T1C0.0157
T2C0.0236
T3C0.0394
T4C0.0866
%
G90
G05
T1
X4.59Y-4.17
T2
X4.03Y-4.97
X4.13Y-4.97
X4.23Y-4.97
X4.33Y-4.97
X4.43Y-4.97
X4.53Y-5.17
X4.53Y-5.27
X4.58Y-4.83
X4.63Y-4.41
X4.63Y-4.51
X4.68Y-4.83
T3
X4.03Y-5.07
X4.03Y-5.17
X4.03Y-5.27
X4.13Y-5.07
X4.13Y-5.17
X4.13Y-5.27
X4.23Y-5.07
X4.23Y-5.17
X4.23Y-5.27
X4.33Y-5.07
X4.33Y-5.17
X4.33Y-5.27
X4.43Y-5.07
X4.43Y-5.17
X4.43Y-5.27
X4.55Y-4.97
X4.65Y-4.97
X4.75Y-4.97
X4.85Y-4.97
T4
X4.0392Y-4.0306
X4.0392Y-4.818
X4.8266Y-4.0306
X4.8266Y-4.818
T0
M30
