%TF.GenerationSoftware,KiCad,Pcbnew,(5.1.9)-1*%
%TF.CreationDate,2022-05-31T00:09:08+01:00*%
%TF.ProjectId,board,626f6172-642e-46b6-9963-61645f706362,rev?*%
%TF.SameCoordinates,Original*%
%TF.FileFunction,Legend,Top*%
%TF.FilePolarity,Positive*%
%FSLAX46Y46*%
G04 Gerber Fmt 4.6, Leading zero omitted, Abs format (unit mm)*
G04 Created by KiCad (PCBNEW (5.1.9)-1) date 2022-05-31 00:09:08*
%MOMM*%
%LPD*%
G01*
G04 APERTURE LIST*
%ADD10C,0.200000*%
%ADD11C,0.120000*%
G04 APERTURE END LIST*
D10*
X114641904Y-128976380D02*
X114641904Y-127976380D01*
X114641904Y-128452571D02*
X115213333Y-128452571D01*
X115213333Y-128976380D02*
X115213333Y-127976380D01*
X116118095Y-128976380D02*
X116118095Y-128452571D01*
X116070476Y-128357333D01*
X115975238Y-128309714D01*
X115784761Y-128309714D01*
X115689523Y-128357333D01*
X116118095Y-128928761D02*
X116022857Y-128976380D01*
X115784761Y-128976380D01*
X115689523Y-128928761D01*
X115641904Y-128833523D01*
X115641904Y-128738285D01*
X115689523Y-128643047D01*
X115784761Y-128595428D01*
X116022857Y-128595428D01*
X116118095Y-128547809D01*
X116594285Y-128309714D02*
X116594285Y-129309714D01*
X116594285Y-128357333D02*
X116689523Y-128309714D01*
X116880000Y-128309714D01*
X116975238Y-128357333D01*
X117022857Y-128404952D01*
X117070476Y-128500190D01*
X117070476Y-128785904D01*
X117022857Y-128881142D01*
X116975238Y-128928761D01*
X116880000Y-128976380D01*
X116689523Y-128976380D01*
X116594285Y-128928761D01*
X117499047Y-128309714D02*
X117499047Y-129309714D01*
X117499047Y-128357333D02*
X117594285Y-128309714D01*
X117784761Y-128309714D01*
X117880000Y-128357333D01*
X117927619Y-128404952D01*
X117975238Y-128500190D01*
X117975238Y-128785904D01*
X117927619Y-128881142D01*
X117880000Y-128928761D01*
X117784761Y-128976380D01*
X117594285Y-128976380D01*
X117499047Y-128928761D01*
X118308571Y-128309714D02*
X118546666Y-128976380D01*
X118784761Y-128309714D02*
X118546666Y-128976380D01*
X118451428Y-129214476D01*
X118403809Y-129262095D01*
X118308571Y-129309714D01*
X119165714Y-128976380D02*
X119165714Y-128309714D01*
X119165714Y-128404952D02*
X119213333Y-128357333D01*
X119308571Y-128309714D01*
X119451428Y-128309714D01*
X119546666Y-128357333D01*
X119594285Y-128452571D01*
X119594285Y-128976380D01*
X119594285Y-128452571D02*
X119641904Y-128357333D01*
X119737142Y-128309714D01*
X119880000Y-128309714D01*
X119975238Y-128357333D01*
X120022857Y-128452571D01*
X120022857Y-128976380D01*
X120927619Y-128976380D02*
X120927619Y-127976380D01*
X120927619Y-128928761D02*
X120832380Y-128976380D01*
X120641904Y-128976380D01*
X120546666Y-128928761D01*
X120499047Y-128881142D01*
X120451428Y-128785904D01*
X120451428Y-128500190D01*
X120499047Y-128404952D01*
X120546666Y-128357333D01*
X120641904Y-128309714D01*
X120832380Y-128309714D01*
X120927619Y-128357333D01*
X121546666Y-128976380D02*
X121451428Y-128928761D01*
X121403809Y-128833523D01*
X121403809Y-127976380D01*
X122689523Y-128452571D02*
X123022857Y-128452571D01*
X123165714Y-128976380D02*
X122689523Y-128976380D01*
X122689523Y-127976380D01*
X123165714Y-127976380D01*
X123594285Y-128976380D02*
X123594285Y-127976380D01*
X123975238Y-127976380D01*
X124070476Y-128024000D01*
X124118095Y-128071619D01*
X124165714Y-128166857D01*
X124165714Y-128309714D01*
X124118095Y-128404952D01*
X124070476Y-128452571D01*
X123975238Y-128500190D01*
X123594285Y-128500190D01*
X117094095Y-133612000D02*
X116998857Y-133564380D01*
X116856000Y-133564380D01*
X116713142Y-133612000D01*
X116617904Y-133707238D01*
X116570285Y-133802476D01*
X116522666Y-133992952D01*
X116522666Y-134135809D01*
X116570285Y-134326285D01*
X116617904Y-134421523D01*
X116713142Y-134516761D01*
X116856000Y-134564380D01*
X116951238Y-134564380D01*
X117094095Y-134516761D01*
X117141714Y-134469142D01*
X117141714Y-134135809D01*
X116951238Y-134135809D01*
X117570285Y-134564380D02*
X117570285Y-133564380D01*
X118141714Y-134564380D01*
X118141714Y-133564380D01*
X118617904Y-134564380D02*
X118617904Y-133564380D01*
X118856000Y-133564380D01*
X118998857Y-133612000D01*
X119094095Y-133707238D01*
X119141714Y-133802476D01*
X119189333Y-133992952D01*
X119189333Y-134135809D01*
X119141714Y-134326285D01*
X119094095Y-134421523D01*
X118998857Y-134516761D01*
X118856000Y-134564380D01*
X118617904Y-134564380D01*
X116522666Y-130770380D02*
X116856000Y-131770380D01*
X117189333Y-130770380D01*
X118094095Y-131675142D02*
X118046476Y-131722761D01*
X117903619Y-131770380D01*
X117808380Y-131770380D01*
X117665523Y-131722761D01*
X117570285Y-131627523D01*
X117522666Y-131532285D01*
X117475047Y-131341809D01*
X117475047Y-131198952D01*
X117522666Y-131008476D01*
X117570285Y-130913238D01*
X117665523Y-130818000D01*
X117808380Y-130770380D01*
X117903619Y-130770380D01*
X118046476Y-130818000D01*
X118094095Y-130865619D01*
X119094095Y-131675142D02*
X119046476Y-131722761D01*
X118903619Y-131770380D01*
X118808380Y-131770380D01*
X118665523Y-131722761D01*
X118570285Y-131627523D01*
X118522666Y-131532285D01*
X118475047Y-131341809D01*
X118475047Y-131198952D01*
X118522666Y-131008476D01*
X118570285Y-130913238D01*
X118665523Y-130818000D01*
X118808380Y-130770380D01*
X118903619Y-130770380D01*
X119046476Y-130818000D01*
X119094095Y-130865619D01*
X116840095Y-116340000D02*
X116744857Y-116292380D01*
X116602000Y-116292380D01*
X116459142Y-116340000D01*
X116363904Y-116435238D01*
X116316285Y-116530476D01*
X116268666Y-116720952D01*
X116268666Y-116863809D01*
X116316285Y-117054285D01*
X116363904Y-117149523D01*
X116459142Y-117244761D01*
X116602000Y-117292380D01*
X116697238Y-117292380D01*
X116840095Y-117244761D01*
X116887714Y-117197142D01*
X116887714Y-116863809D01*
X116697238Y-116863809D01*
X117316285Y-117292380D02*
X117316285Y-116292380D01*
X117887714Y-117292380D01*
X117887714Y-116292380D01*
X118363904Y-117292380D02*
X118363904Y-116292380D01*
X118602000Y-116292380D01*
X118744857Y-116340000D01*
X118840095Y-116435238D01*
X118887714Y-116530476D01*
X118935333Y-116720952D01*
X118935333Y-116863809D01*
X118887714Y-117054285D01*
X118840095Y-117149523D01*
X118744857Y-117244761D01*
X118602000Y-117292380D01*
X118363904Y-117292380D01*
X116268666Y-109180380D02*
X116602000Y-110180380D01*
X116935333Y-109180380D01*
X117840095Y-110085142D02*
X117792476Y-110132761D01*
X117649619Y-110180380D01*
X117554380Y-110180380D01*
X117411523Y-110132761D01*
X117316285Y-110037523D01*
X117268666Y-109942285D01*
X117221047Y-109751809D01*
X117221047Y-109608952D01*
X117268666Y-109418476D01*
X117316285Y-109323238D01*
X117411523Y-109228000D01*
X117554380Y-109180380D01*
X117649619Y-109180380D01*
X117792476Y-109228000D01*
X117840095Y-109275619D01*
X118840095Y-110085142D02*
X118792476Y-110132761D01*
X118649619Y-110180380D01*
X118554380Y-110180380D01*
X118411523Y-110132761D01*
X118316285Y-110037523D01*
X118268666Y-109942285D01*
X118221047Y-109751809D01*
X118221047Y-109608952D01*
X118268666Y-109418476D01*
X118316285Y-109323238D01*
X118411523Y-109228000D01*
X118554380Y-109180380D01*
X118649619Y-109180380D01*
X118792476Y-109228000D01*
X118840095Y-109275619D01*
X118705333Y-121102380D02*
X118372000Y-120626190D01*
X118133904Y-121102380D02*
X118133904Y-120102380D01*
X118514857Y-120102380D01*
X118610095Y-120150000D01*
X118657714Y-120197619D01*
X118705333Y-120292857D01*
X118705333Y-120435714D01*
X118657714Y-120530952D01*
X118610095Y-120578571D01*
X118514857Y-120626190D01*
X118133904Y-120626190D01*
X119038666Y-120102380D02*
X119705333Y-121102380D01*
X119705333Y-120102380D02*
X119038666Y-121102380D01*
X115570095Y-120102380D02*
X116141523Y-120102380D01*
X115855809Y-121102380D02*
X115855809Y-120102380D01*
X116379619Y-120102380D02*
X117046285Y-121102380D01*
X117046285Y-120102380D02*
X116379619Y-121102380D01*
D11*
%TO.C,REF\u002A\u002A*%
X117970000Y-135238000D02*
X114770000Y-135238000D01*
X117970000Y-135238000D02*
X117970000Y-132038000D01*
X114770000Y-132038000D02*
X117970000Y-132038000D01*
X114770000Y-135238000D02*
X114770000Y-132038000D01*
X124570000Y-126238000D02*
X124570000Y-136638000D01*
X114170000Y-136638000D02*
X114170000Y-126238000D01*
X124470000Y-136638000D02*
X114170000Y-136638000D01*
X124520000Y-127568000D02*
X124520000Y-124908000D01*
X116840000Y-127568000D02*
X124520000Y-127568000D01*
X116840000Y-124908000D02*
X124520000Y-124908000D01*
X116840000Y-127568000D02*
X116840000Y-124908000D01*
X115570000Y-127568000D02*
X114240000Y-127568000D01*
X114240000Y-127568000D02*
X114240000Y-126238000D01*
%TO.C,J11*%
X113852000Y-135188000D02*
X112522000Y-135188000D01*
X113852000Y-133858000D02*
X113852000Y-135188000D01*
X113852000Y-132588000D02*
X111192000Y-132588000D01*
X111192000Y-132588000D02*
X111192000Y-127448000D01*
X113852000Y-132588000D02*
X113852000Y-127448000D01*
X113852000Y-127448000D02*
X111192000Y-127448000D01*
%TO.C,J1*%
X108266000Y-100776000D02*
X108266000Y-101326000D01*
X117286000Y-100776000D02*
X108266000Y-100776000D01*
X117286000Y-101326000D02*
X117286000Y-100776000D01*
X108266000Y-105296000D02*
X109716000Y-105296000D01*
X108266000Y-103546000D02*
X108266000Y-105296000D01*
X115836000Y-105296000D02*
X115836000Y-106186000D01*
X117286000Y-105296000D02*
X115836000Y-105296000D01*
X117286000Y-103546000D02*
X117286000Y-105296000D01*
%TO.C,J5*%
X111312000Y-135188000D02*
X109982000Y-135188000D01*
X111312000Y-133858000D02*
X111312000Y-135188000D01*
X111312000Y-132588000D02*
X108652000Y-132588000D01*
X108652000Y-132588000D02*
X108652000Y-127448000D01*
X111312000Y-132588000D02*
X111312000Y-127448000D01*
X111312000Y-127448000D02*
X108652000Y-127448000D01*
%TO.C,J4*%
X108772000Y-135188000D02*
X107442000Y-135188000D01*
X108772000Y-133858000D02*
X108772000Y-135188000D01*
X108772000Y-132588000D02*
X106112000Y-132588000D01*
X106112000Y-132588000D02*
X106112000Y-127448000D01*
X108772000Y-132588000D02*
X108772000Y-127448000D01*
X108772000Y-127448000D02*
X106112000Y-127448000D01*
%TO.C,J3*%
X106232000Y-135188000D02*
X104902000Y-135188000D01*
X106232000Y-133858000D02*
X106232000Y-135188000D01*
X106232000Y-132588000D02*
X103572000Y-132588000D01*
X103572000Y-132588000D02*
X103572000Y-127448000D01*
X106232000Y-132588000D02*
X106232000Y-127448000D01*
X106232000Y-127448000D02*
X103572000Y-127448000D01*
%TO.C,J2*%
X103692000Y-135188000D02*
X102362000Y-135188000D01*
X103692000Y-133858000D02*
X103692000Y-135188000D01*
X103692000Y-132588000D02*
X101032000Y-132588000D01*
X101032000Y-132588000D02*
X101032000Y-127448000D01*
X103692000Y-132588000D02*
X103692000Y-127448000D01*
X103692000Y-127448000D02*
X101032000Y-127448000D01*
%TD*%
M02*
