%TF.GenerationSoftware,KiCad,Pcbnew,(5.1.9)-1*%
%TF.CreationDate,2022-05-31T00:32:49+01:00*%
%TF.ProjectId,board,626f6172-642e-46b6-9963-61645f706362,rev?*%
%TF.SameCoordinates,Original*%
%TF.FileFunction,Copper,L2,Bot*%
%TF.FilePolarity,Positive*%
%FSLAX46Y46*%
G04 Gerber Fmt 4.6, Leading zero omitted, Abs format (unit mm)*
G04 Created by KiCad (PCBNEW (5.1.9)-1) date 2022-05-31 00:32:49*
%MOMM*%
%LPD*%
G01*
G04 APERTURE LIST*
%TA.AperFunction,ComponentPad*%
%ADD10O,1.730000X1.030000*%
%TD*%
%TA.AperFunction,ComponentPad*%
%ADD11O,1.700000X1.700000*%
%TD*%
%TA.AperFunction,ComponentPad*%
%ADD12R,1.700000X1.700000*%
%TD*%
%TA.AperFunction,ViaPad*%
%ADD13C,0.800000*%
%TD*%
%TA.AperFunction,Conductor*%
%ADD14C,0.254000*%
%TD*%
%TA.AperFunction,Conductor*%
%ADD15C,0.100000*%
%TD*%
G04 APERTURE END LIST*
%TO.P,J13,1*%
%TO.N,Net-(J1-Pad6)*%
%TA.AperFunction,ComponentPad*%
G36*
G01*
X104686000Y-125434000D02*
X104686000Y-126534000D01*
G75*
G02*
X104436000Y-126784000I-250000J0D01*
G01*
X103336000Y-126784000D01*
G75*
G02*
X103086000Y-126534000I0J250000D01*
G01*
X103086000Y-125434000D01*
G75*
G02*
X103336000Y-125184000I250000J0D01*
G01*
X104436000Y-125184000D01*
G75*
G02*
X104686000Y-125434000I0J-250000D01*
G01*
G37*
%TD.AperFunction*%
%TD*%
%TO.P,J12,1*%
%TO.N,Net-(J11-Pad3)*%
%TA.AperFunction,ComponentPad*%
G36*
G01*
X116120000Y-129324000D02*
X115020000Y-129324000D01*
G75*
G02*
X114770000Y-129074000I0J250000D01*
G01*
X114770000Y-127974000D01*
G75*
G02*
X115020000Y-127724000I250000J0D01*
G01*
X116120000Y-127724000D01*
G75*
G02*
X116370000Y-127974000I0J-250000D01*
G01*
X116370000Y-129074000D01*
G75*
G02*
X116120000Y-129324000I-250000J0D01*
G01*
G37*
%TD.AperFunction*%
%TD*%
%TO.P,J10,1*%
%TO.N,+BATT*%
%TA.AperFunction,ComponentPad*%
G36*
G01*
X120100000Y-130264000D02*
X121200000Y-130264000D01*
G75*
G02*
X121450000Y-130514000I0J-250000D01*
G01*
X121450000Y-131614000D01*
G75*
G02*
X121200000Y-131864000I-250000J0D01*
G01*
X120100000Y-131864000D01*
G75*
G02*
X119850000Y-131614000I0J250000D01*
G01*
X119850000Y-130514000D01*
G75*
G02*
X120100000Y-130264000I250000J0D01*
G01*
G37*
%TD.AperFunction*%
%TD*%
%TO.P,J9,1*%
%TO.N,Net-(J1-Pad3)*%
%TA.AperFunction,ComponentPad*%
G36*
G01*
X116120000Y-126784000D02*
X115020000Y-126784000D01*
G75*
G02*
X114770000Y-126534000I0J250000D01*
G01*
X114770000Y-125434000D01*
G75*
G02*
X115020000Y-125184000I250000J0D01*
G01*
X116120000Y-125184000D01*
G75*
G02*
X116370000Y-125434000I0J-250000D01*
G01*
X116370000Y-126534000D01*
G75*
G02*
X116120000Y-126784000I-250000J0D01*
G01*
G37*
%TD.AperFunction*%
%TD*%
%TO.P,J8,1*%
%TO.N,Net-(J1-Pad4)*%
%TA.AperFunction,ComponentPad*%
G36*
G01*
X110706000Y-126534000D02*
X110706000Y-125434000D01*
G75*
G02*
X110956000Y-125184000I250000J0D01*
G01*
X112056000Y-125184000D01*
G75*
G02*
X112306000Y-125434000I0J-250000D01*
G01*
X112306000Y-126534000D01*
G75*
G02*
X112056000Y-126784000I-250000J0D01*
G01*
X110956000Y-126784000D01*
G75*
G02*
X110706000Y-126534000I0J250000D01*
G01*
G37*
%TD.AperFunction*%
%TD*%
%TO.P,J7,1*%
%TO.N,Net-(J1-Pad5)*%
%TA.AperFunction,ComponentPad*%
G36*
G01*
X106896000Y-126534000D02*
X106896000Y-125434000D01*
G75*
G02*
X107146000Y-125184000I250000J0D01*
G01*
X108246000Y-125184000D01*
G75*
G02*
X108496000Y-125434000I0J-250000D01*
G01*
X108496000Y-126534000D01*
G75*
G02*
X108246000Y-126784000I-250000J0D01*
G01*
X107146000Y-126784000D01*
G75*
G02*
X106896000Y-126534000I0J250000D01*
G01*
G37*
%TD.AperFunction*%
%TD*%
%TO.P,J6,1*%
%TO.N,GND*%
%TA.AperFunction,ComponentPad*%
G36*
G01*
X122640000Y-130264000D02*
X123740000Y-130264000D01*
G75*
G02*
X123990000Y-130514000I0J-250000D01*
G01*
X123990000Y-131614000D01*
G75*
G02*
X123740000Y-131864000I-250000J0D01*
G01*
X122640000Y-131864000D01*
G75*
G02*
X122390000Y-131614000I0J250000D01*
G01*
X122390000Y-130514000D01*
G75*
G02*
X122640000Y-130264000I250000J0D01*
G01*
G37*
%TD.AperFunction*%
%TD*%
D10*
%TO.P,J4,3*%
%TO.N,Net-(J1-Pad4)*%
X111506000Y-128826000D03*
%TO.P,J4,2*%
%TO.N,+BATT*%
X111506000Y-130326000D03*
%TO.P,J4,1*%
%TO.N,GND*%
%TA.AperFunction,ComponentPad*%
G36*
G01*
X112121001Y-132341000D02*
X110890999Y-132341000D01*
G75*
G02*
X110641000Y-132091001I0J249999D01*
G01*
X110641000Y-131560999D01*
G75*
G02*
X110890999Y-131311000I249999J0D01*
G01*
X112121001Y-131311000D01*
G75*
G02*
X112371000Y-131560999I0J-249999D01*
G01*
X112371000Y-132091001D01*
G75*
G02*
X112121001Y-132341000I-249999J0D01*
G01*
G37*
%TD.AperFunction*%
%TD*%
%TO.P,J3,3*%
%TO.N,Net-(J1-Pad5)*%
X107696000Y-128826000D03*
%TO.P,J3,2*%
%TO.N,+BATT*%
X107696000Y-130326000D03*
%TO.P,J3,1*%
%TO.N,GND*%
%TA.AperFunction,ComponentPad*%
G36*
G01*
X108311001Y-132341000D02*
X107080999Y-132341000D01*
G75*
G02*
X106831000Y-132091001I0J249999D01*
G01*
X106831000Y-131560999D01*
G75*
G02*
X107080999Y-131311000I249999J0D01*
G01*
X108311001Y-131311000D01*
G75*
G02*
X108561000Y-131560999I0J-249999D01*
G01*
X108561000Y-132091001D01*
G75*
G02*
X108311001Y-132341000I-249999J0D01*
G01*
G37*
%TD.AperFunction*%
%TD*%
%TO.P,J2,3*%
%TO.N,Net-(J1-Pad6)*%
X103886000Y-128826000D03*
%TO.P,J2,2*%
%TO.N,+BATT*%
X103886000Y-130326000D03*
%TO.P,J2,1*%
%TO.N,GND*%
%TA.AperFunction,ComponentPad*%
G36*
G01*
X104501001Y-132341000D02*
X103270999Y-132341000D01*
G75*
G02*
X103021000Y-132091001I0J249999D01*
G01*
X103021000Y-131560999D01*
G75*
G02*
X103270999Y-131311000I249999J0D01*
G01*
X104501001Y-131311000D01*
G75*
G02*
X104751000Y-131560999I0J-249999D01*
G01*
X104751000Y-132091001D01*
G75*
G02*
X104501001Y-132341000I-249999J0D01*
G01*
G37*
%TD.AperFunction*%
%TD*%
D11*
%TO.P,J11,3*%
%TO.N,Net-(J11-Pad3)*%
X118110000Y-128524000D03*
%TO.P,J11,2*%
%TO.N,+BATT*%
X120650000Y-128524000D03*
D12*
%TO.P,J11,1*%
%TO.N,GND*%
X123190000Y-128524000D03*
%TD*%
D11*
%TO.P,J5,3*%
%TO.N,Net-(J1-Pad3)*%
X118110000Y-125984000D03*
%TO.P,J5,2*%
%TO.N,+BATT*%
X120650000Y-125984000D03*
D12*
%TO.P,J5,1*%
%TO.N,GND*%
X123190000Y-125984000D03*
%TD*%
D13*
%TO.N,GND*%
X116586000Y-105918000D03*
%TD*%
D14*
%TO.N,GND*%
X120622458Y-101321120D02*
X120454582Y-101726408D01*
X120369000Y-102156660D01*
X120369000Y-102595340D01*
X120454582Y-103025592D01*
X120622458Y-103430880D01*
X120866176Y-103795630D01*
X121176370Y-104105824D01*
X121541120Y-104349542D01*
X121946408Y-104517418D01*
X122376660Y-104603000D01*
X122815340Y-104603000D01*
X123245592Y-104517418D01*
X123650880Y-104349542D01*
X123936244Y-104158868D01*
X123938494Y-120594635D01*
X123650880Y-120402458D01*
X123245592Y-120234582D01*
X122815340Y-120149000D01*
X122376660Y-120149000D01*
X121946408Y-120234582D01*
X121541120Y-120402458D01*
X121176370Y-120646176D01*
X120866176Y-120956370D01*
X120622458Y-121321120D01*
X120454582Y-121726408D01*
X120369000Y-122156660D01*
X120369000Y-122595340D01*
X120454582Y-123025592D01*
X120622458Y-123430880D01*
X120866176Y-123795630D01*
X121176370Y-124105824D01*
X121541120Y-124349542D01*
X121946408Y-124517418D01*
X122376660Y-124603000D01*
X122815340Y-124603000D01*
X123245592Y-124517418D01*
X123650880Y-124349542D01*
X123938981Y-124157039D01*
X123939996Y-131571760D01*
X123911375Y-131863660D01*
X123835965Y-132113429D01*
X123713477Y-132343794D01*
X123548579Y-132545979D01*
X123347546Y-132712288D01*
X123118046Y-132836378D01*
X122868805Y-132913531D01*
X122578911Y-132944000D01*
X102628279Y-132944000D01*
X102336340Y-132915375D01*
X102086571Y-132839965D01*
X101856206Y-132717477D01*
X101654021Y-132552579D01*
X101487712Y-132351546D01*
X101363622Y-132122046D01*
X101286469Y-131872805D01*
X101256000Y-131582911D01*
X101256000Y-128826000D01*
X102380436Y-128826000D01*
X102402640Y-129051439D01*
X102468398Y-129268215D01*
X102575184Y-129467997D01*
X102663820Y-129576000D01*
X102575184Y-129684003D01*
X102468398Y-129883785D01*
X102402640Y-130100561D01*
X102380436Y-130326000D01*
X102402640Y-130551439D01*
X102468398Y-130768215D01*
X102575184Y-130967997D01*
X102718893Y-131143107D01*
X102894003Y-131286816D01*
X103093785Y-131393602D01*
X103310561Y-131459360D01*
X103479508Y-131476000D01*
X104292492Y-131476000D01*
X104461439Y-131459360D01*
X104678215Y-131393602D01*
X104877997Y-131286816D01*
X105053107Y-131143107D01*
X105196816Y-130967997D01*
X105303602Y-130768215D01*
X105369360Y-130551439D01*
X105391564Y-130326000D01*
X105369360Y-130100561D01*
X105303602Y-129883785D01*
X105196816Y-129684003D01*
X105108180Y-129576000D01*
X105196816Y-129467997D01*
X105303602Y-129268215D01*
X105369360Y-129051439D01*
X105391564Y-128826000D01*
X106190436Y-128826000D01*
X106212640Y-129051439D01*
X106278398Y-129268215D01*
X106385184Y-129467997D01*
X106473820Y-129576000D01*
X106385184Y-129684003D01*
X106278398Y-129883785D01*
X106212640Y-130100561D01*
X106190436Y-130326000D01*
X106212640Y-130551439D01*
X106278398Y-130768215D01*
X106385184Y-130967997D01*
X106528893Y-131143107D01*
X106704003Y-131286816D01*
X106903785Y-131393602D01*
X107120561Y-131459360D01*
X107289508Y-131476000D01*
X108102492Y-131476000D01*
X108271439Y-131459360D01*
X108488215Y-131393602D01*
X108687997Y-131286816D01*
X108863107Y-131143107D01*
X109006816Y-130967997D01*
X109113602Y-130768215D01*
X109179360Y-130551439D01*
X109201564Y-130326000D01*
X109179360Y-130100561D01*
X109113602Y-129883785D01*
X109006816Y-129684003D01*
X108918180Y-129576000D01*
X109006816Y-129467997D01*
X109113602Y-129268215D01*
X109179360Y-129051439D01*
X109201564Y-128826000D01*
X110000436Y-128826000D01*
X110022640Y-129051439D01*
X110088398Y-129268215D01*
X110195184Y-129467997D01*
X110283820Y-129576000D01*
X110195184Y-129684003D01*
X110088398Y-129883785D01*
X110022640Y-130100561D01*
X110000436Y-130326000D01*
X110022640Y-130551439D01*
X110088398Y-130768215D01*
X110195184Y-130967997D01*
X110338893Y-131143107D01*
X110514003Y-131286816D01*
X110713785Y-131393602D01*
X110930561Y-131459360D01*
X111099508Y-131476000D01*
X111912492Y-131476000D01*
X112081439Y-131459360D01*
X112298215Y-131393602D01*
X112497997Y-131286816D01*
X112673107Y-131143107D01*
X112816816Y-130967997D01*
X112923602Y-130768215D01*
X112989360Y-130551439D01*
X113011564Y-130326000D01*
X112989360Y-130100561D01*
X112923602Y-129883785D01*
X112816816Y-129684003D01*
X112728180Y-129576000D01*
X112816816Y-129467997D01*
X112923602Y-129268215D01*
X112989360Y-129051439D01*
X113011564Y-128826000D01*
X112989360Y-128600561D01*
X112923602Y-128383785D01*
X112816816Y-128184003D01*
X112673107Y-128008893D01*
X112497997Y-127865184D01*
X112298215Y-127758398D01*
X112081439Y-127692640D01*
X111912492Y-127676000D01*
X111099508Y-127676000D01*
X110930561Y-127692640D01*
X110713785Y-127758398D01*
X110514003Y-127865184D01*
X110338893Y-128008893D01*
X110195184Y-128184003D01*
X110088398Y-128383785D01*
X110022640Y-128600561D01*
X110000436Y-128826000D01*
X109201564Y-128826000D01*
X109179360Y-128600561D01*
X109113602Y-128383785D01*
X109006816Y-128184003D01*
X108863107Y-128008893D01*
X108687997Y-127865184D01*
X108488215Y-127758398D01*
X108271439Y-127692640D01*
X108102492Y-127676000D01*
X107289508Y-127676000D01*
X107120561Y-127692640D01*
X106903785Y-127758398D01*
X106704003Y-127865184D01*
X106528893Y-128008893D01*
X106385184Y-128184003D01*
X106278398Y-128383785D01*
X106212640Y-128600561D01*
X106190436Y-128826000D01*
X105391564Y-128826000D01*
X105369360Y-128600561D01*
X105303602Y-128383785D01*
X105196816Y-128184003D01*
X105053107Y-128008893D01*
X104877997Y-127865184D01*
X104678215Y-127758398D01*
X104461439Y-127692640D01*
X104292492Y-127676000D01*
X103479508Y-127676000D01*
X103310561Y-127692640D01*
X103093785Y-127758398D01*
X102894003Y-127865184D01*
X102718893Y-128008893D01*
X102575184Y-128184003D01*
X102468398Y-128383785D01*
X102402640Y-128600561D01*
X102380436Y-128826000D01*
X101256000Y-128826000D01*
X101256000Y-125434000D01*
X102447928Y-125434000D01*
X102447928Y-126534000D01*
X102464992Y-126707254D01*
X102515528Y-126873850D01*
X102597595Y-127027386D01*
X102708038Y-127161962D01*
X102842614Y-127272405D01*
X102996150Y-127354472D01*
X103162746Y-127405008D01*
X103336000Y-127422072D01*
X104436000Y-127422072D01*
X104609254Y-127405008D01*
X104775850Y-127354472D01*
X104929386Y-127272405D01*
X105063962Y-127161962D01*
X105174405Y-127027386D01*
X105256472Y-126873850D01*
X105307008Y-126707254D01*
X105324072Y-126534000D01*
X105324072Y-125434000D01*
X106257928Y-125434000D01*
X106257928Y-126534000D01*
X106274992Y-126707254D01*
X106325528Y-126873850D01*
X106407595Y-127027386D01*
X106518038Y-127161962D01*
X106652614Y-127272405D01*
X106806150Y-127354472D01*
X106972746Y-127405008D01*
X107146000Y-127422072D01*
X108246000Y-127422072D01*
X108419254Y-127405008D01*
X108585850Y-127354472D01*
X108739386Y-127272405D01*
X108873962Y-127161962D01*
X108984405Y-127027386D01*
X109066472Y-126873850D01*
X109117008Y-126707254D01*
X109134072Y-126534000D01*
X109134072Y-125434000D01*
X110067928Y-125434000D01*
X110067928Y-126534000D01*
X110084992Y-126707254D01*
X110135528Y-126873850D01*
X110217595Y-127027386D01*
X110328038Y-127161962D01*
X110462614Y-127272405D01*
X110616150Y-127354472D01*
X110782746Y-127405008D01*
X110956000Y-127422072D01*
X112056000Y-127422072D01*
X112229254Y-127405008D01*
X112395850Y-127354472D01*
X112549386Y-127272405D01*
X112683962Y-127161962D01*
X112794405Y-127027386D01*
X112876472Y-126873850D01*
X112927008Y-126707254D01*
X112944072Y-126534000D01*
X112944072Y-125434000D01*
X114131928Y-125434000D01*
X114131928Y-126534000D01*
X114148992Y-126707254D01*
X114199528Y-126873850D01*
X114281595Y-127027386D01*
X114392038Y-127161962D01*
X114504187Y-127254000D01*
X114392038Y-127346038D01*
X114281595Y-127480614D01*
X114199528Y-127634150D01*
X114148992Y-127800746D01*
X114131928Y-127974000D01*
X114131928Y-129074000D01*
X114148992Y-129247254D01*
X114199528Y-129413850D01*
X114281595Y-129567386D01*
X114392038Y-129701962D01*
X114526614Y-129812405D01*
X114680150Y-129894472D01*
X114846746Y-129945008D01*
X115020000Y-129962072D01*
X116120000Y-129962072D01*
X116293254Y-129945008D01*
X116459850Y-129894472D01*
X116613386Y-129812405D01*
X116747962Y-129701962D01*
X116858405Y-129567386D01*
X116930745Y-129432049D01*
X116956525Y-129470632D01*
X117163368Y-129677475D01*
X117406589Y-129839990D01*
X117676842Y-129951932D01*
X117963740Y-130009000D01*
X118256260Y-130009000D01*
X118543158Y-129951932D01*
X118813411Y-129839990D01*
X119056632Y-129677475D01*
X119263475Y-129470632D01*
X119380000Y-129296240D01*
X119496525Y-129470632D01*
X119703368Y-129677475D01*
X119741951Y-129703255D01*
X119606614Y-129775595D01*
X119472038Y-129886038D01*
X119361595Y-130020614D01*
X119279528Y-130174150D01*
X119228992Y-130340746D01*
X119211928Y-130514000D01*
X119211928Y-131614000D01*
X119228992Y-131787254D01*
X119279528Y-131953850D01*
X119361595Y-132107386D01*
X119472038Y-132241962D01*
X119606614Y-132352405D01*
X119760150Y-132434472D01*
X119926746Y-132485008D01*
X120100000Y-132502072D01*
X121200000Y-132502072D01*
X121373254Y-132485008D01*
X121539850Y-132434472D01*
X121693386Y-132352405D01*
X121827962Y-132241962D01*
X121938405Y-132107386D01*
X122020472Y-131953850D01*
X122071008Y-131787254D01*
X122088072Y-131614000D01*
X122088072Y-130514000D01*
X122071008Y-130340746D01*
X122020472Y-130174150D01*
X121938405Y-130020614D01*
X121827962Y-129886038D01*
X121693386Y-129775595D01*
X121558049Y-129703255D01*
X121596632Y-129677475D01*
X121803475Y-129470632D01*
X121965990Y-129227411D01*
X122077932Y-128957158D01*
X122135000Y-128670260D01*
X122135000Y-128377740D01*
X122077932Y-128090842D01*
X121965990Y-127820589D01*
X121803475Y-127577368D01*
X121596632Y-127370525D01*
X121422240Y-127254000D01*
X121596632Y-127137475D01*
X121803475Y-126930632D01*
X121965990Y-126687411D01*
X122077932Y-126417158D01*
X122135000Y-126130260D01*
X122135000Y-125837740D01*
X122077932Y-125550842D01*
X121965990Y-125280589D01*
X121803475Y-125037368D01*
X121596632Y-124830525D01*
X121353411Y-124668010D01*
X121083158Y-124556068D01*
X120796260Y-124499000D01*
X120503740Y-124499000D01*
X120216842Y-124556068D01*
X119946589Y-124668010D01*
X119703368Y-124830525D01*
X119496525Y-125037368D01*
X119380000Y-125211760D01*
X119263475Y-125037368D01*
X119056632Y-124830525D01*
X118813411Y-124668010D01*
X118543158Y-124556068D01*
X118256260Y-124499000D01*
X117963740Y-124499000D01*
X117676842Y-124556068D01*
X117406589Y-124668010D01*
X117163368Y-124830525D01*
X116956525Y-125037368D01*
X116930745Y-125075951D01*
X116858405Y-124940614D01*
X116747962Y-124806038D01*
X116613386Y-124695595D01*
X116459850Y-124613528D01*
X116293254Y-124562992D01*
X116120000Y-124545928D01*
X115020000Y-124545928D01*
X114846746Y-124562992D01*
X114680150Y-124613528D01*
X114526614Y-124695595D01*
X114392038Y-124806038D01*
X114281595Y-124940614D01*
X114199528Y-125094150D01*
X114148992Y-125260746D01*
X114131928Y-125434000D01*
X112944072Y-125434000D01*
X112927008Y-125260746D01*
X112876472Y-125094150D01*
X112794405Y-124940614D01*
X112683962Y-124806038D01*
X112549386Y-124695595D01*
X112395850Y-124613528D01*
X112229254Y-124562992D01*
X112056000Y-124545928D01*
X110956000Y-124545928D01*
X110782746Y-124562992D01*
X110616150Y-124613528D01*
X110462614Y-124695595D01*
X110328038Y-124806038D01*
X110217595Y-124940614D01*
X110135528Y-125094150D01*
X110084992Y-125260746D01*
X110067928Y-125434000D01*
X109134072Y-125434000D01*
X109117008Y-125260746D01*
X109066472Y-125094150D01*
X108984405Y-124940614D01*
X108873962Y-124806038D01*
X108739386Y-124695595D01*
X108585850Y-124613528D01*
X108419254Y-124562992D01*
X108246000Y-124545928D01*
X107146000Y-124545928D01*
X106972746Y-124562992D01*
X106806150Y-124613528D01*
X106652614Y-124695595D01*
X106518038Y-124806038D01*
X106407595Y-124940614D01*
X106325528Y-125094150D01*
X106274992Y-125260746D01*
X106257928Y-125434000D01*
X105324072Y-125434000D01*
X105307008Y-125260746D01*
X105256472Y-125094150D01*
X105174405Y-124940614D01*
X105063962Y-124806038D01*
X104929386Y-124695595D01*
X104775850Y-124613528D01*
X104609254Y-124562992D01*
X104436000Y-124545928D01*
X103336000Y-124545928D01*
X103162746Y-124562992D01*
X102996150Y-124613528D01*
X102842614Y-124695595D01*
X102708038Y-124806038D01*
X102597595Y-124940614D01*
X102515528Y-125094150D01*
X102464992Y-125260746D01*
X102447928Y-125434000D01*
X101256000Y-125434000D01*
X101256000Y-124159031D01*
X101541120Y-124349542D01*
X101946408Y-124517418D01*
X102376660Y-124603000D01*
X102815340Y-124603000D01*
X103245592Y-124517418D01*
X103650880Y-124349542D01*
X104015630Y-124105824D01*
X104325824Y-123795630D01*
X104569542Y-123430880D01*
X104737418Y-123025592D01*
X104823000Y-122595340D01*
X104823000Y-122156660D01*
X104737418Y-121726408D01*
X104569542Y-121321120D01*
X104325824Y-120956370D01*
X104015630Y-120646176D01*
X103650880Y-120402458D01*
X103245592Y-120234582D01*
X102815340Y-120149000D01*
X102376660Y-120149000D01*
X101946408Y-120234582D01*
X101541120Y-120402458D01*
X101256000Y-120592969D01*
X101256000Y-107917582D01*
X101702000Y-107917582D01*
X101702001Y-118142419D01*
X101705249Y-118175397D01*
X101705249Y-118188591D01*
X101706212Y-118197756D01*
X101728315Y-118394808D01*
X101740747Y-118453295D01*
X101752370Y-118511997D01*
X101755096Y-118520800D01*
X101815052Y-118709808D01*
X101838612Y-118764778D01*
X101861414Y-118820099D01*
X101865797Y-118828205D01*
X101961324Y-119001966D01*
X101995130Y-119051338D01*
X102028221Y-119101144D01*
X102034095Y-119108245D01*
X102161552Y-119260142D01*
X102204263Y-119301968D01*
X102246441Y-119344442D01*
X102253583Y-119350266D01*
X102408116Y-119474515D01*
X102458170Y-119507269D01*
X102507765Y-119540722D01*
X102515901Y-119545048D01*
X102691625Y-119636914D01*
X102747078Y-119659318D01*
X102802233Y-119682503D01*
X102811055Y-119685166D01*
X103001276Y-119741151D01*
X103060010Y-119752355D01*
X103118633Y-119764389D01*
X103127805Y-119765288D01*
X103325277Y-119783259D01*
X103385094Y-119782841D01*
X103444911Y-119783259D01*
X103454083Y-119782359D01*
X103651284Y-119761632D01*
X103709834Y-119749613D01*
X103768639Y-119738396D01*
X103777461Y-119735732D01*
X103966882Y-119677097D01*
X104022009Y-119653924D01*
X104077492Y-119631507D01*
X104085629Y-119627181D01*
X104260052Y-119532870D01*
X104309636Y-119499425D01*
X104359699Y-119466665D01*
X104366840Y-119460841D01*
X104519624Y-119334446D01*
X104561744Y-119292031D01*
X104604513Y-119250149D01*
X104610387Y-119243048D01*
X104735711Y-119089386D01*
X104768803Y-119039577D01*
X104802610Y-118990205D01*
X104806993Y-118982098D01*
X104900084Y-118807020D01*
X104922875Y-118751725D01*
X104946446Y-118696730D01*
X104949171Y-118687926D01*
X105006482Y-118498100D01*
X105018098Y-118439434D01*
X105030537Y-118380913D01*
X105031500Y-118371748D01*
X105050850Y-118174407D01*
X105050850Y-118174402D01*
X105054000Y-118142419D01*
X105054000Y-107917582D01*
X105512000Y-107917582D01*
X105512001Y-118142419D01*
X105515249Y-118175397D01*
X105515249Y-118188591D01*
X105516212Y-118197756D01*
X105538315Y-118394808D01*
X105550747Y-118453295D01*
X105562370Y-118511997D01*
X105565096Y-118520800D01*
X105625052Y-118709808D01*
X105648612Y-118764778D01*
X105671414Y-118820099D01*
X105675797Y-118828205D01*
X105771324Y-119001966D01*
X105805130Y-119051338D01*
X105838221Y-119101144D01*
X105844095Y-119108245D01*
X105971552Y-119260142D01*
X106014263Y-119301968D01*
X106056441Y-119344442D01*
X106063583Y-119350266D01*
X106218116Y-119474515D01*
X106268170Y-119507269D01*
X106317765Y-119540722D01*
X106325901Y-119545048D01*
X106501625Y-119636914D01*
X106557078Y-119659318D01*
X106612233Y-119682503D01*
X106621055Y-119685166D01*
X106811276Y-119741151D01*
X106870010Y-119752355D01*
X106928633Y-119764389D01*
X106937805Y-119765288D01*
X107135277Y-119783259D01*
X107195094Y-119782841D01*
X107254911Y-119783259D01*
X107264083Y-119782359D01*
X107461284Y-119761632D01*
X107519834Y-119749613D01*
X107578639Y-119738396D01*
X107587461Y-119735732D01*
X107776882Y-119677097D01*
X107832009Y-119653924D01*
X107887492Y-119631507D01*
X107895629Y-119627181D01*
X108070052Y-119532870D01*
X108119636Y-119499425D01*
X108169699Y-119466665D01*
X108176840Y-119460841D01*
X108329624Y-119334446D01*
X108371744Y-119292031D01*
X108414513Y-119250149D01*
X108420387Y-119243048D01*
X108545711Y-119089386D01*
X108578803Y-119039577D01*
X108612610Y-118990205D01*
X108616993Y-118982098D01*
X108710084Y-118807020D01*
X108732875Y-118751725D01*
X108756446Y-118696730D01*
X108759171Y-118687926D01*
X108816482Y-118498100D01*
X108828098Y-118439434D01*
X108840537Y-118380913D01*
X108841500Y-118371748D01*
X108860850Y-118174407D01*
X108860850Y-118174402D01*
X108864000Y-118142419D01*
X108864000Y-107917582D01*
X116688000Y-107917582D01*
X116688001Y-118142419D01*
X116691249Y-118175397D01*
X116691249Y-118188591D01*
X116692212Y-118197756D01*
X116714315Y-118394808D01*
X116726747Y-118453295D01*
X116738370Y-118511997D01*
X116741096Y-118520800D01*
X116801052Y-118709808D01*
X116824612Y-118764778D01*
X116847414Y-118820099D01*
X116851797Y-118828205D01*
X116947324Y-119001966D01*
X116981130Y-119051338D01*
X117014221Y-119101144D01*
X117020095Y-119108245D01*
X117147552Y-119260142D01*
X117190263Y-119301968D01*
X117232441Y-119344442D01*
X117239583Y-119350266D01*
X117394116Y-119474515D01*
X117444170Y-119507269D01*
X117493765Y-119540722D01*
X117501901Y-119545048D01*
X117677625Y-119636914D01*
X117733078Y-119659318D01*
X117788233Y-119682503D01*
X117797055Y-119685166D01*
X117987276Y-119741151D01*
X118046010Y-119752355D01*
X118104633Y-119764389D01*
X118113805Y-119765288D01*
X118311277Y-119783259D01*
X118371094Y-119782841D01*
X118430911Y-119783259D01*
X118440083Y-119782359D01*
X118637284Y-119761632D01*
X118695834Y-119749613D01*
X118754639Y-119738396D01*
X118763461Y-119735732D01*
X118952882Y-119677097D01*
X119008009Y-119653924D01*
X119063492Y-119631507D01*
X119071629Y-119627181D01*
X119246052Y-119532870D01*
X119295636Y-119499425D01*
X119345699Y-119466665D01*
X119352840Y-119460841D01*
X119505624Y-119334446D01*
X119547744Y-119292031D01*
X119590513Y-119250149D01*
X119596387Y-119243048D01*
X119721711Y-119089386D01*
X119754803Y-119039577D01*
X119788610Y-118990205D01*
X119792993Y-118982098D01*
X119886084Y-118807020D01*
X119908875Y-118751725D01*
X119932446Y-118696730D01*
X119935171Y-118687926D01*
X119992482Y-118498100D01*
X120004098Y-118439434D01*
X120016537Y-118380913D01*
X120017500Y-118371748D01*
X120036850Y-118174407D01*
X120036850Y-118174402D01*
X120040000Y-118142419D01*
X120040000Y-107917582D01*
X120498000Y-107917582D01*
X120498001Y-118142419D01*
X120501249Y-118175397D01*
X120501249Y-118188591D01*
X120502212Y-118197756D01*
X120524315Y-118394808D01*
X120536747Y-118453295D01*
X120548370Y-118511997D01*
X120551096Y-118520800D01*
X120611052Y-118709808D01*
X120634612Y-118764778D01*
X120657414Y-118820099D01*
X120661797Y-118828205D01*
X120757324Y-119001966D01*
X120791130Y-119051338D01*
X120824221Y-119101144D01*
X120830095Y-119108245D01*
X120957552Y-119260142D01*
X121000263Y-119301968D01*
X121042441Y-119344442D01*
X121049583Y-119350266D01*
X121204116Y-119474515D01*
X121254170Y-119507269D01*
X121303765Y-119540722D01*
X121311901Y-119545048D01*
X121487625Y-119636914D01*
X121543078Y-119659318D01*
X121598233Y-119682503D01*
X121607055Y-119685166D01*
X121797276Y-119741151D01*
X121856010Y-119752355D01*
X121914633Y-119764389D01*
X121923805Y-119765288D01*
X122121277Y-119783259D01*
X122181094Y-119782841D01*
X122240911Y-119783259D01*
X122250083Y-119782359D01*
X122447284Y-119761632D01*
X122505834Y-119749613D01*
X122564639Y-119738396D01*
X122573461Y-119735732D01*
X122762882Y-119677097D01*
X122818009Y-119653924D01*
X122873492Y-119631507D01*
X122881629Y-119627181D01*
X123056052Y-119532870D01*
X123105636Y-119499425D01*
X123155699Y-119466665D01*
X123162840Y-119460841D01*
X123315624Y-119334446D01*
X123357744Y-119292031D01*
X123400513Y-119250149D01*
X123406387Y-119243048D01*
X123531711Y-119089386D01*
X123564803Y-119039577D01*
X123598610Y-118990205D01*
X123602993Y-118982098D01*
X123696084Y-118807020D01*
X123718875Y-118751725D01*
X123742446Y-118696730D01*
X123745171Y-118687926D01*
X123802482Y-118498100D01*
X123814098Y-118439434D01*
X123826537Y-118380913D01*
X123827500Y-118371748D01*
X123846850Y-118174407D01*
X123846850Y-118174402D01*
X123850000Y-118142419D01*
X123850000Y-107917581D01*
X123846751Y-107884593D01*
X123846751Y-107871409D01*
X123845788Y-107862244D01*
X123823685Y-107665192D01*
X123811251Y-107606699D01*
X123799630Y-107548003D01*
X123796904Y-107539200D01*
X123736948Y-107350193D01*
X123713400Y-107295249D01*
X123690586Y-107239900D01*
X123686203Y-107231794D01*
X123590676Y-107058034D01*
X123556892Y-107008695D01*
X123523779Y-106958855D01*
X123517905Y-106951755D01*
X123390448Y-106799857D01*
X123347718Y-106758013D01*
X123305559Y-106715558D01*
X123298417Y-106709734D01*
X123143883Y-106585485D01*
X123093847Y-106552742D01*
X123044235Y-106519278D01*
X123036098Y-106514952D01*
X122860375Y-106423086D01*
X122804936Y-106400688D01*
X122749768Y-106377497D01*
X122740946Y-106374834D01*
X122550724Y-106318849D01*
X122492016Y-106307650D01*
X122433367Y-106295611D01*
X122424195Y-106294712D01*
X122226723Y-106276741D01*
X122166906Y-106277159D01*
X122107088Y-106276741D01*
X122097917Y-106277641D01*
X121900715Y-106298368D01*
X121842151Y-106310390D01*
X121783362Y-106321604D01*
X121774540Y-106324268D01*
X121585118Y-106382903D01*
X121530005Y-106406071D01*
X121474507Y-106428493D01*
X121466371Y-106432820D01*
X121291947Y-106527130D01*
X121242331Y-106560597D01*
X121192301Y-106593335D01*
X121185160Y-106599159D01*
X121032376Y-106725553D01*
X120990237Y-106767988D01*
X120947487Y-106809851D01*
X120941613Y-106816952D01*
X120816289Y-106970614D01*
X120783174Y-107020456D01*
X120749390Y-107069796D01*
X120745007Y-107077902D01*
X120651916Y-107252980D01*
X120629125Y-107308275D01*
X120605554Y-107363270D01*
X120602829Y-107372073D01*
X120545518Y-107561900D01*
X120533900Y-107620580D01*
X120521463Y-107679087D01*
X120520500Y-107688252D01*
X120501150Y-107885594D01*
X120501150Y-107885599D01*
X120498000Y-107917582D01*
X120040000Y-107917582D01*
X120040000Y-107917581D01*
X120036751Y-107884593D01*
X120036751Y-107871409D01*
X120035788Y-107862244D01*
X120013685Y-107665192D01*
X120001251Y-107606699D01*
X119989630Y-107548003D01*
X119986904Y-107539200D01*
X119926948Y-107350193D01*
X119903400Y-107295249D01*
X119880586Y-107239900D01*
X119876203Y-107231794D01*
X119780676Y-107058034D01*
X119746892Y-107008695D01*
X119713779Y-106958855D01*
X119707905Y-106951755D01*
X119580448Y-106799857D01*
X119537718Y-106758013D01*
X119495559Y-106715558D01*
X119488417Y-106709734D01*
X119333883Y-106585485D01*
X119283847Y-106552742D01*
X119234235Y-106519278D01*
X119226098Y-106514952D01*
X119050375Y-106423086D01*
X118994936Y-106400688D01*
X118939768Y-106377497D01*
X118930946Y-106374834D01*
X118740724Y-106318849D01*
X118682016Y-106307650D01*
X118623367Y-106295611D01*
X118614195Y-106294712D01*
X118416723Y-106276741D01*
X118356906Y-106277159D01*
X118297088Y-106276741D01*
X118287917Y-106277641D01*
X118090715Y-106298368D01*
X118032151Y-106310390D01*
X117973362Y-106321604D01*
X117964540Y-106324268D01*
X117775118Y-106382903D01*
X117720005Y-106406071D01*
X117664507Y-106428493D01*
X117656371Y-106432820D01*
X117481947Y-106527130D01*
X117432331Y-106560597D01*
X117382301Y-106593335D01*
X117375160Y-106599159D01*
X117222376Y-106725553D01*
X117180237Y-106767988D01*
X117137487Y-106809851D01*
X117131613Y-106816952D01*
X117006289Y-106970614D01*
X116973174Y-107020456D01*
X116939390Y-107069796D01*
X116935007Y-107077902D01*
X116841916Y-107252980D01*
X116819125Y-107308275D01*
X116795554Y-107363270D01*
X116792829Y-107372073D01*
X116735518Y-107561900D01*
X116723900Y-107620580D01*
X116711463Y-107679087D01*
X116710500Y-107688252D01*
X116691150Y-107885594D01*
X116691150Y-107885599D01*
X116688000Y-107917582D01*
X108864000Y-107917582D01*
X108864000Y-107917581D01*
X108860751Y-107884593D01*
X108860751Y-107871409D01*
X108859788Y-107862244D01*
X108837685Y-107665192D01*
X108825251Y-107606699D01*
X108813630Y-107548003D01*
X108810904Y-107539200D01*
X108750948Y-107350193D01*
X108727400Y-107295249D01*
X108704586Y-107239900D01*
X108700203Y-107231794D01*
X108604676Y-107058034D01*
X108570892Y-107008695D01*
X108537779Y-106958855D01*
X108531905Y-106951755D01*
X108404448Y-106799857D01*
X108361718Y-106758013D01*
X108319559Y-106715558D01*
X108312417Y-106709734D01*
X108157883Y-106585485D01*
X108107847Y-106552742D01*
X108058235Y-106519278D01*
X108050098Y-106514952D01*
X107874375Y-106423086D01*
X107818936Y-106400688D01*
X107763768Y-106377497D01*
X107754946Y-106374834D01*
X107564724Y-106318849D01*
X107506016Y-106307650D01*
X107447367Y-106295611D01*
X107438195Y-106294712D01*
X107240723Y-106276741D01*
X107180906Y-106277159D01*
X107121088Y-106276741D01*
X107111917Y-106277641D01*
X106914715Y-106298368D01*
X106856151Y-106310390D01*
X106797362Y-106321604D01*
X106788540Y-106324268D01*
X106599118Y-106382903D01*
X106544005Y-106406071D01*
X106488507Y-106428493D01*
X106480371Y-106432820D01*
X106305947Y-106527130D01*
X106256331Y-106560597D01*
X106206301Y-106593335D01*
X106199160Y-106599159D01*
X106046376Y-106725553D01*
X106004237Y-106767988D01*
X105961487Y-106809851D01*
X105955613Y-106816952D01*
X105830289Y-106970614D01*
X105797174Y-107020456D01*
X105763390Y-107069796D01*
X105759007Y-107077902D01*
X105665916Y-107252980D01*
X105643125Y-107308275D01*
X105619554Y-107363270D01*
X105616829Y-107372073D01*
X105559518Y-107561900D01*
X105547900Y-107620580D01*
X105535463Y-107679087D01*
X105534500Y-107688252D01*
X105515150Y-107885594D01*
X105515150Y-107885599D01*
X105512000Y-107917582D01*
X105054000Y-107917582D01*
X105054000Y-107917581D01*
X105050751Y-107884593D01*
X105050751Y-107871409D01*
X105049788Y-107862244D01*
X105027685Y-107665192D01*
X105015251Y-107606699D01*
X105003630Y-107548003D01*
X105000904Y-107539200D01*
X104940948Y-107350193D01*
X104917400Y-107295249D01*
X104894586Y-107239900D01*
X104890203Y-107231794D01*
X104794676Y-107058034D01*
X104760892Y-107008695D01*
X104727779Y-106958855D01*
X104721905Y-106951755D01*
X104594448Y-106799857D01*
X104551718Y-106758013D01*
X104509559Y-106715558D01*
X104502417Y-106709734D01*
X104347883Y-106585485D01*
X104297847Y-106552742D01*
X104248235Y-106519278D01*
X104240098Y-106514952D01*
X104064375Y-106423086D01*
X104008936Y-106400688D01*
X103953768Y-106377497D01*
X103944946Y-106374834D01*
X103754724Y-106318849D01*
X103696016Y-106307650D01*
X103637367Y-106295611D01*
X103628195Y-106294712D01*
X103430723Y-106276741D01*
X103370906Y-106277159D01*
X103311088Y-106276741D01*
X103301917Y-106277641D01*
X103104715Y-106298368D01*
X103046151Y-106310390D01*
X102987362Y-106321604D01*
X102978540Y-106324268D01*
X102789118Y-106382903D01*
X102734005Y-106406071D01*
X102678507Y-106428493D01*
X102670371Y-106432820D01*
X102495947Y-106527130D01*
X102446331Y-106560597D01*
X102396301Y-106593335D01*
X102389160Y-106599159D01*
X102236376Y-106725553D01*
X102194237Y-106767988D01*
X102151487Y-106809851D01*
X102145613Y-106816952D01*
X102020289Y-106970614D01*
X101987174Y-107020456D01*
X101953390Y-107069796D01*
X101949007Y-107077902D01*
X101855916Y-107252980D01*
X101833125Y-107308275D01*
X101809554Y-107363270D01*
X101806829Y-107372073D01*
X101749518Y-107561900D01*
X101737900Y-107620580D01*
X101725463Y-107679087D01*
X101724500Y-107688252D01*
X101705150Y-107885594D01*
X101705150Y-107885599D01*
X101702000Y-107917582D01*
X101256000Y-107917582D01*
X101256000Y-104159031D01*
X101541120Y-104349542D01*
X101946408Y-104517418D01*
X102376660Y-104603000D01*
X102815340Y-104603000D01*
X103245592Y-104517418D01*
X103650880Y-104349542D01*
X104015630Y-104105824D01*
X104325824Y-103795630D01*
X104569542Y-103430880D01*
X104737418Y-103025592D01*
X104823000Y-102595340D01*
X104823000Y-102156660D01*
X104737418Y-101726408D01*
X104569542Y-101321120D01*
X104379031Y-101036000D01*
X120812969Y-101036000D01*
X120622458Y-101321120D01*
%TA.AperFunction,Conductor*%
D15*
G36*
X120622458Y-101321120D02*
G01*
X120454582Y-101726408D01*
X120369000Y-102156660D01*
X120369000Y-102595340D01*
X120454582Y-103025592D01*
X120622458Y-103430880D01*
X120866176Y-103795630D01*
X121176370Y-104105824D01*
X121541120Y-104349542D01*
X121946408Y-104517418D01*
X122376660Y-104603000D01*
X122815340Y-104603000D01*
X123245592Y-104517418D01*
X123650880Y-104349542D01*
X123936244Y-104158868D01*
X123938494Y-120594635D01*
X123650880Y-120402458D01*
X123245592Y-120234582D01*
X122815340Y-120149000D01*
X122376660Y-120149000D01*
X121946408Y-120234582D01*
X121541120Y-120402458D01*
X121176370Y-120646176D01*
X120866176Y-120956370D01*
X120622458Y-121321120D01*
X120454582Y-121726408D01*
X120369000Y-122156660D01*
X120369000Y-122595340D01*
X120454582Y-123025592D01*
X120622458Y-123430880D01*
X120866176Y-123795630D01*
X121176370Y-124105824D01*
X121541120Y-124349542D01*
X121946408Y-124517418D01*
X122376660Y-124603000D01*
X122815340Y-124603000D01*
X123245592Y-124517418D01*
X123650880Y-124349542D01*
X123938981Y-124157039D01*
X123939996Y-131571760D01*
X123911375Y-131863660D01*
X123835965Y-132113429D01*
X123713477Y-132343794D01*
X123548579Y-132545979D01*
X123347546Y-132712288D01*
X123118046Y-132836378D01*
X122868805Y-132913531D01*
X122578911Y-132944000D01*
X102628279Y-132944000D01*
X102336340Y-132915375D01*
X102086571Y-132839965D01*
X101856206Y-132717477D01*
X101654021Y-132552579D01*
X101487712Y-132351546D01*
X101363622Y-132122046D01*
X101286469Y-131872805D01*
X101256000Y-131582911D01*
X101256000Y-128826000D01*
X102380436Y-128826000D01*
X102402640Y-129051439D01*
X102468398Y-129268215D01*
X102575184Y-129467997D01*
X102663820Y-129576000D01*
X102575184Y-129684003D01*
X102468398Y-129883785D01*
X102402640Y-130100561D01*
X102380436Y-130326000D01*
X102402640Y-130551439D01*
X102468398Y-130768215D01*
X102575184Y-130967997D01*
X102718893Y-131143107D01*
X102894003Y-131286816D01*
X103093785Y-131393602D01*
X103310561Y-131459360D01*
X103479508Y-131476000D01*
X104292492Y-131476000D01*
X104461439Y-131459360D01*
X104678215Y-131393602D01*
X104877997Y-131286816D01*
X105053107Y-131143107D01*
X105196816Y-130967997D01*
X105303602Y-130768215D01*
X105369360Y-130551439D01*
X105391564Y-130326000D01*
X105369360Y-130100561D01*
X105303602Y-129883785D01*
X105196816Y-129684003D01*
X105108180Y-129576000D01*
X105196816Y-129467997D01*
X105303602Y-129268215D01*
X105369360Y-129051439D01*
X105391564Y-128826000D01*
X106190436Y-128826000D01*
X106212640Y-129051439D01*
X106278398Y-129268215D01*
X106385184Y-129467997D01*
X106473820Y-129576000D01*
X106385184Y-129684003D01*
X106278398Y-129883785D01*
X106212640Y-130100561D01*
X106190436Y-130326000D01*
X106212640Y-130551439D01*
X106278398Y-130768215D01*
X106385184Y-130967997D01*
X106528893Y-131143107D01*
X106704003Y-131286816D01*
X106903785Y-131393602D01*
X107120561Y-131459360D01*
X107289508Y-131476000D01*
X108102492Y-131476000D01*
X108271439Y-131459360D01*
X108488215Y-131393602D01*
X108687997Y-131286816D01*
X108863107Y-131143107D01*
X109006816Y-130967997D01*
X109113602Y-130768215D01*
X109179360Y-130551439D01*
X109201564Y-130326000D01*
X109179360Y-130100561D01*
X109113602Y-129883785D01*
X109006816Y-129684003D01*
X108918180Y-129576000D01*
X109006816Y-129467997D01*
X109113602Y-129268215D01*
X109179360Y-129051439D01*
X109201564Y-128826000D01*
X110000436Y-128826000D01*
X110022640Y-129051439D01*
X110088398Y-129268215D01*
X110195184Y-129467997D01*
X110283820Y-129576000D01*
X110195184Y-129684003D01*
X110088398Y-129883785D01*
X110022640Y-130100561D01*
X110000436Y-130326000D01*
X110022640Y-130551439D01*
X110088398Y-130768215D01*
X110195184Y-130967997D01*
X110338893Y-131143107D01*
X110514003Y-131286816D01*
X110713785Y-131393602D01*
X110930561Y-131459360D01*
X111099508Y-131476000D01*
X111912492Y-131476000D01*
X112081439Y-131459360D01*
X112298215Y-131393602D01*
X112497997Y-131286816D01*
X112673107Y-131143107D01*
X112816816Y-130967997D01*
X112923602Y-130768215D01*
X112989360Y-130551439D01*
X113011564Y-130326000D01*
X112989360Y-130100561D01*
X112923602Y-129883785D01*
X112816816Y-129684003D01*
X112728180Y-129576000D01*
X112816816Y-129467997D01*
X112923602Y-129268215D01*
X112989360Y-129051439D01*
X113011564Y-128826000D01*
X112989360Y-128600561D01*
X112923602Y-128383785D01*
X112816816Y-128184003D01*
X112673107Y-128008893D01*
X112497997Y-127865184D01*
X112298215Y-127758398D01*
X112081439Y-127692640D01*
X111912492Y-127676000D01*
X111099508Y-127676000D01*
X110930561Y-127692640D01*
X110713785Y-127758398D01*
X110514003Y-127865184D01*
X110338893Y-128008893D01*
X110195184Y-128184003D01*
X110088398Y-128383785D01*
X110022640Y-128600561D01*
X110000436Y-128826000D01*
X109201564Y-128826000D01*
X109179360Y-128600561D01*
X109113602Y-128383785D01*
X109006816Y-128184003D01*
X108863107Y-128008893D01*
X108687997Y-127865184D01*
X108488215Y-127758398D01*
X108271439Y-127692640D01*
X108102492Y-127676000D01*
X107289508Y-127676000D01*
X107120561Y-127692640D01*
X106903785Y-127758398D01*
X106704003Y-127865184D01*
X106528893Y-128008893D01*
X106385184Y-128184003D01*
X106278398Y-128383785D01*
X106212640Y-128600561D01*
X106190436Y-128826000D01*
X105391564Y-128826000D01*
X105369360Y-128600561D01*
X105303602Y-128383785D01*
X105196816Y-128184003D01*
X105053107Y-128008893D01*
X104877997Y-127865184D01*
X104678215Y-127758398D01*
X104461439Y-127692640D01*
X104292492Y-127676000D01*
X103479508Y-127676000D01*
X103310561Y-127692640D01*
X103093785Y-127758398D01*
X102894003Y-127865184D01*
X102718893Y-128008893D01*
X102575184Y-128184003D01*
X102468398Y-128383785D01*
X102402640Y-128600561D01*
X102380436Y-128826000D01*
X101256000Y-128826000D01*
X101256000Y-125434000D01*
X102447928Y-125434000D01*
X102447928Y-126534000D01*
X102464992Y-126707254D01*
X102515528Y-126873850D01*
X102597595Y-127027386D01*
X102708038Y-127161962D01*
X102842614Y-127272405D01*
X102996150Y-127354472D01*
X103162746Y-127405008D01*
X103336000Y-127422072D01*
X104436000Y-127422072D01*
X104609254Y-127405008D01*
X104775850Y-127354472D01*
X104929386Y-127272405D01*
X105063962Y-127161962D01*
X105174405Y-127027386D01*
X105256472Y-126873850D01*
X105307008Y-126707254D01*
X105324072Y-126534000D01*
X105324072Y-125434000D01*
X106257928Y-125434000D01*
X106257928Y-126534000D01*
X106274992Y-126707254D01*
X106325528Y-126873850D01*
X106407595Y-127027386D01*
X106518038Y-127161962D01*
X106652614Y-127272405D01*
X106806150Y-127354472D01*
X106972746Y-127405008D01*
X107146000Y-127422072D01*
X108246000Y-127422072D01*
X108419254Y-127405008D01*
X108585850Y-127354472D01*
X108739386Y-127272405D01*
X108873962Y-127161962D01*
X108984405Y-127027386D01*
X109066472Y-126873850D01*
X109117008Y-126707254D01*
X109134072Y-126534000D01*
X109134072Y-125434000D01*
X110067928Y-125434000D01*
X110067928Y-126534000D01*
X110084992Y-126707254D01*
X110135528Y-126873850D01*
X110217595Y-127027386D01*
X110328038Y-127161962D01*
X110462614Y-127272405D01*
X110616150Y-127354472D01*
X110782746Y-127405008D01*
X110956000Y-127422072D01*
X112056000Y-127422072D01*
X112229254Y-127405008D01*
X112395850Y-127354472D01*
X112549386Y-127272405D01*
X112683962Y-127161962D01*
X112794405Y-127027386D01*
X112876472Y-126873850D01*
X112927008Y-126707254D01*
X112944072Y-126534000D01*
X112944072Y-125434000D01*
X114131928Y-125434000D01*
X114131928Y-126534000D01*
X114148992Y-126707254D01*
X114199528Y-126873850D01*
X114281595Y-127027386D01*
X114392038Y-127161962D01*
X114504187Y-127254000D01*
X114392038Y-127346038D01*
X114281595Y-127480614D01*
X114199528Y-127634150D01*
X114148992Y-127800746D01*
X114131928Y-127974000D01*
X114131928Y-129074000D01*
X114148992Y-129247254D01*
X114199528Y-129413850D01*
X114281595Y-129567386D01*
X114392038Y-129701962D01*
X114526614Y-129812405D01*
X114680150Y-129894472D01*
X114846746Y-129945008D01*
X115020000Y-129962072D01*
X116120000Y-129962072D01*
X116293254Y-129945008D01*
X116459850Y-129894472D01*
X116613386Y-129812405D01*
X116747962Y-129701962D01*
X116858405Y-129567386D01*
X116930745Y-129432049D01*
X116956525Y-129470632D01*
X117163368Y-129677475D01*
X117406589Y-129839990D01*
X117676842Y-129951932D01*
X117963740Y-130009000D01*
X118256260Y-130009000D01*
X118543158Y-129951932D01*
X118813411Y-129839990D01*
X119056632Y-129677475D01*
X119263475Y-129470632D01*
X119380000Y-129296240D01*
X119496525Y-129470632D01*
X119703368Y-129677475D01*
X119741951Y-129703255D01*
X119606614Y-129775595D01*
X119472038Y-129886038D01*
X119361595Y-130020614D01*
X119279528Y-130174150D01*
X119228992Y-130340746D01*
X119211928Y-130514000D01*
X119211928Y-131614000D01*
X119228992Y-131787254D01*
X119279528Y-131953850D01*
X119361595Y-132107386D01*
X119472038Y-132241962D01*
X119606614Y-132352405D01*
X119760150Y-132434472D01*
X119926746Y-132485008D01*
X120100000Y-132502072D01*
X121200000Y-132502072D01*
X121373254Y-132485008D01*
X121539850Y-132434472D01*
X121693386Y-132352405D01*
X121827962Y-132241962D01*
X121938405Y-132107386D01*
X122020472Y-131953850D01*
X122071008Y-131787254D01*
X122088072Y-131614000D01*
X122088072Y-130514000D01*
X122071008Y-130340746D01*
X122020472Y-130174150D01*
X121938405Y-130020614D01*
X121827962Y-129886038D01*
X121693386Y-129775595D01*
X121558049Y-129703255D01*
X121596632Y-129677475D01*
X121803475Y-129470632D01*
X121965990Y-129227411D01*
X122077932Y-128957158D01*
X122135000Y-128670260D01*
X122135000Y-128377740D01*
X122077932Y-128090842D01*
X121965990Y-127820589D01*
X121803475Y-127577368D01*
X121596632Y-127370525D01*
X121422240Y-127254000D01*
X121596632Y-127137475D01*
X121803475Y-126930632D01*
X121965990Y-126687411D01*
X122077932Y-126417158D01*
X122135000Y-126130260D01*
X122135000Y-125837740D01*
X122077932Y-125550842D01*
X121965990Y-125280589D01*
X121803475Y-125037368D01*
X121596632Y-124830525D01*
X121353411Y-124668010D01*
X121083158Y-124556068D01*
X120796260Y-124499000D01*
X120503740Y-124499000D01*
X120216842Y-124556068D01*
X119946589Y-124668010D01*
X119703368Y-124830525D01*
X119496525Y-125037368D01*
X119380000Y-125211760D01*
X119263475Y-125037368D01*
X119056632Y-124830525D01*
X118813411Y-124668010D01*
X118543158Y-124556068D01*
X118256260Y-124499000D01*
X117963740Y-124499000D01*
X117676842Y-124556068D01*
X117406589Y-124668010D01*
X117163368Y-124830525D01*
X116956525Y-125037368D01*
X116930745Y-125075951D01*
X116858405Y-124940614D01*
X116747962Y-124806038D01*
X116613386Y-124695595D01*
X116459850Y-124613528D01*
X116293254Y-124562992D01*
X116120000Y-124545928D01*
X115020000Y-124545928D01*
X114846746Y-124562992D01*
X114680150Y-124613528D01*
X114526614Y-124695595D01*
X114392038Y-124806038D01*
X114281595Y-124940614D01*
X114199528Y-125094150D01*
X114148992Y-125260746D01*
X114131928Y-125434000D01*
X112944072Y-125434000D01*
X112927008Y-125260746D01*
X112876472Y-125094150D01*
X112794405Y-124940614D01*
X112683962Y-124806038D01*
X112549386Y-124695595D01*
X112395850Y-124613528D01*
X112229254Y-124562992D01*
X112056000Y-124545928D01*
X110956000Y-124545928D01*
X110782746Y-124562992D01*
X110616150Y-124613528D01*
X110462614Y-124695595D01*
X110328038Y-124806038D01*
X110217595Y-124940614D01*
X110135528Y-125094150D01*
X110084992Y-125260746D01*
X110067928Y-125434000D01*
X109134072Y-125434000D01*
X109117008Y-125260746D01*
X109066472Y-125094150D01*
X108984405Y-124940614D01*
X108873962Y-124806038D01*
X108739386Y-124695595D01*
X108585850Y-124613528D01*
X108419254Y-124562992D01*
X108246000Y-124545928D01*
X107146000Y-124545928D01*
X106972746Y-124562992D01*
X106806150Y-124613528D01*
X106652614Y-124695595D01*
X106518038Y-124806038D01*
X106407595Y-124940614D01*
X106325528Y-125094150D01*
X106274992Y-125260746D01*
X106257928Y-125434000D01*
X105324072Y-125434000D01*
X105307008Y-125260746D01*
X105256472Y-125094150D01*
X105174405Y-124940614D01*
X105063962Y-124806038D01*
X104929386Y-124695595D01*
X104775850Y-124613528D01*
X104609254Y-124562992D01*
X104436000Y-124545928D01*
X103336000Y-124545928D01*
X103162746Y-124562992D01*
X102996150Y-124613528D01*
X102842614Y-124695595D01*
X102708038Y-124806038D01*
X102597595Y-124940614D01*
X102515528Y-125094150D01*
X102464992Y-125260746D01*
X102447928Y-125434000D01*
X101256000Y-125434000D01*
X101256000Y-124159031D01*
X101541120Y-124349542D01*
X101946408Y-124517418D01*
X102376660Y-124603000D01*
X102815340Y-124603000D01*
X103245592Y-124517418D01*
X103650880Y-124349542D01*
X104015630Y-124105824D01*
X104325824Y-123795630D01*
X104569542Y-123430880D01*
X104737418Y-123025592D01*
X104823000Y-122595340D01*
X104823000Y-122156660D01*
X104737418Y-121726408D01*
X104569542Y-121321120D01*
X104325824Y-120956370D01*
X104015630Y-120646176D01*
X103650880Y-120402458D01*
X103245592Y-120234582D01*
X102815340Y-120149000D01*
X102376660Y-120149000D01*
X101946408Y-120234582D01*
X101541120Y-120402458D01*
X101256000Y-120592969D01*
X101256000Y-107917582D01*
X101702000Y-107917582D01*
X101702001Y-118142419D01*
X101705249Y-118175397D01*
X101705249Y-118188591D01*
X101706212Y-118197756D01*
X101728315Y-118394808D01*
X101740747Y-118453295D01*
X101752370Y-118511997D01*
X101755096Y-118520800D01*
X101815052Y-118709808D01*
X101838612Y-118764778D01*
X101861414Y-118820099D01*
X101865797Y-118828205D01*
X101961324Y-119001966D01*
X101995130Y-119051338D01*
X102028221Y-119101144D01*
X102034095Y-119108245D01*
X102161552Y-119260142D01*
X102204263Y-119301968D01*
X102246441Y-119344442D01*
X102253583Y-119350266D01*
X102408116Y-119474515D01*
X102458170Y-119507269D01*
X102507765Y-119540722D01*
X102515901Y-119545048D01*
X102691625Y-119636914D01*
X102747078Y-119659318D01*
X102802233Y-119682503D01*
X102811055Y-119685166D01*
X103001276Y-119741151D01*
X103060010Y-119752355D01*
X103118633Y-119764389D01*
X103127805Y-119765288D01*
X103325277Y-119783259D01*
X103385094Y-119782841D01*
X103444911Y-119783259D01*
X103454083Y-119782359D01*
X103651284Y-119761632D01*
X103709834Y-119749613D01*
X103768639Y-119738396D01*
X103777461Y-119735732D01*
X103966882Y-119677097D01*
X104022009Y-119653924D01*
X104077492Y-119631507D01*
X104085629Y-119627181D01*
X104260052Y-119532870D01*
X104309636Y-119499425D01*
X104359699Y-119466665D01*
X104366840Y-119460841D01*
X104519624Y-119334446D01*
X104561744Y-119292031D01*
X104604513Y-119250149D01*
X104610387Y-119243048D01*
X104735711Y-119089386D01*
X104768803Y-119039577D01*
X104802610Y-118990205D01*
X104806993Y-118982098D01*
X104900084Y-118807020D01*
X104922875Y-118751725D01*
X104946446Y-118696730D01*
X104949171Y-118687926D01*
X105006482Y-118498100D01*
X105018098Y-118439434D01*
X105030537Y-118380913D01*
X105031500Y-118371748D01*
X105050850Y-118174407D01*
X105050850Y-118174402D01*
X105054000Y-118142419D01*
X105054000Y-107917582D01*
X105512000Y-107917582D01*
X105512001Y-118142419D01*
X105515249Y-118175397D01*
X105515249Y-118188591D01*
X105516212Y-118197756D01*
X105538315Y-118394808D01*
X105550747Y-118453295D01*
X105562370Y-118511997D01*
X105565096Y-118520800D01*
X105625052Y-118709808D01*
X105648612Y-118764778D01*
X105671414Y-118820099D01*
X105675797Y-118828205D01*
X105771324Y-119001966D01*
X105805130Y-119051338D01*
X105838221Y-119101144D01*
X105844095Y-119108245D01*
X105971552Y-119260142D01*
X106014263Y-119301968D01*
X106056441Y-119344442D01*
X106063583Y-119350266D01*
X106218116Y-119474515D01*
X106268170Y-119507269D01*
X106317765Y-119540722D01*
X106325901Y-119545048D01*
X106501625Y-119636914D01*
X106557078Y-119659318D01*
X106612233Y-119682503D01*
X106621055Y-119685166D01*
X106811276Y-119741151D01*
X106870010Y-119752355D01*
X106928633Y-119764389D01*
X106937805Y-119765288D01*
X107135277Y-119783259D01*
X107195094Y-119782841D01*
X107254911Y-119783259D01*
X107264083Y-119782359D01*
X107461284Y-119761632D01*
X107519834Y-119749613D01*
X107578639Y-119738396D01*
X107587461Y-119735732D01*
X107776882Y-119677097D01*
X107832009Y-119653924D01*
X107887492Y-119631507D01*
X107895629Y-119627181D01*
X108070052Y-119532870D01*
X108119636Y-119499425D01*
X108169699Y-119466665D01*
X108176840Y-119460841D01*
X108329624Y-119334446D01*
X108371744Y-119292031D01*
X108414513Y-119250149D01*
X108420387Y-119243048D01*
X108545711Y-119089386D01*
X108578803Y-119039577D01*
X108612610Y-118990205D01*
X108616993Y-118982098D01*
X108710084Y-118807020D01*
X108732875Y-118751725D01*
X108756446Y-118696730D01*
X108759171Y-118687926D01*
X108816482Y-118498100D01*
X108828098Y-118439434D01*
X108840537Y-118380913D01*
X108841500Y-118371748D01*
X108860850Y-118174407D01*
X108860850Y-118174402D01*
X108864000Y-118142419D01*
X108864000Y-107917582D01*
X116688000Y-107917582D01*
X116688001Y-118142419D01*
X116691249Y-118175397D01*
X116691249Y-118188591D01*
X116692212Y-118197756D01*
X116714315Y-118394808D01*
X116726747Y-118453295D01*
X116738370Y-118511997D01*
X116741096Y-118520800D01*
X116801052Y-118709808D01*
X116824612Y-118764778D01*
X116847414Y-118820099D01*
X116851797Y-118828205D01*
X116947324Y-119001966D01*
X116981130Y-119051338D01*
X117014221Y-119101144D01*
X117020095Y-119108245D01*
X117147552Y-119260142D01*
X117190263Y-119301968D01*
X117232441Y-119344442D01*
X117239583Y-119350266D01*
X117394116Y-119474515D01*
X117444170Y-119507269D01*
X117493765Y-119540722D01*
X117501901Y-119545048D01*
X117677625Y-119636914D01*
X117733078Y-119659318D01*
X117788233Y-119682503D01*
X117797055Y-119685166D01*
X117987276Y-119741151D01*
X118046010Y-119752355D01*
X118104633Y-119764389D01*
X118113805Y-119765288D01*
X118311277Y-119783259D01*
X118371094Y-119782841D01*
X118430911Y-119783259D01*
X118440083Y-119782359D01*
X118637284Y-119761632D01*
X118695834Y-119749613D01*
X118754639Y-119738396D01*
X118763461Y-119735732D01*
X118952882Y-119677097D01*
X119008009Y-119653924D01*
X119063492Y-119631507D01*
X119071629Y-119627181D01*
X119246052Y-119532870D01*
X119295636Y-119499425D01*
X119345699Y-119466665D01*
X119352840Y-119460841D01*
X119505624Y-119334446D01*
X119547744Y-119292031D01*
X119590513Y-119250149D01*
X119596387Y-119243048D01*
X119721711Y-119089386D01*
X119754803Y-119039577D01*
X119788610Y-118990205D01*
X119792993Y-118982098D01*
X119886084Y-118807020D01*
X119908875Y-118751725D01*
X119932446Y-118696730D01*
X119935171Y-118687926D01*
X119992482Y-118498100D01*
X120004098Y-118439434D01*
X120016537Y-118380913D01*
X120017500Y-118371748D01*
X120036850Y-118174407D01*
X120036850Y-118174402D01*
X120040000Y-118142419D01*
X120040000Y-107917582D01*
X120498000Y-107917582D01*
X120498001Y-118142419D01*
X120501249Y-118175397D01*
X120501249Y-118188591D01*
X120502212Y-118197756D01*
X120524315Y-118394808D01*
X120536747Y-118453295D01*
X120548370Y-118511997D01*
X120551096Y-118520800D01*
X120611052Y-118709808D01*
X120634612Y-118764778D01*
X120657414Y-118820099D01*
X120661797Y-118828205D01*
X120757324Y-119001966D01*
X120791130Y-119051338D01*
X120824221Y-119101144D01*
X120830095Y-119108245D01*
X120957552Y-119260142D01*
X121000263Y-119301968D01*
X121042441Y-119344442D01*
X121049583Y-119350266D01*
X121204116Y-119474515D01*
X121254170Y-119507269D01*
X121303765Y-119540722D01*
X121311901Y-119545048D01*
X121487625Y-119636914D01*
X121543078Y-119659318D01*
X121598233Y-119682503D01*
X121607055Y-119685166D01*
X121797276Y-119741151D01*
X121856010Y-119752355D01*
X121914633Y-119764389D01*
X121923805Y-119765288D01*
X122121277Y-119783259D01*
X122181094Y-119782841D01*
X122240911Y-119783259D01*
X122250083Y-119782359D01*
X122447284Y-119761632D01*
X122505834Y-119749613D01*
X122564639Y-119738396D01*
X122573461Y-119735732D01*
X122762882Y-119677097D01*
X122818009Y-119653924D01*
X122873492Y-119631507D01*
X122881629Y-119627181D01*
X123056052Y-119532870D01*
X123105636Y-119499425D01*
X123155699Y-119466665D01*
X123162840Y-119460841D01*
X123315624Y-119334446D01*
X123357744Y-119292031D01*
X123400513Y-119250149D01*
X123406387Y-119243048D01*
X123531711Y-119089386D01*
X123564803Y-119039577D01*
X123598610Y-118990205D01*
X123602993Y-118982098D01*
X123696084Y-118807020D01*
X123718875Y-118751725D01*
X123742446Y-118696730D01*
X123745171Y-118687926D01*
X123802482Y-118498100D01*
X123814098Y-118439434D01*
X123826537Y-118380913D01*
X123827500Y-118371748D01*
X123846850Y-118174407D01*
X123846850Y-118174402D01*
X123850000Y-118142419D01*
X123850000Y-107917581D01*
X123846751Y-107884593D01*
X123846751Y-107871409D01*
X123845788Y-107862244D01*
X123823685Y-107665192D01*
X123811251Y-107606699D01*
X123799630Y-107548003D01*
X123796904Y-107539200D01*
X123736948Y-107350193D01*
X123713400Y-107295249D01*
X123690586Y-107239900D01*
X123686203Y-107231794D01*
X123590676Y-107058034D01*
X123556892Y-107008695D01*
X123523779Y-106958855D01*
X123517905Y-106951755D01*
X123390448Y-106799857D01*
X123347718Y-106758013D01*
X123305559Y-106715558D01*
X123298417Y-106709734D01*
X123143883Y-106585485D01*
X123093847Y-106552742D01*
X123044235Y-106519278D01*
X123036098Y-106514952D01*
X122860375Y-106423086D01*
X122804936Y-106400688D01*
X122749768Y-106377497D01*
X122740946Y-106374834D01*
X122550724Y-106318849D01*
X122492016Y-106307650D01*
X122433367Y-106295611D01*
X122424195Y-106294712D01*
X122226723Y-106276741D01*
X122166906Y-106277159D01*
X122107088Y-106276741D01*
X122097917Y-106277641D01*
X121900715Y-106298368D01*
X121842151Y-106310390D01*
X121783362Y-106321604D01*
X121774540Y-106324268D01*
X121585118Y-106382903D01*
X121530005Y-106406071D01*
X121474507Y-106428493D01*
X121466371Y-106432820D01*
X121291947Y-106527130D01*
X121242331Y-106560597D01*
X121192301Y-106593335D01*
X121185160Y-106599159D01*
X121032376Y-106725553D01*
X120990237Y-106767988D01*
X120947487Y-106809851D01*
X120941613Y-106816952D01*
X120816289Y-106970614D01*
X120783174Y-107020456D01*
X120749390Y-107069796D01*
X120745007Y-107077902D01*
X120651916Y-107252980D01*
X120629125Y-107308275D01*
X120605554Y-107363270D01*
X120602829Y-107372073D01*
X120545518Y-107561900D01*
X120533900Y-107620580D01*
X120521463Y-107679087D01*
X120520500Y-107688252D01*
X120501150Y-107885594D01*
X120501150Y-107885599D01*
X120498000Y-107917582D01*
X120040000Y-107917582D01*
X120040000Y-107917581D01*
X120036751Y-107884593D01*
X120036751Y-107871409D01*
X120035788Y-107862244D01*
X120013685Y-107665192D01*
X120001251Y-107606699D01*
X119989630Y-107548003D01*
X119986904Y-107539200D01*
X119926948Y-107350193D01*
X119903400Y-107295249D01*
X119880586Y-107239900D01*
X119876203Y-107231794D01*
X119780676Y-107058034D01*
X119746892Y-107008695D01*
X119713779Y-106958855D01*
X119707905Y-106951755D01*
X119580448Y-106799857D01*
X119537718Y-106758013D01*
X119495559Y-106715558D01*
X119488417Y-106709734D01*
X119333883Y-106585485D01*
X119283847Y-106552742D01*
X119234235Y-106519278D01*
X119226098Y-106514952D01*
X119050375Y-106423086D01*
X118994936Y-106400688D01*
X118939768Y-106377497D01*
X118930946Y-106374834D01*
X118740724Y-106318849D01*
X118682016Y-106307650D01*
X118623367Y-106295611D01*
X118614195Y-106294712D01*
X118416723Y-106276741D01*
X118356906Y-106277159D01*
X118297088Y-106276741D01*
X118287917Y-106277641D01*
X118090715Y-106298368D01*
X118032151Y-106310390D01*
X117973362Y-106321604D01*
X117964540Y-106324268D01*
X117775118Y-106382903D01*
X117720005Y-106406071D01*
X117664507Y-106428493D01*
X117656371Y-106432820D01*
X117481947Y-106527130D01*
X117432331Y-106560597D01*
X117382301Y-106593335D01*
X117375160Y-106599159D01*
X117222376Y-106725553D01*
X117180237Y-106767988D01*
X117137487Y-106809851D01*
X117131613Y-106816952D01*
X117006289Y-106970614D01*
X116973174Y-107020456D01*
X116939390Y-107069796D01*
X116935007Y-107077902D01*
X116841916Y-107252980D01*
X116819125Y-107308275D01*
X116795554Y-107363270D01*
X116792829Y-107372073D01*
X116735518Y-107561900D01*
X116723900Y-107620580D01*
X116711463Y-107679087D01*
X116710500Y-107688252D01*
X116691150Y-107885594D01*
X116691150Y-107885599D01*
X116688000Y-107917582D01*
X108864000Y-107917582D01*
X108864000Y-107917581D01*
X108860751Y-107884593D01*
X108860751Y-107871409D01*
X108859788Y-107862244D01*
X108837685Y-107665192D01*
X108825251Y-107606699D01*
X108813630Y-107548003D01*
X108810904Y-107539200D01*
X108750948Y-107350193D01*
X108727400Y-107295249D01*
X108704586Y-107239900D01*
X108700203Y-107231794D01*
X108604676Y-107058034D01*
X108570892Y-107008695D01*
X108537779Y-106958855D01*
X108531905Y-106951755D01*
X108404448Y-106799857D01*
X108361718Y-106758013D01*
X108319559Y-106715558D01*
X108312417Y-106709734D01*
X108157883Y-106585485D01*
X108107847Y-106552742D01*
X108058235Y-106519278D01*
X108050098Y-106514952D01*
X107874375Y-106423086D01*
X107818936Y-106400688D01*
X107763768Y-106377497D01*
X107754946Y-106374834D01*
X107564724Y-106318849D01*
X107506016Y-106307650D01*
X107447367Y-106295611D01*
X107438195Y-106294712D01*
X107240723Y-106276741D01*
X107180906Y-106277159D01*
X107121088Y-106276741D01*
X107111917Y-106277641D01*
X106914715Y-106298368D01*
X106856151Y-106310390D01*
X106797362Y-106321604D01*
X106788540Y-106324268D01*
X106599118Y-106382903D01*
X106544005Y-106406071D01*
X106488507Y-106428493D01*
X106480371Y-106432820D01*
X106305947Y-106527130D01*
X106256331Y-106560597D01*
X106206301Y-106593335D01*
X106199160Y-106599159D01*
X106046376Y-106725553D01*
X106004237Y-106767988D01*
X105961487Y-106809851D01*
X105955613Y-106816952D01*
X105830289Y-106970614D01*
X105797174Y-107020456D01*
X105763390Y-107069796D01*
X105759007Y-107077902D01*
X105665916Y-107252980D01*
X105643125Y-107308275D01*
X105619554Y-107363270D01*
X105616829Y-107372073D01*
X105559518Y-107561900D01*
X105547900Y-107620580D01*
X105535463Y-107679087D01*
X105534500Y-107688252D01*
X105515150Y-107885594D01*
X105515150Y-107885599D01*
X105512000Y-107917582D01*
X105054000Y-107917582D01*
X105054000Y-107917581D01*
X105050751Y-107884593D01*
X105050751Y-107871409D01*
X105049788Y-107862244D01*
X105027685Y-107665192D01*
X105015251Y-107606699D01*
X105003630Y-107548003D01*
X105000904Y-107539200D01*
X104940948Y-107350193D01*
X104917400Y-107295249D01*
X104894586Y-107239900D01*
X104890203Y-107231794D01*
X104794676Y-107058034D01*
X104760892Y-107008695D01*
X104727779Y-106958855D01*
X104721905Y-106951755D01*
X104594448Y-106799857D01*
X104551718Y-106758013D01*
X104509559Y-106715558D01*
X104502417Y-106709734D01*
X104347883Y-106585485D01*
X104297847Y-106552742D01*
X104248235Y-106519278D01*
X104240098Y-106514952D01*
X104064375Y-106423086D01*
X104008936Y-106400688D01*
X103953768Y-106377497D01*
X103944946Y-106374834D01*
X103754724Y-106318849D01*
X103696016Y-106307650D01*
X103637367Y-106295611D01*
X103628195Y-106294712D01*
X103430723Y-106276741D01*
X103370906Y-106277159D01*
X103311088Y-106276741D01*
X103301917Y-106277641D01*
X103104715Y-106298368D01*
X103046151Y-106310390D01*
X102987362Y-106321604D01*
X102978540Y-106324268D01*
X102789118Y-106382903D01*
X102734005Y-106406071D01*
X102678507Y-106428493D01*
X102670371Y-106432820D01*
X102495947Y-106527130D01*
X102446331Y-106560597D01*
X102396301Y-106593335D01*
X102389160Y-106599159D01*
X102236376Y-106725553D01*
X102194237Y-106767988D01*
X102151487Y-106809851D01*
X102145613Y-106816952D01*
X102020289Y-106970614D01*
X101987174Y-107020456D01*
X101953390Y-107069796D01*
X101949007Y-107077902D01*
X101855916Y-107252980D01*
X101833125Y-107308275D01*
X101809554Y-107363270D01*
X101806829Y-107372073D01*
X101749518Y-107561900D01*
X101737900Y-107620580D01*
X101725463Y-107679087D01*
X101724500Y-107688252D01*
X101705150Y-107885594D01*
X101705150Y-107885599D01*
X101702000Y-107917582D01*
X101256000Y-107917582D01*
X101256000Y-104159031D01*
X101541120Y-104349542D01*
X101946408Y-104517418D01*
X102376660Y-104603000D01*
X102815340Y-104603000D01*
X103245592Y-104517418D01*
X103650880Y-104349542D01*
X104015630Y-104105824D01*
X104325824Y-103795630D01*
X104569542Y-103430880D01*
X104737418Y-103025592D01*
X104823000Y-102595340D01*
X104823000Y-102156660D01*
X104737418Y-101726408D01*
X104569542Y-101321120D01*
X104379031Y-101036000D01*
X120812969Y-101036000D01*
X120622458Y-101321120D01*
G37*
%TD.AperFunction*%
%TD*%
M02*
