%TF.GenerationSoftware,KiCad,Pcbnew,(7.0.0-rc2-283-gc53ce01b89)*%
%TF.CreationDate,2023-05-01T16:57:45+01:00*%
%TF.ProjectId,4S parallel board,34532070-6172-4616-9c6c-656c20626f61,rev?*%
%TF.SameCoordinates,Original*%
%TF.FileFunction,Profile,NP*%
%FSLAX46Y46*%
G04 Gerber Fmt 4.6, Leading zero omitted, Abs format (unit mm)*
G04 Created by KiCad (PCBNEW (7.0.0-rc2-283-gc53ce01b89)) date 2023-05-01 16:57:45*
%MOMM*%
%LPD*%
G01*
G04 APERTURE LIST*
%TA.AperFunction,Profile*%
%ADD10C,0.050000*%
%TD*%
G04 APERTURE END LIST*
D10*
X95677500Y-130095000D02*
G75*
G03*
X95677500Y-128825000I0J635000D01*
G01*
X95677500Y-116125000D02*
X93772500Y-116125000D01*
X93772500Y-117395000D02*
X95677500Y-117395000D01*
X95677500Y-117395000D02*
G75*
G03*
X95677500Y-116125000I0J635000D01*
G01*
X93772500Y-128825000D02*
G75*
G03*
X93772500Y-130095000I0J-635000D01*
G01*
X93772500Y-116125000D02*
G75*
G03*
X93772500Y-117395000I0J-635000D01*
G01*
X95677500Y-128825000D02*
X93772500Y-128825000D01*
X93772500Y-130095000D02*
X95677500Y-130095000D01*
X158750000Y-113030000D02*
X92820000Y-113030000D01*
X160020000Y-132080000D02*
X160020000Y-114300000D01*
X92820000Y-133350000D02*
X158750000Y-133350000D01*
X91550000Y-114300000D02*
X91550000Y-132080000D01*
X160020000Y-114300000D02*
G75*
G03*
X158750000Y-113030000I-1270000J0D01*
G01*
X158750000Y-133350000D02*
G75*
G03*
X160020000Y-132080000I0J1270000D01*
G01*
X91550000Y-132080000D02*
G75*
G03*
X92820000Y-133350000I1270000J0D01*
G01*
X92820000Y-113030000D02*
G75*
G03*
X91550000Y-114300000I0J-1270000D01*
G01*
X106790000Y-128825000D02*
X104885000Y-128825000D01*
X104885000Y-130095000D02*
X106790000Y-130095000D01*
X106790000Y-130095000D02*
G75*
G03*
X106790000Y-128825000I0J635000D01*
G01*
X104885000Y-128825000D02*
G75*
G03*
X104885000Y-130095000I0J-635000D01*
G01*
X104885000Y-116125000D02*
G75*
G03*
X104885000Y-117395000I0J-635000D01*
G01*
X106790000Y-117395000D02*
G75*
G03*
X106790000Y-116125000I0J635000D01*
G01*
X104885000Y-117395000D02*
X106790000Y-117395000D01*
X106790000Y-116125000D02*
X104885000Y-116125000D01*
M02*
