M48
; DRILL file {KiCad (7.0.0-rc2-283-gc53ce01b89)} date Mon May  1 16:57:46 2023
; FORMAT={-:-/ absolute / inch / decimal}
; #@! TF.CreationDate,2023-05-01T16:57:46+01:00
; #@! TF.GenerationSoftware,Kicad,Pcbnew,(7.0.0-rc2-283-gc53ce01b89)
; #@! TF.FileFunction,Plated,1,2,PTH
FMAT,2
INCH
; #@! TA.AperFunction,Plated,PTH,ComponentDrill
T1C0.0374
; #@! TA.AperFunction,Plated,PTH,ComponentDrill
T2C0.0394
; #@! TA.AperFunction,Plated,PTH,ComponentDrill
T3C0.0827
%
G90
G05
T1
X4.6Y-4.65
X4.6Y-4.7484
X4.6Y-4.8469
X4.6Y-4.9453
X4.6Y-5.0437
X5.1Y-4.65
X5.1Y-4.7484
X5.1Y-4.8469
X5.1Y-4.9453
X5.1Y-5.0437
X5.6Y-4.65
X5.6Y-4.7484
X5.6Y-4.8469
X5.6Y-4.9453
X5.6Y-5.0437
X6.1Y-4.65
X6.1Y-4.7484
X6.1Y-4.8469
X6.1Y-4.9453
X6.1Y-5.0437
T2
X4.3543Y-4.647
X4.3543Y-4.747
X4.3543Y-4.847
X4.3543Y-4.947
X4.3543Y-5.047
T3
X3.9293Y-4.7287
X3.9293Y-4.965
T0
M30
