%TF.GenerationSoftware,KiCad,Pcbnew,(7.0.0-rc2-283-gc53ce01b89)*%
%TF.CreationDate,2023-05-01T16:57:45+01:00*%
%TF.ProjectId,4S parallel board,34532070-6172-4616-9c6c-656c20626f61,rev?*%
%TF.SameCoordinates,Original*%
%TF.FileFunction,Legend,Top*%
%TF.FilePolarity,Positive*%
%FSLAX46Y46*%
G04 Gerber Fmt 4.6, Leading zero omitted, Abs format (unit mm)*
G04 Created by KiCad (PCBNEW (7.0.0-rc2-283-gc53ce01b89)) date 2023-05-01 16:57:45*
%MOMM*%
%LPD*%
G01*
G04 APERTURE LIST*
%ADD10C,0.120000*%
G04 APERTURE END LIST*
D10*
%TO.C,J6*%
X111930000Y-119305000D02*
X111930000Y-129525000D01*
X109270000Y-116705000D02*
X110600000Y-116705000D01*
X109270000Y-119305000D02*
X109270000Y-129525000D01*
X109270000Y-129525000D02*
X111930000Y-129525000D01*
X109270000Y-119305000D02*
X111930000Y-119305000D01*
X109270000Y-118035000D02*
X109270000Y-116705000D01*
%TO.C,J2*%
X118540000Y-117360000D02*
X119290000Y-117360000D01*
X119290000Y-115560000D02*
X118540000Y-115560000D01*
X118540000Y-128860000D02*
X118540000Y-130660000D01*
X118540000Y-127360000D02*
X119290000Y-127360000D01*
X117040000Y-130660000D02*
X117040000Y-129910000D01*
X117040000Y-116310000D02*
X114090000Y-116310000D01*
X119290000Y-118860000D02*
X118540000Y-118860000D01*
X119290000Y-130660000D02*
X119290000Y-128860000D01*
X114090000Y-129910000D02*
X114090000Y-123110000D01*
X118540000Y-115560000D02*
X118540000Y-117360000D01*
X118540000Y-130660000D02*
X119290000Y-130660000D01*
X119590000Y-116510000D02*
X119590000Y-115260000D01*
X119290000Y-127360000D02*
X119290000Y-118860000D01*
X119290000Y-128860000D02*
X118540000Y-128860000D01*
X117040000Y-115560000D02*
X117040000Y-116310000D01*
X113330000Y-130670000D02*
X119300000Y-130670000D01*
X117040000Y-129910000D02*
X114090000Y-129910000D01*
X119300000Y-130670000D02*
X119300000Y-115550000D01*
X118540000Y-118860000D02*
X118540000Y-127360000D01*
X119590000Y-115260000D02*
X118340000Y-115260000D01*
X113330000Y-115550000D02*
X113330000Y-130670000D01*
X119290000Y-117360000D02*
X119290000Y-115560000D01*
X119300000Y-115550000D02*
X113330000Y-115550000D01*
X114090000Y-116310000D02*
X114090000Y-123110000D01*
%TO.C,J12*%
X157400000Y-115550000D02*
X151430000Y-115550000D01*
X151430000Y-115550000D02*
X151430000Y-130670000D01*
X151430000Y-130670000D02*
X157400000Y-130670000D01*
X157400000Y-130670000D02*
X157400000Y-115550000D01*
X157390000Y-118860000D02*
X156640000Y-118860000D01*
X156640000Y-118860000D02*
X156640000Y-127360000D01*
X156640000Y-127360000D02*
X157390000Y-127360000D01*
X157390000Y-127360000D02*
X157390000Y-118860000D01*
X157390000Y-115560000D02*
X156640000Y-115560000D01*
X156640000Y-115560000D02*
X156640000Y-117360000D01*
X156640000Y-117360000D02*
X157390000Y-117360000D01*
X157390000Y-117360000D02*
X157390000Y-115560000D01*
X157390000Y-128860000D02*
X156640000Y-128860000D01*
X156640000Y-128860000D02*
X156640000Y-130660000D01*
X156640000Y-130660000D02*
X157390000Y-130660000D01*
X157390000Y-130660000D02*
X157390000Y-128860000D01*
X155140000Y-115560000D02*
X155140000Y-116310000D01*
X155140000Y-116310000D02*
X152190000Y-116310000D01*
X152190000Y-116310000D02*
X152190000Y-123110000D01*
X155140000Y-130660000D02*
X155140000Y-129910000D01*
X155140000Y-129910000D02*
X152190000Y-129910000D01*
X152190000Y-129910000D02*
X152190000Y-123110000D01*
X157690000Y-116510000D02*
X157690000Y-115260000D01*
X157690000Y-115260000D02*
X156440000Y-115260000D01*
%TO.C,J9*%
X144990000Y-115260000D02*
X143740000Y-115260000D01*
X144990000Y-116510000D02*
X144990000Y-115260000D01*
X139490000Y-129910000D02*
X139490000Y-123110000D01*
X142440000Y-129910000D02*
X139490000Y-129910000D01*
X142440000Y-130660000D02*
X142440000Y-129910000D01*
X139490000Y-116310000D02*
X139490000Y-123110000D01*
X142440000Y-116310000D02*
X139490000Y-116310000D01*
X142440000Y-115560000D02*
X142440000Y-116310000D01*
X144690000Y-130660000D02*
X144690000Y-128860000D01*
X143940000Y-130660000D02*
X144690000Y-130660000D01*
X143940000Y-128860000D02*
X143940000Y-130660000D01*
X144690000Y-128860000D02*
X143940000Y-128860000D01*
X144690000Y-117360000D02*
X144690000Y-115560000D01*
X143940000Y-117360000D02*
X144690000Y-117360000D01*
X143940000Y-115560000D02*
X143940000Y-117360000D01*
X144690000Y-115560000D02*
X143940000Y-115560000D01*
X144690000Y-127360000D02*
X144690000Y-118860000D01*
X143940000Y-127360000D02*
X144690000Y-127360000D01*
X143940000Y-118860000D02*
X143940000Y-127360000D01*
X144690000Y-118860000D02*
X143940000Y-118860000D01*
X144700000Y-130670000D02*
X144700000Y-115550000D01*
X138730000Y-130670000D02*
X144700000Y-130670000D01*
X138730000Y-115550000D02*
X138730000Y-130670000D01*
X144700000Y-115550000D02*
X138730000Y-115550000D01*
%TO.C,J3*%
X132290000Y-115260000D02*
X131040000Y-115260000D01*
X132290000Y-116510000D02*
X132290000Y-115260000D01*
X126790000Y-129910000D02*
X126790000Y-123110000D01*
X129740000Y-129910000D02*
X126790000Y-129910000D01*
X129740000Y-130660000D02*
X129740000Y-129910000D01*
X126790000Y-116310000D02*
X126790000Y-123110000D01*
X129740000Y-116310000D02*
X126790000Y-116310000D01*
X129740000Y-115560000D02*
X129740000Y-116310000D01*
X131990000Y-130660000D02*
X131990000Y-128860000D01*
X131240000Y-130660000D02*
X131990000Y-130660000D01*
X131240000Y-128860000D02*
X131240000Y-130660000D01*
X131990000Y-128860000D02*
X131240000Y-128860000D01*
X131990000Y-117360000D02*
X131990000Y-115560000D01*
X131240000Y-117360000D02*
X131990000Y-117360000D01*
X131240000Y-115560000D02*
X131240000Y-117360000D01*
X131990000Y-115560000D02*
X131240000Y-115560000D01*
X131990000Y-127360000D02*
X131990000Y-118860000D01*
X131240000Y-127360000D02*
X131990000Y-127360000D01*
X131240000Y-118860000D02*
X131240000Y-127360000D01*
X131990000Y-118860000D02*
X131240000Y-118860000D01*
X132000000Y-130670000D02*
X132000000Y-115550000D01*
X126030000Y-130670000D02*
X132000000Y-130670000D01*
X126030000Y-115550000D02*
X126030000Y-130670000D01*
X132000000Y-115550000D02*
X126030000Y-115550000D01*
%TD*%
M02*
