%TF.GenerationSoftware,KiCad,Pcbnew,(7.0.0-rc2-283-gc53ce01b89)*%
%TF.CreationDate,2023-05-01T16:57:45+01:00*%
%TF.ProjectId,4S parallel board,34532070-6172-4616-9c6c-656c20626f61,rev?*%
%TF.SameCoordinates,Original*%
%TF.FileFunction,Copper,L2,Bot*%
%TF.FilePolarity,Positive*%
%FSLAX46Y46*%
G04 Gerber Fmt 4.6, Leading zero omitted, Abs format (unit mm)*
G04 Created by KiCad (PCBNEW (7.0.0-rc2-283-gc53ce01b89)) date 2023-05-01 16:57:45*
%MOMM*%
%LPD*%
G01*
G04 APERTURE LIST*
G04 Aperture macros list*
%AMRoundRect*
0 Rectangle with rounded corners*
0 $1 Rounding radius*
0 $2 $3 $4 $5 $6 $7 $8 $9 X,Y pos of 4 corners*
0 Add a 4 corners polygon primitive as box body*
4,1,4,$2,$3,$4,$5,$6,$7,$8,$9,$2,$3,0*
0 Add four circle primitives for the rounded corners*
1,1,$1+$1,$2,$3*
1,1,$1+$1,$4,$5*
1,1,$1+$1,$6,$7*
1,1,$1+$1,$8,$9*
0 Add four rect primitives between the rounded corners*
20,1,$1+$1,$2,$3,$4,$5,0*
20,1,$1+$1,$4,$5,$6,$7,0*
20,1,$1+$1,$6,$7,$8,$9,0*
20,1,$1+$1,$8,$9,$2,$3,0*%
G04 Aperture macros list end*
%TA.AperFunction,ComponentPad*%
%ADD10RoundRect,0.249999X-1.300001X1.300001X-1.300001X-1.300001X1.300001X-1.300001X1.300001X1.300001X0*%
%TD*%
%TA.AperFunction,ComponentPad*%
%ADD11C,3.100000*%
%TD*%
%TA.AperFunction,ComponentPad*%
%ADD12R,1.700000X1.700000*%
%TD*%
%TA.AperFunction,ComponentPad*%
%ADD13O,1.700000X1.700000*%
%TD*%
%TA.AperFunction,ComponentPad*%
%ADD14O,1.950000X1.700000*%
%TD*%
%TA.AperFunction,ComponentPad*%
%ADD15RoundRect,0.250000X-0.725000X0.600000X-0.725000X-0.600000X0.725000X-0.600000X0.725000X0.600000X0*%
%TD*%
%TA.AperFunction,Conductor*%
%ADD16C,2.200000*%
%TD*%
G04 APERTURE END LIST*
D10*
%TO.P,J1,1,Pin_1*%
%TO.N,VCC*%
X99805000Y-120110000D03*
D11*
%TO.P,J1,2,Pin_2*%
%TO.N,GND*%
X99805000Y-126110000D03*
%TD*%
D12*
%TO.P,J6,1,Pin_1*%
%TO.N,VCC*%
X110599999Y-118034999D03*
D13*
%TO.P,J6,2,Pin_2*%
%TO.N,/B2*%
X110599999Y-120574999D03*
%TO.P,J6,3,Pin_3*%
%TO.N,/B3*%
X110599999Y-123114999D03*
%TO.P,J6,4,Pin_4*%
%TO.N,/B4*%
X110599999Y-125654999D03*
%TO.P,J6,5,Pin_5*%
%TO.N,GND*%
X110599999Y-128194999D03*
%TD*%
D14*
%TO.P,J2,5,Pin_5*%
%TO.N,GND*%
X116839999Y-128109999D03*
%TO.P,J2,4,Pin_4*%
%TO.N,/B4*%
X116839999Y-125609999D03*
%TO.P,J2,3,Pin_3*%
%TO.N,/B3*%
X116839999Y-123109999D03*
%TO.P,J2,2,Pin_2*%
%TO.N,/B2*%
X116839999Y-120609999D03*
D15*
%TO.P,J2,1,Pin_1*%
%TO.N,VCC*%
X116840000Y-118110000D03*
%TD*%
D14*
%TO.P,J12,5,Pin_5*%
%TO.N,GND*%
X154939999Y-128109999D03*
%TO.P,J12,4,Pin_4*%
%TO.N,/B4*%
X154939999Y-125609999D03*
%TO.P,J12,3,Pin_3*%
%TO.N,/B3*%
X154939999Y-123109999D03*
%TO.P,J12,2,Pin_2*%
%TO.N,/B2*%
X154939999Y-120609999D03*
D15*
%TO.P,J12,1,Pin_1*%
%TO.N,VCC*%
X154940000Y-118110000D03*
%TD*%
%TO.P,J9,1,Pin_1*%
%TO.N,VCC*%
X142240000Y-118110000D03*
D14*
%TO.P,J9,2,Pin_2*%
%TO.N,/B2*%
X142239999Y-120609999D03*
%TO.P,J9,3,Pin_3*%
%TO.N,/B3*%
X142239999Y-123109999D03*
%TO.P,J9,4,Pin_4*%
%TO.N,/B4*%
X142239999Y-125609999D03*
%TO.P,J9,5,Pin_5*%
%TO.N,GND*%
X142239999Y-128109999D03*
%TD*%
D15*
%TO.P,J3,1,Pin_1*%
%TO.N,VCC*%
X129540000Y-118110000D03*
D14*
%TO.P,J3,2,Pin_2*%
%TO.N,/B2*%
X129539999Y-120609999D03*
%TO.P,J3,3,Pin_3*%
%TO.N,/B3*%
X129539999Y-123109999D03*
%TO.P,J3,4,Pin_4*%
%TO.N,/B4*%
X129539999Y-125609999D03*
%TO.P,J3,5,Pin_5*%
%TO.N,GND*%
X129539999Y-128109999D03*
%TD*%
D16*
%TO.N,/B4*%
X110645000Y-125610000D02*
X154820000Y-125610000D01*
%TO.N,/B3*%
X154860000Y-123110000D02*
X110605000Y-123110000D01*
%TO.N,/B2*%
X110635000Y-120610000D02*
X154860000Y-120610000D01*
%TD*%
%TA.AperFunction,Conductor*%
%TO.N,GND*%
G36*
X156469845Y-123687700D02*
G01*
X156596244Y-123703500D01*
X156600155Y-123703500D01*
X159843500Y-123703500D01*
X159906500Y-123720381D01*
X159952619Y-123766500D01*
X159969500Y-123829500D01*
X159969500Y-132075044D01*
X159969112Y-132084931D01*
X159955263Y-132260887D01*
X159952170Y-132280414D01*
X159912127Y-132447204D01*
X159906017Y-132466008D01*
X159840377Y-132624477D01*
X159831401Y-132642093D01*
X159741774Y-132788352D01*
X159730153Y-132804348D01*
X159618758Y-132934776D01*
X159604776Y-132948758D01*
X159474348Y-133060153D01*
X159458352Y-133071774D01*
X159312093Y-133161401D01*
X159294477Y-133170377D01*
X159136008Y-133236017D01*
X159117204Y-133242127D01*
X158950414Y-133282170D01*
X158930887Y-133285263D01*
X158767812Y-133298098D01*
X158754929Y-133299112D01*
X158745044Y-133299500D01*
X92824956Y-133299500D01*
X92815070Y-133299112D01*
X92639113Y-133285263D01*
X92619585Y-133282170D01*
X92452795Y-133242127D01*
X92433991Y-133236017D01*
X92275522Y-133170377D01*
X92257906Y-133161401D01*
X92111647Y-133071774D01*
X92095658Y-133060158D01*
X91965214Y-132948749D01*
X91951250Y-132934785D01*
X91839839Y-132804339D01*
X91828225Y-132788352D01*
X91738598Y-132642093D01*
X91729622Y-132624477D01*
X91714055Y-132586896D01*
X91663981Y-132466007D01*
X91657872Y-132447204D01*
X91617829Y-132280414D01*
X91614736Y-132260886D01*
X91600888Y-132084930D01*
X91600500Y-132075044D01*
X91600500Y-129537237D01*
X93087000Y-129537237D01*
X93088573Y-129544129D01*
X93088574Y-129544137D01*
X93119798Y-129680942D01*
X93119800Y-129680948D01*
X93121373Y-129687839D01*
X93124440Y-129694208D01*
X93124442Y-129694213D01*
X93185324Y-129820635D01*
X93188397Y-129827016D01*
X93192809Y-129832549D01*
X93192812Y-129832553D01*
X93280300Y-129942258D01*
X93284711Y-129947789D01*
X93290241Y-129952199D01*
X93399946Y-130039687D01*
X93399948Y-130039688D01*
X93405484Y-130044103D01*
X93544661Y-130111127D01*
X93695263Y-130145500D01*
X93762455Y-130145500D01*
X93772500Y-130145500D01*
X93788908Y-130145500D01*
X95661092Y-130145500D01*
X95687545Y-130145500D01*
X95747659Y-130145500D01*
X95754737Y-130145500D01*
X95905339Y-130111127D01*
X96044516Y-130044103D01*
X96165289Y-129947789D01*
X96261603Y-129827016D01*
X96328627Y-129687839D01*
X96363000Y-129537237D01*
X104199500Y-129537237D01*
X104201073Y-129544129D01*
X104201074Y-129544137D01*
X104232298Y-129680942D01*
X104232300Y-129680948D01*
X104233873Y-129687839D01*
X104236940Y-129694208D01*
X104236942Y-129694213D01*
X104297824Y-129820635D01*
X104300897Y-129827016D01*
X104305309Y-129832549D01*
X104305312Y-129832553D01*
X104392800Y-129942258D01*
X104397211Y-129947789D01*
X104402741Y-129952199D01*
X104512446Y-130039687D01*
X104512448Y-130039688D01*
X104517984Y-130044103D01*
X104657161Y-130111127D01*
X104807763Y-130145500D01*
X104874955Y-130145500D01*
X104885000Y-130145500D01*
X104901408Y-130145500D01*
X106773592Y-130145500D01*
X106800045Y-130145500D01*
X106860159Y-130145500D01*
X106867237Y-130145500D01*
X107017839Y-130111127D01*
X107157016Y-130044103D01*
X107277789Y-129947789D01*
X107374103Y-129827016D01*
X107441127Y-129687839D01*
X107475500Y-129537237D01*
X107475500Y-129382763D01*
X107441127Y-129232161D01*
X107374103Y-129092984D01*
X107317889Y-129022495D01*
X107282199Y-128977741D01*
X107277789Y-128972211D01*
X107272258Y-128967800D01*
X107162553Y-128880312D01*
X107162549Y-128880309D01*
X107157016Y-128875897D01*
X107150635Y-128872824D01*
X107024213Y-128811942D01*
X107024208Y-128811940D01*
X107017839Y-128808873D01*
X107010948Y-128807300D01*
X107010942Y-128807298D01*
X106874137Y-128776074D01*
X106874129Y-128776073D01*
X106867237Y-128774500D01*
X106800045Y-128774500D01*
X104901408Y-128774500D01*
X104885000Y-128774500D01*
X104807763Y-128774500D01*
X104800871Y-128776072D01*
X104800862Y-128776074D01*
X104664057Y-128807298D01*
X104664048Y-128807301D01*
X104657161Y-128808873D01*
X104650793Y-128811939D01*
X104650786Y-128811942D01*
X104524364Y-128872824D01*
X104524360Y-128872826D01*
X104517984Y-128875897D01*
X104512454Y-128880306D01*
X104512446Y-128880312D01*
X104402741Y-128967800D01*
X104402736Y-128967804D01*
X104397211Y-128972211D01*
X104392804Y-128977736D01*
X104392800Y-128977741D01*
X104305312Y-129087446D01*
X104305306Y-129087454D01*
X104300897Y-129092984D01*
X104297826Y-129099360D01*
X104297824Y-129099364D01*
X104236942Y-129225786D01*
X104236939Y-129225793D01*
X104233873Y-129232161D01*
X104232301Y-129239048D01*
X104232298Y-129239057D01*
X104201074Y-129375862D01*
X104201072Y-129375871D01*
X104199500Y-129382763D01*
X104199500Y-129537237D01*
X96363000Y-129537237D01*
X96363000Y-129382763D01*
X96328627Y-129232161D01*
X96261603Y-129092984D01*
X96205389Y-129022495D01*
X96169699Y-128977741D01*
X96165289Y-128972211D01*
X96159758Y-128967800D01*
X96050053Y-128880312D01*
X96050049Y-128880309D01*
X96044516Y-128875897D01*
X96038135Y-128872824D01*
X95911713Y-128811942D01*
X95911708Y-128811940D01*
X95905339Y-128808873D01*
X95898448Y-128807300D01*
X95898442Y-128807298D01*
X95761637Y-128776074D01*
X95761629Y-128776073D01*
X95754737Y-128774500D01*
X95687545Y-128774500D01*
X93788908Y-128774500D01*
X93772500Y-128774500D01*
X93695263Y-128774500D01*
X93688371Y-128776072D01*
X93688362Y-128776074D01*
X93551557Y-128807298D01*
X93551548Y-128807301D01*
X93544661Y-128808873D01*
X93538293Y-128811939D01*
X93538286Y-128811942D01*
X93411864Y-128872824D01*
X93411860Y-128872826D01*
X93405484Y-128875897D01*
X93399954Y-128880306D01*
X93399946Y-128880312D01*
X93290241Y-128967800D01*
X93290236Y-128967804D01*
X93284711Y-128972211D01*
X93280304Y-128977736D01*
X93280300Y-128977741D01*
X93192812Y-129087446D01*
X93192806Y-129087454D01*
X93188397Y-129092984D01*
X93185326Y-129099360D01*
X93185324Y-129099364D01*
X93124442Y-129225786D01*
X93124439Y-129225793D01*
X93121373Y-129232161D01*
X93119801Y-129239048D01*
X93119798Y-129239057D01*
X93088574Y-129375862D01*
X93088572Y-129375871D01*
X93087000Y-129382763D01*
X93087000Y-129537237D01*
X91600500Y-129537237D01*
X91600500Y-123829500D01*
X91617381Y-123766500D01*
X91663500Y-123720381D01*
X91726500Y-123703500D01*
X108864845Y-123703500D01*
X108868756Y-123703500D01*
X108995155Y-123687700D01*
X108995657Y-123687572D01*
X109051497Y-123689853D01*
X109101481Y-123716884D01*
X109134506Y-123763128D01*
X109135903Y-123766500D01*
X109167384Y-123842502D01*
X109299672Y-124058376D01*
X109302879Y-124062131D01*
X109302882Y-124062135D01*
X109460886Y-124247133D01*
X109464102Y-124250898D01*
X109488579Y-124271804D01*
X109500013Y-124281569D01*
X109538015Y-124338444D01*
X109540701Y-124406794D01*
X109507367Y-124466312D01*
X109504102Y-124469102D01*
X109500900Y-124472850D01*
X109500894Y-124472857D01*
X109342882Y-124657864D01*
X109342874Y-124657874D01*
X109339672Y-124661624D01*
X109337093Y-124665832D01*
X109337089Y-124665838D01*
X109209970Y-124873277D01*
X109209966Y-124873283D01*
X109207384Y-124877498D01*
X109205491Y-124882067D01*
X109205489Y-124882072D01*
X109112389Y-125106835D01*
X109112386Y-125106841D01*
X109110495Y-125111409D01*
X109109342Y-125116208D01*
X109109339Y-125116220D01*
X109052546Y-125352784D01*
X109051391Y-125357597D01*
X109051003Y-125362520D01*
X109051002Y-125362530D01*
X109031914Y-125605070D01*
X109031526Y-125610000D01*
X109031914Y-125614930D01*
X109051002Y-125857469D01*
X109051003Y-125857477D01*
X109051391Y-125862403D01*
X109052545Y-125867211D01*
X109052546Y-125867215D01*
X109109339Y-126103779D01*
X109109341Y-126103787D01*
X109110495Y-126108591D01*
X109207384Y-126342502D01*
X109339672Y-126558376D01*
X109342879Y-126562131D01*
X109342882Y-126562135D01*
X109500894Y-126747142D01*
X109504102Y-126750898D01*
X109696624Y-126915328D01*
X109912498Y-127047616D01*
X110146409Y-127144505D01*
X110392597Y-127203609D01*
X110581801Y-127218500D01*
X154880730Y-127218500D01*
X154883199Y-127218500D01*
X155072403Y-127203609D01*
X155318591Y-127144505D01*
X155552502Y-127047616D01*
X155768376Y-126915328D01*
X155960898Y-126750898D01*
X156125328Y-126558376D01*
X156257616Y-126342502D01*
X156354505Y-126108591D01*
X156413609Y-125862403D01*
X156433474Y-125610000D01*
X156413609Y-125357597D01*
X156354505Y-125111409D01*
X156257616Y-124877498D01*
X156125328Y-124661624D01*
X155960898Y-124469102D01*
X155957631Y-124466311D01*
X155924298Y-124406793D01*
X155926984Y-124338442D01*
X155964986Y-124281569D01*
X156000898Y-124250898D01*
X156165328Y-124058376D01*
X156297616Y-123842502D01*
X156330492Y-123763129D01*
X156363516Y-123716885D01*
X156413500Y-123689854D01*
X156469338Y-123687571D01*
X156469845Y-123687700D01*
G37*
%TD.AperFunction*%
%TD*%
%TA.AperFunction,Conductor*%
%TO.N,VCC*%
G36*
X158754930Y-113080888D02*
G01*
X158930886Y-113094736D01*
X158950414Y-113097829D01*
X159033808Y-113117850D01*
X159117205Y-113137872D01*
X159136008Y-113143982D01*
X159294477Y-113209622D01*
X159312093Y-113218598D01*
X159458352Y-113308225D01*
X159474339Y-113319839D01*
X159604785Y-113431250D01*
X159618749Y-113445214D01*
X159730158Y-113575658D01*
X159741774Y-113591647D01*
X159831401Y-113737906D01*
X159840377Y-113755522D01*
X159906017Y-113913991D01*
X159912127Y-113932795D01*
X159952170Y-114099585D01*
X159955263Y-114119113D01*
X159969112Y-114295070D01*
X159969500Y-114304956D01*
X159969500Y-123064000D01*
X159952619Y-123127000D01*
X159906500Y-123173119D01*
X159843500Y-123190000D01*
X156596244Y-123190000D01*
X156536122Y-123174731D01*
X156490572Y-123132625D01*
X156470632Y-123073886D01*
X156453997Y-122862531D01*
X156453609Y-122857597D01*
X156394505Y-122611409D01*
X156297616Y-122377498D01*
X156165328Y-122161624D01*
X156000898Y-121969102D01*
X155997141Y-121965893D01*
X155997139Y-121965891D01*
X155985334Y-121955808D01*
X155952739Y-121912746D01*
X155941167Y-121859994D01*
X155952743Y-121807243D01*
X155985339Y-121764186D01*
X156000898Y-121750898D01*
X156165328Y-121558376D01*
X156297616Y-121342502D01*
X156394505Y-121108591D01*
X156453609Y-120862403D01*
X156473474Y-120610000D01*
X156453609Y-120357597D01*
X156394505Y-120111409D01*
X156297616Y-119877498D01*
X156165328Y-119661624D01*
X156000898Y-119469102D01*
X155997142Y-119465894D01*
X155812135Y-119307882D01*
X155812131Y-119307879D01*
X155808376Y-119304672D01*
X155592502Y-119172384D01*
X155358591Y-119075495D01*
X155353787Y-119074341D01*
X155353779Y-119074339D01*
X155117215Y-119017546D01*
X155117211Y-119017545D01*
X155112403Y-119016391D01*
X155107477Y-119016003D01*
X155107469Y-119016002D01*
X154925655Y-119001693D01*
X154925647Y-119001692D01*
X154923199Y-119001500D01*
X110571801Y-119001500D01*
X110569353Y-119001692D01*
X110569344Y-119001693D01*
X110387530Y-119016002D01*
X110387520Y-119016003D01*
X110382597Y-119016391D01*
X110377789Y-119017545D01*
X110377784Y-119017546D01*
X110141220Y-119074339D01*
X110141208Y-119074342D01*
X110136409Y-119075495D01*
X110131841Y-119077386D01*
X110131835Y-119077389D01*
X109907072Y-119170489D01*
X109907067Y-119170491D01*
X109902498Y-119172384D01*
X109898283Y-119174966D01*
X109898277Y-119174970D01*
X109690838Y-119302089D01*
X109690832Y-119302093D01*
X109686624Y-119304672D01*
X109682874Y-119307874D01*
X109682864Y-119307882D01*
X109497857Y-119465894D01*
X109497850Y-119465900D01*
X109494102Y-119469102D01*
X109490900Y-119472850D01*
X109490894Y-119472857D01*
X109332882Y-119657864D01*
X109332874Y-119657874D01*
X109329672Y-119661624D01*
X109327093Y-119665832D01*
X109327089Y-119665838D01*
X109199970Y-119873277D01*
X109199966Y-119873283D01*
X109197384Y-119877498D01*
X109195491Y-119882067D01*
X109195489Y-119882072D01*
X109102389Y-120106835D01*
X109102386Y-120106841D01*
X109100495Y-120111409D01*
X109099342Y-120116208D01*
X109099339Y-120116220D01*
X109042546Y-120352784D01*
X109041391Y-120357597D01*
X109041003Y-120362520D01*
X109041002Y-120362530D01*
X109021914Y-120605070D01*
X109021526Y-120610000D01*
X109021914Y-120614930D01*
X109041002Y-120857469D01*
X109041003Y-120857477D01*
X109041391Y-120862403D01*
X109042545Y-120867211D01*
X109042546Y-120867215D01*
X109099339Y-121103779D01*
X109099341Y-121103787D01*
X109100495Y-121108591D01*
X109197384Y-121342502D01*
X109329672Y-121558376D01*
X109332879Y-121562131D01*
X109332882Y-121562135D01*
X109403176Y-121644438D01*
X109494102Y-121750898D01*
X109497871Y-121754117D01*
X109501364Y-121757610D01*
X109500234Y-121758739D01*
X109527253Y-121794424D01*
X109538833Y-121847178D01*
X109527261Y-121899934D01*
X109494665Y-121942998D01*
X109467858Y-121965893D01*
X109467850Y-121965900D01*
X109464102Y-121969102D01*
X109460900Y-121972850D01*
X109460894Y-121972857D01*
X109302882Y-122157864D01*
X109302874Y-122157874D01*
X109299672Y-122161624D01*
X109297093Y-122165832D01*
X109297089Y-122165838D01*
X109169970Y-122373277D01*
X109169966Y-122373283D01*
X109167384Y-122377498D01*
X109165491Y-122382067D01*
X109165489Y-122382072D01*
X109072389Y-122606835D01*
X109072386Y-122606841D01*
X109070495Y-122611409D01*
X109069342Y-122616208D01*
X109069339Y-122616220D01*
X109012546Y-122852784D01*
X109011391Y-122857597D01*
X109011003Y-122862522D01*
X109011002Y-122862531D01*
X108994368Y-123073886D01*
X108974428Y-123132625D01*
X108928878Y-123174731D01*
X108868756Y-123190000D01*
X91726500Y-123190000D01*
X91663500Y-123173119D01*
X91617381Y-123127000D01*
X91600500Y-123064000D01*
X91600500Y-116837237D01*
X93087000Y-116837237D01*
X93088573Y-116844129D01*
X93088574Y-116844137D01*
X93119798Y-116980942D01*
X93119800Y-116980948D01*
X93121373Y-116987839D01*
X93124440Y-116994208D01*
X93124442Y-116994213D01*
X93185324Y-117120635D01*
X93188397Y-117127016D01*
X93192809Y-117132549D01*
X93192812Y-117132553D01*
X93280300Y-117242258D01*
X93284711Y-117247789D01*
X93290241Y-117252199D01*
X93399946Y-117339687D01*
X93399948Y-117339688D01*
X93405484Y-117344103D01*
X93544661Y-117411127D01*
X93695263Y-117445500D01*
X93762455Y-117445500D01*
X93772500Y-117445500D01*
X93788908Y-117445500D01*
X95661092Y-117445500D01*
X95687545Y-117445500D01*
X95747659Y-117445500D01*
X95754737Y-117445500D01*
X95905339Y-117411127D01*
X96044516Y-117344103D01*
X96165289Y-117247789D01*
X96261603Y-117127016D01*
X96328627Y-116987839D01*
X96363000Y-116837237D01*
X104199500Y-116837237D01*
X104201073Y-116844129D01*
X104201074Y-116844137D01*
X104232298Y-116980942D01*
X104232300Y-116980948D01*
X104233873Y-116987839D01*
X104236940Y-116994208D01*
X104236942Y-116994213D01*
X104297824Y-117120635D01*
X104300897Y-117127016D01*
X104305309Y-117132549D01*
X104305312Y-117132553D01*
X104392800Y-117242258D01*
X104397211Y-117247789D01*
X104402741Y-117252199D01*
X104512446Y-117339687D01*
X104512448Y-117339688D01*
X104517984Y-117344103D01*
X104657161Y-117411127D01*
X104807763Y-117445500D01*
X104874955Y-117445500D01*
X104885000Y-117445500D01*
X104901408Y-117445500D01*
X106773592Y-117445500D01*
X106800045Y-117445500D01*
X106860159Y-117445500D01*
X106867237Y-117445500D01*
X107017839Y-117411127D01*
X107157016Y-117344103D01*
X107277789Y-117247789D01*
X107374103Y-117127016D01*
X107441127Y-116987839D01*
X107475500Y-116837237D01*
X107475500Y-116682763D01*
X107441127Y-116532161D01*
X107374103Y-116392984D01*
X107317889Y-116322495D01*
X107282199Y-116277741D01*
X107277789Y-116272211D01*
X107272258Y-116267800D01*
X107162553Y-116180312D01*
X107162549Y-116180309D01*
X107157016Y-116175897D01*
X107150635Y-116172824D01*
X107024213Y-116111942D01*
X107024208Y-116111940D01*
X107017839Y-116108873D01*
X107010948Y-116107300D01*
X107010942Y-116107298D01*
X106874137Y-116076074D01*
X106874129Y-116076073D01*
X106867237Y-116074500D01*
X106800045Y-116074500D01*
X104901408Y-116074500D01*
X104885000Y-116074500D01*
X104807763Y-116074500D01*
X104800871Y-116076072D01*
X104800862Y-116076074D01*
X104664057Y-116107298D01*
X104664048Y-116107301D01*
X104657161Y-116108873D01*
X104650793Y-116111939D01*
X104650786Y-116111942D01*
X104524364Y-116172824D01*
X104524360Y-116172826D01*
X104517984Y-116175897D01*
X104512454Y-116180306D01*
X104512446Y-116180312D01*
X104402741Y-116267800D01*
X104402736Y-116267804D01*
X104397211Y-116272211D01*
X104392804Y-116277736D01*
X104392800Y-116277741D01*
X104305312Y-116387446D01*
X104305306Y-116387454D01*
X104300897Y-116392984D01*
X104297826Y-116399360D01*
X104297824Y-116399364D01*
X104236942Y-116525786D01*
X104236939Y-116525793D01*
X104233873Y-116532161D01*
X104232301Y-116539048D01*
X104232298Y-116539057D01*
X104201074Y-116675862D01*
X104201072Y-116675871D01*
X104199500Y-116682763D01*
X104199500Y-116837237D01*
X96363000Y-116837237D01*
X96363000Y-116682763D01*
X96328627Y-116532161D01*
X96261603Y-116392984D01*
X96205389Y-116322495D01*
X96169699Y-116277741D01*
X96165289Y-116272211D01*
X96159758Y-116267800D01*
X96050053Y-116180312D01*
X96050049Y-116180309D01*
X96044516Y-116175897D01*
X96038135Y-116172824D01*
X95911713Y-116111942D01*
X95911708Y-116111940D01*
X95905339Y-116108873D01*
X95898448Y-116107300D01*
X95898442Y-116107298D01*
X95761637Y-116076074D01*
X95761629Y-116076073D01*
X95754737Y-116074500D01*
X95687545Y-116074500D01*
X93788908Y-116074500D01*
X93772500Y-116074500D01*
X93695263Y-116074500D01*
X93688371Y-116076072D01*
X93688362Y-116076074D01*
X93551557Y-116107298D01*
X93551548Y-116107301D01*
X93544661Y-116108873D01*
X93538293Y-116111939D01*
X93538286Y-116111942D01*
X93411864Y-116172824D01*
X93411860Y-116172826D01*
X93405484Y-116175897D01*
X93399954Y-116180306D01*
X93399946Y-116180312D01*
X93290241Y-116267800D01*
X93290236Y-116267804D01*
X93284711Y-116272211D01*
X93280304Y-116277736D01*
X93280300Y-116277741D01*
X93192812Y-116387446D01*
X93192806Y-116387454D01*
X93188397Y-116392984D01*
X93185326Y-116399360D01*
X93185324Y-116399364D01*
X93124442Y-116525786D01*
X93124439Y-116525793D01*
X93121373Y-116532161D01*
X93119801Y-116539048D01*
X93119798Y-116539057D01*
X93088574Y-116675862D01*
X93088572Y-116675871D01*
X93087000Y-116682763D01*
X93087000Y-116837237D01*
X91600500Y-116837237D01*
X91600500Y-114304956D01*
X91600888Y-114295070D01*
X91614736Y-114119113D01*
X91617829Y-114099585D01*
X91657873Y-113932790D01*
X91663982Y-113913991D01*
X91729624Y-113755516D01*
X91738598Y-113737906D01*
X91828225Y-113591647D01*
X91839834Y-113575666D01*
X91951256Y-113445207D01*
X91965207Y-113431256D01*
X92095666Y-113319834D01*
X92111647Y-113308225D01*
X92257906Y-113218598D01*
X92275516Y-113209624D01*
X92433995Y-113143980D01*
X92452790Y-113137873D01*
X92619586Y-113097828D01*
X92639113Y-113094736D01*
X92815070Y-113080888D01*
X92824956Y-113080500D01*
X92836408Y-113080500D01*
X158733592Y-113080500D01*
X158745044Y-113080500D01*
X158754930Y-113080888D01*
G37*
%TD.AperFunction*%
%TD*%
M02*
